<?xml version="1.0" encoding="utf-8"?>
<!-- Generator: Adobe Illustrator 16.0.3, SVG Export Plug-In . SVG Version: 6.00 Build 0)  -->
<!DOCTYPE svg PUBLIC "-//W3C//DTD SVG 1.1//EN" "http://www.w3.org/Graphics/SVG/1.1/DTD/svg11.dtd">
<svg version="1.1" id="Layer_1" xmlns="http://www.w3.org/2000/svg" xmlns:xlink="http://www.w3.org/1999/xlink" x="0px" y="0px"
	 width="763.553px" height="140.396px" viewBox="0 0 763.553 140.396" enable-background="new 0 0 763.553 140.396"
	 xml:space="preserve">
<line fill-rule="evenodd" clip-rule="evenodd" fill="#006837" stroke="#000000" stroke-width="2" stroke-miterlimit="10" x1="5" y1="69.801" x2="759" y2="69.801"/>
<line fill-rule="evenodd" clip-rule="evenodd" fill="#006837" stroke="#000000" stroke-width="2" stroke-miterlimit="10" x1="5" y1="61.801" x2="5" y2="74.801"/>
<line fill-rule="evenodd" clip-rule="evenodd" fill="#006837" stroke="#000000" stroke-width="2" stroke-miterlimit="10" x1="759" y1="61.801" x2="759" y2="74.801"/>
<line fill-rule="evenodd" clip-rule="evenodd" fill="#006837" stroke="#000000" stroke-width="2" stroke-miterlimit="10" x1="105" y1="62.801" x2="105" y2="75.801"/>
<line fill-rule="evenodd" clip-rule="evenodd" fill="#006837" stroke="#000000" stroke-width="2" stroke-miterlimit="10" x1="205" y1="62.801" x2="205" y2="75.801"/>
<line fill-rule="evenodd" clip-rule="evenodd" fill="#006837" stroke="#000000" stroke-width="2" stroke-miterlimit="10" x1="305" y1="61.801" x2="305" y2="74.801"/>
<line fill-rule="evenodd" clip-rule="evenodd" fill="#006837" stroke="#000000" stroke-width="2" stroke-miterlimit="10" x1="405" y1="61.801" x2="405" y2="74.801"/>
<line fill-rule="evenodd" clip-rule="evenodd" fill="#006837" stroke="#000000" stroke-width="2" stroke-miterlimit="10" x1="505" y1="62.801" x2="505" y2="75.801"/>
<line fill-rule="evenodd" clip-rule="evenodd" fill="#006837" stroke="#000000" stroke-width="2" stroke-miterlimit="10" x1="606" y1="62.801" x2="606" y2="75.801"/>
<line fill-rule="evenodd" clip-rule="evenodd" fill="#006837" stroke="#000000" stroke-width="2" stroke-miterlimit="10" x1="705" y1="62.801" x2="705" y2="75.801"/>
<text transform="matrix(1 0 0 1 100 94.8008)" font-family="'MyriadPro-Regular'" font-size="18">1</text>
<text transform="matrix(1 0 0 1 200 94.8008)" font-family="'MyriadPro-Regular'" font-size="18">2</text>
<text transform="matrix(1 0 0 1 299 94.8008)" font-family="'MyriadPro-Regular'" font-size="18">3</text>
<text transform="matrix(1 0 0 1 400 94.8008)" font-family="'MyriadPro-Regular'" font-size="18">4</text>
<text transform="matrix(1 0 0 1 500 94.8008)" font-family="'MyriadPro-Regular'" font-size="18">5</text>
<text transform="matrix(1 0 0 1 601 94.8008)" font-family="'MyriadPro-Regular'" font-size="18">6</text>
<text transform="matrix(1 0 0 1 699 94.8008)" font-family="'MyriadPro-Regular'" font-size="18">7</text>
<text transform="matrix(1 0 0 1 321.3584 132.8008)" font-family="'HelveticaNeueLight'" font-size="36">Seconds</text>
<text transform="matrix(1 0 0 1 0 94.8008)" font-family="'MyriadPro-Regular'" font-size="18">0</text>
<g>
	<path fill-rule="evenodd" clip-rule="evenodd" fill="#006837" d="M366.245,47.5c0.389,0.057,0.775,0.113,1.163,0.17
		c0.446-3.928,0.892-7.855,1.339-11.784c0.387,0.013,0.773,0.024,1.16,0.037c0.211,1.759,0.422,3.517,0.635,5.274
		c0.218,1.788,0.438,3.577,0.657,5.365c0.501-0.031,1.002-0.063,1.502-0.095c0.103-1.693,0.139-3.396,0.327-5.079
		c0.209-1.871,0.558-3.724,0.846-5.585c0.392,0.003,0.783,0.007,1.176,0.01c0.493,3.569,0.987,7.14,1.481,10.71
		c5.153-14.738,4.78-29.301,1.451-43.885c-0.392-0.078-0.783-0.155-1.174-0.232c-0.496,3.108-0.993,6.216-1.489,9.324
		c-0.297,0.011-0.593,0.022-0.89,0.034c-0.394-3.071-0.788-6.141-1.183-9.21c-0.342-0.034-0.685-0.068-1.028-0.103
		c-0.732,1.067-1.465,2.134-2.341,3.409c-0.769-1.734-1.34-3.024-2.125-4.793C362.731,16.959,363.941,32.219,366.245,47.5z
		 M316.854,2.147c-4.547,7.59-4.698,35.226-0.631,43.909c0.78-3.743,1.387-6.661,1.995-9.578c0.348,0.067,0.695,0.134,1.043,0.201
		c0.539,3.204,1.077,6.407,1.615,9.611c0.486-0.018,0.973-0.035,1.46-0.053c0.388-3.102,0.776-6.204,1.165-9.305
		c2.213,2.88-0.243,6.689,3.194,9.149c3.703-12.086,3.647-37.79-0.289-43.805c-0.7,3.584-1.337,6.851-1.974,10.118
		c-0.488-0.079-0.975-0.157-1.463-0.235c0-1.589,0.031-3.179-0.008-4.767c-0.041-1.66-0.149-3.318-0.228-4.977
		c-0.503-0.043-1.007-0.085-1.51-0.127c-0.55,3.329-1.099,6.658-1.649,9.988c-0.354-0.015-0.709-0.028-1.064-0.043
		C317.958,8.872,317.406,5.509,316.854,2.147z M584.893,45.896c0.381-0.008,0.762-0.016,1.141-0.023
		c4.176-12.084,4.307-36.864-0.248-43.311c-0.479,3.061-0.865,5.545-1.254,8.029c-0.213,0.021-0.428,0.043-0.643,0.064
		c-0.645-2.484-1.291-4.967-1.936-7.45c-0.426,0.092-0.852,0.184-1.279,0.274c-0.248,2.501-0.496,5.003-0.744,7.506
		c-0.369,0.018-0.736,0.035-1.105,0.053c-0.596-2.792-1.191-5.582-1.787-8.373c-0.367,0.068-0.732,0.136-1.1,0.204
		c-4.191,14.565-3.422,29.161-0.475,43.772c0.367,0.049,0.734,0.098,1.102,0.146c0.672-3.298,1.346-6.596,2.018-9.896
		c0.266,0.051,0.529,0.101,0.793,0.15c0.277,2.987,0.555,5.974,0.832,8.961c0.504,0.021,1.01,0.043,1.514,0.065
		c0.41-3.229,0.82-6.457,1.23-9.685c0.441,0.033,0.881,0.066,1.322,0.099C584.479,39.621,584.686,42.759,584.893,45.896z
		 M635.186,10.032c-0.299-0.023-0.598-0.048-0.896-0.072c-0.137-0.461-0.283-0.92-0.41-1.384c-0.488-1.782-0.971-3.565-1.455-5.347
		c-0.57,1.87-1.152,3.737-1.705,5.611c-0.266,0.902-0.473,1.82-0.707,2.731c-0.939-1.609-0.953-3.073-1.154-4.51
		c-0.203-1.439-0.592-2.853-0.9-4.276c-0.516,0.063-1.029,0.127-1.545,0.191c-1.729,14.292-3.807,28.583-0.004,44.027
		c1.307-2.244,2.074-3.562,3.039-5.217c0.893,1.629,1.563,2.85,2.232,4.07c0.268-0.071,0.535-0.143,0.805-0.214
		c0.324-2.629,0.648-5.257,0.975-7.886c0.336,0,0.672-0.001,1.008-0.001c0.605,2.688,1.211,5.376,1.816,8.064
		c0.359-0.065,0.719-0.131,1.078-0.196c2.777-14.08,3.49-28.176,0.748-42.302c-0.467-0.043-0.932-0.086-1.398-0.129
		C636.203,5.473,635.695,7.753,635.186,10.032z M81.401,10.768c-0.495-0.061-0.99-0.121-1.486-0.182c0-2.445,0.143-4.904-0.072-7.33
		c-0.083-0.941-0.976-1.811-1.5-2.713c-0.401,0.896-0.995,1.76-1.159,2.698c-0.253,1.453-0.224,2.956-0.296,4.439
		c-0.392,8.104-1.012,16.208-1.07,24.315c-0.031,4.265,0.923,8.535,1.432,12.804c0.495,0.008,0.989,0.015,1.483,0.022
		c0.52-3.18,1.039-6.358,1.559-9.539c0.319,0.034,0.638,0.068,0.958,0.103c0.349,2.954,0.698,5.907,1.048,8.86
		c0.471-0.024,0.943-0.049,1.415-0.073c0.548-3.499,1.095-6.997,1.643-10.495c0.308,0.057,0.614,0.113,0.922,0.17
		c0.62,3.279,1.239,6.559,2.009,10.631c0.85-1.164,1.431-1.602,1.503-2.109c1.894-13.374,1.83-26.8,0.912-40.237
		c-0.045-0.662-0.793-1.276-1.213-1.913c-0.584,0.641-1.57,1.222-1.68,1.936c-0.393,2.576-0.491,5.197-0.7,7.801
		c-0.466-0.01-0.933-0.021-1.399-0.03c-0.398-3.083-0.796-6.166-1.195-9.25c-0.506-0.008-1.012-0.016-1.519-0.023
		C82.464,4.024,81.932,7.396,81.401,10.768z M63.16,9.93c-0.308,0.012-0.615,0.024-0.923,0.036
		c-0.549-3.194-1.099-6.389-1.648-9.583c-0.482,0.066-0.964,0.132-1.446,0.197c-0.215,2.981-0.431,5.962-0.687,9.508
		c-3.015-3.131,0.742-8.301-3.994-10.037c-2.803,15.355-2.981,30.458-0.828,45.573c0.433,0.099,0.865,0.198,1.298,0.297
		c0.843-3.393,1.686-6.783,2.529-10.176c0.287,0.024,0.574,0.05,0.861,0.075c0.166,3.284,0.331,6.57,0.496,9.856
		c0.498,0.006,0.996,0.011,1.494,0.017c0.534-3.446,1.067-6.892,1.601-10.337c0.197-0.005,0.395-0.009,0.592-0.013
		c0.404,3.115,0.809,6.231,1.213,9.346c0.519-0.003,1.037-0.006,1.556-0.01c0.731-7.398,1.908-14.787,2.076-22.199
		c0.2-8.759-1.947-20.445-3.467-21.886C63.629,3.866,63.395,6.898,63.16,9.93z M657.322,11.991c-0.365-0.032-0.732-0.064-1.1-0.097
		c-0.109-2.088-0.098-4.193-0.395-6.254c-0.105-0.743-0.953-1.38-1.463-2.065c-0.412,0.625-1.096,1.211-1.191,1.881
		c-0.719,5.093-1.83,10.2-1.85,15.307c-0.033,8.467,0.658,16.937,1.045,25.405c0.648,0.046,1.297,0.091,1.943,0.137
		c0.561-3.1,1.121-6.198,1.68-9.297c0.287,0.021,0.574,0.042,0.861,0.063c0.531,2.686,1.063,5.372,1.594,8.059
		c0.445-0.023,0.891-0.047,1.338-0.07c0.502-2.922,1.004-5.842,1.508-8.763c0.289,0.009,0.58,0.018,0.873,0.026
		c0.449,3.074,0.898,6.15,1.348,9.226c0.371-0.039,0.742-0.077,1.113-0.116c3.332-13.879,3.615-27.801,0.477-41.773
		c-0.373-0.056-0.746-0.11-1.119-0.166c-0.381,2.66-0.76,5.32-1.141,7.98c-0.285-0.029-0.57-0.059-0.855-0.088
		c-0.582-2.698-1.164-5.394-1.746-8.09c-0.395,0.039-0.789,0.077-1.186,0.116C658.479,6.272,657.9,9.131,657.322,11.991z
		 M686.488,35.393c0.371,0.051,0.742,0.103,1.115,0.153c1.082,3.362-1.646,7.709,2.25,10.82c3.59-14.562,4.67-28.618-0.119-43.813
		c-0.98,3.719-1.721,6.533-2.463,9.348c-0.303-0.081-0.605-0.161-0.908-0.241c-0.453-2.773-0.908-5.545-1.363-8.318
		c-0.514,0.067-1.027,0.134-1.543,0.201c-0.426,2.83-0.852,5.659-1.277,8.489c-0.328-0.049-0.658-0.099-0.988-0.147
		c-0.1-0.969-0.223-1.935-0.291-2.906c-0.068-0.994,0.113-2.052-0.174-2.97c-0.285-0.902-1.02-1.664-1.557-2.486
		c-0.412,0.967-1.111,1.917-1.176,2.907c-0.115,1.791,0.668,3.767,0.168,5.385c-3.402,11.028-0.902,22.061-0.295,33.09
		c0.016,0.297,0.66,0.561,1.607,1.312c0.588-2.938,1.088-5.421,1.586-7.905c0.195-0.021,0.391-0.043,0.584-0.064
		c0.543,2.34,1.086,4.679,1.629,7.019c0.453-0.017,0.906-0.033,1.357-0.049C685.25,41.941,685.869,38.667,686.488,35.393z
		 M447.15,11.51c-0.475-0.018-0.951-0.035-1.426-0.053c0-2.028,0.139-4.069-0.066-6.075c-0.082-0.813-0.914-1.55-1.404-2.322
		c-0.521,0.726-1.385,1.401-1.498,2.185c-0.303,2.132,0.006,4.373-0.451,6.456c-2.471,11.284-0.951,22.482,0.512,33.688
		c0.033,0.253,0.762,0.414,1.584,0.828c0.41-3.574,0.787-6.867,1.164-10.162c0.33,0.046,0.662,0.092,0.994,0.139
		c0.328,3.215,0.658,6.431,0.986,9.646c0.59-0.005,1.18-0.011,1.771-0.016c0.361-3.155,0.723-6.311,1.086-9.466
		c0.299,0.05,0.6,0.101,0.898,0.15c0.484,3.313,0.967,6.626,1.451,9.939c0.438-0.071,0.875-0.143,1.313-0.215
		c1.82-14.294,5.182-28.599-0.875-42.955c-0.521,2.476-1.045,4.951-1.566,7.428c-0.201-0.054-0.402-0.107-0.602-0.161
		c-0.521-2.509-1.043-5.016-1.564-7.524c-0.428,0.047-0.857,0.093-1.287,0.139C447.83,5.943,447.49,8.726,447.15,11.51z
		 M550.514,3.139c-0.41,0.092-0.82,0.185-1.23,0.276c-2.914,11.368-3.225,36.93,0.607,43.526c0.555-3.708,1.109-7.416,1.664-11.125
		c0.289,0.041,0.58,0.082,0.871,0.123c0.326,3.408,0.654,6.815,0.982,10.224c0.521,0.01,1.047,0.02,1.57,0.029
		c0.492-3.226,0.986-6.452,1.479-9.677c0.33,0.061,0.658,0.121,0.986,0.182c0.225,3.408,0.449,6.815,0.672,10.223
		c0.535-0.037,1.07-0.076,1.605-0.113c2.686-14.547,4.295-29.111-0.629-43.906c-0.338,3.161-0.678,6.321-1.016,9.482
		c-0.336-0.016-0.672-0.031-1.008-0.047c-0.59-3.15-1.18-6.3-1.768-9.449c-0.457,0.039-0.912,0.079-1.367,0.118
		c-0.271,2.665-0.541,5.33-0.813,7.995c-0.258-0.043-0.516-0.088-0.773-0.131C551.736,8.292,551.125,5.716,550.514,3.139z
		 M36.804,44.905c0.45-0.041,0.9-0.083,1.35-0.125c2.413-14.601,3.126-29.202,0.357-43.808c-0.458-0.04-0.916-0.08-1.373-0.12
		c-0.371,2.667-0.741,5.333-1.112,8c-0.244-0.053-0.486-0.105-0.73-0.158c-0.3-2.647-0.6-5.294-0.9-7.942
		c-0.5-0.026-1-0.053-1.5-0.079c-0.525,3.068-1.05,6.137-1.576,9.205c-0.308-0.063-0.615-0.128-0.922-0.191
		c-0.6-2.966-1.199-5.932-1.799-8.898c-0.467,0.085-0.934,0.17-1.4,0.255c-3.258,14.378-2.107,28.792-0.374,43.21
		c0.461,0.075,0.923,0.151,1.384,0.227c0.617-3.312,1.234-6.623,1.851-9.935c0.353-0.002,0.705-0.002,1.057-0.004
		c0.39,3.425,0.778,6.85,1.167,10.273c0.447-0.037,0.894-0.074,1.34-0.11c0.388-3.026,0.776-6.052,1.164-9.078
		c0.358,0.043,0.716,0.085,1.073,0.128C36.175,38.805,36.49,41.855,36.804,44.905z M737.014,12.058
		c-0.52-0.053-1.041-0.105-1.561-0.158c0-2.098,0.105-4.204-0.053-6.29c-0.063-0.804-0.729-1.561-1.119-2.337
		c-0.549,0.692-1.508,1.341-1.586,2.083c-1.117,10.734-2.512,21.467-0.785,32.281c0.43,2.691,0.59,5.425,0.875,8.14
		c0.48,0.004,0.959,0.007,1.439,0.01c0.564-2.963,1.131-5.925,1.697-8.888c0.344-0.011,0.688-0.021,1.031-0.032
		c0.379,2.96,0.76,5.92,1.141,8.88c0.424-0.025,0.846-0.052,1.27-0.078c0.594-3.036,1.188-6.072,1.781-9.107
		c0.326,0.038,0.65,0.077,0.975,0.115c0.514,2.836,1.025,5.672,1.539,8.507c3.836-7.089,3.91-36.404,0.246-43.097
		c-0.779,4.288-1.369,7.532-1.959,10.777c-0.318-0.053-0.637-0.105-0.957-0.158c-0.336-3.27-0.672-6.54-1.01-9.81
		c-0.521-0.012-1.043-0.022-1.564-0.034C737.947,5.926,737.48,8.992,737.014,12.058z M212.528,2.256
		c-0.393,0.049-0.786,0.098-1.178,0.146c-3.847,14.081-2.544,28.211-0.981,42.344c0.487,0.079,0.974,0.158,1.461,0.236
		c0.546-2.932,1.092-5.863,1.638-8.794c1.089,1.62,1.255,3.177,1.469,4.726c0.204,1.477,0.458,2.946,0.691,4.419
		c0.508-0.005,1.016-0.01,1.523-0.015c0.198-1.514,0.415-3.025,0.591-4.543c0.191-1.648,0.345-3.301,0.516-4.952
		c0.358,0.036,0.716,0.072,1.075,0.108c0.389,3.244,0.779,6.487,1.167,9.731c4.868-9.356,4.649-39.04,0.317-43.612
		c-0.438,3.124-0.841,5.997-1.244,8.873c-0.391-0.008-0.781-0.016-1.172-0.023c-0.344-2.842-0.688-5.685-1.031-8.527
		c-0.38,0.02-0.761,0.038-1.141,0.058c-0.486,3.039-0.973,6.076-1.459,9.116c-0.365-0.018-0.729-0.037-1.094-0.055
		C213.292,8.414,212.911,5.335,212.528,2.256z M350.918,45.432c0.434,0.017,0.867,0.033,1.301,0.05
		c2.277-14.118,3.634-28.247-0.961-42.61c-0.425,2.948-0.851,5.896-1.276,8.844c-0.36-0.041-0.72-0.082-1.081-0.123
		c-0.366-2.923-0.732-5.848-1.099-8.771c-0.419,0.027-0.837,0.056-1.257,0.084c-0.467,2.611-0.935,5.222-1.402,7.833
		c-0.979-0.94-1.215-1.817-1.298-2.709c-0.108-1.157,0.088-2.374-0.196-3.474c-0.206-0.793-0.981-1.44-1.502-2.153
		c-0.464,0.774-1.213,1.501-1.351,2.33c-2.268,13.713-1.645,27.434,0.05,41.145c0.038,0.307,0.653,0.542,1.583,1.264
		c0.523-3.287,0.971-6.105,1.419-8.925c0.175-0.006,0.35-0.012,0.525-0.018c0.539,2.878,1.077,5.754,1.616,8.63
		c0.48-0.01,0.961-0.021,1.441-0.031c0.346-3.683,0.691-7.365,1.037-11.047c0.419,0.014,0.838,0.027,1.256,0.04
		C350.123,39.004,350.52,42.219,350.918,45.432z M530.506,37.854c0.361,0.028,0.725,0.058,1.088,0.086
		c0,1.883-0.18,3.793,0.078,5.641c0.123,0.893,1.07,1.67,1.645,2.5c0.289-0.825,0.734-1.632,0.84-2.48
		c0.58-4.617,1.525-9.246,1.506-13.867c-0.033-8.411-0.645-16.821-1.076-25.229c-0.016-0.323-0.672-0.614-1.658-1.458
		c-0.512,2.917-0.938,5.351-1.363,7.784c-0.24,0.01-0.48,0.02-0.721,0.031c-0.586-2.425-1.174-4.85-1.762-7.274
		c-0.387,0.069-0.771,0.14-1.158,0.209c-0.424,2.935-0.848,5.869-1.271,8.804c-0.375-0.002-0.75-0.004-1.127-0.006
		c-0.34-2.998-0.68-5.994-1.072-9.453c-1.051,0.828-1.508,1.008-1.527,1.227c-1.01,11.33-4.803,22.559-1.104,34.075
		c0.529,1.649,0.02,3.608,0.184,5.407c0.107,1.163,0.568,2.293,0.869,3.438c0.66-1.111,1.65-2.154,1.904-3.353
		c0.412-1.948,0.34-3.997,0.473-6.003c0.336,0.029,0.672,0.06,1.01,0.089c0.424,2.702,0.848,5.404,1.271,8.106
		c0.484-0.011,0.967-0.021,1.451-0.032C529.492,43.349,529.998,40.602,530.506,37.854z M611.547,3.083
		c-0.406-0.015-0.811-0.029-1.217-0.045c-0.436,2.617-0.871,5.234-1.307,7.852c-0.334-0.059-0.668-0.116-1.002-0.173
		c-0.266-2.615-0.529-5.23-0.795-7.845c-0.525-0.013-1.049-0.024-1.574-0.036c-0.404,2.833-0.809,5.665-1.213,8.498
		c-0.25,0.012-0.502,0.023-0.752,0.035c-0.615-2.765-1.23-5.528-2.076-9.324c-4.061,8.411-4.064,38.511-0.184,44.88
		c0.584-3.698,1.074-6.795,1.564-9.891c0.32-0.017,0.643-0.033,0.963-0.05c0.359,2.724,0.721,5.446,1.08,8.17
		c0.414,0.023,0.828,0.048,1.242,0.072c0.619-2.458,1.236-4.915,1.855-7.371c0.875,1.399,1.004,2.69,1.211,3.97
		c0.186,1.14,0.457,2.266,0.691,3.398c0.418-0.045,0.838-0.089,1.256-0.134C612.912,31.113,616.023,17.158,611.547,3.083z
		 M10.398,44.513c0.541,0.014,1.083,0.027,1.624,0.041c2.251-14.422,3.318-28.845,0.335-43.275
		c-0.413-0.029-0.826-0.058-1.239-0.087c-0.493,2.479-0.986,4.958-1.479,7.438C9.476,8.605,9.313,8.581,9.151,8.556
		C8.744,5.979,8.337,3.402,7.93,0.825c-0.489,0.02-0.978,0.04-1.466,0.06C6.279,2.263,6.091,3.641,5.909,5.02
		C5.719,6.452,5.536,7.885,5.24,10.164C2.579,6.469,5.411,2.194,2.042,0C1.511,0.061,0.979,0.122,0.448,0.183
		c0,14.807,0,29.613,0,44.896c4.297-2.105,2.628-6.431,4.706-9.405c0.316,2.89,0.633,5.779,0.949,8.668
		c0.479,0.02,0.958,0.039,1.438,0.058c0.442-2.575,0.884-5.151,1.325-7.728c0.199,0.057,0.397,0.112,0.596,0.168
		C9.774,39.396,10.086,41.955,10.398,44.513z M240.009,45.876c4.428,0.714,6.007-1.534,6.859-5.294
		c2.816-12.423,1.186-24.801-0.062-37.192c-0.036-0.35-0.578-0.648-1.665-1.793c-0.401,3.298-0.706,5.811-1.011,8.323
		c-0.23-0.028-0.46-0.056-0.689-0.083c-0.397-2.508-0.795-5.017-1.192-7.525c-0.397,0.028-0.793,0.056-1.19,0.083
		c-0.518,2.918-1.035,5.836-1.552,8.753c-0.348-0.021-0.696-0.045-1.043-0.066c-0.384-2.942-0.769-5.883-1.153-8.824
		c-4.419,14.359-4.167,28.583-1.929,42.831c0.42,0.055,0.84,0.109,1.26,0.164c0.596-3.267,1.193-6.535,1.789-9.803
		c0.314,0.048,0.629,0.096,0.943,0.144C239.585,39.014,239.796,42.436,240.009,45.876z M401.793,46.108
		c0.447-0.008,0.896-0.017,1.346-0.024c3.768-14.443,3-28.949,0.92-43.475c-0.445-0.056-0.889-0.111-1.334-0.167
		c-0.537,3.144-1.074,6.287-1.611,9.43c-0.25-0.023-0.498-0.047-0.748-0.071c-0.426-2.948-0.852-5.895-1.277-8.842
		c-0.43,0.025-0.861,0.051-1.293,0.076c-0.545,2.573-1.092,5.145-1.637,7.718c-0.34-0.037-0.678-0.074-1.016-0.111
		c-0.088-1.902-0.012-3.832-0.334-5.693c-0.16-0.926-1.053-1.724-1.615-2.58c-0.428,0.965-1.113,1.9-1.232,2.902
		c-0.268,2.287-0.055,4.637-0.4,6.906c-1.338,8.79-1.631,17.513,0.385,26.275c0.625,2.71,0.379,5.621,0.531,8.44
		c0.477,0.031,0.955,0.064,1.432,0.096c0.467-3.354,0.936-6.709,1.402-10.064c0.244-0.021,0.486-0.044,0.729-0.066
		c0.465,3.057,0.93,6.112,1.396,9.168c0.387-0.049,0.771-0.097,1.158-0.146c0.381-3.156,0.762-6.312,1.143-9.468
		c0.5,0.039,1,0.079,1.502,0.119C401.422,39.723,401.607,42.916,401.793,46.108z M272.422,45.554c0.385-0.047,0.77-0.094,1.155-0.14
		c3.619-11.672,3.462-37.961-0.491-42.578c-0.432,3.075-0.831,5.916-1.23,8.757c-0.377,0-0.754,0-1.13,0
		c-0.389-3.037-0.777-6.072-1.165-9.108c-0.498,0.008-0.996,0.017-1.494,0.024c-0.351,3.14-0.702,6.279-1.053,9.419
		c-0.374-0.025-0.748-0.05-1.122-0.074c-0.485-3.224-0.969-6.447-1.454-9.671c-0.508,0.026-1.016,0.052-1.524,0.077
		c-0.762,8.088-1.878,16.165-2.162,24.27c-0.189,5.4,0.769,10.848,1.311,16.265c0.1,1,0.664,1.954,1.014,2.93
		c0.572-0.964,1.456-1.87,1.651-2.905c0.421-2.234,0.49-4.534,0.703-6.809c0.377,0.033,0.753,0.065,1.13,0.098
		c0.157,1.63,0.286,3.262,0.48,4.887c0.183,1.527,0.434,3.046,0.655,4.568c0.47-0.044,0.94-0.087,1.41-0.131
		c0.401-3.381,0.803-6.763,1.205-10.146c0.43,0.03,0.86,0.06,1.29,0.089C271.875,38.77,272.149,42.162,272.422,45.554z
		 M707.535,37.156c0.363-0.068,0.725-0.136,1.088-0.204c0.227,1.602,0.475,3.198,0.67,4.804c0.18,1.464,0.301,2.936,0.447,4.404
		c0.49,0.001,0.979,0.003,1.469,0.004c0.531-3.165,1.063-6.33,1.594-9.494c0.35,0.01,0.699,0.02,1.051,0.029
		c0.4,3.371,0.803,6.741,1.203,10.111c4.309-7.828,4.521-33.902,0.357-43.403c-0.568,2.565-1.137,5.13-1.705,7.696
		c-0.18-0.031-0.357-0.061-0.535-0.092c-0.523-2.353-1.045-4.706-1.566-7.06c-0.426,0.021-0.852,0.042-1.275,0.063
		c-0.451,2.284-0.902,4.568-1.354,6.852c-0.242-0.068-0.484-0.135-0.727-0.203c-0.422-2.447-0.842-4.894-1.264-7.34
		c-0.438,0.046-0.875,0.093-1.313,0.14c-2.814,13.827-3.752,27.668-0.314,41.545c0.354,0.041,0.707,0.081,1.061,0.121
		C706.793,42.473,707.164,39.814,707.535,37.156z M185.561,1.822c-0.455,0.05-0.909,0.1-1.364,0.149
		c-0.564,4.655-1.357,9.294-1.634,13.966c-0.323,5.437-0.316,10.902-0.217,16.35c0.06,3.29,0.547,6.574,0.891,9.855
		c0.091,0.867,0.362,1.715,0.55,2.571c0.681-0.75,1.768-1.407,1.963-2.268c0.505-2.224,0.617-4.535,0.886-6.813
		c0.452,0.03,0.905,0.061,1.357,0.091c0.139,1.572,0.298,3.143,0.411,4.715c0.105,1.455,0.16,2.913,0.237,4.369
		c0.525,0.021,1.05,0.042,1.575,0.063c0.428-3.375,0.856-6.751,1.284-10.127c0.304,0.004,0.608,0.008,0.912,0.012
		c0.484,3.486,0.969,6.973,1.453,10.46c0.456-0.082,0.911-0.165,1.366-0.248c1.72-14.195,3.567-28.392-0.1-42.504
		c-0.444-0.035-0.887-0.071-1.331-0.106c-0.46,2.606-0.92,5.212-1.38,7.819c-0.289,0.016-0.577,0.031-0.865,0.047
		c-0.406-2.605-0.813-5.211-1.219-7.816c-0.562,0.063-1.124,0.125-1.687,0.188c0,1.546,0.072,3.098-0.021,4.639
		c-0.088,1.449-0.35,2.887-0.536,4.331c-0.307-0.041-0.614-0.08-0.921-0.119C186.634,8.237,186.097,5.029,185.561,1.822z
		 M419.633,46.365c0.535,0.071,1.07,0.143,1.605,0.213c0.514-3.608,1.025-7.217,1.537-10.826c0.357,0.029,0.717,0.06,1.074,0.09
		c0.463,3.076,0.926,6.154,1.387,9.229c0.385-0.005,0.768-0.011,1.152-0.017c0.674-3.098,1.346-6.197,2.02-9.295
		c0.27,0.079,0.539,0.157,0.811,0.235c0.467,3.056,0.934,6.114,1.398,9.17c0.529-0.056,1.059-0.111,1.59-0.168
		c1.561-13.651,3.826-27.296-0.955-41.221c-0.619,3.086-1.24,6.174-1.861,9.26c-0.357-0.062-0.715-0.123-1.072-0.186
		c-0.357-2.995-0.713-5.99-1.07-8.986c-0.402,0.022-0.805,0.045-1.207,0.067c-0.578,2.654-1.156,5.307-1.732,7.961
		c-0.445-0.081-0.891-0.161-1.336-0.242c0-1.63,0.197-3.293-0.068-4.88c-0.182-1.091-1.004-2.075-1.541-3.107
		c-0.352,0.963-0.838,1.902-1.025,2.897c-0.271,1.451-0.393,2.939-0.465,4.418c-0.395,7.934-0.902,15.867-1.059,23.807
		C418.738,38.639,419.34,42.504,419.633,46.365z M166.763,45.64c4.282-8.031,4.356-38.306,0.215-44.737
		c-0.356,3.407-0.644,6.162-0.933,8.916c-0.281,0.007-0.562,0.013-0.843,0.02c-0.515-2.572-1.029-5.145-1.544-7.718
		c-0.386-0.004-0.771-0.009-1.157-0.014c-0.53,2.838-1.06,5.677-1.59,8.516c-1.793-7.527-1.793-7.527-3.486-8.7
		c-1.879,14.38-3.609,28.651-0.117,42.911c0.407,0.065,0.814,0.13,1.221,0.195c0.617-3.448,1.232-6.896,1.849-10.346
		c0.293,0.031,0.586,0.063,0.88,0.094c0.264,3.17,0.527,6.339,0.791,9.508c0.433-0.002,0.867-0.004,1.3-0.006
		c0.477-2.735,0.954-5.472,1.43-8.208c0.223,0.046,0.446,0.091,0.67,0.137C165.841,39.025,166.234,41.844,166.763,45.64z
		 M290.517,2.414c-0.355,0.015-0.709,0.029-1.064,0.044c-4.042,14.41-3.189,28.839-0.655,43.278c0.41,0.038,0.819,0.076,1.229,0.114
		c0.361-3.316,0.722-6.631,1.083-9.947c0.367,0.023,0.734,0.047,1.101,0.07c0.369,3.213,0.737,6.426,1.106,9.639
		c0.407-0.011,0.814-0.022,1.222-0.033c0.539-3.301,1.077-6.602,1.616-9.902c0.371,0.035,0.742,0.069,1.113,0.104
		c0.326,3.141,0.652,6.283,0.978,9.424c0.493-0.047,0.985-0.095,1.478-0.142c1.96-13.86,4.375-27.718-0.642-41.708
		c-0.566,2.205-1.133,4.411-1.699,6.616c-0.289-0.028-0.577-0.057-0.866-0.085c-0.359-2.525-0.718-5.05-1.077-7.574
		c-0.444,0.018-0.887,0.036-1.331,0.054c-0.482,2.98-0.966,5.959-1.449,8.939c-0.41-0.021-0.82-0.043-1.229-0.064
		C291.125,8.296,290.821,5.354,290.517,2.414z M133.64,0.858c-4.869,6.779-4.96,38.091-0.259,43.503
		c0.48-2.332,0.909-4.416,1.556-7.557c0.75,3.414,1.244,5.666,1.739,7.918c0.425-0.076,0.851-0.151,1.276-0.227
		c0.386-3.188,0.771-6.376,1.156-9.563c0.38,0.038,0.759,0.076,1.139,0.114c0.15,1.433,0.221,2.879,0.472,4.293
		c0.245,1.383,0.674,2.73,1.021,4.094c3.443-14.131,4.243-27.967,1.129-41.792c-0.388-0.06-0.777-0.118-1.165-0.178
		c-0.495,2.754-0.99,5.51-1.485,8.265c-0.277-0.037-0.554-0.074-0.832-0.11c-0.368-2.764-0.736-5.529-1.104-8.293
		c-0.455,0.052-0.909,0.104-1.364,0.155c-0.303,3.213-0.607,6.427-0.91,9.641c-0.355-0.027-0.71-0.053-1.066-0.078
		C134.548,7.95,134.152,4.856,133.64,0.858z M116.283,1.35c-0.634,2.934-1.269,5.869-1.903,8.803
		c-0.325-0.053-0.65-0.105-0.975-0.158c-0.295-2.87-0.59-5.74-0.884-8.609c-0.5,0.008-0.999,0.015-1.498,0.021
		c-0.355,3.072-0.711,6.144-1.066,9.215c-0.349-0.016-0.697-0.032-1.046-0.048c-0.516-3.272-1.032-6.543-1.548-9.814
		c-3.991,14.652-3.996,29.106-0.265,43.751c0.547-2.606,1.094-5.216,1.641-7.822c0.354,0.057,0.709,0.113,1.064,0.17
		c0,1.639-0.148,3.298,0.062,4.909c0.106,0.821,0.854,1.561,1.313,2.338c0.554-0.712,1.449-1.36,1.596-2.148
		c0.428-2.299,0.558-4.653,0.805-6.986c0.374,0.025,0.747,0.05,1.12,0.074c0.363,2.938,0.726,5.877,1.203,9.744
		C119.578,38.623,120.03,10.663,116.283,1.35z M502.045,4.321c-0.414-0.044-0.83-0.088-1.246-0.132
		c-0.523,2.527-1.047,5.054-1.568,7.582c-0.35-0.064-0.699-0.128-1.049-0.191c0.127-1.577,0.443-3.168,0.316-4.723
		c-0.092-1.104-0.781-2.159-1.205-3.236c-0.494,0.898-1.246,1.743-1.441,2.702c-2.658,13.029-1.262,26.091-0.164,39.145
		c0.027,0.306,0.668,0.559,1.656,1.335c0.434-2.998,0.795-5.504,1.156-8.011c0.314,0.044,0.629,0.089,0.945,0.134
		c0.209,2.404,0.416,4.81,0.627,7.214c0.508,0.013,1.016,0.025,1.523,0.038c0.58-2.807,1.162-5.611,1.742-8.418
		c0.225,0.031,0.449,0.063,0.674,0.095c0.41,3.095,0.822,6.19,1.232,9.284c0.359-0.064,0.719-0.131,1.076-0.197
		c3.592-16.216,3.449-37.197-0.633-43.551c-0.502,2.851-0.928,5.27-1.355,7.688c-0.295,0.006-0.592,0.012-0.887,0.018
		C502.979,8.837,502.512,6.58,502.045,4.321z M474.506,37.921c0.275-0.059,0.549-0.116,0.822-0.174
		c0.369,2.593,0.738,5.187,1.107,7.781c0.402-0.011,0.807-0.021,1.211-0.031c0.555-2.879,1.111-5.757,1.668-8.636
		c0.264,0.032,0.525,0.063,0.789,0.095c0.318,3.042,0.639,6.085,0.957,9.128c0.408-0.049,0.818-0.098,1.227-0.146
		c2.609-13.973,3.943-27.947-0.729-42.053c-0.5,2.357-1.002,4.715-1.502,7.072c-0.207-0.051-0.414-0.102-0.621-0.154
		c-0.391-2.357-0.781-4.714-1.172-7.071c-0.398,0.039-0.797,0.077-1.195,0.116c-0.516,2.641-1.029,5.282-1.545,7.923
		c-0.434-0.052-0.869-0.103-1.303-0.154c-0.088-1.929-0.053-3.876-0.318-5.781c-0.113-0.818-0.85-1.55-1.305-2.321
		c-0.393,0.731-1.037,1.431-1.135,2.2c-0.451,3.622-1.064,7.263-1.049,10.895c0.041,9.627,0.379,19.253,0.598,28.88
		c0.652,0.052,1.305,0.104,1.957,0.155C473.482,43.069,473.994,40.494,474.506,37.921z M759.588,3.613
		c-0.504-0.005-1.008-0.01-1.512-0.015c-3.406,13.652-3.057,27.377-0.596,41.144c0.383,0.072,0.766,0.145,1.148,0.217
		c0.705-2.795,1.41-5.59,2.115-8.384c0.258,0.06,0.516,0.118,0.771,0.177c0.273,2.719,0.549,5.439,0.824,8.158
		c0.404-0.047,0.809-0.094,1.213-0.14c0-13.38,0-26.759,0-40.138c-0.264-0.041-0.525-0.082-0.787-0.123
		c-0.521,2.3-1.043,4.6-1.563,6.9c-0.332-0.07-0.664-0.141-0.994-0.211C760.002,8.669,759.795,6.141,759.588,3.613z"/>
	<path fill-rule="evenodd" clip-rule="evenodd" fill="#006837" d="M366.245,47.5c-2.304-15.281-3.514-30.541,1.508-46.434
		c0.785,1.77,1.356,3.059,2.125,4.793c0.876-1.274,1.608-2.341,2.341-3.409c0.344,0.034,0.687,0.068,1.028,0.103
		c0.395,3.07,0.789,6.14,1.183,9.21c0.297-0.012,0.593-0.023,0.89-0.034c0.496-3.108,0.993-6.216,1.489-9.324
		c0.391,0.077,0.782,0.154,1.174,0.232c3.329,14.584,3.702,29.147-1.451,43.885c-0.494-3.57-0.988-7.141-1.481-10.71
		c-0.393-0.003-0.784-0.007-1.176-0.01c-0.288,1.861-0.637,3.714-0.846,5.585c-0.188,1.684-0.225,3.386-0.327,5.079
		c-0.5,0.032-1.001,0.063-1.502,0.095c-0.219-1.788-0.439-3.577-0.657-5.365c-0.213-1.758-0.424-3.516-0.635-5.274
		c-0.387-0.013-0.773-0.024-1.16-0.037c-0.447,3.929-0.893,7.856-1.339,11.784C367.02,47.613,366.633,47.557,366.245,47.5z"/>
	<path fill-rule="evenodd" clip-rule="evenodd" fill="#006837" d="M316.854,2.147c0.552,3.362,1.104,6.725,1.655,10.086
		c0.354,0.015,0.709,0.028,1.064,0.043c0.55-3.33,1.099-6.659,1.649-9.988c0.503,0.042,1.007,0.084,1.51,0.127
		c0.079,1.659,0.187,3.317,0.228,4.977c0.039,1.587,0.008,3.177,0.008,4.767c0.488,0.078,0.975,0.156,1.463,0.235
		c0.637-3.267,1.274-6.533,1.974-10.118c3.936,6.016,3.992,31.719,0.289,43.805c-3.437-2.46-0.98-6.27-3.194-9.149
		c-0.388,3.101-0.776,6.203-1.165,9.305c-0.487,0.018-0.974,0.035-1.46,0.053c-0.538-3.204-1.077-6.407-1.615-9.611
		c-0.348-0.067-0.695-0.134-1.043-0.201c-0.608,2.917-1.215,5.835-1.995,9.578C312.156,37.373,312.307,9.737,316.854,2.147z"/>
	<path fill-rule="evenodd" clip-rule="evenodd" fill="#006837" d="M584.893,45.896c-0.207-3.138-0.414-6.275-0.619-9.412
		c-0.441-0.032-0.881-0.065-1.322-0.099c-0.41,3.228-0.82,6.456-1.23,9.685c-0.504-0.022-1.01-0.044-1.514-0.065
		c-0.277-2.987-0.555-5.974-0.832-8.961c-0.264-0.05-0.527-0.1-0.793-0.15c-0.672,3.3-1.346,6.598-2.018,9.896
		c-0.367-0.049-0.734-0.098-1.102-0.146c-2.947-14.611-3.717-29.207,0.475-43.772c0.367-0.068,0.732-0.136,1.1-0.204
		c0.596,2.791,1.191,5.581,1.787,8.373c0.369-0.018,0.736-0.035,1.105-0.053c0.248-2.503,0.496-5.005,0.744-7.506
		c0.428-0.091,0.854-0.183,1.279-0.274c0.645,2.483,1.291,4.966,1.936,7.45c0.215-0.021,0.43-0.043,0.643-0.064
		c0.389-2.484,0.775-4.968,1.254-8.029c4.555,6.447,4.424,31.227,0.248,43.311C585.654,45.881,585.273,45.889,584.893,45.896z"/>
	<path fill-rule="evenodd" clip-rule="evenodd" fill="#006837" d="M635.186,10.032c0.51-2.279,1.018-4.559,1.525-6.838
		c0.467,0.043,0.932,0.086,1.398,0.129c2.742,14.126,2.029,28.222-0.748,42.302c-0.359,0.065-0.719,0.131-1.078,0.196
		c-0.605-2.688-1.211-5.376-1.816-8.064c-0.336,0-0.672,0.001-1.008,0.001c-0.326,2.629-0.65,5.257-0.975,7.886
		c-0.27,0.071-0.537,0.143-0.805,0.214c-0.67-1.221-1.34-2.441-2.232-4.07c-0.965,1.655-1.732,2.973-3.039,5.217
		c-3.803-15.443-1.725-29.734,0.004-44.027c0.516-0.064,1.029-0.128,1.545-0.191c0.309,1.423,0.697,2.836,0.9,4.276
		c0.201,1.437,0.215,2.901,1.154,4.51c0.234-0.911,0.441-1.829,0.707-2.731c0.553-1.875,1.135-3.742,1.705-5.611
		c0.484,1.782,0.967,3.565,1.455,5.347c0.127,0.464,0.273,0.923,0.41,1.384C634.588,9.984,634.887,10.008,635.186,10.032z"/>
	<path fill-rule="evenodd" clip-rule="evenodd" fill="#006837" d="M81.401,10.768c0.531-3.372,1.063-6.744,1.595-10.115
		c0.506,0.008,1.012,0.016,1.519,0.023c0.398,3.084,0.797,6.167,1.195,9.25c0.467,0.01,0.933,0.021,1.399,0.03
		c0.209-2.604,0.307-5.225,0.7-7.801c0.109-0.714,1.096-1.295,1.68-1.936c0.42,0.636,1.168,1.25,1.213,1.913
		c0.917,13.437,0.982,26.863-0.912,40.237c-0.072,0.508-0.653,0.945-1.503,2.109c-0.77-4.072-1.39-7.352-2.009-10.631
		c-0.308-0.057-0.614-0.113-0.922-0.17c-0.548,3.498-1.095,6.996-1.643,10.495c-0.472,0.024-0.943,0.049-1.415,0.073
		c-0.35-2.953-0.699-5.906-1.048-8.86c-0.319-0.034-0.639-0.068-0.958-0.103c-0.52,3.181-1.039,6.359-1.559,9.539
		c-0.495-0.008-0.989-0.015-1.483-0.022c-0.509-4.269-1.463-8.539-1.432-12.804c0.059-8.107,0.679-16.211,1.07-24.315
		c0.072-1.483,0.042-2.986,0.296-4.439c0.164-0.938,0.758-1.802,1.159-2.698c0.524,0.902,1.416,1.771,1.5,2.713
		c0.215,2.426,0.072,4.885,0.072,7.33C80.411,10.647,80.906,10.708,81.401,10.768z"/>
	<path fill-rule="evenodd" clip-rule="evenodd" fill="#006837" d="M63.16,9.93c0.235-3.032,0.469-6.064,0.723-9.335
		c1.52,1.441,3.667,13.127,3.467,21.886c-0.168,7.412-1.345,14.801-2.076,22.199c-0.519,0.004-1.037,0.007-1.556,0.01
		c-0.404-3.114-0.809-6.23-1.213-9.346c-0.197,0.004-0.395,0.008-0.592,0.013c-0.534,3.445-1.067,6.891-1.601,10.337
		c-0.498-0.006-0.996-0.011-1.494-0.017c-0.165-3.286-0.33-6.572-0.496-9.856c-0.287-0.025-0.574-0.051-0.861-0.075
		c-0.843,3.393-1.686,6.783-2.529,10.176c-0.433-0.099-0.865-0.198-1.298-0.297C51.48,30.51,51.659,15.407,54.462,0.052
		c4.736,1.736,0.979,6.905,3.994,10.037c0.256-3.545,0.472-6.526,0.687-9.508c0.482-0.065,0.964-0.131,1.446-0.197
		c0.549,3.194,1.099,6.389,1.648,9.583C62.545,9.955,62.853,9.942,63.16,9.93z"/>
	<path fill-rule="evenodd" clip-rule="evenodd" fill="#006837" d="M657.322,11.991c0.578-2.86,1.156-5.719,1.734-8.579
		c0.396-0.039,0.791-0.077,1.186-0.116c0.582,2.697,1.164,5.393,1.746,8.09c0.285,0.029,0.57,0.059,0.855,0.088
		c0.381-2.66,0.76-5.32,1.141-7.98c0.373,0.056,0.746,0.11,1.119,0.166c3.139,13.972,2.855,27.894-0.477,41.773
		c-0.371,0.039-0.742,0.077-1.113,0.116c-0.449-3.075-0.898-6.151-1.348-9.226c-0.293-0.009-0.584-0.018-0.873-0.026
		c-0.504,2.921-1.006,5.841-1.508,8.763c-0.447,0.023-0.893,0.047-1.338,0.07c-0.531-2.687-1.063-5.373-1.594-8.059
		c-0.287-0.021-0.574-0.043-0.861-0.063c-0.559,3.099-1.119,6.197-1.68,9.297c-0.646-0.046-1.295-0.091-1.943-0.137
		c-0.387-8.469-1.078-16.938-1.045-25.405c0.02-5.106,1.131-10.213,1.85-15.307c0.096-0.67,0.779-1.257,1.191-1.881
		c0.51,0.685,1.357,1.322,1.463,2.065c0.297,2.061,0.285,4.166,0.395,6.254C656.59,11.927,656.957,11.959,657.322,11.991z"/>
	<path fill-rule="evenodd" clip-rule="evenodd" fill="#006837" d="M686.488,35.393c-0.619,3.274-1.238,6.549-1.857,9.823
		c-0.451,0.016-0.904,0.032-1.357,0.049c-0.543-2.34-1.086-4.679-1.629-7.019c-0.193,0.021-0.389,0.043-0.584,0.064
		c-0.498,2.484-0.998,4.968-1.586,7.905c-0.947-0.751-1.592-1.015-1.607-1.312c-0.607-11.029-3.107-22.062,0.295-33.09
		c0.5-1.618-0.283-3.594-0.168-5.385c0.064-0.99,0.764-1.939,1.176-2.907c0.537,0.822,1.271,1.583,1.557,2.486
		c0.287,0.918,0.105,1.976,0.174,2.97c0.068,0.971,0.191,1.937,0.291,2.906c0.33,0.049,0.66,0.099,0.988,0.147
		c0.426-2.83,0.852-5.659,1.277-8.489c0.516-0.067,1.029-0.134,1.543-0.201c0.455,2.773,0.91,5.545,1.363,8.318
		c0.303,0.08,0.605,0.16,0.908,0.241c0.742-2.815,1.482-5.629,2.463-9.348c4.789,15.195,3.709,29.251,0.119,43.813
		c-3.896-3.111-1.168-7.458-2.25-10.82C687.23,35.495,686.859,35.443,686.488,35.393z"/>
	<path fill-rule="evenodd" clip-rule="evenodd" fill="#006837" d="M447.15,11.51c0.34-2.784,0.68-5.566,1.02-8.35
		c0.43-0.046,0.859-0.092,1.287-0.139c0.521,2.508,1.043,5.016,1.564,7.524c0.199,0.054,0.4,0.107,0.602,0.161
		c0.521-2.477,1.045-4.952,1.566-7.428c6.057,14.356,2.695,28.661,0.875,42.955c-0.438,0.072-0.875,0.144-1.313,0.215
		c-0.484-3.313-0.967-6.626-1.451-9.939c-0.299-0.05-0.6-0.101-0.898-0.15c-0.363,3.155-0.725,6.311-1.086,9.466
		c-0.592,0.005-1.182,0.011-1.771,0.016c-0.328-3.216-0.658-6.432-0.986-9.646c-0.332-0.047-0.664-0.093-0.994-0.139
		c-0.377,3.295-0.754,6.588-1.164,10.162c-0.822-0.414-1.551-0.575-1.584-0.828c-1.463-11.205-2.982-22.403-0.512-33.688
		c0.457-2.083,0.148-4.324,0.451-6.456c0.113-0.784,0.977-1.459,1.498-2.185c0.49,0.771,1.322,1.508,1.404,2.322
		c0.205,2.006,0.066,4.047,0.066,6.075C446.199,11.475,446.676,11.492,447.15,11.51z"/>
	<path fill-rule="evenodd" clip-rule="evenodd" fill="#006837" d="M550.514,3.139c0.611,2.577,1.223,5.152,1.834,7.73
		c0.258,0.043,0.516,0.088,0.773,0.131c0.271-2.665,0.541-5.33,0.813-7.995c0.455-0.039,0.91-0.079,1.367-0.118
		c0.588,3.149,1.178,6.299,1.768,9.449c0.336,0.016,0.672,0.031,1.008,0.047c0.338-3.161,0.678-6.321,1.016-9.482
		c4.924,14.794,3.314,29.359,0.629,43.906c-0.535,0.037-1.07,0.076-1.605,0.113c-0.223-3.407-0.447-6.814-0.672-10.223
		c-0.328-0.061-0.656-0.121-0.986-0.182c-0.492,3.225-0.986,6.451-1.479,9.677c-0.523-0.01-1.049-0.02-1.57-0.029
		c-0.328-3.408-0.656-6.815-0.982-10.224c-0.291-0.041-0.582-0.082-0.871-0.123c-0.555,3.709-1.109,7.417-1.664,11.125
		c-3.832-6.596-3.521-32.158-0.607-43.526C549.693,3.324,550.104,3.231,550.514,3.139z"/>
	<path fill-rule="evenodd" clip-rule="evenodd" fill="#006837" d="M36.804,44.905c-0.314-3.05-0.628-6.101-0.943-9.151
		c-0.357-0.043-0.715-0.085-1.073-0.128c-0.388,3.026-0.776,6.052-1.164,9.078c-0.447,0.036-0.894,0.073-1.34,0.11
		c-0.389-3.424-0.778-6.849-1.167-10.273c-0.352,0.002-0.705,0.002-1.057,0.004c-0.617,3.312-1.234,6.623-1.851,9.935
		c-0.461-0.075-0.923-0.151-1.384-0.227c-1.733-14.418-2.884-28.832,0.374-43.21c0.467-0.085,0.934-0.17,1.4-0.255
		c0.6,2.967,1.199,5.932,1.799,8.898c0.308,0.063,0.615,0.128,0.922,0.191c0.526-3.068,1.051-6.137,1.576-9.205
		c0.5,0.026,1,0.053,1.5,0.079c0.3,2.648,0.6,5.295,0.9,7.942c0.244,0.053,0.486,0.105,0.73,0.158c0.371-2.667,0.741-5.333,1.112-8
		c0.458,0.04,0.915,0.08,1.373,0.12c2.77,14.606,2.056,29.208-0.357,43.808C37.704,44.822,37.254,44.864,36.804,44.905z"/>
	<path fill-rule="evenodd" clip-rule="evenodd" fill="#006837" d="M737.014,12.058c0.467-3.066,0.934-6.132,1.4-9.198
		c0.521,0.012,1.043,0.022,1.564,0.034c0.338,3.27,0.674,6.54,1.01,9.81c0.32,0.053,0.639,0.105,0.957,0.158
		c0.59-3.245,1.18-6.489,1.959-10.777c3.664,6.693,3.59,36.008-0.246,43.097c-0.514-2.835-1.025-5.671-1.539-8.507
		c-0.324-0.038-0.648-0.077-0.975-0.115c-0.594,3.035-1.188,6.071-1.781,9.107c-0.424,0.026-0.846,0.053-1.27,0.078
		c-0.381-2.96-0.762-5.92-1.141-8.88c-0.344,0.011-0.688,0.021-1.031,0.032c-0.566,2.963-1.133,5.925-1.697,8.888
		c-0.48-0.003-0.959-0.006-1.439-0.01c-0.285-2.715-0.445-5.448-0.875-8.14c-1.727-10.814-0.332-21.547,0.785-32.281
		c0.078-0.742,1.037-1.392,1.586-2.083c0.391,0.777,1.057,1.534,1.119,2.337c0.158,2.086,0.053,4.192,0.053,6.29
		C735.973,11.952,736.494,12.005,737.014,12.058z"/>
	<path fill-rule="evenodd" clip-rule="evenodd" fill="#006837" d="M212.528,2.256c0.383,3.079,0.765,6.157,1.147,9.236
		c0.365,0.018,0.729,0.037,1.094,0.055c0.486-3.04,0.973-6.077,1.459-9.116c0.38-0.02,0.76-0.038,1.141-0.058
		c0.343,2.842,0.687,5.685,1.031,8.527c0.391,0.008,0.781,0.016,1.172,0.023c0.403-2.875,0.807-5.749,1.244-8.873
		c4.333,4.572,4.551,34.255-0.317,43.612c-0.389-3.244-0.778-6.487-1.167-9.731c-0.358-0.036-0.717-0.072-1.075-0.108
		c-0.17,1.651-0.324,3.304-0.516,4.952c-0.176,1.518-0.393,3.029-0.591,4.543c-0.508,0.005-1.016,0.01-1.523,0.015
		c-0.232-1.473-0.487-2.942-0.691-4.419c-0.214-1.549-0.38-3.105-1.469-4.726c-0.546,2.931-1.091,5.862-1.638,8.794
		c-0.487-0.078-0.974-0.157-1.461-0.236c-1.563-14.133-2.865-28.264,0.981-42.344C211.742,2.354,212.135,2.305,212.528,2.256z"/>
	<path fill-rule="evenodd" clip-rule="evenodd" fill="#006837" d="M350.918,45.432c-0.398-3.213-0.796-6.428-1.193-9.642
		c-0.418-0.013-0.837-0.026-1.256-0.04c-0.346,3.682-0.691,7.364-1.037,11.047c-0.48,0.01-0.961,0.021-1.441,0.031
		c-0.539-2.876-1.077-5.752-1.616-8.63c-0.175,0.006-0.35,0.012-0.525,0.018c-0.448,2.819-0.896,5.638-1.419,8.925
		c-0.93-0.722-1.545-0.957-1.583-1.264c-1.695-13.711-2.318-27.432-0.05-41.145c0.137-0.828,0.886-1.555,1.351-2.33
		c0.521,0.713,1.296,1.359,1.502,2.153c0.284,1.101,0.087,2.317,0.196,3.474c0.083,0.892,0.32,1.769,1.298,2.709
		c0.467-2.611,0.935-5.222,1.402-7.833c0.42-0.028,0.838-0.057,1.257-0.084c0.366,2.923,0.732,5.848,1.099,8.771
		c0.361,0.041,0.721,0.082,1.081,0.123c0.426-2.948,0.852-5.896,1.276-8.844c4.595,14.363,3.238,28.492,0.961,42.61
		C351.786,45.465,351.352,45.448,350.918,45.432z"/>
	<path fill-rule="evenodd" clip-rule="evenodd" fill="#006837" d="M530.506,37.854c-0.508,2.748-1.014,5.495-1.521,8.243
		c-0.484,0.011-0.967,0.021-1.451,0.032c-0.424-2.702-0.848-5.404-1.271-8.106c-0.338-0.029-0.674-0.06-1.01-0.089
		c-0.133,2.006-0.061,4.055-0.473,6.003c-0.254,1.198-1.244,2.241-1.904,3.353c-0.301-1.145-0.762-2.274-0.869-3.438
		c-0.164-1.799,0.346-3.758-0.184-5.407c-3.699-11.517,0.094-22.745,1.104-34.075c0.02-0.219,0.477-0.399,1.527-1.227
		c0.393,3.458,0.732,6.455,1.072,9.453c0.377,0.002,0.752,0.004,1.127,0.006c0.424-2.935,0.848-5.869,1.271-8.804
		c0.387-0.069,0.771-0.14,1.158-0.209c0.588,2.424,1.176,4.849,1.762,7.274c0.24-0.012,0.48-0.021,0.721-0.031
		c0.426-2.433,0.852-4.866,1.363-7.784c0.986,0.843,1.643,1.134,1.658,1.458c0.432,8.407,1.043,16.817,1.076,25.229
		c0.02,4.621-0.926,9.25-1.506,13.867c-0.105,0.849-0.551,1.655-0.84,2.48c-0.574-0.83-1.521-1.607-1.645-2.5
		c-0.258-1.848-0.078-3.758-0.078-5.641C531.23,37.911,530.867,37.882,530.506,37.854z"/>
	<path fill-rule="evenodd" clip-rule="evenodd" fill="#006837" d="M611.547,3.083c4.477,14.075,1.365,28.03-0.256,42.007
		c-0.418,0.045-0.838,0.089-1.256,0.134c-0.234-1.133-0.506-2.259-0.691-3.398c-0.207-1.279-0.336-2.57-1.211-3.97
		c-0.619,2.456-1.236,4.913-1.855,7.371c-0.414-0.024-0.828-0.049-1.242-0.072c-0.359-2.724-0.721-5.446-1.08-8.17
		c-0.32,0.017-0.643,0.033-0.963,0.05c-0.49,3.096-0.98,6.192-1.564,9.891c-3.881-6.369-3.877-36.469,0.184-44.88
		c0.846,3.795,1.461,6.559,2.076,9.324c0.25-0.012,0.502-0.023,0.752-0.035c0.404-2.833,0.809-5.665,1.213-8.498
		c0.525,0.012,1.049,0.023,1.574,0.036c0.266,2.615,0.529,5.229,0.795,7.845c0.334,0.058,0.668,0.115,1.002,0.173
		c0.436-2.618,0.871-5.235,1.307-7.852C610.736,3.054,611.141,3.069,611.547,3.083z"/>
	<path fill-rule="evenodd" clip-rule="evenodd" fill="#006837" d="M10.398,44.513c-0.312-2.558-0.624-5.116-0.936-7.673
		c-0.199-0.056-0.397-0.111-0.596-0.168c-0.441,2.576-0.883,5.152-1.325,7.728c-0.479-0.019-0.958-0.038-1.438-0.058
		c-0.316-2.889-0.633-5.778-0.949-8.668c-2.078,2.975-0.409,7.3-4.706,9.405c0-15.283,0-30.09,0-44.896
		C0.979,0.122,1.511,0.061,2.042,0C5.411,2.194,2.579,6.469,5.24,10.164C5.536,7.885,5.719,6.452,5.909,5.02
		c0.182-1.378,0.37-2.756,0.555-4.135c0.489-0.02,0.978-0.04,1.466-0.06c0.407,2.577,0.813,5.154,1.221,7.731
		c0.163,0.024,0.325,0.049,0.487,0.073c0.493-2.479,0.986-4.958,1.479-7.438c0.413,0.029,0.826,0.058,1.239,0.087
		c2.983,14.43,1.917,28.853-0.335,43.275C11.48,44.54,10.939,44.526,10.398,44.513z"/>
	<path fill-rule="evenodd" clip-rule="evenodd" fill="#006837" d="M240.009,45.876c-0.212-3.44-0.424-6.862-0.635-10.282
		c-0.314-0.048-0.629-0.096-0.943-0.144c-0.596,3.268-1.193,6.536-1.789,9.803c-0.42-0.055-0.84-0.109-1.26-0.164
		c-2.238-14.247-2.491-28.472,1.929-42.831c0.384,2.941,0.769,5.882,1.153,8.824c0.348,0.021,0.696,0.045,1.043,0.066
		c0.517-2.917,1.035-5.835,1.552-8.753c0.397-0.027,0.793-0.055,1.19-0.083c0.397,2.508,0.795,5.017,1.192,7.525
		c0.229,0.027,0.459,0.055,0.689,0.083c0.305-2.512,0.61-5.025,1.011-8.323c1.086,1.145,1.629,1.443,1.665,1.793
		c1.248,12.391,2.878,24.769,0.062,37.192C246.016,44.342,244.437,46.59,240.009,45.876z"/>
	<path fill-rule="evenodd" clip-rule="evenodd" fill="#006837" d="M401.793,46.108c-0.186-3.192-0.371-6.386-0.555-9.577
		c-0.502-0.04-1.002-0.08-1.502-0.119c-0.381,3.156-0.762,6.312-1.143,9.468c-0.387,0.049-0.771,0.097-1.158,0.146
		c-0.467-3.056-0.932-6.111-1.396-9.168c-0.242,0.022-0.484,0.045-0.729,0.066c-0.467,3.355-0.936,6.71-1.402,10.064
		c-0.477-0.031-0.955-0.064-1.432-0.096c-0.152-2.819,0.094-5.73-0.531-8.44c-2.016-8.763-1.723-17.485-0.385-26.275
		c0.346-2.269,0.133-4.619,0.4-6.906c0.119-1.002,0.805-1.937,1.232-2.902c0.563,0.855,1.455,1.654,1.615,2.58
		c0.322,1.861,0.246,3.791,0.334,5.693c0.338,0.037,0.676,0.074,1.016,0.111c0.545-2.573,1.092-5.145,1.637-7.718
		c0.432-0.025,0.863-0.051,1.293-0.076c0.426,2.948,0.852,5.895,1.277,8.842c0.25,0.024,0.498,0.048,0.748,0.071
		c0.537-3.143,1.074-6.286,1.611-9.43c0.445,0.056,0.889,0.111,1.334,0.167c2.08,14.526,2.848,29.032-0.92,43.475
		C402.689,46.092,402.24,46.101,401.793,46.108z"/>
	<path fill-rule="evenodd" clip-rule="evenodd" fill="#006837" d="M272.422,45.554c-0.273-3.392-0.547-6.784-0.821-10.177
		c-0.43-0.029-0.859-0.059-1.29-0.089c-0.401,3.383-0.803,6.765-1.205,10.146c-0.47,0.044-0.94,0.087-1.41,0.131
		c-0.221-1.522-0.473-3.041-0.655-4.568c-0.194-1.625-0.323-3.257-0.48-4.887c-0.377-0.032-0.753-0.064-1.13-0.098
		c-0.213,2.274-0.281,4.574-0.703,6.809c-0.196,1.035-1.08,1.941-1.651,2.905c-0.35-0.976-0.914-1.93-1.014-2.93
		c-0.542-5.417-1.5-10.864-1.311-16.265c0.284-8.105,1.4-16.182,2.162-24.27c0.508-0.025,1.016-0.051,1.524-0.077
		c0.485,3.224,0.969,6.447,1.454,9.671c0.374,0.024,0.749,0.049,1.122,0.074c0.351-3.14,0.702-6.279,1.053-9.419
		c0.498-0.008,0.996-0.017,1.494-0.024c0.388,3.036,0.776,6.071,1.165,9.108c0.376,0,0.753,0,1.13,0
		c0.399-2.841,0.798-5.683,1.23-8.757c3.953,4.617,4.109,30.906,0.491,42.578C273.192,45.46,272.808,45.507,272.422,45.554z"/>
	<path fill-rule="evenodd" clip-rule="evenodd" fill="#006837" d="M707.535,37.156c-0.371,2.658-0.742,5.316-1.113,7.975
		c-0.354-0.04-0.707-0.08-1.061-0.121c-3.438-13.877-2.5-27.719,0.314-41.545c0.438-0.047,0.875-0.094,1.313-0.14
		c0.422,2.446,0.842,4.893,1.264,7.34c0.242,0.067,0.484,0.135,0.727,0.203c0.451-2.284,0.902-4.567,1.354-6.852
		c0.424-0.021,0.85-0.042,1.275-0.063c0.521,2.354,1.043,4.707,1.566,7.06c0.178,0.031,0.355,0.061,0.535,0.092
		c0.568-2.566,1.137-5.131,1.705-7.696c4.164,9.5,3.951,35.575-0.357,43.403c-0.4-3.37-0.803-6.74-1.203-10.111
		c-0.352-0.01-0.701-0.02-1.051-0.029c-0.531,3.164-1.063,6.329-1.594,9.494c-0.49-0.001-0.979-0.003-1.469-0.004
		c-0.146-1.469-0.268-2.94-0.447-4.404c-0.195-1.605-0.443-3.202-0.67-4.804C708.26,37.021,707.898,37.088,707.535,37.156z"/>
	<path fill-rule="evenodd" clip-rule="evenodd" fill="#006837" d="M185.561,1.822c0.537,3.208,1.074,6.415,1.611,9.624
		c0.307,0.039,0.614,0.078,0.921,0.119c0.186-1.444,0.448-2.882,0.536-4.331c0.093-1.541,0.021-3.093,0.021-4.639
		c0.563-0.063,1.125-0.125,1.687-0.188c0.406,2.605,0.813,5.211,1.219,7.816c0.289-0.016,0.577-0.031,0.865-0.047
		c0.46-2.607,0.92-5.213,1.38-7.819c0.443,0.035,0.887,0.071,1.331,0.106c3.667,14.113,1.819,28.309,0.1,42.504
		c-0.455,0.083-0.911,0.166-1.366,0.248c-0.484-3.487-0.969-6.974-1.453-10.46c-0.304-0.004-0.608-0.008-0.912-0.012
		c-0.428,3.376-0.856,6.752-1.284,10.127c-0.524-0.021-1.05-0.041-1.575-0.063c-0.077-1.456-0.132-2.914-0.237-4.369
		c-0.113-1.572-0.272-3.143-0.411-4.715c-0.453-0.03-0.905-0.061-1.357-0.091c-0.269,2.277-0.381,4.589-0.886,6.813
		c-0.195,0.86-1.282,1.518-1.963,2.268c-0.188-0.856-0.459-1.704-0.55-2.571c-0.344-3.281-0.831-6.565-0.891-9.855
		c-0.099-5.447-0.105-10.913,0.217-16.35c0.277-4.672,1.07-9.312,1.634-13.966C184.651,1.921,185.106,1.872,185.561,1.822z"/>
	<path fill-rule="evenodd" clip-rule="evenodd" fill="#006837" d="M419.633,46.365c-0.293-3.861-0.895-7.727-0.818-11.58
		c0.156-7.939,0.664-15.873,1.059-23.807c0.072-1.479,0.193-2.967,0.465-4.418c0.188-0.995,0.674-1.934,1.025-2.897
		c0.537,1.032,1.359,2.016,1.541,3.107c0.266,1.586,0.068,3.25,0.068,4.88c0.445,0.081,0.891,0.161,1.336,0.242
		c0.576-2.654,1.154-5.307,1.732-7.961c0.402-0.022,0.805-0.045,1.207-0.067c0.357,2.996,0.713,5.992,1.07,8.986
		c0.357,0.063,0.715,0.124,1.072,0.186c0.621-3.086,1.242-6.174,1.861-9.26c4.781,13.925,2.516,27.57,0.955,41.221
		c-0.531,0.057-1.061,0.112-1.59,0.168c-0.465-3.056-0.932-6.114-1.398-9.17c-0.271-0.078-0.541-0.156-0.811-0.235
		c-0.674,3.098-1.346,6.197-2.02,9.295c-0.385,0.006-0.768,0.012-1.152,0.017c-0.461-3.075-0.924-6.153-1.387-9.229
		c-0.357-0.03-0.717-0.061-1.074-0.09c-0.512,3.609-1.023,7.218-1.537,10.826C420.703,46.508,420.168,46.437,419.633,46.365z"/>
	<path fill-rule="evenodd" clip-rule="evenodd" fill="#006837" d="M166.763,45.64c-0.529-3.796-0.922-6.614-1.314-9.433
		c-0.224-0.046-0.447-0.091-0.67-0.137c-0.477,2.736-0.954,5.473-1.43,8.208c-0.433,0.002-0.867,0.004-1.3,0.006
		c-0.264-3.169-0.527-6.338-0.791-9.508c-0.293-0.031-0.587-0.063-0.88-0.094c-0.617,3.449-1.232,6.897-1.849,10.346
		c-0.407-0.065-0.814-0.13-1.221-0.195c-3.492-14.26-1.762-28.53,0.117-42.911c1.693,1.173,1.693,1.173,3.486,8.7
		c0.53-2.838,1.06-5.677,1.59-8.516c0.385,0.005,0.771,0.01,1.157,0.014c0.515,2.573,1.029,5.146,1.544,7.718
		c0.281-0.007,0.562-0.013,0.843-0.02c0.289-2.754,0.576-5.509,0.933-8.916C171.119,7.334,171.045,37.608,166.763,45.64z"/>
	<path fill-rule="evenodd" clip-rule="evenodd" fill="#006837" d="M290.517,2.414c0.305,2.941,0.609,5.883,0.913,8.825
		c0.41,0.021,0.82,0.043,1.229,0.064c0.483-2.98,0.967-5.959,1.449-8.939c0.444-0.018,0.887-0.036,1.331-0.054
		c0.359,2.524,0.718,5.049,1.077,7.574c0.289,0.028,0.577,0.057,0.866,0.085c0.566-2.206,1.133-4.412,1.699-6.616
		c5.017,13.991,2.602,27.848,0.642,41.708c-0.493,0.047-0.985,0.095-1.478,0.142c-0.326-3.141-0.652-6.283-0.978-9.424
		c-0.371-0.034-0.742-0.068-1.113-0.104c-0.539,3.301-1.077,6.602-1.616,9.902c-0.408,0.011-0.815,0.022-1.222,0.033
		c-0.369-3.213-0.738-6.426-1.106-9.639c-0.367-0.023-0.733-0.047-1.101-0.07c-0.361,3.316-0.723,6.631-1.083,9.947
		c-0.41-0.038-0.819-0.076-1.229-0.114c-2.534-14.438-3.387-28.868,0.655-43.278C289.807,2.443,290.162,2.428,290.517,2.414z"/>
	<path fill-rule="evenodd" clip-rule="evenodd" fill="#006837" d="M133.64,0.858c0.512,3.999,0.908,7.092,1.304,10.185
		c0.355,0.025,0.711,0.051,1.066,0.078c0.303-3.214,0.607-6.428,0.91-9.641c0.455-0.052,0.909-0.104,1.364-0.155
		c0.368,2.764,0.735,5.529,1.104,8.293c0.277,0.036,0.554,0.073,0.832,0.11c0.495-2.754,0.99-5.51,1.485-8.265
		c0.388,0.06,0.777,0.118,1.165,0.178c3.114,13.826,2.314,27.662-1.129,41.792c-0.348-1.363-0.776-2.711-1.021-4.094
		c-0.251-1.414-0.322-2.86-0.472-4.293c-0.38-0.038-0.759-0.076-1.139-0.114c-0.385,3.188-0.771,6.376-1.156,9.563
		c-0.425,0.075-0.851,0.15-1.276,0.227c-0.495-2.252-0.989-4.504-1.739-7.918c-0.646,3.141-1.076,5.225-1.556,7.557
		C128.679,38.949,128.771,7.637,133.64,0.858z"/>
	<path fill-rule="evenodd" clip-rule="evenodd" fill="#006837" d="M116.283,1.35c3.748,9.313,3.295,37.273-0.381,43.439
		c-0.478-3.867-0.84-6.806-1.203-9.744c-0.373-0.024-0.746-0.049-1.12-0.074c-0.247,2.333-0.376,4.688-0.805,6.986
		c-0.147,0.788-1.042,1.437-1.596,2.148c-0.458-0.777-1.206-1.517-1.313-2.338c-0.209-1.611-0.062-3.271-0.062-4.909
		c-0.355-0.057-0.709-0.113-1.064-0.17c-0.547,2.606-1.094,5.216-1.641,7.822c-3.731-14.646-3.727-29.1,0.265-43.751
		c0.516,3.271,1.032,6.542,1.548,9.814c0.349,0.016,0.697,0.032,1.046,0.048c0.355-3.071,0.711-6.143,1.066-9.215
		c0.499-0.007,0.998-0.014,1.498-0.021c0.294,2.87,0.589,5.74,0.884,8.609c0.325,0.053,0.649,0.105,0.975,0.158
		C115.014,7.219,115.648,4.284,116.283,1.35z"/>
	<path fill-rule="evenodd" clip-rule="evenodd" fill="#006837" d="M502.045,4.321c0.467,2.259,0.934,4.516,1.4,6.774
		c0.295-0.006,0.592-0.012,0.887-0.018c0.428-2.418,0.854-4.837,1.355-7.688c4.082,6.354,4.225,27.335,0.633,43.551
		c-0.357,0.066-0.717,0.133-1.076,0.197c-0.41-3.094-0.822-6.189-1.232-9.284c-0.225-0.031-0.449-0.063-0.674-0.095
		c-0.58,2.807-1.162,5.611-1.742,8.418c-0.508-0.013-1.016-0.025-1.523-0.038c-0.211-2.404-0.418-4.81-0.627-7.214
		c-0.316-0.045-0.631-0.09-0.945-0.134c-0.361,2.507-0.723,5.013-1.156,8.011c-0.988-0.776-1.629-1.029-1.656-1.335
		c-1.098-13.054-2.494-26.115,0.164-39.145c0.195-0.959,0.947-1.804,1.441-2.702c0.424,1.077,1.113,2.131,1.205,3.236
		c0.127,1.554-0.189,3.146-0.316,4.723c0.35,0.063,0.699,0.127,1.049,0.191c0.521-2.528,1.045-5.055,1.568-7.582
		C501.215,4.233,501.631,4.277,502.045,4.321z"/>
	<path fill-rule="evenodd" clip-rule="evenodd" fill="#006837" d="M474.506,37.921c-0.512,2.573-1.023,5.148-1.537,7.724
		c-0.652-0.052-1.305-0.104-1.957-0.155c-0.219-9.627-0.557-19.253-0.598-28.88c-0.016-3.632,0.598-7.273,1.049-10.895
		c0.098-0.769,0.742-1.469,1.135-2.2c0.455,0.771,1.191,1.502,1.305,2.321c0.266,1.905,0.23,3.852,0.318,5.781
		c0.434,0.052,0.869,0.103,1.303,0.154c0.516-2.641,1.029-5.282,1.545-7.923c0.398-0.039,0.797-0.077,1.195-0.116
		c0.391,2.357,0.781,4.714,1.172,7.071c0.207,0.053,0.414,0.104,0.621,0.154c0.5-2.357,1.002-4.715,1.502-7.072
		c4.672,14.105,3.338,28.08,0.729,42.053c-0.408,0.049-0.818,0.098-1.227,0.146c-0.318-3.043-0.639-6.086-0.957-9.128
		c-0.264-0.031-0.525-0.063-0.789-0.095c-0.557,2.879-1.113,5.757-1.668,8.636c-0.404,0.011-0.809,0.021-1.211,0.031
		c-0.369-2.595-0.738-5.188-1.107-7.781C475.055,37.805,474.781,37.862,474.506,37.921z"/>
	<path fill-rule="evenodd" clip-rule="evenodd" fill="#006837" d="M759.588,3.613c0.207,2.528,0.414,5.057,0.621,7.586
		c0.33,0.07,0.662,0.141,0.994,0.211c0.52-2.3,1.041-4.601,1.563-6.9c0.262,0.041,0.523,0.082,0.787,0.123
		c0,13.379,0,26.758,0,40.138c-0.404,0.046-0.809,0.093-1.213,0.14c-0.275-2.719-0.551-5.439-0.824-8.158
		c-0.256-0.059-0.514-0.117-0.771-0.177c-0.705,2.794-1.41,5.589-2.115,8.384c-0.383-0.072-0.766-0.145-1.148-0.217
		c-2.461-13.767-2.811-27.492,0.596-41.144C758.58,3.603,759.084,3.608,759.588,3.613z"/>
</g>
</svg>
