<?xml version="1.0" encoding="utf-8"?>
<!-- Generator: Adobe Illustrator 16.0.3, SVG Export Plug-In . SVG Version: 6.00 Build 0)  -->
<!DOCTYPE svg PUBLIC "-//W3C//DTD SVG 1.1//EN" "http://www.w3.org/Graphics/SVG/1.1/DTD/svg11.dtd">
<svg version="1.1" id="Layer_1" xmlns="http://www.w3.org/2000/svg" xmlns:xlink="http://www.w3.org/1999/xlink" x="0px" y="0px"
	 width="760px" height="143.596px" viewBox="0 0 760 143.596" enable-background="new 0 0 760 143.596" xml:space="preserve">
<line fill-rule="evenodd" clip-rule="evenodd" fill="#006837" stroke="#000000" stroke-width="2" stroke-miterlimit="10" x1="5" y1="63" x2="759" y2="63"/>
<line fill-rule="evenodd" clip-rule="evenodd" fill="#006837" stroke="#000000" stroke-width="2" stroke-miterlimit="10" x1="5" y1="55" x2="5" y2="68"/>
<line fill-rule="evenodd" clip-rule="evenodd" fill="#006837" stroke="#000000" stroke-width="2" stroke-miterlimit="10" x1="759" y1="55" x2="759" y2="68"/>
<line fill-rule="evenodd" clip-rule="evenodd" fill="#006837" stroke="#000000" stroke-width="2" stroke-miterlimit="10" x1="105" y1="56" x2="105" y2="69"/>
<line fill-rule="evenodd" clip-rule="evenodd" fill="#006837" stroke="#000000" stroke-width="2" stroke-miterlimit="10" x1="205" y1="56" x2="205" y2="69"/>
<line fill-rule="evenodd" clip-rule="evenodd" fill="#006837" stroke="#000000" stroke-width="2" stroke-miterlimit="10" x1="305" y1="55" x2="305" y2="68"/>
<line fill-rule="evenodd" clip-rule="evenodd" fill="#006837" stroke="#000000" stroke-width="2" stroke-miterlimit="10" x1="405" y1="55" x2="405" y2="68"/>
<line fill-rule="evenodd" clip-rule="evenodd" fill="#006837" stroke="#000000" stroke-width="2" stroke-miterlimit="10" x1="505" y1="56" x2="505" y2="69"/>
<line fill-rule="evenodd" clip-rule="evenodd" fill="#006837" stroke="#000000" stroke-width="2" stroke-miterlimit="10" x1="606" y1="56" x2="606" y2="69"/>
<line fill-rule="evenodd" clip-rule="evenodd" fill="#006837" stroke="#000000" stroke-width="2" stroke-miterlimit="10" x1="705" y1="56" x2="705" y2="69"/>
<text transform="matrix(1 0 0 1 100 88)" font-family="'MyriadPro-Regular'" font-size="18">1</text>
<text transform="matrix(1 0 0 1 200 88)" font-family="'MyriadPro-Regular'" font-size="18">2</text>
<text transform="matrix(1 0 0 1 299 88)" font-family="'MyriadPro-Regular'" font-size="18">3</text>
<text transform="matrix(1 0 0 1 400 88)" font-family="'MyriadPro-Regular'" font-size="18">4</text>
<text transform="matrix(1 0 0 1 500 88)" font-family="'MyriadPro-Regular'" font-size="18">5</text>
<text transform="matrix(1 0 0 1 601 88)" font-family="'MyriadPro-Regular'" font-size="18">6</text>
<text transform="matrix(1 0 0 1 699 88)" font-family="'MyriadPro-Regular'" font-size="18">7</text>
<text transform="matrix(1 0 0 1 323 136)" font-family="'HelveticaNeueLight'" font-size="36">Seconds</text>
<text transform="matrix(1 0 0 1 0 88)" font-family="'MyriadPro-Regular'" font-size="18">0</text>
<g>
	<path fill-rule="evenodd" clip-rule="evenodd" fill="#006837" stroke="#006837" stroke-miterlimit="10" d="M5.5,0v32V0z"/>
	<path fill-rule="evenodd" clip-rule="evenodd" fill="#006837" stroke="#006837" stroke-miterlimit="10" d="M6.5,2v28V2z"/>
	<path fill-rule="evenodd" clip-rule="evenodd" fill="#006837" stroke="#006837" stroke-miterlimit="10" d="M7.5,0v32V0z"/>
	<path fill-rule="evenodd" clip-rule="evenodd" fill="#006837" stroke="#006837" stroke-miterlimit="10" d="M8.5,2v28V2z"/>
	<path fill-rule="evenodd" clip-rule="evenodd" fill="#006837" stroke="#006837" stroke-miterlimit="10" d="M9.5,0v32V0z"/>
</g>
<g>
	<path fill-rule="evenodd" clip-rule="evenodd" fill="#006837" stroke="#006837" stroke-miterlimit="10" d="M305.5,0v32V0z"/>
	<path fill-rule="evenodd" clip-rule="evenodd" fill="#006837" stroke="#006837" stroke-miterlimit="10" d="M306.5,2v28V2z"/>
	<path fill-rule="evenodd" clip-rule="evenodd" fill="#006837" stroke="#006837" stroke-miterlimit="10" d="M307.5,0v32V0z"/>
	<path fill-rule="evenodd" clip-rule="evenodd" fill="#006837" stroke="#006837" stroke-miterlimit="10" d="M308.5,2v28V2z"/>
	<path fill-rule="evenodd" clip-rule="evenodd" fill="#006837" stroke="#006837" stroke-miterlimit="10" d="M309.5,0v32V0z"/>
</g>
<g>
	<path fill-rule="evenodd" clip-rule="evenodd" fill="#006837" stroke="#006837" stroke-miterlimit="10" d="M604.5,0v32V0z"/>
	<path fill-rule="evenodd" clip-rule="evenodd" fill="#006837" stroke="#006837" stroke-miterlimit="10" d="M605.5,2v28V2z"/>
	<path fill-rule="evenodd" clip-rule="evenodd" fill="#006837" stroke="#006837" stroke-miterlimit="10" d="M606.5,0v32V0z"/>
	<path fill-rule="evenodd" clip-rule="evenodd" fill="#006837" stroke="#006837" stroke-miterlimit="10" d="M607.5,2v28V2z"/>
	<path fill-rule="evenodd" clip-rule="evenodd" fill="#006837" stroke="#006837" stroke-miterlimit="10" d="M608.5,0v32V0z"/>
</g>
</svg>
