<?xml version="1.0" encoding="utf-8"?>
<!-- Generator: Adobe Illustrator 16.0.3, SVG Export Plug-In . SVG Version: 6.00 Build 0)  -->
<!DOCTYPE svg PUBLIC "-//W3C//DTD SVG 1.1//EN" "http://www.w3.org/Graphics/SVG/1.1/DTD/svg11.dtd">
<svg version="1.1" id="Layer_1" xmlns="http://www.w3.org/2000/svg" xmlns:xlink="http://www.w3.org/1999/xlink" x="0px" y="0px"
	 width="763.24px" height="144.188px" viewBox="0 0 763.24 144.188" enable-background="new 0 0 763.24 144.188"
	 xml:space="preserve">
<line fill-rule="evenodd" clip-rule="evenodd" fill="#006837" stroke="#000000" stroke-width="2" stroke-miterlimit="10" x1="5" y1="73.593" x2="759" y2="73.593"/>
<line fill-rule="evenodd" clip-rule="evenodd" fill="#006837" stroke="#000000" stroke-width="2" stroke-miterlimit="10" x1="5" y1="65.593" x2="5" y2="78.593"/>
<line fill-rule="evenodd" clip-rule="evenodd" fill="#006837" stroke="#000000" stroke-width="2" stroke-miterlimit="10" x1="759" y1="65.593" x2="759" y2="78.593"/>
<line fill-rule="evenodd" clip-rule="evenodd" fill="#006837" stroke="#000000" stroke-width="2" stroke-miterlimit="10" x1="105" y1="66.593" x2="105" y2="79.593"/>
<line fill-rule="evenodd" clip-rule="evenodd" fill="#006837" stroke="#000000" stroke-width="2" stroke-miterlimit="10" x1="205" y1="66.593" x2="205" y2="79.593"/>
<line fill-rule="evenodd" clip-rule="evenodd" fill="#006837" stroke="#000000" stroke-width="2" stroke-miterlimit="10" x1="305" y1="65.593" x2="305" y2="78.593"/>
<line fill-rule="evenodd" clip-rule="evenodd" fill="#006837" stroke="#000000" stroke-width="2" stroke-miterlimit="10" x1="405" y1="65.593" x2="405" y2="78.593"/>
<line fill-rule="evenodd" clip-rule="evenodd" fill="#006837" stroke="#000000" stroke-width="2" stroke-miterlimit="10" x1="505" y1="66.593" x2="505" y2="79.593"/>
<line fill-rule="evenodd" clip-rule="evenodd" fill="#006837" stroke="#000000" stroke-width="2" stroke-miterlimit="10" x1="606" y1="66.593" x2="606" y2="79.593"/>
<line fill-rule="evenodd" clip-rule="evenodd" fill="#006837" stroke="#000000" stroke-width="2" stroke-miterlimit="10" x1="705" y1="66.593" x2="705" y2="79.593"/>
<text transform="matrix(1 0 0 1 100 98.5928)" font-family="'MyriadPro-Regular'" font-size="18">1</text>
<text transform="matrix(1 0 0 1 200 98.5928)" font-family="'MyriadPro-Regular'" font-size="18">2</text>
<text transform="matrix(1 0 0 1 299 98.5928)" font-family="'MyriadPro-Regular'" font-size="18">3</text>
<text transform="matrix(1 0 0 1 400 98.5928)" font-family="'MyriadPro-Regular'" font-size="18">4</text>
<text transform="matrix(1 0 0 1 500 98.5928)" font-family="'MyriadPro-Regular'" font-size="18">5</text>
<text transform="matrix(1 0 0 1 601 98.5928)" font-family="'MyriadPro-Regular'" font-size="18">6</text>
<text transform="matrix(1 0 0 1 699 98.5928)" font-family="'MyriadPro-Regular'" font-size="18">7</text>
<text transform="matrix(1 0 0 1 320 136.5928)" font-family="'HelveticaNeueLight'" font-size="36">Seconds</text>
<text transform="matrix(1 0 0 1 0 98.5928)" font-family="'MyriadPro-Regular'" font-size="18">0</text>
<g>
	<path fill-rule="evenodd" clip-rule="evenodd" fill="#006837" d="M603.031,15.715c-0.363-0.057-0.725-0.112-1.088-0.169
		c-1.311-4.848-0.184-10.177-2.053-14.915c-0.479,0.026-0.959,0.052-1.438,0.077c-0.367,4.996-0.732,9.992-1.1,14.987
		c-0.348-0.019-0.695-0.038-1.043-0.057c-1.453-4.802,0.209-10.182-1.529-14.93c-0.51,0.036-1.02,0.071-1.531,0.107
		c-0.43,4.965-0.859,9.931-1.289,14.896c-2.367-5.01-1.146-10.357-3.104-15.075c-0.469,0.024-0.936,0.048-1.404,0.072
		c-0.365,4.995-0.732,9.989-1.098,14.985c-2.777-4.807-0.5-10.299-2.752-14.951c-0.451,0.025-0.9,0.05-1.352,0.075
		c-0.43,4.964-0.859,9.929-1.289,14.893c-2.365-5.011-1.154-10.356-3.102-15.075c-0.471,0.03-0.938,0.061-1.408,0.09
		c-0.365,4.989-0.73,9.979-1.096,14.969c-2.777-4.807-0.502-10.299-2.754-14.95c-0.451,0.023-0.9,0.047-1.352,0.07
		c-0.43,4.965-0.857,9.931-1.287,14.896c-2.363-5.012-1.158-10.355-3.1-15.074c-0.469,0.03-0.939,0.061-1.41,0.091
		c-0.365,4.988-0.73,9.978-1.096,14.967c-2.775-4.808-0.502-10.298-2.756-14.947c-0.449,0.023-0.9,0.047-1.352,0.071
		c-0.428,4.964-0.855,9.928-1.283,14.893c-2.363-5.014-1.166-10.355-3.098-15.075c-0.473,0.03-0.945,0.062-1.416,0.093
		c-0.365,4.987-0.729,9.977-1.094,14.965c-2.773-4.807-0.504-10.297-3.445-14.905c-0.865,2.457-1.109,4.875-1.305,7.297
		c-0.189,2.376-0.332,4.758-0.494,7.137c-0.391-0.035-0.779-0.07-1.17-0.106c-1.148-4.578,0.814-9.662-1.641-14.859
		c-3.66,7.326-3.561,38.5,0.357,43.413c0.389-5.819,0.727-10.876,1.064-15.931c2.65,5.297,0.621,11.152,2.354,16.39
		c0.596-0.014,1.189-0.028,1.783-0.042c0.412-5.423,0.824-10.846,1.236-16.27c0.402,0.018,0.807,0.035,1.211,0.052
		c0.418,5.177,0.834,10.354,1.252,15.53c0.584-0.02,1.168-0.039,1.75-0.059c0.4-5.271,0.801-10.545,1.203-15.816
		c0.492-0.004,0.986-0.008,1.479-0.01c0.264,5.543,0.525,11.087,0.787,16.631c0.656,0.021,1.311,0.044,1.965,0.066
		c0.479-5.473,0.957-10.945,1.438-16.419c0.379,0.023,0.758,0.047,1.137,0.07c0.391,5.149,0.783,10.297,1.174,15.445
		c0.461,0.02,0.92,0.038,1.381,0.058c2.279-4.957-0.146-10.848,2.031-15.824c0.355-0.012,0.715-0.023,1.072-0.035
		c0.277,5.559,0.555,11.116,0.83,16.674c0.652,0.021,1.305,0.043,1.957,0.064c0.459-5.468,0.92-10.936,1.379-16.404
		c0.393,0.027,0.787,0.055,1.18,0.082c0.391,5.135,0.781,10.271,1.174,15.406c0.566,0.023,1.133,0.047,1.701,0.07
		c0.459-5.291,0.92-10.582,1.379-15.873c0.457,0.008,0.914,0.016,1.371,0.023c0.297,5.553,0.596,11.105,0.895,16.658
		c0.652,0.014,1.305,0.027,1.957,0.04c0.441-5.452,0.879-10.905,1.32-16.359c0.402,0.031,0.805,0.063,1.207,0.094
		c0.393,5.124,0.783,10.247,1.176,15.37c0.574,0.012,1.148,0.022,1.723,0.033c0.451-5.279,0.902-10.561,1.352-15.84
		c0.449,0.012,0.898,0.023,1.348,0.035c0.32,5.539,0.641,11.077,0.961,16.615c0.645,0.006,1.289,0.012,1.936,0.018
		c0.426-5.426,0.854-10.852,1.279-16.277c0.41,0.033,0.818,0.067,1.229,0.101c0.396,5.11,0.795,10.22,1.191,15.329
		c0.572,0.007,1.143,0.014,1.715,0.02c0.439-5.273,0.881-10.547,1.322-15.82c0.471,0.016,0.943,0.031,1.414,0.047
		c0.289,5.525,0.578,11.05,0.867,16.573c0.66,0.006,1.318,0.012,1.977,0.017c0.432-5.41,0.861-10.822,1.293-16.232
		c0.408,0.041,0.814,0.082,1.221,0.123c0.4,5.1,0.801,10.199,1.199,15.298c0.602-0.007,1.203-0.014,1.805-0.021
		c0.188-2.654,0.357-5.308,0.568-7.959c0.207-2.613,0.455-5.222,0.686-7.832c0.377,0.027,0.752,0.053,1.129,0.08
		c1.598,5.318-0.271,11.182,1.301,16.505c0.598-0.005,1.197-0.01,1.797-0.016c0.432-5.426,0.861-10.853,1.293-16.278
		c0.393,0.007,0.787,0.013,1.182,0.02c0.428,5.186,0.854,10.372,1.281,15.558c0.572-0.016,1.145-0.031,1.717-0.047
		c0.418-5.267,0.834-10.534,1.25-15.8c0.387,0.031,0.775,0.063,1.164,0.096c1.771,5.273-0.561,11.19,1.527,16.414
		c0.539,0,1.078,0,1.619,0c0.414-5.424,0.828-10.848,1.242-16.271c0.387,0.012,0.773,0.022,1.16,0.034
		c0.248,2.585,0.531,5.167,0.734,7.756c0.203,2.579,0.326,5.163,0.486,7.745c0.602-0.002,1.205-0.005,1.809-0.007
		c0.422-5.252,0.842-10.505,1.264-15.757c0.404,0.037,0.809,0.074,1.213,0.111c1.543,5.291-0.381,11.127,1.295,16.396
		c0.602-0.021,1.201-0.041,1.801-0.062c0.412-5.417,0.826-10.835,1.238-16.251c0.402,0.019,0.805,0.037,1.207,0.056
		c0.422,5.183,0.842,10.365,1.262,15.548c0.584-0.028,1.168-0.056,1.754-0.084c0.396-5.271,0.793-10.541,1.189-15.813
		c0.492-0.002,0.984-0.004,1.479-0.006c0.264,5.549,0.529,11.099,0.795,16.647c0.654,0.021,1.311,0.041,1.967,0.062
		c0.473-5.469,0.945-10.938,1.416-16.406c0.385,0.024,0.768,0.048,1.15,0.071c0.395,5.149,0.787,10.297,1.248,16.336
		c3.162-3.052,1.977-6.001,2.301-8.571c0.34-2.691,0.443-5.413,0.65-8.121c0.484,0.002,0.967,0.004,1.451,0.008
		c0.283,5.551,0.568,11.104,0.854,16.655c0.652,0.016,1.305,0.032,1.957,0.048c0.451-5.459,0.902-10.918,1.354-16.379
		c0.396,0.027,0.795,0.055,1.191,0.082c0.391,5.137,0.781,10.274,1.174,15.411c0.594,0.006,1.188,0.013,1.781,0.019
		c0.207-2.596,0.412-5.189,0.617-7.784c0.213-2.681,0.428-5.362,0.641-8.044c0.467,0.006,0.934,0.014,1.4,0.02
		c0.309,5.551,0.613,11.101,0.922,16.65c0.648,0.011,1.299,0.021,1.947,0.031c0.438-5.445,0.873-10.891,1.309-16.336
		c0.404,0.032,0.809,0.064,1.215,0.096c0.393,5.119,0.785,10.238,1.18,15.357c0.572,0.008,1.146,0.016,1.721,0.023
		c0.447-5.276,0.895-10.553,1.342-15.828c0.453,0.012,0.906,0.025,1.359,0.037c0.316,5.533,0.631,11.065,0.945,16.598
		c0.652,0.003,1.303,0.007,1.955,0.01c0.418-5.415,0.834-10.83,1.252-16.245c0.416,0.034,0.83,0.068,1.246,0.103
		c0.396,5.105,0.791,10.213,1.188,15.319c0.574,0.007,1.148,0.014,1.725,0.021c0.436-5.275,0.873-10.551,1.309-15.824
		c0.385,0.021,0.77,0.045,1.154,0.066c1.639,5.324-0.303,11.211,1.355,16.533c0.58-0.007,1.16-0.015,1.74-0.021
		c0.441-5.414,0.883-10.828,1.324-16.242c0.395,0,0.789,0.001,1.184,0.001c0.406,5.169,0.813,10.338,1.219,15.507
		c0.582-0.005,1.164-0.009,1.746-0.014c0.422-5.271,0.844-10.541,1.266-15.813c0.393,0.027,0.787,0.053,1.182,0.08
		c1.586,5.314-0.283,11.173,1.299,16.488c0.604-0.015,1.205-0.028,1.809-0.042c0.422-5.415,0.846-10.831,1.268-16.246
		c0.396,0.004,0.793,0.008,1.189,0.012c0.432,5.19,0.859,10.38,1.291,15.57c0.57-0.016,1.141-0.031,1.711-0.046
		c0.416-5.271,0.832-10.541,1.248-15.811c0.4,0.037,0.799,0.072,1.197,0.107c1.639,5.287-0.457,11.163,1.4,16.417
		c0.574-0.012,1.146-0.023,1.719-0.035c0.412-5.418,0.824-10.837,1.236-16.254c0.402,0.014,0.805,0.027,1.209,0.042
		c0.418,5.18,0.836,10.361,1.256,15.542c0.57-0.01,1.143-0.02,1.715-0.029c0.428-5.266,0.857-10.532,1.285-15.796
		c0.482,0.045,0.961,0.09,1.441,0.137c0.268,5.465,0.533,10.931,0.801,16.396c0.645,0.03,1.287,0.061,1.932,0.09
		c0.486-5.474,0.971-10.948,1.457-16.423c0.375,0.021,0.75,0.043,1.125,0.063c0.391,5.153,0.781,10.307,1.236,16.338
		c3.18-2.993,1.992-5.942,2.311-8.501c0.338-2.709,0.438-5.449,0.641-8.176c0.492-0.006,0.984-0.012,1.479-0.018
		c0.27,5.559,0.539,11.116,0.811,16.675c0.652,0.022,1.307,0.046,1.961,0.068c0.467-5.471,0.934-10.942,1.398-16.413
		c0.389,0.026,0.775,0.053,1.164,0.078c0.393,5.141,0.785,10.279,1.178,15.419c0.566,0.025,1.133,0.051,1.699,0.076
		c0.457-5.292,0.916-10.583,1.373-15.876c0.463,0.006,0.926,0.012,1.389,0.018c0.291,5.553,0.582,11.105,0.873,16.658
		c0.652,0.015,1.307,0.029,1.959,0.044c0.445-5.456,0.891-10.913,1.336-16.369c0.4,0.028,0.799,0.057,1.199,0.085
		c0.393,5.133,0.785,10.265,1.176,15.396c0.574,0.013,1.146,0.024,1.717,0.037c0.455-5.284,0.908-10.568,1.363-15.852
		c0.447,0.01,0.896,0.021,1.346,0.031c0.316,5.543,0.633,11.087,0.951,16.631c0.643,0.008,1.285,0.016,1.928,0.023
		c0.439-5.454,0.877-10.908,1.316-16.363c0.322,0.03,0.643,0.062,0.963,0.092c0.262,0.988,0.521,1.977,0.783,2.964
		c0.131-0.035,0.26-0.07,0.391-0.106c0-6.396,0-12.793,0-19.189c-0.672,0.775-0.586,1.564-0.697,2.325
		c-0.092,0.632-0.416,1.23-0.947,2.708c-1.77-5.797-0.078-11.189-1.855-15.947c-0.5,0.032-1,0.063-1.5,0.096
		c-0.436,4.974-0.871,9.947-1.307,14.921c-2.379-5.005-1.117-10.364-3.1-15.084c-0.467,0.027-0.934,0.054-1.4,0.081
		c-0.367,4.995-0.736,9.99-1.104,14.984c-0.344-0.018-0.689-0.035-1.035-0.054c-1.459-4.808,0.209-10.194-1.535-14.949
		c-0.506,0.034-1.014,0.068-1.52,0.103c-0.436,4.972-0.869,9.945-1.305,14.918c-2.377-5.006-1.121-10.363-3.098-15.084
		c-0.467,0.022-0.936,0.044-1.402,0.066c-0.369,4.999-0.736,10-1.104,14.999c-2.791-4.806-0.488-10.31-2.742-14.969
		c-0.449,0.022-0.898,0.046-1.35,0.069c-0.434,4.972-0.867,9.945-1.303,14.917c-2.375-5.007-1.127-10.362-3.096-15.083
		c-0.469,0.027-0.936,0.056-1.406,0.083c-0.367,4.994-0.734,9.987-1.102,14.981c-2.789-4.807-0.49-10.309-2.744-14.967
		c-0.449,0.023-0.898,0.046-1.35,0.069c-0.434,4.972-0.867,9.942-1.301,14.914c-2.371-5.007-1.131-10.36-3.092-15.082
		c-0.471,0.028-0.939,0.057-1.41,0.085c-0.367,4.993-0.736,9.986-1.104,14.979c-2.785-4.806-0.49-10.308-2.742-14.965
		c-0.451,0.023-0.9,0.047-1.35,0.07c-0.434,4.97-0.867,9.94-1.301,14.911c-2.367-5.008-1.139-10.359-3.088-15.082
		c-0.473,0.028-0.943,0.058-1.414,0.087c-0.369,4.992-0.734,9.985-1.104,14.978c-2.785-4.807-0.49-10.307-2.744-14.963
		c-0.449,0.023-0.9,0.047-1.35,0.07c-0.434,4.97-0.865,9.939-1.299,14.908c-2.365-5.008-1.143-10.357-3.088-15.081
		c-0.471,0.024-0.941,0.048-1.414,0.072c-0.367,4.997-0.736,9.995-1.104,14.992c-2.783-4.806-0.492-10.305-2.746-14.961
		c-0.449,0.024-0.9,0.049-1.35,0.073c-0.432,4.969-0.863,9.938-1.295,14.905c-2.367-5.011-1.146-10.359-3.09-15.082
		c-0.473,0.029-0.943,0.06-1.416,0.089c-0.367,4.991-0.734,9.982-1.104,14.975c-2.779-4.807-0.492-10.304-2.744-14.959
		c-0.451,0.025-0.9,0.05-1.352,0.074c-0.432,4.967-0.863,9.934-1.295,14.901c-2.363-5.011-1.148-10.358-3.086-15.08
		c-0.473,0.029-0.945,0.06-1.418,0.09c-0.367,4.99-0.734,9.981-1.102,14.973c-0.346-0.02-0.693-0.038-1.039-0.058
		c-1.455-4.803,0.207-10.183-1.533-14.932c-0.508,0.036-1.018,0.071-1.527,0.107c-0.432,4.966-0.861,9.932-1.291,14.898
		c-2.363-5.012-1.152-10.357-3.088-15.08c-0.473,0.024-0.945,0.05-1.42,0.074c-0.365,4.996-0.732,9.992-1.1,14.987
		c-2.777-4.806-0.498-10.301-2.748-14.953c-0.451,0.024-0.902,0.05-1.354,0.074c-0.43,4.965-0.859,9.931-1.289,14.896
		c-2.367-5.01-1.148-10.357-3.104-15.075c-0.469,0.029-0.938,0.06-1.406,0.089c-0.365,4.989-0.73,9.98-1.096,14.97
		c-2.779-4.808-0.5-10.3-2.754-14.952c-0.449,0.023-0.9,0.047-1.35,0.07c-0.43,4.966-0.859,9.932-1.289,14.898
		c-2.365-5.012-1.154-10.357-3.102-15.076c-0.469,0.024-0.939,0.049-1.408,0.074c-0.365,4.994-0.73,9.988-1.096,14.983
		c-2.777-4.806-0.502-10.298-2.756-14.949c-0.449,0.025-0.9,0.051-1.35,0.075c-0.43,4.963-0.857,9.926-1.287,14.89
		c-2.363-5.011-1.16-10.354-3.098-15.074c-0.471,0.03-0.943,0.062-1.414,0.092c-0.365,4.988-0.729,9.978-1.094,14.967
		c-2.775-4.808-0.502-10.298-2.756-14.947c-0.451,0.023-0.902,0.048-1.352,0.071c-0.428,4.964-0.855,9.928-1.283,14.893
		c-2.363-5.014-1.168-10.355-3.098-15.075c-0.473,0.03-0.945,0.062-1.416,0.093c-0.365,4.988-0.729,9.977-1.094,14.965
		c-2.773-4.807-0.504-10.297-2.758-14.945c-0.451,0.024-0.902,0.048-1.352,0.072c-0.428,4.963-0.854,9.926-1.281,14.889
		c-2.359-5.014-1.174-10.354-3.096-15.074c-0.473,0.031-0.945,0.063-1.42,0.094c-0.363,4.988-0.729,9.977-1.092,14.964
		c-0.35-0.021-0.699-0.041-1.049-0.061c-1.463-4.796,0.234-10.178-1.541-14.914c-0.516,0.039-1.031,0.078-1.547,0.117
		C603.822,5.794,603.426,10.755,603.031,15.715z M290.028,1.147c-3.541,13.989-3.014,27.882-0.856,41.776
		c0.484,0.039,0.968,0.078,1.452,0.117c0.414-5.104,0.828-10.209,1.242-15.313c0.395,0.029,0.789,0.057,1.183,0.085
		c0.27,5.458,0.539,10.917,0.808,16.376c0.658,0.018,1.316,0.035,1.975,0.054c0.444-5.455,0.888-10.911,1.332-16.366
		c0.4,0.031,0.801,0.062,1.201,0.093c0.392,5.124,0.784,10.25,1.176,15.374c0.573,0.016,1.146,0.03,1.719,0.045
		c0.453-5.282,0.906-10.564,1.358-15.848c0.449,0.012,0.897,0.021,1.346,0.033c0.319,5.541,0.638,11.083,0.957,16.624
		c0.645,0.008,1.29,0.015,1.935,0.022c0.43-5.431,0.859-10.861,1.289-16.293c0.408,0.033,0.815,0.066,1.222,0.1
		c0.396,5.113,0.793,10.225,1.19,15.337c0.572,0.006,1.144,0.011,1.715,0.017c0.442-5.272,0.885-10.545,1.328-15.818
		c0.467,0.014,0.934,0.027,1.401,0.041c0.295,5.525,0.589,11.053,0.884,16.579c0.657-0.001,1.313-0.003,1.97-0.004
		c0.43-5.402,0.86-10.804,1.29-16.207c0.408,0.038,0.816,0.076,1.224,0.113c0.398,5.101,0.796,10.201,1.194,15.302
		c0.579,0.004,1.157,0.009,1.735,0.013c0.428-5.272,0.855-10.546,1.283-15.819c0.39,0.025,0.781,0.049,1.171,0.074
		c1.605,5.32-0.275,11.187,1.308,16.51c0.597-0.004,1.194-0.009,1.79-0.013c0.433-5.427,0.865-10.853,1.297-16.279
		c0.394,0.006,0.787,0.012,1.181,0.018c0.426,5.187,0.851,10.371,1.277,15.556c0.573-0.016,1.146-0.03,1.72-0.046
		c0.417-5.267,0.834-10.534,1.251-15.802c0.405,0.029,0.81,0.059,1.215,0.088c1.529,5.311-0.344,11.158,1.289,16.454
		c0.602-0.01,1.204-0.02,1.805-0.029c0.414-5.424,0.828-10.849,1.243-16.271c0.401,0.011,0.802,0.022,1.204,0.034
		c0.422,5.186,0.845,10.371,1.267,15.557c0.573-0.021,1.146-0.042,1.72-0.063c0.422-5.252,0.842-10.505,1.264-15.757
		c0.404,0.037,0.808,0.074,1.211,0.111c1.547,5.291-0.384,11.128,1.324,16.392c0.591-0.013,1.182-0.025,1.773-0.039
		c0.412-5.423,0.825-10.845,1.238-16.269c0.402,0.02,0.805,0.04,1.208,0.061c0.42,5.174,0.841,10.349,1.261,15.523
		c0.584-0.022,1.169-0.044,1.754-0.066c0.396-5.271,0.793-10.541,1.188-15.813c0.493-0.008,0.985-0.018,1.478-0.025
		c0.266,5.559,0.532,11.117,0.799,16.675c0.654,0.024,1.31,0.049,1.965,0.073c0.471-5.474,0.942-10.947,1.413-16.42
		c0.385,0.024,0.77,0.049,1.153,0.073c0.394,5.147,0.786,10.294,1.248,16.336c3.161-3.062,1.977-6.012,2.301-8.584
		c0.34-2.688,0.445-5.407,0.653-8.112c0.481,0.002,0.962,0.006,1.444,0.008c0.287,5.553,0.573,11.105,0.861,16.657
		c0.652,0.016,1.305,0.031,1.957,0.047c0.449-5.458,0.898-10.917,1.348-16.375c0.397,0.028,0.796,0.056,1.193,0.084
		c0.392,5.136,0.783,10.271,1.175,15.405c0.571,0.016,1.143,0.03,1.714,0.046c0.456-5.288,0.912-10.575,1.368-15.864
		c0.45,0.01,0.9,0.021,1.351,0.031c0.313,5.547,0.625,11.094,0.938,16.641c0.646,0.009,1.295,0.019,1.941,0.027
		c0.434-5.439,0.867-10.879,1.303-16.318c0.404,0.032,0.811,0.064,1.215,0.097c0.395,5.118,0.791,10.235,1.186,15.353
		c0.572,0.006,1.145,0.012,1.719,0.017c0.445-5.274,0.891-10.55,1.336-15.823c0.459,0.014,0.916,0.027,1.375,0.041
		c0.307,5.531,0.613,11.061,0.92,16.59c0.65,0.001,1.303,0.001,1.953,0.001c0.43-5.409,0.859-10.817,1.287-16.228
		c0.41,0.036,0.818,0.071,1.229,0.107c0.395,5.104,0.789,10.207,1.186,15.31c0.604-0.003,1.205-0.006,1.809-0.009
		c0.189-2.645,0.365-5.29,0.574-7.934c0.207-2.623,0.451-5.242,0.678-7.863c0.377,0.025,0.754,0.049,1.129,0.072
		c1.625,5.322-0.289,11.2,1.334,16.522c0.588-0.01,1.176-0.019,1.766-0.028c0.438-5.414,0.873-10.828,1.311-16.243
		c0.395,0.002,0.787,0.004,1.182,0.006c0.414,5.173,0.83,10.348,1.246,15.521c0.578-0.007,1.158-0.014,1.736-0.021
		c0.42-5.279,0.838-10.558,1.258-15.837c0.537,0.023,1.072,0.047,1.609,0.07c0.162,5.23,0.322,10.462,0.484,15.691
		c4.762-5.057,4.766-37.507,0.445-43.222c-0.428,5.812-0.795,10.825-1.164,15.837c-0.34-0.02-0.68-0.04-1.02-0.061
		c-0.553-5.094-1.104-10.188-1.654-15.283c-0.564,0.005-1.131,0.01-1.697,0.016c-0.416,5.049-0.834,10.1-1.25,15.148
		c-0.371,0.009-0.742,0.018-1.113,0.026c-0.381-5.04-0.762-10.081-1.141-15.121c-0.578,0.006-1.156,0.011-1.734,0.017
		c-0.445,5.028-0.891,10.057-1.336,15.085c-0.355-0.018-0.713-0.035-1.07-0.053c-0.557-5.042-1.115-10.083-1.672-15.123
		c-0.561,0.007-1.121,0.015-1.682,0.022c-0.418,5.05-0.834,10.1-1.25,15.15c-0.373,0.008-0.744,0.017-1.117,0.025
		c-0.379-5.043-0.758-10.085-1.137-15.128c-0.576-0.001-1.152-0.002-1.729-0.003c-0.449,5.04-0.896,10.08-1.346,15.119
		c-0.355-0.021-0.711-0.042-1.066-0.063c-0.559-5.042-1.115-10.083-1.674-15.125c-0.559,0.003-1.119,0.005-1.68,0.008
		c-0.416,5.059-0.834,10.118-1.252,15.177c-0.373,0.006-0.746,0.012-1.119,0.018c-0.377-5.045-0.756-10.089-1.133-15.133
		c-0.576,0-1.152,0-1.727,0c-0.449,5.04-0.898,10.08-1.348,15.12c-0.355-0.021-0.711-0.042-1.066-0.063
		c-0.559-5.043-1.117-10.087-1.676-15.129c-0.56,0.01-1.119,0.02-1.679,0.029c-0.416,5.052-0.833,10.104-1.251,15.155
		c-0.374,0.01-0.748,0.019-1.122,0.028c-0.377-5.051-0.753-10.1-1.13-15.148c-0.576,0.01-1.152,0.019-1.729,0.028
		c-0.448,5.031-0.896,10.063-1.345,15.094c-0.356-0.019-0.712-0.038-1.067-0.058c-0.56-5.043-1.119-10.086-1.678-15.129
		c-0.559,0.01-1.117,0.021-1.676,0.03c-0.418,5.053-0.836,10.104-1.254,15.158c-0.375,0.007-0.75,0.015-1.125,0.021
		c-0.374-5.048-0.748-10.097-1.123-15.146c-0.576,0.003-1.152,0.005-1.729,0.007c-0.449,5.041-0.898,10.081-1.348,15.123
		c-0.355-0.021-0.711-0.043-1.066-0.064c-0.561-5.042-1.12-10.083-1.68-15.123c-0.559,0.008-1.115,0.017-1.673,0.024
		c-0.419,5.054-0.837,10.107-1.256,15.161c-0.376,0.008-0.751,0.016-1.127,0.022c-0.374-5.053-0.747-10.104-1.119-15.155
		c-0.577,0.01-1.154,0.021-1.731,0.031c-0.449,5.033-0.896,10.067-1.345,15.101c-0.356-0.021-0.712-0.041-1.067-0.062
		c-0.562-5.042-1.123-10.086-1.684-15.128c-0.557,0.01-1.113,0.021-1.669,0.03c-0.419,5.055-0.839,10.108-1.258,15.163
		c-0.376,0.007-0.752,0.013-1.128,0.02c-0.371-5.053-0.743-10.105-1.114-15.158c-0.577,0.005-1.154,0.01-1.731,0.015
		c-0.449,5.041-0.897,10.083-1.346,15.124c-0.356-0.021-0.712-0.043-1.068-0.065c-0.562-5.04-1.123-10.082-1.684-15.122
		c-0.556,0.004-1.111,0.008-1.667,0.012c-0.42,5.061-0.84,10.121-1.261,15.183c-0.376,0.006-0.753,0.012-1.13,0.019
		c-0.37-5.059-0.739-10.117-1.109-15.175c-0.579,0.014-1.156,0.028-1.734,0.042c-0.448,5.036-0.896,10.072-1.344,15.107
		c-0.357-0.021-0.714-0.043-1.07-0.064c-0.562-5.043-1.124-10.085-1.686-15.127c-0.555,0.011-1.11,0.021-1.666,0.032
		c-0.42,5.055-0.84,10.11-1.26,15.166c-0.377,0.006-0.754,0.011-1.132,0.017c-0.368-5.055-0.735-10.111-1.103-15.166
		c-0.579,0.011-1.158,0.022-1.737,0.034c-0.447,5.037-0.895,10.073-1.343,15.11c-0.357-0.022-0.715-0.044-1.072-0.066
		c-0.562-5.041-1.124-10.084-1.685-15.125c-0.556,0.014-1.112,0.027-1.667,0.041c-0.42,5.051-0.84,10.102-1.26,15.153
		c-0.377,0.008-0.756,0.015-1.134,0.022c-0.366-5.061-0.732-10.12-1.098-15.18c-0.58,0.015-1.16,0.029-1.74,0.043
		c-0.447,5.037-0.895,10.074-1.342,15.112c-0.358-0.021-0.717-0.044-1.075-0.066c-0.561-5.042-1.122-10.084-1.682-15.126
		c-0.556,0.015-1.113,0.029-1.67,0.043c-0.42,5.052-0.84,10.104-1.26,15.154c-0.378,0.006-0.757,0.013-1.136,0.019
		c-0.364-5.058-0.728-10.117-1.091-15.175c-0.606,0.013-1.212,0.025-1.818,0.038c-0.386,4.869-0.772,9.739-1.159,14.607
		c-0.395-0.009-0.789-0.018-1.184-0.027C290.923,10.616,292.725,5.525,290.028,1.147z M173.224,0.104
		c-3.385,7.985-3.381,37.34,0.026,42.875c0.61-2.451,0.806-4.952,1-7.452c0.203-2.606,0.403-5.211,0.604-7.817
		c0.403,0.035,0.806,0.067,1.208,0.101c0.271,5.458,0.542,10.916,0.812,16.373c0.656,0.019,1.312,0.037,1.968,0.056
		c0.446-5.457,0.892-10.914,1.338-16.371c0.399,0.03,0.799,0.061,1.199,0.091c0.391,5.126,0.782,10.252,1.173,15.377
		c0.573,0.021,1.145,0.04,1.717,0.06c0.455-5.287,0.91-10.574,1.365-15.861c0.45,0.01,0.9,0.021,1.35,0.031
		c0.313,5.545,0.627,11.092,0.94,16.638c0.646,0.009,1.293,0.019,1.94,0.027c0.434-5.439,0.868-10.878,1.302-16.318
		c0.405,0.032,0.811,0.063,1.216,0.095c0.395,5.117,0.789,10.232,1.183,15.349c0.596,0.019,1.193,0.038,1.79,0.057
		c0.198-2.636,0.389-5.271,0.598-7.905c0.21-2.65,0.438-5.301,0.658-7.951c0.46,0.014,0.921,0.027,1.382,0.039
		c0.31,5.531,0.62,11.063,0.93,16.594c0.656,0.001,1.311,0.002,1.967,0.003c0.414-5.412,0.828-10.825,1.242-16.237
		c0.418,0.035,0.835,0.069,1.253,0.104c0.396,5.106,0.791,10.211,1.187,15.316c0.6,0.011,1.201,0.021,1.802,0.032
		c0.192-2.652,0.371-5.308,0.581-7.959c0.208-2.629,0.448-5.253,0.675-7.879c0.404,0.018,0.808,0.037,1.212,0.055
		c1.405,5.361-0.26,11.203,1.196,16.557c0.606-0.012,1.212-0.022,1.818-0.034c0.441-5.414,0.883-10.827,1.325-16.242
		c0.395,0.001,0.789,0.001,1.183,0.002c0.406,5.169,0.813,10.338,1.219,15.506c0.582-0.004,1.163-0.008,1.745-0.013
		c0.422-5.271,0.845-10.543,1.267-15.814c0.412,0.025,0.824,0.049,1.236,0.072c1.46,5.336-0.324,11.18,1.249,16.498
		c0.6-0.014,1.2-0.026,1.8-0.04c0.424-5.415,0.848-10.829,1.272-16.244c0.396,0.003,0.792,0.007,1.188,0.011
		c0.43,5.189,0.86,10.379,1.291,15.567c0.571-0.018,1.143-0.035,1.713-0.053c0.416-5.265,0.831-10.53,1.246-15.794
		c0.407,0.029,0.814,0.059,1.221,0.09c1.531,5.307-0.367,11.153,1.294,16.44c0.6-0.011,1.199-0.021,1.799-0.031
		c0.413-5.423,0.826-10.847,1.238-16.271c0.402,0.014,0.804,0.026,1.206,0.04c0.42,5.183,0.841,10.367,1.261,15.551
		c0.606-0.025,1.212-0.051,1.817-0.075c0.174-2.693,0.323-5.387,0.531-8.076c0.199-2.582,0.458-5.158,0.691-7.738
		c0.411,0.051,0.823,0.102,1.234,0.15c1.541,5.043-0.571,10.621,1.481,16.28c4.13-6.078,4.006-38.519-0.245-43.667
		c-0.428,5.634-0.807,10.617-1.186,15.602c-0.332-0.024-0.663-0.048-0.995-0.072c-0.551-5.076-1.103-10.151-1.653-15.227
		c-0.567,0.017-1.134,0.033-1.701,0.049c-0.416,5.052-0.832,10.104-1.247,15.156c-0.382,0.005-0.764,0.011-1.146,0.016
		c-0.355-5.07-0.71-10.14-1.065-15.209c-0.586,0.02-1.172,0.038-1.757,0.057c-0.448,5.041-0.896,10.082-1.344,15.124
		c-0.361-0.023-0.722-0.046-1.083-0.068c-0.55-5.044-1.1-10.086-1.649-15.128c-0.567,0.008-1.135,0.016-1.702,0.023
		c-0.417,5.063-0.834,10.127-1.251,15.191c-0.382,0.003-0.764,0.006-1.145,0.009c-0.356-5.069-0.712-10.138-1.068-15.205
		c-0.585,0.018-1.17,0.036-1.756,0.055c-0.447,5.04-0.895,10.081-1.342,15.122c-0.362-0.022-0.723-0.045-1.084-0.068
		c-0.55-5.043-1.1-10.084-1.65-15.126c-0.567,0.017-1.134,0.033-1.702,0.05c-0.417,5.051-0.834,10.104-1.25,15.155
		c-0.382,0.005-0.763,0.011-1.145,0.017c-0.357-5.068-0.713-10.135-1.07-15.202c-0.585,0.018-1.169,0.035-1.754,0.054
		c-0.447,5.04-0.895,10.08-1.342,15.121c-0.361-0.023-0.723-0.046-1.084-0.068c-0.551-5.043-1.102-10.085-1.652-15.128
		c-0.566,0.008-1.131,0.016-1.696,0.022c-0.418,5.063-0.837,10.127-1.255,15.189c-0.381,0.003-0.761,0.005-1.142,0.007
		c-0.358-5.062-0.716-10.121-1.074-15.182c-0.583,0.009-1.167,0.019-1.751,0.027c-0.448,5.043-0.895,10.085-1.343,15.128
		c-0.361-0.021-0.723-0.043-1.084-0.064c-0.552-5.043-1.104-10.086-1.655-15.128c-0.564,0.008-1.128,0.015-1.692,0.021
		c-0.419,5.063-0.838,10.126-1.257,15.189c-0.38,0.003-0.76,0.007-1.141,0.01c-0.359-5.065-0.719-10.13-1.078-15.194
		c-0.583,0.017-1.166,0.033-1.75,0.05c-0.447,5.039-0.895,10.079-1.342,15.118c-0.361-0.022-0.722-0.045-1.083-0.067
		c-0.553-5.042-1.106-10.085-1.659-15.127c-0.563,0.016-1.126,0.032-1.69,0.048c-0.418,5.051-0.837,10.102-1.255,15.153
		c-0.38,0.007-0.76,0.013-1.14,0.019c-0.36-5.064-0.721-10.128-1.082-15.191c-0.607,0.017-1.215,0.032-1.822,0.049
		c-0.388,4.869-0.775,9.738-1.163,14.608C173.658,10.659,175.919,5.495,173.224,0.104z M21.164,28.021
		c0.413,0.007,0.825,0.014,1.238,0.021c0.398,5.108,0.797,10.218,1.196,15.326c0.571,0.007,1.142,0.013,1.714,0.019
		c0.44-5.273,0.88-10.547,1.321-15.82c0.474,0.016,0.947,0.031,1.42,0.047c0.286,5.523,0.572,11.048,0.858,16.571
		c0.652-0.001,1.305-0.001,1.957-0.002c0.447-5.427,0.894-10.854,1.341-16.28c0.394,0.003,0.787,0.006,1.18,0.01
		c0.403,5.164,0.805,10.33,1.208,15.495c0.583-0.002,1.166-0.005,1.749-0.007c0.422-5.281,0.845-10.563,1.268-15.846
		c0.515,0.021,1.029,0.043,1.543,0.064c0.204,5.232,0.408,10.466,0.612,15.698C44.462,38.414,44.517,5.997,40.149,0
		c-0.419,5.897-0.775,10.915-1.131,15.935c-0.348-0.019-0.696-0.036-1.045-0.055c-0.553-5.096-1.106-10.191-1.659-15.286
		C35.753,0.596,35.192,0.598,34.63,0.6c-0.42,5.046-0.84,10.091-1.26,15.138c-0.364,0.011-0.728,0.021-1.091,0.032
		c-0.389-5.026-0.777-10.053-1.166-15.078c-0.583,0-1.165-0.001-1.747-0.001c-0.438,5.02-0.875,10.041-1.313,15.061
		c-0.357-0.013-0.715-0.026-1.073-0.04c-0.557-5.04-1.114-10.079-1.671-15.118c-0.56,0.003-1.119,0.005-1.678,0.008
		c-0.42,5.046-0.839,10.092-1.259,15.139c-0.364,0.011-0.729,0.021-1.093,0.032c-0.388-5.028-0.776-10.056-1.165-15.082
		c-0.581-0.008-1.162-0.016-1.744-0.023c-0.439,5.032-0.877,10.063-1.316,15.097c-0.357-0.017-0.715-0.033-1.072-0.05
		c-0.558-5.04-1.115-10.082-1.673-15.122c-0.56,0.003-1.119,0.007-1.679,0.011c-0.418,5.047-0.837,10.093-1.256,15.141
		c-0.365,0.01-0.73,0.021-1.095,0.03C9.89,10.743,9.503,5.715,9.116,0.687C8.511,0.688,7.906,0.69,7.301,0.692
		c-0.367,4.858-0.733,9.717-1.099,14.576c-2.646-4.537-0.084-9.87-2.995-14.864c-3.288,7.183-3.394,36.462,0.484,42.642
		c0.379-5.109,0.758-10.219,1.136-15.328c0.414,0.027,0.828,0.052,1.242,0.078c0.274,5.449,0.547,10.899,0.821,16.349
		c0.645,0.029,1.29,0.058,1.934,0.086c0.472-5.473,0.943-10.946,1.414-16.419c0.385,0.024,0.77,0.05,1.154,0.075
		c0.392,5.144,0.785,10.286,1.177,15.428c0.455,0.024,0.909,0.049,1.364,0.072c1.507-2.312,0.788-5.146,1.028-7.747
		c0.25-2.701,0.425-5.41,0.632-8.115c0.481,0,0.963,0,1.444,0c0.287,5.555,0.574,11.11,0.86,16.665
		c0.655,0.017,1.309,0.033,1.963,0.05C20.295,38.833,20.729,33.427,21.164,28.021z M114.438,15.593
		c-0.328,0.046-0.656,0.091-0.984,0.136c-1.737-4.812,0.376-10.327-1.751-15.066c-0.443,0.019-0.887,0.037-1.33,0.056
		c-0.459,5.028-0.918,10.059-1.378,15.087c-0.347-0.033-0.693-0.066-1.04-0.1c-0.564-5.034-1.128-10.069-1.692-15.104
		c-0.564,0.025-1.128,0.051-1.691,0.076c-0.402,5.036-0.804,10.073-1.205,15.108c-2.557-4.871-0.687-10.357-2.57-15.16
		c-0.472,0.021-0.944,0.04-1.416,0.06c-0.459,5.041-0.919,10.083-1.378,15.124c-0.347-0.029-0.694-0.058-1.041-0.087
		c-0.563-5.04-1.125-10.081-1.688-15.122c-0.566,0.022-1.132,0.044-1.698,0.065c-0.404,5.046-0.809,10.093-1.213,15.138
		c-0.395,0.002-0.791,0.003-1.186,0.004c-0.336-5.074-0.672-10.149-1.009-15.224c-0.605,0.024-1.209,0.048-1.814,0.071
		c-0.411,4.875-0.821,9.752-1.231,14.627c-0.384-0.021-0.768-0.041-1.151-0.062c-0.238-4.739-0.475-9.478-0.712-14.216
		c-4.389,5.172-4.674,36.034-0.607,42.037c0.414-5.104,0.828-10.209,1.241-15.314c0.394,0.029,0.788,0.057,1.181,0.085
		c0.271,5.456,0.542,10.913,0.812,16.369c0.655,0.019,1.31,0.037,1.964,0.056c0.448-5.46,0.896-10.92,1.345-16.38
		c0.398,0.029,0.797,0.058,1.196,0.087c0.39,5.129,0.779,10.258,1.168,15.386c0.57,0.022,1.14,0.045,1.709,0.067
		c0.458-5.29,0.916-10.582,1.374-15.873c0.458,0.01,0.916,0.018,1.374,0.025c0.295,5.549,0.59,11.099,0.886,16.648
		c0.651,0.02,1.303,0.039,1.955,0.059c0.444-5.462,0.888-10.924,1.332-16.387c0.401,0.027,0.802,0.056,1.203,0.084
		c0.39,5.133,0.781,10.265,1.171,15.396c0.594,0.006,1.189,0.011,1.784,0.017c0.205-2.596,0.409-5.191,0.615-7.787
		c0.212-2.68,0.426-5.361,0.639-8.041c0.469,0.006,0.938,0.01,1.407,0.016c0.302,5.553,0.604,11.104,0.906,16.655
		c0.651,0.013,1.301,0.025,1.952,0.038c0.439-5.454,0.878-10.91,1.318-16.364c0.403,0.031,0.805,0.062,1.208,0.093
		c0.392,5.123,0.783,10.246,1.174,15.368c0.572,0.02,1.145,0.039,1.717,0.059c0.453-5.296,0.906-10.591,1.359-15.888
		c0.478,0.012,0.956,0.023,1.433,0.035c0.235,5.223,0.471,10.447,0.741,16.438c4.759-5.071,4.743-38.835,0.208-43.465
		c-0.336,5.457-0.641,10.399-0.945,15.342c-0.354,0.01-0.708,0.02-1.062,0.029c-0.591-5.103-1.182-10.206-1.773-15.308
		c-0.569,0.035-1.139,0.07-1.708,0.106C115.169,5.659,114.804,10.626,114.438,15.593z M471.311,15.766
		c-0.377,0.006-0.754,0.012-1.131,0.018c-0.371-5.046-0.742-10.094-1.111-15.14c-0.604,0.011-1.207,0.022-1.813,0.033
		c-0.381,4.866-0.762,9.732-1.143,14.6c-0.363-0.007-0.729-0.014-1.092-0.021c-1.412-4.552,1.059-9.855-2.102-14.108
		c-3.514,13.957-2.82,27.849-0.84,41.746c0.52,0.051,1.037,0.102,1.555,0.154c0.377-5.11,0.756-10.221,1.133-15.33
		c0.414,0.025,0.828,0.052,1.242,0.077c0.273,5.448,0.547,10.895,0.82,16.342c0.645,0.029,1.287,0.059,1.932,0.089
		c0.477-5.479,0.955-10.957,1.432-16.437c0.381,0.022,0.76,0.045,1.141,0.067c0.391,5.152,0.779,10.304,1.17,15.455
		c0.455,0.017,0.912,0.033,1.369,0.049c2.307-4.954-0.133-10.846,2.029-15.83c0.367-0.006,0.734-0.014,1.102-0.021
		c0.266,5.549,0.531,11.097,0.797,16.646c0.654,0.02,1.311,0.04,1.965,0.06c0.473-5.471,0.945-10.941,1.418-16.413
		c0.383,0.022,0.766,0.046,1.15,0.069c0.391,5.148,0.781,10.298,1.172,15.446c0.459,0.016,0.92,0.031,1.379,0.047
		c2.281-4.959-0.143-10.847,2.025-15.827c0.363-0.008,0.727-0.014,1.09-0.02c0.27,5.547,0.537,11.097,0.807,16.645
		c0.654,0.02,1.309,0.038,1.961,0.057c0.469-5.468,0.938-10.938,1.404-16.406c0.387,0.024,0.773,0.05,1.16,0.074
		c0.391,5.143,0.783,10.283,1.174,15.425c0.572,0.028,1.145,0.056,1.717,0.083c0.447-5.301,0.895-10.604,1.342-15.904
		c0.459,0,0.916,0.002,1.375,0.002c0.311,5.275,0.621,10.553,0.932,15.829c4.633-5.846,4.398-38.141,0.178-42.924
		c-0.402,5.539-0.762,10.501-1.123,15.461c-0.342-0.027-0.686-0.055-1.027-0.082c-0.555-5.058-1.107-10.117-1.66-15.175
		c-0.57,0.02-1.139,0.039-1.709,0.059c-0.406,5.052-0.814,10.104-1.221,15.155c-0.389,0.002-0.777,0.005-1.164,0.008
		c-0.346-5.075-0.693-10.15-1.041-15.226c-0.59,0.022-1.18,0.044-1.771,0.065c-0.449,5.043-0.896,10.087-1.346,15.131
		c-0.359-0.023-0.721-0.047-1.08-0.069c-0.549-5.043-1.098-10.086-1.646-15.129c-0.57,0.008-1.137,0.016-1.705,0.024
		c-0.416,5.062-0.832,10.124-1.25,15.186c-0.381,0.003-0.762,0.005-1.143,0.007c-0.359-5.059-0.719-10.117-1.078-15.175
		c-0.584,0.012-1.168,0.023-1.752,0.035c-0.447,5.037-0.893,10.075-1.338,15.112c-0.357-0.022-0.717-0.044-1.076-0.066
		c-0.561-5.041-1.121-10.082-1.682-15.122c-0.557,0.008-1.111,0.017-1.668,0.024C472.148,5.668,471.729,10.718,471.311,15.766z"/>
	<path fill-rule="evenodd" clip-rule="evenodd" fill="#006837" d="M603.031,15.715c0.395-4.96,0.791-9.921,1.188-14.881
		c0.516-0.039,1.031-0.078,1.547-0.117c1.775,4.736,0.078,10.118,1.541,14.914c0.35,0.02,0.699,0.04,1.049,0.061
		c0.363-4.987,0.729-9.976,1.092-14.964c0.475-0.031,0.947-0.063,1.42-0.094c1.922,4.721,0.736,10.061,3.096,15.074
		c0.428-4.963,0.854-9.926,1.281-14.889c0.449-0.024,0.9-0.048,1.352-0.072c2.254,4.648-0.016,10.139,2.758,14.945
		c0.365-4.988,0.729-9.977,1.094-14.965c0.471-0.031,0.943-0.063,1.416-0.093c1.93,4.72,0.734,10.062,3.098,15.075
		c0.428-4.965,0.855-9.929,1.283-14.893c0.449-0.023,0.9-0.048,1.352-0.071c2.254,4.649-0.02,10.14,2.756,14.947
		c0.365-4.989,0.729-9.979,1.094-14.967c0.471-0.03,0.943-0.062,1.414-0.092c1.938,4.72,0.734,10.063,3.098,15.074
		c0.43-4.964,0.857-9.927,1.287-14.89c0.449-0.024,0.9-0.05,1.35-0.075c2.254,4.651-0.021,10.144,2.756,14.949
		c0.365-4.995,0.73-9.989,1.096-14.983c0.469-0.025,0.939-0.05,1.408-0.074c1.947,4.719,0.736,10.064,3.102,15.076
		c0.43-4.967,0.859-9.933,1.289-14.898c0.449-0.023,0.9-0.047,1.35-0.07c2.254,4.652-0.025,10.145,2.754,14.952
		c0.365-4.989,0.73-9.98,1.096-14.97c0.469-0.029,0.938-0.06,1.406-0.089c1.955,4.718,0.736,10.065,3.104,15.075
		c0.43-4.965,0.859-9.931,1.289-14.896c0.451-0.024,0.902-0.05,1.354-0.074c2.25,4.652-0.029,10.147,2.748,14.953
		c0.367-4.995,0.734-9.991,1.1-14.987c0.475-0.024,0.947-0.05,1.42-0.074c1.936,4.723,0.725,10.068,3.088,15.08
		c0.43-4.967,0.859-9.933,1.291-14.898c0.51-0.036,1.02-0.071,1.527-0.107c1.74,4.749,0.078,10.129,1.533,14.932
		c0.346,0.02,0.693,0.038,1.039,0.058c0.367-4.991,0.734-9.982,1.102-14.973c0.473-0.03,0.945-0.061,1.418-0.09
		c1.938,4.722,0.723,10.069,3.086,15.08c0.432-4.968,0.863-9.935,1.295-14.901c0.451-0.024,0.9-0.049,1.352-0.074
		c2.252,4.655-0.035,10.152,2.744,14.959c0.369-4.992,0.736-9.983,1.104-14.975c0.473-0.029,0.943-0.06,1.416-0.089
		c1.943,4.723,0.723,10.071,3.09,15.082c0.432-4.968,0.863-9.937,1.295-14.905c0.449-0.024,0.9-0.049,1.35-0.073
		c2.254,4.656-0.037,10.155,2.746,14.961c0.367-4.997,0.736-9.995,1.104-14.992c0.473-0.024,0.943-0.048,1.414-0.072
		c1.945,4.724,0.723,10.073,3.088,15.081c0.434-4.969,0.865-9.938,1.299-14.908c0.449-0.023,0.9-0.047,1.35-0.07
		c2.254,4.656-0.041,10.156,2.744,14.963c0.369-4.992,0.734-9.985,1.104-14.978c0.471-0.029,0.941-0.059,1.414-0.087
		c1.949,4.723,0.721,10.074,3.088,15.082c0.434-4.971,0.867-9.941,1.301-14.911c0.449-0.023,0.898-0.047,1.35-0.07
		c2.252,4.657-0.043,10.159,2.742,14.965c0.367-4.993,0.736-9.986,1.104-14.979c0.471-0.028,0.939-0.057,1.41-0.085
		c1.961,4.722,0.721,10.075,3.092,15.082c0.434-4.972,0.867-9.942,1.301-14.914c0.451-0.023,0.9-0.046,1.35-0.069
		c2.254,4.658-0.045,10.16,2.744,14.967c0.367-4.994,0.734-9.987,1.102-14.981c0.471-0.027,0.938-0.056,1.406-0.083
		c1.969,4.721,0.721,10.076,3.096,15.083c0.436-4.972,0.869-9.945,1.303-14.917c0.451-0.023,0.9-0.047,1.35-0.069
		c2.254,4.659-0.049,10.163,2.742,14.969c0.367-4.999,0.734-10,1.104-14.999c0.467-0.022,0.936-0.044,1.402-0.066
		c1.977,4.721,0.721,10.078,3.098,15.084c0.436-4.973,0.869-9.946,1.305-14.918c0.506-0.034,1.014-0.068,1.52-0.103
		c1.744,4.755,0.076,10.142,1.535,14.949c0.346,0.019,0.691,0.036,1.035,0.054c0.367-4.994,0.736-9.989,1.104-14.984
		c0.467-0.027,0.934-0.054,1.4-0.081c1.982,4.72,0.721,10.079,3.1,15.084c0.436-4.974,0.871-9.947,1.307-14.921
		c0.5-0.032,1-0.063,1.5-0.096c1.777,4.758,0.086,10.15,1.855,15.947c0.531-1.478,0.855-2.076,0.947-2.708
		c0.111-0.761,0.025-1.55,0.697-2.325c0,6.396,0,12.793,0,19.189c-0.131,0.036-0.26,0.071-0.391,0.106
		c-0.262-0.987-0.521-1.976-0.783-2.964c-0.32-0.03-0.641-0.062-0.963-0.092c-0.439,5.455-0.877,10.909-1.316,16.363
		c-0.643-0.008-1.285-0.016-1.928-0.023c-0.318-5.544-0.635-11.088-0.951-16.631c-0.449-0.01-0.898-0.021-1.346-0.031
		c-0.455,5.283-0.908,10.567-1.363,15.852c-0.57-0.013-1.143-0.024-1.717-0.037c-0.391-5.132-0.783-10.264-1.176-15.396
		c-0.4-0.028-0.799-0.057-1.199-0.085c-0.445,5.456-0.891,10.913-1.336,16.369c-0.652-0.015-1.307-0.029-1.959-0.044
		c-0.291-5.553-0.582-11.105-0.873-16.658c-0.463-0.006-0.926-0.012-1.389-0.018c-0.457,5.293-0.916,10.584-1.373,15.876
		c-0.566-0.025-1.133-0.051-1.699-0.076c-0.393-5.14-0.785-10.278-1.178-15.419c-0.389-0.025-0.775-0.052-1.164-0.078
		c-0.465,5.471-0.932,10.942-1.398,16.413c-0.654-0.022-1.309-0.046-1.961-0.068c-0.271-5.559-0.541-11.116-0.811-16.675
		c-0.494,0.006-0.986,0.012-1.479,0.018c-0.203,2.727-0.303,5.467-0.641,8.176c-0.318,2.559,0.869,5.508-2.311,8.501
		c-0.455-6.031-0.846-11.185-1.236-16.338c-0.375-0.021-0.75-0.042-1.125-0.063c-0.486,5.475-0.971,10.949-1.457,16.423
		c-0.645-0.029-1.287-0.06-1.932-0.09c-0.268-5.465-0.533-10.931-0.801-16.396c-0.48-0.047-0.959-0.092-1.441-0.137
		c-0.428,5.264-0.857,10.53-1.285,15.796c-0.572,0.01-1.145,0.02-1.715,0.029c-0.42-5.181-0.838-10.362-1.256-15.542
		c-0.404-0.015-0.807-0.028-1.209-0.042c-0.412,5.417-0.824,10.836-1.236,16.254c-0.572,0.012-1.145,0.023-1.719,0.035
		c-1.857-5.254,0.238-11.13-1.4-16.417c-0.398-0.035-0.797-0.07-1.197-0.107c-0.416,5.27-0.832,10.54-1.248,15.811
		c-0.57,0.015-1.141,0.03-1.711,0.046c-0.432-5.19-0.859-10.38-1.291-15.57c-0.396-0.004-0.793-0.008-1.189-0.012
		c-0.422,5.415-0.846,10.831-1.268,16.246c-0.604,0.014-1.205,0.027-1.809,0.042c-1.582-5.315,0.287-11.174-1.299-16.488
		c-0.395-0.027-0.789-0.053-1.182-0.08c-0.422,5.271-0.844,10.542-1.266,15.813c-0.582,0.005-1.164,0.009-1.746,0.014
		c-0.406-5.169-0.813-10.338-1.219-15.507c-0.395,0-0.789-0.001-1.184-0.001c-0.441,5.414-0.883,10.828-1.324,16.242
		c-0.58,0.007-1.16,0.015-1.74,0.021c-1.658-5.322,0.283-11.209-1.355-16.533c-0.385-0.021-0.77-0.045-1.154-0.066
		c-0.436,5.273-0.873,10.549-1.309,15.824c-0.576-0.007-1.15-0.014-1.725-0.021c-0.396-5.106-0.791-10.214-1.188-15.319
		c-0.416-0.034-0.83-0.068-1.246-0.103c-0.418,5.415-0.834,10.83-1.252,16.245c-0.652-0.003-1.303-0.007-1.955-0.01
		c-0.314-5.532-0.629-11.064-0.945-16.598c-0.453-0.012-0.906-0.025-1.359-0.037c-0.447,5.275-0.895,10.552-1.342,15.828
		c-0.574-0.008-1.148-0.016-1.721-0.023c-0.395-5.119-0.787-10.238-1.18-15.357c-0.406-0.031-0.811-0.063-1.215-0.096
		c-0.436,5.445-0.871,10.891-1.309,16.336c-0.648-0.011-1.299-0.021-1.947-0.031c-0.309-5.55-0.613-11.1-0.922-16.65
		c-0.467-0.006-0.934-0.014-1.4-0.02c-0.213,2.682-0.428,5.363-0.641,8.044c-0.205,2.595-0.41,5.188-0.617,7.784
		c-0.594-0.006-1.188-0.013-1.781-0.019c-0.393-5.137-0.783-10.274-1.174-15.411c-0.396-0.027-0.795-0.055-1.191-0.082
		c-0.451,5.461-0.902,10.92-1.354,16.379c-0.652-0.016-1.305-0.032-1.957-0.048c-0.285-5.552-0.57-11.104-0.854-16.655
		c-0.484-0.004-0.967-0.006-1.451-0.008c-0.207,2.708-0.311,5.43-0.65,8.121c-0.324,2.57,0.861,5.52-2.301,8.571
		c-0.461-6.039-0.854-11.187-1.248-16.336c-0.383-0.023-0.766-0.047-1.15-0.071c-0.471,5.469-0.943,10.938-1.416,16.406
		c-0.656-0.021-1.313-0.041-1.967-0.062c-0.266-5.549-0.531-11.099-0.795-16.647c-0.494,0.002-0.986,0.004-1.479,0.006
		c-0.396,5.271-0.793,10.542-1.189,15.813c-0.586,0.028-1.17,0.056-1.754,0.084c-0.42-5.183-0.84-10.365-1.262-15.548
		c-0.402-0.019-0.805-0.037-1.207-0.056c-0.412,5.416-0.826,10.834-1.238,16.251c-0.6,0.021-1.199,0.041-1.801,0.062
		c-1.676-5.27,0.248-11.105-1.295-16.396c-0.404-0.037-0.809-0.074-1.213-0.111c-0.422,5.252-0.842,10.505-1.264,15.757
		c-0.604,0.002-1.207,0.005-1.809,0.007c-0.16-2.582-0.283-5.166-0.486-7.745c-0.203-2.589-0.486-5.171-0.734-7.756
		c-0.387-0.012-0.773-0.022-1.16-0.034c-0.414,5.424-0.828,10.848-1.242,16.271c-0.541,0-1.08,0-1.619,0
		c-2.088-5.224,0.244-11.141-1.527-16.414c-0.389-0.033-0.777-0.064-1.164-0.096c-0.416,5.266-0.832,10.533-1.25,15.8
		c-0.572,0.016-1.145,0.031-1.717,0.047c-0.428-5.186-0.854-10.372-1.281-15.558c-0.395-0.007-0.789-0.013-1.182-0.02
		c-0.432,5.426-0.861,10.853-1.293,16.278c-0.6,0.006-1.199,0.011-1.797,0.016c-1.572-5.323,0.297-11.187-1.301-16.505
		c-0.377-0.027-0.752-0.053-1.129-0.08c-0.23,2.61-0.479,5.219-0.686,7.832c-0.211,2.651-0.381,5.305-0.568,7.959
		c-0.602,0.007-1.203,0.014-1.805,0.021c-0.398-5.099-0.799-10.198-1.199-15.298c-0.406-0.041-0.813-0.082-1.221-0.123
		c-0.432,5.41-0.861,10.822-1.293,16.232c-0.658-0.005-1.316-0.011-1.977-0.017c-0.289-5.523-0.578-11.048-0.867-16.573
		c-0.471-0.016-0.943-0.031-1.414-0.047c-0.441,5.273-0.883,10.547-1.322,15.82c-0.572-0.006-1.143-0.013-1.715-0.02
		c-0.396-5.109-0.795-10.219-1.191-15.329c-0.41-0.033-0.818-0.067-1.229-0.101c-0.426,5.426-0.854,10.852-1.279,16.277
		c-0.646-0.006-1.291-0.012-1.936-0.018c-0.32-5.538-0.641-11.076-0.961-16.615c-0.449-0.012-0.898-0.023-1.348-0.035
		c-0.449,5.279-0.9,10.561-1.352,15.84c-0.574-0.011-1.148-0.021-1.723-0.033c-0.393-5.123-0.783-10.246-1.176-15.37
		c-0.402-0.031-0.805-0.063-1.207-0.094c-0.441,5.454-0.879,10.907-1.32,16.359c-0.652-0.013-1.305-0.026-1.957-0.04
		c-0.299-5.553-0.598-11.105-0.895-16.658c-0.457-0.008-0.914-0.016-1.371-0.023c-0.459,5.291-0.92,10.582-1.379,15.873
		c-0.568-0.023-1.135-0.047-1.701-0.07c-0.393-5.135-0.783-10.271-1.174-15.406c-0.393-0.027-0.787-0.055-1.18-0.082
		c-0.459,5.469-0.92,10.937-1.379,16.404c-0.652-0.021-1.305-0.043-1.957-0.064c-0.275-5.558-0.553-11.115-0.83-16.674
		c-0.357,0.012-0.717,0.023-1.072,0.035c-2.178,4.977,0.248,10.867-2.031,15.824c-0.461-0.02-0.92-0.038-1.381-0.058
		c-0.391-5.148-0.783-10.296-1.174-15.445c-0.379-0.023-0.758-0.047-1.137-0.07c-0.48,5.474-0.959,10.946-1.438,16.419
		c-0.654-0.022-1.309-0.045-1.965-0.066c-0.262-5.544-0.523-11.088-0.787-16.631c-0.492,0.002-0.986,0.006-1.479,0.01
		c-0.402,5.271-0.803,10.545-1.203,15.816c-0.582,0.02-1.166,0.039-1.75,0.059c-0.418-5.177-0.834-10.354-1.252-15.53
		c-0.404-0.017-0.809-0.034-1.211-0.052c-0.412,5.424-0.824,10.847-1.236,16.27c-0.594,0.014-1.188,0.028-1.783,0.042
		c-1.732-5.237,0.297-11.093-2.354-16.39c-0.338,5.055-0.676,10.111-1.064,15.931c-3.918-4.913-4.018-36.087-0.357-43.413
		c2.455,5.197,0.492,10.281,1.641,14.859c0.391,0.036,0.779,0.071,1.17,0.106c0.162-2.379,0.305-4.761,0.494-7.137
		c0.195-2.422,0.439-4.84,1.305-7.297c2.941,4.608,0.672,10.099,3.445,14.905c0.365-4.988,0.729-9.978,1.094-14.965
		c0.471-0.031,0.943-0.063,1.416-0.093c1.932,4.72,0.734,10.062,3.098,15.075c0.428-4.965,0.855-9.929,1.283-14.893
		c0.451-0.024,0.902-0.048,1.352-0.071c2.254,4.649-0.02,10.14,2.756,14.947c0.365-4.989,0.73-9.979,1.096-14.967
		c0.471-0.03,0.941-0.061,1.41-0.091c1.941,4.719,0.736,10.063,3.1,15.074c0.43-4.965,0.857-9.931,1.287-14.896
		c0.451-0.023,0.9-0.047,1.352-0.07c2.252,4.651-0.023,10.144,2.754,14.95c0.365-4.99,0.73-9.979,1.096-14.969
		c0.471-0.029,0.938-0.06,1.408-0.09c1.947,4.719,0.736,10.064,3.102,15.075c0.43-4.964,0.859-9.929,1.289-14.893
		c0.451-0.025,0.9-0.05,1.352-0.075c2.252,4.652-0.025,10.145,2.752,14.951c0.365-4.996,0.732-9.99,1.098-14.985
		c0.469-0.024,0.936-0.048,1.404-0.072c1.957,4.718,0.736,10.065,3.104,15.075c0.43-4.965,0.859-9.931,1.289-14.896
		c0.512-0.036,1.021-0.071,1.531-0.107c1.738,4.748,0.076,10.128,1.529,14.93c0.348,0.019,0.695,0.038,1.043,0.057
		c0.367-4.995,0.732-9.991,1.1-14.987c0.479-0.025,0.959-0.051,1.438-0.077c1.869,4.738,0.742,10.067,2.053,14.915
		C602.307,15.603,602.668,15.658,603.031,15.715z"/>
	<path fill-rule="evenodd" clip-rule="evenodd" fill="#006837" d="M290.028,1.147c2.697,4.378,0.896,9.469,1.912,14.105
		c0.395,0.01,0.789,0.019,1.184,0.027c0.387-4.868,0.773-9.738,1.159-14.607c0.606-0.013,1.212-0.025,1.818-0.038
		c0.363,5.058,0.727,10.117,1.091,15.175c0.378-0.006,0.757-0.013,1.136-0.019c0.42-5.051,0.84-10.103,1.26-15.154
		c0.557-0.014,1.114-0.028,1.67-0.043c0.561,5.042,1.121,10.084,1.682,15.126c0.358,0.022,0.716,0.045,1.075,0.066
		c0.447-5.038,0.895-10.075,1.342-15.112c0.58-0.014,1.16-0.028,1.74-0.043c0.366,5.06,0.732,10.119,1.098,15.18
		c0.378-0.008,0.756-0.015,1.134-0.022c0.42-5.052,0.84-10.103,1.26-15.153c0.556-0.014,1.111-0.027,1.667-0.041
		c0.562,5.041,1.123,10.084,1.685,15.125c0.357,0.022,0.715,0.044,1.072,0.066c0.448-5.037,0.896-10.073,1.343-15.11
		c0.579-0.012,1.158-0.023,1.737-0.034c0.368,5.055,0.735,10.111,1.103,15.166c0.377-0.006,0.754-0.011,1.132-0.017
		c0.42-5.056,0.84-10.111,1.26-15.166c0.556-0.011,1.111-0.021,1.666-0.032c0.563,5.042,1.125,10.084,1.686,15.127
		c0.356,0.021,0.713,0.043,1.07,0.064c0.448-5.035,0.896-10.071,1.344-15.107c0.578-0.014,1.156-0.028,1.734-0.042
		c0.37,5.058,0.739,10.116,1.109,15.175c0.376-0.007,0.753-0.013,1.13-0.019c0.42-5.062,0.84-10.122,1.261-15.183
		c0.556-0.004,1.111-0.008,1.667-0.012c0.561,5.04,1.123,10.082,1.684,15.122c0.356,0.022,0.712,0.044,1.068,0.065
		c0.449-5.041,0.897-10.083,1.346-15.124c0.577-0.005,1.154-0.01,1.731-0.015c0.372,5.053,0.743,10.105,1.114,15.158
		c0.376-0.007,0.752-0.013,1.128-0.02c0.419-5.055,0.839-10.108,1.258-15.163c0.556-0.01,1.112-0.021,1.669-0.03
		c0.561,5.042,1.122,10.086,1.684,15.128c0.355,0.021,0.711,0.041,1.067,0.062c0.448-5.033,0.896-10.067,1.345-15.101
		c0.577-0.011,1.154-0.021,1.731-0.031c0.372,5.052,0.745,10.103,1.119,15.155c0.376-0.007,0.751-0.015,1.127-0.022
		c0.419-5.054,0.837-10.107,1.256-15.161c0.558-0.008,1.114-0.017,1.673-0.024c0.56,5.04,1.119,10.081,1.68,15.123
		c0.355,0.021,0.711,0.043,1.066,0.064c0.449-5.042,0.898-10.082,1.348-15.123c0.576-0.002,1.152-0.004,1.729-0.007
		c0.375,5.049,0.749,10.098,1.123,15.146c0.375-0.007,0.75-0.015,1.125-0.021c0.418-5.054,0.836-10.105,1.254-15.158
		c0.559-0.01,1.117-0.021,1.676-0.03c0.559,5.043,1.118,10.086,1.678,15.129c0.355,0.02,0.711,0.039,1.067,0.058
		c0.448-5.03,0.896-10.063,1.345-15.094c0.576-0.01,1.152-0.019,1.729-0.028c0.377,5.049,0.753,10.098,1.13,15.148
		c0.374-0.01,0.748-0.019,1.122-0.028c0.418-5.052,0.835-10.104,1.251-15.155c0.56-0.01,1.119-0.02,1.679-0.029
		c0.559,5.042,1.117,10.086,1.676,15.129c0.355,0.021,0.711,0.043,1.066,0.063c0.45-5.04,0.899-10.08,1.348-15.12
		c0.574,0,1.15,0,1.727,0c0.377,5.044,0.756,10.088,1.133,15.133c0.373-0.006,0.746-0.012,1.119-0.018
		c0.418-5.059,0.836-10.118,1.252-15.177c0.561-0.003,1.121-0.005,1.68-0.008c0.559,5.042,1.115,10.083,1.674,15.125
		c0.355,0.021,0.711,0.042,1.066,0.063c0.449-5.039,0.896-10.079,1.346-15.119c0.576,0.001,1.152,0.002,1.729,0.003
		c0.379,5.043,0.758,10.085,1.137,15.128c0.373-0.009,0.744-0.018,1.117-0.025c0.416-5.051,0.832-10.101,1.25-15.15
		c0.561-0.008,1.121-0.016,1.682-0.022c0.557,5.04,1.115,10.081,1.672,15.123c0.357,0.018,0.715,0.035,1.07,0.053
		c0.445-5.028,0.891-10.057,1.336-15.085c0.578-0.006,1.156-0.011,1.734-0.017c0.379,5.04,0.76,10.081,1.141,15.121
		c0.371-0.009,0.742-0.018,1.113-0.026c0.416-5.049,0.834-10.1,1.25-15.148c0.566-0.006,1.133-0.011,1.697-0.016
		c0.551,5.095,1.102,10.189,1.654,15.283c0.34,0.021,0.68,0.041,1.02,0.061c0.369-5.012,0.736-10.025,1.164-15.837
		c4.32,5.715,4.316,38.165-0.445,43.222c-0.162-5.229-0.322-10.461-0.484-15.691c-0.537-0.023-1.072-0.047-1.609-0.07
		c-0.42,5.279-0.838,10.558-1.258,15.837c-0.578,0.007-1.158,0.014-1.736,0.021c-0.416-5.173-0.832-10.348-1.246-15.521
		c-0.395-0.002-0.787-0.004-1.182-0.006c-0.438,5.415-0.873,10.829-1.311,16.243c-0.59,0.01-1.178,0.019-1.766,0.028
		c-1.623-5.322,0.291-11.2-1.334-16.522c-0.375-0.023-0.752-0.047-1.129-0.072c-0.227,2.621-0.471,5.24-0.678,7.863
		c-0.209,2.644-0.385,5.289-0.574,7.934c-0.604,0.003-1.205,0.006-1.809,0.009c-0.396-5.103-0.791-10.206-1.186-15.31
		c-0.41-0.036-0.818-0.071-1.229-0.107c-0.428,5.41-0.857,10.818-1.287,16.228c-0.65,0-1.303,0-1.953-0.001
		c-0.307-5.529-0.613-11.059-0.92-16.59c-0.459-0.014-0.916-0.027-1.375-0.041c-0.445,5.273-0.891,10.549-1.336,15.823
		c-0.574-0.005-1.146-0.011-1.719-0.017c-0.395-5.117-0.791-10.234-1.186-15.353c-0.404-0.032-0.811-0.064-1.215-0.097
		c-0.436,5.439-0.869,10.879-1.303,16.318c-0.646-0.009-1.295-0.019-1.941-0.027c-0.313-5.547-0.625-11.094-0.938-16.641
		c-0.45-0.01-0.9-0.021-1.351-0.031c-0.456,5.289-0.912,10.576-1.368,15.864c-0.571-0.016-1.143-0.03-1.714-0.046
		c-0.392-5.135-0.783-10.27-1.175-15.405c-0.397-0.028-0.796-0.056-1.193-0.084c-0.449,5.458-0.898,10.917-1.348,16.375
		c-0.652-0.016-1.305-0.031-1.957-0.047c-0.288-5.552-0.574-11.104-0.861-16.657c-0.482-0.002-0.963-0.006-1.444-0.008
		c-0.208,2.705-0.313,5.424-0.653,8.112c-0.324,2.572,0.86,5.522-2.301,8.584c-0.462-6.042-0.854-11.188-1.248-16.336
		c-0.384-0.024-0.769-0.049-1.153-0.073c-0.471,5.473-0.942,10.946-1.413,16.42c-0.655-0.024-1.311-0.049-1.965-0.073
		c-0.267-5.558-0.533-11.116-0.799-16.675c-0.492,0.008-0.984,0.018-1.478,0.025c-0.396,5.271-0.792,10.542-1.188,15.813
		c-0.585,0.022-1.17,0.044-1.754,0.066c-0.42-5.175-0.841-10.35-1.261-15.523c-0.403-0.021-0.806-0.041-1.208-0.061
		c-0.413,5.424-0.826,10.846-1.238,16.269c-0.592,0.014-1.183,0.026-1.773,0.039c-1.708-5.264,0.223-11.101-1.324-16.392
		c-0.403-0.037-0.807-0.074-1.211-0.111c-0.422,5.252-0.842,10.505-1.264,15.757c-0.573,0.021-1.146,0.042-1.72,0.063
		c-0.422-5.186-0.845-10.371-1.267-15.557c-0.401-0.012-0.803-0.023-1.204-0.034c-0.415,5.423-0.829,10.848-1.243,16.271
		c-0.602,0.01-1.203,0.02-1.805,0.029c-1.633-5.296,0.24-11.144-1.289-16.454c-0.405-0.029-0.81-0.059-1.215-0.088
		c-0.417,5.268-0.834,10.535-1.251,15.802c-0.573,0.016-1.146,0.03-1.72,0.046c-0.426-5.185-0.851-10.369-1.277-15.556
		c-0.394-0.006-0.787-0.012-1.181-0.018c-0.433,5.427-0.865,10.853-1.297,16.279c-0.596,0.004-1.193,0.009-1.79,0.013
		c-1.583-5.323,0.298-11.189-1.308-16.51c-0.391-0.025-0.781-0.049-1.171-0.074c-0.427,5.273-0.855,10.547-1.283,15.819
		c-0.578-0.004-1.156-0.009-1.735-0.013c-0.398-5.101-0.796-10.201-1.194-15.302c-0.408-0.037-0.816-0.075-1.224-0.113
		c-0.43,5.403-0.86,10.805-1.29,16.207c-0.657,0.001-1.313,0.003-1.97,0.004c-0.295-5.526-0.589-11.054-0.884-16.579
		c-0.467-0.014-0.934-0.027-1.401-0.041c-0.442,5.273-0.885,10.546-1.328,15.818c-0.572-0.006-1.144-0.011-1.715-0.017
		c-0.396-5.112-0.793-10.224-1.19-15.337c-0.407-0.033-0.814-0.066-1.222-0.1c-0.43,5.432-0.859,10.862-1.289,16.293
		c-0.645-0.008-1.29-0.015-1.935-0.022c-0.319-5.541-0.638-11.083-0.957-16.624c-0.448-0.012-0.897-0.021-1.346-0.033
		c-0.453,5.283-0.906,10.565-1.358,15.848c-0.573-0.015-1.146-0.029-1.719-0.045c-0.392-5.124-0.784-10.25-1.176-15.374
		c-0.4-0.031-0.801-0.062-1.201-0.093c-0.444,5.455-0.888,10.911-1.332,16.366c-0.658-0.019-1.316-0.036-1.975-0.054
		c-0.269-5.459-0.539-10.918-0.808-16.376c-0.395-0.028-0.789-0.056-1.183-0.085c-0.414,5.104-0.828,10.209-1.242,15.313
		c-0.484-0.039-0.968-0.078-1.452-0.117C287.014,29.029,286.487,15.136,290.028,1.147z"/>
	<path fill-rule="evenodd" clip-rule="evenodd" fill="#006837" d="M173.224,0.104c2.696,5.391,0.435,10.555,2.913,15.175
		c0.388-4.87,0.775-9.739,1.163-14.608c0.607-0.017,1.214-0.032,1.822-0.049c0.361,5.063,0.721,10.127,1.082,15.191
		c0.38-0.006,0.76-0.012,1.14-0.019c0.418-5.052,0.836-10.103,1.255-15.153c0.563-0.016,1.126-0.032,1.69-0.048
		c0.553,5.042,1.106,10.085,1.659,15.127c0.361,0.022,0.723,0.045,1.083,0.067c0.447-5.039,0.895-10.079,1.342-15.118
		c0.583-0.017,1.167-0.033,1.75-0.05c0.359,5.064,0.719,10.129,1.078,15.194c0.38-0.003,0.761-0.007,1.141-0.01
		c0.419-5.063,0.837-10.127,1.257-15.189c0.564-0.007,1.128-0.014,1.692-0.021c0.552,5.042,1.104,10.085,1.655,15.128
		c0.361,0.021,0.723,0.043,1.084,0.064c0.448-5.043,0.895-10.085,1.343-15.128c0.584-0.009,1.168-0.019,1.751-0.027
		c0.358,5.061,0.716,10.12,1.074,15.182c0.381-0.002,0.761-0.004,1.142-0.007c0.418-5.063,0.837-10.126,1.255-15.189
		c0.565-0.007,1.13-0.015,1.696-0.022c0.551,5.043,1.102,10.085,1.652,15.128c0.361,0.022,0.723,0.045,1.084,0.068
		c0.447-5.041,0.895-10.081,1.342-15.121c0.585-0.019,1.169-0.036,1.754-0.054c0.357,5.067,0.713,10.134,1.07,15.202
		c0.381-0.006,0.763-0.012,1.145-0.017c0.417-5.052,0.833-10.104,1.25-15.155c0.567-0.017,1.134-0.033,1.702-0.05
		c0.55,5.042,1.1,10.083,1.65,15.126c0.361,0.023,0.723,0.046,1.084,0.068c0.447-5.041,0.895-10.082,1.342-15.122
		c0.585-0.019,1.171-0.037,1.756-0.055c0.356,5.067,0.712,10.136,1.068,15.205c0.381-0.003,0.763-0.006,1.145-0.009
		c0.417-5.064,0.834-10.128,1.251-15.191c0.567-0.008,1.135-0.016,1.702-0.023c0.55,5.042,1.1,10.084,1.649,15.128
		c0.361,0.022,0.722,0.045,1.083,0.068c0.448-5.042,0.896-10.083,1.344-15.124c0.585-0.019,1.171-0.037,1.757-0.057
		c0.355,5.069,0.71,10.139,1.065,15.209c0.382-0.005,0.764-0.011,1.146-0.016c0.416-5.053,0.831-10.104,1.247-15.156
		c0.567-0.016,1.134-0.032,1.701-0.049c0.551,5.075,1.102,10.15,1.653,15.227c0.332,0.024,0.663,0.048,0.995,0.072
		c0.378-4.984,0.757-9.968,1.186-15.602c4.251,5.148,4.375,37.589,0.245,43.667c-2.052-5.659,0.06-11.237-1.481-16.28
		c-0.411-0.049-0.823-0.1-1.234-0.15c-0.233,2.58-0.492,5.156-0.691,7.738c-0.208,2.689-0.356,5.383-0.531,8.076
		c-0.605,0.024-1.211,0.05-1.817,0.075c-0.42-5.184-0.84-10.368-1.261-15.551c-0.402-0.014-0.804-0.026-1.206-0.04
		c-0.413,5.424-0.826,10.848-1.238,16.271c-0.6,0.01-1.199,0.021-1.799,0.031c-1.661-5.287,0.237-11.134-1.294-16.44
		c-0.407-0.031-0.814-0.061-1.221-0.09c-0.415,5.264-0.831,10.529-1.246,15.794c-0.57,0.018-1.142,0.035-1.713,0.053
		c-0.43-5.188-0.86-10.378-1.291-15.567c-0.396-0.004-0.792-0.008-1.188-0.011c-0.424,5.415-0.848,10.829-1.272,16.244
		c-0.6,0.014-1.2,0.026-1.8,0.04c-1.573-5.318,0.211-11.162-1.249-16.498c-0.412-0.023-0.824-0.047-1.236-0.072
		c-0.422,5.271-0.845,10.544-1.267,15.814c-0.582,0.005-1.163,0.009-1.745,0.013c-0.406-5.168-0.813-10.337-1.219-15.506
		c-0.395-0.001-0.789-0.001-1.183-0.002c-0.442,5.415-0.883,10.828-1.325,16.242c-0.606,0.012-1.212,0.022-1.818,0.034
		c-1.456-5.354,0.209-11.195-1.196-16.557c-0.404-0.018-0.808-0.037-1.212-0.055c-0.227,2.626-0.466,5.25-0.675,7.879
		c-0.21,2.651-0.389,5.307-0.581,7.959c-0.601-0.011-1.202-0.021-1.802-0.032c-0.396-5.105-0.791-10.21-1.187-15.316
		c-0.417-0.035-0.835-0.069-1.253-0.104c-0.414,5.412-0.829,10.825-1.242,16.237c-0.656-0.001-1.311-0.002-1.967-0.003
		c-0.31-5.531-0.62-11.063-0.93-16.594c-0.461-0.012-0.922-0.025-1.382-0.039c-0.22,2.65-0.448,5.301-0.658,7.951
		c-0.209,2.635-0.399,5.27-0.598,7.905c-0.597-0.019-1.193-0.038-1.79-0.057c-0.394-5.116-0.789-10.231-1.183-15.349
		c-0.405-0.031-0.811-0.063-1.216-0.095c-0.434,5.44-0.868,10.879-1.302,16.318c-0.646-0.009-1.293-0.019-1.94-0.027
		c-0.313-5.546-0.627-11.093-0.94-16.638c-0.45-0.01-0.9-0.021-1.35-0.031c-0.455,5.287-0.91,10.574-1.365,15.861
		c-0.572-0.02-1.145-0.039-1.717-0.06c-0.391-5.125-0.782-10.251-1.173-15.377c-0.4-0.03-0.799-0.061-1.199-0.091
		c-0.446,5.457-0.892,10.914-1.338,16.371c-0.656-0.019-1.312-0.037-1.968-0.056c-0.271-5.457-0.542-10.915-0.812-16.373
		c-0.403-0.033-0.806-0.065-1.208-0.101c-0.201,2.606-0.401,5.211-0.604,7.817c-0.194,2.5-0.39,5.001-1,7.452
		C169.843,37.444,169.839,8.09,173.224,0.104z"/>
	<path fill-rule="evenodd" clip-rule="evenodd" fill="#006837" d="M21.164,28.021c-0.435,5.406-0.869,10.813-1.302,16.219
		c-0.654-0.017-1.309-0.033-1.963-0.05c-0.287-5.555-0.574-11.11-0.86-16.665c-0.481,0-0.963,0-1.444,0
		c-0.208,2.705-0.382,5.414-0.632,8.115c-0.24,2.602,0.479,5.436-1.028,7.747c-0.455-0.023-0.909-0.048-1.364-0.072
		c-0.392-5.142-0.785-10.284-1.177-15.428c-0.385-0.025-0.77-0.051-1.154-0.075C9.768,33.284,9.296,38.758,8.825,44.23
		c-0.645-0.028-1.289-0.057-1.934-0.086c-0.274-5.449-0.547-10.899-0.821-16.349c-0.414-0.026-0.828-0.051-1.242-0.078
		C4.449,32.827,4.07,37.937,3.691,43.046c-3.878-6.18-3.771-35.459-0.484-42.642c2.911,4.994,0.348,10.327,2.995,14.864
		c0.366-4.859,0.732-9.718,1.099-14.576c0.605-0.002,1.21-0.004,1.815-0.006c0.387,5.028,0.774,10.057,1.162,15.086
		c0.365-0.01,0.73-0.021,1.095-0.03c0.419-5.048,0.838-10.094,1.256-15.141c0.56-0.004,1.12-0.008,1.679-0.011
		c0.558,5.04,1.115,10.082,1.673,15.122c0.357,0.017,0.715,0.033,1.072,0.05c0.439-5.033,0.877-10.064,1.316-15.097
		c0.582,0.008,1.163,0.016,1.744,0.023c0.388,5.026,0.776,10.054,1.165,15.082c0.364-0.011,0.729-0.021,1.093-0.032
		c0.419-5.047,0.839-10.093,1.259-15.139c0.559-0.003,1.119-0.005,1.678-0.008c0.557,5.039,1.114,10.078,1.671,15.118
		c0.358,0.014,0.716,0.027,1.073,0.04c0.438-5.02,0.875-10.041,1.313-15.061c0.583,0,1.165,0.001,1.747,0.001
		c0.389,5.025,0.777,10.052,1.166,15.078c0.364-0.011,0.728-0.021,1.091-0.032C33.79,10.69,34.21,5.646,34.63,0.6
		c0.562-0.002,1.123-0.004,1.684-0.006c0.553,5.095,1.106,10.19,1.659,15.286c0.349,0.019,0.697,0.036,1.045,0.055
		C39.374,10.915,39.73,5.897,40.149,0c4.368,5.997,4.313,38.414-0.38,43.316c-0.204-5.232-0.408-10.466-0.612-15.698
		c-0.514-0.021-1.028-0.043-1.543-0.064c-0.422,5.283-0.845,10.564-1.268,15.846c-0.583,0.002-1.166,0.005-1.749,0.007
		c-0.403-5.165-0.805-10.331-1.208-15.495c-0.393-0.004-0.787-0.007-1.18-0.01c-0.447,5.426-0.894,10.854-1.341,16.28
		c-0.652,0.001-1.305,0.001-1.957,0.002c-0.286-5.523-0.572-11.048-0.858-16.571c-0.473-0.016-0.947-0.031-1.42-0.047
		c-0.44,5.273-0.881,10.547-1.321,15.82c-0.572-0.006-1.143-0.012-1.714-0.019c-0.399-5.108-0.797-10.218-1.196-15.326
		C21.989,28.034,21.577,28.027,21.164,28.021z"/>
	<path fill-rule="evenodd" clip-rule="evenodd" fill="#006837" d="M114.438,15.593c0.366-4.967,0.731-9.934,1.097-14.899
		c0.569-0.036,1.139-0.071,1.708-0.106c0.591,5.102,1.182,10.205,1.773,15.308c0.354-0.01,0.708-0.02,1.062-0.029
		c0.304-4.942,0.609-9.885,0.945-15.342c4.534,4.63,4.55,38.394-0.208,43.465c-0.271-5.991-0.506-11.216-0.741-16.438
		c-0.478-0.012-0.956-0.023-1.433-0.035c-0.453,5.297-0.906,10.592-1.359,15.888c-0.573-0.02-1.145-0.039-1.717-0.059
		c-0.392-5.122-0.783-10.245-1.174-15.368c-0.403-0.031-0.805-0.062-1.208-0.093c-0.439,5.454-0.878,10.91-1.318,16.364
		c-0.651-0.013-1.301-0.025-1.952-0.038c-0.302-5.552-0.604-11.103-0.906-16.655c-0.469-0.006-0.938-0.01-1.407-0.016
		c-0.213,2.68-0.426,5.361-0.639,8.041c-0.206,2.596-0.41,5.191-0.615,7.787c-0.595-0.006-1.19-0.011-1.784-0.017
		c-0.391-5.131-0.781-10.263-1.171-15.396c-0.401-0.028-0.802-0.057-1.203-0.084c-0.444,5.463-0.888,10.925-1.332,16.387
		c-0.651-0.02-1.303-0.039-1.955-0.059c-0.295-5.55-0.59-11.1-0.886-16.648c-0.458-0.008-0.916-0.016-1.374-0.025
		c-0.458,5.291-0.916,10.583-1.374,15.873c-0.57-0.022-1.14-0.045-1.709-0.067c-0.389-5.128-0.779-10.257-1.168-15.386
		c-0.398-0.029-0.797-0.058-1.196-0.087c-0.448,5.46-0.896,10.92-1.345,16.38c-0.654-0.019-1.309-0.037-1.964-0.056
		c-0.271-5.456-0.542-10.913-0.812-16.369c-0.394-0.028-0.788-0.056-1.181-0.085c-0.413,5.105-0.827,10.21-1.241,15.314
		c-4.066-6.003-3.782-36.865,0.607-42.037c0.237,4.738,0.475,9.477,0.712,14.216c0.384,0.021,0.768,0.041,1.151,0.062
		c0.41-4.875,0.821-9.752,1.231-14.627c0.605-0.023,1.209-0.047,1.814-0.071c0.336,5.074,0.673,10.149,1.009,15.224
		c0.396-0.001,0.791-0.002,1.186-0.004c0.405-5.045,0.81-10.092,1.213-15.138c0.566-0.021,1.132-0.043,1.698-0.065
		c0.563,5.041,1.125,10.082,1.688,15.122c0.347,0.029,0.694,0.058,1.041,0.087c0.459-5.041,0.919-10.083,1.378-15.124
		c0.472-0.02,0.943-0.039,1.416-0.06c1.883,4.803,0.014,10.289,2.57,15.16c0.401-5.035,0.803-10.072,1.205-15.108
		c0.563-0.025,1.127-0.051,1.691-0.076c0.564,5.034,1.128,10.069,1.692,15.104c0.347,0.033,0.693,0.066,1.04,0.1
		c0.459-5.028,0.918-10.059,1.378-15.087c0.443-0.019,0.887-0.037,1.33-0.056c2.127,4.739,0.014,10.255,1.751,15.066
		C113.782,15.684,114.11,15.639,114.438,15.593z"/>
	<path fill-rule="evenodd" clip-rule="evenodd" fill="#006837" d="M471.311,15.766c0.418-5.048,0.838-10.098,1.258-15.146
		c0.557-0.008,1.111-0.017,1.668-0.024c0.561,5.04,1.121,10.081,1.682,15.122c0.359,0.022,0.719,0.044,1.076,0.066
		c0.445-5.037,0.891-10.075,1.338-15.112c0.584-0.012,1.168-0.023,1.752-0.035c0.359,5.058,0.719,10.116,1.078,15.175
		c0.381-0.002,0.762-0.004,1.143-0.007c0.418-5.062,0.834-10.124,1.25-15.186c0.568-0.009,1.135-0.017,1.705-0.024
		c0.549,5.043,1.098,10.086,1.646,15.129c0.359,0.022,0.721,0.046,1.08,0.069c0.449-5.044,0.896-10.088,1.346-15.131
		c0.592-0.021,1.182-0.043,1.771-0.065c0.348,5.075,0.695,10.15,1.041,15.226c0.387-0.003,0.775-0.006,1.164-0.008
		c0.406-5.052,0.814-10.104,1.221-15.155c0.57-0.02,1.139-0.039,1.709-0.059c0.553,5.058,1.105,10.117,1.66,15.175
		c0.342,0.027,0.686,0.055,1.027,0.082c0.361-4.96,0.721-9.922,1.123-15.461c4.221,4.783,4.455,37.078-0.178,42.924
		c-0.311-5.276-0.621-10.554-0.932-15.829c-0.459,0-0.916-0.002-1.375-0.002c-0.447,5.301-0.895,10.604-1.342,15.904
		c-0.572-0.027-1.145-0.055-1.717-0.083c-0.391-5.142-0.783-10.282-1.174-15.425c-0.387-0.024-0.773-0.05-1.16-0.074
		c-0.467,5.469-0.936,10.938-1.404,16.406c-0.652-0.019-1.307-0.037-1.961-0.057c-0.27-5.548-0.537-11.098-0.807-16.645
		c-0.363,0.006-0.727,0.012-1.09,0.02c-2.168,4.98,0.256,10.868-2.025,15.827c-0.459-0.016-0.92-0.031-1.379-0.047
		c-0.391-5.148-0.781-10.298-1.172-15.446c-0.385-0.023-0.768-0.047-1.15-0.069c-0.473,5.472-0.945,10.942-1.418,16.413
		c-0.654-0.02-1.311-0.04-1.965-0.06c-0.266-5.549-0.531-11.097-0.797-16.646c-0.367,0.008-0.734,0.016-1.102,0.021
		c-2.162,4.984,0.277,10.876-2.029,15.83c-0.457-0.016-0.914-0.032-1.369-0.049c-0.391-5.151-0.779-10.303-1.17-15.455
		c-0.381-0.022-0.76-0.045-1.141-0.067c-0.477,5.479-0.955,10.958-1.432,16.437c-0.645-0.03-1.287-0.06-1.932-0.089
		c-0.273-5.447-0.547-10.894-0.82-16.342c-0.414-0.025-0.828-0.052-1.242-0.077c-0.377,5.109-0.756,10.22-1.133,15.33
		c-0.518-0.053-1.035-0.104-1.555-0.154c-1.98-13.896-2.674-27.789,0.84-41.746c3.16,4.252,0.689,9.556,2.102,14.108
		c0.363,0.007,0.729,0.014,1.092,0.021c0.381-4.867,0.762-9.733,1.143-14.6c0.605-0.011,1.209-0.022,1.813-0.033
		c0.369,5.046,0.74,10.094,1.111,15.14C470.557,15.777,470.934,15.771,471.311,15.766z"/>
</g>
</svg>
