<?xml version="1.0" encoding="utf-8"?>
<!-- Generator: Adobe Illustrator 16.0.3, SVG Export Plug-In . SVG Version: 6.00 Build 0)  -->
<!DOCTYPE svg PUBLIC "-//W3C//DTD SVG 1.1//EN" "http://www.w3.org/Graphics/SVG/1.1/DTD/svg11.dtd">
<svg version="1.1" id="Layer_1" xmlns="http://www.w3.org/2000/svg" xmlns:xlink="http://www.w3.org/1999/xlink" x="0px" y="0px"
	 width="760px" height="133.889px" viewBox="0 0 760 133.889" enable-background="new 0 0 760 133.889" xml:space="preserve">
<line fill-rule="evenodd" clip-rule="evenodd" fill="#006837" stroke="#000000" stroke-width="2" stroke-miterlimit="10" x1="5" y1="62.293" x2="759" y2="62.293"/>
<line fill-rule="evenodd" clip-rule="evenodd" fill="#006837" stroke="#000000" stroke-width="2" stroke-miterlimit="10" x1="5" y1="54.293" x2="5" y2="67.293"/>
<line fill-rule="evenodd" clip-rule="evenodd" fill="#006837" stroke="#000000" stroke-width="2" stroke-miterlimit="10" x1="759" y1="54.293" x2="759" y2="67.293"/>
<line fill-rule="evenodd" clip-rule="evenodd" fill="#006837" stroke="#000000" stroke-width="2" stroke-miterlimit="10" x1="105" y1="55.293" x2="105" y2="68.293"/>
<line fill-rule="evenodd" clip-rule="evenodd" fill="#006837" stroke="#000000" stroke-width="2" stroke-miterlimit="10" x1="205" y1="55.293" x2="205" y2="68.293"/>
<line fill-rule="evenodd" clip-rule="evenodd" fill="#006837" stroke="#000000" stroke-width="2" stroke-miterlimit="10" x1="305" y1="54.293" x2="305" y2="67.293"/>
<line fill-rule="evenodd" clip-rule="evenodd" fill="#006837" stroke="#000000" stroke-width="2" stroke-miterlimit="10" x1="405" y1="54.293" x2="405" y2="67.293"/>
<line fill-rule="evenodd" clip-rule="evenodd" fill="#006837" stroke="#000000" stroke-width="2" stroke-miterlimit="10" x1="505" y1="55.293" x2="505" y2="68.293"/>
<line fill-rule="evenodd" clip-rule="evenodd" fill="#006837" stroke="#000000" stroke-width="2" stroke-miterlimit="10" x1="606" y1="55.293" x2="606" y2="68.293"/>
<line fill-rule="evenodd" clip-rule="evenodd" fill="#006837" stroke="#000000" stroke-width="2" stroke-miterlimit="10" x1="705" y1="55.293" x2="705" y2="68.293"/>
<text transform="matrix(1 0 0 1 100 87.2935)" font-family="'MyriadPro-Regular'" font-size="18">1</text>
<text transform="matrix(1 0 0 1 200 87.2935)" font-family="'MyriadPro-Regular'" font-size="18">2</text>
<text transform="matrix(1 0 0 1 299 87.2935)" font-family="'MyriadPro-Regular'" font-size="18">3</text>
<text transform="matrix(1 0 0 1 400 87.2935)" font-family="'MyriadPro-Regular'" font-size="18">4</text>
<text transform="matrix(1 0 0 1 500 87.2935)" font-family="'MyriadPro-Regular'" font-size="18">5</text>
<text transform="matrix(1 0 0 1 601 87.2935)" font-family="'MyriadPro-Regular'" font-size="18">6</text>
<text transform="matrix(1 0 0 1 699 87.2935)" font-family="'MyriadPro-Regular'" font-size="18">7</text>
<text transform="matrix(1 0 0 1 322 126.2935)" font-family="'HelveticaNeueLight'" font-size="36">Seconds</text>
<text transform="matrix(1 0 0 1 0 87.2935)" font-family="'MyriadPro-Regular'" font-size="18">0</text>
<path fill-rule="evenodd" clip-rule="evenodd" fill="#006837" d="M307.479,16.956c-0.43,0.068-0.859,0.137-1.289,0.205
	c-0.324-1.678-0.621-3.362-0.98-5.034c-0.328-1.53-0.725-3.048-1.09-4.572c-0.487,0.053-0.975,0.106-1.463,0.159
	c-0.349,3.579-0.698,7.159-1.047,10.738c-0.681,0.008-1.36,0.014-2.039,0.021c-0.742-3.644-1.484-7.288-2.227-10.931
	c-0.41-0.02-0.82-0.039-1.229-0.059c-0.733,3.834-1.467,7.669-2.2,11.502c-0.447-0.063-0.894-0.125-1.341-0.188
	c-0.774-3.587-1.548-7.172-2.321-10.757c-0.42,0.046-0.84,0.093-1.26,0.139c-0.691,3.304-1.382,6.61-2.073,9.915
	c-0.616-0.02-1.232-0.041-1.85-0.061c-0.731-3.281-1.464-6.563-2.196-9.845c-0.297-0.001-0.594-0.001-0.889-0.002
	c-0.904,3.053-1.807,6.106-2.71,9.16c-0.555-0.051-1.11-0.102-1.665-0.152c-0.717-3.201-1.432-6.402-2.149-9.603
	c-0.331-0.053-0.662-0.104-0.993-0.156c-0.796,3.32-1.591,6.639-2.386,9.958c-0.579-0.055-1.158-0.109-1.737-0.164
	c-0.607-2.964-1.214-5.929-1.821-8.893c-0.313,0.015-0.625,0.029-0.938,0.044c-0.959,3.226-1.919,6.453-2.877,9.677
	c-0.532-0.057-1.064-0.115-1.596-0.172c-0.775-3.1-1.55-6.2-2.325-9.301c-0.35,0.047-0.7,0.094-1.051,0.141
	c-0.595,2.578-1.189,5.157-1.784,7.736c-0.548-0.049-1.094-0.098-1.642-0.146c-0.787-2.603-1.575-5.207-2.362-7.81
	c-0.376,0.062-0.751,0.125-1.125,0.187c-0.645,2.771-1.289,5.54-1.934,8.311c-0.456-0.059-0.913-0.115-1.369-0.174
	c-0.488-2.771-0.977-5.542-1.465-8.313c-0.416-0.04-0.832-0.079-1.248-0.118c-0.65,3.157-1.3,6.314-1.95,9.47
	c-0.505-0.025-1.01-0.053-1.515-0.078c-0.652-3.042-1.306-6.083-1.958-9.123c-0.405-0.012-0.81-0.023-1.215-0.037
	c-0.805,3.445-1.61,6.891-2.415,10.335c-0.468-0.012-0.936-0.024-1.404-0.036c-0.981-3.436-1.962-6.869-3.029-10.609
	c-3.737,2.833,0.147,8.029-4.418,10.333c-0.837-3.35-1.582-6.332-2.327-9.313c-0.421,0.031-0.841,0.064-1.262,0.096
	c-0.594,2.873-1.188,5.746-1.783,8.621c-0.476,0.018-0.95,0.035-1.426,0.053c-0.874-3.102-1.748-6.203-2.621-9.305
	c-0.312,0.021-0.622,0.045-0.934,0.066c-0.815,3.236-1.631,6.473-2.447,9.711c-0.521-0.029-1.042-0.061-1.563-0.09
	c-0.837-3.225-1.675-6.446-2.512-9.67c-0.37,0.041-0.739,0.082-1.108,0.123c-0.801,2.806-1.603,5.61-2.405,8.416
	c-0.475-0.023-0.949-0.047-1.424-0.07c-0.708-2.771-1.416-5.543-2.124-8.314c-0.442,0.039-0.885,0.078-1.326,0.115
	c-0.462,2.878-0.924,5.756-1.385,8.633c-0.473,0.031-0.945,0.061-1.418,0.092c-0.744-2.947-1.487-5.895-2.231-8.842
	c-0.357,0.014-0.714,0.027-1.072,0.041c-0.59,2.878-1.18,5.757-1.77,8.635c-0.48,0.006-0.962,0.01-1.442,0.014
	c-0.711-2.962-1.422-5.924-2.133-8.887c-0.372-0.012-0.743-0.023-1.114-0.035c-0.713,2.897-1.427,5.796-2.142,8.693
	c-0.477-0.029-0.954-0.059-1.432-0.088c-0.82-2.79-1.639-5.58-2.459-8.371c-0.344,0.025-0.688,0.051-1.031,0.076
	c-0.635,2.869-1.269,5.738-1.904,8.607c-0.42,0.031-0.84,0.064-1.26,0.096c-0.925-2.691-1.85-5.381-2.774-8.072
	c-0.307,0.043-0.613,0.086-0.92,0.129c-0.641,2.393-1.282,4.785-1.924,7.178c-0.376-0.035-0.754-0.068-1.131-0.102
	c-0.917-2.278-1.835-4.557-2.752-6.834c-0.247,0.053-0.493,0.105-0.74,0.158c-0.61,2.705-1.221,5.41-1.831,8.115
	c-0.417,0.006-0.834,0.012-1.251,0.02c-1.004-2.738-2.009-5.476-3.014-8.213c-0.342,0.117-0.685,0.236-1.026,0.354
	c-0.708,2.604-1.415,5.209-2.123,7.814c-0.488,0.049-0.977,0.096-1.466,0.143c-0.962-2.883-1.925-5.766-2.888-8.648
	c-0.354,0.082-0.707,0.164-1.061,0.248c-0.714,2.382-1.429,4.765-2.144,7.148c-0.378,0.029-0.755,0.059-1.133,0.088
	c-0.961-2.309-1.921-4.616-2.882-6.924c-0.286,0.072-0.572,0.145-0.858,0.217c-0.676,2.615-1.352,5.23-2.029,7.846
	c-0.485-0.051-0.971-0.1-1.457-0.148c-0.758-2.658-1.516-5.316-2.274-7.975c-0.339,0.016-0.679,0.033-1.019,0.049
	c-0.786,2.514-1.571,5.027-2.357,7.543c-0.435-0.064-0.869-0.129-1.304-0.193c-0.775-2.541-1.55-5.079-2.325-7.619
	c-0.328-0.02-0.657-0.041-0.985-0.063c-0.843,2.717-1.685,5.434-2.527,8.15c-0.454-0.033-0.909-0.066-1.364-0.1
	c-0.666-2.607-1.331-5.216-1.997-7.824c-0.359,0.037-0.719,0.072-1.078,0.109c-0.833,2.78-1.667,5.561-2.502,8.341
	c-0.332-0.077-0.665-0.155-0.998-0.233c-0.94-2.572-1.879-5.146-2.82-7.719c-0.315,0.08-0.632,0.16-0.947,0.24
	c-0.65,2.454-1.3,4.908-1.989,7.508c-3.505-1.824-0.853-6.452-4.743-7.307c-0.64,2.832-1.22,5.398-1.8,7.967
	c-0.513,0.004-1.027,0.009-1.541,0.014c-0.936-2.924-1.872-5.846-2.808-8.77c-0.348,0.021-0.696,0.043-1.044,0.064
	c-0.653,2.666-1.307,5.332-1.96,7.998c-0.462,0.039-0.922,0.08-1.384,0.121c-1.085-2.857-2.169-5.715-3.252-8.572
	c-0.265,0.037-0.53,0.074-0.795,0.113c-0.552,2.191-1.104,4.384-1.948,7.74c-1.43-3.111-2.314-5.035-3.646-7.934
	c-1.003,3.602-1.668,5.994-2.335,8.387c-0.419-0.066-0.837-0.135-1.256-0.201c-0.819-2.182-1.64-4.362-2.835-7.547
	c-1.374,3.239-2.318,5.465-3.261,7.691c-0.344-0.061-0.687-0.121-1.03-0.182c-0.896-2.158-1.793-4.313-3.08-7.406
	c-1.135,3.688-1.869,6.074-2.604,8.462c-0.431-0.014-0.862-0.026-1.293-0.04c-0.754-2.566-1.508-5.133-2.262-7.699
	c-0.365,0.049-0.73,0.098-1.095,0.146c-0.703,2.185-1.406,4.369-2.11,6.555c-0.408,0.021-0.817,0.045-1.226,0.068
	c-0.879-2.203-1.76-4.406-2.64-6.608c-0.294,0.022-0.589,0.045-0.883,0.067c-0.804,2.435-1.606,4.867-2.41,7.301
	c-0.424-0.014-0.849-0.028-1.273-0.043c-0.938-2.529-1.876-5.06-2.815-7.591c-0.304,0.082-0.607,0.163-0.912,0.245
	c-0.767,2.204-1.533,4.408-2.299,6.611c-0.358-0.063-0.716-0.125-1.073-0.188c-0.939-2.092-1.877-4.182-2.816-6.273
	c-0.372,0.095-0.743,0.188-1.115,0.283c-0.426,2.021-0.851,4.041-1.276,6.063c-0.394,0.041-0.787,0.082-1.18,0.123
	c-0.96-2.064-1.92-4.128-2.879-6.192c-0.307,0.013-0.614,0.025-0.92,0.038c-0.541,2.354-1.083,4.707-1.624,7.06
	c-0.375,0.042-0.749,0.084-1.124,0.126c-0.918-2.363-1.838-4.729-2.757-7.093c-1.286,1.355-1.582,2.561-1.991,3.726
	c-0.411,1.166-0.935,2.293-1.409,3.436c-0.384,0.024-0.768,0.049-1.151,0.073c-0.907-2.349-1.815-4.695-3.159-8.172
	c-0.816,2.345-1.182,3.525-1.639,4.671c-0.451,1.129-0.995,2.221-1.498,3.327c-0.385,0.022-0.769,0.045-1.152,0.067
	c-0.997-2.352-1.994-4.704-3.256-7.686c-1.25,2.693-2.14,4.615-3.476,7.494c-1.338-3.033-2.155-4.887-3.281-7.438
	c-1.186,3.182-1.983,5.321-2.781,7.461c-0.365-0.04-0.731-0.081-1.097-0.122c-0.811-2.133-1.621-4.268-2.753-7.248
	c-1.434,3.05-2.45,5.207-3.465,7.365c-0.342-0.102-0.684-0.204-1.026-0.306c-0.658-2.122-1.315-4.242-1.974-6.363
	c-2.131,3.476-4.15,6.822-4.087,10.131c0.06,3.144,2.295,6.244,3.87,10.087c1.088-2.806,1.79-4.612,2.49-6.418
	c0.386,0.033,0.771,0.068,1.156,0.102c0.84,1.967,1.679,3.934,2.903,6.801c1.216-2.972,2.067-5.054,2.919-7.135
	c0.355,0.012,0.711,0.025,1.067,0.039c0.83,2.129,1.66,4.259,2.489,6.389c0.31,0.016,0.619,0.033,0.928,0.051
	c0.625-1.888,1.25-3.775,1.875-5.664c0.373-0.102,0.746-0.203,1.119-0.305c1.004,2.085,2.006,4.168,3.249,6.748
	c1.256-2.742,2.276-4.969,3.295-7.195c0.444,0.016,0.889,0.031,1.332,0.045c0.95,2.271,1.901,4.54,3.046,7.277
	c1.344-2.996,2.35-5.244,3.358-7.492c0.426,0.07,0.851,0.141,1.276,0.209c0.745,2.238,1.49,4.476,2.235,6.713
	c0.293-0.057,0.587-0.113,0.88-0.17c0.75-2.1,1.5-4.198,2.25-6.297c0.381,0.066,0.762,0.133,1.143,0.201
	c0.782,2.148,1.564,4.297,2.347,6.447c0.374-0.094,0.748-0.188,1.122-0.283c0.465-1.963,0.931-3.928,1.396-5.892
	c0.465-0.067,0.929-0.136,1.392-0.203c0.837,2.362,1.673,4.724,2.51,7.085c0.316,0.025,0.634,0.051,0.951,0.076
	c0.711-2.387,1.423-4.772,2.135-7.159c0.436,0.007,0.871,0.015,1.306,0.022c0.828,2.028,1.656,4.057,2.731,6.689
	c1.396-3.063,2.409-5.286,3.421-7.51c0.417,0.043,0.833,0.084,1.249,0.125c0.941,2.388,1.882,4.773,2.823,7.162
	c1.149-1.139,1.327-2.229,1.784-3.186c0.448-0.938,1.181-1.741,1.79-2.604c0.649,0.811,1.429,1.55,1.916,2.448
	c0.59,1.089,0.931,2.31,1.381,3.476c0.298-0.111,0.597-0.223,0.895-0.334c0.692-2.105,1.385-4.211,2.077-6.316
	c0.409,0.033,0.819,0.067,1.229,0.102c0.873,2.058,1.745,4.115,3.079,7.262c1.193-3.184,1.923-5.129,2.652-7.075
	c0.352,0.041,0.703,0.083,1.056,0.124c0.942,2.063,1.884,4.125,2.827,6.189c0.299-0.057,0.598-0.113,0.896-0.168
	c0.583-2.225,1.168-4.449,1.752-6.672c0.465-0.049,0.93-0.1,1.395-0.148c0.868,2.513,1.737,5.025,2.605,7.537
	c0.301-0.008,0.602-0.014,0.902-0.021c0.623-2.205,1.246-4.412,1.869-6.618c0.402-0.043,0.806-0.086,1.208-0.129
	c0.578,2.241,1.155,4.481,1.733,6.722c0.349-0.07,0.697-0.143,1.045-0.213c0.825-2.285,1.65-4.568,2.476-6.853
	c0.465,0.014,0.93,0.028,1.395,0.042c0.931,2.592,1.861,5.182,3.141,8.743c1.334-3.667,2.315-6.357,3.294-9.048
	c0.35,0.072,0.698,0.145,1.048,0.218c0.789,2.567,1.578,5.134,2.367,7.702c0.336,0.047,0.673,0.096,1.009,0.143
	c0.863-2.512,1.726-5.023,2.588-7.536c0.431,0.066,0.861,0.134,1.292,0.2c0.541,2.51,1.083,5.02,1.625,7.529
	c0.436,0.003,0.872,0.006,1.308,0.009c0.721-2.767,1.441-5.532,2.162-8.298c0.46,0.002,0.92,0.006,1.379,0.008
	c0.925,2.628,1.85,5.256,2.774,7.885c0.364-0.076,0.729-0.15,1.095-0.225c0.265-1.061,0.478-2.139,0.809-3.178
	c0.365-1.144,0.84-2.253,1.267-3.377c0.392,0.011,0.784,0.022,1.176,0.034c0.701,2.329,1.402,4.659,2.104,6.988
	c0.358,0.037,0.716,0.074,1.075,0.111c0.777-2.53,1.555-5.06,2.331-7.589c0.447,0,0.895,0.001,1.341,0.002
	c0.941,2.642,1.883,5.283,2.824,7.924c0.35-0.101,0.699-0.201,1.048-0.302c0.555-2.522,1.109-5.046,1.663-7.569
	c0.541-0.018,1.082-0.035,1.622-0.053c0.666,2.618,1.332,5.234,1.999,7.853c0.326,0.05,0.653,0.099,0.979,0.148
	c0.893-2.708,1.785-5.414,2.676-8.121c0.461,0.011,0.922,0.021,1.382,0.032c0.833,2.635,1.666,5.27,2.499,7.903
	c0.341,0.033,0.683,0.065,1.024,0.099c0.782-2.736,1.564-5.471,2.346-8.206c0.51,0.018,1.02,0.034,1.53,0.052
	c0.745,2.614,1.49,5.229,2.235,7.843c0.3,0.009,0.6,0.018,0.899,0.027c0.85-2.438,1.698-4.875,2.547-7.313
	c0.414,0.017,0.828,0.032,1.243,0.048c0.79,2.803,1.581,5.604,2.519,8.931c3.258-2.779-0.36-7.538,4.514-9.164
	c0.806,2.574,1.566,5.006,2.327,7.437c0.264-0.062,0.527-0.123,0.791-0.185c0.758-2.484,1.517-4.969,2.276-7.453
	c0.473,0.039,0.945,0.078,1.419,0.117c0.664,2.776,1.328,5.553,1.992,8.329c0.345-0.021,0.689-0.041,1.033-0.062
	c0.75-2.721,1.499-5.443,2.249-8.165c0.49,0.072,0.98,0.145,1.471,0.217c0.709,2.801,1.419,5.603,2.128,8.403
	c0.419-0.039,0.839-0.078,1.259-0.116c0.647-2.481,1.296-4.964,1.943-7.445c0.454,0.001,0.909,0.001,1.363,0.002
	c0.651,2.673,1.303,5.345,1.953,8.017c0.438,0.035,0.875,0.07,1.312,0.105c0.625-3.025,1.249-6.049,1.874-9.073
	c0.398,0.015,0.797,0.029,1.195,0.044c0.684,2.754,1.369,5.508,2.052,8.262c0.395-0.041,0.788-0.083,1.183-0.124
	c0.761-2.761,1.521-5.521,2.282-8.283c0.534,0.048,1.068,0.096,1.604,0.143c0.615,2.754,1.23,5.507,1.845,8.26
	c0.39-0.05,0.779-0.101,1.169-0.15c0.763-2.815,1.525-5.632,2.289-8.448c0.534,0.013,1.068,0.026,1.603,0.04
	c0.919,2.885,1.838,5.769,2.756,8.654c0.322-0.014,0.645-0.026,0.966-0.039c0.767-2.823,1.532-5.646,2.297-8.471
	c0.483-0.004,0.966-0.007,1.449-0.011c0.771,2.873,1.543,5.744,2.314,8.617c0.347-0.043,0.695-0.085,1.042-0.128
	c0.6-2.737,1.2-5.476,1.8-8.214c0.464-0.022,0.929-0.045,1.392-0.067c0.825,2.904,1.649,5.81,2.475,8.714
	c0.452-0.104,0.903-0.209,1.355-0.313c0.234-1.415,0.352-2.864,0.734-4.239c0.411-1.477,1.07-2.885,1.622-4.323
	c0.436,0.011,0.871,0.022,1.306,0.034c0.922,2.837,1.843,5.672,2.765,8.508c0.352-0.048,0.704-0.096,1.056-0.143
	c0.77-2.828,1.541-5.657,2.311-8.485c0.508,0.028,1.016,0.057,1.524,0.085c0.544,3.019,1.089,6.037,1.635,9.057
	c0.401,0.043,0.803,0.086,1.204,0.129c0.363-1.242,0.79-2.471,1.073-3.732c0.324-1.445,0.52-2.92,0.772-4.383
	c0.499-0.001,0.999-0.002,1.498-0.004c0.282,1.518,0.534,3.041,0.854,4.551c0.302,1.424,0.675,2.832,1.015,4.247
	c0.569-0.1,1.139-0.199,1.708-0.299c0.091-1.58,0.033-3.187,0.314-4.731c0.297-1.633,0.916-3.206,1.395-4.806
	c0.541,0.03,1.082,0.062,1.623,0.093c0.515,3.275,1.029,6.549,1.544,9.824c0.449,0,0.897,0.001,1.346,0.001
	c0.726-3.128,1.45-6.257,2.201-9.497c4.774,1.783,0.236,7.787,5.2,8.977c1.972-2.91-0.546-7.241,3.984-9.98
	c0.759,3.553,1.412,6.604,2.064,9.652c0.319-0.044,0.639-0.087,0.957-0.131c0.697-3.023,1.394-6.045,2.091-9.067
	c0.691,0.001,1.382,0.002,2.072,0.003c0.745,3.222,1.49,6.441,2.234,9.662c0.457-0.008,0.914-0.017,1.371-0.025
	c0.547-3.006,1.094-6.01,1.64-9.016c0.543-0.063,1.087-0.127,1.631-0.19c0.954,3.224,1.908,6.448,2.862,9.671
	c0.379-0.065,0.758-0.131,1.137-0.196c0.561-3.14,1.123-6.28,1.686-9.422c0.544,0.037,1.089,0.073,1.634,0.11
	c0.746,3.531,1.492,7.063,2.238,10.595c0.423-0.042,0.847-0.085,1.269-0.127c0.721-3.827,1.439-7.654,2.158-11.482
	c0.606-0.004,1.213-0.008,1.82-0.012c0.726,3.55,1.452,7.099,2.178,10.648c0.356-0.007,0.711-0.013,1.068-0.019
	c0.635-3.025,1.27-6.049,1.904-9.073c0.461-0.004,0.92-0.007,1.379-0.011c0.701,3.359,1.401,6.72,2.103,10.081
	c0.47-0.039,0.94-0.079,1.411-0.118c0.401-2.75,0.803-5.5,1.205-8.251c0.469-0.053,0.938-0.105,1.406-0.157
	c0.775,2.561,1.551,5.123,2.326,7.686c0.331-0.017,0.662-0.033,0.994-0.05c0.928-3.386,1.856-6.773,2.783-10.16
	c0.666,0.056,1.33,0.112,1.994,0.169c0.535,3.457,1.072,6.912,1.608,10.369c0.466,0.012,0.932,0.023,1.397,0.035
	c0.687-3.353,1.373-6.703,2.059-10.056c0.58,0.05,1.16,0.1,1.742,0.148c0.354,1.695,0.781,3.38,1.039,5.089
	c0.242,1.594,0.303,3.215,0.443,4.824c0.467,0.013,0.934,0.025,1.401,0.038c0.662-3.519,1.324-7.038,1.986-10.557
	c0.584,0.039,1.168,0.078,1.752,0.117c0.671,3.663,1.341,7.326,2.011,10.989c0.447,0.014,0.893,0.026,1.34,0.039
	c0.749-3.753,1.498-7.506,2.248-11.259c0.541,0.019,1.083,0.038,1.624,0.057c0.858,3.556,1.718,7.112,2.577,10.669
	c0.482-0.044,0.965-0.088,1.445-0.132c0.559-3.082,1.116-6.163,1.738-9.6c4.895,2.706,1.699,7.903,5.051,10.985
	c0.527-3.401,1.055-6.803,1.581-10.203c0.55-0.033,1.1-0.067,1.649-0.101c0.54,3.532,1.08,7.063,1.62,10.595
	c0.353-0.02,0.704-0.041,1.058-0.063c0.816-3.773,1.635-7.547,2.451-11.319c0.559,0.024,1.117,0.05,1.677,0.074
	c0.6,3.466,1.199,6.931,1.799,10.396c0.373-0.02,0.747-0.039,1.121-0.059c0.626-3.448,1.252-6.896,1.877-10.344
	c0.537,0.016,1.075,0.032,1.613,0.049c0.81,3.521,1.62,7.043,2.431,10.564c0.458,0.002,0.916,0.006,1.373,0.008
	c0.554-3.249,1.107-6.498,1.66-9.747c0.517-0.038,1.031-0.076,1.547-0.113c0.495,1.911,1.337,3.812,1.412,5.74
	c0.158,4.069-0.007,4.077,2.269,4.71c1.509-3.528-0.573-8.094,3.72-12.233c0.786,4.599,1.385,8.097,1.983,11.595
	c0.427-0.021,0.854-0.041,1.28-0.063c0.62-3.369,1.24-6.738,1.861-10.107c0.547-0.014,1.094-0.028,1.64-0.043
	c0.641,3.4,1.279,6.802,1.92,10.203c0.438-0.012,0.876-0.025,1.313-0.037c0.791-3.396,1.581-6.791,2.372-10.188
	c0.489,0.03,0.979,0.06,1.468,0.09c0.752,3.355,1.504,6.71,2.255,10.064c0.343,0.018,0.686,0.035,1.028,0.051
	c0.596-3.221,1.191-6.441,1.787-9.663c0.596,0.036,1.191,0.073,1.786,0.109c0.459,3.29,0.918,6.578,1.377,9.868
	c0.536,0,1.072,0,1.606,0c0.545-3.839,1.089-7.678,1.634-11.517c0.422,0.008,0.843,0.017,1.265,0.024
	c0.793,4.07,1.586,8.14,2.379,12.209c0.38-0.055,0.759-0.107,1.139-0.162c0.735-3.706,1.471-7.412,2.206-11.117
	c0.515,0.004,1.029,0.009,1.545,0.014c0.902,3.645,1.806,7.29,2.708,10.936c0.425-0.01,0.85-0.02,1.274-0.029
	c0.633-3.369,1.265-6.74,1.896-10.109c0.54-0.058,1.081-0.114,1.621-0.172c0.918,3.582,1.836,7.163,2.754,10.746
	c0.402-0.059,0.806-0.115,1.208-0.172c0.644-3.605,1.287-7.211,1.93-10.815c0.657,0.031,1.313,0.063,1.971,0.095
	c0.586,3.477,1.172,6.952,1.759,10.428c0.415-0.012,0.831-0.023,1.246-0.035c0.647-3.171,1.294-6.342,1.94-9.514
	c0.472-0.034,0.942-0.068,1.414-0.103c0.795,3.706,1.59,7.412,2.385,11.118c0.436-0.025,0.872-0.053,1.308-0.08
	c0.51-3.795,1.019-7.59,1.527-11.386c0.652,0.012,1.305,0.023,1.956,0.035c0.443,3.753,0.887,7.508,1.329,11.263
	c0.503-0.012,1.005-0.023,1.507-0.037c0.706-4.082,1.413-8.164,2.12-12.247c0.518,0.063,1.035,0.127,1.553,0.19
	c0.604,3.893,1.206,7.786,1.809,11.68c0.502,0.012,1.004,0.025,1.505,0.039c0.644-4.057,1.286-8.113,1.93-12.169
	c0.564,0.002,1.13,0.005,1.694,0.007c0.637,4.15,1.272,8.301,1.909,12.451c0.509-0.002,1.019-0.006,1.528-0.008
	c0.47-3.678,0.939-7.355,1.409-11.032c0.492-0.042,0.984-0.084,1.477-0.126c0.883,3.9,1.767,7.801,2.649,11.701
	c0.337,0,0.674,0,1.011,0c0.59-4.003,1.181-8.006,1.886-12.782c5.084,3.706,1.199,9.052,4.73,12.843
	c0.874-4.438,1.626-8.266,2.38-12.093c0.648-0.006,1.297-0.012,1.946-0.019c0.65,3.957,1.301,7.913,2.08,12.654
	c3.346-4.142,0.155-9.609,5.346-13.516c0.547,4.795,0.99,8.687,1.435,12.578c0.425-0.008,0.851-0.016,1.276-0.025
	c0.836-3.915,1.673-7.832,2.509-11.747c0.552,0.058,1.104,0.114,1.654,0.172c0.482,3.808,0.964,7.616,1.445,11.425
	c0.479-0.018,0.958-0.035,1.438-0.053c0.603-3.652,1.205-7.305,1.808-10.956c0.554-0.006,1.108-0.011,1.661-0.016
	c0.757,4.14,1.514,8.279,2.271,12.419c0.406,0.01,0.813,0.018,1.219,0.027c0.618-3.952,1.236-7.904,1.921-12.275
	c5.237,3.309,0.333,9.342,4.829,12.613c1.917-4.351-0.192-9.307,4.523-12.991c0.595,4.792,1.093,8.792,1.59,12.792
	c0.541-0.01,1.082-0.021,1.622-0.031c0.516-4.604,1.031-9.207,1.546-13.811c0.571-0.004,1.143-0.008,1.713-0.012
	c0.642,4.447,1.283,8.894,1.925,13.34c0.392-0.033,0.784-0.066,1.177-0.102c0.938-4.288,1.875-8.576,2.813-12.866
	c0.513,0.035,1.025,0.07,1.538,0.105c0.581,4.347,1.162,8.694,1.743,13.04c0.522-0.012,1.044-0.025,1.566-0.039
	c0.571-4.11,1.143-8.221,1.714-12.331c0.561,0.008,1.121,0.016,1.682,0.023c0.687,4.101,1.372,8.203,2.059,12.306
	c0.434,0,0.868,0,1.301,0c1.377-4.069-0.336-9.201,4.453-13.538c0.597,5.253,1.073,9.44,1.549,13.628
	c0.45,0.068,0.9,0.137,1.351,0.205c0.694-3.728,1.388-7.456,2.082-11.184c0.564,0.057,1.129,0.113,1.694,0.17
	c0.271,1.887,0.51,3.777,0.822,5.657c0.274,1.649,0.632,3.284,0.952,4.927c0.461-0.074,0.922-0.146,1.383-0.221
	c1.56-3.545-0.606-8.09,2.42-11.441c3.726,3.494-0.213,9.088,4.179,13.277c0.304-3.283,0.422-5.415,0.719-7.522
	c0.306-2.175,0.786-4.327,1.212-6.606c5.061,3.342-0.906,9.518,4.444,12.709c2.213-4.21-0.955-9.393,3.298-13.908
	c0.651,3.426,1.015,5.848,1.59,8.216c0.487,2.004-1.578,5.017,2.393,6.137c0.569-4.253,1.1-8.21,1.63-12.166
	c0.537-0.038,1.075-0.077,1.612-0.116c0.354,2.131,0.815,4.25,1.034,6.394c0.225,2.202,0.213,4.427,0.305,6.642
	c0.497,0.001,0.994,0.002,1.491,0.003c1.904-4.438-0.278-10.087,4.285-15.104c0.657,5.863,1.188,10.605,1.719,15.348
	c0.536-0.034,1.072-0.068,1.608-0.103c0.537-4.56,1.074-9.118,1.683-14.286c5.696,3.811,1.585,9.822,5.627,13.479
	c0.643-3.992,1.286-7.985,1.929-11.978c0.699-0.018,1.397-0.036,2.097-0.055c0.752,4.193,1.504,8.387,2.257,12.581
	c0.466-0.039,0.932-0.079,1.396-0.118c0.276-2.199,0.56-4.399,0.826-6.601c0.262-2.155-0.388-4.714,3.118-6.126
	c0.577,4.839,1.108,9.289,1.64,13.741c0.553-0.038,1.105-0.076,1.658-0.114c0.24-2.211,0.432-4.43,0.733-6.632
	c0.31-2.263,0.726-4.511,1.096-6.764c0.442,0.035,0.885,0.071,1.327,0.106c0.702,4.223,1.405,8.445,2.107,12.669
	c0.489-0.012,0.979-0.024,1.469-0.036c0.463-4.055,0.927-8.107,1.389-12.162c0.477,0.033,0.953,0.066,1.43,0.1
	c0.638,4.013,1.275,8.025,1.912,12.037c4.258-6.486,4.496-37.08,0.872-42.944c-3.216,4.805-0.097,11.108-4.417,15.254
	c-0.287-4.615-0.574-9.231-0.861-13.847c-0.587-0.031-1.174-0.063-1.76-0.094c-0.624,4.583-1.247,9.167-1.87,13.751
	c-0.651-0.016-1.304-0.031-1.955-0.045c-0.607-4.766-1.214-9.53-1.821-14.295c-0.571,0.033-1.144,0.067-1.715,0.101
	c-0.144,2.511-0.224,5.028-0.447,7.53c-0.215,2.415,0.446,5.239-3.187,7.315c-0.735-5.324-1.373-9.937-2.009-14.548
	c-0.419,0.046-0.839,0.092-1.258,0.138c-1.548,4.655,1.01,10.254-3.362,15.293c-0.741-3.104-1.229-5.458-1.874-7.768
	c-0.646-2.312,1.222-5.307-2.75-7.767c-0.135,3.234-0.118,5.731-0.375,8.199c-0.258,2.482-0.786,4.936-1.196,7.402
	c-0.622,0-1.244,0-1.866,0.002c-0.73-5.061-1.462-10.119-2.193-15.179c-0.39,0.034-0.779,0.067-1.169,0.102
	c-0.744,5.06-1.487,10.12-2.231,15.179c-0.605-0.029-1.21-0.059-1.815-0.088c-0.615-4.966-1.23-9.932-1.846-14.897
	c-0.462,0.035-0.924,0.07-1.384,0.105c-0.426,4.339-0.852,8.678-1.277,13.016c-4.792-3.704-1.06-9.547-4.914-14.024
	c-2.389,5.033,0.952,10.661-4.254,15.229c-0.636-5.453-1.15-9.874-1.665-14.295c-0.487,0.004-0.975,0.007-1.461,0.011
	c-0.68,4.632-1.359,9.264-2.038,13.898c-0.584-0.029-1.168-0.059-1.753-0.086c-0.487-4.476-0.975-8.95-1.462-13.425
	c-0.549,0.024-1.098,0.05-1.646,0.075c-0.171,1.99-0.292,3.987-0.525,5.97c-0.256,2.173-0.614,4.335-0.929,6.502
	c-0.559,0.014-1.116,0.026-1.675,0.039c-0.505-4.19-1.011-8.381-1.517-12.571c-0.555,0.025-1.109,0.051-1.664,0.076
	c-0.228,2.189-0.432,4.381-0.688,6.566c-0.268,2.281-0.586,4.557-0.882,6.834c-0.638-0.014-1.275-0.029-1.913-0.045
	c-0.551-4.622-1.1-9.243-1.65-13.866c-0.472,0.018-0.943,0.034-1.415,0.051c-0.692,4.792-1.386,9.582-2.078,14.372
	c-0.688,0.023-1.377,0.045-2.065,0.066c-0.835-4.564-1.668-9.128-2.503-13.693c-0.449,0.027-0.899,0.055-1.35,0.081
	c-0.445,4.714-0.892,9.427-1.337,14.141c-0.622,0.014-1.243,0.029-1.864,0.043c-0.771-4.672-1.541-9.343-2.312-14.015
	c-0.359,0.073-0.718,0.146-1.077,0.22c-0.716,4.083-1.432,8.166-2.271,12.952c-4.802-3.86-0.894-10.03-5.648-13.641
	c-0.896,4.492,0.685,8.615-2.824,12.723c-0.836-4.723-1.498-8.468-2.16-12.214c-0.341,0.089-0.682,0.177-1.022,0.265
	c-0.771,4.164-1.54,8.327-2.311,12.49c-0.628-0.029-1.256-0.059-1.884-0.086c-0.618-3.972-1.236-7.943-1.854-11.914
	c-0.46,0.031-0.92,0.063-1.38,0.093c-0.171,2.194-0.2,4.411-0.553,6.575c-0.341,2.088-1.015,4.122-1.541,6.18
	c-0.407-0.035-0.814-0.072-1.222-0.107c-0.729-4.408-1.459-8.816-2.188-13.225c-0.452,0.059-0.904,0.117-1.356,0.176
	c-0.285,2.247-0.485,4.508-0.878,6.736c-0.395,2.242-0.98,4.45-1.481,6.674c-0.556-0.076-1.111-0.152-1.666-0.229
	c-0.559-4.365-1.117-8.731-1.675-13.096c-0.44-0.008-0.88-0.015-1.32-0.022c-0.723,4.558-1.446,9.115-2.169,13.673
	c-0.615-0.031-1.23-0.061-1.845-0.092c-0.52-4.324-1.039-8.649-1.559-12.973c-0.479,0.008-0.958,0.017-1.437,0.024
	c-0.195,2.166-0.253,4.355-0.624,6.489c-0.362,2.075-1.046,4.095-1.588,6.137c-0.459-0.033-0.919-0.068-1.378-0.102
	c-0.363-2.194-0.724-4.389-1.092-6.58c-0.34-2.024-0.688-4.045-1.032-6.067c-0.468,0.049-0.936,0.097-1.402,0.146
	c-0.675,4.52-1.349,9.039-2.023,13.559c-0.544-0.01-1.089-0.021-1.634-0.031c-0.773-4.509-1.547-9.017-2.32-13.525
	c-0.428,0.07-0.855,0.142-1.283,0.212c-2.256,3.475,1.179,8.565-3.484,12.37c-0.636-4.676-1.166-8.581-1.697-12.484
	c-0.398-0.029-0.799-0.058-1.199-0.086c-0.754,3.762-1.509,7.523-2.264,11.285c-0.493-0.023-0.986-0.047-1.479-0.07
	c-0.66-3.573-1.32-7.146-1.98-10.72c-0.456,0.039-0.913,0.077-1.368,0.115c-0.304,2.048-0.482,4.124-0.947,6.136
	c-0.431,1.864,1.448,4.803-2.686,5.586c-0.662-4.09-1.286-7.937-1.909-11.785c-0.429,0.02-0.857,0.039-1.285,0.059
	c-0.685,3.749-1.37,7.496-2.055,11.244c-0.585-0.031-1.17-0.063-1.755-0.094c-0.679-3.933-1.356-7.865-2.035-11.797
	c-0.387-0.041-0.773-0.082-1.159-0.122c-0.633,3.74-1.266,7.479-1.896,11.218c-0.578-0.004-1.156-0.01-1.734-0.014
	c-0.437-3.605-0.873-7.21-1.31-10.815c-0.444-0.007-0.889-0.013-1.333-0.02c-0.711,4.091-1.422,8.183-2.133,12.274
	c-0.519-0.031-1.036-0.061-1.554-0.09c-0.743-3.851-1.485-7.703-2.229-11.554c-0.444,0.019-0.889,0.036-1.332,0.054
	c-0.565,3.805-1.13,7.61-1.695,11.416c-0.62,0.02-1.241,0.037-1.861,0.057c-0.376-1.934-0.841-3.855-1.104-5.805
	c-0.271-1.996-0.346-4.021-0.506-6.032c-0.475-0.049-0.949-0.098-1.424-0.146c-0.874,4.192-1.748,8.385-2.789,13.378
	c-4.127-4.126-1.096-9.341-4.991-13.228c-0.59,4.724-1.057,8.467-1.657,13.278c-4.609-4.244-2.419-9.39-5.697-13.135
	c-0.876,4.186-1.751,8.372-2.626,12.559c-0.38-0.039-0.759-0.076-1.138-0.115c-0.514-3.85-1.028-7.699-1.542-11.549
	c-0.574,0.021-1.148,0.04-1.724,0.06c-0.282,3.706-0.563,7.412-0.894,11.749c-4.681-2.957-1.315-8.836-5.096-12.231
	c-0.597,4.478-1.111,8.326-1.625,12.175c-0.72,0.018-1.439,0.033-2.158,0.049c-0.718-3.962-1.435-7.924-2.151-11.886
	c-0.422-0.036-0.843-0.071-1.264-0.107c-0.615,3.517-1.229,7.032-1.845,10.548c-0.461-0.01-0.922-0.02-1.383-0.031
	c-0.789-3.51-1.578-7.021-2.368-10.531c-0.342,0.001-0.683,0.003-1.024,0.004c-0.645,3.813-1.289,7.624-1.934,11.436
	c-0.532,0.002-1.066,0.002-1.601,0.002c-0.876-3.45-1.752-6.902-2.628-10.354c-0.268,0.016-0.536,0.031-0.804,0.046
	c-0.834,3.909-1.668,7.816-2.502,11.724c-0.55-0.063-1.1-0.125-1.65-0.188c-0.575-3.851-1.15-7.701-1.727-11.551
	c-0.362,0.013-0.726,0.025-1.089,0.038c-0.986,3.884-1.973,7.767-2.959,11.649c-0.421-0.072-0.842-0.145-1.262-0.219
	c-0.578-3.992-1.155-7.986-1.732-11.979c-0.503,0.034-1.006,0.067-1.508,0.102c-0.52,3.93-1.039,7.859-1.558,11.789
	c-0.552,0.002-1.103,0.002-1.655,0.004c-0.746-3.794-1.492-7.588-2.24-11.382c-0.385-0.009-0.771-0.018-1.157-0.026
	c-0.459,3.217-0.918,6.434-1.377,9.65c-0.555-0.02-1.109-0.039-1.664-0.061c-0.677-3.318-1.354-6.639-2.177-10.663
	c-3.802,3.7-0.186,9.004-4.998,12.046c-0.665-3.834-1.23-7.105-1.854-10.695c-4.09,2.625-0.291,8.359-5.437,10.547
	c-0.873-3.986-1.664-7.596-2.454-11.203c-0.316,0.043-0.633,0.085-0.949,0.128c-0.811,3.763-1.621,7.524-2.431,11.286
	c-0.536-0.059-1.073-0.117-1.61-0.176c-0.577-3.496-1.153-6.992-1.73-10.487c-0.377,0.026-0.754,0.053-1.131,0.08
	c-0.791,3.329-1.58,6.659-2.369,9.989c-0.459-0.014-0.916-0.027-1.374-0.039c-0.769-3.146-1.537-6.291-2.539-10.395
	c-2.702,3.928,0.445,8.768-4.071,10.928c-2.655-2.876-0.663-7.729-4.58-10.084c-1.412,7.928-1.412,7.928-3.479,9.366
	c-0.423-3.125-0.826-6.107-1.229-9.091c-0.457-0.044-0.914-0.089-1.371-0.133C308.948,10.627,308.214,13.792,307.479,16.956z"/>
<path fill-rule="evenodd" clip-rule="evenodd" fill="#006837" d="M307.479,16.956c0.734-3.164,1.469-6.328,2.202-9.494
	c0.457,0.044,0.914,0.089,1.371,0.133c0.403,2.984,0.807,5.966,1.229,9.091c2.066-1.438,2.066-1.438,3.479-9.366
	c3.917,2.356,1.925,7.208,4.58,10.084c4.517-2.16,1.369-7,4.071-10.928c1.002,4.104,1.771,7.248,2.539,10.395
	c0.458,0.012,0.915,0.025,1.374,0.039c0.789-3.33,1.578-6.66,2.369-9.989c0.377-0.027,0.754-0.054,1.131-0.08
	c0.577,3.495,1.153,6.991,1.73,10.487c0.537,0.059,1.074,0.117,1.61,0.176c0.81-3.762,1.62-7.523,2.431-11.286
	c0.316-0.043,0.633-0.085,0.949-0.128c0.79,3.607,1.581,7.217,2.454,11.203c5.146-2.188,1.347-7.922,5.437-10.547
	c0.623,3.59,1.188,6.861,1.854,10.695c4.813-3.042,1.196-8.346,4.998-12.046c0.822,4.024,1.5,7.345,2.177,10.663
	c0.555,0.021,1.109,0.041,1.664,0.061c0.459-3.217,0.918-6.434,1.377-9.65c0.386,0.009,0.772,0.018,1.157,0.026
	c0.748,3.794,1.494,7.588,2.24,11.382c0.553-0.002,1.104-0.002,1.655-0.004c0.519-3.93,1.038-7.859,1.558-11.789
	c0.502-0.034,1.005-0.067,1.508-0.102c0.577,3.992,1.154,7.986,1.732,11.979c0.42,0.074,0.841,0.146,1.262,0.219
	c0.986-3.883,1.973-7.766,2.959-11.649c0.363-0.013,0.727-0.025,1.089-0.038c0.576,3.85,1.151,7.7,1.727,11.551
	c0.551,0.063,1.101,0.125,1.65,0.188c0.834-3.907,1.668-7.814,2.502-11.724c0.268-0.015,0.536-0.03,0.804-0.046
	c0.876,3.451,1.752,6.903,2.628,10.354c0.534,0,1.068,0,1.601-0.002c0.645-3.812,1.289-7.623,1.934-11.436
	c0.342-0.001,0.683-0.003,1.024-0.004c0.79,3.51,1.579,7.021,2.368,10.531c0.461,0.012,0.922,0.021,1.383,0.031
	c0.615-3.516,1.229-7.031,1.845-10.548c0.421,0.036,0.842,0.071,1.264,0.107c0.717,3.962,1.434,7.924,2.151,11.886
	c0.719-0.016,1.438-0.031,2.158-0.049c0.514-3.849,1.028-7.697,1.625-12.175c3.78,3.395,0.415,9.274,5.096,12.231
	c0.33-4.337,0.611-8.043,0.894-11.749c0.575-0.02,1.149-0.039,1.724-0.06c0.514,3.85,1.028,7.699,1.542,11.549
	c0.379,0.039,0.758,0.076,1.138,0.115c0.875-4.187,1.75-8.373,2.626-12.559c3.278,3.745,1.088,8.891,5.697,13.135
	c0.601-4.812,1.067-8.555,1.657-13.278c3.896,3.886,0.864,9.102,4.991,13.228c1.041-4.993,1.915-9.186,2.789-13.378
	c0.475,0.049,0.949,0.098,1.424,0.146c0.16,2.012,0.235,4.036,0.506,6.032c0.264,1.949,0.729,3.871,1.104,5.805
	c0.62-0.02,1.241-0.037,1.861-0.057c0.565-3.806,1.13-7.611,1.695-11.416c0.443-0.018,0.888-0.035,1.332-0.054
	c0.743,3.851,1.485,7.703,2.229,11.554c0.518,0.029,1.035,0.059,1.554,0.09c0.711-4.092,1.422-8.183,2.133-12.274
	c0.444,0.007,0.889,0.013,1.333,0.02c0.437,3.605,0.873,7.21,1.31,10.815c0.578,0.004,1.156,0.01,1.734,0.014
	c0.631-3.739,1.264-7.478,1.896-11.218c0.386,0.04,0.772,0.081,1.159,0.122c0.679,3.932,1.356,7.864,2.035,11.797
	c0.585,0.031,1.17,0.063,1.755,0.094c0.685-3.748,1.37-7.496,2.055-11.244c0.428-0.02,0.856-0.039,1.285-0.059
	c0.623,3.848,1.247,7.695,1.909,11.785c4.134-0.783,2.255-3.722,2.686-5.586c0.465-2.012,0.644-4.088,0.947-6.136
	c0.455-0.038,0.912-0.076,1.368-0.115c0.66,3.574,1.32,7.146,1.98,10.72c0.493,0.023,0.986,0.047,1.479,0.07
	c0.755-3.762,1.51-7.523,2.264-11.285c0.4,0.028,0.801,0.057,1.199,0.086c0.531,3.904,1.062,7.809,1.697,12.484
	c4.663-3.805,1.229-8.895,3.484-12.37c0.428-0.07,0.855-0.142,1.283-0.212c0.773,4.508,1.547,9.017,2.32,13.525
	c0.545,0.01,1.09,0.021,1.634,0.031c0.675-4.52,1.349-9.039,2.023-13.559c0.467-0.049,0.935-0.097,1.402-0.146
	c0.345,2.022,0.692,4.043,1.032,6.067c0.368,2.191,0.729,4.386,1.092,6.58c0.459,0.033,0.919,0.068,1.378,0.102
	c0.542-2.042,1.226-4.062,1.588-6.137c0.371-2.134,0.429-4.323,0.624-6.489c0.479-0.008,0.958-0.017,1.437-0.024
	c0.52,4.324,1.039,8.648,1.559,12.973c0.614,0.031,1.229,0.061,1.845,0.092c0.723-4.558,1.446-9.115,2.169-13.673
	c0.44,0.008,0.88,0.015,1.32,0.022c0.558,4.365,1.116,8.73,1.675,13.096c0.555,0.076,1.11,0.152,1.666,0.229
	c0.501-2.224,1.087-4.432,1.481-6.674c0.393-2.228,0.593-4.489,0.878-6.736c0.452-0.059,0.904-0.117,1.356-0.176
	c0.729,4.409,1.459,8.816,2.188,13.225c0.407,0.035,0.814,0.072,1.222,0.107c0.526-2.058,1.2-4.092,1.541-6.18
	c0.353-2.165,0.382-4.381,0.553-6.575c0.46-0.03,0.92-0.062,1.38-0.093c0.618,3.971,1.236,7.942,1.854,11.914
	c0.628,0.027,1.256,0.057,1.884,0.086c0.771-4.163,1.54-8.327,2.311-12.49c0.341-0.088,0.682-0.176,1.022-0.265
	c0.662,3.747,1.324,7.492,2.16,12.214c3.509-4.108,1.929-8.231,2.824-12.723c4.755,3.611,0.847,9.781,5.648,13.641
	c0.84-4.786,1.556-8.869,2.271-12.952c0.359-0.073,0.718-0.146,1.077-0.22c0.771,4.672,1.541,9.343,2.312,14.015
	c0.621-0.014,1.242-0.029,1.864-0.043c0.445-4.714,0.892-9.427,1.337-14.141c0.45-0.026,0.9-0.054,1.35-0.081
	c0.835,4.564,1.668,9.128,2.503,13.693c0.688-0.021,1.377-0.043,2.065-0.066c0.692-4.79,1.386-9.58,2.078-14.372
	c0.472-0.017,0.943-0.033,1.415-0.051c0.551,4.623,1.1,9.244,1.65,13.866c0.638,0.016,1.275,0.031,1.913,0.045
	c0.296-2.277,0.614-4.553,0.882-6.834c0.257-2.185,0.461-4.377,0.688-6.566c0.555-0.025,1.109-0.051,1.664-0.076
	c0.506,4.19,1.012,8.38,1.517,12.571c0.559-0.013,1.116-0.025,1.675-0.039c0.314-2.167,0.673-4.329,0.929-6.502
	c0.233-1.983,0.354-3.98,0.525-5.97c0.549-0.025,1.098-0.051,1.646-0.075c0.487,4.475,0.975,8.95,1.462,13.425
	c0.585,0.027,1.169,0.057,1.753,0.086c0.679-4.634,1.358-9.266,2.038-13.898c0.486-0.004,0.974-0.007,1.461-0.011
	c0.515,4.421,1.029,8.842,1.665,14.295c5.206-4.568,1.865-10.196,4.254-15.229c3.854,4.477,0.122,10.32,4.914,14.024
	c0.426-4.338,0.852-8.677,1.277-13.016c0.46-0.035,0.922-0.07,1.384-0.105c0.615,4.965,1.23,9.931,1.846,14.897
	c0.605,0.029,1.21,0.059,1.815,0.088c0.744-5.06,1.487-10.119,2.231-15.179c0.39-0.034,0.779-0.067,1.169-0.102
	c0.731,5.06,1.463,10.119,2.193,15.179c0.622-0.002,1.244-0.002,1.866-0.002c0.41-2.467,0.938-4.92,1.196-7.402
	c0.257-2.468,0.24-4.965,0.375-8.199c3.972,2.46,2.104,5.456,2.75,7.767c0.646,2.31,1.133,4.664,1.874,7.768
	c4.372-5.039,1.814-10.639,3.362-15.293c0.419-0.046,0.839-0.092,1.258-0.138c0.636,4.612,1.273,9.224,2.009,14.548
	c3.633-2.076,2.972-4.9,3.187-7.315c0.224-2.502,0.304-5.019,0.447-7.53c0.571-0.033,1.144-0.067,1.715-0.101
	c0.607,4.765,1.214,9.53,1.821,14.295c0.651,0.014,1.304,0.029,1.955,0.045c0.623-4.584,1.246-9.168,1.87-13.751
	c0.586,0.031,1.173,0.063,1.76,0.094c0.287,4.616,0.574,9.232,0.861,13.847c4.32-4.146,1.201-10.449,4.417-15.254
	c3.624,5.864,3.386,36.458-0.872,42.944c-0.637-4.012-1.274-8.024-1.912-12.037c-0.477-0.033-0.953-0.066-1.43-0.1
	c-0.462,4.055-0.926,8.107-1.389,12.162c-0.49,0.012-0.979,0.024-1.469,0.036c-0.702-4.224-1.405-8.446-2.107-12.669
	c-0.442-0.035-0.885-0.071-1.327-0.106c-0.37,2.253-0.786,4.501-1.096,6.764c-0.302,2.202-0.493,4.421-0.733,6.632
	c-0.553,0.038-1.105,0.076-1.658,0.114c-0.531-4.452-1.063-8.902-1.64-13.741c-3.506,1.412-2.856,3.971-3.118,6.126
	c-0.267,2.201-0.55,4.401-0.826,6.601c-0.465,0.039-0.931,0.079-1.396,0.118c-0.753-4.194-1.505-8.388-2.257-12.581
	c-0.699,0.019-1.397,0.037-2.097,0.055c-0.643,3.992-1.286,7.985-1.929,11.978c-4.042-3.657,0.069-9.669-5.627-13.479
	c-0.608,5.168-1.146,9.727-1.683,14.286c-0.536,0.034-1.072,0.068-1.608,0.103c-0.531-4.742-1.062-9.484-1.719-15.348
	c-4.563,5.018-2.381,10.666-4.285,15.104c-0.497-0.001-0.994-0.002-1.491-0.003c-0.092-2.215-0.08-4.439-0.305-6.642
	c-0.219-2.144-0.68-4.263-1.034-6.394c-0.537,0.039-1.075,0.078-1.612,0.116c-0.53,3.956-1.061,7.913-1.63,12.166
	c-3.971-1.12-1.905-4.133-2.393-6.137c-0.575-2.368-0.938-4.79-1.59-8.216c-4.253,4.516-1.085,9.698-3.298,13.908
	c-5.351-3.191,0.616-9.367-4.444-12.709c-0.426,2.279-0.906,4.432-1.212,6.606c-0.297,2.107-0.415,4.239-0.719,7.522
	c-4.392-4.189-0.453-9.783-4.179-13.277c-3.026,3.352-0.86,7.896-2.42,11.441c-0.461,0.074-0.922,0.146-1.383,0.221
	c-0.32-1.643-0.678-3.277-0.952-4.927c-0.313-1.88-0.552-3.771-0.822-5.657c-0.565-0.057-1.13-0.113-1.694-0.17
	c-0.694,3.728-1.388,7.456-2.082,11.184c-0.45-0.068-0.9-0.137-1.351-0.205c-0.476-4.188-0.952-8.375-1.549-13.628
	c-4.789,4.337-3.076,9.469-4.453,13.538c-0.433,0-0.867,0-1.301,0c-0.687-4.103-1.372-8.205-2.059-12.306
	c-0.561-0.008-1.121-0.016-1.682-0.023c-0.571,4.11-1.143,8.221-1.714,12.331c-0.522,0.014-1.044,0.027-1.566,0.039
	c-0.581-4.346-1.162-8.693-1.743-13.04c-0.513-0.035-1.025-0.07-1.538-0.105c-0.938,4.29-1.875,8.578-2.813,12.866
	c-0.393,0.035-0.785,0.068-1.177,0.102c-0.642-4.446-1.283-8.893-1.925-13.34c-0.57,0.004-1.142,0.008-1.713,0.012
	c-0.515,4.604-1.03,9.207-1.546,13.811c-0.54,0.01-1.081,0.021-1.622,0.031c-0.497-4-0.995-8-1.59-12.792
	c-4.716,3.685-2.606,8.641-4.523,12.991c-4.496-3.271,0.408-9.305-4.829-12.613c-0.685,4.371-1.303,8.323-1.921,12.275
	c-0.406-0.01-0.813-0.018-1.219-0.027c-0.757-4.14-1.514-8.279-2.271-12.419c-0.553,0.005-1.107,0.01-1.661,0.016
	c-0.603,3.651-1.205,7.304-1.808,10.956c-0.479,0.018-0.958,0.035-1.438,0.053c-0.481-3.809-0.963-7.617-1.445-11.425
	c-0.551-0.058-1.103-0.114-1.654-0.172c-0.836,3.915-1.673,7.832-2.509,11.747c-0.426,0.01-0.852,0.018-1.276,0.025
	c-0.444-3.892-0.888-7.783-1.435-12.578c-5.19,3.906-2,9.374-5.346,13.516c-0.779-4.741-1.43-8.697-2.08-12.654
	c-0.649,0.007-1.298,0.013-1.946,0.019c-0.754,3.827-1.506,7.654-2.38,12.093c-3.531-3.791,0.354-9.137-4.73-12.843
	c-0.705,4.776-1.296,8.779-1.886,12.782c-0.337,0-0.674,0-1.011,0c-0.883-3.9-1.767-7.801-2.649-11.701
	c-0.492,0.042-0.984,0.084-1.477,0.126c-0.47,3.677-0.939,7.354-1.409,11.032c-0.51,0.002-1.02,0.006-1.528,0.008
	c-0.637-4.15-1.272-8.301-1.909-12.451c-0.564-0.002-1.13-0.005-1.694-0.007c-0.644,4.056-1.286,8.112-1.93,12.169
	c-0.501-0.014-1.003-0.027-1.505-0.039c-0.603-3.894-1.205-7.787-1.809-11.68c-0.518-0.063-1.035-0.127-1.553-0.19
	c-0.707,4.083-1.414,8.165-2.12,12.247c-0.502,0.014-1.004,0.025-1.507,0.037c-0.442-3.755-0.886-7.51-1.329-11.263
	c-0.651-0.012-1.304-0.023-1.956-0.035c-0.509,3.796-1.018,7.591-1.527,11.386c-0.436,0.027-0.872,0.055-1.308,0.08
	c-0.795-3.706-1.59-7.412-2.385-11.118c-0.472,0.034-0.942,0.068-1.414,0.103c-0.646,3.172-1.293,6.343-1.94,9.514
	c-0.415,0.012-0.831,0.023-1.246,0.035c-0.587-3.476-1.173-6.951-1.759-10.428c-0.657-0.031-1.313-0.063-1.971-0.095
	c-0.643,3.604-1.286,7.21-1.93,10.815c-0.402,0.057-0.806,0.113-1.208,0.172c-0.918-3.583-1.836-7.164-2.754-10.746
	c-0.54,0.058-1.081,0.114-1.621,0.172c-0.632,3.369-1.264,6.74-1.896,10.109c-0.425,0.01-0.85,0.02-1.274,0.029
	c-0.902-3.646-1.806-7.291-2.708-10.936c-0.516-0.005-1.03-0.01-1.545-0.014c-0.735,3.705-1.471,7.411-2.206,11.117
	c-0.38,0.055-0.759,0.107-1.139,0.162c-0.793-4.069-1.586-8.139-2.379-12.209c-0.422-0.008-0.843-0.017-1.265-0.024
	c-0.545,3.839-1.089,7.678-1.634,11.517c-0.534,0-1.07,0-1.606,0c-0.459-3.29-0.918-6.578-1.377-9.868
	c-0.595-0.036-1.19-0.073-1.786-0.109c-0.596,3.222-1.191,6.442-1.787,9.663c-0.343-0.016-0.686-0.033-1.028-0.051
	c-0.751-3.354-1.503-6.709-2.255-10.064c-0.489-0.03-0.979-0.06-1.468-0.09c-0.791,3.396-1.581,6.792-2.372,10.188
	c-0.438,0.012-0.876,0.025-1.313,0.037c-0.641-3.401-1.279-6.803-1.92-10.203c-0.546,0.015-1.093,0.029-1.64,0.043
	c-0.621,3.369-1.241,6.738-1.861,10.107c-0.427,0.021-0.854,0.041-1.28,0.063c-0.599-3.498-1.197-6.996-1.983-11.595
	c-4.293,4.14-2.211,8.705-3.721,12.233c-2.274-0.633-2.109-0.641-2.268-4.71c-0.075-1.929-0.917-3.829-1.412-5.74
	c-0.516,0.037-1.03,0.075-1.547,0.113c-0.553,3.249-1.106,6.498-1.66,9.747c-0.457-0.002-0.915-0.006-1.373-0.008
	c-0.811-3.521-1.621-7.043-2.431-10.564c-0.538-0.017-1.076-0.033-1.613-0.049c-0.625,3.447-1.251,6.896-1.877,10.344
	c-0.374,0.02-0.748,0.039-1.121,0.059c-0.6-3.465-1.199-6.93-1.799-10.396c-0.56-0.024-1.118-0.05-1.677-0.074
	c-0.816,3.772-1.635,7.546-2.451,11.319c-0.354,0.021-0.705,0.043-1.058,0.063c-0.54-3.531-1.08-7.063-1.62-10.595
	c-0.55,0.033-1.1,0.067-1.649,0.101c-0.526,3.4-1.054,6.802-1.581,10.203c-3.352-3.082-0.156-8.279-5.051-10.985
	c-0.622,3.437-1.18,6.518-1.738,9.6c-0.48,0.044-0.963,0.088-1.445,0.132c-0.859-3.557-1.719-7.113-2.577-10.669
	c-0.541-0.019-1.083-0.038-1.624-0.057c-0.75,3.753-1.499,7.506-2.248,11.259c-0.447-0.013-0.893-0.025-1.34-0.039
	c-0.67-3.663-1.34-7.326-2.011-10.989c-0.584-0.039-1.168-0.078-1.752-0.117c-0.662,3.519-1.324,7.038-1.986,10.557
	c-0.468-0.013-0.935-0.025-1.401-0.038c-0.141-1.609-0.201-3.23-0.443-4.824c-0.258-1.709-0.686-3.394-1.039-5.089
	c-0.582-0.049-1.162-0.099-1.742-0.148c-0.686,3.353-1.372,6.703-2.059,10.056c-0.466-0.012-0.932-0.023-1.397-0.035
	c-0.536-3.457-1.073-6.912-1.608-10.369c-0.664-0.057-1.328-0.113-1.994-0.169c-0.927,3.387-1.855,6.774-2.783,10.16
	c-0.332,0.017-0.663,0.033-0.994,0.05c-0.775-2.563-1.551-5.125-2.326-7.686c-0.469,0.052-0.938,0.104-1.406,0.157
	c-0.402,2.751-0.804,5.501-1.205,8.251c-0.471,0.039-0.941,0.079-1.411,0.118c-0.701-3.361-1.401-6.722-2.103-10.081
	c-0.459,0.004-0.918,0.007-1.379,0.011c-0.635,3.024-1.27,6.048-1.904,9.073c-0.357,0.006-0.712,0.012-1.068,0.019
	c-0.726-3.55-1.452-7.099-2.178-10.648c-0.607,0.004-1.214,0.008-1.82,0.012c-0.719,3.828-1.438,7.655-2.158,11.482
	c-0.422,0.042-0.846,0.085-1.269,0.127c-0.746-3.532-1.492-7.063-2.238-10.595c-0.545-0.037-1.09-0.073-1.634-0.11
	c-0.563,3.142-1.125,6.282-1.686,9.422c-0.379,0.065-0.758,0.131-1.137,0.196c-0.954-3.223-1.908-6.447-2.862-9.671
	c-0.544,0.063-1.088,0.127-1.631,0.19c-0.546,3.006-1.093,6.01-1.64,9.016c-0.457,0.009-0.914,0.018-1.371,0.025
	c-0.744-3.221-1.489-6.44-2.234-9.662c-0.69-0.001-1.381-0.002-2.072-0.003c-0.697,3.022-1.394,6.044-2.091,9.067
	c-0.318,0.044-0.638,0.087-0.957,0.131c-0.652-3.049-1.305-6.1-2.064-9.652c-4.53,2.739-2.012,7.07-3.984,9.98
	c-4.963-1.189-0.426-7.193-5.2-8.977c-0.751,3.24-1.476,6.369-2.201,9.497c-0.449,0-0.897-0.001-1.346-0.001
	c-0.515-3.275-1.029-6.549-1.544-9.824c-0.541-0.031-1.082-0.063-1.623-0.093c-0.479,1.6-1.098,3.173-1.395,4.806
	c-0.281,1.545-0.224,3.151-0.314,4.731c-0.569,0.1-1.139,0.199-1.708,0.299c-0.34-1.415-0.713-2.823-1.015-4.247
	c-0.319-1.51-0.571-3.033-0.854-4.551c-0.499,0.002-0.999,0.003-1.498,0.004c-0.252,1.463-0.448,2.938-0.772,4.383
	c-0.283,1.262-0.71,2.49-1.073,3.732c-0.401-0.043-0.803-0.086-1.204-0.129c-0.546-3.02-1.091-6.038-1.635-9.057
	c-0.509-0.028-1.017-0.057-1.524-0.085c-0.771,2.828-1.541,5.657-2.311,8.485c-0.352,0.047-0.704,0.095-1.056,0.143
	c-0.922-2.836-1.843-5.671-2.765-8.508c-0.435-0.012-0.871-0.023-1.306-0.034c-0.552,1.438-1.211,2.847-1.622,4.323
	c-0.383,1.375-0.5,2.824-0.734,4.239c-0.452,0.104-0.903,0.209-1.355,0.313c-0.825-2.904-1.649-5.81-2.475-8.714
	c-0.463,0.022-0.928,0.045-1.392,0.067c-0.6,2.738-1.2,5.477-1.8,8.214c-0.348,0.043-0.695,0.085-1.042,0.128
	c-0.771-2.873-1.543-5.744-2.314-8.617c-0.483,0.004-0.966,0.007-1.449,0.011c-0.765,2.824-1.531,5.647-2.297,8.471
	c-0.321,0.013-0.644,0.025-0.966,0.039c-0.918-2.886-1.837-5.77-2.756-8.654c-0.534-0.014-1.068-0.027-1.603-0.04
	c-0.763,2.816-1.526,5.633-2.289,8.448c-0.39,0.05-0.779,0.101-1.169,0.15c-0.615-2.753-1.23-5.506-1.845-8.26
	c-0.535-0.047-1.069-0.095-1.604-0.143c-0.761,2.762-1.521,5.522-2.282,8.283c-0.395,0.041-0.788,0.083-1.183,0.124
	c-0.684-2.754-1.368-5.508-2.052-8.262c-0.398-0.015-0.797-0.029-1.195-0.044c-0.625,3.024-1.249,6.048-1.874,9.073
	c-0.438-0.035-0.875-0.07-1.312-0.105c-0.65-2.672-1.302-5.344-1.953-8.017c-0.454-0.001-0.909-0.001-1.363-0.002
	c-0.647,2.481-1.296,4.964-1.943,7.445c-0.42,0.038-0.84,0.077-1.259,0.116c-0.709-2.801-1.419-5.603-2.128-8.403
	c-0.49-0.072-0.98-0.145-1.471-0.217c-0.75,2.722-1.499,5.444-2.249,8.165c-0.344,0.021-0.688,0.041-1.033,0.062
	c-0.664-2.776-1.328-5.553-1.992-8.329c-0.474-0.039-0.946-0.078-1.419-0.117c-0.759,2.484-1.518,4.969-2.276,7.453
	c-0.264,0.062-0.527,0.123-0.791,0.185c-0.761-2.431-1.521-4.862-2.327-7.437c-4.874,1.626-1.255,6.385-4.514,9.164
	c-0.938-3.326-1.729-6.128-2.519-8.931c-0.415-0.016-0.829-0.031-1.243-0.048c-0.849,2.438-1.698,4.875-2.547,7.313
	c-0.3-0.01-0.6-0.019-0.899-0.027c-0.745-2.614-1.49-5.229-2.235-7.843c-0.511-0.018-1.021-0.034-1.53-0.052
	c-0.782,2.735-1.564,5.47-2.346,8.206c-0.342-0.033-0.684-0.065-1.024-0.099c-0.833-2.634-1.666-5.269-2.499-7.903
	c-0.46-0.011-0.921-0.021-1.382-0.032c-0.892,2.707-1.784,5.413-2.676,8.121c-0.326-0.05-0.653-0.099-0.979-0.148
	c-0.667-2.618-1.333-5.234-1.999-7.853c-0.54,0.018-1.081,0.035-1.622,0.053c-0.554,2.523-1.108,5.047-1.663,7.569
	c-0.349,0.101-0.699,0.201-1.048,0.302c-0.941-2.641-1.883-5.282-2.824-7.924c-0.447-0.001-0.894-0.002-1.341-0.002
	c-0.776,2.529-1.554,5.059-2.331,7.589c-0.358-0.037-0.716-0.074-1.075-0.111c-0.701-2.329-1.402-4.659-2.104-6.988
	c-0.393-0.012-0.784-0.023-1.176-0.034c-0.427,1.124-0.901,2.233-1.267,3.377c-0.331,1.039-0.544,2.117-0.809,3.178
	c-0.365,0.074-0.73,0.148-1.095,0.225c-0.924-2.629-1.849-5.257-2.774-7.885c-0.459-0.002-0.919-0.006-1.379-0.008
	c-0.72,2.766-1.441,5.531-2.162,8.298c-0.436-0.003-0.872-0.006-1.308-0.009c-0.542-2.51-1.083-5.02-1.625-7.529
	c-0.431-0.066-0.861-0.134-1.292-0.2c-0.862,2.513-1.726,5.024-2.588,7.536c-0.336-0.047-0.673-0.096-1.009-0.143
	c-0.789-2.568-1.578-5.135-2.367-7.702c-0.35-0.073-0.698-0.146-1.048-0.218c-0.979,2.69-1.96,5.381-3.294,9.048
	c-1.279-3.562-2.21-6.151-3.141-8.743c-0.465-0.014-0.93-0.028-1.395-0.042c-0.825,2.284-1.65,4.567-2.476,6.853
	c-0.348,0.07-0.697,0.143-1.045,0.213c-0.578-2.24-1.155-4.48-1.733-6.722c-0.402,0.043-0.806,0.086-1.208,0.129
	c-0.623,2.206-1.246,4.413-1.869,6.618c-0.301,0.008-0.602,0.014-0.902,0.021c-0.868-2.512-1.737-5.024-2.605-7.537
	c-0.465,0.049-0.93,0.1-1.395,0.148c-0.584,2.223-1.169,4.447-1.752,6.672c-0.299,0.055-0.598,0.111-0.896,0.168
	c-0.942-2.064-1.885-4.126-2.827-6.189c-0.353-0.041-0.704-0.083-1.056-0.124c-0.729,1.946-1.459,3.892-2.652,7.075
	c-1.333-3.146-2.206-5.204-3.079-7.262c-0.41-0.034-0.82-0.068-1.229-0.102c-0.692,2.105-1.385,4.211-2.077,6.316
	c-0.298,0.111-0.597,0.223-0.895,0.334c-0.45-1.166-0.792-2.387-1.381-3.476c-0.487-0.898-1.267-1.638-1.916-2.448
	c-0.608,0.862-1.341,1.665-1.79,2.604c-0.457,0.957-0.635,2.047-1.784,3.186c-0.94-2.389-1.881-4.774-2.823-7.162
	c-0.416-0.041-0.832-0.082-1.249-0.125c-1.013,2.224-2.026,4.446-3.421,7.51c-1.075-2.633-1.903-4.661-2.731-6.689
	c-0.435-0.008-0.87-0.016-1.306-0.022c-0.712,2.387-1.424,4.772-2.135,7.159c-0.317-0.025-0.635-0.051-0.951-0.076
	c-0.837-2.361-1.673-4.723-2.51-7.085c-0.463,0.067-0.927,0.136-1.392,0.203c-0.465,1.964-0.931,3.929-1.396,5.892
	c-0.374,0.096-0.748,0.189-1.122,0.283c-0.782-2.15-1.564-4.299-2.347-6.447c-0.381-0.068-0.762-0.135-1.143-0.201
	c-0.75,2.099-1.5,4.197-2.25,6.297c-0.293,0.057-0.587,0.113-0.88,0.17c-0.745-2.237-1.49-4.475-2.235-6.713
	c-0.426-0.068-0.851-0.139-1.276-0.209c-1.008,2.248-2.014,4.496-3.358,7.492c-1.146-2.737-2.096-5.007-3.046-7.277
	c-0.443-0.014-0.888-0.029-1.332-0.045c-1.02,2.227-2.04,4.453-3.295,7.195c-1.242-2.58-2.245-4.663-3.249-6.748
	c-0.373,0.102-0.746,0.203-1.119,0.305c-0.625,1.889-1.25,3.776-1.875,5.664c-0.309-0.018-0.619-0.035-0.928-0.051
	c-0.829-2.13-1.659-4.26-2.489-6.389c-0.356-0.014-0.711-0.027-1.067-0.039c-0.852,2.081-1.703,4.163-2.919,7.135
	c-1.224-2.867-2.063-4.834-2.903-6.801c-0.386-0.033-0.771-0.068-1.156-0.102c-0.7,1.806-1.401,3.612-2.49,6.418
	c-1.574-3.843-3.81-6.943-3.87-10.087c-0.063-3.309,1.956-6.655,4.087-10.131c0.658,2.121,1.316,4.241,1.974,6.363
	c0.342,0.102,0.684,0.204,1.026,0.306c1.016-2.158,2.031-4.315,3.465-7.365c1.132,2.98,1.942,5.115,2.753,7.248
	c0.366,0.041,0.732,0.082,1.097,0.122c0.798-2.14,1.596-4.279,2.781-7.461c1.125,2.552,1.943,4.405,3.281,7.438
	c1.336-2.879,2.226-4.801,3.476-7.494c1.263,2.981,2.259,5.334,3.256,7.686c0.384-0.022,0.768-0.045,1.152-0.067
	c0.503-1.106,1.047-2.198,1.498-3.327c0.457-1.146,0.822-2.326,1.639-4.671c1.344,3.477,2.251,5.823,3.159,8.172
	c0.384-0.024,0.768-0.049,1.151-0.073c0.475-1.143,0.998-2.27,1.409-3.436c0.409-1.165,0.705-2.37,1.991-3.726
	c0.919,2.364,1.839,4.729,2.757,7.093c0.375-0.042,0.749-0.084,1.124-0.126c0.541-2.353,1.083-4.706,1.624-7.06
	c0.307-0.013,0.613-0.025,0.92-0.038c0.959,2.064,1.919,4.128,2.879,6.192c0.394-0.041,0.787-0.082,1.18-0.123
	c0.426-2.021,0.851-4.041,1.276-6.063c0.372-0.095,0.743-0.188,1.115-0.283c0.938,2.092,1.876,4.182,2.816,6.273
	c0.357,0.063,0.715,0.125,1.073,0.188c0.767-2.203,1.533-4.407,2.299-6.611c0.305-0.082,0.608-0.163,0.912-0.245
	c0.938,2.531,1.877,5.062,2.815,7.591c0.425,0.015,0.85,0.029,1.273,0.043c0.804-2.434,1.606-4.866,2.41-7.301
	c0.294-0.022,0.589-0.045,0.883-0.067c0.88,2.202,1.761,4.405,2.64,6.608c0.408-0.023,0.817-0.047,1.226-0.068
	c0.704-2.186,1.407-4.37,2.11-6.555c0.365-0.049,0.73-0.098,1.095-0.146c0.754,2.566,1.508,5.133,2.262,7.699
	c0.432,0.014,0.862,0.026,1.293,0.04c0.734-2.388,1.469-4.773,2.604-8.462c1.287,3.093,2.183,5.248,3.08,7.406
	c0.344,0.061,0.687,0.121,1.03,0.182c0.943-2.227,1.887-4.452,3.261-7.691c1.196,3.185,2.016,5.365,2.835,7.547
	c0.419,0.066,0.837,0.135,1.256,0.201c0.667-2.393,1.333-4.785,2.335-8.387c1.332,2.898,2.216,4.822,3.646,7.934
	c0.845-3.356,1.396-5.549,1.948-7.74c0.265-0.039,0.53-0.076,0.795-0.113c1.083,2.857,2.167,5.715,3.252,8.572
	c0.462-0.041,0.922-0.082,1.384-0.121c0.653-2.666,1.307-5.332,1.96-7.998c0.348-0.021,0.696-0.043,1.044-0.064
	c0.936,2.924,1.873,5.846,2.808,8.77c0.514-0.005,1.027-0.01,1.541-0.014c0.58-2.568,1.16-5.135,1.8-7.967
	c3.89,0.854,1.237,5.482,4.743,7.307c0.688-2.6,1.338-5.054,1.989-7.508c0.315-0.08,0.632-0.16,0.947-0.24
	c0.94,2.573,1.88,5.146,2.82,7.719c0.333,0.078,0.666,0.156,0.998,0.233c0.835-2.78,1.669-5.561,2.502-8.341
	c0.359-0.037,0.719-0.072,1.078-0.109c0.666,2.608,1.331,5.217,1.997,7.824c0.455,0.033,0.91,0.066,1.364,0.1
	c0.843-2.717,1.685-5.434,2.527-8.15c0.328,0.021,0.657,0.043,0.985,0.063c0.775,2.54,1.55,5.078,2.325,7.619
	c0.435,0.064,0.869,0.129,1.304,0.193c0.786-2.516,1.571-5.029,2.357-7.543c0.34-0.016,0.68-0.033,1.019-0.049
	c0.758,2.658,1.516,5.316,2.274,7.975c0.486,0.049,0.972,0.098,1.457,0.148c0.677-2.615,1.353-5.23,2.029-7.846
	c0.286-0.072,0.572-0.145,0.858-0.217c0.961,2.308,1.921,4.615,2.882,6.924c0.378-0.029,0.755-0.059,1.133-0.088
	c0.715-2.384,1.43-4.767,2.144-7.148c0.354-0.084,0.707-0.166,1.061-0.248c0.963,2.883,1.926,5.766,2.888,8.648
	c0.489-0.047,0.978-0.094,1.466-0.143c0.708-2.605,1.415-5.21,2.123-7.814c0.342-0.117,0.685-0.236,1.026-0.354
	c1.005,2.737,2.01,5.475,3.014,8.213c0.417-0.008,0.834-0.014,1.251-0.02c0.61-2.705,1.221-5.41,1.831-8.115
	c0.247-0.053,0.493-0.105,0.74-0.158c0.917,2.277,1.835,4.556,2.752,6.834c0.377,0.033,0.755,0.066,1.131,0.102
	c0.642-2.393,1.283-4.785,1.924-7.178c0.307-0.043,0.613-0.086,0.92-0.129c0.924,2.691,1.849,5.381,2.774,8.072
	c0.42-0.031,0.84-0.064,1.26-0.096c0.635-2.869,1.269-5.738,1.904-8.607c0.344-0.025,0.688-0.051,1.031-0.076
	c0.82,2.791,1.64,5.581,2.459,8.371c0.478,0.029,0.955,0.059,1.432,0.088c0.715-2.897,1.429-5.796,2.142-8.693
	c0.371,0.012,0.742,0.023,1.114,0.035c0.711,2.963,1.422,5.925,2.133,8.887c0.48-0.004,0.961-0.008,1.442-0.014
	c0.59-2.878,1.18-5.757,1.77-8.635c0.357-0.014,0.715-0.027,1.072-0.041c0.744,2.947,1.487,5.895,2.231,8.842
	c0.473-0.031,0.945-0.061,1.418-0.092c0.461-2.877,0.923-5.755,1.385-8.633c0.441-0.037,0.884-0.076,1.326-0.115
	c0.708,2.771,1.416,5.543,2.124,8.314c0.475,0.023,0.949,0.047,1.424,0.07c0.802-2.806,1.604-5.61,2.405-8.416
	c0.369-0.041,0.738-0.082,1.108-0.123c0.837,3.224,1.675,6.445,2.512,9.67c0.521,0.029,1.042,0.061,1.563,0.09
	c0.815-3.238,1.632-6.475,2.447-9.711c0.312-0.021,0.622-0.045,0.934-0.066c0.873,3.102,1.747,6.203,2.621,9.305
	c0.476-0.018,0.95-0.035,1.426-0.053c0.595-2.875,1.189-5.748,1.783-8.621c0.421-0.031,0.841-0.064,1.262-0.096
	c0.745,2.98,1.49,5.963,2.327,9.313c4.566-2.305,0.682-7.5,4.418-10.333c1.067,3.74,2.047,7.173,3.029,10.609
	c0.468,0.012,0.936,0.024,1.404,0.036c0.805-3.444,1.61-6.89,2.415-10.335c0.405,0.014,0.81,0.025,1.215,0.037
	c0.653,3.04,1.306,6.081,1.958,9.123c0.505,0.025,1.01,0.053,1.515,0.078c0.65-3.156,1.299-6.313,1.95-9.47
	c0.416,0.039,0.832,0.078,1.248,0.118c0.488,2.771,0.978,5.542,1.465,8.313c0.456,0.059,0.913,0.115,1.369,0.174
	c0.645-2.771,1.289-5.54,1.934-8.311c0.375-0.063,0.75-0.125,1.125-0.187c0.787,2.603,1.575,5.208,2.362,7.81
	c0.548,0.049,1.094,0.098,1.642,0.146c0.595-2.579,1.189-5.158,1.784-7.736c0.351-0.047,0.701-0.094,1.051-0.141
	c0.775,3.101,1.549,6.201,2.325,9.301c0.531,0.057,1.063,0.115,1.596,0.172c0.958-3.225,1.918-6.451,2.877-9.677
	c0.313-0.015,0.625-0.029,0.938-0.044c0.607,2.964,1.213,5.929,1.821,8.893c0.579,0.055,1.158,0.109,1.737,0.164
	c0.795-3.319,1.59-6.639,2.386-9.958c0.331,0.052,0.662,0.104,0.993,0.156c0.717,3.201,1.432,6.402,2.149,9.603
	c0.555,0.051,1.11,0.102,1.665,0.152c0.903-3.054,1.806-6.106,2.71-9.16c0.295,0.001,0.592,0.001,0.889,0.002
	c0.732,3.282,1.465,6.564,2.196,9.845c0.617,0.02,1.233,0.041,1.85,0.061c0.691-3.305,1.382-6.61,2.073-9.915
	c0.42-0.046,0.84-0.093,1.26-0.139c0.773,3.585,1.547,7.17,2.321,10.757c0.447,0.063,0.894,0.125,1.341,0.188
	c0.733-3.833,1.467-7.668,2.2-11.502c0.409,0.02,0.819,0.039,1.229,0.059c0.742,3.643,1.484,7.288,2.227,10.931
	c0.679-0.008,1.358-0.014,2.039-0.021c0.349-3.579,0.698-7.159,1.047-10.738c0.488-0.053,0.976-0.106,1.463-0.159
	c0.365,1.524,0.762,3.042,1.09,4.572c0.359,1.672,0.656,3.356,0.98,5.034C306.62,17.092,307.05,17.024,307.479,16.956z"/>
</svg>
