<?xml version="1.0" encoding="utf-8"?>
<!-- Generator: Adobe Illustrator 16.0.3, SVG Export Plug-In . SVG Version: 6.00 Build 0)  -->
<!DOCTYPE svg PUBLIC "-//W3C//DTD SVG 1.1//EN" "http://www.w3.org/Graphics/SVG/1.1/DTD/svg11.dtd">
<svg version="1.1" id="Layer_1" xmlns="http://www.w3.org/2000/svg" xmlns:xlink="http://www.w3.org/1999/xlink" x="0px" y="0px"
	 width="760px" height="160.429px" viewBox="0 0 760 160.429" enable-background="new 0 0 760 160.429" xml:space="preserve">
<line fill-rule="evenodd" clip-rule="evenodd" fill="#006837" stroke="#000000" stroke-width="2" stroke-miterlimit="10" x1="5" y1="55.833" x2="759" y2="55.833"/>
<line fill-rule="evenodd" clip-rule="evenodd" fill="#006837" stroke="#000000" stroke-width="2" stroke-miterlimit="10" x1="5" y1="47.833" x2="5" y2="60.833"/>
<line fill-rule="evenodd" clip-rule="evenodd" fill="#006837" stroke="#000000" stroke-width="2" stroke-miterlimit="10" x1="759" y1="47.833" x2="759" y2="60.833"/>
<line fill-rule="evenodd" clip-rule="evenodd" fill="#006837" stroke="#000000" stroke-width="2" stroke-miterlimit="10" x1="105" y1="48.833" x2="105" y2="61.833"/>
<line fill-rule="evenodd" clip-rule="evenodd" fill="#006837" stroke="#000000" stroke-width="2" stroke-miterlimit="10" x1="205" y1="48.833" x2="205" y2="61.833"/>
<line fill-rule="evenodd" clip-rule="evenodd" fill="#006837" stroke="#000000" stroke-width="2" stroke-miterlimit="10" x1="305" y1="47.833" x2="305" y2="60.833"/>
<line fill-rule="evenodd" clip-rule="evenodd" fill="#006837" stroke="#000000" stroke-width="2" stroke-miterlimit="10" x1="405" y1="47.833" x2="405" y2="60.833"/>
<line fill-rule="evenodd" clip-rule="evenodd" fill="#006837" stroke="#000000" stroke-width="2" stroke-miterlimit="10" x1="505" y1="48.833" x2="505" y2="61.833"/>
<line fill-rule="evenodd" clip-rule="evenodd" fill="#006837" stroke="#000000" stroke-width="2" stroke-miterlimit="10" x1="606" y1="48.833" x2="606" y2="61.833"/>
<line fill-rule="evenodd" clip-rule="evenodd" fill="#006837" stroke="#000000" stroke-width="2" stroke-miterlimit="10" x1="705" y1="48.833" x2="705" y2="61.833"/>
<text transform="matrix(1 0 0 1 100 80.833)" font-family="'MyriadPro-Regular'" font-size="18">1</text>
<text transform="matrix(1 0 0 1 200 80.833)" font-family="'MyriadPro-Regular'" font-size="18">2</text>
<text transform="matrix(1 0 0 1 299 80.833)" font-family="'MyriadPro-Regular'" font-size="18">3</text>
<text transform="matrix(1 0 0 1 400 80.833)" font-family="'MyriadPro-Regular'" font-size="18">4</text>
<text transform="matrix(1 0 0 1 500 80.833)" font-family="'MyriadPro-Regular'" font-size="18">5</text>
<text transform="matrix(1 0 0 1 601 80.833)" font-family="'MyriadPro-Regular'" font-size="18">6</text>
<text transform="matrix(1 0 0 1 699 80.833)" font-family="'MyriadPro-Regular'" font-size="18">7</text>
<text transform="matrix(1 0 0 1 323 152.833)" font-family="'HelveticaNeueLight'" font-size="36">Seconds</text>
<text transform="matrix(1 0 0 1 0 80.833)" font-family="'MyriadPro-Regular'" font-size="18">0</text>
<g>
	<g>
		<path fill-rule="evenodd" clip-rule="evenodd" fill="#006837" d="M445.116,0c3.723,7.4,3.558,14.037,0.067,20.93
			C441.204,16.542,441.083,6.629,445.116,0z"/>
	</g>
	<g>
		<path fill-rule="evenodd" clip-rule="evenodd" fill="#006837" d="M390.116,0c3.723,7.4,3.558,14.037,0.067,20.93
			C386.204,16.542,386.083,6.629,390.116,0z"/>
	</g>
	<g>
		<path fill-rule="evenodd" clip-rule="evenodd" fill="#006837" d="M335.116,0c3.723,7.4,3.558,14.037,0.067,20.93
			C331.204,16.542,331.083,6.629,335.116,0z"/>
	</g>
	<g>
		<path fill-rule="evenodd" clip-rule="evenodd" fill="#006837" d="M280.116,0c3.723,7.4,3.558,14.037,0.067,20.93
			C276.204,16.542,276.083,6.629,280.116,0z"/>
	</g>
	<g>
		<path fill-rule="evenodd" clip-rule="evenodd" fill="#006837" d="M225.116,0c3.723,7.4,3.558,14.037,0.067,20.93
			C221.204,16.542,221.083,6.629,225.116,0z"/>
	</g>
	<g>
		<path fill-rule="evenodd" clip-rule="evenodd" fill="#006837" d="M170.116,0c3.723,7.4,3.558,14.037,0.067,20.93
			C166.204,16.542,166.083,6.629,170.116,0z"/>
	</g>
	<g>
		<path fill-rule="evenodd" clip-rule="evenodd" fill="#006837" d="M115.116,0c3.723,7.4,3.558,14.037,0.067,20.93
			C111.204,16.542,111.083,6.629,115.116,0z"/>
	</g>
	<g>
		<path fill-rule="evenodd" clip-rule="evenodd" fill="#006837" d="M60.116,0c3.723,7.4,3.558,14.037,0.067,20.93
			C56.204,16.542,56.083,6.629,60.116,0z"/>
	</g>
	<g>
		<path fill-rule="evenodd" clip-rule="evenodd" fill="#006837" d="M5.116,0c3.723,7.4,3.558,14.037,0.067,20.93
			C1.204,16.542,1.083,6.629,5.116,0z"/>
	</g>
</g>
</svg>
