<?xml version="1.0" encoding="utf-8"?>
<!-- Generator: Adobe Illustrator 16.0.3, SVG Export Plug-In . SVG Version: 6.00 Build 0)  -->
<!DOCTYPE svg PUBLIC "-//W3C//DTD SVG 1.1//EN" "http://www.w3.org/Graphics/SVG/1.1/DTD/svg11.dtd">
<svg version="1.1" id="Layer_1" xmlns="http://www.w3.org/2000/svg" xmlns:xlink="http://www.w3.org/1999/xlink" x="0px" y="0px"
	 width="760px" height="135.596px" viewBox="0 0 760 135.596" enable-background="new 0 0 760 135.596" xml:space="preserve">
<line fill-rule="evenodd" clip-rule="evenodd" fill="#006837" stroke="#000000" stroke-width="2" stroke-miterlimit="10" x1="5" y1="60" x2="759" y2="60"/>
<line fill-rule="evenodd" clip-rule="evenodd" fill="#006837" stroke="#000000" stroke-width="2" stroke-miterlimit="10" x1="5" y1="52" x2="5" y2="65"/>
<line fill-rule="evenodd" clip-rule="evenodd" fill="#006837" stroke="#000000" stroke-width="2" stroke-miterlimit="10" x1="759" y1="52" x2="759" y2="65"/>
<line fill-rule="evenodd" clip-rule="evenodd" fill="#006837" stroke="#000000" stroke-width="2" stroke-miterlimit="10" x1="105" y1="53" x2="105" y2="66"/>
<line fill-rule="evenodd" clip-rule="evenodd" fill="#006837" stroke="#000000" stroke-width="2" stroke-miterlimit="10" x1="205" y1="53" x2="205" y2="66"/>
<line fill-rule="evenodd" clip-rule="evenodd" fill="#006837" stroke="#000000" stroke-width="2" stroke-miterlimit="10" x1="305" y1="52" x2="305" y2="65"/>
<line fill-rule="evenodd" clip-rule="evenodd" fill="#006837" stroke="#000000" stroke-width="2" stroke-miterlimit="10" x1="405" y1="52" x2="405" y2="65"/>
<line fill-rule="evenodd" clip-rule="evenodd" fill="#006837" stroke="#000000" stroke-width="2" stroke-miterlimit="10" x1="505" y1="53" x2="505" y2="66"/>
<line fill-rule="evenodd" clip-rule="evenodd" fill="#006837" stroke="#000000" stroke-width="2" stroke-miterlimit="10" x1="606" y1="53" x2="606" y2="66"/>
<line fill-rule="evenodd" clip-rule="evenodd" fill="#006837" stroke="#000000" stroke-width="2" stroke-miterlimit="10" x1="705" y1="53" x2="705" y2="66"/>
<text transform="matrix(1 0 0 1 100 85)" font-family="'MyriadPro-Regular'" font-size="18">1</text>
<text transform="matrix(1 0 0 1 200 85)" font-family="'MyriadPro-Regular'" font-size="18">2</text>
<text transform="matrix(1 0 0 1 299 85)" font-family="'MyriadPro-Regular'" font-size="18">3</text>
<text transform="matrix(1 0 0 1 400 85)" font-family="'MyriadPro-Regular'" font-size="18">4</text>
<text transform="matrix(1 0 0 1 500 85)" font-family="'MyriadPro-Regular'" font-size="18">5</text>
<text transform="matrix(1 0 0 1 601 85)" font-family="'MyriadPro-Regular'" font-size="18">6</text>
<text transform="matrix(1 0 0 1 699 85)" font-family="'MyriadPro-Regular'" font-size="18">7</text>
<text transform="matrix(1 0 0 1 317 128)" font-family="'HelveticaNeueLight'" font-size="36">Seconds</text>
<text transform="matrix(1 0 0 1 0 85)" font-family="'MyriadPro-Regular'" font-size="18">0</text>
<g>
	<g>
		<line fill-rule="evenodd" clip-rule="evenodd" fill="#006837" x1="53" y1="0" x2="53" y2="38"/>
		<line fill="none" stroke="#006837" stroke-width="3" stroke-miterlimit="10" x1="52.5" y1="0" x2="52.5" y2="38"/>
	</g>
	<g>
		<line fill-rule="evenodd" clip-rule="evenodd" fill="#006837" x1="49" y1="0" x2="49" y2="38"/>
		<line fill="none" stroke="#006837" stroke-width="3" stroke-miterlimit="10" x1="48.5" y1="0" x2="48.5" y2="38"/>
	</g>
	<g>
		<line fill-rule="evenodd" clip-rule="evenodd" fill="#006837" x1="45" y1="0" x2="45" y2="38"/>
		<line fill="none" stroke="#006837" stroke-width="3" stroke-miterlimit="10" x1="44.5" y1="0" x2="44.5" y2="38"/>
	</g>
	<g>
		<line fill-rule="evenodd" clip-rule="evenodd" fill="#006837" x1="41" y1="0" x2="41" y2="38"/>
		<line fill="none" stroke="#006837" stroke-width="3" stroke-miterlimit="10" x1="40.5" y1="0" x2="40.5" y2="38"/>
	</g>
	<g>
		<line fill-rule="evenodd" clip-rule="evenodd" fill="#006837" x1="37" y1="0" x2="37" y2="38"/>
		<line fill="none" stroke="#006837" stroke-width="3" stroke-miterlimit="10" x1="36.5" y1="0" x2="36.5" y2="38"/>
	</g>
	<g>
		<line fill-rule="evenodd" clip-rule="evenodd" fill="#006837" x1="33" y1="0" x2="33" y2="38"/>
		<line fill="none" stroke="#006837" stroke-width="3" stroke-miterlimit="10" x1="32.5" y1="0" x2="32.5" y2="38"/>
	</g>
	<g>
		<line fill-rule="evenodd" clip-rule="evenodd" fill="#006837" x1="29" y1="0" x2="29" y2="38"/>
		<line fill="none" stroke="#006837" stroke-width="3" stroke-miterlimit="10" x1="28.5" y1="0" x2="28.5" y2="38"/>
	</g>
	<g>
		<line fill-rule="evenodd" clip-rule="evenodd" fill="#006837" x1="25" y1="0" x2="25" y2="38"/>
		<line fill="none" stroke="#006837" stroke-width="3" stroke-miterlimit="10" x1="24.5" y1="0" x2="24.5" y2="38"/>
	</g>
	<g>
		<line fill-rule="evenodd" clip-rule="evenodd" fill="#006837" x1="21" y1="0" x2="21" y2="38"/>
		<line fill="none" stroke="#006837" stroke-width="3" stroke-miterlimit="10" x1="20.5" y1="0" x2="20.5" y2="38"/>
	</g>
	<g>
		<line fill-rule="evenodd" clip-rule="evenodd" fill="#006837" x1="17" y1="0" x2="17" y2="38"/>
		<line fill="none" stroke="#006837" stroke-width="3" stroke-miterlimit="10" x1="16.5" y1="0" x2="16.5" y2="38"/>
	</g>
	<g>
		<line fill-rule="evenodd" clip-rule="evenodd" fill="#006837" x1="13" y1="0" x2="13" y2="38"/>
		<line fill="none" stroke="#006837" stroke-width="3" stroke-miterlimit="10" x1="12.5" y1="0" x2="12.5" y2="38"/>
	</g>
	<g>
		<line fill-rule="evenodd" clip-rule="evenodd" fill="#006837" x1="9" y1="0" x2="9" y2="38"/>
		<line fill="none" stroke="#006837" stroke-width="3" stroke-miterlimit="10" x1="8.5" y1="0" x2="8.5" y2="38"/>
	</g>
	<g>
		<line fill-rule="evenodd" clip-rule="evenodd" fill="#006837" x1="5" y1="0" x2="5" y2="38"/>
		<line fill="none" stroke="#006837" stroke-width="3" stroke-miterlimit="10" x1="4.5" y1="0" x2="4.5" y2="38"/>
	</g>
</g>
<g>
	<g>
		<line fill-rule="evenodd" clip-rule="evenodd" fill="#006837" x1="153" y1="0" x2="153" y2="38"/>
		<line fill="none" stroke="#006837" stroke-width="3" stroke-miterlimit="10" x1="152.5" y1="0" x2="152.5" y2="38"/>
	</g>
	<g>
		<line fill-rule="evenodd" clip-rule="evenodd" fill="#006837" x1="149" y1="0" x2="149" y2="38"/>
		<line fill="none" stroke="#006837" stroke-width="3" stroke-miterlimit="10" x1="148.5" y1="0" x2="148.5" y2="38"/>
	</g>
	<g>
		<line fill-rule="evenodd" clip-rule="evenodd" fill="#006837" x1="145" y1="0" x2="145" y2="38"/>
		<line fill="none" stroke="#006837" stroke-width="3" stroke-miterlimit="10" x1="144.5" y1="0" x2="144.5" y2="38"/>
	</g>
	<g>
		<line fill-rule="evenodd" clip-rule="evenodd" fill="#006837" x1="141" y1="0" x2="141" y2="38"/>
		<line fill="none" stroke="#006837" stroke-width="3" stroke-miterlimit="10" x1="140.5" y1="0" x2="140.5" y2="38"/>
	</g>
	<g>
		<line fill-rule="evenodd" clip-rule="evenodd" fill="#006837" x1="137" y1="0" x2="137" y2="38"/>
		<line fill="none" stroke="#006837" stroke-width="3" stroke-miterlimit="10" x1="136.5" y1="0" x2="136.5" y2="38"/>
	</g>
	<g>
		<line fill-rule="evenodd" clip-rule="evenodd" fill="#006837" x1="133" y1="0" x2="133" y2="38"/>
		<line fill="none" stroke="#006837" stroke-width="3" stroke-miterlimit="10" x1="132.5" y1="0" x2="132.5" y2="38"/>
	</g>
	<g>
		<line fill-rule="evenodd" clip-rule="evenodd" fill="#006837" x1="129" y1="0" x2="129" y2="38"/>
		<line fill="none" stroke="#006837" stroke-width="3" stroke-miterlimit="10" x1="128.5" y1="0" x2="128.5" y2="38"/>
	</g>
	<g>
		<line fill-rule="evenodd" clip-rule="evenodd" fill="#006837" x1="125" y1="0" x2="125" y2="38"/>
		<line fill="none" stroke="#006837" stroke-width="3" stroke-miterlimit="10" x1="124.5" y1="0" x2="124.5" y2="38"/>
	</g>
	<g>
		<line fill-rule="evenodd" clip-rule="evenodd" fill="#006837" x1="121" y1="0" x2="121" y2="38"/>
		<line fill="none" stroke="#006837" stroke-width="3" stroke-miterlimit="10" x1="120.5" y1="0" x2="120.5" y2="38"/>
	</g>
	<g>
		<line fill-rule="evenodd" clip-rule="evenodd" fill="#006837" x1="117" y1="0" x2="117" y2="38"/>
		<line fill="none" stroke="#006837" stroke-width="3" stroke-miterlimit="10" x1="116.5" y1="0" x2="116.5" y2="38"/>
	</g>
	<g>
		<line fill-rule="evenodd" clip-rule="evenodd" fill="#006837" x1="113" y1="0" x2="113" y2="38"/>
		<line fill="none" stroke="#006837" stroke-width="3" stroke-miterlimit="10" x1="112.5" y1="0" x2="112.5" y2="38"/>
	</g>
	<g>
		<line fill-rule="evenodd" clip-rule="evenodd" fill="#006837" x1="109" y1="0" x2="109" y2="38"/>
		<line fill="none" stroke="#006837" stroke-width="3" stroke-miterlimit="10" x1="108.5" y1="0" x2="108.5" y2="38"/>
	</g>
	<g>
		<line fill-rule="evenodd" clip-rule="evenodd" fill="#006837" x1="105" y1="0" x2="105" y2="38"/>
		<line fill="none" stroke="#006837" stroke-width="3" stroke-miterlimit="10" x1="104.5" y1="0" x2="104.5" y2="38"/>
	</g>
</g>
<g>
	<g>
		<line fill-rule="evenodd" clip-rule="evenodd" fill="#006837" x1="253" y1="0" x2="253" y2="38"/>
		<line fill="none" stroke="#006837" stroke-width="3" stroke-miterlimit="10" x1="252.5" y1="0" x2="252.5" y2="38"/>
	</g>
	<g>
		<line fill-rule="evenodd" clip-rule="evenodd" fill="#006837" x1="249" y1="0" x2="249" y2="38"/>
		<line fill="none" stroke="#006837" stroke-width="3" stroke-miterlimit="10" x1="248.5" y1="0" x2="248.5" y2="38"/>
	</g>
	<g>
		<line fill-rule="evenodd" clip-rule="evenodd" fill="#006837" x1="245" y1="0" x2="245" y2="38"/>
		<line fill="none" stroke="#006837" stroke-width="3" stroke-miterlimit="10" x1="244.5" y1="0" x2="244.5" y2="38"/>
	</g>
	<g>
		<line fill-rule="evenodd" clip-rule="evenodd" fill="#006837" x1="241" y1="0" x2="241" y2="38"/>
		<line fill="none" stroke="#006837" stroke-width="3" stroke-miterlimit="10" x1="240.5" y1="0" x2="240.5" y2="38"/>
	</g>
	<g>
		<line fill-rule="evenodd" clip-rule="evenodd" fill="#006837" x1="237" y1="0" x2="237" y2="38"/>
		<line fill="none" stroke="#006837" stroke-width="3" stroke-miterlimit="10" x1="236.5" y1="0" x2="236.5" y2="38"/>
	</g>
	<g>
		<line fill-rule="evenodd" clip-rule="evenodd" fill="#006837" x1="233" y1="0" x2="233" y2="38"/>
		<line fill="none" stroke="#006837" stroke-width="3" stroke-miterlimit="10" x1="232.5" y1="0" x2="232.5" y2="38"/>
	</g>
	<g>
		<line fill-rule="evenodd" clip-rule="evenodd" fill="#006837" x1="229" y1="0" x2="229" y2="38"/>
		<line fill="none" stroke="#006837" stroke-width="3" stroke-miterlimit="10" x1="228.5" y1="0" x2="228.5" y2="38"/>
	</g>
	<g>
		<line fill-rule="evenodd" clip-rule="evenodd" fill="#006837" x1="225" y1="0" x2="225" y2="38"/>
		<line fill="none" stroke="#006837" stroke-width="3" stroke-miterlimit="10" x1="224.5" y1="0" x2="224.5" y2="38"/>
	</g>
	<g>
		<line fill-rule="evenodd" clip-rule="evenodd" fill="#006837" x1="221" y1="0" x2="221" y2="38"/>
		<line fill="none" stroke="#006837" stroke-width="3" stroke-miterlimit="10" x1="220.5" y1="0" x2="220.5" y2="38"/>
	</g>
	<g>
		<line fill-rule="evenodd" clip-rule="evenodd" fill="#006837" x1="217" y1="0" x2="217" y2="38"/>
		<line fill="none" stroke="#006837" stroke-width="3" stroke-miterlimit="10" x1="216.5" y1="0" x2="216.5" y2="38"/>
	</g>
	<g>
		<line fill-rule="evenodd" clip-rule="evenodd" fill="#006837" x1="213" y1="0" x2="213" y2="38"/>
		<line fill="none" stroke="#006837" stroke-width="3" stroke-miterlimit="10" x1="212.5" y1="0" x2="212.5" y2="38"/>
	</g>
	<g>
		<line fill-rule="evenodd" clip-rule="evenodd" fill="#006837" x1="209" y1="0" x2="209" y2="38"/>
		<line fill="none" stroke="#006837" stroke-width="3" stroke-miterlimit="10" x1="208.5" y1="0" x2="208.5" y2="38"/>
	</g>
	<g>
		<line fill-rule="evenodd" clip-rule="evenodd" fill="#006837" x1="205" y1="0" x2="205" y2="38"/>
		<line fill="none" stroke="#006837" stroke-width="3" stroke-miterlimit="10" x1="204.5" y1="0" x2="204.5" y2="38"/>
	</g>
</g>
<g>
	<g>
		<line fill-rule="evenodd" clip-rule="evenodd" fill="#006837" x1="472" y1="0" x2="472" y2="38"/>
		<line fill="none" stroke="#006837" stroke-width="3" stroke-miterlimit="10" x1="471.5" y1="0" x2="471.5" y2="38"/>
	</g>
	<g>
		<line fill-rule="evenodd" clip-rule="evenodd" fill="#006837" x1="468" y1="0" x2="468" y2="38"/>
		<line fill="none" stroke="#006837" stroke-width="3" stroke-miterlimit="10" x1="467.5" y1="0" x2="467.5" y2="38"/>
	</g>
	<g>
		<line fill-rule="evenodd" clip-rule="evenodd" fill="#006837" x1="464" y1="0" x2="464" y2="38"/>
		<line fill="none" stroke="#006837" stroke-width="3" stroke-miterlimit="10" x1="463.5" y1="0" x2="463.5" y2="38"/>
	</g>
	<g>
		<line fill-rule="evenodd" clip-rule="evenodd" fill="#006837" x1="460" y1="0" x2="460" y2="38"/>
		<line fill="none" stroke="#006837" stroke-width="3" stroke-miterlimit="10" x1="459.5" y1="0" x2="459.5" y2="38"/>
	</g>
	<g>
		<line fill-rule="evenodd" clip-rule="evenodd" fill="#006837" x1="456" y1="0" x2="456" y2="38"/>
		<line fill="none" stroke="#006837" stroke-width="3" stroke-miterlimit="10" x1="455.5" y1="0" x2="455.5" y2="38"/>
	</g>
	<g>
		<line fill-rule="evenodd" clip-rule="evenodd" fill="#006837" x1="452" y1="0" x2="452" y2="38"/>
		<line fill="none" stroke="#006837" stroke-width="3" stroke-miterlimit="10" x1="451.5" y1="0" x2="451.5" y2="38"/>
	</g>
	<g>
		<line fill-rule="evenodd" clip-rule="evenodd" fill="#006837" x1="448" y1="0" x2="448" y2="38"/>
		<line fill="none" stroke="#006837" stroke-width="3" stroke-miterlimit="10" x1="447.5" y1="0" x2="447.5" y2="38"/>
	</g>
	<g>
		<line fill-rule="evenodd" clip-rule="evenodd" fill="#006837" x1="444" y1="0" x2="444" y2="38"/>
		<line fill="none" stroke="#006837" stroke-width="3" stroke-miterlimit="10" x1="443.5" y1="0" x2="443.5" y2="38"/>
	</g>
	<g>
		<line fill-rule="evenodd" clip-rule="evenodd" fill="#006837" x1="440" y1="0" x2="440" y2="38"/>
		<line fill="none" stroke="#006837" stroke-width="3" stroke-miterlimit="10" x1="439.5" y1="0" x2="439.5" y2="38"/>
	</g>
	<g>
		<line fill-rule="evenodd" clip-rule="evenodd" fill="#006837" x1="436" y1="0" x2="436" y2="38"/>
		<line fill="none" stroke="#006837" stroke-width="3" stroke-miterlimit="10" x1="435.5" y1="0" x2="435.5" y2="38"/>
	</g>
	<g>
		<line fill-rule="evenodd" clip-rule="evenodd" fill="#006837" x1="432" y1="0" x2="432" y2="38"/>
		<line fill="none" stroke="#006837" stroke-width="3" stroke-miterlimit="10" x1="431.5" y1="0" x2="431.5" y2="38"/>
	</g>
	<g>
		<line fill-rule="evenodd" clip-rule="evenodd" fill="#006837" x1="428" y1="0" x2="428" y2="38"/>
		<line fill="none" stroke="#006837" stroke-width="3" stroke-miterlimit="10" x1="427.5" y1="0" x2="427.5" y2="38"/>
	</g>
	<g>
		<line fill-rule="evenodd" clip-rule="evenodd" fill="#006837" x1="424" y1="0" x2="424" y2="38"/>
		<line fill="none" stroke="#006837" stroke-width="3" stroke-miterlimit="10" x1="423.5" y1="0" x2="423.5" y2="38"/>
	</g>
	<g>
		<line fill-rule="evenodd" clip-rule="evenodd" fill="#006837" x1="420" y1="0" x2="420" y2="38"/>
		<line fill="none" stroke="#006837" stroke-width="3" stroke-miterlimit="10" x1="419.5" y1="0" x2="419.5" y2="38"/>
	</g>
	<g>
		<line fill-rule="evenodd" clip-rule="evenodd" fill="#006837" x1="416" y1="0" x2="416" y2="38"/>
		<line fill="none" stroke="#006837" stroke-width="3" stroke-miterlimit="10" x1="415.5" y1="0" x2="415.5" y2="38"/>
	</g>
	<g>
		<line fill-rule="evenodd" clip-rule="evenodd" fill="#006837" x1="412" y1="0" x2="412" y2="38"/>
		<line fill="none" stroke="#006837" stroke-width="3" stroke-miterlimit="10" x1="411.5" y1="0" x2="411.5" y2="38"/>
	</g>
	<g>
		<line fill-rule="evenodd" clip-rule="evenodd" fill="#006837" x1="408" y1="0" x2="408" y2="38"/>
		<line fill="none" stroke="#006837" stroke-width="3" stroke-miterlimit="10" x1="407.5" y1="0" x2="407.5" y2="38"/>
	</g>
	<g>
		<line fill-rule="evenodd" clip-rule="evenodd" fill="#006837" x1="404" y1="0" x2="404" y2="38"/>
		<line fill="none" stroke="#006837" stroke-width="3" stroke-miterlimit="10" x1="403.5" y1="0" x2="403.5" y2="38"/>
	</g>
	<g>
		<line fill-rule="evenodd" clip-rule="evenodd" fill="#006837" x1="400" y1="0" x2="400" y2="38"/>
		<line fill="none" stroke="#006837" stroke-width="3" stroke-miterlimit="10" x1="399.5" y1="0" x2="399.5" y2="38"/>
	</g>
	<g>
		<line fill-rule="evenodd" clip-rule="evenodd" fill="#006837" x1="396" y1="0" x2="396" y2="38"/>
		<line fill="none" stroke="#006837" stroke-width="3" stroke-miterlimit="10" x1="395.5" y1="0" x2="395.5" y2="38"/>
	</g>
	<g>
		<line fill-rule="evenodd" clip-rule="evenodd" fill="#006837" x1="392" y1="0" x2="392" y2="38"/>
		<line fill="none" stroke="#006837" stroke-width="3" stroke-miterlimit="10" x1="391.5" y1="0" x2="391.5" y2="38"/>
	</g>
	<g>
		<line fill-rule="evenodd" clip-rule="evenodd" fill="#006837" x1="388" y1="0" x2="388" y2="38"/>
		<line fill="none" stroke="#006837" stroke-width="3" stroke-miterlimit="10" x1="387.5" y1="0" x2="387.5" y2="38"/>
	</g>
	<g>
		<line fill-rule="evenodd" clip-rule="evenodd" fill="#006837" x1="384" y1="0" x2="384" y2="38"/>
		<line fill="none" stroke="#006837" stroke-width="3" stroke-miterlimit="10" x1="383.5" y1="0" x2="383.5" y2="38"/>
	</g>
	<g>
		<line fill-rule="evenodd" clip-rule="evenodd" fill="#006837" x1="380" y1="0" x2="380" y2="38"/>
		<line fill="none" stroke="#006837" stroke-width="3" stroke-miterlimit="10" x1="379.5" y1="0" x2="379.5" y2="38"/>
	</g>
	<g>
		<line fill-rule="evenodd" clip-rule="evenodd" fill="#006837" x1="376" y1="0" x2="376" y2="38"/>
		<line fill="none" stroke="#006837" stroke-width="3" stroke-miterlimit="10" x1="375.5" y1="0" x2="375.5" y2="38"/>
	</g>
	<g>
		<line fill-rule="evenodd" clip-rule="evenodd" fill="#006837" x1="372" y1="0" x2="372" y2="38"/>
		<line fill="none" stroke="#006837" stroke-width="3" stroke-miterlimit="10" x1="371.5" y1="0" x2="371.5" y2="38"/>
	</g>
	<g>
		<line fill-rule="evenodd" clip-rule="evenodd" fill="#006837" x1="368" y1="0" x2="368" y2="38"/>
		<line fill="none" stroke="#006837" stroke-width="3" stroke-miterlimit="10" x1="367.5" y1="0" x2="367.5" y2="38"/>
	</g>
	<g>
		<line fill-rule="evenodd" clip-rule="evenodd" fill="#006837" x1="364" y1="0" x2="364" y2="38"/>
		<line fill="none" stroke="#006837" stroke-width="3" stroke-miterlimit="10" x1="363.5" y1="0" x2="363.5" y2="38"/>
	</g>
	<g>
		<line fill-rule="evenodd" clip-rule="evenodd" fill="#006837" x1="360" y1="0" x2="360" y2="38"/>
		<line fill="none" stroke="#006837" stroke-width="3" stroke-miterlimit="10" x1="359.5" y1="0" x2="359.5" y2="38"/>
	</g>
</g>
<g>
	<g>
		<line fill-rule="evenodd" clip-rule="evenodd" fill="#006837" x1="680" y1="0" x2="680" y2="38"/>
		<line fill="none" stroke="#006837" stroke-width="3" stroke-miterlimit="10" x1="679.5" y1="0" x2="679.5" y2="38"/>
	</g>
	<g>
		<line fill-rule="evenodd" clip-rule="evenodd" fill="#006837" x1="676" y1="0" x2="676" y2="38"/>
		<line fill="none" stroke="#006837" stroke-width="3" stroke-miterlimit="10" x1="675.5" y1="0" x2="675.5" y2="38"/>
	</g>
	<g>
		<line fill-rule="evenodd" clip-rule="evenodd" fill="#006837" x1="672" y1="0" x2="672" y2="38"/>
		<line fill="none" stroke="#006837" stroke-width="3" stroke-miterlimit="10" x1="671.5" y1="0" x2="671.5" y2="38"/>
	</g>
	<g>
		<line fill-rule="evenodd" clip-rule="evenodd" fill="#006837" x1="668" y1="0" x2="668" y2="38"/>
		<line fill="none" stroke="#006837" stroke-width="3" stroke-miterlimit="10" x1="667.5" y1="0" x2="667.5" y2="38"/>
	</g>
	<g>
		<line fill-rule="evenodd" clip-rule="evenodd" fill="#006837" x1="664" y1="0" x2="664" y2="38"/>
		<line fill="none" stroke="#006837" stroke-width="3" stroke-miterlimit="10" x1="663.5" y1="0" x2="663.5" y2="38"/>
	</g>
	<g>
		<line fill-rule="evenodd" clip-rule="evenodd" fill="#006837" x1="660" y1="0" x2="660" y2="38"/>
		<line fill="none" stroke="#006837" stroke-width="3" stroke-miterlimit="10" x1="659.5" y1="0" x2="659.5" y2="38"/>
	</g>
	<g>
		<line fill-rule="evenodd" clip-rule="evenodd" fill="#006837" x1="656" y1="0" x2="656" y2="38"/>
		<line fill="none" stroke="#006837" stroke-width="3" stroke-miterlimit="10" x1="655.5" y1="0" x2="655.5" y2="38"/>
	</g>
	<g>
		<line fill-rule="evenodd" clip-rule="evenodd" fill="#006837" x1="652" y1="0" x2="652" y2="38"/>
		<line fill="none" stroke="#006837" stroke-width="3" stroke-miterlimit="10" x1="651.5" y1="0" x2="651.5" y2="38"/>
	</g>
	<g>
		<line fill-rule="evenodd" clip-rule="evenodd" fill="#006837" x1="648" y1="0" x2="648" y2="38"/>
		<line fill="none" stroke="#006837" stroke-width="3" stroke-miterlimit="10" x1="647.5" y1="0" x2="647.5" y2="38"/>
	</g>
	<g>
		<line fill-rule="evenodd" clip-rule="evenodd" fill="#006837" x1="644" y1="0" x2="644" y2="38"/>
		<line fill="none" stroke="#006837" stroke-width="3" stroke-miterlimit="10" x1="643.5" y1="0" x2="643.5" y2="38"/>
	</g>
	<g>
		<line fill-rule="evenodd" clip-rule="evenodd" fill="#006837" x1="640" y1="0" x2="640" y2="38"/>
		<line fill="none" stroke="#006837" stroke-width="3" stroke-miterlimit="10" x1="639.5" y1="0" x2="639.5" y2="38"/>
	</g>
	<g>
		<line fill-rule="evenodd" clip-rule="evenodd" fill="#006837" x1="636" y1="0" x2="636" y2="38"/>
		<line fill="none" stroke="#006837" stroke-width="3" stroke-miterlimit="10" x1="635.5" y1="0" x2="635.5" y2="38"/>
	</g>
	<g>
		<line fill-rule="evenodd" clip-rule="evenodd" fill="#006837" x1="632" y1="0" x2="632" y2="38"/>
		<line fill="none" stroke="#006837" stroke-width="3" stroke-miterlimit="10" x1="631.5" y1="0" x2="631.5" y2="38"/>
	</g>
	<g>
		<line fill-rule="evenodd" clip-rule="evenodd" fill="#006837" x1="628" y1="0" x2="628" y2="38"/>
		<line fill="none" stroke="#006837" stroke-width="3" stroke-miterlimit="10" x1="627.5" y1="0" x2="627.5" y2="38"/>
	</g>
	<g>
		<line fill-rule="evenodd" clip-rule="evenodd" fill="#006837" x1="624" y1="0" x2="624" y2="38"/>
		<line fill="none" stroke="#006837" stroke-width="3" stroke-miterlimit="10" x1="623.5" y1="0" x2="623.5" y2="38"/>
	</g>
	<g>
		<line fill-rule="evenodd" clip-rule="evenodd" fill="#006837" x1="620" y1="0" x2="620" y2="38"/>
		<line fill="none" stroke="#006837" stroke-width="3" stroke-miterlimit="10" x1="619.5" y1="0" x2="619.5" y2="38"/>
	</g>
	<g>
		<line fill-rule="evenodd" clip-rule="evenodd" fill="#006837" x1="616" y1="0" x2="616" y2="38"/>
		<line fill="none" stroke="#006837" stroke-width="3" stroke-miterlimit="10" x1="615.5" y1="0" x2="615.5" y2="38"/>
	</g>
	<g>
		<line fill-rule="evenodd" clip-rule="evenodd" fill="#006837" x1="612" y1="0" x2="612" y2="38"/>
		<line fill="none" stroke="#006837" stroke-width="3" stroke-miterlimit="10" x1="611.5" y1="0" x2="611.5" y2="38"/>
	</g>
	<g>
		<line fill-rule="evenodd" clip-rule="evenodd" fill="#006837" x1="608" y1="0" x2="608" y2="38"/>
		<line fill="none" stroke="#006837" stroke-width="3" stroke-miterlimit="10" x1="607.5" y1="0" x2="607.5" y2="38"/>
	</g>
	<g>
		<line fill-rule="evenodd" clip-rule="evenodd" fill="#006837" x1="604" y1="0" x2="604" y2="38"/>
		<line fill="none" stroke="#006837" stroke-width="3" stroke-miterlimit="10" x1="603.5" y1="0" x2="603.5" y2="38"/>
	</g>
	<g>
		<line fill-rule="evenodd" clip-rule="evenodd" fill="#006837" x1="600" y1="0" x2="600" y2="38"/>
		<line fill="none" stroke="#006837" stroke-width="3" stroke-miterlimit="10" x1="599.5" y1="0" x2="599.5" y2="38"/>
	</g>
	<g>
		<line fill-rule="evenodd" clip-rule="evenodd" fill="#006837" x1="596" y1="0" x2="596" y2="38"/>
		<line fill="none" stroke="#006837" stroke-width="3" stroke-miterlimit="10" x1="595.5" y1="0" x2="595.5" y2="38"/>
	</g>
	<g>
		<line fill-rule="evenodd" clip-rule="evenodd" fill="#006837" x1="592" y1="0" x2="592" y2="38"/>
		<line fill="none" stroke="#006837" stroke-width="3" stroke-miterlimit="10" x1="591.5" y1="0" x2="591.5" y2="38"/>
	</g>
	<g>
		<line fill-rule="evenodd" clip-rule="evenodd" fill="#006837" x1="588" y1="0" x2="588" y2="38"/>
		<line fill="none" stroke="#006837" stroke-width="3" stroke-miterlimit="10" x1="587.5" y1="0" x2="587.5" y2="38"/>
	</g>
	<g>
		<line fill-rule="evenodd" clip-rule="evenodd" fill="#006837" x1="584" y1="0" x2="584" y2="38"/>
		<line fill="none" stroke="#006837" stroke-width="3" stroke-miterlimit="10" x1="583.5" y1="0" x2="583.5" y2="38"/>
	</g>
	<g>
		<line fill-rule="evenodd" clip-rule="evenodd" fill="#006837" x1="580" y1="0" x2="580" y2="38"/>
		<line fill="none" stroke="#006837" stroke-width="3" stroke-miterlimit="10" x1="579.5" y1="0" x2="579.5" y2="38"/>
	</g>
	<g>
		<line fill-rule="evenodd" clip-rule="evenodd" fill="#006837" x1="576" y1="0" x2="576" y2="38"/>
		<line fill="none" stroke="#006837" stroke-width="3" stroke-miterlimit="10" x1="575.5" y1="0" x2="575.5" y2="38"/>
	</g>
	<g>
		<line fill-rule="evenodd" clip-rule="evenodd" fill="#006837" x1="572" y1="0" x2="572" y2="38"/>
		<line fill="none" stroke="#006837" stroke-width="3" stroke-miterlimit="10" x1="571.5" y1="0" x2="571.5" y2="38"/>
	</g>
	<g>
		<line fill-rule="evenodd" clip-rule="evenodd" fill="#006837" x1="568" y1="0" x2="568" y2="38"/>
		<line fill="none" stroke="#006837" stroke-width="3" stroke-miterlimit="10" x1="567.5" y1="0" x2="567.5" y2="38"/>
	</g>
</g>
</svg>
