<?xml version="1.0" encoding="utf-8"?>
<!-- Generator: Adobe Illustrator 16.0.3, SVG Export Plug-In . SVG Version: 6.00 Build 0)  -->
<!DOCTYPE svg PUBLIC "-//W3C//DTD SVG 1.1//EN" "http://www.w3.org/Graphics/SVG/1.1/DTD/svg11.dtd">
<svg version="1.1" id="Layer_1" xmlns="http://www.w3.org/2000/svg" xmlns:xlink="http://www.w3.org/1999/xlink" x="0px" y="0px"
	 width="760px" height="136.629px" viewBox="0 0 760 136.629" enable-background="new 0 0 760 136.629" xml:space="preserve">
<line fill-rule="evenodd" clip-rule="evenodd" fill="#006837" stroke="#000000" stroke-width="2" stroke-miterlimit="10" x1="5" y1="63.033" x2="759" y2="63.033"/>
<line fill-rule="evenodd" clip-rule="evenodd" fill="#006837" stroke="#000000" stroke-width="2" stroke-miterlimit="10" x1="5" y1="55.033" x2="5" y2="68.033"/>
<line fill-rule="evenodd" clip-rule="evenodd" fill="#006837" stroke="#000000" stroke-width="2" stroke-miterlimit="10" x1="759" y1="55.033" x2="759" y2="68.033"/>
<line fill-rule="evenodd" clip-rule="evenodd" fill="#006837" stroke="#000000" stroke-width="2" stroke-miterlimit="10" x1="105" y1="56.033" x2="105" y2="69.033"/>
<line fill-rule="evenodd" clip-rule="evenodd" fill="#006837" stroke="#000000" stroke-width="2" stroke-miterlimit="10" x1="205" y1="56.033" x2="205" y2="69.033"/>
<line fill-rule="evenodd" clip-rule="evenodd" fill="#006837" stroke="#000000" stroke-width="2" stroke-miterlimit="10" x1="305" y1="55.033" x2="305" y2="68.033"/>
<line fill-rule="evenodd" clip-rule="evenodd" fill="#006837" stroke="#000000" stroke-width="2" stroke-miterlimit="10" x1="405" y1="55.033" x2="405" y2="68.033"/>
<line fill-rule="evenodd" clip-rule="evenodd" fill="#006837" stroke="#000000" stroke-width="2" stroke-miterlimit="10" x1="505" y1="56.033" x2="505" y2="69.033"/>
<line fill-rule="evenodd" clip-rule="evenodd" fill="#006837" stroke="#000000" stroke-width="2" stroke-miterlimit="10" x1="606" y1="56.033" x2="606" y2="69.033"/>
<line fill-rule="evenodd" clip-rule="evenodd" fill="#006837" stroke="#000000" stroke-width="2" stroke-miterlimit="10" x1="705" y1="56.033" x2="705" y2="69.033"/>
<text transform="matrix(1 0 0 1 100 88.0332)" font-family="'MyriadPro-Regular'" font-size="18">1</text>
<text transform="matrix(1 0 0 1 200 88.0332)" font-family="'MyriadPro-Regular'" font-size="18">2</text>
<text transform="matrix(1 0 0 1 299 88.0332)" font-family="'MyriadPro-Regular'" font-size="18">3</text>
<text transform="matrix(1 0 0 1 400 88.0332)" font-family="'MyriadPro-Regular'" font-size="18">4</text>
<text transform="matrix(1 0 0 1 500 88.0332)" font-family="'MyriadPro-Regular'" font-size="18">5</text>
<text transform="matrix(1 0 0 1 601 88.0332)" font-family="'MyriadPro-Regular'" font-size="18">6</text>
<text transform="matrix(1 0 0 1 699 88.0332)" font-family="'MyriadPro-Regular'" font-size="18">7</text>
<text transform="matrix(1 0 0 1 323 129.0332)" font-family="'HelveticaNeueLight'" font-size="36">Seconds</text>
<text transform="matrix(1 0 0 1 0 88.0332)" font-family="'MyriadPro-Regular'" font-size="18">0</text>
<g>
	<path fill-rule="evenodd" clip-rule="evenodd" fill="#006837" d="M207.846,31.631c3.915-10.043,3.933-19.854,0.806-31.031
		c-1.508,3.387-2.457,5.517-3.949,8.865c-1.434-3.684-2.301-5.909-3.686-9.465c-1.114,4.277-1.813,6.962-2.513,9.648
		c-0.497-0.018-0.993-0.037-1.49-0.055c-0.606-2.604-1.211-5.21-1.817-7.816c-0.392,0.018-0.784,0.035-1.175,0.053
		c-0.858,2.638-1.716,5.276-2.574,7.914c-0.503,0.018-1.006,0.035-1.508,0.053c-0.813-2.661-1.625-5.323-2.877-9.427
		c-1.145,4.097-1.863,6.668-2.581,9.239c-0.44-0.061-0.88-0.121-1.321-0.182c-0.521-2.659-1.042-5.319-1.562-7.979
		c-0.459,0-0.918,0.001-1.377,0.001c-0.635,2.849-1.27,5.697-1.904,8.544c-0.37-0.021-0.739-0.043-1.108-0.064
		c-0.884-3.026-1.769-6.053-2.653-9.08c-0.502,0.129-1.003,0.258-1.505,0.386c-0.646,2.958-1.292,5.915-1.938,8.872
		c-0.506-0.045-1.013-0.09-1.519-0.135c-0.877-2.9-1.755-5.802-2.634-8.705c-0.44,0.058-0.881,0.115-1.321,0.173
		c-0.542,2.656-1.083,5.312-1.625,7.967c-0.453,0.119-0.905,0.238-1.358,0.357c-0.793-2.587-1.586-5.174-2.653-8.651
		c-1.693,3.418-2.98,6.019-4.267,8.618c-0.394-0.16-0.787-0.32-1.18-0.48c-0.475-2.6-0.949-5.2-1.424-7.8
		c-0.391-0.008-0.783-0.016-1.174-0.023c-0.709,2.854-1.419,5.706-2.127,8.558c-0.362-0.016-0.724-0.029-1.086-0.045
		c-0.72-2.852-1.439-5.704-2.159-8.555c-0.331,0.02-0.661,0.039-0.991,0.06c-0.95,2.9-1.899,5.8-2.849,8.701
		c-0.371-0.098-0.741-0.195-1.112-0.293c-0.693-2.968-1.386-5.935-2.08-8.903c-0.39,0.053-0.779,0.104-1.169,0.157
		c-0.722,2.862-1.445,5.723-2.167,8.584c-0.479-0.004-0.958-0.01-1.436-0.014c-0.705-2.839-1.41-5.677-2.115-8.517
		c-0.344,0.007-0.688,0.014-1.031,0.021c-0.848,2.768-1.695,5.535-2.542,8.303c-0.453-0.031-0.906-0.063-1.359-0.094
		c-0.338-1.348-0.676-2.695-1.013-4.043c-0.361-1.439-0.722-2.877-1.083-4.315c-0.416,0.013-0.832,0.025-1.248,0.038
		c-0.832,3-1.664,6.001-2.496,9.002c-0.41-0.021-0.82-0.043-1.229-0.063c-0.881-3.081-1.761-6.161-2.642-9.24
		c-0.384,0.128-0.767,0.257-1.151,0.385c-0.658,2.565-1.317,5.129-1.975,7.694c-0.366-0.028-0.731-0.057-1.097-0.085
		c-0.971-2.635-1.942-5.269-2.914-7.903c-0.348,0.109-0.695,0.219-1.043,0.329c-0.758,2.919-1.517,5.839-2.275,8.758
		c-0.611-0.055-1.223-0.111-1.835-0.168c-0.672-2.845-1.344-5.689-2.016-8.534c-0.43-0.037-0.859-0.074-1.289-0.111
		c-0.644,2.863-1.288,5.725-1.932,8.586c-0.416-0.039-0.83-0.078-1.245-0.117c-0.635-2.669-1.27-5.337-1.904-8.007
		c-0.415-0.01-0.83-0.02-1.245-0.029c-0.926,2.728-1.853,5.456-2.78,8.183c-0.41-0.041-0.82-0.082-1.229-0.123
		c-0.72-2.653-1.439-5.307-2.159-7.961c-0.494,0.005-0.989,0.01-1.483,0.016c-0.626,2.545-1.253,5.09-1.88,7.635
		c-0.438-0.043-0.876-0.088-1.314-0.131c-0.54-2.733-1.079-5.466-1.618-8.2c-0.392-0.016-0.783-0.032-1.175-0.049
		c-0.865,2.649-1.73,5.299-2.595,7.948c-0.363-0.074-0.727-0.149-1.09-0.224c-0.646-2.567-1.292-5.133-1.938-7.7
		c-0.316-0.01-0.633-0.02-0.951-0.03c-0.968,3.009-1.937,6.019-2.905,9.026c-0.454-0.072-0.908-0.146-1.362-0.221
		c-0.682-2.96-1.363-5.919-2.044-8.878c-0.407,0.029-0.813,0.06-1.22,0.09c-0.876,2.761-1.752,5.523-2.628,8.284
		c-0.342-0.07-0.684-0.139-1.026-0.209c-0.861-2.949-1.722-5.898-2.583-8.846c-0.384,0.063-0.768,0.128-1.152,0.192
		C60.202,4,59.434,7.628,58.666,11.258c-0.466-0.135-0.933-0.27-1.399-0.404c-0.693-2.957-1.385-5.915-2.078-8.873
		c-0.553,0.063-1.105,0.126-1.658,0.189c-0.583,2.734-1.167,5.467-1.751,8.201c-0.442,0.041-0.885,0.082-1.327,0.123
		c-0.855-2.506-1.71-5.013-3.005-8.808c-1.198,3.956-1.955,6.457-3.082,10.175c-1.525-3.058-2.4-4.814-3.492-7.002
		c-1.33,2.779-2.386,4.986-3.914,8.183c-1.479-3.138-2.41-5.114-3.7-7.854c-1.084,2.858-1.854,4.888-2.932,7.732
		c-1.619-2.282-2.536-3.573-3.747-5.279c-1.167,2.144-2.115,3.882-3.359,6.167c-1.465-1.797-2.532-3.107-3.853-4.729
		c-1.129,1.82-2.085,3.359-3.154,5.082c-1.447-1.297-2.46-2.203-3.797-3.4C10.781,14.961,8.505,14.785,5,10.814
		c0,4.596,0,7.674,0,11.964c2.435-2.161,3.564-3.163,4.899-4.347c1.148,1.482,2.003,2.587,2.886,3.728
		c1.269-1.103,2.308-2.003,3.495-3.034c1.18,1.734,2.126,3.125,3.159,4.644c1.346-1.573,2.378-2.781,3.794-4.438
		c1.387,2.195,2.517,3.984,3.747,5.932c1.187-1.615,2.09-2.845,3.33-4.532c1.115,2.326,1.955,4.077,2.924,6.095
		c1.458-2.232,2.553-3.909,4.267-6.533c1.151,3.639,1.849,5.846,2.548,8.052c0.375-0.03,0.751-0.061,1.126-0.091
		c0.831-2.01,1.662-4.021,2.95-7.135c1.079,3.545,1.833,6.02,2.586,8.495c0.369-0.001,0.738-0.002,1.106-0.003
		c0.853-2.314,1.706-4.629,2.559-6.942c0.45-0.025,0.899-0.05,1.349-0.075c0.75,2.973,1.499,5.943,2.248,8.915
		c0.382,0.026,0.765,0.053,1.147,0.079c0.785-2.691,1.569-5.383,2.354-8.074c0.483,0.021,0.967,0.041,1.451,0.062
		c0.773,2.819,1.547,5.637,2.32,8.456c0.348-0.018,0.695-0.035,1.043-0.053c0.826-2.842,1.651-5.684,2.478-8.524
		c0.473,0.057,0.945,0.113,1.417,0.17c0.621,2.856,1.241,5.712,1.862,8.567c0.42-0.012,0.84-0.023,1.26-0.035
		c0.778-3.077,1.556-6.154,2.334-9.232c0.492-0.001,0.985-0.002,1.477-0.003c0.824,3.038,1.648,6.076,2.472,9.114
		c0.33-0.047,0.659-0.095,0.988-0.143c0.877-2.938,1.754-5.873,2.632-8.811c0.466,0.047,0.932,0.093,1.398,0.139
		c0.542,2.82,1.084,5.639,1.626,8.459c0.361-0.033,0.723-0.066,1.084-0.101c0.765-2.139,1.529-4.276,2.761-7.721
		c1.196,3.823,1.954,6.249,3.13,10.011c1.358-4.213,2.211-6.859,3.063-9.506c0.488,0.008,0.975,0.014,1.463,0.021
		c0.739,2.588,1.478,5.175,2.217,7.762c0.349-0.027,0.698-0.057,1.047-0.086c0.754-2.778,1.509-5.557,2.264-8.336
		c0.41,0.038,0.82,0.076,1.23,0.114c0.647,2.808,1.295,5.615,1.943,8.423c0.473-0.025,0.946-0.053,1.419-0.078
		c0.291-1.51,0.376-3.101,0.93-4.506c0.525-1.334,1.541-2.473,2.34-3.695c0.729,1.344,1.658,2.623,2.125,4.052
		c0.406,1.239,0.288,2.65,0.402,3.985c0.484,0.059,0.967,0.117,1.451,0.176c0.762-2.951,1.525-5.902,2.287-8.853
		c0.467-0.005,0.934-0.011,1.4-0.017c0.688,2.924,1.377,5.848,2.066,8.771c1.586-1.682,1.977-3.223,2.297-4.777
		c0.327-1.582,0.584-3.176,0.873-4.765c0.522-0.041,1.044-0.082,1.565-0.124c1.009,3.201,2.017,6.4,3.025,9.602
		c0.324-0.036,0.647-0.073,0.971-0.109c0.868-2.832,1.735-5.664,2.604-8.494c0.515,0.067,1.031,0.135,1.546,0.202
		c0.505,2.851,1.01,5.7,1.514,8.55c0.452,0.008,0.903,0.014,1.355,0.021c0.829-2.754,1.658-5.508,2.486-8.26
		c0.432,0.04,0.863,0.081,1.294,0.122c0.638,2.835,1.276,5.669,1.914,8.503c0.349-0.033,0.699-0.064,1.048-0.098
		c0.837-2.777,1.673-5.555,2.51-8.332c0.49,0.031,0.981,0.063,1.472,0.095c0.643,2.61,1.285,5.222,1.927,7.833
		c0.35-0.031,0.699-0.063,1.047-0.096c0.858-2.609,1.717-5.219,2.575-7.827c0.491,0.137,0.982,0.272,1.472,0.409
		c0.502,2.527,1.004,5.053,1.506,7.58c0.401-0.053,0.801-0.103,1.202-0.154c0.759-2.684,1.517-5.367,2.276-8.051
		c0.42-0.001,0.841-0.002,1.262-0.002c0.77,2.748,1.539,5.497,2.308,8.246c0.431-0.025,0.863-0.051,1.294-0.076
		c0.758-2.575,1.515-5.15,2.272-7.727c0.475,0.025,0.95,0.053,1.426,0.08c0.707,2.643,1.414,5.286,2.121,7.928
		c0.359-0.006,0.718-0.014,1.077-0.021c0.925-2.921,1.85-5.84,2.774-8.761c0.521,0.106,1.042,0.212,1.563,0.318
		c0.561,2.729,1.122,5.457,1.682,8.187c0.398,0.008,0.797,0.016,1.195,0.023c0.687-2.468,1.374-4.936,2.06-7.402
		c0.444-0.027,0.889-0.057,1.333-0.084c0.919,2.414,1.839,4.829,3.199,8.398c1.037-3.285,1.705-5.4,2.729-8.646
		c1.425,3.369,2.335,5.521,3.829,9.051c0.808-3.482,1.152-5.537,1.802-7.488c0.256-0.77,1.193-1.313,1.82-1.957
		c0.602,0.672,1.473,1.248,1.752,2.033c0.676,1.907,1.075,3.912,1.586,5.878c0.305-0.01,0.609-0.019,0.914-0.028
		c0.686-2.71,1.371-5.42,2.056-8.129c0.384-0.009,0.768-0.018,1.151-0.026c0.756,2.673,1.512,5.345,2.638,9.327
		c1.164-3.806,1.948-6.373,2.733-8.94c0.422,0.031,0.845,0.063,1.268,0.095C206.071,26.678,206.958,29.154,207.846,31.631z
		 M606.18,31.718c0.336,0.008,0.67,0.016,1.006,0.023c0.752-2.201,1.504-4.401,2.662-7.788c1.299,3.648,2.176,6.11,3.439,9.656
		c1.283-4.048,2.111-6.664,2.941-9.281c0.52,0.061,1.041,0.123,1.561,0.186c0.668,2.516,1.336,5.03,2.004,7.545
		c0.342,0.018,0.684,0.035,1.025,0.051c0.842-2.79,1.684-5.582,2.525-8.372c1.504,1.634,1.754,3.048,2.094,4.441
		c0.334,1.377,0.758,2.732,1.143,4.097c0.434-0.064,0.865-0.127,1.299-0.191c0.266-1.563,0.344-3.191,0.857-4.67
		c0.434-1.25,1.371-2.326,2.086-3.48c0.813,1.279,1.873,2.471,2.365,3.863c0.465,1.32,0.336,2.853,0.467,4.291
		c0.447,0.02,0.896,0.037,1.346,0.057c0.811-2.937,1.621-5.873,2.432-8.811c0.457,0.036,0.912,0.071,1.369,0.107
		c0.648,2.861,1.295,5.723,1.943,8.584c0.445-0.003,0.889-0.006,1.334-0.01c0.607-3.147,1.215-6.295,1.824-9.442
		c0.516-0.051,1.033-0.101,1.549-0.151c1.023,3.18,2.045,6.359,3.547,11.027c1.379-4.287,2.299-7.143,3.219-9.999
		c0.492,0.116,0.982,0.232,1.475,0.348c0.545,2.798,1.09,5.596,1.635,8.394c0.447-0.035,0.893-0.068,1.338-0.104
		c0.758-2.694,1.516-5.389,2.273-8.084c0.43,0.008,0.859,0.016,1.289,0.022c0.68,2.849,1.357,5.698,2.037,8.548
		c0.283,0,0.568,0,0.852,0c0.93-2.825,1.857-5.65,2.787-8.478c0.477,0.079,0.955,0.158,1.432,0.237
		c0.615,2.568,1.232,5.136,1.848,7.703c0.297,0.006,0.596,0.01,0.895,0.016c0.928-2.629,1.855-5.26,2.781-7.889
		c0.441,0.094,0.883,0.188,1.326,0.281c0.557,2.543,1.115,5.084,1.672,7.625c0.361-0.002,0.723-0.004,1.082-0.008
		c0.756-2.686,1.514-5.371,2.27-8.056c0.379-0.035,0.758-0.071,1.135-0.106c0.891,2.768,1.779,5.534,2.67,8.301
		c0.398-0.074,0.797-0.148,1.195-0.223c0.699-2.525,1.398-5.051,2.098-7.574c0.471-0.025,0.941-0.051,1.41-0.074
		c0.736,2.652,1.473,5.305,2.209,7.957c0.369,0.051,0.74,0.102,1.111,0.15c0.912-2.949,1.824-5.898,2.736-8.848
		c0.521,0.061,1.043,0.122,1.564,0.183c0.574,2.776,1.146,5.554,1.721,8.331c0.422-0.035,0.844-0.07,1.264-0.104
		c0.639-2.409,1.275-4.817,1.912-7.228c0.408-0.064,0.816-0.131,1.223-0.195c1.023,2.428,2.047,4.856,3.547,8.414
		c0.93-3.339,1.506-5.404,2.395-8.59c1.529,3.303,2.545,5.494,4.111,8.875c0.768-3.485,1.129-5.57,1.727-7.584
		c0.197-0.664,1.207-1.705,1.504-1.602c0.783,0.273,1.721,0.961,1.982,1.699c0.707,1.998,1.096,4.106,1.609,6.171
		c0.344-0.062,0.688-0.124,1.033-0.186c0.621-2.641,1.242-5.28,1.863-7.921c0.377-0.047,0.752-0.094,1.129-0.14
		c0.818,2.687,1.637,5.374,2.895,9.507c1.07-4.038,1.736-6.547,2.402-9.055c0.465-0.012,0.93-0.022,1.396-0.034
		c0.932,2.519,1.863,5.037,2.795,7.556c3.715-10.19,4.023-19.996,0.643-30.841c-1.48,3.217-2.451,5.326-3.979,8.644
		c-1.334-3.783-2.105-5.969-2.875-8.156c-0.336,0.061-0.67,0.121-1.004,0.182c-0.729,2.688-1.459,5.375-2.188,8.062
		c-0.449,0.02-0.898,0.039-1.348,0.059c-0.672-2.586-1.342-5.171-2.014-7.758c-0.354-0.047-0.705-0.095-1.059-0.143
		c-0.93,2.693-1.859,5.385-2.791,8.077c-0.498-0.027-0.996-0.055-1.496-0.084c-0.711-2.62-1.422-5.241-2.133-7.862
		c-0.367-0.009-0.732-0.018-1.1-0.025c-0.641,2.594-1.283,5.186-1.926,7.78c-0.451-0.021-0.902-0.043-1.354-0.063
		c-0.621-2.693-1.24-5.386-1.859-8.08c-0.387,0.048-0.773,0.095-1.16,0.143c-0.701,2.787-1.4,5.574-2.102,8.361
		c-0.33-0.059-0.662-0.117-0.992-0.176c-0.936-2.997-1.871-5.994-2.807-8.989c-0.447,0.187-0.896,0.374-1.344,0.56
		c-0.635,2.891-1.271,5.781-1.904,8.671c-0.521,0.004-1.043,0.006-1.564,0.01c-0.805-2.918-1.611-5.835-2.416-8.753
		c-0.465,0.016-0.928,0.032-1.391,0.048c-0.615,2.722-1.23,5.443-1.846,8.165c-0.428,0.078-0.859,0.156-1.289,0.234
		c-0.799-2.598-1.598-5.195-2.746-8.93c-1.643,3.791-2.764,6.381-3.885,8.971c-0.447-0.129-0.893-0.258-1.338-0.389
		c-0.518-2.649-1.033-5.299-1.549-7.95c-0.348-0.04-0.697-0.08-1.045-0.12c-0.77,2.899-1.539,5.799-2.309,8.699
		c-1.443-1.587-1.689-3.011-2.041-4.408c-0.357-1.415-0.818-2.803-1.234-4.203c-0.426,0.062-0.854,0.123-1.281,0.185
		c-0.281,1.396-0.471,2.819-0.867,4.181c-0.426,1.472-1.045,2.888-1.58,4.327c-0.359-0.057-0.719-0.113-1.078-0.172
		c-0.68-3.027-1.357-6.055-2.037-9.083c-0.398,0.023-0.799,0.047-1.197,0.07c-0.717,2.914-1.434,5.827-2.15,8.741
		c-0.439,0.029-0.879,0.059-1.316,0.088c-0.799-2.874-1.596-5.747-2.393-8.619c-0.324,0.053-0.648,0.106-0.973,0.16
		c-0.875,2.739-1.748,5.478-2.621,8.217c-0.395-0.084-0.787-0.168-1.182-0.254c-0.783-2.738-1.566-5.476-2.352-8.214
		c-0.359,0.073-0.721,0.146-1.082,0.219c-0.867,2.954-1.734,5.909-2.604,8.862c-0.377-0.063-0.756-0.123-1.135-0.186
		c-0.84-3.065-1.682-6.131-2.521-9.197c-0.424,0.084-0.848,0.168-1.271,0.252c-0.588,2.594-1.176,5.188-1.764,7.783
		c-0.424,0.021-0.848,0.043-1.273,0.065c-0.92-2.658-1.842-5.315-2.764-7.973c-0.361,0.077-0.723,0.153-1.084,0.229
		c-0.826,2.958-1.65,5.916-2.477,8.873c-0.631-0.096-1.262-0.191-1.893-0.287c-0.605-2.853-1.211-5.705-1.816-8.558
		c-0.484,0.001-0.969,0.002-1.451,0.003c-0.568,2.866-1.137,5.731-1.705,8.598c-0.395-0.002-0.787-0.004-1.182-0.008
		c-0.75-2.723-1.5-5.447-2.25-8.17c-0.391,0.047-0.783,0.094-1.174,0.142c-0.873,2.677-1.746,5.354-2.621,8.031
		c-0.402-0.002-0.805-0.004-1.205-0.006c-0.793-2.704-1.588-5.41-2.381-8.115c-0.473,0.049-0.947,0.097-1.422,0.145
		c-0.568,2.525-1.137,5.049-1.705,7.574c-0.441-0.008-0.883-0.018-1.324-0.025c-0.598-2.784-1.197-5.569-1.795-8.354
		c-0.391,0.019-0.783,0.037-1.174,0.056c-0.826,2.623-1.654,5.245-2.482,7.868c-0.416-0.116-0.834-0.232-1.25-0.349
		c-0.584-2.554-1.17-5.107-1.754-7.66c-0.48,0.028-0.963,0.056-1.445,0.084c-0.297,1.558-0.512,3.139-0.916,4.67
		c-0.385,1.456-0.971,2.86-1.469,4.288c-0.422-0.033-0.844-0.066-1.266-0.098c-0.783-2.992-1.568-5.983-2.352-8.974
		c-0.395,0.083-0.787,0.165-1.18,0.247c-0.793,2.685-1.588,5.369-2.381,8.055c-0.346-0.031-0.689-0.064-1.035-0.096
		c-0.967-2.958-1.932-5.917-2.898-8.875c-0.363,0.109-0.729,0.219-1.092,0.328c-0.699,3.573-1.396,7.146-2.096,10.719
		c-0.506-0.063-1.012-0.125-1.518-0.186c-0.648-3-1.297-6-1.943-9c-0.564,0.022-1.127,0.045-1.691,0.067
		c-0.643,2.784-1.287,5.568-1.932,8.352c-0.432,0-0.861-0.002-1.293-0.002c-0.852-2.51-1.701-5.02-2.918-8.616
		c-1.264,3.881-2.061,6.335-3.295,10.129c-1.406-3.234-2.152-4.946-3.127-7.192c-1.43,2.837-2.564,5.086-4.201,8.335
		c-1.465-3.317-2.326-5.268-3.703-8.386c-1.045,3.361-1.662,5.344-2.563,8.245c-1.791-2.281-2.822-3.594-4.178-5.319
		c-1.119,2.257-1.984,4.005-3.145,6.346c-1.631-2.06-2.678-3.382-3.891-4.911c-1.139,1.883-2.023,3.35-3.123,5.165
		c-1.35-1.292-2.34-2.239-3.904-3.737c-1.246,5.436-3.99,3.505-6.486,1.576c-2.916,3.072-2.408,5.971-0.613,8.89
		c0.213,0.348,0.805,0.463,1.568,0.872c0.67-1.3,1.338-2.592,2.199-4.266c1.896,2.258,2.811,3.345,3.764,4.48
		c1.221-0.964,2.391-1.889,3.705-2.928c1.072,1.777,1.881,3.117,2.83,4.689c1.43-1.581,2.563-2.835,4.082-4.514
		c1.33,2.29,2.344,4.038,3.51,6.045c1.246-1.614,2.244-2.909,3.555-4.606c1.057,2.36,1.813,4.05,2.723,6.085
		c1.406-2.164,2.514-3.865,4.191-6.447c1.207,3.433,1.979,5.631,3.178,9.042c1.41-3.157,2.313-5.177,3.645-8.159
		c1.109,3.504,1.883,5.951,3.094,9.773c1.461-3.84,2.326-6.119,3.193-8.396c0.434,0.023,0.869,0.047,1.303,0.07
		c0.764,2.961,1.527,5.922,2.289,8.883c0.34-0.021,0.678-0.04,1.016-0.061c0.861-2.68,1.723-5.357,2.584-8.036
		c0.428,0.066,0.857,0.134,1.285,0.201c0.746,2.739,1.494,5.478,2.242,8.218c0.359,0.035,0.719,0.07,1.078,0.105
		c0.85-2.867,1.699-5.734,2.549-8.601c0.51,0.113,1.021,0.228,1.531,0.341c0.252,1.412,0.459,2.834,0.766,4.234
		c0.311,1.416,0.719,2.81,1.086,4.213c0.396-0.043,0.795-0.084,1.193-0.125c0.705-3.038,1.408-6.076,2.111-9.114
		c0.535-0.04,1.072-0.081,1.607-0.121c0.818,3.056,1.635,6.11,2.453,9.166c0.326,0.006,0.652,0.012,0.979,0.017
		c0.846-2.977,1.691-5.953,2.535-8.929c0.486,0.02,0.973,0.038,1.457,0.058C605.037,26.012,605.609,28.864,606.18,31.718z"/>
	<path fill-rule="evenodd" clip-rule="evenodd" fill="#006837" d="M207.846,31.631c-0.888-2.477-1.775-4.953-2.663-7.43
		c-0.423-0.031-0.846-0.063-1.268-0.095c-0.785,2.567-1.569,5.135-2.733,8.94c-1.126-3.982-1.882-6.654-2.638-9.327
		c-0.384,0.009-0.768,0.018-1.151,0.026c-0.686,2.709-1.371,5.419-2.056,8.129c-0.305,0.01-0.609,0.019-0.914,0.028
		c-0.511-1.966-0.911-3.971-1.586-5.878c-0.279-0.785-1.15-1.361-1.752-2.033c-0.626,0.645-1.564,1.188-1.82,1.957
		c-0.649,1.951-0.994,4.006-1.802,7.488c-1.494-3.53-2.404-5.682-3.829-9.051c-1.024,3.246-1.692,5.361-2.729,8.646
		c-1.36-3.569-2.279-5.984-3.199-8.398c-0.444,0.027-0.889,0.057-1.333,0.084c-0.687,2.467-1.374,4.935-2.06,7.402
		c-0.398-0.008-0.797-0.016-1.195-0.023c-0.561-2.729-1.122-5.457-1.682-8.187c-0.521-0.106-1.042-0.212-1.563-0.318
		c-0.924,2.921-1.849,5.84-2.774,8.761c-0.359,0.008-0.718,0.016-1.077,0.021c-0.707-2.642-1.414-5.285-2.121-7.928
		c-0.476-0.027-0.951-0.055-1.426-0.08c-0.757,2.576-1.515,5.151-2.272,7.727c-0.431,0.025-0.863,0.051-1.294,0.076
		c-0.77-2.749-1.539-5.498-2.308-8.246c-0.421,0-0.842,0.001-1.262,0.002c-0.759,2.684-1.517,5.367-2.276,8.051
		c-0.401,0.052-0.801,0.102-1.202,0.154c-0.502-2.527-1.004-5.053-1.506-7.58c-0.49-0.137-0.981-0.272-1.472-0.409
		c-0.858,2.608-1.716,5.218-2.575,7.827c-0.349,0.032-0.698,0.064-1.047,0.096c-0.642-2.611-1.284-5.223-1.927-7.833
		c-0.491-0.031-0.981-0.063-1.472-0.095c-0.837,2.777-1.673,5.555-2.51,8.332c-0.35,0.033-0.699,0.064-1.048,0.098
		c-0.638-2.834-1.276-5.668-1.914-8.503c-0.431-0.041-0.863-0.082-1.294-0.122c-0.829,2.752-1.657,5.506-2.486,8.26
		c-0.452-0.008-0.903-0.014-1.355-0.021c-0.504-2.85-1.009-5.699-1.514-8.55c-0.516-0.067-1.031-0.135-1.546-0.202
		c-0.868,2.83-1.736,5.662-2.604,8.494c-0.324,0.036-0.647,0.073-0.971,0.109c-1.008-3.201-2.017-6.4-3.025-9.602
		c-0.521,0.042-1.043,0.083-1.565,0.124c-0.288,1.589-0.546,3.183-0.873,4.765c-0.321,1.555-0.711,3.096-2.297,4.777
		c-0.689-2.924-1.378-5.848-2.066-8.771c-0.467,0.006-0.934,0.012-1.4,0.017c-0.762,2.95-1.525,5.901-2.287,8.853
		c-0.484-0.059-0.967-0.117-1.451-0.176c-0.114-1.335,0.004-2.746-0.402-3.985c-0.468-1.429-1.397-2.708-2.125-4.052
		c-0.8,1.223-1.815,2.361-2.34,3.695c-0.554,1.405-0.64,2.996-0.93,4.506c-0.473,0.025-0.946,0.053-1.419,0.078
		c-0.647-2.808-1.295-5.615-1.943-8.423c-0.411-0.038-0.82-0.076-1.23-0.114c-0.755,2.779-1.509,5.558-2.264,8.336
		c-0.35,0.029-0.699,0.059-1.047,0.086c-0.739-2.587-1.479-5.174-2.217-7.762c-0.488-0.008-0.975-0.014-1.463-0.021
		c-0.853,2.646-1.705,5.293-3.063,9.506c-1.176-3.762-1.935-6.188-3.13-10.011c-1.231,3.444-1.996,5.582-2.761,7.721
		c-0.361,0.034-0.723,0.067-1.084,0.101c-0.542-2.82-1.084-5.639-1.626-8.459c-0.466-0.046-0.932-0.092-1.398-0.139
		c-0.878,2.938-1.755,5.873-2.632,8.811c-0.33,0.048-0.659,0.096-0.988,0.143c-0.824-3.038-1.648-6.076-2.472-9.114
		c-0.492,0.001-0.985,0.002-1.477,0.003c-0.778,3.078-1.556,6.155-2.334,9.232c-0.419,0.012-0.84,0.023-1.26,0.035
		c-0.621-2.855-1.241-5.711-1.862-8.567c-0.473-0.057-0.945-0.113-1.417-0.17c-0.826,2.841-1.652,5.683-2.478,8.524
		c-0.348,0.018-0.696,0.035-1.043,0.053c-0.773-2.819-1.547-5.637-2.32-8.456c-0.484-0.021-0.967-0.041-1.451-0.062
		c-0.784,2.691-1.569,5.383-2.354,8.074c-0.382-0.026-0.765-0.053-1.147-0.079c-0.749-2.972-1.499-5.942-2.248-8.915
		c-0.449,0.025-0.899,0.05-1.349,0.075c-0.853,2.313-1.706,4.628-2.559,6.942c-0.369,0.001-0.738,0.002-1.106,0.003
		c-0.753-2.476-1.507-4.95-2.586-8.495c-1.288,3.114-2.119,5.125-2.95,7.135c-0.375,0.03-0.751,0.061-1.126,0.091
		c-0.699-2.206-1.397-4.413-2.548-8.052c-1.714,2.624-2.809,4.301-4.267,6.533c-0.969-2.018-1.809-3.769-2.924-6.095
		c-1.24,1.688-2.144,2.917-3.33,4.532c-1.23-1.947-2.36-3.736-3.747-5.932c-1.417,1.657-2.449,2.865-3.794,4.438
		c-1.032-1.519-1.979-2.909-3.159-4.644c-1.187,1.031-2.226,1.932-3.495,3.034c-0.883-1.141-1.738-2.245-2.886-3.728
		C8.564,19.615,7.435,20.617,5,22.778c0-4.29,0-7.368,0-11.964c3.505,3.971,5.781,4.146,7.419-0.053
		c1.337,1.197,2.35,2.104,3.797,3.4c1.069-1.723,2.025-3.262,3.154-5.082c1.321,1.621,2.388,2.932,3.853,4.729
		c1.244-2.285,2.191-4.023,3.359-6.167c1.21,1.706,2.127,2.997,3.747,5.279c1.078-2.845,1.848-4.874,2.932-7.732
		c1.29,2.739,2.221,4.716,3.7,7.854c1.528-3.196,2.584-5.403,3.914-8.183c1.091,2.188,1.966,3.944,3.492,7.002
		c1.127-3.719,1.884-6.22,3.082-10.175c1.295,3.795,2.15,6.302,3.005,8.808c0.442-0.041,0.885-0.082,1.327-0.123
		c0.584-2.733,1.168-5.467,1.751-8.201c0.552-0.063,1.105-0.126,1.658-0.189c0.692,2.958,1.385,5.916,2.078,8.873
		c0.466,0.135,0.933,0.27,1.399,0.404C59.434,7.628,60.202,4,60.97,0.37c0.384-0.064,0.768-0.129,1.152-0.192
		c0.861,2.948,1.722,5.896,2.583,8.846c0.342,0.07,0.684,0.139,1.026,0.209c0.876-2.761,1.752-5.523,2.628-8.284
		c0.407-0.03,0.813-0.061,1.22-0.09c0.681,2.958,1.362,5.918,2.044,8.878c0.454,0.074,0.908,0.148,1.362,0.221
		c0.968-3.008,1.937-6.017,2.905-9.026c0.317,0.011,0.634,0.021,0.951,0.03c0.646,2.567,1.292,5.133,1.938,7.7
		c0.363,0.074,0.727,0.149,1.09,0.224c0.865-2.649,1.729-5.299,2.595-7.948c0.392,0.017,0.784,0.033,1.175,0.049
		c0.54,2.734,1.079,5.467,1.618,8.2c0.438,0.043,0.876,0.088,1.314,0.131c0.627-2.545,1.254-5.09,1.88-7.635
		c0.495-0.006,0.989-0.011,1.483-0.016c0.72,2.654,1.439,5.308,2.159,7.961c0.409,0.041,0.819,0.082,1.229,0.123
		c0.927-2.728,1.854-5.456,2.78-8.183c0.415,0.01,0.83,0.02,1.245,0.029c0.635,2.67,1.27,5.338,1.904,8.007
		c0.415,0.039,0.83,0.078,1.245,0.117c0.644-2.861,1.288-5.723,1.932-8.586c0.43,0.037,0.859,0.074,1.289,0.111
		c0.671,2.845,1.344,5.689,2.016,8.534c0.612,0.057,1.224,0.113,1.835,0.168c0.758-2.919,1.517-5.838,2.275-8.758
		c0.348-0.11,0.696-0.22,1.043-0.329c0.971,2.634,1.942,5.269,2.914,7.903c0.366,0.028,0.731,0.057,1.097,0.085
		c0.658-2.565,1.317-5.129,1.975-7.694c0.384-0.128,0.767-0.257,1.151-0.385c0.881,3.08,1.761,6.159,2.642,9.24
		c0.41,0.02,0.82,0.041,1.229,0.063c0.832-3.001,1.664-6.001,2.496-9.002c0.416-0.013,0.832-0.025,1.248-0.038
		c0.361,1.438,0.722,2.876,1.083,4.315c0.337,1.348,0.675,2.695,1.013,4.043c0.453,0.031,0.906,0.063,1.359,0.094
		c0.848-2.768,1.695-5.535,2.542-8.303c0.343-0.007,0.687-0.014,1.031-0.021c0.705,2.839,1.41,5.678,2.115,8.517
		c0.479,0.004,0.957,0.01,1.436,0.014c0.723-2.861,1.445-5.722,2.167-8.584c0.39-0.053,0.779-0.104,1.169-0.157
		c0.693,2.968,1.386,5.936,2.08,8.903c0.371,0.098,0.741,0.195,1.112,0.293c0.949-2.9,1.899-5.8,2.849-8.701
		c0.331-0.021,0.661-0.04,0.991-0.06c0.72,2.852,1.439,5.704,2.159,8.555c0.362,0.016,0.724,0.029,1.086,0.045
		c0.708-2.853,1.418-5.705,2.127-8.558c0.391,0.008,0.783,0.016,1.174,0.023c0.475,2.601,0.949,5.201,1.424,7.8
		c0.394,0.16,0.787,0.32,1.18,0.48c1.287-2.6,2.574-5.2,4.267-8.618c1.066,3.477,1.859,6.064,2.653,8.651
		c0.453-0.119,0.905-0.238,1.358-0.357c0.542-2.655,1.083-5.311,1.625-7.967c0.44-0.058,0.881-0.115,1.321-0.173
		c0.878,2.902,1.756,5.804,2.634,8.705c0.506,0.045,1.013,0.09,1.519,0.135c0.646-2.957,1.292-5.914,1.938-8.872
		c0.502-0.128,1.003-0.257,1.505-0.386c0.885,3.027,1.77,6.054,2.653,9.08c0.37,0.021,0.739,0.043,1.108,0.064
		c0.635-2.848,1.27-5.696,1.904-8.544c0.459,0,0.918-0.001,1.377-0.001c0.521,2.66,1.042,5.32,1.562,7.979
		c0.44,0.061,0.88,0.121,1.321,0.182c0.718-2.571,1.436-5.142,2.581-9.239c1.252,4.104,2.064,6.766,2.877,9.427
		c0.502-0.018,1.005-0.035,1.508-0.053c0.857-2.638,1.716-5.276,2.574-7.914c0.392-0.018,0.784-0.035,1.175-0.053
		c0.606,2.605,1.211,5.211,1.817,7.816c0.497,0.018,0.993,0.037,1.49,0.055c0.7-2.687,1.399-5.372,2.513-9.648
		c1.385,3.556,2.251,5.781,3.686,9.465c1.492-3.349,2.44-5.478,3.949-8.865C211.779,11.777,211.761,21.588,207.846,31.631z"/>
	<path fill-rule="evenodd" clip-rule="evenodd" fill="#006837" d="M606.18,31.718c-0.57-2.854-1.143-5.706-1.715-8.56
		c-0.484-0.02-0.971-0.038-1.457-0.058c-0.844,2.976-1.689,5.952-2.535,8.929c-0.326-0.005-0.652-0.011-0.979-0.017
		c-0.818-3.056-1.635-6.11-2.453-9.166c-0.535,0.04-1.072,0.081-1.607,0.121c-0.703,3.038-1.406,6.076-2.111,9.114
		c-0.398,0.041-0.797,0.082-1.193,0.125c-0.367-1.403-0.775-2.797-1.086-4.213c-0.307-1.4-0.514-2.822-0.766-4.234
		c-0.51-0.113-1.021-0.228-1.531-0.341c-0.85,2.866-1.699,5.733-2.549,8.601c-0.359-0.035-0.719-0.07-1.078-0.105
		c-0.748-2.74-1.496-5.479-2.242-8.218c-0.428-0.067-0.857-0.135-1.285-0.201c-0.861,2.679-1.723,5.356-2.584,8.036
		c-0.338,0.021-0.676,0.04-1.016,0.061c-0.762-2.961-1.525-5.922-2.289-8.883c-0.434-0.023-0.869-0.047-1.303-0.07
		c-0.867,2.277-1.732,4.557-3.193,8.396c-1.211-3.822-1.984-6.27-3.094-9.773c-1.332,2.982-2.234,5.002-3.645,8.159
		c-1.199-3.411-1.971-5.609-3.178-9.042c-1.678,2.582-2.785,4.283-4.191,6.447c-0.91-2.035-1.666-3.725-2.723-6.085
		c-1.311,1.697-2.309,2.992-3.555,4.606c-1.166-2.007-2.18-3.755-3.51-6.045c-1.52,1.679-2.652,2.933-4.082,4.514
		c-0.949-1.572-1.758-2.912-2.83-4.689c-1.314,1.039-2.484,1.964-3.705,2.928c-0.953-1.136-1.867-2.223-3.764-4.48
		c-0.861,1.674-1.529,2.966-2.199,4.266c-0.764-0.409-1.355-0.524-1.568-0.872c-1.795-2.919-2.303-5.817,0.613-8.89
		c2.496,1.929,5.24,3.859,6.486-1.576c1.564,1.498,2.555,2.445,3.904,3.737c1.1-1.815,1.984-3.282,3.123-5.165
		c1.213,1.529,2.26,2.852,3.891,4.911c1.16-2.341,2.025-4.089,3.145-6.346c1.355,1.726,2.387,3.038,4.178,5.319
		c0.9-2.9,1.518-4.884,2.563-8.245c1.377,3.119,2.238,5.069,3.703,8.386c1.637-3.249,2.771-5.498,4.201-8.335
		c0.975,2.246,1.721,3.958,3.127,7.192c1.234-3.794,2.031-6.248,3.295-10.129c1.217,3.596,2.066,6.106,2.918,8.616
		c0.432,0,0.861,0.002,1.293,0.002c0.645-2.784,1.289-5.568,1.932-8.352c0.564-0.022,1.127-0.045,1.691-0.067
		c0.646,3,1.295,6,1.943,9c0.506,0.061,1.012,0.123,1.518,0.186c0.699-3.573,1.396-7.146,2.096-10.719
		c0.363-0.109,0.729-0.219,1.092-0.328c0.967,2.958,1.932,5.917,2.898,8.875c0.346,0.031,0.689,0.064,1.035,0.096
		c0.793-2.686,1.588-5.37,2.381-8.055c0.393-0.082,0.785-0.164,1.18-0.247c0.783,2.991,1.568,5.981,2.352,8.974
		c0.422,0.031,0.844,0.064,1.266,0.098c0.498-1.428,1.084-2.832,1.469-4.288c0.404-1.531,0.619-3.112,0.916-4.67
		c0.482-0.028,0.965-0.056,1.445-0.084c0.584,2.553,1.17,5.106,1.754,7.66c0.416,0.116,0.834,0.232,1.25,0.349
		c0.828-2.623,1.656-5.246,2.482-7.868c0.391-0.019,0.783-0.037,1.174-0.056c0.598,2.785,1.197,5.569,1.795,8.354
		c0.441,0.008,0.883,0.018,1.324,0.025c0.568-2.524,1.137-5.048,1.705-7.574c0.475-0.048,0.949-0.096,1.422-0.145
		c0.793,2.705,1.588,5.411,2.381,8.115c0.4,0.002,0.803,0.004,1.205,0.006c0.875-2.677,1.748-5.354,2.621-8.031
		c0.391-0.048,0.783-0.095,1.174-0.142c0.75,2.724,1.5,5.448,2.25,8.17c0.395,0.004,0.787,0.006,1.182,0.008
		c0.568-2.866,1.137-5.732,1.705-8.598c0.482-0.001,0.967-0.002,1.451-0.003c0.605,2.853,1.211,5.705,1.816,8.558
		c0.631,0.096,1.262,0.191,1.893,0.287c0.826-2.957,1.65-5.915,2.477-8.873c0.361-0.076,0.723-0.152,1.084-0.229
		c0.922,2.658,1.844,5.314,2.764,7.973c0.426-0.022,0.85-0.044,1.273-0.065c0.588-2.595,1.176-5.189,1.764-7.783
		c0.424-0.084,0.848-0.168,1.271-0.252c0.84,3.066,1.682,6.132,2.521,9.197c0.379,0.063,0.758,0.123,1.135,0.186
		c0.869-2.953,1.736-5.908,2.604-8.862c0.361-0.073,0.723-0.146,1.082-0.219c0.785,2.738,1.568,5.476,2.352,8.214
		c0.395,0.086,0.787,0.17,1.182,0.254c0.873-2.739,1.746-5.478,2.621-8.217c0.324-0.054,0.648-0.107,0.973-0.16
		c0.797,2.873,1.594,5.745,2.393,8.619c0.438-0.029,0.877-0.059,1.316-0.088c0.717-2.914,1.434-5.828,2.15-8.741
		c0.398-0.023,0.799-0.047,1.197-0.07c0.68,3.028,1.357,6.056,2.037,9.083c0.359,0.059,0.719,0.115,1.078,0.172
		c0.535-1.439,1.154-2.855,1.58-4.327c0.396-1.362,0.586-2.785,0.867-4.181c0.428-0.062,0.855-0.123,1.281-0.185
		c0.416,1.399,0.877,2.788,1.234,4.203c0.352,1.397,0.598,2.821,2.041,4.408c0.77-2.899,1.539-5.799,2.309-8.699
		c0.348,0.04,0.697,0.08,1.045,0.12c0.516,2.65,1.031,5.3,1.549,7.95c0.445,0.131,0.891,0.26,1.338,0.389
		c1.121-2.59,2.242-5.18,3.885-8.971c1.148,3.735,1.947,6.332,2.746,8.93c0.43-0.078,0.861-0.156,1.289-0.234
		c0.615-2.722,1.23-5.443,1.846-8.165c0.463-0.016,0.926-0.032,1.391-0.048c0.805,2.918,1.611,5.835,2.416,8.753
		c0.521-0.004,1.043-0.006,1.564-0.01c0.633-2.891,1.27-5.781,1.904-8.671c0.447-0.186,0.896-0.374,1.344-0.56
		c0.936,2.996,1.871,5.992,2.807,8.989c0.33,0.059,0.662,0.117,0.992,0.176c0.701-2.787,1.4-5.574,2.102-8.361
		c0.387-0.048,0.773-0.095,1.16-0.143c0.619,2.693,1.238,5.386,1.859,8.08c0.451,0.02,0.902,0.041,1.354,0.063
		c0.643-2.594,1.285-5.186,1.926-7.78c0.367,0.008,0.732,0.017,1.1,0.025c0.711,2.621,1.422,5.242,2.133,7.862
		c0.5,0.029,0.998,0.057,1.496,0.084c0.932-2.691,1.861-5.383,2.791-8.077c0.354,0.048,0.705,0.096,1.059,0.143
		c0.672,2.587,1.342,5.172,2.014,7.758c0.449-0.02,0.898-0.039,1.348-0.059c0.729-2.688,1.459-5.375,2.188-8.062
		c0.334-0.061,0.668-0.121,1.004-0.182c0.77,2.187,1.541,4.373,2.875,8.156c1.527-3.317,2.498-5.426,3.979-8.644
		c3.381,10.845,3.072,20.65-0.643,30.841c-0.932-2.519-1.863-5.037-2.795-7.556c-0.467,0.012-0.932,0.022-1.396,0.034
		c-0.666,2.508-1.332,5.017-2.402,9.055c-1.258-4.133-2.076-6.82-2.895-9.507c-0.377,0.046-0.752,0.093-1.129,0.14
		c-0.621,2.641-1.242,5.28-1.863,7.921c-0.346,0.062-0.689,0.124-1.033,0.186c-0.514-2.064-0.902-4.173-1.609-6.171
		c-0.262-0.738-1.199-1.426-1.982-1.699c-0.297-0.104-1.307,0.938-1.504,1.602c-0.598,2.014-0.959,4.099-1.727,7.584
		c-1.566-3.381-2.582-5.572-4.111-8.875c-0.889,3.186-1.465,5.251-2.395,8.59c-1.5-3.558-2.523-5.986-3.547-8.414
		c-0.406,0.064-0.814,0.131-1.223,0.195c-0.637,2.41-1.273,4.818-1.912,7.228c-0.42,0.034-0.842,0.069-1.264,0.104
		c-0.574-2.777-1.146-5.555-1.721-8.331c-0.521-0.061-1.043-0.122-1.564-0.183c-0.912,2.949-1.824,5.898-2.736,8.848
		c-0.371-0.049-0.742-0.1-1.111-0.15c-0.736-2.652-1.473-5.305-2.209-7.957c-0.469,0.023-0.939,0.049-1.41,0.074
		c-0.699,2.523-1.398,5.049-2.098,7.574c-0.398,0.074-0.797,0.148-1.195,0.223c-0.891-2.767-1.779-5.533-2.67-8.301
		c-0.377,0.035-0.756,0.071-1.135,0.106c-0.756,2.685-1.514,5.37-2.27,8.056c-0.359,0.004-0.721,0.006-1.082,0.008
		c-0.557-2.541-1.115-5.082-1.672-7.625c-0.443-0.094-0.885-0.188-1.326-0.281c-0.926,2.629-1.854,5.26-2.781,7.889
		c-0.299-0.006-0.598-0.01-0.895-0.016c-0.615-2.567-1.232-5.135-1.848-7.703c-0.477-0.079-0.955-0.158-1.432-0.237
		c-0.93,2.827-1.857,5.652-2.787,8.478c-0.283,0-0.568,0-0.852,0c-0.68-2.85-1.357-5.699-2.037-8.548
		c-0.43-0.007-0.859-0.015-1.289-0.022c-0.758,2.695-1.516,5.39-2.273,8.084c-0.445,0.035-0.891,0.068-1.338,0.104
		c-0.545-2.798-1.09-5.596-1.635-8.394c-0.492-0.115-0.982-0.231-1.475-0.348c-0.92,2.856-1.84,5.712-3.219,9.999
		c-1.502-4.668-2.523-7.848-3.547-11.027c-0.516,0.051-1.033,0.101-1.549,0.151c-0.609,3.147-1.217,6.295-1.824,9.442
		c-0.445,0.004-0.889,0.007-1.334,0.01c-0.648-2.861-1.295-5.723-1.943-8.584c-0.457-0.036-0.912-0.071-1.369-0.107
		c-0.811,2.938-1.621,5.874-2.432,8.811c-0.449-0.02-0.898-0.037-1.346-0.057c-0.131-1.438-0.002-2.971-0.467-4.291
		c-0.492-1.393-1.553-2.584-2.365-3.863c-0.715,1.154-1.652,2.23-2.086,3.48c-0.514,1.479-0.592,3.107-0.857,4.67
		c-0.434,0.064-0.865,0.127-1.299,0.191c-0.385-1.364-0.809-2.72-1.143-4.097c-0.34-1.394-0.59-2.808-2.094-4.441
		c-0.842,2.79-1.684,5.582-2.525,8.372c-0.342-0.016-0.684-0.033-1.025-0.051c-0.668-2.515-1.336-5.029-2.004-7.545
		c-0.52-0.063-1.041-0.125-1.561-0.186c-0.83,2.617-1.658,5.233-2.941,9.281c-1.264-3.546-2.141-6.008-3.439-9.656
		c-1.158,3.387-1.91,5.587-2.662,7.788C606.85,31.733,606.516,31.726,606.18,31.718z"/>
</g>
</svg>
