<?xml version="1.0" encoding="utf-8"?>
<!-- Generator: Adobe Illustrator 16.0.3, SVG Export Plug-In . SVG Version: 6.00 Build 0)  -->
<!DOCTYPE svg PUBLIC "-//W3C//DTD SVG 1.1//EN" "http://www.w3.org/Graphics/SVG/1.1/DTD/svg11.dtd">
<svg version="1.1" id="Layer_1" xmlns="http://www.w3.org/2000/svg" xmlns:xlink="http://www.w3.org/1999/xlink" x="0px" y="0px"
	 width="760.065px" height="144.998px" viewBox="0 0 760.065 144.998" enable-background="new 0 0 760.065 144.998"
	 xml:space="preserve">
<line fill-rule="evenodd" clip-rule="evenodd" fill="#006837" stroke="#000000" stroke-width="2" stroke-miterlimit="10" x1="5" y1="70.402" x2="759" y2="70.402"/>
<line fill-rule="evenodd" clip-rule="evenodd" fill="#006837" stroke="#000000" stroke-width="2" stroke-miterlimit="10" x1="5" y1="62.402" x2="5" y2="75.402"/>
<line fill-rule="evenodd" clip-rule="evenodd" fill="#006837" stroke="#000000" stroke-width="2" stroke-miterlimit="10" x1="759" y1="62.402" x2="759" y2="75.402"/>
<line fill-rule="evenodd" clip-rule="evenodd" fill="#006837" stroke="#000000" stroke-width="2" stroke-miterlimit="10" x1="105" y1="63.402" x2="105" y2="76.402"/>
<line fill-rule="evenodd" clip-rule="evenodd" fill="#006837" stroke="#000000" stroke-width="2" stroke-miterlimit="10" x1="205" y1="63.402" x2="205" y2="76.402"/>
<line fill-rule="evenodd" clip-rule="evenodd" fill="#006837" stroke="#000000" stroke-width="2" stroke-miterlimit="10" x1="305" y1="62.402" x2="305" y2="75.402"/>
<line fill-rule="evenodd" clip-rule="evenodd" fill="#006837" stroke="#000000" stroke-width="2" stroke-miterlimit="10" x1="405" y1="62.402" x2="405" y2="75.402"/>
<line fill-rule="evenodd" clip-rule="evenodd" fill="#006837" stroke="#000000" stroke-width="2" stroke-miterlimit="10" x1="505" y1="63.402" x2="505" y2="76.402"/>
<line fill-rule="evenodd" clip-rule="evenodd" fill="#006837" stroke="#000000" stroke-width="2" stroke-miterlimit="10" x1="606" y1="63.402" x2="606" y2="76.402"/>
<line fill-rule="evenodd" clip-rule="evenodd" fill="#006837" stroke="#000000" stroke-width="2" stroke-miterlimit="10" x1="705" y1="63.402" x2="705" y2="76.402"/>
<text transform="matrix(1 0 0 1 100 95.4023)" font-family="'MyriadPro-Regular'" font-size="18">1</text>
<text transform="matrix(1 0 0 1 200 95.4023)" font-family="'MyriadPro-Regular'" font-size="18">2</text>
<text transform="matrix(1 0 0 1 299 95.4023)" font-family="'MyriadPro-Regular'" font-size="18">3</text>
<text transform="matrix(1 0 0 1 400 95.4023)" font-family="'MyriadPro-Regular'" font-size="18">4</text>
<text transform="matrix(1 0 0 1 500 95.4023)" font-family="'MyriadPro-Regular'" font-size="18">5</text>
<text transform="matrix(1 0 0 1 601 95.4023)" font-family="'MyriadPro-Regular'" font-size="18">6</text>
<text transform="matrix(1 0 0 1 699 95.4023)" font-family="'MyriadPro-Regular'" font-size="18">7</text>
<text transform="matrix(1 0 0 1 323 137.4023)" font-family="'HelveticaNeueLight'" font-size="36">Seconds</text>
<text transform="matrix(1 0 0 1 0 95.4023)" font-family="'MyriadPro-Regular'" font-size="18">0</text>
<g>
	<path fill-rule="evenodd" clip-rule="evenodd" fill="#006837" d="M77.575,12.058c-0.53,0.021-1.061,0.043-1.592,0.064
		c-0.595-3.765-1.189-7.53-1.784-11.295c-0.372,0.034-0.743,0.068-1.115,0.103c-0.579,3.625-1.157,7.249-1.735,10.874
		c-0.591-0.033-1.181-0.065-1.771-0.098c-0.563-3.58-1.125-7.159-1.688-10.739c-0.497,0.031-0.994,0.063-1.491,0.094
		c-0.666,3.651-1.33,7.303-1.996,10.954c-0.371-0.04-0.741-0.079-1.112-0.118C61.711,8.238,63.514,3.151,58.968,0
		c-0.896,8.456-2.348,16.124-2.339,23.79c0.009,7.58,1.495,15.159,2.333,22.738c0.514,0.014,1.027,0.027,1.542,0.041
		c0.806-3.599,1.611-7.198,2.417-10.798c0.588,0.035,1.177,0.068,1.766,0.104c0.408,3.502,0.816,7.004,1.224,10.508
		c0.426,0.041,0.853,0.082,1.279,0.123c0.763-3.75,1.525-7.5,2.335-11.48c5.12,3.135,0.535,8.213,3.922,12.58
		c1.102-4.199,1.958-7.461,2.815-10.725c0.378,0.049,0.757,0.099,1.135,0.147c0.562,3.273,1.124,6.548,1.686,9.82
		C84.713,34.191,84.168,5.2,78.925,1.114C78.458,4.898,78.017,8.479,77.575,12.058z M546.666,48.465
		c0.406-0.063,0.813-0.125,1.219-0.188c4.418-13.006,4.139-40.051-0.857-44.625c-0.781,3.876-1.514,7.504-2.246,11.132
		c-0.551-0.038-1.1-0.077-1.65-0.116c-0.375-3.443-0.748-6.886-1.236-11.375c-3.875,3.808-0.346,9-5.09,11.896
		c-0.535-3.961-0.994-7.357-1.451-10.754c-0.525-0.027-1.051-0.056-1.576-0.083c-0.621,3.688-1.244,7.375-2.012,11.932
		c-2.545-4.443-0.592-8.998-3.551-12.805c-5.598,15.597-3.93,30.455-0.666,45.324c0.365,0.09,0.732,0.182,1.098,0.271
		c0.646-3.688,1.293-7.375,1.939-11.063c0.514,0.014,1.029,0.027,1.543,0.041c0.498,3.398,0.996,6.799,1.494,10.199
		c0.453-0.023,0.906-0.047,1.359-0.068c0.59-3.591,1.178-7.182,1.766-10.771c0.547-0.024,1.096-0.05,1.643-0.074
		c0.604,3.812,1.207,7.624,1.809,11.435c0.4,0.041,0.799,0.08,1.197,0.121c0.941-3.644,1.883-7.285,2.824-10.928
		c0.389,0.068,0.777,0.137,1.168,0.205C545.814,41.604,546.24,45.034,546.666,48.465z M111.764,1.899
		c-3.697,15.39-4.662,30.165,0.042,44.788c0.446,0.046,0.893,0.092,1.34,0.137c0.662-3.503,1.325-7.008,1.987-10.513
		c0.472-0.011,0.943-0.022,1.415-0.033c0.692,3.281,1.384,6.563,2.075,9.845c0.372-0.021,0.744-0.042,1.115-0.063
		c0.815-3.318,1.631-6.638,2.447-9.957c0.493,0.047,0.986,0.094,1.479,0.141c0.492,3.345,0.984,6.689,1.477,10.035
		c0.396,0.007,0.793,0.015,1.189,0.021c0.582-3.219,1.163-6.438,1.744-9.659c0.428,0.064,0.855,0.128,1.283,0.191
		c0.703,3.198,1.405,6.396,2.106,9.592c3.388-14.841,5.392-29.512,0.788-45.057c-2.742,3.201,0.158,7.541-3.874,9.514
		c-0.611-3.163-1.159-6.002-1.707-8.842c-0.414,0.031-0.828,0.062-1.242,0.093c-0.664,3.229-1.329,6.458-1.993,9.686
		c-0.531,0.019-1.063,0.038-1.596,0.057c-0.54-3.454-1.08-6.908-1.62-10.362c-0.466-0.008-0.931-0.016-1.396-0.023
		c-0.58,3.294-1.16,6.588-1.831,10.405C113.303,8.954,116.949,3.354,111.764,1.899z M268.814,3.049
		c-0.4,0.22-0.801,0.439-1.201,0.659c-3.316,14.784-2.882,29.489-0.068,44.145c0.451,0.053,0.903,0.104,1.354,0.156
		c0.766-3.681,1.531-7.361,2.296-11.04c0.55,0.002,1.101,0.004,1.651,0.007c0.357,3.947,0.714,7.896,1.156,12.779
		c3.769-4.139,1.157-9.573,5.479-13.209c0.569,4.23,1.035,7.694,1.501,11.159c0.362,0.041,0.724,0.082,1.086,0.123
		c0.751-3.355,1.503-6.71,2.254-10.065c0.393,0.059,0.787,0.118,1.179,0.178c0.459,3.348,0.919,6.695,1.379,10.044
		c5.608-14.876,5.461-29.567,0.82-44.317c-0.646,1.31-0.76,2.692-1.049,4.036c-0.284,1.316-0.746,2.593-1.129,3.887
		c-0.355-0.019-0.71-0.037-1.065-0.057c-0.75-2.735-1.499-5.469-2.248-8.204c-0.324,0.079-0.648,0.157-0.971,0.236
		c-0.633,3.302-1.266,6.604-1.899,9.907c-0.59-0.049-1.181-0.099-1.771-0.147c-0.596-3.392-1.191-6.783-1.788-10.174
		c-0.355-0.006-0.711-0.011-1.067-0.016c-0.753,3.207-1.506,6.413-2.259,9.619c-0.433-0.08-0.866-0.16-1.299-0.24
		c-0.336-1.776-0.604-3.568-1.028-5.323C269.787,5.787,269.259,4.428,268.814,3.049z M11.148,12.457
		C6.862,9.064,11.33,3.435,6.018,0.888C5.228,8.948,3.951,16.336,3.934,23.727C3.917,31.102,5.162,38.479,5.9,46.356
		c4.748-2.329,0.972-8.113,5.008-11.554c0.604,4.089,1.085,7.352,1.567,10.613c0.418,0.039,0.837,0.079,1.255,0.119
		c0.645-3.445,1.289-6.889,1.933-10.334c0.406,0.002,0.812,0.002,1.217,0.004c0.602,3.423,1.203,6.846,1.804,10.27
		c0.422-0.021,0.843-0.041,1.265-0.062c0.686-3.089,1.371-6.179,2.057-9.267c0.426,0.053,0.852,0.105,1.277,0.159
		c0.668,3.005,1.338,6.011,2.188,9.83c4.988-10.214,4.916-39.273-0.15-44.992c-0.779,3.617-1.457,6.766-2.134,9.915
		c-0.432-0.03-0.864-0.062-1.296-0.092c-0.537-3.068-1.073-6.136-1.609-9.204c-0.386,0.043-0.772,0.085-1.158,0.127
		c-0.698,3.035-1.396,6.069-2.093,9.104c-0.438-0.035-0.877-0.069-1.315-0.104c-0.527-3.206-1.055-6.41-1.583-9.616
		c-0.458,0.073-0.915,0.146-1.373,0.22C12.271,4.824,11.78,8.154,11.148,12.457z M632.613,3.481
		c-0.367,0.081-0.736,0.163-1.105,0.245c-3.748,14.792-5.475,29.583,0.785,44.676c0.867-3.967,1.732-7.934,2.598-11.899
		c0.426,0.08,0.852,0.16,1.277,0.241c0.402,3.992,0.803,7.984,1.205,11.977c0.531-0.004,1.063-0.008,1.594-0.012
		c0.695-3.868,1.393-7.736,2.088-11.604c0.492,0.012,0.984,0.023,1.477,0.035c0.514,3.505,1.029,7.009,1.545,10.515
		c0.41-0.007,0.822-0.014,1.234-0.02c0.564-3.616,1.129-7.23,1.693-10.847c0.479,0.006,0.957,0.011,1.436,0.017
		c0.523,3.703,1.047,7.406,1.697,12.016c5.541-10.697,5.553-37.662,0.025-44.988c-0.316,2.146-0.484,3.694-0.785,5.217
		c-0.289,1.464-0.715,2.904-1.082,4.354c-0.363-0.059-0.727-0.118-1.09-0.177c-0.588-3.124-1.174-6.247-1.76-9.371
		c-0.41,0.035-0.82,0.071-1.23,0.106c-0.658,3.3-1.316,6.602-1.977,9.902c-0.539-0.027-1.078-0.055-1.617-0.082
		c-0.527-3.279-1.057-6.558-1.682-10.45c-3.916,3.201-0.164,8.195-4.51,10.89C633.77,10.32,633.193,6.9,632.613,3.481z
		 M703.037,49.041c0.402-0.047,0.805-0.094,1.207-0.141c3.287-14.879,4.77-29.775-0.334-45.568c-1.027,3.668-1.871,6.68-2.715,9.691
		c-0.41-0.071-0.82-0.143-1.23-0.214c-0.5-2.77-1.002-5.538-1.502-8.307c-0.359,0.051-0.719,0.102-1.078,0.152
		c-0.693,2.863-1.385,5.727-2.076,8.59c-0.48-0.021-0.961-0.04-1.441-0.061c-0.586-2.951-1.174-5.902-1.76-8.853
		c-0.277,0.04-0.553,0.081-0.828,0.121c-0.861,2.819-1.723,5.637-2.584,8.456c-0.387-0.04-0.775-0.08-1.162-0.119
		c-0.529-2.932-1.059-5.862-1.586-8.793c-0.504,0.029-1.006,0.059-1.51,0.087c-0.215,1.169-0.494,2.33-0.635,3.506
		c-0.26,2.142,0.074,4.515-0.742,6.401c-2.76,6.391-2.227,12.992-1.564,19.535c0.529,5.245,1.828,10.414,2.785,15.615
		c0.408,0.025,0.814,0.051,1.223,0.076c0.736-3.364,1.473-6.729,2.207-10.094c0.363,0.038,0.727,0.075,1.088,0.113
		c0.494,3.049,0.988,6.098,1.48,9.146c0.484-0.004,0.971-0.008,1.455-0.012c0.641-3.791,1.283-7.582,1.926-11.372
		c0.633,0.015,1.264,0.028,1.896,0.043c0.547,3.718,1.096,7.437,1.643,11.155c0.408-0.039,0.814-0.078,1.221-0.116
		c0.621-3.293,1.242-6.587,1.861-9.879c0.434,0.051,0.865,0.102,1.299,0.152C702.064,41.918,702.551,45.479,703.037,49.041z
		 M329.101,37.166c0.604-0.03,1.207-0.061,1.811-0.091c0.536,3.704,1.072,7.407,1.608,11.112c0.501-0.004,1.003-0.008,1.504-0.012
		c0.473-3.352,0.945-6.703,1.417-10.055c0.497-0.044,0.995-0.088,1.492-0.133c0.505,3.268,1.011,6.533,1.613,10.428
		c5.065-7.695,4.818-39.44-0.042-44.028c-0.568,3.077-1.11,6.019-1.653,8.961c-0.489-0.007-0.977-0.014-1.465-0.02
		c-0.387-2.963-0.774-5.926-1.162-8.888c-0.446,0.006-0.892,0.011-1.338,0.017c-0.69,3.014-1.381,6.027-2.071,9.042
		c-0.477,0.01-0.953,0.02-1.43,0.03c-0.682-3.025-1.364-6.05-2.045-9.075c-0.349-0.023-0.698-0.047-1.047-0.07
		c-0.555,2.993-1.111,5.985-1.73,9.32c-4.119-2.639-0.467-8.054-4.792-10.058c-4.264,13.517-4.345,30.421,0.772,44.292
		c0.68-3.067,1.36-6.135,2.04-9.202c0.29-0.001,0.579-0.001,0.869-0.002c0.805,3.089,1.611,6.178,2.417,9.267
		c0.42-0.042,0.841-0.084,1.261-0.126C327.786,44.306,328.443,40.736,329.101,37.166z M227.528,47.375
		c0.494,0.009,0.988,0.019,1.483,0.027c0.698-3.463,1.397-6.926,2.095-10.387c0.613,0.04,1.227,0.081,1.841,0.122
		c0.453,3.593,0.905,7.188,1.358,10.782c4.628-15.008,5.946-29.846,0.426-44.824c-0.725,3.015-1.45,6.032-2.174,9.047
		c-0.524-0.07-1.048-0.141-1.572-0.211c-0.55-2.869-1.101-5.738-1.651-8.606c-0.333,0.014-0.667,0.028-1,0.043
		c-0.668,2.836-1.335,5.673-2.003,8.51c-0.468-0.001-0.937-0.001-1.406-0.002c-0.599-2.835-1.198-5.672-1.796-8.509
		c-0.376-0.016-0.752-0.031-1.127-0.047c-0.687,2.841-1.373,5.683-2.179,9.022c-3.725-2.915-0.05-7.945-4.416-9.925
		c-2.732,15.166-2.709,29.909-0.118,44.627c0.365,0.057,0.729,0.113,1.093,0.169c0.678-3.182,1.355-6.361,2.032-9.543
		c0.524,0.007,1.047,0.014,1.57,0.021c0.568,3.146,1.136,6.295,1.767,9.794c3.814-2.538-0.194-7.687,4.469-9.774
		C226.687,41.16,227.107,44.268,227.528,47.375z M480.941,48.071c0.492,0.089,0.984,0.179,1.479,0.269
		c0.752-3.438,1.506-6.875,2.26-10.312c0.453,0.022,0.906,0.045,1.359,0.067c0.482,3.541,0.967,7.081,1.449,10.621
		c0.477,0.01,0.953,0.02,1.432,0.029c0.588-3.926,1.174-7.852,1.762-11.777c0.559,0.015,1.115,0.029,1.674,0.044
		c0.336,2.024,0.75,4.04,0.988,6.075c0.221,1.885-0.793,4.183,1.775,5.521c2.877-15.021,6.193-29.639-0.803-45.134
		c-0.709,4.176-1.25,7.349-1.789,10.521c-0.547-0.007-1.094-0.013-1.641-0.02c-0.525-3.069-1.049-6.137-1.641-9.614
		c-4.346,2.077,0.227,7.973-4.865,9.435c-0.607-3.337-1.162-6.382-1.717-9.426c-0.498,0.034-0.996,0.068-1.494,0.104
		c-0.258,3.045-0.518,6.09-0.775,9.135c-0.508,0.025-1.012,0.05-1.52,0.075c-0.664-3.081-1.328-6.16-1.992-9.241
		c-0.412,0.073-0.824,0.146-1.236,0.219c-3.578,14.813-4.68,29.625,0.949,44.532c0.768-3.437,1.537-6.873,2.305-10.309
		c0.471,0.051,0.941,0.103,1.412,0.154C480.523,42.051,480.732,45.061,480.941,48.071z M432.416,4.749
		c-0.385-0.005-0.771-0.011-1.156-0.016c-0.689,2.882-1.377,5.765-2.066,8.646c-0.443-0.027-0.887-0.056-1.33-0.084
		c-0.594-3.107-1.188-6.214-1.781-9.321c-0.443,0.071-0.885,0.142-1.326,0.213c-3.088,14.858-3.871,29.727-0.066,44.614
		c0.381,0.049,0.762,0.098,1.143,0.145c0.549-3.872,1.098-7.744,1.645-11.617c0.363-0.01,0.727-0.02,1.09-0.029
		c0.719,3.793,1.438,7.586,2.156,11.379c0.424-0.018,0.848-0.037,1.27-0.055c0.695-3.347,1.389-6.693,2.084-10.041
		c0.461,0.096,0.924,0.191,1.385,0.288c0.158,1.618,0.271,3.241,0.486,4.853c0.207,1.556,0.518,3.099,0.781,4.646
		c0.494-0.031,0.988-0.063,1.482-0.094c0.451-3.363,0.902-6.727,1.352-10.089c0.412,0.013,0.824,0.025,1.236,0.038
		c0.77,3.625,1.541,7.252,2.311,10.877c5.666-14.922,5.055-29.6-0.057-44.514c-0.773,2.931-1.547,5.862-2.32,8.793
		c-0.434-0.031-0.867-0.063-1.301-0.095c-0.336-2.879-0.672-5.76-1.008-8.639c-0.391-0.005-0.781-0.01-1.172-0.015
		c-0.709,2.988-1.42,5.976-2.129,8.963c-0.451-0.027-0.902-0.056-1.354-0.083C433.318,10.591,432.867,7.67,432.416,4.749z
		 M387.314,4.723c-0.492-0.045-0.984-0.09-1.479-0.135c-0.826,3.273-1.65,6.547-2.477,9.82c-0.543-0.078-1.088-0.157-1.631-0.235
		c-0.584-3.457-1.167-6.912-1.75-10.369c-0.479,0.025-0.958,0.052-1.438,0.077c-0.432,3.441-0.863,6.882-1.4,11.164
		c-3.892-3.689-0.23-9.578-5.251-11.669c-0.57,5.859-1.314,11.205-1.547,16.574c-0.208,4.792,0.113,9.608,0.269,14.412
		c0.132,4.091,0.28,8.186,0.599,12.264c0.075,0.97,0.859,1.885,1.318,2.824c0.346-0.113,0.69-0.229,1.035-0.344
		c0.703-3.795,1.405-7.59,2.107-11.385c0.465,0.051,0.93,0.103,1.396,0.154c0.426,3.646,0.852,7.293,1.278,10.939
		c3.3-3.337,0.739-8.328,5.32-11.528c0.602,4.212,1.115,7.812,1.629,11.411c0.447-0.049,0.896-0.098,1.344-0.146
		c0.65-3.472,1.301-6.941,1.951-10.413c0.484,0.034,0.971,0.068,1.455,0.103c0.498,3.416,0.998,6.833,1.496,10.25
		c0.467-0.07,0.934-0.141,1.4-0.211c3.4-14.621,3.697-29.23-0.275-44.649c-3.289,3.503,0.031,8.5-4.502,11.73
		C387.836,11.259,387.576,7.991,387.314,4.723z M164.389,0.821c-4.023,16.513-2.778,31.49,0.387,46.678
		c0.754-3.389,1.508-6.778,2.263-10.166c0.465-0.007,0.93-0.013,1.394-0.02c0.644,3.064,1.287,6.128,1.93,9.192
		c0.387-0.065,0.774-0.13,1.161-0.195c0.465-3.006,0.931-6.01,1.396-9.015c0.554-0.055,1.107-0.109,1.661-0.164
		c0.545,3.146,1.089,6.294,1.634,9.439c0.383-0.003,0.766-0.006,1.149-0.009c0.698-3.152,1.396-6.304,2.095-9.456
		c0.509,0.029,1.018,0.058,1.526,0.087c0.479,3.054,0.957,6.107,1.512,9.649c4.507-7.238,5.027-35.094,0.297-44.353
		c-0.757,2.673-1.514,5.344-2.271,8.017c-0.337-0.006-0.675-0.012-1.013-0.017c-0.452-2.617-0.903-5.233-1.354-7.85
		c-0.425,0.019-0.849,0.037-1.273,0.056c-0.663,2.679-1.326,5.357-2.019,8.156c-4.047-2.047,0.48-7.39-4.329-8.777
		c-0.688,3.627-1.325,6.997-1.963,10.365c-0.507-0.047-1.014-0.094-1.521-0.141c-0.313-1.9-0.546-3.819-0.965-5.696
		C165.713,4.941,165.134,3.325,164.389,0.821z M738.641,3.538c-5.887,15.468-4.652,30.132-0.383,45.132
		c0.834-3.749,1.67-7.498,2.504-11.248c0.486,0.053,0.973,0.106,1.459,0.159c0.434,3.296,0.867,6.591,1.301,9.887
		c0.439-0.018,0.881-0.035,1.32-0.053c0.707-3.064,1.416-6.13,2.123-9.193c0.447,0.063,0.895,0.125,1.34,0.187
		c0.637,3.09,1.27,6.179,1.904,9.268c0.389-0.06,0.775-0.12,1.162-0.18c0.559-2.777,1.117-5.555,1.676-8.33
		c2.488,2.699,0.439,6.597,3.945,8.357c4.432-14.537,3.676-28.826,0.242-43.098c-0.346-0.071-0.693-0.143-1.039-0.213
		c-0.584,2.922-1.166,5.845-1.75,8.768c-0.434-0.016-0.867-0.031-1.301-0.047c-0.592-2.782-1.184-5.563-1.775-8.344
		c-0.375,0.045-0.748,0.09-1.121,0.136c-0.6,3.138-1.197,6.276-1.795,9.415c-0.584-0.034-1.17-0.068-1.754-0.103
		c-0.574-3.264-1.148-6.528-1.723-9.793c-0.33,0.046-0.658,0.092-0.988,0.138c-0.686,2.835-1.373,5.67-2.059,8.506
		c-0.502-0.038-1.004-0.076-1.506-0.115c-0.219-1.548-0.383-3.105-0.674-4.64C739.484,6.726,739.084,5.344,738.641,3.538z
		 M593.744,4.025c-0.463,0.082-0.924,0.165-1.385,0.247c-1.801,2.772,0.65,6.948-3.383,9.82c-0.574-3.745-1.057-6.892-1.537-10.039
		c-0.367,0.039-0.734,0.078-1.102,0.117c-0.705,3.139-1.41,6.278-2.113,9.417c-0.461-0.056-0.92-0.11-1.379-0.166
		c-0.535-3.175-1.072-6.35-1.607-9.525c-4.584,15.216-4.498,30.302-1.641,45.437c0.365,0.111,0.734,0.223,1.102,0.334
		c0.902-3.812,1.803-7.621,2.703-11.433c0.535,0.031,1.07,0.063,1.604,0.094c0.314,3.272,0.627,6.546,0.939,9.817
		c0.404-0.004,0.807-0.008,1.211-0.012c0.617-3.318,1.236-6.637,1.854-9.955c0.465,0.019,0.928,0.038,1.393,0.058
		c0.588,3.433,1.176,6.865,1.766,10.298c0.402-0.041,0.805-0.08,1.207-0.121c0.537-3.366,1.076-6.732,1.613-10.098
		c0.447,0.008,0.896,0.016,1.346,0.022c0.494,3.235,0.988,6.471,1.611,10.542c5.311-9.534,5.521-36.5,0.502-45.874
		c-0.803,3.647-1.484,6.744-2.166,9.841c-0.363-0.053-0.729-0.104-1.092-0.157C594.707,9.802,594.227,6.913,593.744,4.025z"/>
	<path fill-rule="evenodd" clip-rule="evenodd" fill="#006837" d="M77.575,12.058c0.442-3.58,0.883-7.16,1.35-10.944
		c5.244,4.085,5.789,33.077,0.156,45.734c-0.562-3.272-1.124-6.547-1.686-9.82c-0.378-0.049-0.757-0.099-1.135-0.147
		c-0.857,3.264-1.713,6.525-2.815,10.725c-3.387-4.367,1.198-9.445-3.922-12.58c-0.81,3.98-1.572,7.73-2.335,11.48
		c-0.426-0.041-0.853-0.082-1.279-0.123c-0.408-3.504-0.816-7.006-1.224-10.508c-0.589-0.035-1.177-0.068-1.766-0.104
		c-0.806,3.6-1.611,7.199-2.417,10.798c-0.514-0.014-1.028-0.027-1.542-0.041c-0.838-7.579-2.324-15.158-2.333-22.738
		C56.62,16.124,58.072,8.456,58.968,0c4.546,3.151,2.743,8.238,4.324,11.896c0.371,0.039,0.741,0.078,1.112,0.118
		c0.666-3.651,1.33-7.303,1.996-10.954c0.497-0.031,0.994-0.063,1.491-0.094c0.563,3.58,1.125,7.159,1.688,10.739
		c0.59,0.032,1.18,0.064,1.771,0.098c0.579-3.625,1.157-7.249,1.735-10.874c0.372-0.034,0.743-0.068,1.115-0.103
		c0.595,3.765,1.189,7.53,1.784,11.295C76.514,12.101,77.044,12.08,77.575,12.058z"/>
	<path fill-rule="evenodd" clip-rule="evenodd" fill="#006837" d="M546.666,48.465c-0.426-3.431-0.852-6.861-1.277-10.293
		c-0.391-0.068-0.779-0.137-1.168-0.205c-0.941,3.643-1.883,7.284-2.824,10.928c-0.398-0.041-0.797-0.08-1.197-0.121
		c-0.602-3.811-1.205-7.623-1.809-11.435c-0.547,0.024-1.096,0.05-1.643,0.074c-0.588,3.589-1.176,7.18-1.766,10.771
		c-0.453,0.021-0.906,0.045-1.359,0.068c-0.498-3.4-0.996-6.801-1.494-10.199c-0.514-0.014-1.029-0.027-1.543-0.041
		c-0.646,3.688-1.293,7.375-1.939,11.063c-0.365-0.09-0.732-0.182-1.098-0.271c-3.264-14.869-4.932-29.727,0.666-45.324
		c2.959,3.807,1.006,8.362,3.551,12.805c0.768-4.557,1.391-8.244,2.012-11.932c0.525,0.027,1.051,0.056,1.576,0.083
		c0.457,3.397,0.916,6.793,1.451,10.754c4.744-2.896,1.215-8.088,5.09-11.896c0.488,4.489,0.861,7.932,1.236,11.375
		c0.551,0.039,1.1,0.078,1.65,0.116c0.732-3.628,1.465-7.256,2.246-11.132c4.996,4.575,5.275,31.62,0.857,44.625
		C547.479,48.34,547.072,48.402,546.666,48.465z"/>
	<path fill-rule="evenodd" clip-rule="evenodd" fill="#006837" d="M111.764,1.899c5.186,1.455,1.539,7.055,5.229,9.994
		c0.671-3.817,1.251-7.11,1.831-10.405c0.465,0.008,0.931,0.016,1.396,0.023c0.54,3.454,1.08,6.908,1.62,10.362
		c0.532-0.019,1.064-0.038,1.596-0.057c0.665-3.228,1.329-6.457,1.993-9.686c0.414-0.031,0.828-0.062,1.242-0.093
		c0.548,2.84,1.096,5.679,1.707,8.842c4.032-1.973,1.132-6.313,3.874-9.514c4.604,15.545,2.601,30.216-0.788,45.057
		c-0.702-3.196-1.404-6.394-2.106-9.592c-0.427-0.063-0.855-0.127-1.283-0.191c-0.582,3.221-1.163,6.44-1.744,9.659
		c-0.396-0.007-0.793-0.015-1.189-0.021c-0.492-3.346-0.984-6.69-1.477-10.035c-0.493-0.047-0.986-0.094-1.479-0.141
		c-0.816,3.319-1.632,6.639-2.447,9.957c-0.371,0.021-0.743,0.042-1.115,0.063c-0.691-3.282-1.383-6.563-2.075-9.845
		c-0.472,0.011-0.943,0.022-1.415,0.033c-0.663,3.505-1.325,7.01-1.987,10.513c-0.447-0.045-0.894-0.091-1.34-0.137
		C107.102,32.063,108.067,17.289,111.764,1.899z"/>
	<path fill-rule="evenodd" clip-rule="evenodd" fill="#006837" d="M268.814,3.049c0.444,1.379,0.972,2.738,1.311,4.143
		c0.424,1.755,0.692,3.546,1.028,5.323c0.433,0.08,0.866,0.16,1.299,0.24c0.753-3.207,1.506-6.413,2.259-9.619
		c0.355,0.005,0.711,0.01,1.067,0.016c0.596,3.391,1.192,6.782,1.788,10.174c0.59,0.049,1.181,0.099,1.771,0.147
		c0.633-3.302,1.266-6.604,1.899-9.907c0.323-0.079,0.647-0.157,0.971-0.236c0.749,2.735,1.498,5.469,2.248,8.204
		c0.355,0.02,0.71,0.038,1.065,0.057c0.384-1.294,0.846-2.571,1.129-3.887c0.29-1.344,0.403-2.726,1.049-4.036
		c4.641,14.75,4.788,29.441-0.82,44.317c-0.459-3.349-0.919-6.696-1.379-10.044c-0.393-0.06-0.786-0.119-1.179-0.178
		c-0.751,3.355-1.503,6.71-2.254,10.065c-0.362-0.041-0.725-0.082-1.086-0.123c-0.466-3.465-0.932-6.929-1.501-11.159
		c-4.321,3.636-1.71,9.07-5.479,13.209c-0.441-4.884-0.799-8.832-1.156-12.779c-0.55-0.003-1.101-0.005-1.651-0.007
		c-0.766,3.679-1.531,7.359-2.296,11.04c-0.451-0.052-0.903-0.104-1.354-0.156c-2.813-14.656-3.248-29.361,0.068-44.145
		C268.014,3.489,268.414,3.269,268.814,3.049z"/>
	<path fill-rule="evenodd" clip-rule="evenodd" fill="#006837" d="M11.148,12.457c0.632-4.302,1.123-7.633,1.613-10.963
		c0.458-0.073,0.916-0.146,1.373-0.22c0.528,3.206,1.056,6.41,1.583,9.616c0.438,0.035,0.877,0.069,1.315,0.104
		c0.698-3.035,1.396-6.068,2.093-9.104c0.386-0.042,0.772-0.084,1.158-0.127c0.536,3.068,1.072,6.136,1.609,9.204
		c0.432,0.03,0.864,0.062,1.296,0.092c0.677-3.149,1.355-6.298,2.134-9.915c5.066,5.719,5.138,34.778,0.15,44.992
		c-0.85-3.819-1.52-6.825-2.188-9.83c-0.426-0.054-0.852-0.106-1.277-0.159c-0.686,3.088-1.371,6.178-2.057,9.267
		c-0.422,0.021-0.843,0.041-1.265,0.062c-0.602-3.424-1.203-6.847-1.804-10.27c-0.406-0.002-0.812-0.002-1.217-0.004
		c-0.644,3.445-1.288,6.889-1.933,10.334c-0.418-0.04-0.837-0.08-1.255-0.119c-0.482-3.262-0.963-6.524-1.567-10.613
		c-4.037,3.44-0.261,9.225-5.008,11.554c-0.739-7.878-1.983-15.255-1.966-22.63C3.951,16.336,5.228,8.948,6.018,0.888
		C11.33,3.435,6.862,9.064,11.148,12.457z"/>
	<path fill-rule="evenodd" clip-rule="evenodd" fill="#006837" d="M632.613,3.481c0.58,3.419,1.156,6.839,1.816,10.742
		c4.346-2.695,0.594-7.689,4.51-10.89c0.625,3.892,1.154,7.171,1.682,10.45c0.539,0.027,1.078,0.055,1.617,0.082
		c0.66-3.3,1.318-6.602,1.977-9.902c0.41-0.035,0.82-0.071,1.23-0.106c0.586,3.124,1.172,6.247,1.76,9.371
		c0.363,0.059,0.727,0.118,1.09,0.177c0.367-1.45,0.793-2.889,1.082-4.354c0.301-1.523,0.469-3.071,0.785-5.217
		c5.527,7.326,5.516,34.291-0.025,44.988c-0.65-4.609-1.174-8.313-1.697-12.016c-0.479-0.006-0.957-0.011-1.436-0.017
		c-0.564,3.616-1.129,7.23-1.693,10.847c-0.412,0.006-0.824,0.013-1.234,0.02c-0.516-3.506-1.031-7.01-1.545-10.515
		c-0.492-0.012-0.984-0.023-1.477-0.035c-0.695,3.868-1.393,7.736-2.088,11.604c-0.531,0.004-1.063,0.008-1.594,0.012
		c-0.402-3.992-0.803-7.984-1.205-11.977c-0.426-0.081-0.852-0.161-1.277-0.241c-0.865,3.966-1.73,7.933-2.598,11.899
		c-6.26-15.094-4.533-29.885-0.785-44.676C631.877,3.644,632.246,3.562,632.613,3.481z"/>
	<path fill-rule="evenodd" clip-rule="evenodd" fill="#006837" d="M703.037,49.041c-0.486-3.562-0.973-7.123-1.457-10.685
		c-0.434-0.051-0.865-0.102-1.299-0.152c-0.619,3.292-1.24,6.586-1.861,9.879c-0.406,0.038-0.813,0.077-1.221,0.116
		c-0.547-3.719-1.096-7.438-1.643-11.155c-0.633-0.015-1.264-0.028-1.896-0.043c-0.643,3.79-1.285,7.581-1.926,11.372
		c-0.484,0.004-0.971,0.008-1.455,0.012c-0.492-3.049-0.986-6.098-1.48-9.146c-0.361-0.038-0.725-0.075-1.088-0.113
		c-0.734,3.365-1.471,6.729-2.207,10.094c-0.408-0.025-0.814-0.051-1.223-0.076c-0.957-5.201-2.256-10.37-2.785-15.615
		c-0.662-6.543-1.195-13.145,1.564-19.535c0.816-1.886,0.482-4.259,0.742-6.401c0.141-1.177,0.42-2.337,0.635-3.506
		c0.504-0.028,1.006-0.058,1.51-0.087c0.527,2.931,1.057,5.861,1.586,8.793c0.387,0.039,0.775,0.079,1.162,0.119
		c0.861-2.819,1.723-5.637,2.584-8.456c0.275-0.04,0.551-0.081,0.828-0.121c0.586,2.951,1.174,5.902,1.76,8.853
		c0.48,0.021,0.961,0.04,1.441,0.061c0.691-2.864,1.383-5.728,2.076-8.59c0.359-0.051,0.719-0.102,1.078-0.152
		c0.5,2.769,1.002,5.537,1.502,8.307c0.41,0.071,0.82,0.143,1.23,0.214c0.844-3.012,1.688-6.023,2.715-9.691
		c5.104,15.792,3.621,30.689,0.334,45.568C703.842,48.947,703.439,48.994,703.037,49.041z"/>
	<path fill-rule="evenodd" clip-rule="evenodd" fill="#006837" d="M329.101,37.166c-0.657,3.57-1.314,7.14-1.971,10.71
		c-0.42,0.042-0.841,0.084-1.261,0.126c-0.806-3.089-1.611-6.178-2.417-9.267c-0.29,0.001-0.58,0.001-0.869,0.002
		c-0.68,3.067-1.36,6.135-2.04,9.202c-5.117-13.871-5.036-30.775-0.772-44.292c4.326,2.004,0.674,7.419,4.792,10.058
		c0.619-3.334,1.175-6.327,1.73-9.32c0.349,0.023,0.698,0.047,1.047,0.07c0.682,3.025,1.364,6.05,2.045,9.075
		c0.477-0.011,0.953-0.021,1.43-0.03c0.69-3.014,1.38-6.027,2.071-9.042c0.446-0.006,0.893-0.011,1.338-0.017
		c0.388,2.962,0.775,5.925,1.162,8.888c0.488,0.006,0.977,0.013,1.465,0.02c0.542-2.943,1.085-5.885,1.653-8.961
		c4.86,4.587,5.107,36.333,0.042,44.028c-0.603-3.895-1.108-7.16-1.613-10.428c-0.498,0.045-0.995,0.089-1.492,0.133
		c-0.472,3.352-0.945,6.703-1.417,10.055c-0.501,0.004-1.002,0.008-1.504,0.012c-0.537-3.705-1.073-7.408-1.608-11.112
		C330.308,37.105,329.704,37.136,329.101,37.166z"/>
	<path fill-rule="evenodd" clip-rule="evenodd" fill="#006837" d="M227.528,47.375c-0.42-3.107-0.841-6.215-1.307-9.662
		c-4.663,2.088-0.654,7.236-4.469,9.774c-0.631-3.499-1.199-6.647-1.767-9.794c-0.523-0.008-1.046-0.015-1.57-0.021
		c-0.677,3.182-1.354,6.361-2.032,9.543c-0.364-0.056-0.729-0.112-1.093-0.169c-2.592-14.719-2.615-29.462,0.118-44.627
		c4.366,1.979,0.691,7.01,4.416,9.925c0.806-3.339,1.492-6.181,2.179-9.022c0.375,0.016,0.751,0.031,1.127,0.047
		c0.598,2.836,1.197,5.673,1.796,8.509c0.469,0.001,0.938,0.001,1.406,0.002c0.668-2.836,1.335-5.673,2.003-8.51
		c0.333-0.015,0.667-0.029,1-0.043c0.551,2.869,1.101,5.738,1.651,8.606c0.524,0.07,1.048,0.141,1.572,0.211
		c0.725-3.015,1.45-6.032,2.174-9.047c5.52,14.978,4.202,29.816-0.426,44.824c-0.453-3.595-0.905-7.189-1.358-10.782
		c-0.614-0.041-1.228-0.082-1.841-0.122c-0.698,3.461-1.397,6.924-2.095,10.387C228.516,47.394,228.021,47.384,227.528,47.375z"/>
	<path fill-rule="evenodd" clip-rule="evenodd" fill="#006837" d="M480.941,48.071c-0.209-3.011-0.418-6.021-0.629-9.03
		c-0.471-0.052-0.941-0.104-1.412-0.154c-0.768,3.436-1.537,6.872-2.305,10.309c-5.629-14.906-4.527-29.719-0.949-44.532
		c0.412-0.073,0.824-0.146,1.236-0.219c0.664,3.081,1.328,6.16,1.992,9.241c0.508-0.025,1.012-0.05,1.52-0.075
		c0.258-3.045,0.518-6.09,0.775-9.135c0.498-0.035,0.996-0.069,1.494-0.104c0.555,3.044,1.109,6.089,1.717,9.426
		c5.092-1.462,0.52-7.358,4.865-9.435c0.592,3.477,1.115,6.545,1.641,9.614c0.547,0.007,1.094,0.013,1.641,0.02
		c0.539-3.172,1.08-6.345,1.789-10.521c6.996,15.496,3.68,30.113,0.803,45.134c-2.568-1.339-1.555-3.637-1.775-5.521
		c-0.238-2.035-0.652-4.051-0.988-6.075c-0.559-0.015-1.115-0.029-1.674-0.044c-0.588,3.926-1.174,7.852-1.762,11.777
		c-0.479-0.01-0.955-0.02-1.432-0.029c-0.482-3.54-0.967-7.08-1.449-10.621c-0.453-0.022-0.906-0.045-1.359-0.067
		c-0.754,3.437-1.508,6.874-2.26,10.312C481.926,48.25,481.434,48.16,480.941,48.071z"/>
	<path fill-rule="evenodd" clip-rule="evenodd" fill="#006837" d="M432.416,4.749c0.451,2.921,0.902,5.843,1.354,8.764
		c0.451,0.027,0.902,0.056,1.354,0.083c0.709-2.988,1.42-5.976,2.129-8.963c0.391,0.005,0.781,0.01,1.172,0.015
		c0.336,2.879,0.672,5.76,1.008,8.639c0.434,0.031,0.867,0.063,1.301,0.095c0.773-2.931,1.547-5.862,2.32-8.793
		c5.111,14.915,5.723,29.592,0.057,44.514c-0.77-3.625-1.541-7.252-2.311-10.877c-0.412-0.013-0.824-0.025-1.236-0.038
		c-0.449,3.362-0.9,6.726-1.352,10.089c-0.494,0.031-0.988,0.063-1.482,0.094c-0.264-1.548-0.574-3.091-0.781-4.646
		c-0.215-1.611-0.328-3.234-0.486-4.853c-0.461-0.097-0.924-0.192-1.385-0.288c-0.695,3.348-1.389,6.694-2.084,10.041
		c-0.422,0.018-0.846,0.037-1.27,0.055c-0.719-3.793-1.438-7.586-2.156-11.379c-0.363,0.01-0.727,0.02-1.09,0.029
		c-0.547,3.873-1.096,7.745-1.645,11.617c-0.381-0.047-0.762-0.096-1.143-0.145c-3.805-14.887-3.021-29.756,0.066-44.614
		c0.441-0.071,0.883-0.142,1.326-0.213c0.594,3.107,1.188,6.214,1.781,9.321c0.443,0.028,0.887,0.057,1.33,0.084
		c0.689-2.881,1.377-5.764,2.066-8.646C431.645,4.738,432.031,4.744,432.416,4.749z"/>
	<path fill-rule="evenodd" clip-rule="evenodd" fill="#006837" d="M387.314,4.723c0.262,3.268,0.521,6.536,0.848,10.637
		c4.533-3.23,1.213-8.227,4.502-11.73c3.973,15.418,3.676,30.028,0.275,44.649c-0.467,0.07-0.934,0.141-1.4,0.211
		c-0.498-3.417-0.998-6.834-1.496-10.25c-0.484-0.034-0.971-0.068-1.455-0.103c-0.65,3.472-1.301,6.941-1.951,10.413
		c-0.447,0.049-0.896,0.098-1.344,0.146c-0.514-3.6-1.027-7.199-1.629-11.411c-4.581,3.2-2.02,8.191-5.32,11.528
		c-0.427-3.646-0.853-7.293-1.278-10.939c-0.466-0.052-0.931-0.104-1.396-0.154c-0.702,3.795-1.404,7.59-2.107,11.385
		c-0.345,0.115-0.689,0.23-1.035,0.344c-0.459-0.939-1.243-1.854-1.318-2.824c-0.318-4.078-0.467-8.173-0.599-12.264
		c-0.155-4.804-0.477-9.62-0.269-14.412c0.232-5.369,0.977-10.715,1.547-16.574c5.021,2.091,1.359,7.98,5.251,11.669
		c0.537-4.282,0.969-7.723,1.4-11.164c0.479-0.025,0.959-0.052,1.438-0.077c0.584,3.457,1.167,6.912,1.75,10.369
		c0.543,0.078,1.088,0.157,1.631,0.235c0.826-3.273,1.65-6.547,2.477-9.82C386.33,4.633,386.822,4.678,387.314,4.723z"/>
	<path fill-rule="evenodd" clip-rule="evenodd" fill="#006837" d="M164.389,0.821c0.746,2.503,1.325,4.12,1.695,5.782
		c0.419,1.877,0.651,3.795,0.965,5.696c0.507,0.047,1.014,0.094,1.521,0.141c0.638-3.369,1.276-6.738,1.963-10.365
		c4.809,1.388,0.282,6.73,4.329,8.777c0.693-2.799,1.356-5.478,2.019-8.156c0.424-0.019,0.849-0.037,1.273-0.056
		c0.452,2.616,0.903,5.233,1.354,7.85c0.338,0.005,0.676,0.011,1.013,0.017c0.757-2.672,1.514-5.344,2.271-8.017
		c4.73,9.259,4.209,37.115-0.297,44.353c-0.555-3.542-1.034-6.596-1.512-9.649c-0.508-0.029-1.017-0.058-1.526-0.087
		c-0.698,3.152-1.396,6.304-2.095,9.456c-0.383,0.003-0.766,0.006-1.149,0.009c-0.545-3.146-1.089-6.293-1.634-9.439
		c-0.554,0.055-1.107,0.109-1.661,0.164c-0.465,3.005-0.931,6.009-1.396,9.015c-0.387,0.065-0.773,0.13-1.161,0.195
		c-0.643-3.064-1.286-6.128-1.93-9.192c-0.464,0.007-0.929,0.013-1.394,0.02c-0.754,3.388-1.508,6.777-2.263,10.166
		C161.611,32.312,160.365,17.334,164.389,0.821z"/>
	<path fill-rule="evenodd" clip-rule="evenodd" fill="#006837" d="M738.641,3.538c0.443,1.807,0.844,3.188,1.109,4.594
		c0.291,1.535,0.455,3.092,0.674,4.64c0.502,0.039,1.004,0.077,1.506,0.115c0.686-2.836,1.373-5.67,2.059-8.506
		c0.33-0.046,0.658-0.092,0.988-0.138c0.574,3.265,1.148,6.529,1.723,9.793c0.584,0.034,1.17,0.068,1.754,0.103
		c0.598-3.138,1.195-6.276,1.795-9.415c0.373-0.046,0.746-0.091,1.121-0.136c0.592,2.781,1.184,5.562,1.775,8.344
		c0.434,0.016,0.867,0.031,1.301,0.047c0.584-2.923,1.166-5.845,1.75-8.768c0.346,0.07,0.693,0.142,1.039,0.213
		c3.434,14.272,4.189,28.561-0.242,43.098c-3.506-1.761-1.457-5.658-3.945-8.357c-0.559,2.775-1.117,5.553-1.676,8.33
		c-0.387,0.06-0.773,0.12-1.162,0.18c-0.635-3.089-1.268-6.178-1.904-9.268c-0.445-0.062-0.893-0.124-1.34-0.187
		c-0.707,3.063-1.416,6.129-2.123,9.193c-0.439,0.018-0.881,0.035-1.32,0.053c-0.434-3.296-0.867-6.591-1.301-9.887
		c-0.486-0.053-0.973-0.106-1.459-0.159c-0.834,3.75-1.67,7.499-2.504,11.248C733.988,33.67,732.754,19.006,738.641,3.538z"/>
	<path fill-rule="evenodd" clip-rule="evenodd" fill="#006837" d="M593.744,4.025c0.482,2.888,0.963,5.777,1.445,8.666
		c0.363,0.053,0.729,0.104,1.092,0.157c0.682-3.097,1.363-6.194,2.166-9.841c5.02,9.374,4.809,36.339-0.502,45.874
		c-0.623-4.071-1.117-7.307-1.611-10.542c-0.449-0.007-0.898-0.015-1.346-0.022c-0.537,3.365-1.076,6.731-1.613,10.098
		c-0.402,0.041-0.805,0.08-1.207,0.121c-0.59-3.433-1.178-6.865-1.766-10.298c-0.465-0.02-0.928-0.039-1.393-0.058
		c-0.617,3.318-1.236,6.637-1.854,9.955c-0.404,0.004-0.807,0.008-1.211,0.012c-0.313-3.271-0.625-6.545-0.939-9.817
		c-0.533-0.031-1.068-0.063-1.604-0.094c-0.9,3.812-1.801,7.621-2.703,11.433c-0.367-0.111-0.736-0.223-1.102-0.334
		c-2.857-15.135-2.943-30.221,1.641-45.437c0.535,3.175,1.072,6.35,1.607,9.525c0.459,0.056,0.918,0.11,1.379,0.166
		c0.703-3.139,1.408-6.278,2.113-9.417c0.367-0.039,0.734-0.078,1.102-0.117c0.48,3.147,0.963,6.294,1.537,10.039
		c4.033-2.872,1.582-7.048,3.383-9.82C592.82,4.19,593.281,4.107,593.744,4.025z"/>
</g>
</svg>
