<?xml version="1.0" standalone="no"?>
<!DOCTYPE svg PUBLIC "-//W3C//DTD SVG 20010904//EN"
 "http://www.w3.org/TR/2001/REC-SVG-20010904/DTD/svg10.dtd">
<svg version="1.0" xmlns="http://www.w3.org/2000/svg"
 width="500.000000pt" height="500.000000pt" viewBox="0 0 500.000000 500.000000"
 preserveAspectRatio="xMidYMid meet"
 class="ionicon s-ion-icon">

<g transform="translate(0.000000,500.000000) scale(0.100000,-0.100000)"
 stroke="none">
<path d="M3321 4293 c-69 -24 -155 -115 -175 -182 -19 -65 -20 -87 -4 -163 11
-51 10 -65 -7 -114 -28 -83 -124 -237 -331 -531 -101 -145 -184 -265 -184
-267 0 -5 65 -46 73 -46 3 0 79 105 169 233 345 487 402 604 369 757 -16 73 0
124 53 175 57 56 147 79 224 59 49 -14 12 -96 -122 -267 -25 -32 -50 -75 -56
-96 -6 -21 -28 -189 -50 -372 -86 -720 -100 -822 -146 -1029 -50 -225 -113
-373 -202 -471 -90 -99 -210 -143 -325 -119 -167 34 -230 234 -172 547 18 96
79 276 116 340 33 60 35 75 13 97 -14 14 -90 16 -687 16 l-672 0 -79 39 c-110
56 -232 82 -385 84 l-124 2 -14 40 c-56 156 -103 650 -103 1078 l0 168 -47 -3
-48 -3 3 -210 c6 -439 37 -783 87 -980 14 -55 25 -102 25 -106 0 -4 -12 -9
-27 -12 -34 -7 -59 15 -113 93 -162 238 -261 610 -279 1055 l-6 160 -48 3 -47
3 0 -48 c0 -103 22 -354 40 -475 52 -341 153 -604 315 -824 15 -20 14 -23 -16
-55 -103 -109 -105 -313 -8 -594 93 -273 241 -498 355 -541 79 -30 234 0 328
65 56 39 122 114 149 169 22 43 33 48 51 20 7 -12 2 -40 -20 -105 l-29 -88
-175 -104 c-96 -57 -287 -170 -424 -250 l-250 -146 -159 -279 c-196 -346 -196
-326 -7 -326 l130 0 23 38 c13 20 67 116 121 213 53 97 105 183 114 191 9 8
118 77 242 153 124 75 231 143 239 151 12 10 10 18 -9 48 l-22 36 -30 -17
c-16 -10 -136 -83 -266 -163 l-236 -145 -114 -208 -114 -207 -50 0 -50 0 19
32 c10 18 68 119 127 224 l108 191 247 145 c135 80 329 194 429 253 101 60
187 115 190 124 4 9 36 111 72 226 l66 210 37 3 c20 2 37 0 37 -5 0 -4 -39
-113 -87 -241 l-87 -232 -65 -42 c-36 -22 -67 -42 -69 -43 -7 -6 41 -75 51
-74 7 0 45 22 86 48 l75 47 31 85 c30 81 32 84 60 82 159 -13 242 -14 293 -3
47 10 71 9 137 -3 44 -8 114 -18 156 -22 l76 -7 86 -252 86 -251 -5 -220 -5
-220 48 -70 48 -70 122 -3 c115 -2 123 -1 133 18 9 18 4 34 -34 105 l-46 85 0
203 0 202 -84 210 c-46 116 -86 217 -88 226 -3 15 32 17 382 22 388 6 542 14
835 43 88 8 169 16 180 17 17 2 22 -14 46 -138 136 -701 191 -971 201 -983 18
-21 53 -12 282 78 114 45 213 79 220 76 6 -2 56 -41 111 -85 149 -120 167
-113 163 65 l-3 118 -50 38 c-27 21 -81 59 -118 85 l-68 47 -167 -58 c-92 -32
-173 -59 -181 -60 -11 -1 -34 94 -97 409 -46 226 -82 419 -81 429 2 16 25 24
157 52 288 62 531 153 690 259 87 58 124 97 116 123 -8 26 -146 143 -246 209
-78 53 -234 134 -332 172 -32 13 -58 26 -58 28 0 3 20 28 45 55 48 53 55 77
29 102 -13 14 -55 16 -309 16 l-293 0 -5 23 c-3 12 -58 286 -121 608 -111 563
-115 588 -101 623 24 56 20 118 -10 150 -13 14 -36 31 -50 36 -39 15 -174 11
-224 -7z m264 -663 c31 -162 123 -632 205 -1045 82 -412 188 -950 235 -1195
47 -245 88 -453 91 -463 13 -42 35 -39 236 30 l194 67 82 -59 c74 -54 82 -63
82 -92 0 -18 -3 -33 -6 -33 -3 0 -39 28 -81 61 -42 35 -84 61 -96 61 -12 0
-114 -37 -227 -81 -112 -44 -207 -77 -211 -73 -6 7 -22 88 -160 802 -38 201
-142 730 -229 1175 -243 1237 -225 1133 -203 1157 17 19 18 19 25 1 4 -10 33
-151 63 -313z m-1 -732 l6 -38 -146 0 -146 0 6 38 c4 20 27 210 51 422 25 212
48 399 52 415 5 22 29 -80 89 -385 45 -228 85 -432 88 -452z m-2634 -32 c36
-10 90 -29 120 -44 l55 -27 0 -350 0 -350 -33 -67 c-40 -82 -120 -159 -195
-186 -77 -29 -151 -36 -185 -18 -145 75 -362 557 -362 804 0 138 64 216 202
247 85 20 310 14 398 -9z m1262 -102 c4 -3 -7 -45 -23 -92 -16 -48 -61 -188
-100 -312 -80 -252 -94 -284 -151 -346 -50 -54 -110 -89 -184 -109 -103 -27
-284 -15 -284 19 0 7 25 80 56 162 74 197 75 194 -81 194 -130 0 -132 -1 -155
-89 -6 -24 -16 -55 -21 -70 l-11 -26 -13 25 c-11 20 -14 90 -15 338 l0 312
488 0 c269 0 491 -3 494 -6z m238 2 c0 -2 -15 -44 -34 -92 -19 -49 -45 -137
-58 -196 l-23 -108 -67 0 c-44 0 -68 4 -68 11 0 25 114 374 124 381 11 8 126
11 126 4z m1155 -7 c4 -6 23 -89 42 -186 25 -129 31 -179 23 -187 -7 -7 -89
-12 -237 -14 -202 -4 -225 -2 -220 12 10 25 67 323 67 349 0 13 3 27 7 30 11
12 311 8 318 -4z m687 5 c4 -3 -28 -37 -69 -75 -127 -118 -308 -236 -318 -207
-11 31 -53 274 -48 280 5 9 427 11 435 2z m66 -180 c165 -65 382 -190 472
-273 l45 -41 -30 -26 c-49 -41 -260 -139 -397 -183 -128 -41 -249 -73 -255
-67 -2 2 0 14 5 27 10 27 28 133 36 222 l6 57 -48 0 -49 0 -7 -82 c-8 -95 -42
-239 -59 -250 -7 -4 -26 -8 -42 -8 l-31 0 -39 205 c-21 113 -37 207 -34 209 2
2 31 17 64 34 67 34 220 140 255 177 13 14 28 25 33 25 5 0 39 -12 75 -26z
m-618 -487 c19 -98 29 -172 24 -176 -9 -9 -297 -41 -361 -41 l-31 0 20 58 c11
31 23 87 26 125 l5 67 -45 0 -45 0 -7 -57 c-8 -71 -33 -143 -61 -179 -21 -26
-24 -27 -165 -32 l-143 -5 52 62 c58 71 100 147 147 271 l32 85 245 5 c135 3
249 9 253 13 12 11 17 -8 54 -196z m-1418 143 c-4 -54 15 -199 33 -254 9 -27
28 -67 41 -88 l25 -39 -47 3 -46 3 -30 75 c-16 41 -36 81 -45 88 -10 7 -48 12
-96 12 -72 0 -78 2 -72 18 4 9 23 63 42 120 l35 103 81 -3 82 -3 -3 -35z
m-243 -358 c1 -9 -11 -11 -41 -6 -99 13 -97 9 -42 65 l49 50 17 -48 c9 -27 17
-54 17 -61z m121 47 c7 -11 65 -158 131 -325 l119 -306 0 -211 c1 -208 1 -213
25 -252 14 -22 25 -43 25 -47 0 -5 -17 -8 -37 -8 -34 0 -41 5 -67 46 l-29 46
7 206 6 207 -109 327 c-60 180 -106 329 -103 332 10 11 21 6 32 -15z"/>
<path d="M690 2814 c-74 -32 -113 -92 -132 -202 -10 -59 -9 -79 5 -138 31
-126 97 -189 193 -181 85 6 141 65 170 176 36 143 -17 295 -120 342 -49 22
-70 23 -116 3z m129 -147 c51 -106 3 -287 -76 -287 -56 0 -111 116 -98 209 8
58 42 122 75 138 34 17 73 -6 99 -60z"/>
</g>
</svg>
