<?xml version="1.0" encoding="utf-8"?>
<!-- Generator: Adobe Illustrator 16.0.3, SVG Export Plug-In . SVG Version: 6.00 Build 0)  -->
<!DOCTYPE svg PUBLIC "-//W3C//DTD SVG 1.1//EN" "http://www.w3.org/Graphics/SVG/1.1/DTD/svg11.dtd">
<svg version="1.1" id="Layer_1" xmlns="http://www.w3.org/2000/svg" xmlns:xlink="http://www.w3.org/1999/xlink" x="0px" y="0px"
	 width="760px" height="143.441px" viewBox="0 0 760 143.441" enable-background="new 0 0 760 143.441" xml:space="preserve">
<line fill-rule="evenodd" clip-rule="evenodd" fill="#006837" stroke="#000000" stroke-width="2" stroke-miterlimit="10" x1="5" y1="63.845" x2="759" y2="63.845"/>
<line fill-rule="evenodd" clip-rule="evenodd" fill="#006837" stroke="#000000" stroke-width="2" stroke-miterlimit="10" x1="5" y1="55.845" x2="5" y2="68.845"/>
<line fill-rule="evenodd" clip-rule="evenodd" fill="#006837" stroke="#000000" stroke-width="2" stroke-miterlimit="10" x1="759" y1="55.845" x2="759" y2="68.845"/>
<line fill-rule="evenodd" clip-rule="evenodd" fill="#006837" stroke="#000000" stroke-width="2" stroke-miterlimit="10" x1="105" y1="56.845" x2="105" y2="69.845"/>
<line fill-rule="evenodd" clip-rule="evenodd" fill="#006837" stroke="#000000" stroke-width="2" stroke-miterlimit="10" x1="205" y1="56.845" x2="205" y2="69.845"/>
<line fill-rule="evenodd" clip-rule="evenodd" fill="#006837" stroke="#000000" stroke-width="2" stroke-miterlimit="10" x1="305" y1="55.845" x2="305" y2="68.845"/>
<line fill-rule="evenodd" clip-rule="evenodd" fill="#006837" stroke="#000000" stroke-width="2" stroke-miterlimit="10" x1="405" y1="55.845" x2="405" y2="68.845"/>
<line fill-rule="evenodd" clip-rule="evenodd" fill="#006837" stroke="#000000" stroke-width="2" stroke-miterlimit="10" x1="505" y1="56.845" x2="505" y2="69.845"/>
<line fill-rule="evenodd" clip-rule="evenodd" fill="#006837" stroke="#000000" stroke-width="2" stroke-miterlimit="10" x1="606" y1="56.845" x2="606" y2="69.845"/>
<line fill-rule="evenodd" clip-rule="evenodd" fill="#006837" stroke="#000000" stroke-width="2" stroke-miterlimit="10" x1="705" y1="56.845" x2="705" y2="69.845"/>
<text transform="matrix(1 0 0 1 100 88.8452)" font-family="'MyriadPro-Regular'" font-size="18">1</text>
<text transform="matrix(1 0 0 1 200 88.8452)" font-family="'MyriadPro-Regular'" font-size="18">2</text>
<text transform="matrix(1 0 0 1 299 88.8452)" font-family="'MyriadPro-Regular'" font-size="18">3</text>
<text transform="matrix(1 0 0 1 400 88.8452)" font-family="'MyriadPro-Regular'" font-size="18">4</text>
<text transform="matrix(1 0 0 1 500 88.8452)" font-family="'MyriadPro-Regular'" font-size="18">5</text>
<text transform="matrix(1 0 0 1 601 88.8452)" font-family="'MyriadPro-Regular'" font-size="18">6</text>
<text transform="matrix(1 0 0 1 699 88.8452)" font-family="'MyriadPro-Regular'" font-size="18">7</text>
<text transform="matrix(1 0 0 1 322 135.8452)" font-family="'HelveticaNeueLight'" font-size="36">Seconds</text>
<text transform="matrix(1 0 0 1 0 88.8452)" font-family="'MyriadPro-Regular'" font-size="18">0</text>
<g>
	<path fill-rule="evenodd" clip-rule="evenodd" fill="#006837" d="M759.088,17.462c0-3.166-0.148-6.34,0.044-9.494
		c0.174-2.859-0.954-4.224-3.742-4.831c-11.862-2.577-23.611-3.135-35.591-0.188c-9.869,2.428-20.028,3.522-30.234,2.34
		c-7.104-0.822-14.203-1.803-21.241-3.065c-11.374-2.039-22.532-0.139-33.754,1.263c-6.577,0.82-13.232,2.037-19.79,1.732
		c-9.431-0.438-18.785-2.298-28.207-3.167c-6.097-0.561-12.289-0.909-18.38-0.496c-7.275,0.494-14.47,2.08-21.734,2.87
		c-9.532,1.039-18.923-0.189-28.229-2.345c-8.993-2.083-18.004-3.1-27.166-0.656c-4.651,1.24-9.437,2.025-14.192,2.823
		c-9.081,1.521-18.15,2.11-27.266-0.07c-14.725-3.521-29.695-4.758-44.563-1.718c-16.823,3.44-33.313,2.763-50.013-0.715
		c-10.524-2.192-21.344-1.202-31.756,1.039c-12.32,2.651-24.499,2.342-36.67,0.157c-11.916-2.14-23.836-3.158-35.748-0.96
		c-12.76,2.353-25.284,2.415-38.123,0.108c-16.216-2.913-32.493-2.36-48.377,2.829c-11.621,3.796-23.365,4.369-35.477,2.268
		c-12.503-2.168-25.212-2.961-37.559,1.034c-15.45,5.001-31.136,4.729-46.949,2.892c-11.012-1.279-21.936-1-32.742,1.59
		c-1.76,0.422-3.548,1.052-5.093,1.972c-2.257,1.345-2.211,3.296,0.096,4.614c1.568,0.895,3.36,1.447,5.106,1.973
		c12.223,3.685,24.78,3.303,37.182,1.998c14.551-1.531,28.723-1.867,42.984,2.551c6.187,1.916,13.169,1.959,19.75,1.729
		c7.788-0.273,15.57-1.539,23.287-2.788c6.715-1.087,13.307-0.577,19.813,0.831c6.492,1.404,12.837,3.477,19.287,5.1
		c14.863,3.74,29.765,2.516,44.631,0.021c7.805-1.311,15.541-1.089,23.34,0.026c7.879,1.126,15.792,2.553,23.712,2.699
		c6.761,0.127,13.555-1.353,20.33-2.159c11.973-1.427,23.851-0.858,35.799,0.781c10.369,1.423,20.87,1.974,31.326,0.293
		c13.986-2.249,27.784-3.821,42.058-0.572c15.394,3.505,31.098,2.122,46.614-0.745c11.069-2.046,22.181-2.14,33.243,0.168
		c12.843,2.678,25.733,3.365,38.699,1.034c9.854-1.772,19.742-3.215,29.784-2.266c5.956,0.563,11.877,1.472,17.822,2.136
		c11.094,1.238,22.185,2.225,33.316,0.22c5.232-0.942,10.518-2.247,15.778-2.243c9.624,0.009,19.328,0.262,28.854,1.512
		c14.671,1.926,29.198,2.088,43.761-0.476c6.286-1.107,12.572-1.06,18.88-0.1c5.752,0.875,11.507,1.796,17.293,2.388
		c12.179,1.246,24.243,0.271,36.23-2.153c2.583-0.522,3.761-1.573,3.619-4.286C758.965,23.799,759.091,20.628,759.088,17.462z"/>
	<path fill-rule="evenodd" clip-rule="evenodd" fill="#006837" d="M759.089,17.462c0.002,3.166-0.124,6.337,0.04,9.494
		c0.142,2.713-1.036,3.764-3.619,4.286c-11.987,2.425-24.052,3.399-36.23,2.153c-5.786-0.592-11.541-1.513-17.293-2.388
		c-6.308-0.96-12.594-1.008-18.88,0.1c-14.563,2.563-29.09,2.401-43.761,0.476c-9.526-1.25-19.23-1.503-28.854-1.512
		c-5.261-0.004-10.546,1.301-15.778,2.243c-11.132,2.005-22.223,1.019-33.316-0.22c-5.945-0.664-11.866-1.573-17.822-2.136
		c-10.042-0.949-19.93,0.493-29.784,2.266c-12.966,2.331-25.856,1.644-38.699-1.034c-11.063-2.308-22.174-2.214-33.243-0.168
		c-15.517,2.867-31.221,4.25-46.614,0.745c-14.273-3.249-28.071-1.677-42.058,0.572c-10.456,1.681-20.957,1.13-31.326-0.293
		c-11.948-1.64-23.826-2.208-35.799-0.781c-6.775,0.807-13.568,2.286-20.33,2.159c-7.919-0.146-15.833-1.573-23.712-2.699
		c-7.8-1.115-15.536-1.337-23.34-0.026c-14.866,2.495-29.768,3.72-44.631-0.021c-6.45-1.623-12.794-3.695-19.287-5.1
		c-6.506-1.408-13.098-1.918-19.813-0.831c-7.717,1.249-15.499,2.515-23.287,2.788c-6.581,0.23-13.563,0.188-19.75-1.729
		c-14.261-4.418-28.433-4.082-42.984-2.551c-12.401,1.305-24.958,1.687-37.182-1.998c-1.746-0.525-3.538-1.078-5.106-1.973
		c-2.307-1.318-2.354-3.27-0.096-4.614c1.545-0.92,3.333-1.55,5.093-1.972c10.806-2.59,21.73-2.869,32.742-1.59
		c15.813,1.838,31.499,2.109,46.949-2.892c12.347-3.995,25.056-3.202,37.559-1.034c12.112,2.102,23.856,1.528,35.477-2.268
		c15.885-5.188,32.161-5.741,48.377-2.829c12.838,2.307,25.362,2.245,38.123-0.108c11.912-2.197,23.832-1.18,35.748,0.96
		c12.172,2.185,24.35,2.494,36.67-0.157c10.412-2.241,21.232-3.231,31.756-1.039c16.699,3.479,33.189,4.155,50.013,0.715
		c14.868-3.04,29.839-1.803,44.563,1.718c9.115,2.181,18.185,1.591,27.266,0.07c4.756-0.798,9.541-1.583,14.192-2.823
		c9.162-2.444,18.173-1.428,27.166,0.656c9.306,2.156,18.696,3.384,28.229,2.345c7.265-0.791,14.459-2.376,21.734-2.87
		c6.091-0.413,12.283-0.065,18.38,0.496c9.422,0.869,18.776,2.73,28.207,3.167c6.558,0.305,13.213-0.912,19.79-1.732
		c11.222-1.401,22.38-3.301,33.754-1.263c7.038,1.262,14.137,2.243,21.241,3.065c10.206,1.182,20.365,0.088,30.234-2.34
		c11.979-2.948,23.729-2.389,35.591,0.188c2.788,0.606,3.916,1.971,3.742,4.831C758.939,11.123,759.088,14.296,759.089,17.462z"/>
</g>
</svg>
