<?xml version="1.0" encoding="utf-8"?>
<!-- Generator: Adobe Illustrator 16.0.3, SVG Export Plug-In . SVG Version: 6.00 Build 0)  -->
<!DOCTYPE svg PUBLIC "-//W3C//DTD SVG 1.1//EN" "http://www.w3.org/Graphics/SVG/1.1/DTD/svg11.dtd">
<svg version="1.1" id="Layer_1" xmlns="http://www.w3.org/2000/svg" xmlns:xlink="http://www.w3.org/1999/xlink" x="0px" y="0px"
	 width="760px" height="169.73px" viewBox="0 0 760 169.73" enable-background="new 0 0 760 169.73" xml:space="preserve">
<line fill-rule="evenodd" clip-rule="evenodd" fill="#006837" stroke="#000000" stroke-width="2" stroke-miterlimit="10" x1="5" y1="93.134" x2="759" y2="93.134"/>
<line fill-rule="evenodd" clip-rule="evenodd" fill="#006837" stroke="#000000" stroke-width="2" stroke-miterlimit="10" x1="5" y1="85.134" x2="5" y2="98.134"/>
<line fill-rule="evenodd" clip-rule="evenodd" fill="#006837" stroke="#000000" stroke-width="2" stroke-miterlimit="10" x1="759" y1="85.134" x2="759" y2="98.134"/>
<line fill-rule="evenodd" clip-rule="evenodd" fill="#006837" stroke="#000000" stroke-width="2" stroke-miterlimit="10" x1="105" y1="86.134" x2="105" y2="99.134"/>
<line fill-rule="evenodd" clip-rule="evenodd" fill="#006837" stroke="#000000" stroke-width="2" stroke-miterlimit="10" x1="205" y1="86.134" x2="205" y2="99.134"/>
<line fill-rule="evenodd" clip-rule="evenodd" fill="#006837" stroke="#000000" stroke-width="2" stroke-miterlimit="10" x1="305" y1="85.134" x2="305" y2="98.134"/>
<line fill-rule="evenodd" clip-rule="evenodd" fill="#006837" stroke="#000000" stroke-width="2" stroke-miterlimit="10" x1="405" y1="85.134" x2="405" y2="98.134"/>
<line fill-rule="evenodd" clip-rule="evenodd" fill="#006837" stroke="#000000" stroke-width="2" stroke-miterlimit="10" x1="505" y1="86.134" x2="505" y2="99.134"/>
<line fill-rule="evenodd" clip-rule="evenodd" fill="#006837" stroke="#000000" stroke-width="2" stroke-miterlimit="10" x1="606" y1="86.134" x2="606" y2="99.134"/>
<line fill-rule="evenodd" clip-rule="evenodd" fill="#006837" stroke="#000000" stroke-width="2" stroke-miterlimit="10" x1="705" y1="86.134" x2="705" y2="99.134"/>
<text transform="matrix(1 0 0 1 100 118.1343)" font-family="'MyriadPro-Regular'" font-size="18">1</text>
<text transform="matrix(1 0 0 1 200 118.1343)" font-family="'MyriadPro-Regular'" font-size="18">2</text>
<text transform="matrix(1 0 0 1 299 118.1343)" font-family="'MyriadPro-Regular'" font-size="18">3</text>
<text transform="matrix(1 0 0 1 400 118.1343)" font-family="'MyriadPro-Regular'" font-size="18">4</text>
<text transform="matrix(1 0 0 1 500 118.1343)" font-family="'MyriadPro-Regular'" font-size="18">5</text>
<text transform="matrix(1 0 0 1 601 118.1343)" font-family="'MyriadPro-Regular'" font-size="18">6</text>
<text transform="matrix(1 0 0 1 699 118.1343)" font-family="'MyriadPro-Regular'" font-size="18">7</text>
<text transform="matrix(1 0 0 1 323 162.1343)" font-family="'HelveticaNeueLight'" font-size="36">Seconds</text>
<text transform="matrix(1 0 0 1 0 118.1343)" font-family="'MyriadPro-Regular'" font-size="18">0</text>
<g>
	<path fill-rule="evenodd" clip-rule="evenodd" fill="#006837" d="M29.52,29.454c-0.193-7.567-0.367-15.207-0.592-22.697
		C28.874,5,28.647,3.747,28.5,2.264c-0.151,1.466-0.36,2.682-0.439,4.457c-0.149,3.359-0.211,7.088-0.337,10.566
		c-0.056,1.532-0.181,2.825-0.274,4.227c-0.084-1.384-0.2-2.677-0.247-4.175c-0.124-3.954-0.192-8.084-0.335-11.96
		c-0.057-1.524-0.251-2.558-0.383-3.813c-0.128,1.329-0.309,2.451-0.375,4.032c-0.167,4.016-0.279,8.259-0.427,12.365
		c-0.032,0.905-0.12,1.622-0.182,2.424c-0.066-0.802-0.161-1.507-0.191-2.421c-0.146-4.351-0.252-8.841-0.42-13.102
		c-0.073-1.844-0.261-3.251-0.397-4.856c-0.146,1.532-0.354,2.828-0.428,4.644c-0.199,4.851-0.332,9.952-0.509,14.892
		c-0.047,1.336-0.159,2.454-0.241,3.671c-0.102-1.285-0.246-2.426-0.299-3.885c-0.173-4.71-0.301-9.578-0.474-14.292
		c-0.046-1.261-0.208-3.219-0.277-3.069c-0.149,0.326-0.331,1.539-0.393,2.864c-0.173,3.754-0.279,7.806-0.441,11.62
		c-0.07,1.647-0.213,2.995-0.324,4.479c-0.078-1.467-0.185-2.859-0.229-4.419c-0.094-3.349-0.107-6.997-0.25-10.101
		c-0.084-1.835-0.335-3.296-0.544-4.008c-0.066-0.225-0.276,2.347-0.354,3.949c-0.199,4.138-0.349,8.498-0.544,12.66
		c-0.057,1.213-0.196,2.052-0.298,3.063c-0.073-1.275-0.167-2.478-0.215-3.838c-0.136-3.894-0.227-7.967-0.392-11.731
		c-0.075-1.711-0.284-2.856-0.433-4.258c-0.112,1.547-0.262,2.952-0.328,4.667c-0.147,3.88-0.236,7.968-0.381,11.858
		c-0.055,1.49-0.197,2.673-0.3,3.995c-0.11-1.229-0.256-2.296-0.325-3.72c-0.125-2.547-0.169-5.495-0.31-7.921
		c-0.12-2.056-0.329-3.61-0.498-5.387c-0.166,1.863-0.37,3.519-0.488,5.637c-0.179,3.231-0.284,6.847-0.447,10.173
		c-0.153,3.112-0.333,2.479-0.463-0.226c-0.142-2.962-0.236-6.171-0.402-8.988c-0.075-1.269-0.266-2.417-0.415-2.542
		c-0.097-0.081-0.246,1.588-0.31,2.791c-0.133,2.501-0.211,5.282-0.338,7.82c-0.173,3.45-0.366,3.73-0.647,0.602
		c-0.725-8.076-0.736-7.979-1.357,0.954c-0.025,0.359-0.041,0.777-0.065,1.141c-0.201,3.003-0.386,2.932-0.623,0.122
		c-0.534-6.331-0.554-6.34-1.115,0.169C8.75,26.724,8.5,27.327,8.142,24.268c-0.227-1.942-0.55-4.312-0.836-1.605
		c-0.425,4.007-0.803,5.132-1.366,2.293c-0.165-0.828-0.558,2.225-0.817,3.931c-0.087,0.58-0.15,2.742-0.11,3.75
		c0.163,4.138,0.648,6.126,1.043,3.889c0.357-2.026,0.596-1.616,0.884,1.065c0.305,2.836,0.754,5.021,1.085,1.985
		c0.528-4.845,0.773-2.196,1.09,1.943c0.316,4.113,0.59,3.86,0.882-0.27c0.496-7.005,0.496-7.005,0.961,0.461
		c0.046,0.742,0.092,1.495,0.143,2.213c0.41,5.839,0.633,5.744,0.99-0.415c0.044-0.758,0.079-1.573,0.125-2.314
		c0.245-3.877,0.35-3.856,0.577,0.22c0.16,2.869,0.277,6.008,0.466,8.668c0.274,3.867,0.61,3.326,0.779-1.001
		c0.103-2.646,0.185-5.373,0.295-7.982c0.04-0.937,0.137-1.638,0.208-2.448c0.077,0.929,0.173,1.755,0.227,2.796
		c0.218,4.264,0.374,8.927,0.646,12.809c0.296,4.208,0.481,3.764,0.696-0.844c0.138-2.977,0.24-6.112,0.375-9.108
		c0.06-1.316,0.16-2.453,0.242-3.671c0.099,1.307,0.23,2.487,0.292,3.949c0.144,3.417,0.229,7.087,0.389,10.418
		c0.087,1.824,0.278,3.168,0.423,4.728c0.168-1.565,0.395-2.846,0.492-4.757c0.178-3.489,0.272-7.379,0.418-11.041
		c0.045-1.132,0.145-2.057,0.219-3.077c0.072,0.989,0.166,1.892,0.212,2.984c0.19,4.417,0.353,8.952,0.556,13.308
		c0.065,1.393,0.225,2.363,0.341,3.528c0.102-1.354,0.24-2.571,0.299-4.086c0.167-4.275,0.289-8.713,0.454-12.998
		c0.051-1.339,0.182-2.391,0.275-3.572c0.089,1.158,0.201,2.215,0.263,3.499c0.2,4.134,0.365,8.43,0.577,12.494
		c0.082,1.575,0.254,2.7,0.385,4.03c0.141-1.543,0.336-2.865,0.412-4.671c0.177-4.222,0.287-8.704,0.445-13.007
		c0.04-1.085,0.157-1.899,0.239-2.837c0.061,1.047,0.143,2.03,0.18,3.152c0.151,4.536,0.262,9.222,0.444,13.625
		c0.074,1.788,0.294,2.994,0.448,4.466c0.119-1.678,0.282-3.202,0.349-5.059c0.176-4.937,0.303-10.034,0.467-15.011
		c0.027-0.804,0.145-1.316,0.22-1.966c0.048,0.674,0.113,1.29,0.141,2.035c0.198,5.296,0.376,10.664,0.589,15.899
		c0.065,1.612,0.22,2.88,0.333,4.307c0.109-1.288,0.27-2.415,0.316-3.887c0.153-4.778,0.255-9.704,0.396-14.514
		c0.031-1.031,0.147-1.82,0.223-2.723c0.057,0.879,0.134,1.694,0.164,2.651c0.153,4.785,0.273,9.679,0.448,14.376
		c0.059,1.548,0.248,2.626,0.376,3.921c0.129-1.371,0.332-2.554,0.374-4.142C29.115,47.802,29.305,38.848,29.52,29.454z"/>
	<path fill-rule="evenodd" clip-rule="evenodd" fill="#006837" d="M29.229,33.21c0.215-9.392,0.406-18.345,0.637-27.199
		c0.041-1.589,0.245-2.77,0.373-4.14c0.129,1.295,0.318,2.375,0.376,3.923c0.175,4.699,0.295,9.594,0.446,14.38
		c0.032,0.956,0.108,1.771,0.165,2.651c0.076-0.902,0.192-1.69,0.223-2.721c0.142-4.81,0.244-9.735,0.396-14.511
		c0.047-1.472,0.208-2.599,0.317-3.885c0.113,1.427,0.266,2.696,0.333,4.31c0.211,5.237,0.391,10.606,0.588,15.902
		c0.028,0.746,0.092,1.362,0.141,2.036c0.075-0.648,0.193-1.16,0.22-1.965c0.165-4.975,0.292-10.074,0.469-15.007
		c0.066-1.858,0.229-3.381,0.348-5.057c0.153,1.472,0.374,2.68,0.448,4.468c0.183,4.404,0.292,9.092,0.443,13.627
		c0.038,1.124,0.119,2.105,0.18,3.154c0.082-0.938,0.199-1.749,0.239-2.836c0.159-4.301,0.27-8.783,0.446-13.004
		c0.076-1.804,0.271-3.126,0.412-4.667c0.131,1.33,0.303,2.457,0.385,4.033c0.212,4.065,0.376,8.363,0.576,12.497
		c0.062,1.285,0.174,2.341,0.262,3.501c0.095-1.182,0.225-2.231,0.276-3.571c0.166-4.284,0.289-8.721,0.456-12.996
		c0.059-1.513,0.197-2.73,0.299-4.082c0.116,1.164,0.276,2.136,0.341,3.53c0.203,4.357,0.365,8.893,0.555,13.31
		c0.046,1.094,0.14,1.997,0.212,2.986c0.075-1.019,0.174-1.944,0.218-3.076c0.146-3.659,0.241-7.55,0.419-11.038
		c0.098-1.911,0.325-3.189,0.493-4.753c0.145,1.561,0.336,2.906,0.424,4.731c0.159,3.331,0.244,7.001,0.387,10.421
		c0.062,1.46,0.193,2.642,0.292,3.95c0.082-1.217,0.182-2.354,0.242-3.67c0.135-2.994,0.237-6.131,0.376-9.105
		c0.215-4.606,0.4-5.049,0.696-0.84c0.272,3.883,0.428,8.548,0.646,12.813c0.052,1.042,0.149,1.87,0.226,2.799
		c0.071-0.81,0.168-1.512,0.208-2.448c0.111-2.608,0.194-5.334,0.296-7.979c0.169-4.326,0.504-4.865,0.779-0.997
		c0.188,2.662,0.306,5.802,0.465,8.671c0.227,4.079,0.331,4.1,0.576,0.225c0.047-0.74,0.082-1.555,0.126-2.314
		c0.357-6.156,0.58-6.25,0.989-0.407c0.05,0.719,0.096,1.47,0.143,2.215c0.465,7.468,0.464,7.468,0.96,0.466
		c0.293-4.128,0.566-4.378,0.882-0.263c0.317,4.14,0.562,6.791,1.09,1.95c0.332-3.036,0.781-0.847,1.086,1.991
		c0.287,2.682,0.526,3.093,0.884,1.071c0.395-2.235,0.88-0.244,1.043,3.895c0.04,1.007-0.023,3.169-0.111,3.748
		c-0.259,1.705-0.653,4.756-0.818,3.926c-0.563-2.842-0.941-1.719-1.366,2.285c-0.288,2.703-0.61,0.332-0.836-1.611
		c-0.357-3.059-0.607-2.46-0.895,0.872c-0.561,6.508-0.581,6.497-1.114,0.162c-0.236-2.812-0.422-2.883-0.624,0.119
		c-0.025,0.364-0.04,0.781-0.065,1.14c-0.622,8.929-0.633,9.025-1.357,0.946c-0.28-3.129-0.473-2.851-0.646,0.597
		c-0.127,2.537-0.205,5.319-0.338,7.817c-0.064,1.202-0.214,2.871-0.311,2.79c-0.148-0.123-0.339-1.275-0.414-2.544
		c-0.165-2.818-0.259-6.027-0.401-8.991c-0.129-2.705-0.31-3.338-0.463-0.227c-0.163,3.325-0.268,6.941-0.447,10.171
		c-0.117,2.115-0.322,3.769-0.488,5.632c-0.169-1.776-0.377-3.335-0.498-5.39c-0.141-2.429-0.186-5.375-0.31-7.924
		c-0.069-1.424-0.214-2.493-0.325-3.721c-0.103,1.32-0.245,2.503-0.3,3.994c-0.145,3.888-0.234,7.975-0.382,11.854
		c-0.065,1.716-0.216,3.121-0.327,4.666c-0.149-1.402-0.357-2.551-0.433-4.261c-0.165-3.765-0.255-7.839-0.391-11.733
		c-0.048-1.362-0.142-2.563-0.215-3.838c-0.102,1.009-0.242,1.846-0.298,3.06c-0.195,4.159-0.346,8.519-0.545,12.656
		c-0.078,1.6-0.288,4.171-0.354,3.945c-0.209-0.712-0.46-2.174-0.544-4.01c-0.142-3.106-0.155-6.753-0.249-10.103
		c-0.043-1.562-0.15-2.952-0.229-4.421c-0.109,1.483-0.253,2.83-0.324,4.478c-0.162,3.814-0.269,7.864-0.442,11.617
		c-0.061,1.325-0.244,2.535-0.393,2.861c-0.068,0.149-0.231-1.809-0.277-3.071c-0.172-4.714-0.3-9.583-0.473-14.294
		c-0.054-1.459-0.197-2.602-0.299-3.888c-0.083,1.217-0.194,2.333-0.242,3.672c-0.177,4.937-0.311,10.036-0.509,14.888
		c-0.075,1.814-0.282,3.109-0.429,4.639c-0.136-1.607-0.323-3.014-0.396-4.859c-0.167-4.26-0.273-8.751-0.42-13.104
		c-0.03-0.913-0.125-1.619-0.19-2.423c-0.062,0.803-0.149,1.52-0.182,2.423c-0.148,4.105-0.259,8.346-0.428,12.364
		c-0.066,1.582-0.247,2.701-0.375,4.028c-0.132-1.256-0.327-2.292-0.383-3.814c-0.143-3.877-0.212-8.01-0.335-11.963
		c-0.046-1.5-0.163-2.792-0.247-4.177c-0.093,1.399-0.218,2.694-0.274,4.226c-0.126,3.478-0.188,7.205-0.338,10.564
		c-0.08,1.773-0.289,2.988-0.44,4.455c-0.147-1.484-0.374-2.741-0.427-4.497C29.595,48.419,29.421,40.777,29.229,33.21z"/>
</g>
<g>
	<path fill-rule="evenodd" clip-rule="evenodd" fill="#006837" d="M190.102,30.305c-0.192-7.567-0.367-15.207-0.592-22.697
		c-0.054-1.757-0.28-3.01-0.428-4.493c-0.15,1.466-0.359,2.682-0.439,4.457c-0.149,3.359-0.211,7.088-0.337,10.566
		c-0.056,1.532-0.181,2.825-0.274,4.227c-0.084-1.384-0.199-2.677-0.246-4.175c-0.124-3.954-0.193-8.084-0.336-11.96
		c-0.057-1.524-0.252-2.558-0.383-3.813c-0.129,1.329-0.31,2.451-0.376,4.032c-0.167,4.016-0.279,8.259-0.427,12.365
		c-0.033,0.905-0.121,1.622-0.183,2.424c-0.065-0.802-0.161-1.507-0.19-2.421c-0.146-4.351-0.253-8.841-0.421-13.102
		c-0.073-1.844-0.261-3.251-0.397-4.856c-0.146,1.532-0.354,2.828-0.428,4.644c-0.198,4.851-0.331,9.952-0.508,14.892
		c-0.047,1.336-0.159,2.454-0.241,3.671c-0.102-1.285-0.246-2.426-0.299-3.885c-0.173-4.71-0.301-9.578-0.474-14.292
		c-0.046-1.261-0.208-3.219-0.277-3.069c-0.149,0.326-0.331,1.539-0.393,2.864c-0.173,3.754-0.279,7.806-0.441,11.62
		c-0.07,1.647-0.213,2.995-0.324,4.479c-0.078-1.467-0.185-2.859-0.229-4.419c-0.094-3.349-0.107-6.997-0.25-10.101
		c-0.084-1.835-0.335-3.296-0.544-4.008c-0.066-0.225-0.276,2.347-0.354,3.949c-0.199,4.138-0.349,8.498-0.544,12.66
		c-0.057,1.213-0.196,2.052-0.298,3.063c-0.073-1.275-0.167-2.478-0.215-3.838c-0.136-3.894-0.227-7.967-0.392-11.731
		c-0.075-1.711-0.284-2.856-0.433-4.258c-0.112,1.547-0.262,2.952-0.328,4.667c-0.147,3.88-0.236,7.968-0.381,11.858
		c-0.055,1.49-0.197,2.673-0.3,3.995c-0.11-1.229-0.256-2.296-0.325-3.72c-0.125-2.547-0.169-5.495-0.31-7.921
		c-0.12-2.056-0.329-3.61-0.498-5.387c-0.166,1.863-0.37,3.519-0.488,5.637c-0.179,3.231-0.284,6.847-0.447,10.173
		c-0.153,3.112-0.333,2.479-0.463-0.226c-0.142-2.962-0.236-6.171-0.402-8.988c-0.075-1.269-0.266-2.417-0.415-2.542
		c-0.097-0.081-0.246,1.588-0.31,2.791c-0.133,2.501-0.211,5.282-0.338,7.82c-0.173,3.45-0.366,3.73-0.647,0.602
		c-0.725-8.076-0.736-7.979-1.357,0.954c-0.025,0.359-0.041,0.777-0.065,1.141c-0.201,3.003-0.386,2.932-0.623,0.122
		c-0.534-6.331-0.554-6.34-1.115,0.169c-0.287,3.333-0.537,3.936-0.895,0.877c-0.227-1.942-0.55-4.312-0.836-1.605
		c-0.425,4.007-0.803,5.132-1.366,2.293c-0.165-0.828-0.558,2.225-0.817,3.931c-0.087,0.58-0.15,2.742-0.11,3.75
		c0.163,4.138,0.648,6.126,1.043,3.889c0.357-2.026,0.596-1.616,0.884,1.065c0.305,2.836,0.754,5.021,1.085,1.985
		c0.528-4.845,0.773-2.196,1.09,1.943c0.316,4.113,0.59,3.86,0.882-0.27c0.496-7.005,0.496-7.005,0.961,0.461
		c0.046,0.742,0.092,1.495,0.143,2.213c0.41,5.839,0.633,5.744,0.99-0.415c0.044-0.758,0.079-1.573,0.125-2.314
		c0.245-3.877,0.35-3.856,0.577,0.22c0.16,2.869,0.277,6.008,0.466,8.668c0.274,3.867,0.61,3.326,0.779-1.001
		c0.103-2.646,0.185-5.373,0.295-7.982c0.04-0.937,0.137-1.638,0.208-2.448c0.077,0.929,0.173,1.755,0.227,2.796
		c0.218,4.264,0.374,8.927,0.646,12.809c0.296,4.208,0.481,3.764,0.696-0.844c0.138-2.977,0.24-6.112,0.375-9.108
		c0.06-1.316,0.16-2.453,0.242-3.671c0.099,1.307,0.23,2.487,0.292,3.949c0.144,3.417,0.229,7.087,0.389,10.418
		c0.087,1.823,0.278,3.168,0.423,4.728c0.168-1.565,0.395-2.846,0.492-4.757c0.178-3.489,0.272-7.379,0.418-11.041
		c0.045-1.132,0.145-2.057,0.219-3.077c0.072,0.989,0.166,1.892,0.212,2.984c0.19,4.417,0.353,8.952,0.556,13.308
		c0.065,1.393,0.225,2.362,0.341,3.528c0.102-1.354,0.24-2.572,0.299-4.086c0.167-4.275,0.289-8.713,0.454-12.999
		c0.051-1.339,0.182-2.391,0.275-3.572c0.089,1.158,0.201,2.215,0.263,3.499c0.2,4.134,0.365,8.43,0.577,12.494
		c0.082,1.574,0.254,2.699,0.385,4.03c0.141-1.544,0.336-2.865,0.412-4.671c0.177-4.222,0.287-8.704,0.445-13.007
		c0.04-1.085,0.157-1.899,0.239-2.837c0.061,1.047,0.143,2.03,0.18,3.152c0.151,4.536,0.262,9.222,0.445,13.625
		c0.074,1.787,0.294,2.994,0.447,4.466c0.119-1.678,0.282-3.202,0.349-5.059c0.176-4.937,0.304-10.034,0.468-15.011
		c0.026-0.804,0.145-1.316,0.22-1.966c0.048,0.674,0.112,1.29,0.141,2.035c0.198,5.296,0.376,10.664,0.589,15.899
		c0.066,1.612,0.221,2.88,0.333,4.307c0.109-1.288,0.271-2.415,0.316-3.887c0.153-4.778,0.255-9.704,0.396-14.514
		c0.031-1.031,0.146-1.82,0.223-2.723c0.057,0.879,0.134,1.694,0.164,2.651c0.152,4.785,0.273,9.679,0.447,14.376
		c0.059,1.549,0.248,2.627,0.377,3.922c0.129-1.371,0.332-2.555,0.373-4.143C189.698,48.653,189.887,39.698,190.102,30.305z"/>
	<path fill-rule="evenodd" clip-rule="evenodd" fill="#006837" d="M189.811,34.061c0.215-9.392,0.406-18.345,0.637-27.199
		c0.041-1.589,0.244-2.77,0.373-4.14c0.129,1.295,0.318,2.375,0.376,3.923c0.175,4.699,0.295,9.594,0.446,14.38
		c0.031,0.956,0.108,1.771,0.165,2.651c0.076-0.902,0.192-1.69,0.223-2.721c0.142-4.81,0.244-9.735,0.396-14.511
		c0.048-1.472,0.209-2.599,0.318-3.885c0.112,1.427,0.266,2.696,0.332,4.31c0.211,5.237,0.391,10.606,0.588,15.902
		c0.027,0.746,0.092,1.362,0.141,2.036c0.075-0.648,0.193-1.16,0.221-1.965c0.164-4.975,0.291-10.074,0.469-15.007
		c0.065-1.858,0.229-3.381,0.348-5.057c0.153,1.472,0.373,2.68,0.447,4.468c0.184,4.404,0.293,9.092,0.443,13.627
		c0.038,1.124,0.119,2.105,0.181,3.154c0.081-0.938,0.199-1.749,0.239-2.836c0.158-4.301,0.27-8.783,0.445-13.004
		c0.076-1.804,0.271-3.126,0.412-4.667c0.132,1.33,0.303,2.457,0.385,4.033c0.213,4.065,0.377,8.363,0.576,12.497
		c0.063,1.285,0.174,2.341,0.263,3.501c0.095-1.182,0.225-2.231,0.276-3.571c0.165-4.284,0.288-8.721,0.455-12.996
		c0.059-1.513,0.197-2.73,0.299-4.082c0.116,1.164,0.276,2.136,0.342,3.53c0.202,4.357,0.364,8.893,0.555,13.31
		c0.047,1.094,0.14,1.997,0.213,2.986c0.074-1.019,0.174-1.944,0.218-3.076c0.146-3.659,0.241-7.55,0.419-11.038
		c0.098-1.911,0.324-3.189,0.492-4.753c0.146,1.561,0.337,2.906,0.424,4.731c0.159,3.331,0.244,7.001,0.387,10.421
		c0.063,1.46,0.193,2.642,0.293,3.95c0.082-1.217,0.182-2.354,0.242-3.67c0.135-2.994,0.236-6.131,0.375-9.105
		c0.215-4.606,0.4-5.049,0.696-0.84c0.272,3.883,0.428,8.548,0.646,12.813c0.053,1.042,0.15,1.87,0.227,2.799
		c0.07-0.81,0.168-1.512,0.207-2.448c0.111-2.608,0.193-5.334,0.297-7.979c0.169-4.326,0.504-4.865,0.778-0.997
		c0.188,2.662,0.306,5.802,0.466,8.671c0.227,4.079,0.33,4.1,0.576,0.225c0.047-0.74,0.081-1.555,0.125-2.314
		c0.357-6.156,0.58-6.25,0.99-0.407c0.05,0.719,0.096,1.47,0.143,2.215c0.465,7.468,0.465,7.468,0.961,0.466
		c0.293-4.128,0.565-4.378,0.882-0.263c0.317,4.14,0.562,6.791,1.09,1.95c0.332-3.036,0.781-0.847,1.086,1.991
		c0.287,2.682,0.526,3.093,0.884,1.071c0.396-2.235,0.881-0.244,1.043,3.895c0.04,1.007-0.022,3.169-0.11,3.748
		c-0.259,1.705-0.653,4.756-0.817,3.926c-0.563-2.842-0.941-1.719-1.366,2.285c-0.288,2.703-0.61,0.332-0.837-1.611
		c-0.356-3.059-0.606-2.46-0.895,0.872c-0.561,6.508-0.581,6.497-1.114,0.162c-0.236-2.812-0.422-2.883-0.624,0.119
		c-0.024,0.364-0.039,0.781-0.064,1.14c-0.623,8.929-0.633,9.026-1.357,0.946c-0.281-3.129-0.474-2.851-0.646,0.597
		c-0.128,2.537-0.205,5.319-0.338,7.817c-0.064,1.203-0.215,2.871-0.312,2.79c-0.147-0.123-0.339-1.274-0.414-2.544
		c-0.165-2.818-0.259-6.027-0.401-8.991c-0.129-2.705-0.311-3.338-0.463-0.227c-0.164,3.325-0.269,6.941-0.447,10.171
		c-0.117,2.115-0.322,3.769-0.488,5.632c-0.17-1.776-0.378-3.335-0.498-5.39c-0.141-2.429-0.186-5.375-0.31-7.924
		c-0.069-1.424-0.214-2.493-0.325-3.721c-0.103,1.32-0.244,2.503-0.3,3.994c-0.146,3.888-0.234,7.975-0.382,11.854
		c-0.064,1.716-0.216,3.12-0.327,4.666c-0.149-1.402-0.357-2.551-0.433-4.261c-0.165-3.765-0.255-7.84-0.391-11.733
		c-0.048-1.362-0.143-2.563-0.215-3.838c-0.103,1.009-0.242,1.846-0.299,3.06c-0.195,4.159-0.346,8.519-0.545,12.656
		c-0.078,1.6-0.288,4.172-0.354,3.945c-0.209-0.713-0.461-2.174-0.545-4.01c-0.142-3.106-0.154-6.754-0.248-10.104
		c-0.044-1.562-0.15-2.952-0.229-4.421c-0.109,1.483-0.254,2.83-0.324,4.478c-0.162,3.814-0.269,7.863-0.442,11.617
		c-0.062,1.324-0.244,2.535-0.393,2.861c-0.068,0.148-0.231-1.81-0.276-3.071c-0.172-4.714-0.301-9.583-0.473-14.294
		c-0.055-1.459-0.197-2.602-0.299-3.888c-0.083,1.217-0.195,2.333-0.242,3.672c-0.178,4.937-0.312,10.036-0.51,14.888
		c-0.074,1.813-0.281,3.108-0.428,4.639c-0.137-1.607-0.324-3.014-0.396-4.859c-0.168-4.26-0.273-8.75-0.42-13.104
		c-0.03-0.913-0.125-1.619-0.191-2.423c-0.061,0.803-0.148,1.52-0.182,2.423c-0.148,4.106-0.26,8.346-0.428,12.364
		c-0.066,1.582-0.248,2.701-0.376,4.028c-0.132-1.256-0.327-2.292-0.383-3.813c-0.143-3.877-0.212-8.011-0.335-11.964
		c-0.047-1.5-0.163-2.792-0.247-4.177c-0.093,1.399-0.218,2.694-0.274,4.226c-0.126,3.478-0.188,7.205-0.338,10.564
		c-0.079,1.772-0.289,2.987-0.439,4.454c-0.146-1.483-0.373-2.74-0.427-4.496C190.177,49.27,190.003,41.627,189.811,34.061z"/>
</g>
<g>
	<path fill-rule="evenodd" clip-rule="evenodd" fill="#006837" d="M369.885,31.155c-0.192-7.567-0.367-15.207-0.592-22.697
		c-0.054-1.757-0.28-3.01-0.428-4.493c-0.15,1.466-0.359,2.682-0.439,4.457c-0.149,3.359-0.211,7.088-0.337,10.566
		c-0.056,1.532-0.181,2.825-0.274,4.227c-0.084-1.384-0.199-2.677-0.246-4.175c-0.124-3.954-0.193-8.084-0.336-11.96
		c-0.057-1.524-0.252-2.558-0.383-3.813c-0.129,1.329-0.31,2.451-0.376,4.032c-0.167,4.016-0.279,8.259-0.427,12.365
		c-0.033,0.905-0.121,1.622-0.183,2.424c-0.065-0.802-0.161-1.507-0.19-2.421c-0.146-4.351-0.253-8.841-0.421-13.102
		c-0.073-1.844-0.261-3.251-0.397-4.856c-0.146,1.532-0.354,2.828-0.428,4.644c-0.198,4.851-0.331,9.952-0.508,14.892
		c-0.047,1.336-0.159,2.454-0.241,3.671c-0.102-1.285-0.246-2.426-0.299-3.885c-0.173-4.71-0.301-9.578-0.474-14.292
		c-0.046-1.261-0.208-3.219-0.277-3.069c-0.149,0.326-0.331,1.539-0.393,2.864c-0.173,3.754-0.279,7.806-0.441,11.62
		c-0.07,1.647-0.213,2.995-0.324,4.479c-0.078-1.467-0.185-2.859-0.229-4.419c-0.094-3.349-0.107-6.997-0.25-10.101
		c-0.084-1.835-0.335-3.296-0.544-4.008c-0.066-0.225-0.276,2.347-0.354,3.949c-0.199,4.138-0.349,8.498-0.544,12.66
		c-0.057,1.213-0.196,2.052-0.298,3.063c-0.073-1.275-0.167-2.478-0.215-3.838c-0.136-3.894-0.227-7.967-0.392-11.731
		c-0.075-1.711-0.284-2.856-0.433-4.258c-0.112,1.547-0.262,2.952-0.328,4.667c-0.147,3.88-0.236,7.968-0.381,11.858
		c-0.055,1.49-0.197,2.673-0.3,3.995c-0.11-1.229-0.256-2.296-0.325-3.72c-0.125-2.547-0.169-5.495-0.31-7.921
		c-0.12-2.056-0.329-3.61-0.498-5.387c-0.166,1.863-0.37,3.519-0.488,5.637c-0.179,3.231-0.284,6.847-0.447,10.173
		c-0.153,3.112-0.333,2.479-0.463-0.226c-0.142-2.962-0.236-6.171-0.402-8.988c-0.075-1.269-0.266-2.417-0.415-2.542
		c-0.097-0.081-0.246,1.588-0.31,2.791c-0.133,2.501-0.211,5.282-0.338,7.82c-0.173,3.45-0.366,3.73-0.647,0.602
		c-0.725-8.076-0.736-7.979-1.357,0.954c-0.025,0.359-0.041,0.777-0.065,1.141c-0.201,3.003-0.386,2.932-0.623,0.122
		c-0.534-6.331-0.554-6.34-1.115,0.169c-0.287,3.333-0.537,3.936-0.895,0.877c-0.227-1.942-0.55-4.312-0.836-1.605
		c-0.425,4.007-0.803,5.132-1.366,2.293c-0.165-0.828-0.558,2.225-0.817,3.931c-0.087,0.58-0.15,2.742-0.11,3.75
		c0.163,4.138,0.648,6.126,1.043,3.889c0.357-2.026,0.596-1.616,0.884,1.065c0.305,2.836,0.754,5.021,1.085,1.985
		c0.528-4.845,0.773-2.196,1.09,1.943c0.316,4.113,0.59,3.86,0.882-0.27c0.496-7.005,0.496-7.005,0.961,0.461
		c0.046,0.742,0.092,1.495,0.143,2.213c0.41,5.839,0.633,5.744,0.99-0.415c0.044-0.758,0.079-1.573,0.125-2.314
		c0.245-3.877,0.35-3.856,0.577,0.22c0.16,2.869,0.277,6.008,0.466,8.668c0.274,3.867,0.61,3.326,0.779-1.001
		c0.103-2.646,0.185-5.373,0.295-7.982c0.04-0.937,0.137-1.638,0.208-2.448c0.077,0.929,0.173,1.755,0.227,2.796
		c0.218,4.264,0.374,8.927,0.646,12.809c0.296,4.208,0.481,3.764,0.696-0.844c0.138-2.977,0.24-6.112,0.375-9.108
		c0.06-1.316,0.16-2.453,0.242-3.671c0.099,1.307,0.23,2.487,0.292,3.949c0.144,3.417,0.229,7.087,0.389,10.418
		c0.087,1.823,0.278,3.168,0.423,4.728c0.168-1.565,0.395-2.846,0.492-4.757c0.178-3.489,0.272-7.379,0.418-11.041
		c0.045-1.132,0.145-2.057,0.219-3.077c0.072,0.989,0.166,1.892,0.212,2.984c0.19,4.417,0.353,8.952,0.556,13.308
		c0.065,1.393,0.225,2.362,0.341,3.528c0.102-1.354,0.24-2.572,0.299-4.086c0.167-4.275,0.289-8.713,0.454-12.999
		c0.051-1.339,0.182-2.391,0.275-3.572c0.089,1.158,0.201,2.215,0.263,3.499c0.2,4.134,0.365,8.43,0.577,12.494
		c0.082,1.574,0.254,2.699,0.385,4.03c0.141-1.544,0.336-2.865,0.412-4.671c0.177-4.222,0.287-8.704,0.445-13.007
		c0.04-1.085,0.157-1.899,0.239-2.837c0.061,1.047,0.143,2.03,0.18,3.152c0.151,4.536,0.262,9.222,0.445,13.625
		c0.074,1.787,0.294,2.994,0.447,4.466c0.119-1.678,0.282-3.202,0.349-5.059c0.176-4.937,0.304-10.034,0.468-15.011
		c0.026-0.804,0.145-1.316,0.22-1.966c0.048,0.674,0.112,1.29,0.141,2.035c0.198,5.296,0.376,10.664,0.589,15.899
		c0.066,1.612,0.221,2.88,0.333,4.307c0.109-1.288,0.271-2.415,0.316-3.887c0.153-4.778,0.255-9.704,0.396-14.514
		c0.031-1.031,0.146-1.82,0.223-2.723c0.057,0.879,0.134,1.694,0.164,2.651c0.152,4.785,0.273,9.679,0.447,14.376
		c0.059,1.549,0.248,2.627,0.377,3.922c0.129-1.371,0.332-2.555,0.373-4.143C369.481,49.503,369.67,40.549,369.885,31.155z"/>
	<path fill-rule="evenodd" clip-rule="evenodd" fill="#006837" d="M369.594,34.911c0.215-9.392,0.406-18.345,0.637-27.199
		c0.041-1.589,0.244-2.77,0.373-4.14c0.129,1.295,0.318,2.375,0.376,3.923c0.175,4.699,0.295,9.594,0.446,14.38
		c0.031,0.956,0.108,1.771,0.165,2.651c0.076-0.902,0.192-1.69,0.223-2.721c0.142-4.81,0.244-9.735,0.396-14.511
		c0.048-1.472,0.209-2.599,0.318-3.885c0.112,1.427,0.266,2.696,0.332,4.31c0.211,5.237,0.391,10.606,0.588,15.902
		c0.027,0.746,0.092,1.362,0.141,2.036c0.075-0.648,0.193-1.16,0.221-1.965c0.164-4.975,0.291-10.074,0.469-15.007
		c0.065-1.858,0.229-3.381,0.348-5.057c0.153,1.472,0.373,2.68,0.447,4.468c0.184,4.404,0.293,9.092,0.443,13.627
		c0.038,1.124,0.119,2.105,0.181,3.154c0.081-0.938,0.199-1.749,0.239-2.836c0.158-4.301,0.27-8.783,0.445-13.004
		c0.076-1.804,0.271-3.126,0.412-4.667c0.132,1.33,0.303,2.457,0.385,4.033c0.213,4.065,0.377,8.363,0.576,12.497
		c0.063,1.285,0.174,2.341,0.263,3.501c0.095-1.182,0.225-2.231,0.276-3.571c0.165-4.284,0.288-8.721,0.455-12.996
		c0.059-1.513,0.197-2.73,0.299-4.082c0.116,1.164,0.276,2.136,0.342,3.53c0.202,4.357,0.364,8.893,0.555,13.31
		c0.047,1.094,0.14,1.997,0.213,2.986c0.074-1.019,0.174-1.944,0.218-3.076c0.146-3.659,0.241-7.55,0.419-11.038
		c0.098-1.911,0.324-3.189,0.492-4.753c0.146,1.561,0.338,2.906,0.424,4.731c0.16,3.331,0.244,7.001,0.387,10.421
		c0.063,1.46,0.193,2.642,0.293,3.95c0.082-1.217,0.182-2.354,0.242-3.67c0.135-2.994,0.236-6.131,0.375-9.105
		c0.215-4.606,0.4-5.049,0.697-0.84c0.271,3.883,0.428,8.548,0.645,12.813c0.053,1.042,0.15,1.87,0.227,2.799
		c0.07-0.81,0.168-1.512,0.207-2.448c0.111-2.608,0.193-5.334,0.297-7.979c0.17-4.326,0.504-4.865,0.779-0.997
		c0.188,2.662,0.305,5.802,0.465,8.671c0.227,4.079,0.33,4.1,0.576,0.225c0.047-0.74,0.082-1.555,0.125-2.314
		c0.357-6.156,0.58-6.25,0.99-0.407c0.051,0.719,0.096,1.47,0.143,2.215c0.465,7.468,0.465,7.468,0.961,0.466
		c0.293-4.128,0.566-4.378,0.883-0.263c0.316,4.14,0.561,6.791,1.09,1.95c0.332-3.036,0.781-0.847,1.086,1.991
		c0.287,2.682,0.525,3.093,0.883,1.071c0.396-2.235,0.881-0.244,1.043,3.895c0.041,1.007-0.021,3.169-0.109,3.748
		c-0.26,1.705-0.654,4.756-0.818,3.926c-0.563-2.842-0.941-1.719-1.365,2.285c-0.289,2.703-0.611,0.332-0.838-1.611
		c-0.355-3.059-0.605-2.46-0.895,0.872c-0.561,6.508-0.58,6.497-1.113,0.162c-0.236-2.812-0.422-2.883-0.625,0.119
		c-0.023,0.364-0.039,0.781-0.064,1.14c-0.623,8.929-0.633,9.026-1.357,0.946c-0.281-3.129-0.473-2.851-0.646,0.597
		c-0.127,2.537-0.205,5.319-0.338,7.817c-0.064,1.203-0.215,2.871-0.311,2.79c-0.148-0.123-0.34-1.274-0.414-2.544
		c-0.166-2.818-0.26-6.027-0.402-8.991c-0.129-2.705-0.311-3.338-0.463-0.227c-0.164,3.325-0.268,6.941-0.447,10.171
		c-0.117,2.115-0.322,3.769-0.488,5.632c-0.17-1.776-0.377-3.335-0.498-5.39c-0.141-2.429-0.186-5.375-0.309-7.924
		c-0.07-1.424-0.215-2.493-0.326-3.721c-0.102,1.32-0.244,2.503-0.299,3.994c-0.146,3.888-0.234,7.975-0.383,11.854
		c-0.064,1.716-0.215,3.12-0.326,4.666c-0.15-1.402-0.358-2.551-0.433-4.261c-0.165-3.765-0.255-7.84-0.391-11.733
		c-0.048-1.362-0.143-2.563-0.215-3.838c-0.103,1.009-0.242,1.846-0.299,3.06c-0.195,4.159-0.346,8.519-0.545,12.656
		c-0.078,1.6-0.288,4.172-0.354,3.945c-0.209-0.713-0.461-2.174-0.545-4.01c-0.142-3.106-0.154-6.754-0.248-10.104
		c-0.044-1.562-0.15-2.952-0.229-4.421c-0.109,1.483-0.254,2.83-0.324,4.478c-0.162,3.814-0.269,7.863-0.442,11.617
		c-0.062,1.324-0.244,2.535-0.393,2.861c-0.068,0.148-0.231-1.81-0.276-3.071c-0.172-4.714-0.301-9.583-0.473-14.294
		c-0.055-1.459-0.197-2.602-0.299-3.888c-0.083,1.217-0.195,2.333-0.242,3.672c-0.178,4.937-0.312,10.036-0.51,14.888
		c-0.074,1.813-0.281,3.108-0.428,4.639c-0.137-1.607-0.324-3.014-0.396-4.859c-0.168-4.26-0.273-8.75-0.42-13.104
		c-0.03-0.913-0.125-1.619-0.191-2.423c-0.061,0.803-0.148,1.52-0.182,2.423c-0.148,4.106-0.26,8.346-0.428,12.364
		c-0.066,1.582-0.248,2.701-0.376,4.028c-0.132-1.256-0.327-2.292-0.383-3.813c-0.143-3.877-0.212-8.011-0.335-11.964
		c-0.047-1.5-0.163-2.792-0.247-4.177c-0.093,1.399-0.218,2.694-0.274,4.226c-0.126,3.478-0.188,7.205-0.338,10.564
		c-0.079,1.772-0.289,2.987-0.439,4.454c-0.146-1.483-0.373-2.74-0.427-4.496C369.96,50.121,369.787,42.478,369.594,34.911z"/>
</g>
<g>
	<path fill-rule="evenodd" clip-rule="evenodd" fill="#006837" d="M547.813,29.448c-0.192-7.567-0.367-15.207-0.592-22.697
		c-0.054-1.757-0.28-3.01-0.428-4.493c-0.15,1.466-0.359,2.682-0.439,4.457c-0.149,3.359-0.211,7.088-0.337,10.566
		c-0.056,1.532-0.181,2.825-0.274,4.227c-0.084-1.384-0.199-2.677-0.246-4.175c-0.124-3.954-0.193-8.084-0.336-11.96
		c-0.057-1.524-0.252-2.558-0.383-3.813c-0.129,1.329-0.31,2.451-0.376,4.032c-0.167,4.016-0.279,8.259-0.427,12.365
		c-0.033,0.905-0.121,1.622-0.183,2.424c-0.065-0.802-0.161-1.507-0.19-2.421c-0.146-4.351-0.253-8.841-0.421-13.102
		c-0.073-1.844-0.261-3.251-0.397-4.856c-0.146,1.532-0.354,2.828-0.428,4.644c-0.198,4.851-0.331,9.952-0.509,14.892
		c-0.047,1.336-0.158,2.454-0.24,3.671c-0.103-1.285-0.246-2.426-0.3-3.885c-0.173-4.71-0.302-9.578-0.474-14.292
		c-0.046-1.261-0.209-3.219-0.277-3.069c-0.148,0.326-0.33,1.539-0.393,2.864c-0.174,3.754-0.279,7.806-0.441,11.62
		c-0.07,1.647-0.213,2.995-0.324,4.479c-0.078-1.467-0.184-2.859-0.229-4.419c-0.094-3.349-0.107-6.997-0.249-10.101
		c-0.084-1.835-0.335-3.296-0.544-4.008c-0.066-0.225-0.275,2.347-0.354,3.949c-0.199,4.138-0.35,8.498-0.545,12.66
		c-0.057,1.213-0.195,2.052-0.298,3.063c-0.073-1.275-0.167-2.478-0.215-3.838c-0.136-3.894-0.227-7.967-0.392-11.731
		c-0.075-1.711-0.284-2.856-0.433-4.258c-0.112,1.547-0.263,2.952-0.327,4.667c-0.147,3.88-0.236,7.968-0.381,11.858
		c-0.056,1.49-0.197,2.673-0.301,3.995c-0.109-1.229-0.256-2.296-0.324-3.72c-0.125-2.547-0.17-5.495-0.311-7.921
		c-0.119-2.056-0.329-3.61-0.498-5.387c-0.166,1.863-0.37,3.519-0.488,5.637c-0.179,3.231-0.283,6.847-0.446,10.173
		c-0.153,3.112-0.333,2.479-0.464-0.226c-0.142-2.962-0.236-6.171-0.401-8.988c-0.075-1.269-0.267-2.417-0.415-2.542
		c-0.096-0.081-0.246,1.588-0.309,2.791c-0.134,2.501-0.212,5.282-0.338,7.82c-0.174,3.45-0.366,3.73-0.647,0.602
		c-0.725-8.076-0.736-7.979-1.357,0.954c-0.025,0.359-0.041,0.777-0.065,1.141c-0.201,3.003-0.387,2.932-0.623,0.122
		c-0.533-6.331-0.554-6.34-1.115,0.169c-0.287,3.333-0.537,3.936-0.895,0.877c-0.227-1.942-0.549-4.312-0.836-1.605
		c-0.425,4.007-0.803,5.132-1.366,2.293c-0.165-0.828-0.558,2.225-0.817,3.931c-0.088,0.58-0.15,2.742-0.109,3.75
		c0.162,4.138,0.648,6.126,1.043,3.889c0.357-2.026,0.596-1.616,0.884,1.065c0.305,2.836,0.755,5.021,1.085,1.985
		c0.529-4.845,0.773-2.196,1.091,1.943c0.316,4.113,0.59,3.86,0.882-0.27c0.496-7.005,0.496-7.005,0.961,0.461
		c0.047,0.742,0.093,1.495,0.143,2.213c0.41,5.839,0.633,5.744,0.99-0.415c0.044-0.758,0.078-1.573,0.125-2.314
		c0.245-3.877,0.35-3.856,0.576,0.22c0.16,2.869,0.277,6.008,0.467,8.668c0.273,3.867,0.609,3.326,0.778-1.001
		c0.103-2.646,0.185-5.373,0.296-7.982c0.039-0.937,0.137-1.638,0.207-2.448c0.076,0.929,0.174,1.755,0.227,2.796
		c0.219,4.264,0.373,8.927,0.646,12.809c0.296,4.208,0.481,3.764,0.695-0.844c0.139-2.977,0.24-6.112,0.376-9.108
		c0.06-1.316,0.159-2.453,0.241-3.671c0.1,1.307,0.23,2.487,0.293,3.949c0.144,3.417,0.229,7.087,0.389,10.418
		c0.086,1.823,0.277,3.168,0.422,4.728c0.169-1.565,0.395-2.846,0.492-4.757c0.178-3.489,0.272-7.379,0.418-11.041
		c0.045-1.132,0.145-2.057,0.22-3.077c0.071,0.989,0.165,1.892,0.212,2.984c0.191,4.417,0.354,8.952,0.557,13.308
		c0.064,1.393,0.225,2.362,0.341,3.528c0.103-1.354,0.24-2.572,0.3-4.086c0.166-4.275,0.289-8.713,0.453-12.999
		c0.052-1.339,0.182-2.391,0.275-3.572c0.09,1.158,0.201,2.215,0.264,3.499c0.199,4.134,0.365,8.43,0.576,12.494
		c0.082,1.574,0.254,2.699,0.385,4.03c0.142-1.544,0.337-2.865,0.412-4.671c0.178-4.222,0.287-8.704,0.445-13.007
		c0.039-1.085,0.156-1.899,0.239-2.837c0.062,1.047,0.143,2.03,0.181,3.152c0.15,4.536,0.262,9.222,0.444,13.625
		c0.074,1.787,0.294,2.994,0.447,4.466c0.119-1.678,0.282-3.202,0.349-5.059c0.176-4.937,0.304-10.034,0.468-15.011
		c0.026-0.804,0.145-1.316,0.22-1.966c0.048,0.674,0.112,1.29,0.141,2.035c0.198,5.296,0.376,10.664,0.589,15.899
		c0.066,1.612,0.221,2.88,0.333,4.307c0.109-1.288,0.271-2.415,0.316-3.887c0.153-4.778,0.255-9.704,0.396-14.514
		c0.031-1.031,0.146-1.82,0.223-2.723c0.057,0.879,0.134,1.694,0.164,2.651c0.152,4.785,0.273,9.679,0.447,14.376
		c0.059,1.549,0.248,2.627,0.377,3.922c0.129-1.371,0.332-2.555,0.373-4.143C547.408,47.796,547.598,38.841,547.813,29.448z"/>
	<path fill-rule="evenodd" clip-rule="evenodd" fill="#006837" d="M547.521,33.204c0.215-9.392,0.406-18.345,0.637-27.199
		c0.041-1.589,0.244-2.77,0.373-4.14c0.129,1.295,0.318,2.375,0.376,3.923c0.175,4.699,0.295,9.594,0.446,14.38
		c0.031,0.956,0.108,1.771,0.165,2.651c0.076-0.902,0.192-1.69,0.223-2.721c0.142-4.81,0.244-9.735,0.396-14.511
		c0.048-1.472,0.209-2.599,0.318-3.885c0.112,1.427,0.266,2.696,0.332,4.31c0.211,5.237,0.391,10.606,0.588,15.902
		c0.027,0.746,0.092,1.362,0.141,2.036c0.075-0.648,0.193-1.16,0.221-1.965c0.164-4.975,0.291-10.074,0.469-15.007
		c0.065-1.858,0.229-3.381,0.348-5.057c0.153,1.472,0.373,2.68,0.447,4.468c0.184,4.404,0.293,9.092,0.443,13.627
		c0.038,1.124,0.119,2.105,0.181,3.154c0.081-0.938,0.199-1.749,0.239-2.836c0.158-4.301,0.27-8.783,0.445-13.004
		c0.076-1.804,0.271-3.126,0.412-4.667c0.132,1.33,0.303,2.457,0.385,4.033c0.213,4.065,0.377,8.363,0.576,12.497
		c0.063,1.285,0.174,2.341,0.263,3.501c0.095-1.182,0.225-2.231,0.276-3.571c0.165-4.284,0.288-8.721,0.455-12.996
		c0.059-1.513,0.197-2.73,0.299-4.082c0.116,1.164,0.276,2.136,0.342,3.53c0.202,4.357,0.364,8.893,0.555,13.31
		c0.047,1.094,0.14,1.997,0.213,2.986c0.074-1.019,0.174-1.944,0.218-3.076c0.146-3.659,0.241-7.55,0.419-11.038
		c0.098-1.911,0.324-3.189,0.492-4.753c0.146,1.561,0.337,2.906,0.424,4.731c0.159,3.331,0.244,7.001,0.387,10.421
		c0.063,1.46,0.193,2.642,0.293,3.95c0.082-1.217,0.182-2.354,0.242-3.67c0.135-2.994,0.236-6.131,0.375-9.105
		c0.215-4.606,0.4-5.049,0.696-0.84c0.272,3.883,0.428,8.548,0.646,12.813c0.053,1.042,0.15,1.87,0.227,2.799
		c0.07-0.81,0.168-1.512,0.207-2.448c0.111-2.608,0.193-5.334,0.297-7.979c0.169-4.326,0.504-4.865,0.778-0.997
		c0.188,2.662,0.306,5.802,0.466,8.671c0.227,4.079,0.33,4.1,0.576,0.225c0.047-0.74,0.081-1.555,0.125-2.314
		c0.357-6.156,0.58-6.25,0.99-0.407c0.05,0.719,0.096,1.47,0.143,2.215c0.465,7.468,0.465,7.468,0.961,0.466
		c0.293-4.128,0.565-4.378,0.882-0.263c0.317,4.14,0.562,6.791,1.09,1.95c0.332-3.036,0.781-0.847,1.086,1.991
		c0.287,2.682,0.526,3.093,0.884,1.071c0.396-2.235,0.881-0.244,1.043,3.895c0.04,1.007-0.022,3.169-0.11,3.748
		c-0.259,1.705-0.653,4.756-0.817,3.926c-0.563-2.842-0.941-1.719-1.366,2.285c-0.288,2.703-0.61,0.332-0.837-1.611
		c-0.356-3.059-0.606-2.46-0.895,0.872c-0.561,6.508-0.581,6.497-1.114,0.162c-0.236-2.812-0.422-2.883-0.624,0.119
		c-0.024,0.364-0.039,0.781-0.064,1.14c-0.623,8.929-0.633,9.026-1.357,0.946c-0.281-3.129-0.474-2.851-0.646,0.597
		c-0.128,2.537-0.205,5.319-0.338,7.817c-0.064,1.203-0.215,2.871-0.312,2.79c-0.147-0.123-0.339-1.274-0.414-2.544
		c-0.165-2.818-0.259-6.027-0.401-8.991c-0.129-2.705-0.311-3.338-0.463-0.227c-0.164,3.325-0.269,6.941-0.447,10.171
		c-0.117,2.115-0.322,3.769-0.488,5.632c-0.17-1.776-0.378-3.335-0.498-5.39c-0.141-2.429-0.186-5.375-0.31-7.924
		c-0.069-1.424-0.214-2.493-0.325-3.721c-0.103,1.32-0.244,2.503-0.3,3.994c-0.146,3.888-0.234,7.975-0.382,11.854
		c-0.064,1.716-0.216,3.12-0.327,4.666c-0.149-1.402-0.357-2.551-0.433-4.261c-0.165-3.765-0.255-7.84-0.391-11.733
		c-0.048-1.362-0.143-2.563-0.215-3.838c-0.103,1.009-0.242,1.846-0.299,3.06c-0.195,4.159-0.346,8.519-0.545,12.656
		c-0.078,1.6-0.288,4.172-0.354,3.945c-0.209-0.713-0.461-2.174-0.545-4.01c-0.142-3.106-0.154-6.754-0.248-10.104
		c-0.044-1.562-0.15-2.952-0.229-4.421c-0.109,1.483-0.254,2.83-0.324,4.478c-0.162,3.814-0.269,7.863-0.442,11.617
		c-0.062,1.324-0.244,2.535-0.393,2.861c-0.068,0.148-0.231-1.81-0.276-3.071c-0.172-4.714-0.301-9.583-0.473-14.294
		c-0.055-1.459-0.197-2.602-0.299-3.888c-0.083,1.217-0.195,2.333-0.242,3.672c-0.178,4.937-0.312,10.036-0.51,14.888
		c-0.074,1.813-0.281,3.108-0.428,4.639c-0.137-1.607-0.324-3.014-0.396-4.859c-0.168-4.26-0.273-8.75-0.42-13.104
		c-0.03-0.913-0.125-1.619-0.191-2.423c-0.061,0.803-0.148,1.52-0.182,2.423c-0.148,4.106-0.26,8.346-0.428,12.364
		c-0.066,1.582-0.248,2.701-0.376,4.028c-0.132-1.256-0.327-2.292-0.383-3.813c-0.143-3.877-0.212-8.011-0.335-11.964
		c-0.047-1.5-0.163-2.792-0.247-4.177c-0.093,1.399-0.218,2.694-0.274,4.226c-0.126,3.478-0.188,7.205-0.338,10.564
		c-0.079,1.772-0.289,2.987-0.439,4.454c-0.146-1.483-0.373-2.74-0.427-4.496C547.888,48.413,547.714,40.771,547.521,33.204z"/>
</g>
<g>
	<path fill-rule="evenodd" clip-rule="evenodd" fill="#006837" d="M723.52,29.448c-0.192-7.567-0.367-15.207-0.592-22.697
		c-0.054-1.757-0.28-3.01-0.428-4.493c-0.15,1.466-0.359,2.682-0.439,4.457c-0.149,3.359-0.211,7.088-0.337,10.566
		c-0.056,1.532-0.181,2.825-0.274,4.227c-0.084-1.384-0.199-2.677-0.246-4.175c-0.124-3.954-0.193-8.084-0.336-11.96
		c-0.057-1.524-0.252-2.558-0.383-3.813c-0.129,1.329-0.31,2.451-0.376,4.032c-0.167,4.016-0.279,8.259-0.427,12.365
		c-0.033,0.905-0.121,1.622-0.183,2.424c-0.065-0.802-0.161-1.507-0.19-2.421c-0.146-4.351-0.253-8.841-0.421-13.102
		c-0.073-1.844-0.261-3.251-0.397-4.856c-0.146,1.532-0.354,2.828-0.428,4.644c-0.198,4.851-0.331,9.952-0.509,14.892
		c-0.047,1.336-0.158,2.454-0.24,3.671c-0.103-1.285-0.246-2.426-0.3-3.885c-0.173-4.71-0.302-9.578-0.474-14.292
		c-0.046-1.261-0.209-3.219-0.277-3.069c-0.148,0.326-0.33,1.539-0.393,2.864c-0.174,3.754-0.279,7.806-0.441,11.62
		c-0.07,1.647-0.213,2.995-0.324,4.479c-0.078-1.467-0.184-2.859-0.229-4.419c-0.094-3.349-0.107-6.997-0.249-10.101
		c-0.084-1.835-0.335-3.296-0.544-4.008c-0.066-0.225-0.275,2.347-0.354,3.949c-0.199,4.138-0.35,8.498-0.545,12.66
		c-0.057,1.213-0.195,2.052-0.298,3.063c-0.073-1.275-0.167-2.478-0.215-3.838c-0.136-3.894-0.227-7.967-0.392-11.731
		c-0.075-1.711-0.284-2.856-0.433-4.258c-0.112,1.547-0.263,2.952-0.327,4.667c-0.147,3.88-0.236,7.968-0.381,11.858
		c-0.056,1.49-0.197,2.673-0.301,3.995c-0.109-1.229-0.256-2.296-0.324-3.72c-0.125-2.547-0.17-5.495-0.311-7.921
		c-0.119-2.056-0.329-3.61-0.498-5.387c-0.166,1.863-0.37,3.519-0.488,5.637c-0.179,3.231-0.283,6.847-0.446,10.173
		c-0.153,3.112-0.333,2.479-0.464-0.226c-0.142-2.962-0.236-6.171-0.401-8.988c-0.075-1.269-0.267-2.417-0.415-2.542
		c-0.096-0.081-0.246,1.588-0.309,2.791c-0.134,2.501-0.212,5.282-0.338,7.82c-0.174,3.45-0.366,3.73-0.647,0.602
		c-0.725-8.076-0.736-7.979-1.357,0.954c-0.025,0.359-0.041,0.777-0.065,1.141c-0.201,3.003-0.387,2.932-0.623,0.122
		c-0.533-6.331-0.554-6.34-1.115,0.169c-0.287,3.333-0.537,3.936-0.895,0.877c-0.227-1.942-0.549-4.312-0.836-1.605
		c-0.425,4.007-0.803,5.132-1.366,2.293c-0.165-0.828-0.558,2.225-0.817,3.931c-0.088,0.58-0.15,2.742-0.109,3.75
		c0.162,4.138,0.648,6.126,1.043,3.889c0.357-2.026,0.596-1.616,0.884,1.065c0.305,2.836,0.755,5.021,1.085,1.985
		c0.529-4.845,0.773-2.196,1.091,1.943c0.316,4.113,0.59,3.86,0.882-0.27c0.496-7.005,0.496-7.005,0.961,0.461
		c0.047,0.742,0.093,1.495,0.143,2.213c0.41,5.84,0.633,5.744,0.99-0.415c0.044-0.758,0.078-1.573,0.125-2.314
		c0.245-3.877,0.35-3.856,0.576,0.22c0.16,2.869,0.277,6.008,0.467,8.669c0.273,3.867,0.609,3.326,0.778-1.002
		c0.103-2.646,0.185-5.373,0.296-7.981c0.039-0.937,0.137-1.638,0.207-2.448c0.076,0.929,0.174,1.755,0.227,2.796
		c0.219,4.264,0.373,8.926,0.646,12.809c0.296,4.207,0.481,3.764,0.695-0.844c0.139-2.977,0.24-6.113,0.376-9.109
		c0.06-1.316,0.159-2.453,0.241-3.671c0.1,1.307,0.23,2.487,0.293,3.949c0.144,3.417,0.229,7.087,0.389,10.419
		c0.086,1.822,0.277,3.168,0.422,4.727c0.169-1.564,0.395-2.846,0.492-4.756c0.178-3.49,0.272-7.379,0.418-11.041
		c0.045-1.132,0.145-2.057,0.22-3.077c0.071,0.989,0.165,1.892,0.212,2.984c0.191,4.417,0.354,8.952,0.557,13.308
		c0.064,1.393,0.225,2.363,0.341,3.529c0.103-1.355,0.24-2.572,0.3-4.086c0.166-4.275,0.289-8.714,0.453-12.999
		c0.052-1.339,0.182-2.391,0.275-3.572c0.09,1.158,0.201,2.215,0.264,3.499c0.199,4.134,0.365,8.43,0.576,12.495
		c0.082,1.574,0.254,2.699,0.385,4.029c0.142-1.543,0.337-2.865,0.412-4.67c0.178-4.223,0.287-8.705,0.445-13.007
		c0.039-1.085,0.156-1.899,0.239-2.837c0.062,1.047,0.143,2.03,0.181,3.152c0.15,4.536,0.262,9.221,0.444,13.625
		c0.074,1.787,0.294,2.994,0.447,4.465c0.119-1.678,0.282-3.201,0.349-5.059c0.176-4.936,0.304-10.034,0.468-15.011
		c0.026-0.804,0.145-1.316,0.22-1.966c0.048,0.674,0.112,1.29,0.141,2.035c0.198,5.296,0.376,10.665,0.589,15.899
		c0.066,1.613,0.221,2.881,0.333,4.307c0.109-1.287,0.271-2.414,0.316-3.887c0.153-4.777,0.255-9.704,0.396-14.513
		c0.031-1.031,0.146-1.82,0.223-2.723c0.057,0.879,0.134,1.694,0.164,2.651c0.152,4.785,0.273,9.679,0.447,14.376
		c0.059,1.549,0.248,2.627,0.377,3.922c0.129-1.371,0.332-2.555,0.373-4.143C723.115,47.796,723.305,38.841,723.52,29.448z"/>
	<path fill-rule="evenodd" clip-rule="evenodd" fill="#006837" d="M723.229,33.204c0.215-9.392,0.406-18.345,0.637-27.199
		c0.041-1.589,0.244-2.77,0.373-4.14c0.129,1.295,0.318,2.375,0.376,3.923c0.175,4.699,0.295,9.594,0.446,14.38
		c0.031,0.956,0.108,1.771,0.165,2.651c0.076-0.902,0.192-1.69,0.223-2.721c0.142-4.81,0.244-9.735,0.396-14.511
		c0.048-1.472,0.209-2.599,0.318-3.885c0.112,1.427,0.266,2.696,0.332,4.31c0.211,5.237,0.391,10.606,0.588,15.902
		c0.027,0.746,0.092,1.362,0.141,2.036c0.075-0.648,0.193-1.16,0.221-1.965c0.164-4.975,0.291-10.074,0.469-15.007
		c0.065-1.858,0.229-3.381,0.348-5.057c0.153,1.472,0.373,2.68,0.447,4.468c0.184,4.404,0.293,9.092,0.443,13.627
		c0.038,1.124,0.119,2.105,0.181,3.154c0.081-0.938,0.199-1.749,0.239-2.836c0.158-4.301,0.27-8.783,0.445-13.004
		c0.076-1.804,0.271-3.126,0.412-4.667c0.132,1.33,0.303,2.457,0.385,4.033c0.213,4.065,0.377,8.363,0.576,12.497
		c0.063,1.285,0.174,2.341,0.263,3.501c0.095-1.182,0.225-2.231,0.276-3.571c0.165-4.284,0.288-8.721,0.455-12.996
		c0.059-1.513,0.197-2.73,0.299-4.082c0.116,1.164,0.276,2.136,0.342,3.53c0.202,4.357,0.364,8.893,0.555,13.31
		c0.047,1.094,0.14,1.997,0.213,2.986c0.074-1.019,0.174-1.944,0.218-3.076c0.146-3.659,0.241-7.55,0.419-11.038
		c0.098-1.911,0.324-3.189,0.492-4.753c0.146,1.561,0.337,2.906,0.424,4.731c0.159,3.331,0.244,7.001,0.387,10.421
		c0.063,1.46,0.193,2.642,0.293,3.95c0.082-1.217,0.182-2.354,0.242-3.67c0.135-2.994,0.236-6.131,0.375-9.105
		c0.215-4.606,0.4-5.049,0.696-0.84c0.272,3.883,0.428,8.548,0.646,12.813c0.053,1.042,0.15,1.87,0.227,2.799
		c0.07-0.81,0.168-1.512,0.207-2.448c0.111-2.608,0.193-5.334,0.297-7.979c0.169-4.326,0.504-4.865,0.778-0.997
		c0.188,2.662,0.306,5.802,0.466,8.671c0.227,4.079,0.33,4.1,0.576,0.225c0.047-0.74,0.081-1.555,0.125-2.314
		c0.357-6.156,0.58-6.25,0.99-0.407c0.05,0.719,0.096,1.47,0.143,2.215c0.465,7.468,0.465,7.468,0.961,0.466
		c0.293-4.128,0.565-4.378,0.882-0.263c0.317,4.14,0.562,6.791,1.09,1.95c0.332-3.036,0.781-0.847,1.086,1.991
		c0.287,2.682,0.526,3.093,0.884,1.071c0.396-2.235,0.881-0.244,1.043,3.895c0.04,1.007-0.022,3.169-0.11,3.748
		c-0.259,1.705-0.653,4.756-0.817,3.926c-0.563-2.842-0.941-1.719-1.366,2.285c-0.288,2.703-0.61,0.332-0.837-1.611
		c-0.356-3.059-0.606-2.46-0.895,0.872c-0.561,6.508-0.581,6.497-1.114,0.162c-0.236-2.812-0.422-2.883-0.624,0.119
		c-0.024,0.364-0.039,0.781-0.064,1.14c-0.623,8.929-0.633,9.026-1.357,0.946c-0.281-3.129-0.474-2.851-0.646,0.597
		c-0.128,2.537-0.205,5.319-0.338,7.817c-0.064,1.203-0.215,2.871-0.312,2.789c-0.147-0.123-0.339-1.273-0.414-2.543
		c-0.165-2.818-0.259-6.027-0.401-8.992c-0.129-2.705-0.311-3.338-0.463-0.227c-0.164,3.325-0.269,6.941-0.447,10.172
		c-0.117,2.115-0.322,3.768-0.488,5.631c-0.17-1.775-0.378-3.334-0.498-5.389c-0.141-2.43-0.186-5.375-0.31-7.924
		c-0.069-1.424-0.214-2.493-0.325-3.721c-0.103,1.32-0.244,2.503-0.3,3.994c-0.146,3.888-0.234,7.974-0.382,11.853
		c-0.064,1.717-0.216,3.121-0.327,4.666c-0.149-1.402-0.357-2.551-0.433-4.26c-0.165-3.766-0.255-7.84-0.391-11.734
		c-0.048-1.362-0.143-2.563-0.215-3.838c-0.103,1.009-0.242,1.846-0.299,3.06c-0.195,4.159-0.346,8.52-0.545,12.656
		c-0.078,1.6-0.288,4.172-0.354,3.945c-0.209-0.713-0.461-2.174-0.545-4.01c-0.142-3.107-0.154-6.754-0.248-10.104
		c-0.044-1.562-0.15-2.952-0.229-4.421c-0.109,1.483-0.254,2.83-0.324,4.478c-0.162,3.815-0.269,7.864-0.442,11.618
		c-0.062,1.324-0.244,2.535-0.393,2.861c-0.068,0.148-0.231-1.811-0.276-3.072c-0.172-4.713-0.301-9.583-0.473-14.294
		c-0.055-1.459-0.197-2.602-0.299-3.888c-0.083,1.217-0.195,2.333-0.242,3.672c-0.178,4.937-0.312,10.035-0.51,14.889
		c-0.074,1.813-0.281,3.107-0.428,4.639c-0.137-1.607-0.324-3.014-0.396-4.859c-0.168-4.26-0.273-8.75-0.42-13.104
		c-0.03-0.913-0.125-1.619-0.191-2.423c-0.061,0.803-0.148,1.52-0.182,2.423c-0.148,4.106-0.26,8.347-0.428,12.364
		c-0.066,1.582-0.248,2.701-0.376,4.027c-0.132-1.256-0.327-2.291-0.383-3.813c-0.143-3.877-0.212-8.012-0.335-11.964
		c-0.047-1.5-0.163-2.792-0.247-4.177c-0.093,1.399-0.218,2.694-0.274,4.226c-0.126,3.478-0.188,7.205-0.338,10.564
		c-0.079,1.773-0.289,2.988-0.439,4.455c-0.146-1.484-0.373-2.74-0.427-4.496C723.595,48.414,723.421,40.771,723.229,33.204z"/>
</g>
</svg>
