<?xml version="1.0" encoding="utf-8"?>
<!-- Generator: Adobe Illustrator 16.0.3, SVG Export Plug-In . SVG Version: 6.00 Build 0)  -->
<!DOCTYPE svg PUBLIC "-//W3C//DTD SVG 1.1//EN" "http://www.w3.org/Graphics/SVG/1.1/DTD/svg11.dtd">
<svg version="1.1" id="Layer_1" xmlns="http://www.w3.org/2000/svg" xmlns:xlink="http://www.w3.org/1999/xlink" x="0px" y="0px"
	 width="760px" height="127.165px" viewBox="0 0 760 127.165" enable-background="new 0 0 760 127.165" xml:space="preserve">
<g>
	<path fill-rule="evenodd" clip-rule="evenodd" fill="#006837" d="M731.276,0.848c-0.478-0.1-0.954-0.2-1.432-0.301
		c-0.678,4.353-1.354,8.706-2.032,13.058c-0.553,0.034-1.106,0.067-1.66,0.101c-0.786-4.558-1.572-9.116-2.359-13.674
		c-0.295,0.024-0.59,0.05-0.884,0.075c-0.855,4.714-1.711,9.43-2.566,14.145c-0.581-0.02-1.16-0.039-1.741-0.059
		c-0.56-4.669-1.12-9.34-1.68-14.01c-0.471-0.004-0.94-0.008-1.411-0.012c-0.67,4.683-1.34,9.367-2.011,14.05
		c-0.504-0.048-1.008-0.096-1.512-0.145c-0.499-4.692-0.999-9.385-1.499-14.077c-0.356,0.023-0.714,0.048-1.07,0.072
		c-0.902,5.125-1.805,10.25-2.707,15.375c-0.53-0.037-1.06-0.073-1.589-0.11c-0.611-4.95-1.222-9.898-1.833-14.848
		c-0.375,0.038-0.751,0.077-1.126,0.115c-0.858,4.879-1.717,9.758-2.575,14.639c-0.646-0.013-1.292-0.025-1.938-0.037
		c-0.923-4.89-1.845-9.78-2.767-14.67c-0.376,0.041-0.751,0.083-1.126,0.125c-0.644,4.741-1.286,9.481-1.929,14.222
		c-0.597,0.021-1.193,0.044-1.789,0.065c-0.666-4.719-1.331-9.438-1.997-14.157c-0.419,0.02-0.838,0.039-1.258,0.058
		c-0.766,4.739-1.532,9.477-2.298,14.214c-0.581,0.026-1.162,0.053-1.742,0.08c-0.723-4.832-1.443-9.665-2.165-14.497
		c-0.314,0.04-0.63,0.08-0.944,0.12c-0.699,4.053-1.398,8.107-2.098,12.161c-0.542-0.065-1.084-0.131-1.627-0.197
		c-0.627-3.983-1.255-7.966-1.882-11.949c-0.396-0.018-0.789-0.035-1.185-0.054c-0.666,4.027-1.332,8.054-1.999,12.081
		c-0.59,0.006-1.181,0.012-1.771,0.018c-0.573-3.821-1.146-7.642-1.72-11.463c-0.294-0.012-0.588-0.023-0.882-0.036
		c-0.855,3.752-1.711,7.505-2.566,11.257c-0.477-0.058-0.953-0.115-1.43-0.173c-0.553-3.576-1.104-7.151-1.656-10.727
		c-0.397-0.002-0.795-0.003-1.193-0.005c-0.651,4.461-1.303,8.923-1.953,13.386c-0.603-0.039-1.205-0.078-1.808-0.117
		c-0.475-4.521-0.949-9.042-1.424-13.563c-0.291-0.001-0.582-0.002-0.873-0.003c-0.912,4.611-1.825,9.221-2.738,13.832
		c-0.53-0.023-1.062-0.047-1.592-0.07c-0.652-4.29-1.306-8.579-1.958-12.869c-0.355,0.056-0.711,0.11-1.065,0.166
		c-0.735,4.288-1.472,8.576-2.207,12.864c-0.579,0.046-1.157,0.091-1.736,0.137c-0.948-4.33-1.897-8.658-2.846-12.986
		c-0.293-0.048-0.586-0.096-0.878-0.144c-0.516,4.48-1.032,8.961-1.548,13.441c-0.635,0.039-1.27,0.078-1.905,0.116
		c-0.662-4.369-1.326-8.738-1.989-13.108c-0.257,0.015-0.513,0.029-0.769,0.044c-0.976,4.443-1.951,8.885-2.926,13.328
		c-0.583-0.042-1.166-0.083-1.749-0.124c-0.762-4.456-1.523-8.911-2.286-13.367c-0.325,0.009-0.649,0.018-0.974,0.026
		c-0.51,4.459-1.02,8.918-1.529,13.376c-0.541-0.014-1.081-0.028-1.622-0.042c-0.693-4.344-1.387-8.688-2.08-13.033
		c-0.307,0.035-0.613,0.07-0.92,0.105c-0.653,4.533-1.307,9.064-1.959,13.597c-0.579-0.021-1.158-0.043-1.737-0.064
		c-0.758-4.324-1.517-8.647-2.275-12.971c-1.394,2.368-1.485,4.639-1.999,6.812c-0.504,2.133-1.438,4.165-2.182,6.241
		c-0.501-0.026-1.002-0.054-1.503-0.08c-0.906-4.443-1.812-8.886-2.717-13.33c-0.316,0.022-0.634,0.044-0.95,0.066
		c-0.473,4.071-0.945,8.143-1.418,12.213c-0.611,0.002-1.224,0.003-1.835,0.005c-0.537-4.033-1.074-8.065-1.611-12.098
		c-0.377-0.023-0.754-0.048-1.131-0.071c-0.816,3.933-1.635,7.867-2.452,11.8c-0.52-0.005-1.039-0.01-1.559-0.015
		c-0.75-3.821-1.501-7.643-2.251-11.464c-0.344,0.006-0.688,0.013-1.032,0.019c-0.648,3.469-1.296,6.938-1.945,10.407
		c-0.569,0.01-1.14,0.02-1.71,0.028c-0.825-3.438-1.649-6.875-2.805-11.686c-1.092,5.324-1.896,9.248-2.699,13.172
		c-0.621-0.032-1.242-0.063-1.863-0.095c-0.813-3.942-1.626-7.884-2.439-11.827c-0.253,0.039-0.506,0.078-0.76,0.117
		c-0.612,3.589-1.225,7.178-1.837,10.767c-0.568-0.004-1.138-0.009-1.707-0.013c-0.688-3.539-1.378-7.078-2.066-10.617
		c-0.272-0.009-0.545-0.017-0.818-0.025c-0.713,3.195-1.426,6.39-2.139,9.585c-0.587-0.069-1.174-0.139-1.761-0.208
		c-0.677-3.155-1.354-6.311-2.03-9.467c-0.212,0.069-0.424,0.14-0.636,0.21c-0.721,3.804-1.441,7.608-2.162,11.413
		c-0.654-0.023-1.31-0.047-1.964-0.07c-0.722-3.654-1.445-7.309-2.168-10.963c-0.331-0.009-0.661-0.018-0.991-0.026
		c-0.765,3.401-1.529,6.803-2.294,10.204c-0.532,0.03-1.064,0.061-1.596,0.09c-0.615-3.39-1.228-6.781-1.843-10.172
		c-0.305,0.012-0.609,0.022-0.914,0.034c-0.661,3.508-1.322,7.016-1.984,10.524c-0.59-0.019-1.181-0.037-1.771-0.056
		c-0.738-3.476-1.477-6.952-2.215-10.428c-0.288,0.008-0.578,0.016-0.867,0.023c-0.727,4.092-1.452,8.186-2.178,12.279
		c-0.542-0.042-1.084-0.083-1.625-0.125c-0.89-4.122-1.779-8.244-2.669-12.366c-0.237,0.052-0.478,0.104-0.715,0.155
		c-0.672,3.567-1.343,7.135-2.014,10.702c-0.543-0.065-1.087-0.131-1.63-0.196c-0.772-3.518-1.545-7.035-2.316-10.552
		c-0.268,0.027-0.534,0.054-0.802,0.081c-0.873,3.733-1.747,7.466-2.621,11.199c-0.578-0.047-1.156-0.094-1.734-0.142
		c-0.81-3.717-1.62-7.435-2.43-11.153c-0.389-0.037-0.777-0.075-1.167-0.113c-0.628,3.655-1.257,7.309-1.886,10.963
		c-0.505-0.012-1.009-0.023-1.514-0.034c-0.891-3.584-1.78-7.169-2.67-10.753c-0.374,0.05-0.748,0.1-1.122,0.15
		c-0.605,3.305-1.21,6.61-1.815,9.917c-0.533-0.047-1.067-0.095-1.601-0.142c-0.718-3.529-1.435-7.058-2.152-10.586
		c-0.397,0.029-0.795,0.06-1.192,0.089c-0.52,3.652-1.039,7.304-1.558,10.956c-0.508-0.017-1.017-0.032-1.524-0.049
		c-0.736-3.17-1.473-6.34-2.209-9.51c-0.313,0.035-0.627,0.07-0.94,0.105c-0.654,3.529-1.309,7.059-1.964,10.588
		c-0.704-0.025-1.407-0.052-2.111-0.077c-0.742-3.68-1.483-7.359-2.225-11.039c-0.328,0.001-0.656,0.001-0.984,0.002
		c-0.639,3.702-1.278,7.403-1.917,11.105c-0.618-0.034-1.237-0.068-1.855-0.103c-0.739-3.594-1.479-7.188-2.219-10.782
		c-0.306,0.013-0.61,0.026-0.915,0.039c-0.638,3.923-1.275,7.846-1.912,11.769c-0.684-0.011-1.367-0.021-2.052-0.032
		c-0.672-3.932-1.343-7.863-2.015-11.795c-0.379,0.034-0.759,0.067-1.139,0.101c-0.625,3.842-1.25,7.685-1.875,11.527
		c-0.539-0.007-1.077-0.014-1.615-0.021c-0.828-3.76-1.655-7.521-2.483-11.281c-0.262,0.044-0.523,0.088-0.785,0.133
		c-0.771,3.828-1.543,7.655-2.314,11.483c-0.637-0.007-1.273-0.014-1.91-0.021c-0.656-3.888-1.313-7.776-1.971-11.664
		c-0.259,0.09-0.519,0.18-0.778,0.271c-0.922,3.626-1.845,7.253-2.767,10.879c-0.649-0.053-1.299-0.106-1.949-0.159
		c-0.501-3.647-1.002-7.293-1.503-10.939c-0.399-0.017-0.8-0.033-1.2-0.049c-0.612,3.308-1.225,6.616-1.837,9.924
		c-0.506-0.055-1.013-0.109-1.519-0.164c-0.758-3.236-1.517-6.473-2.275-9.709c-0.285,0.097-0.57,0.192-0.856,0.289
		c-0.792,3.511-1.584,7.023-2.376,10.535c-0.628-0.099-1.256-0.198-1.885-0.297c-0.305-1.732-0.539-3.482-0.936-5.193
		c-0.395-1.705-0.952-3.372-1.438-5.055c-0.265,0.092-0.529,0.185-0.794,0.277c-0.754,3.628-1.506,7.257-2.26,10.885
		c-0.638-0.013-1.276-0.025-1.915-0.037c-0.685-3.497-1.368-6.992-2.052-10.489c-0.418-0.015-0.835-0.029-1.252-0.044
		c-0.654,3.304-1.31,6.607-1.964,9.912c-0.493-0.009-0.987-0.018-1.48-0.027c-0.652-3.25-1.304-6.499-1.956-9.749
		c-0.307,0.024-0.614,0.049-0.922,0.073c-0.699,3.328-1.398,6.655-2.098,9.983c-0.539-0.016-1.078-0.031-1.616-0.047
		c-0.755-3.333-1.509-6.666-2.263-10c-0.282,0.09-0.564,0.18-0.847,0.269c-0.638,3.367-1.276,6.735-1.914,10.103
		c-0.633,0.021-1.265,0.041-1.896,0.062c-1-3.323-2-6.645-2.999-9.968c-0.35,0.052-0.699,0.104-1.049,0.155
		c-0.504,3.123-1.008,6.246-1.511,9.369c-0.567,0.069-1.134,0.139-1.7,0.209c-0.821-3.367-1.643-6.733-2.464-10.1
		c-0.371,0.011-0.743,0.021-1.114,0.031c-0.526,3.492-1.053,6.984-1.579,10.476c-0.539,0.04-1.078,0.08-1.616,0.12
		c-0.794-3.217-1.587-6.434-2.691-10.911c-1.193,4.292-2.029,7.3-2.864,10.307c-0.609-0.04-1.219-0.079-1.827-0.118
		c-0.671-3.038-1.342-6.077-2.013-9.114c-0.279,0.064-0.559,0.13-0.838,0.194c-0.599,2.953-1.196,5.906-1.794,8.858
		c-0.533-0.055-1.065-0.109-1.599-0.164c-0.726-2.813-1.452-5.627-2.178-8.44c-0.397,0.03-0.795,0.061-1.192,0.091
		c-0.664,3.082-1.328,6.164-1.991,9.245c-0.597,0.081-1.192,0.161-1.789,0.241c-0.874-3.16-1.748-6.32-2.887-10.437
		c-1.396,4.232-2.393,7.252-3.389,10.271c-0.441-0.143-0.884-0.286-1.325-0.43c-0.88-3.072-1.759-6.145-2.639-9.217
		c-0.418,0.106-0.836,0.214-1.254,0.32c-0.369,2.742-0.738,5.484-1.107,8.225c-0.465,0.041-0.932,0.081-1.398,0.121
		c-0.945-2.65-1.89-5.299-3.217-9.021c-1.225,4.262-2.158,7.511-3.092,10.759c-0.527-0.086-1.054-0.173-1.582-0.26
		c-0.947-3.179-1.895-6.356-3.163-10.611c-1.091,3.894-1.863,6.652-2.636,9.409c-0.515-0.025-1.029-0.052-1.543-0.077
		c-0.729-2.849-1.458-5.698-2.188-8.547c-0.31-0.008-0.62-0.016-0.93-0.024c-0.507,2.979-1.015,5.958-1.522,8.937
		c-0.467-0.005-0.935-0.01-1.402-0.016c-0.859-2.743-1.719-5.487-3-9.579c-0.868,4.436-1.423,7.27-1.977,10.104
		c-0.548-0.015-1.095-0.029-1.643-0.045c-0.814-2.857-1.629-5.713-2.761-9.685c-1.221,4.167-2.12,7.237-3.019,10.308
		c-0.611-0.013-1.222-0.025-1.833-0.038c-0.75-2.804-1.499-5.606-2.247-8.408c-0.311-0.029-0.621-0.059-0.932-0.088
		c-0.794,2.618-1.588,5.235-2.381,7.854c-0.502,0.013-1.004,0.025-1.506,0.037c-0.798-2.559-1.596-5.117-2.79-8.945
		c-1.135,4.014-1.901,6.726-2.667,9.437c-0.587-0.001-1.173-0.002-1.76-0.003c-0.719-2.77-1.438-5.538-2.434-9.377
		c-1.355,3.849-2.319,6.585-3.284,9.321c-0.545-0.009-1.091-0.018-1.637-0.025c-0.875-2.718-1.749-5.435-2.942-9.144
		c-1.093,3.636-1.875,6.232-2.655,8.828c-0.49-0.012-0.98-0.023-1.47-0.036c-0.821-2.293-1.642-4.585-2.763-7.719
		c-0.946,3.206-1.649,5.59-2.352,7.975c-0.523-0.036-1.046-0.071-1.569-0.106c-0.703-2.603-1.405-5.205-2.108-7.807
		c-0.315,0.037-0.629,0.074-0.944,0.111c-0.588,2.728-1.176,5.457-1.764,8.186c-0.522-0.031-1.044-0.062-1.567-0.093
		c-0.758-2.413-1.516-4.826-2.273-7.239c-0.308-0.023-0.615-0.047-0.923-0.071c-0.398,2.511-0.796,5.02-1.193,7.53
		c-0.518,0.119-1.035,0.238-1.552,0.357c-1.254-2.682-2.508-5.364-4.001-8.559c-0.973,3.272-1.732,5.822-2.491,8.372
		c-0.51,0.03-1.021,0.061-1.531,0.091c-0.9-2.453-1.8-4.905-2.889-7.873c-1.056,3.102-1.87,5.498-2.685,7.894
		c-0.574-0.082-1.147-0.165-1.721-0.247c-0.559-2.371-1.118-4.74-1.818-7.705c-1.398,2.783-2.478,4.932-4.138,8.237
		c-1.045-3.482-1.661-5.531-2.27-7.561c-1.55,2.717-2.857,5.009-4.165,7.301c-1.587-2.234-3.175-4.468-4.837-6.808
		c-0.726,2.144-1.525,4.504-2.324,6.865c-0.402,0.072-0.805,0.144-1.208,0.216c-1.094-2.495-2.188-4.989-3.713-8.468
		c-0.792,3.431-1.351,5.852-1.91,8.272c-0.515,0.011-1.029,0.021-1.543,0.032c-0.877-2.364-1.754-4.729-2.631-7.093
		c-1.162,1.148-1.148,2.268-1.596,3.154c-0.529,1.049-1.456,1.897-2.21,2.833c-0.665-0.999-1.472-1.935-1.954-3.015
		c-0.456-1.021-0.571-2.194-1.009-4.023c-1.475,3.256-2.525,5.577-3.577,7.897c-0.499-0.126-0.999-0.253-1.498-0.378
		c-0.647-1.994-1.296-3.987-2.369-7.288c-0.563,2.125-0.615,2.93-0.975,3.558c-0.797,1.392-1.75,2.697-2.639,4.036
		c-0.698-1.302-1.402-2.6-2.089-3.908c-0.38-0.724-0.73-1.463-1.406-2.826c-1.08,2.843-1.867,4.914-2.654,6.985
		c-0.461-0.027-0.922-0.055-1.383-0.082c-0.739-1.972-1.479-3.945-2.517-6.72c-1.142,2.924-1.948,4.988-2.754,7.052
		c-0.452-0.004-0.903-0.008-1.354-0.012c-0.922-2.049-1.844-4.098-3.032-6.735c-1.261,2.607-2.248,4.645-3.9,8.059
		c-1.511-3.512-2.386-5.546-3.348-7.782c-1.13,2.454-2.05,4.45-2.969,6.445c-0.414-0.11-0.827-0.222-1.24-0.332
		c-0.591-1.869-1.184-3.737-1.917-6.051c-1.221,2.451-2.155,4.326-3.489,7.004c-1.379-2.666-2.225-4.298-3.175-6.135
		c-1.219,2.208-2.19,3.969-3.162,5.729c-1.301-1.755-2.604-3.511-3.969-5.353c-0.896,2.017-1.782,4.01-3.173,7.142
		c-1.498-3.05-2.446-4.979-3.495-7.113c-1.284,2.333-2.334,4.245-3.877,7.049c-1.364-3.08-2.148-4.849-3.131-7.068
		c-1.129,2.548-1.936,4.373-3.297,7.445c-1.691-3.058-2.702-4.887-3.956-7.155c-1.292,2.276-2.294,4.043-3.783,6.665
		c-1.224-2.596-2.051-4.352-2.87-6.092c-1.408,1.996-2.601,3.688-4.258,6.037c-1.131-2.72-1.814-4.365-2.713-6.528
		c-0.983,2.342-1.644,3.916-2.784,6.629c-1.504-2.901-2.347-4.526-3.289-6.342c-1.16,2.108-2.13,3.872-3.532,6.42
		c-1.686-2.664-2.741-4.331-3.515-5.554c-1.521,1.645-2.879,3.114-4.238,4.583c-1.065-1.477-2.13-2.954-3.039-4.212
		c-1.304,1.43-2.545,2.789-3.785,4.149c-1.173-1.57-2.347-3.14-3.598-4.816c-1.04,2.045-1.966,3.864-3.251,6.39
		c-1.618-2.6-2.618-4.207-3.665-5.889c-1.454,1.59-2.677,2.926-3.899,4.263c-1.023-1.418-2.047-2.835-3.194-4.424
		c-0.963,1.835-1.727,3.288-2.888,5.5c-1.186-2.298-1.922-3.725-2.762-5.353c-1.179,1.95-2.142,3.542-3.524,5.829
		c-1.28-2.258-2.089-3.686-2.985-5.265c-2.749,5.596-3.483,5.648-7.317,1.052c-1.331,1.16-2.782,3.345-3.965,3.209
		c-1.323-0.153-2.404-2.411-3.954-4.163c-2.2,8.194-4.777,3.002-7.095,0.385c-0.802,1.648-1.408,2.895-2.39,4.914
		c-1.558-1.961-2.673-3.364-3.789-4.767c0.348,0.478,0.695,0.955,1.043,1.433c-1.502,0.792-3.152,2.394-4.465,2.154
		c-1.333-0.244-2.334-2.304-3.349-3.425c-1.32,1.558-2.417,2.853-3.704,4.373c-1.57-1.663-2.67-2.828-3.793-4.017
		c-1.14,1.405-2.167,2.671-3.424,4.221c-1.366-1.819-2.303-3.065-3.58-4.765c-1.646,5.735-3.959,4.517-6.63,0.257
		c-2.214,5.778-4.508,4.85-6.928-0.162c-2.025,6.452-4.51,4.121-7.158,0.699c-1.668,5.424-4.075,3.495-6.629,0.637
		c-2.11,3.739-4.513,3.683-7.875,1.019c0.206,2.051,0.411,4.102,0.667,6.649c2.644-1.362,4.064-5.977,6.752-1.364
		c0.106,0.182,1.062-0.168,1.626-0.211c1.987-0.152,3.976-0.279,5.965-0.416c3.448-1.907,3.448-1.907,7.269,1.533
		c2.38-4.115,4.646-3.709,6.48,1.295c2.403-4.732,4.77-5.57,7.189-0.758c2.28-3.944,4.354-4.461,6.306,0.606
		c2.418-4.969,5.069-5.03,7.845-0.593c2.563-5.52,4.859-2.856,7.036-0.053c0.878-1.647,1.554-2.917,2.65-4.972
		c1.661,3.066,2.374,4.383,3.168,5.849c3.82-5.24,4.345-5.276,7.459-1.092c1.337-0.979,3.049-3.012,3.917-2.698
		c1.51,0.544,2.5,2.534,3.711,3.923c2.885-4.606,3.256-4.633,7.129-0.521c0.946-1.261,1.892-2.523,3.112-4.15
		c1.278,1.643,2.212,2.845,3.189,4.101c1.06-1.358,1.967-2.521,3.242-4.153c1.029,2.024,1.702,3.347,2.319,4.561
		c1.484-1.35,2.742-2.495,3.999-3.639c1.156,1.357,2.312,2.716,3.469,4.072c3.217-5.289,3.312-5.29,6.879,0.182
		c1.017-1.491,1.975-2.893,3.396-4.975c1.378,2.037,2.416,3.569,3.306,4.883c1.175-1.339,2.391-2.727,3.606-4.115
		c1.345,1.247,2.689,2.495,3.779,3.505c1.301-1.177,2.663-2.411,4.025-3.643c1.129,1.59,2.258,3.18,3.373,4.75
		c1.145-1.479,2.254-2.915,3.365-4.35c1.089,1.285,2.178,2.57,3.385,3.996c0.755-1.101,1.598-2.329,2.697-3.93
		c1.352,1.555,2.368,2.723,3.523,4.051c1.15-1.417,2.213-2.726,3.697-4.554c1.279,1.928,2.194,3.304,3.267,4.92
		c1.144-1.681,2.116-3.109,3.514-5.164c1.473,1.835,2.609,3.252,3.771,4.701c1.097-1.346,2.146-2.632,3.678-4.511
		c1.237,2.32,2.098,3.932,3.177,5.958c0.962-2.085,1.724-3.735,3.023-6.55c1.652,2.719,2.703,4.449,3.564,5.868
		c1.484-1.558,2.761-2.897,4.037-4.237c1.057,1.229,2.113,2.458,3.255,3.787c0.931-1.231,1.845-2.441,3.111-4.115
		c1.301,1.861,2.275,3.252,3.479,4.973c1.035-1.343,1.871-2.427,3.004-3.897c0.913,1.771,1.59,3.083,2.569,4.982
		c1.488-2.349,2.596-4.095,4.082-6.44c1.553,2.624,2.642,4.463,3.889,6.572c1.067-2.234,1.877-3.928,3.32-6.952
		c1.428,3.174,2.311,5.138,3.218,7.154c1.42-2.078,2.616-3.827,3.812-5.577c1.238,1.697,2.477,3.393,3.482,4.77
		c1.28-1.501,2.518-2.951,3.756-4.401c1.089,1.609,2.177,3.217,3.301,4.88c1.135-2.071,2.069-3.779,3.497-6.384
		c1.399,3.048,2.271,4.952,3.345,7.293c1.259-2.634,2.171-4.543,3.739-7.826c1.444,3.223,2.245,5.011,3.309,7.386
		c1.025-2.19,1.833-3.917,3.225-6.892c1.442,3.275,2.297,5.218,3.436,7.803c1.225-2.646,2.106-4.551,3.479-7.519
		c1.579,3.204,2.563,5.201,3.483,7.065c1.622-2.329,2.938-4.215,4.252-6.103c1.296,1.792,2.592,3.585,4.021,5.562
		c1-1.878,1.905-3.579,3.291-6.181c1.25,2.838,1.981,4.498,2.992,6.791c1.21-2.315,2.065-3.952,3.334-6.382
		c1.46,2.43,2.505,4.169,3.55,5.909c1.196-2.005,2.145-3.596,3.093-5.187c1.367,1.738,2.734,3.477,4.288,5.451
		c0.898-1.757,1.882-3.682,3.477-6.804c1.364,3.127,2.254,5.168,3.565,8.175c1.087-2.934,1.872-5.051,2.656-7.168
		c0.435-0.038,0.869-0.076,1.303-0.114c0.739,2.113,1.479,4.226,2.414,6.898c1.037-2.686,1.778-4.608,2.52-6.53
		c0.486,0.021,0.971,0.043,1.457,0.064c0.677,2.27,1.354,4.541,2.328,7.803c1.119-3.434,1.896-5.819,2.673-8.204
		c0.422-0.038,0.844-0.076,1.266-0.114c1.053,2.194,2.107,4.388,3.361,7.001c1.183-2.774,2.049-4.805,3.439-8.067
		c1.75,3.735,2.806,5.99,3.862,8.245c1.126-1.199,1.153-2.043,1.437-2.79c0.427-1.122,1.033-2.176,1.563-3.257
		c0.806,1.054,1.704,2.052,2.39,3.179c0.564,0.928,0.876,2.007,1.622,3.791c1.16-3.012,1.905-4.945,3.063-7.951
		c1.625,3.378,2.647,5.506,3.671,7.633c1.331-1.716,1.369-3.218,1.946-4.472c0.478-1.038,1.592-1.783,2.425-2.657
		c0.687,1.015,1.569,1.954,2.006,3.068c0.454,1.157,0.478,2.483,0.689,3.736c0.348-0.035,0.695-0.07,1.042-0.105
		c0.793-2.167,1.586-4.333,2.379-6.5c0.472,0.007,0.943,0.015,1.415,0.022c0.837,2.504,1.674,5.009,2.69,8.049
		c1.077-2.673,1.854-4.599,3.155-7.83c1.282,3.359,1.988,5.207,2.99,7.836c1.113-3.46,1.935-6.018,2.757-8.574
		c0.582,0.049,1.164,0.098,1.745,0.147c0.634,2.452,1.269,4.905,2.237,8.649c0.958-2.803,1.321-4.363,2.022-5.751
		c0.535-1.059,1.501-1.9,2.275-2.837c0.786,1.124,1.894,2.149,2.275,3.397c0.471,1.538,0.337,3.261,0.464,4.906
		c0.388,0.024,0.775,0.05,1.163,0.075c0.723-2.411,1.446-4.822,2.169-7.233c0.42,0.022,0.841,0.046,1.261,0.068
		c0.779,2.286,1.558,4.572,2.337,6.859c1.489-1.766,1.723-3.51,2.334-5.111c0.409-1.07,1.355-1.936,2.061-2.893
		c0.821,1.083,1.937,2.06,2.386,3.281c0.516,1.396,0.439,3.011,0.62,4.532c0.375,0.03,0.749,0.062,1.125,0.092
		c0.89-2.571,1.78-5.142,2.671-7.713c0.459,0.006,0.917,0.012,1.376,0.018c0.794,2.636,1.588,5.272,2.381,7.908
		c0.323,0.013,0.646,0.026,0.969,0.039c0.712-2.583,1.425-5.167,2.138-7.749c0.563-0.004,1.128-0.007,1.692-0.011
		c0.65,2.641,1.302,5.283,2.309,9.368c1.317-3.928,2.192-6.535,3.067-9.143c0.491,0.002,0.981,0.004,1.473,0.007
		c0.727,2.713,1.452,5.427,2.507,9.367c1.357-3.884,2.26-6.468,3.162-9.052c0.475,0.047,0.949,0.093,1.424,0.14
		c0.646,2.585,1.291,5.168,1.937,7.753c0.315-0.061,0.63-0.121,0.945-0.182c0.67-2.798,1.34-5.596,2.01-8.394
		c0.566,0.055,1.131,0.109,1.696,0.163c0.566,3.102,1.132,6.203,1.697,9.304c0.409-0.018,0.819-0.035,1.228-0.054
		c0.74-2.837,1.48-5.676,2.221-8.514c0.558-0.043,1.115-0.087,1.672-0.13c0.949,3.137,1.898,6.272,2.847,9.407
		c0.355,0.005,0.71,0.01,1.065,0.014c0.683-3.074,1.364-6.148,2.047-9.223c0.578-0.003,1.156-0.005,1.734-0.008
		c0.619,2.862,1.238,5.724,1.857,8.586c0.307-0.044,0.614-0.089,0.922-0.134c0.558-2.51,1.115-5.02,1.673-7.53
		c0.462-0.021,0.925-0.043,1.387-0.064c0.98,2.764,1.96,5.528,2.94,8.291c0.352-0.032,0.702-0.065,1.054-0.098
		c0.346-3.265,0.692-6.529,1.067-10.067c6.479,1.484,2.533,7.404,5.509,10.684c1.226-3.711,2.265-6.854,3.303-9.998
		c0.579,0.089,1.157,0.179,1.736,0.27c0.644,2.896,1.286,5.792,1.929,8.688c0.396-0.042,0.794-0.083,1.19-0.124
		c0.561-2.814,1.121-5.628,1.682-8.442c0.564,0.004,1.128,0.008,1.692,0.012c0.604,3.079,1.209,6.158,1.814,9.236
		c0.312-0.02,0.624-0.04,0.937-0.061c0.753-3.109,1.506-6.218,2.259-9.327c0.647,0.004,1.295,0.007,1.942,0.01
		c0.66,3.303,1.32,6.606,1.98,9.908c0.332,0.053,0.665,0.105,0.997,0.158c0.78-3.431,1.561-6.863,2.342-10.295
		c0.534,0.006,1.069,0.012,1.604,0.018c0.78,3.097,1.561,6.193,2.694,10.694c1.092-4.589,1.813-7.629,2.537-10.669
		c0.642-0.019,1.284-0.036,1.926-0.054c0.721,3.295,1.441,6.592,2.162,9.887c0.268-0.081,0.534-0.162,0.802-0.243
		c0.727-3.188,1.452-6.376,2.179-9.564c0.669,0.01,1.337,0.021,2.006,0.03c0.661,3.556,1.322,7.111,1.984,10.665
		c0.361-0.008,0.724-0.016,1.086-0.023c0.723-3.614,1.446-7.227,2.168-10.84c0.545,0.032,1.09,0.065,1.635,0.097
		c0.371,1.707,0.792,3.405,1.1,5.124c0.279,1.56,0.435,3.141,0.645,4.713c0.431-0.021,0.861-0.043,1.292-0.063
		c0.792-3.454,1.585-6.907,2.377-10.361c0.556,0.043,1.11,0.086,1.665,0.128c0.723,3.657,1.445,7.313,2.168,10.97
		c0.384-0.081,0.768-0.162,1.15-0.243c0.478-2.95,0.954-5.899,1.431-8.848c0.486-0.039,0.972-0.078,1.456-0.117
		c0.755,2.91,1.51,5.821,2.264,8.73c0.37-0.032,0.739-0.064,1.108-0.097c0.619-3.141,1.237-6.282,1.856-9.424
		c0.633,0.035,1.266,0.07,1.898,0.106c0.561,3.39,1.122,6.778,1.685,10.167c0.41-0.02,0.821-0.038,1.231-0.058
		c0.628-3.283,1.255-6.565,1.883-9.847c0.555,0.015,1.11,0.03,1.665,0.046c0.518,1.799,1.192,3.571,1.509,5.406
		c0.311,1.801,0.259,3.667,0.365,5.505c0.425,0.073,0.851,0.146,1.276,0.219c0.948-3.761,1.896-7.522,2.843-11.284
		c0.699,0.028,1.397,0.056,2.097,0.084c0.615,3.48,1.229,6.96,1.845,10.44c0.378,0.023,0.758,0.046,1.137,0.069
		c0.729-3.392,1.459-6.783,2.188-10.174c0.581-0.052,1.162-0.104,1.743-0.156c0.64,3.338,1.279,6.677,1.919,10.015
		c0.288-0.068,0.575-0.138,0.862-0.207c0.787-3.745,1.574-7.489,2.361-11.234c0.674-0.016,1.349-0.031,2.023-0.046
		c0.706,3.967,1.413,7.936,2.119,11.903c0.355-0.029,0.709-0.059,1.064-0.088c0.677-3.901,1.354-7.803,2.032-11.704
		c0.6-0.021,1.199-0.041,1.799-0.062c0.611,3.852,1.223,7.705,1.834,11.558c0.338-0.013,0.675-0.024,1.012-0.036
		c0.626-3.547,1.253-7.095,1.88-10.642c0.621-0.026,1.241-0.053,1.861-0.078c0.688,3.777,1.376,7.555,2.064,11.333
		c0.324-0.055,0.648-0.108,0.973-0.163c0.719-3.803,1.438-7.604,2.155-11.408c0.691,0.036,1.383,0.072,2.074,0.108
		c0.575,4.098,1.149,8.195,1.724,12.293c0.458-0.025,0.916-0.052,1.374-0.078c0.185-2.363,0.094-4.792,0.635-7.069
		c0.514-2.162-0.287-5.799,3.134-5.369c0.386,4.1,0.731,7.765,1.077,11.43c0.474-0.019,0.948-0.036,1.422-0.054
		c0.476-3.672,0.951-7.342,1.427-11.014c0.674,0.006,1.347,0.011,2.02,0.016c0.688,3.821,1.376,7.642,2.064,11.461
		c0.31-0.014,0.62-0.028,0.93-0.042c0.802-4.013,1.603-8.026,2.403-12.039c0.585-0.013,1.171-0.025,1.756-0.038
		c0.751,4.438,1.502,8.875,2.253,13.313c0.365-0.02,0.73-0.038,1.096-0.057c0.563-4.108,1.126-8.215,1.688-12.322
		c0.585-0.017,1.169-0.032,1.754-0.048c0.542,1.959,1.253,3.891,1.575,5.886c0.321,1.979,0.251,4.022,0.352,6.037
		c0.545,0.052,1.089,0.104,1.633,0.157c0.723-4.115,1.445-8.23,2.168-12.345c0.646,0.05,1.29,0.099,1.936,0.147
		c0.6,4.059,1.199,8.118,1.799,12.176c0.442-0.032,0.885-0.065,1.328-0.098c0.492-3.35,0.983-6.7,1.476-10.05
		c0.614,0.001,1.229,0.002,1.843,0.003c0.518,3.697,1.035,7.394,1.553,11.09c0.329,0.014,0.658,0.027,0.987,0.041
		c0.929-4.347,1.858-8.694,2.787-13.042c0.771,0.029,1.54,0.059,2.311,0.088c0.699,4.142,1.398,8.283,2.099,12.425
		c0.346-0.003,0.689-0.006,1.035-0.009c0.83-4.066,1.66-8.133,2.49-12.2c0.631,0.034,1.262,0.067,1.893,0.101
		c0.529,4.176,1.059,8.353,1.588,12.528c0.415-0.039,0.83-0.079,1.244-0.119c0.43-3.531,0.858-7.063,1.288-10.593
		c0.685-0.001,1.369-0.002,2.054-0.003c0.579,3.721,1.158,7.442,1.737,11.164c0.491-0.027,0.982-0.056,1.474-0.083
		c0.709-4.5,1.418-9.001,2.126-13.501c0.666,0.004,1.331,0.008,1.997,0.013c0.771,4.476,1.543,8.953,2.314,13.43
		c0.385-0.066,0.771-0.132,1.155-0.198c0.596-4.135,1.19-8.27,1.786-12.405c0.646,0.03,1.295,0.061,1.943,0.09
		c0.474,4.147,0.948,8.295,1.422,12.442c0.451-0.011,0.901-0.021,1.352-0.03c0.574-4.159,1.147-8.316,1.722-12.475
		c0.734-0.046,1.469-0.091,2.203-0.137c0.848,4.247,1.695,8.494,2.542,12.741c0.346-0.051,0.69-0.102,1.035-0.152
		c0.786-3.691,1.572-7.383,2.358-11.074c0.495,0.02,0.992,0.04,1.488,0.06c0.656,3.889,1.313,7.778,1.969,11.667
		c0.328-0.075,0.656-0.15,0.984-0.226c0.724-3.899,1.448-7.798,2.172-11.698c0.588,0.064,1.176,0.129,1.763,0.193
		c0.447,4.037,0.895,8.073,1.342,12.11c0.463-0.01,0.926-0.021,1.389-0.03c0.58-3.98,1.16-7.96,1.74-11.94
		c0.649-0.001,1.299-0.002,1.948-0.002c0.549,3.942,1.097,7.885,1.646,11.828c0.352-0.007,0.702-0.013,1.053-0.02
		c0.716-4.12,1.433-8.239,2.148-12.359c0.62,0.037,1.24,0.074,1.86,0.111c0.449,4.065,0.898,8.13,1.348,12.196
		c0.445-0.018,0.89-0.035,1.333-0.054c0.644-4.17,1.287-8.341,1.93-12.511c0.583,0.016,1.166,0.031,1.749,0.047
		c0.654,4.353,1.309,8.707,1.963,13.06c0.44,0.014,0.88,0.028,1.32,0.042c0.683-4.294,1.367-8.588,2.051-12.882
		c0.68,0.007,1.358,0.013,2.037,0.019c0.516,4.23,1.03,8.459,1.546,12.689c0.425,0.002,0.85,0.004,1.275,0.006
		c0.852-4.283,1.705-8.564,2.559-12.846c0.721,0.082,1.441,0.164,2.162,0.247c0.459,4.465,0.918,8.931,1.377,13.396
		c2.983-4.093,0.354-9.601,5.719-13.472c0.845,4.935,1.565,9.144,2.286,13.352c0.38,0.029,0.76,0.059,1.139,0.088
		c0.73-4.166,1.46-8.333,2.189-12.5c0.574,0.037,1.148,0.073,1.723,0.109c0.739,3.919,1.479,7.839,2.218,11.758
		c0.45-0.046,0.9-0.093,1.352-0.139c0.772-3.796,1.543-7.593,2.472-12.155c3.92,4.284-0.332,9.811,4.067,13.867
		c0.638-5.012,1.13-8.886,1.623-12.759c0.691-0.001,1.381-0.002,2.072-0.003c0.604,3.962,1.208,7.925,1.813,11.889
		c0.444,0.039,0.89,0.077,1.335,0.116c0.634-4.414,1.267-8.829,1.9-13.243c0.715,0.057,1.429,0.114,2.144,0.171
		c0.619,4.212,1.238,8.426,1.858,12.638c0.452-0.031,0.905-0.063,1.357-0.095c0.616-4.279,1.232-8.559,1.849-12.839
		c0.569,0.028,1.14,0.058,1.709,0.086c0.588,4.256,1.176,8.513,1.764,12.769c0.478-0.037,0.955-0.075,1.433-0.112
		c0.67-4.375,1.341-8.75,2.011-13.125c0.601-0.01,1.201-0.019,1.802-0.028c0.538,4.239,1.075,8.479,1.614,12.718
		c0.345-0.013,0.69-0.025,1.035-0.037c0.835-3.912,1.669-7.823,2.504-11.735c0.665,0.044,1.33,0.087,1.995,0.13
		c0.546,4.352,1.091,8.704,1.636,13.056c0.443-0.046,0.887-0.091,1.33-0.136c0.766-4.413,1.531-8.826,2.297-13.238
		c0.757,0.029,1.515,0.059,2.272,0.089c0.463,3.899,0.926,7.798,1.388,11.697c0.179-0.07,0.357-0.142,0.535-0.212
		c0-13.207,0-26.412,0-39.617c-0.145-0.006-0.291-0.012-0.438-0.018c-0.768,4.739-1.536,9.478-2.305,14.216
		c-0.64-0.054-1.279-0.107-1.92-0.161c-0.698-4.801-1.397-9.601-2.096-14.402c-0.346,0.044-0.691,0.088-1.037,0.132
		c-0.785,4.469-1.57,8.938-2.356,13.406c-0.715-0.021-1.43-0.044-2.145-0.065c-0.544-4.509-1.088-9.018-1.631-13.527
		c-0.368-0.003-0.735-0.006-1.103-0.01c-0.611,4.781-1.224,9.561-1.836,14.341c-0.618-0.006-1.236-0.011-1.854-0.017
		c-0.717-4.687-1.434-9.375-2.151-14.062c-0.345-0.022-0.69-0.046-1.036-0.068c-0.658,4.681-1.315,9.363-1.974,14.044
		c-0.654-0.042-1.309-0.085-1.963-0.128C732.199,9.835,731.738,5.341,731.276,0.848z"/>
	<path fill-rule="evenodd" clip-rule="evenodd" fill="#006837" d="M731.276,0.848c0.462,4.494,0.923,8.987,1.384,13.481
		c0.654,0.043,1.309,0.086,1.963,0.128c0.658-4.681,1.315-9.363,1.974-14.044c0.346,0.022,0.691,0.046,1.036,0.068
		c0.718,4.687,1.435,9.375,2.151,14.062c0.618,0.006,1.236,0.011,1.854,0.017c0.612-4.78,1.225-9.56,1.836-14.341
		c0.367,0.004,0.734,0.007,1.103,0.01c0.543,4.509,1.087,9.018,1.631,13.527c0.715,0.021,1.43,0.044,2.145,0.065
		c0.786-4.468,1.571-8.937,2.356-13.406c0.346-0.044,0.691-0.088,1.037-0.132c0.698,4.801,1.397,9.602,2.096,14.402
		c0.641,0.054,1.28,0.107,1.92,0.161c0.769-4.738,1.537-9.477,2.305-14.216c0.146,0.006,0.293,0.012,0.438,0.018
		c0,13.206,0,26.411,0,39.617c-0.178,0.07-0.356,0.142-0.535,0.212c-0.462-3.899-0.925-7.798-1.388-11.697
		c-0.758-0.03-1.516-0.06-2.272-0.089c-0.766,4.413-1.531,8.825-2.297,13.238c-0.443,0.045-0.887,0.09-1.33,0.136
		c-0.545-4.352-1.09-8.704-1.636-13.056c-0.665-0.043-1.33-0.086-1.995-0.13c-0.835,3.912-1.669,7.823-2.504,11.735
		c-0.345,0.012-0.69,0.024-1.035,0.037c-0.539-4.24-1.076-8.479-1.614-12.718c-0.601,0.01-1.201,0.019-1.802,0.028
		c-0.67,4.375-1.341,8.75-2.011,13.125c-0.478,0.037-0.955,0.075-1.433,0.112c-0.588-4.256-1.176-8.512-1.764-12.769
		c-0.569-0.028-1.14-0.058-1.709-0.086c-0.616,4.28-1.232,8.56-1.849,12.839c-0.452,0.031-0.905,0.063-1.357,0.095
		c-0.62-4.212-1.239-8.425-1.858-12.638c-0.715-0.057-1.429-0.114-2.144-0.171c-0.634,4.415-1.267,8.829-1.9,13.243
		c-0.445-0.039-0.891-0.077-1.335-0.116c-0.604-3.963-1.209-7.927-1.813-11.889c-0.691,0.001-1.381,0.002-2.072,0.003
		c-0.493,3.873-0.985,7.747-1.623,12.759c-4.399-4.056-0.147-9.583-4.067-13.867c-0.929,4.562-1.699,8.358-2.472,12.155
		c-0.451,0.046-0.901,0.093-1.352,0.139c-0.739-3.919-1.479-7.839-2.218-11.758c-0.574-0.036-1.148-0.072-1.723-0.109
		c-0.729,4.167-1.459,8.334-2.189,12.5c-0.379-0.029-0.759-0.059-1.139-0.088c-0.721-4.208-1.441-8.417-2.286-13.352
		c-5.365,3.871-2.735,9.379-5.719,13.472c-0.459-4.465-0.918-8.93-1.377-13.396c-0.721-0.083-1.441-0.165-2.162-0.247
		c-0.854,4.282-1.707,8.563-2.559,12.846c-0.426-0.002-0.851-0.004-1.275-0.006c-0.516-4.23-1.03-8.459-1.546-12.689
		c-0.679-0.006-1.357-0.012-2.037-0.019c-0.684,4.294-1.368,8.588-2.051,12.882c-0.44-0.014-0.88-0.028-1.32-0.042
		c-0.654-4.353-1.309-8.707-1.963-13.06c-0.583-0.016-1.166-0.031-1.749-0.047c-0.643,4.17-1.286,8.341-1.93,12.511
		c-0.443,0.019-0.888,0.036-1.333,0.054c-0.449-4.066-0.898-8.131-1.348-12.196c-0.62-0.037-1.24-0.074-1.86-0.111
		c-0.716,4.12-1.433,8.239-2.148,12.359c-0.351,0.007-0.701,0.013-1.053,0.02c-0.549-3.943-1.097-7.886-1.646-11.828
		c-0.649,0-1.299,0.001-1.948,0.002c-0.58,3.98-1.16,7.96-1.74,11.94c-0.463,0.01-0.926,0.021-1.389,0.03
		c-0.447-4.037-0.895-8.073-1.342-12.11c-0.587-0.064-1.175-0.129-1.763-0.193c-0.724,3.9-1.448,7.799-2.172,11.698
		c-0.328,0.075-0.656,0.15-0.984,0.226c-0.656-3.889-1.313-7.778-1.969-11.667c-0.496-0.02-0.993-0.04-1.488-0.06
		c-0.786,3.691-1.572,7.383-2.358,11.074c-0.345,0.051-0.689,0.102-1.035,0.152c-0.847-4.247-1.694-8.494-2.542-12.741
		c-0.734,0.046-1.469,0.091-2.203,0.137c-0.574,4.159-1.147,8.316-1.722,12.475c-0.45,0.01-0.9,0.02-1.352,0.03
		c-0.474-4.147-0.948-8.295-1.422-12.442c-0.648-0.029-1.297-0.06-1.943-0.09c-0.596,4.135-1.19,8.27-1.786,12.405
		c-0.385,0.066-0.771,0.132-1.155,0.198c-0.771-4.477-1.543-8.954-2.314-13.43c-0.666-0.005-1.331-0.009-1.997-0.013
		c-0.708,4.5-1.417,9.001-2.126,13.501c-0.491,0.027-0.982,0.056-1.474,0.083c-0.579-3.721-1.158-7.442-1.737-11.164
		c-0.685,0.001-1.369,0.002-2.054,0.003c-0.43,3.531-0.858,7.063-1.288,10.593c-0.414,0.04-0.829,0.08-1.244,0.119
		c-0.529-4.175-1.059-8.352-1.588-12.528c-0.631-0.033-1.262-0.066-1.893-0.101c-0.83,4.067-1.66,8.134-2.49,12.2
		c-0.346,0.003-0.689,0.006-1.035,0.009c-0.7-4.142-1.399-8.283-2.099-12.425c-0.771-0.029-1.54-0.059-2.311-0.088
		c-0.929,4.347-1.858,8.694-2.787,13.042c-0.329-0.014-0.658-0.027-0.987-0.041c-0.518-3.697-1.035-7.394-1.553-11.09
		c-0.614-0.001-1.229-0.002-1.843-0.003c-0.492,3.35-0.983,6.7-1.476,10.05c-0.443,0.032-0.886,0.065-1.328,0.098
		c-0.6-4.058-1.199-8.117-1.799-12.176c-0.646-0.049-1.29-0.098-1.936-0.147c-0.723,4.115-1.445,8.23-2.168,12.345
		c-0.544-0.053-1.088-0.105-1.633-0.157c-0.101-2.015-0.03-4.058-0.352-6.037c-0.322-1.995-1.033-3.927-1.575-5.886
		c-0.585,0.016-1.169,0.031-1.754,0.048c-0.563,4.107-1.126,8.214-1.688,12.322c-0.365,0.019-0.73,0.037-1.096,0.057
		c-0.751-4.438-1.502-8.875-2.253-13.313c-0.585,0.013-1.171,0.025-1.756,0.038c-0.801,4.013-1.602,8.026-2.403,12.039
		c-0.31,0.014-0.62,0.028-0.93,0.042c-0.688-3.82-1.376-7.641-2.064-11.461c-0.673-0.005-1.346-0.01-2.02-0.016
		c-0.476,3.672-0.951,7.342-1.427,11.014c-0.474,0.018-0.948,0.035-1.422,0.054c-0.346-3.665-0.691-7.33-1.077-11.43
		c-3.421-0.43-2.62,3.207-3.134,5.369c-0.541,2.278-0.45,4.707-0.635,7.069c-0.458,0.026-0.916,0.053-1.374,0.078
		c-0.574-4.098-1.148-8.195-1.724-12.293c-0.691-0.036-1.383-0.072-2.074-0.108c-0.718,3.804-1.437,7.605-2.155,11.408
		c-0.324,0.055-0.648,0.108-0.973,0.163c-0.688-3.778-1.376-7.556-2.064-11.333c-0.62,0.025-1.24,0.052-1.861,0.078
		c-0.627,3.547-1.254,7.094-1.88,10.642c-0.337,0.012-0.674,0.023-1.012,0.036c-0.611-3.853-1.223-7.706-1.834-11.558
		c-0.6,0.021-1.199,0.041-1.799,0.062c-0.678,3.901-1.355,7.803-2.032,11.704c-0.355,0.029-0.709,0.059-1.064,0.088
		c-0.706-3.967-1.413-7.936-2.119-11.903c-0.675,0.015-1.35,0.03-2.023,0.046c-0.787,3.745-1.574,7.489-2.361,11.234
		c-0.287,0.069-0.574,0.139-0.862,0.207c-0.64-3.338-1.279-6.676-1.919-10.015c-0.581,0.052-1.162,0.104-1.743,0.156
		c-0.729,3.391-1.459,6.782-2.188,10.174c-0.379-0.023-0.759-0.046-1.137-0.069c-0.615-3.48-1.229-6.96-1.845-10.44
		c-0.699-0.028-1.397-0.056-2.097-0.084c-0.947,3.761-1.895,7.522-2.843,11.284c-0.426-0.072-0.852-0.146-1.276-0.219
		c-0.106-1.837-0.055-3.704-0.365-5.505c-0.316-1.835-0.991-3.607-1.509-5.406c-0.555-0.016-1.11-0.031-1.665-0.046
		c-0.628,3.282-1.255,6.564-1.883,9.847c-0.41,0.02-0.821,0.038-1.231,0.058c-0.563-3.389-1.124-6.777-1.685-10.167
		c-0.633-0.036-1.266-0.071-1.898-0.106c-0.619,3.142-1.237,6.283-1.856,9.424c-0.369,0.032-0.738,0.064-1.108,0.097
		c-0.754-2.91-1.509-5.821-2.264-8.73c-0.484,0.039-0.97,0.078-1.456,0.117c-0.477,2.949-0.953,5.898-1.431,8.848
		c-0.383,0.081-0.767,0.162-1.15,0.243c-0.723-3.657-1.445-7.313-2.168-10.97c-0.555-0.042-1.109-0.085-1.665-0.128
		c-0.792,3.454-1.585,6.907-2.377,10.361c-0.431,0.021-0.861,0.042-1.292,0.063c-0.21-1.572-0.365-3.154-0.645-4.713
		c-0.308-1.718-0.729-3.417-1.1-5.124c-0.545-0.032-1.09-0.065-1.635-0.097c-0.722,3.614-1.445,7.227-2.168,10.84
		c-0.362,0.008-0.725,0.016-1.086,0.023c-0.662-3.554-1.323-7.109-1.984-10.665c-0.669-0.01-1.337-0.021-2.006-0.03
		c-0.727,3.188-1.452,6.376-2.179,9.564c-0.268,0.081-0.534,0.162-0.802,0.243c-0.721-3.295-1.441-6.592-2.162-9.887
		c-0.642,0.018-1.284,0.036-1.926,0.054c-0.724,3.04-1.445,6.08-2.537,10.669c-1.134-4.501-1.914-7.598-2.694-10.694
		c-0.535-0.006-1.07-0.012-1.604-0.018c-0.781,3.432-1.562,6.864-2.342,10.295c-0.332-0.053-0.665-0.105-0.997-0.158
		c-0.66-3.302-1.32-6.605-1.98-9.908c-0.647-0.003-1.295-0.006-1.942-0.01c-0.753,3.109-1.506,6.218-2.259,9.327
		c-0.313,0.021-0.625,0.041-0.937,0.061c-0.605-3.079-1.21-6.157-1.814-9.236c-0.564-0.004-1.128-0.008-1.692-0.012
		c-0.561,2.814-1.121,5.628-1.682,8.442c-0.396,0.041-0.794,0.082-1.19,0.124c-0.643-2.896-1.285-5.792-1.929-8.688
		c-0.579-0.091-1.157-0.181-1.736-0.27c-1.038,3.143-2.077,6.286-3.303,9.998c-2.976-3.28,0.971-9.2-5.509-10.684
		c-0.375,3.538-0.722,6.802-1.067,10.067c-0.352,0.032-0.702,0.065-1.054,0.098c-0.98-2.763-1.96-5.527-2.94-8.291
		c-0.462,0.021-0.925,0.043-1.387,0.064c-0.558,2.511-1.115,5.02-1.673,7.53c-0.308,0.045-0.615,0.09-0.922,0.134
		c-0.619-2.862-1.238-5.724-1.857-8.586c-0.578,0.003-1.156,0.005-1.734,0.008c-0.683,3.074-1.364,6.149-2.047,9.223
		c-0.355-0.004-0.71-0.009-1.065-0.014c-0.948-3.135-1.897-6.271-2.847-9.407c-0.557,0.043-1.114,0.087-1.672,0.13
		c-0.74,2.838-1.48,5.676-2.221,8.514c-0.408,0.019-0.818,0.036-1.228,0.054c-0.565-3.101-1.131-6.202-1.697-9.304
		c-0.565-0.054-1.13-0.108-1.696-0.163c-0.67,2.798-1.34,5.596-2.01,8.394c-0.315,0.061-0.63,0.121-0.945,0.182
		c-0.646-2.584-1.291-5.168-1.937-7.753c-0.475-0.047-0.949-0.093-1.424-0.14c-0.902,2.584-1.805,5.167-3.162,9.052
		c-1.055-3.94-1.78-6.653-2.507-9.367c-0.491-0.003-0.981-0.005-1.473-0.007c-0.875,2.608-1.75,5.215-3.067,9.143
		c-1.007-4.084-1.658-6.727-2.309-9.368c-0.564,0.004-1.129,0.007-1.692,0.011c-0.713,2.583-1.426,5.166-2.138,7.749
		c-0.323-0.013-0.646-0.026-0.969-0.039c-0.793-2.636-1.587-5.272-2.381-7.908c-0.459-0.006-0.917-0.012-1.376-0.018
		c-0.891,2.571-1.781,5.142-2.671,7.713c-0.376-0.03-0.75-0.062-1.125-0.092c-0.181-1.521-0.104-3.135-0.62-4.532
		c-0.449-1.221-1.564-2.197-2.386-3.281c-0.705,0.958-1.651,1.823-2.061,2.893c-0.611,1.601-0.845,3.345-2.334,5.111
		c-0.779-2.287-1.558-4.573-2.337-6.859c-0.42-0.022-0.841-0.046-1.261-0.068c-0.723,2.411-1.446,4.822-2.169,7.233
		c-0.388-0.025-0.775-0.051-1.163-0.075c-0.127-1.645,0.007-3.368-0.464-4.906c-0.382-1.248-1.49-2.273-2.275-3.397
		c-0.774,0.938-1.74,1.779-2.275,2.837c-0.702,1.389-1.064,2.949-2.022,5.751c-0.968-3.745-1.603-6.198-2.237-8.649
		c-0.582-0.05-1.163-0.099-1.745-0.147c-0.822,2.556-1.644,5.114-2.757,8.574c-1.002-2.629-1.708-4.477-2.99-7.836
		c-1.302,3.231-2.078,5.157-3.155,7.83c-1.016-3.04-1.853-5.544-2.69-8.049c-0.472-0.008-0.943-0.016-1.415-0.022
		c-0.793,2.167-1.586,4.333-2.379,6.5c-0.347,0.035-0.695,0.07-1.042,0.105c-0.212-1.253-0.235-2.579-0.689-3.736
		c-0.438-1.114-1.32-2.053-2.006-3.068c-0.833,0.874-1.947,1.619-2.425,2.657c-0.577,1.254-0.615,2.756-1.946,4.472
		c-1.023-2.126-2.046-4.254-3.671-7.633c-1.159,3.006-1.903,4.939-3.063,7.951c-0.746-1.783-1.058-2.863-1.622-3.791
		c-0.686-1.127-1.584-2.125-2.39-3.179c-0.53,1.082-1.136,2.135-1.563,3.257c-0.284,0.746-0.311,1.59-1.437,2.79
		c-1.056-2.255-2.113-4.51-3.862-8.245c-1.39,3.262-2.256,5.293-3.439,8.067c-1.254-2.613-2.308-4.807-3.361-7.001
		c-0.422,0.038-0.844,0.076-1.266,0.114c-0.777,2.385-1.554,4.77-2.673,8.204c-0.974-3.262-1.651-5.533-2.328-7.803
		c-0.486-0.021-0.971-0.043-1.457-0.064c-0.742,1.922-1.483,3.844-2.52,6.53c-0.935-2.672-1.675-4.786-2.414-6.898
		c-0.434,0.038-0.869,0.076-1.303,0.114c-0.784,2.117-1.569,4.234-2.656,7.168c-1.311-3.006-2.201-5.047-3.565-8.175
		c-1.595,3.122-2.579,5.046-3.477,6.804c-1.553-1.974-2.92-3.713-4.288-5.451c-0.948,1.59-1.897,3.181-3.093,5.187
		c-1.045-1.74-2.09-3.479-3.55-5.909c-1.27,2.43-2.125,4.067-3.334,6.382c-1.011-2.293-1.742-3.953-2.992-6.791
		c-1.386,2.602-2.292,4.303-3.291,6.181c-1.429-1.977-2.725-3.77-4.021-5.562c-1.315,1.887-2.63,3.774-4.252,6.103
		c-0.92-1.865-1.904-3.862-3.483-7.065c-1.373,2.967-2.255,4.873-3.479,7.519c-1.138-2.584-1.994-4.528-3.436-7.803
		c-1.392,2.974-2.2,4.702-3.225,6.892c-1.063-2.375-1.865-4.163-3.309-7.386c-1.568,3.283-2.48,5.192-3.739,7.826
		c-1.074-2.341-1.946-4.245-3.345-7.293c-1.428,2.605-2.362,4.313-3.497,6.384c-1.125-1.663-2.212-3.271-3.301-4.88
		c-1.238,1.45-2.476,2.9-3.756,4.401c-1.005-1.377-2.244-3.073-3.482-4.77c-1.196,1.75-2.392,3.499-3.812,5.577
		c-0.907-2.016-1.79-3.979-3.218-7.154c-1.443,3.023-2.253,4.717-3.32,6.952c-1.247-2.108-2.336-3.948-3.889-6.572
		c-1.485,2.345-2.593,4.091-4.082,6.44c-0.979-1.898-1.656-3.211-2.569-4.982c-1.133,1.47-1.969,2.554-3.004,3.897
		c-1.204-1.721-2.177-3.112-3.479-4.973c-1.266,1.674-2.181,2.883-3.111,4.115c-1.142-1.328-2.198-2.557-3.255-3.787
		c-1.276,1.34-2.553,2.679-4.037,4.237c-0.862-1.419-1.913-3.149-3.564-5.868c-1.299,2.815-2.061,4.465-3.023,6.55
		c-1.08-2.025-1.94-3.637-3.177-5.958c-1.532,1.879-2.581,3.166-3.678,4.511c-1.163-1.449-2.299-2.866-3.771-4.701
		c-1.398,2.055-2.371,3.483-3.514,5.164c-1.073-1.616-1.987-2.993-3.267-4.92c-1.484,1.828-2.547,3.137-3.697,4.554
		c-1.155-1.328-2.171-2.497-3.523-4.051c-1.099,1.602-1.942,2.83-2.697,3.93c-1.207-1.425-2.296-2.71-3.385-3.996
		c-1.111,1.436-2.221,2.871-3.365,4.35c-1.115-1.57-2.244-3.161-3.373-4.75c-1.362,1.232-2.724,2.466-4.025,3.643
		c-1.09-1.01-2.434-2.258-3.779-3.505c-1.216,1.388-2.432,2.775-3.606,4.115c-0.89-1.314-1.928-2.846-3.306-4.883
		c-1.421,2.082-2.379,3.484-3.396,4.975c-3.567-5.472-3.662-5.471-6.88-0.181c-1.156-1.357-2.312-2.715-3.468-4.073
		c-1.257,1.145-2.515,2.289-3.999,3.639c-0.617-1.213-1.29-2.537-2.319-4.561c-1.274,1.632-2.182,2.795-3.242,4.153
		c-0.977-1.255-1.911-2.458-3.189-4.101c-1.22,1.627-2.166,2.889-3.11,4.146c-3.874-4.108-4.245-4.082-7.13,0.524
		c-1.211-1.389-2.201-3.379-3.711-3.923c-0.868-0.313-2.58,1.719-3.917,2.698c-3.114-4.184-3.639-4.148-7.459,1.092
		c-0.794-1.465-1.507-2.783-3.168-5.849c-1.096,2.055-1.772,3.325-2.65,4.972c-2.177-2.804-4.473-5.467-7.036,0.053
		c-2.775-4.437-5.427-4.375-7.845,0.593c-1.952-5.067-4.026-4.55-6.306-0.606c-2.42-4.812-4.786-3.974-7.189,0.758
		c-1.834-5.005-4.101-5.41-6.48-1.295c-3.821-3.44-3.821-3.44-7.269-1.533c-1.989,0.137-3.978,0.264-5.965,0.416
		c-0.564,0.043-1.52,0.393-1.626,0.211c-2.688-4.613-4.108,0.002-6.752,1.364c-0.255-2.547-0.461-4.598-0.667-6.649
		c3.362,2.664,5.765,2.72,7.875-1.019c2.554,2.858,4.961,4.787,6.629-0.637c2.647,3.421,5.132,5.753,7.158-0.699
		c2.42,5.012,4.714,5.94,6.928,0.162c2.671,4.26,4.985,5.479,6.63-0.257c1.277,1.7,2.214,2.946,3.58,4.765
		c1.256-1.55,2.284-2.816,3.424-4.221c1.124,1.189,2.223,2.354,3.793,4.017c1.287-1.52,2.383-2.814,3.704-4.373
		c1.015,1.121,2.016,3.181,3.349,3.425c1.313,0.24,2.963-1.361,4.465-2.154c-0.348-0.478-0.695-0.955-1.043-1.433
		c1.115,1.403,2.23,2.806,3.789,4.767c0.982-2.019,1.588-3.265,2.39-4.914c2.318,2.618,4.895,7.81,7.095-0.385
		c1.55,1.752,2.631,4.009,3.954,4.163c1.184,0.136,2.634-2.05,3.965-3.209c3.834,4.596,4.568,4.544,7.317-1.052
		c0.896,1.579,1.705,3.007,2.985,5.265c1.382-2.287,2.345-3.878,3.524-5.829c0.84,1.628,1.577,3.055,2.762,5.353
		c1.161-2.212,1.924-3.665,2.888-5.5c1.147,1.589,2.171,3.006,3.194,4.424c1.223-1.337,2.445-2.673,3.899-4.263
		c1.047,1.683,2.047,3.29,3.665,5.889c1.286-2.526,2.211-4.345,3.251-6.39c1.251,1.676,2.425,3.246,3.598,4.816
		c1.24-1.36,2.481-2.719,3.785-4.149c0.908,1.259,1.973,2.736,3.039,4.212c1.359-1.47,2.717-2.939,4.238-4.583
		c0.774,1.224,1.829,2.891,3.515,5.554c1.402-2.548,2.373-4.312,3.532-6.42c0.942,1.816,1.785,3.441,3.289,6.342
		c1.14-2.713,1.801-4.287,2.784-6.629c0.899,2.164,1.583,3.808,2.713,6.528c1.657-2.35,2.85-4.042,4.258-6.037
		c0.819,1.74,1.646,3.496,2.87,6.092c1.488-2.622,2.491-4.389,3.783-6.665c1.254,2.268,2.265,4.097,3.956,7.155
		c1.361-3.073,2.168-4.897,3.297-7.445c0.983,2.219,1.767,3.989,3.131,7.068c1.543-2.804,2.594-4.715,3.877-7.049
		c1.049,2.134,1.997,4.063,3.495,7.113c1.391-3.131,2.276-5.125,3.173-7.142c1.365,1.841,2.667,3.597,3.969,5.353
		c0.972-1.759,1.943-3.52,3.162-5.729c0.951,1.836,1.796,3.469,3.175,6.135c1.334-2.678,2.268-4.553,3.489-7.004
		c0.733,2.314,1.325,4.182,1.917,6.051c0.414,0.11,0.827,0.222,1.24,0.332c0.919-1.996,1.839-3.992,2.969-6.445
		c0.961,2.236,1.837,4.27,3.348,7.782c1.652-3.414,2.639-5.452,3.9-8.059c1.188,2.637,2.109,4.686,3.032,6.735
		c0.452,0.004,0.903,0.008,1.354,0.012c0.806-2.064,1.612-4.127,2.754-7.052c1.038,2.774,1.777,4.748,2.517,6.72
		c0.461,0.027,0.922,0.055,1.383,0.082c0.787-2.072,1.574-4.143,2.654-6.985c0.676,1.363,1.026,2.103,1.406,2.826
		c0.687,1.308,1.391,2.606,2.089,3.908c0.889-1.339,1.842-2.644,2.639-4.036c0.36-0.628,0.412-1.433,0.975-3.558
		c1.073,3.301,1.721,5.293,2.369,7.288c0.5,0.125,0.999,0.252,1.498,0.378c1.052-2.321,2.103-4.642,3.577-7.897
		c0.438,1.829,0.553,3.002,1.009,4.023c0.482,1.081,1.29,2.016,1.954,3.015c0.754-0.936,1.681-1.784,2.21-2.833
		c0.448-0.886,0.435-2.005,1.596-3.154c0.877,2.364,1.754,4.729,2.631,7.093c0.515-0.011,1.029-0.021,1.543-0.032
		c0.559-2.42,1.118-4.841,1.91-8.272c1.525,3.479,2.619,5.974,3.713,8.468c0.403-0.072,0.806-0.144,1.208-0.216
		c0.799-2.361,1.598-4.722,2.324-6.865c1.662,2.34,3.25,4.574,4.837,6.808c1.307-2.292,2.615-4.584,4.165-7.301
		c0.609,2.029,1.224,4.079,2.27,7.561c1.66-3.305,2.74-5.454,4.138-8.237c0.7,2.965,1.259,5.334,1.818,7.705
		c0.574,0.082,1.147,0.165,1.721,0.247c0.815-2.396,1.629-4.792,2.685-7.894c1.088,2.968,1.989,5.42,2.889,7.873
		c0.51-0.03,1.021-0.061,1.531-0.091c0.759-2.549,1.518-5.1,2.491-8.372c1.493,3.195,2.747,5.877,4.001,8.559
		c0.517-0.119,1.034-0.238,1.552-0.357c0.397-2.51,0.795-5.02,1.193-7.53c0.308,0.024,0.615,0.048,0.923,0.071
		c0.757,2.413,1.515,4.826,2.273,7.239c0.522,0.031,1.045,0.062,1.567,0.093c0.588-2.729,1.176-5.458,1.764-8.186
		c0.315-0.037,0.629-0.074,0.944-0.111c0.703,2.602,1.405,5.204,2.108,7.807c0.523,0.035,1.046,0.07,1.569,0.106
		c0.703-2.385,1.406-4.769,2.352-7.975c1.122,3.133,1.942,5.426,2.763,7.719c0.489,0.013,0.979,0.024,1.47,0.036
		c0.781-2.596,1.562-5.192,2.655-8.828c1.193,3.708,2.068,6.426,2.942,9.144c0.546,0.008,1.091,0.017,1.637,0.025
		c0.964-2.736,1.928-5.472,3.284-9.321c0.997,3.839,1.715,6.607,2.434,9.377c0.587,0.001,1.173,0.002,1.76,0.003
		c0.766-2.711,1.533-5.422,2.667-9.437c1.194,3.829,1.992,6.387,2.79,8.945c0.502-0.012,1.004-0.024,1.506-0.037
		c0.793-2.618,1.587-5.236,2.381-7.854c0.311,0.029,0.622,0.059,0.932,0.088c0.749,2.802,1.498,5.604,2.247,8.408
		c0.611,0.013,1.222,0.025,1.833,0.038c0.899-3.07,1.798-6.14,3.019-10.308c1.132,3.971,1.947,6.827,2.761,9.685
		c0.548,0.016,1.095,0.03,1.643,0.045c0.554-2.834,1.108-5.667,1.977-10.104c1.282,4.092,2.142,6.836,3,9.579
		c0.467,0.006,0.935,0.011,1.402,0.016c0.507-2.978,1.015-5.958,1.522-8.937c0.31,0.009,0.62,0.017,0.93,0.024
		c0.729,2.849,1.458,5.698,2.188,8.547c0.515,0.025,1.029,0.052,1.543,0.077c0.772-2.757,1.545-5.515,2.636-9.409
		c1.268,4.255,2.216,7.433,3.163,10.611c0.527,0.087,1.055,0.174,1.582,0.26c0.934-3.249,1.867-6.497,3.092-10.759
		c1.328,3.722,2.272,6.372,3.217,9.021c0.466-0.04,0.933-0.08,1.398-0.121c0.369-2.741,0.738-5.483,1.107-8.225
		c0.418-0.106,0.836-0.214,1.254-0.32c0.88,3.072,1.759,6.145,2.639,9.217c0.441,0.144,0.884,0.287,1.325,0.43
		c0.996-3.019,1.993-6.04,3.389-10.271c1.139,4.117,2.013,7.277,2.887,10.437c0.597-0.08,1.192-0.16,1.789-0.241
		c0.663-3.082,1.327-6.164,1.991-9.245c0.397-0.03,0.795-0.061,1.192-0.091c0.726,2.813,1.452,5.627,2.178,8.44
		c0.533,0.055,1.065,0.109,1.599,0.164c0.598-2.953,1.195-5.906,1.794-8.858c0.279-0.064,0.559-0.13,0.838-0.194
		c0.671,3.038,1.342,6.077,2.013,9.114c0.608,0.039,1.218,0.078,1.827,0.118c0.835-3.007,1.671-6.015,2.864-10.307
		c1.104,4.477,1.897,7.693,2.691,10.911c0.538-0.04,1.077-0.08,1.616-0.12c0.526-3.492,1.053-6.984,1.579-10.476
		c0.371-0.011,0.743-0.021,1.114-0.031c0.821,3.367,1.643,6.733,2.464,10.1c0.566-0.07,1.133-0.14,1.7-0.209
		c0.503-3.124,1.007-6.246,1.511-9.369c0.35-0.052,0.699-0.104,1.049-0.155c0.999,3.323,1.999,6.645,2.999,9.968
		c0.632-0.021,1.264-0.041,1.896-0.062c0.638-3.368,1.276-6.735,1.914-10.103c0.282-0.089,0.564-0.179,0.847-0.269
		c0.754,3.333,1.508,6.666,2.263,10c0.538,0.016,1.077,0.031,1.616,0.047c0.699-3.328,1.398-6.655,2.098-9.983
		c0.308-0.024,0.615-0.049,0.922-0.073c0.652,3.25,1.304,6.499,1.956,9.749c0.493,0.01,0.987,0.019,1.48,0.027
		c0.654-3.304,1.31-6.607,1.964-9.912c0.417,0.015,0.834,0.029,1.252,0.044c0.684,3.497,1.367,6.992,2.052,10.489
		c0.639,0.012,1.277,0.024,1.915,0.037c0.754-3.628,1.506-7.257,2.26-10.885c0.265-0.093,0.529-0.186,0.794-0.277
		c0.486,1.683,1.044,3.35,1.438,5.055c0.396,1.711,0.631,3.461,0.936,5.193c0.629,0.099,1.257,0.198,1.885,0.297
		c0.792-3.511,1.584-7.023,2.376-10.535c0.286-0.097,0.571-0.192,0.856-0.289c0.759,3.237,1.518,6.474,2.275,9.709
		c0.506,0.055,1.013,0.109,1.519,0.164c0.612-3.308,1.225-6.616,1.837-9.924c0.4,0.016,0.801,0.032,1.2,0.049
		c0.501,3.646,1.002,7.292,1.503,10.939c0.65,0.053,1.3,0.106,1.949,0.159c0.922-3.626,1.845-7.253,2.767-10.879
		c0.26-0.091,0.52-0.181,0.778-0.271c0.657,3.887,1.314,7.775,1.971,11.664c0.637,0.007,1.273,0.014,1.91,0.021
		c0.771-3.828,1.543-7.655,2.314-11.483c0.262-0.045,0.523-0.089,0.785-0.133c0.828,3.76,1.655,7.521,2.483,11.281
		c0.538,0.008,1.076,0.015,1.615,0.021c0.625-3.842,1.25-7.685,1.875-11.527c0.38-0.033,0.76-0.066,1.139-0.101
		c0.672,3.932,1.343,7.863,2.015,11.795c0.685,0.011,1.368,0.021,2.052,0.032c0.637-3.923,1.274-7.846,1.912-11.769
		c0.305-0.013,0.609-0.026,0.915-0.039c0.739,3.593,1.479,7.188,2.219,10.782c0.618,0.034,1.237,0.068,1.855,0.103
		c0.639-3.702,1.278-7.403,1.917-11.105c0.328-0.001,0.656-0.001,0.984-0.002c0.741,3.679,1.482,7.358,2.225,11.039
		c0.704,0.025,1.407,0.052,2.111,0.077c0.655-3.53,1.31-7.06,1.964-10.588c0.313-0.035,0.627-0.07,0.94-0.105
		c0.736,3.17,1.473,6.34,2.209,9.51c0.508,0.017,1.017,0.032,1.524,0.049c0.519-3.652,1.038-7.304,1.558-10.956
		c0.397-0.029,0.795-0.06,1.192-0.089c0.718,3.529,1.435,7.058,2.152,10.586c0.533,0.047,1.067,0.095,1.601,0.142
		c0.605-3.306,1.21-6.611,1.815-9.917c0.374-0.051,0.748-0.101,1.122-0.15c0.89,3.584,1.779,7.169,2.67,10.753
		c0.505,0.011,1.009,0.022,1.514,0.034c0.629-3.655,1.258-7.309,1.886-10.963c0.39,0.038,0.778,0.076,1.167,0.113
		c0.81,3.718,1.62,7.436,2.43,11.153c0.578,0.048,1.156,0.095,1.734,0.142c0.874-3.733,1.748-7.466,2.621-11.199
		c0.268-0.027,0.534-0.054,0.802-0.081c0.771,3.517,1.544,7.034,2.316,10.552c0.543,0.065,1.087,0.131,1.63,0.196
		c0.671-3.567,1.342-7.135,2.014-10.702c0.237-0.052,0.478-0.104,0.715-0.155c0.89,4.122,1.779,8.244,2.669,12.366
		c0.541,0.042,1.083,0.083,1.625,0.125c0.726-4.093,1.451-8.187,2.178-12.279c0.289-0.008,0.579-0.016,0.867-0.023
		c0.738,3.476,1.477,6.952,2.215,10.428c0.59,0.019,1.181,0.037,1.771,0.056c0.662-3.508,1.323-7.016,1.984-10.524
		c0.305-0.012,0.609-0.022,0.914-0.034c0.615,3.391,1.228,6.782,1.843,10.172c0.531-0.029,1.063-0.06,1.596-0.09
		c0.765-3.401,1.529-6.803,2.294-10.204c0.33,0.009,0.66,0.018,0.991,0.026c0.723,3.655,1.446,7.31,2.168,10.963
		c0.654,0.023,1.31,0.047,1.964,0.07c0.721-3.804,1.441-7.608,2.162-11.413c0.212-0.07,0.424-0.141,0.636-0.21
		c0.677,3.156,1.354,6.312,2.03,9.467c0.587,0.069,1.174,0.139,1.761,0.208c0.713-3.195,1.426-6.39,2.139-9.585
		c0.273,0.009,0.546,0.017,0.818,0.025c0.688,3.539,1.378,7.078,2.066,10.617c0.569,0.004,1.139,0.009,1.707,0.013
		c0.612-3.589,1.225-7.178,1.837-10.767c0.254-0.039,0.507-0.078,0.76-0.117c0.813,3.943,1.626,7.885,2.439,11.827
		c0.621,0.031,1.242,0.063,1.863,0.095c0.804-3.924,1.607-7.848,2.699-13.172c1.155,4.812,1.979,8.249,2.805,11.686
		c0.57-0.009,1.141-0.019,1.71-0.028c0.649-3.469,1.297-6.938,1.945-10.407c0.345-0.006,0.688-0.013,1.032-0.019
		c0.75,3.822,1.501,7.644,2.251,11.464c0.52,0.005,1.039,0.01,1.559,0.015c0.817-3.933,1.636-7.867,2.452-11.8
		c0.377,0.023,0.754,0.048,1.131,0.071c0.537,4.033,1.074,8.065,1.611,12.098c0.611-0.002,1.224-0.003,1.835-0.005
		c0.473-4.071,0.945-8.143,1.418-12.213c0.316-0.022,0.634-0.044,0.95-0.066c0.905,4.444,1.811,8.887,2.717,13.33
		c0.501,0.026,1.002,0.054,1.503,0.08c0.744-2.076,1.678-4.108,2.182-6.241c0.514-2.172,0.605-4.443,1.999-6.812
		c0.759,4.324,1.518,8.647,2.275,12.971c0.579,0.021,1.158,0.043,1.737,0.064c0.652-4.533,1.306-9.064,1.959-13.597
		c0.307-0.035,0.613-0.07,0.92-0.105c0.693,4.344,1.387,8.688,2.08,13.033c0.541,0.014,1.081,0.028,1.622,0.042
		c0.51-4.458,1.02-8.917,1.529-13.376c0.324-0.009,0.648-0.018,0.974-0.026c0.763,4.456,1.524,8.911,2.286,13.367
		c0.583,0.041,1.166,0.082,1.749,0.124c0.975-4.443,1.95-8.885,2.926-13.328c0.256-0.015,0.512-0.029,0.769-0.044
		c0.663,4.37,1.327,8.739,1.989,13.108c0.636-0.038,1.271-0.077,1.905-0.116c0.516-4.48,1.032-8.961,1.548-13.441
		c0.292,0.048,0.585,0.096,0.878,0.144c0.948,4.328,1.897,8.657,2.846,12.986c0.579-0.046,1.157-0.091,1.736-0.137
		c0.735-4.289,1.472-8.577,2.207-12.864c0.354-0.056,0.71-0.11,1.065-0.166c0.652,4.291,1.306,8.58,1.958,12.869
		c0.53,0.023,1.062,0.047,1.592,0.07c0.913-4.611,1.826-9.221,2.738-13.832c0.291,0.001,0.582,0.002,0.873,0.003
		c0.475,4.521,0.949,9.042,1.424,13.563c0.603,0.039,1.205,0.078,1.808,0.117c0.65-4.462,1.302-8.924,1.953-13.386
		c0.398,0.002,0.796,0.003,1.193,0.005c0.552,3.576,1.104,7.151,1.656,10.727c0.477,0.058,0.953,0.115,1.43,0.173
		c0.855-3.752,1.711-7.505,2.566-11.257c0.294,0.013,0.588,0.024,0.882,0.036c0.573,3.822,1.146,7.643,1.72,11.463
		c0.59-0.006,1.181-0.012,1.771-0.018c0.667-4.027,1.333-8.054,1.999-12.081c0.396,0.019,0.789,0.036,1.185,0.054
		c0.627,3.983,1.255,7.966,1.882,11.949c0.543,0.066,1.085,0.132,1.627,0.197c0.699-4.053,1.398-8.107,2.098-12.161
		c0.314-0.04,0.63-0.08,0.944-0.12c0.722,4.833,1.442,9.665,2.165,14.497c0.58-0.027,1.161-0.054,1.742-0.08
		c0.766-4.737,1.532-9.475,2.298-14.214c0.42-0.019,0.839-0.038,1.258-0.058c0.666,4.719,1.331,9.438,1.997,14.157
		c0.596-0.021,1.192-0.044,1.789-0.065c0.643-4.74,1.285-9.481,1.929-14.222c0.375-0.042,0.75-0.084,1.126-0.125
		c0.922,4.89,1.844,9.78,2.767,14.67c0.646,0.012,1.292,0.024,1.938,0.037c0.858-4.88,1.717-9.759,2.575-14.639
		c0.375-0.038,0.751-0.077,1.126-0.115c0.611,4.95,1.222,9.898,1.833,14.848c0.529,0.037,1.059,0.073,1.589,0.11
		c0.902-5.125,1.805-10.25,2.707-15.375c0.356-0.024,0.714-0.049,1.07-0.072c0.5,4.692,1,9.385,1.499,14.077
		c0.504,0.049,1.008,0.097,1.512,0.145c0.671-4.683,1.341-9.367,2.011-14.05c0.471,0.004,0.94,0.008,1.411,0.012
		c0.56,4.67,1.12,9.341,1.68,14.01c0.581,0.02,1.16,0.039,1.741,0.059c0.855-4.715,1.711-9.431,2.566-14.145
		c0.294-0.025,0.589-0.051,0.884-0.075c0.787,4.558,1.573,9.116,2.359,13.674c0.554-0.033,1.107-0.066,1.66-0.101
		c0.678-4.352,1.354-8.705,2.032-13.058C730.322,0.647,730.799,0.748,731.276,0.848z"/>
</g>
<line fill-rule="evenodd" clip-rule="evenodd" fill="#006837" stroke="#000000" stroke-width="2" stroke-miterlimit="10" x1="5" y1="59.569" x2="759" y2="59.569"/>
<line fill-rule="evenodd" clip-rule="evenodd" fill="#006837" stroke="#000000" stroke-width="2" stroke-miterlimit="10" x1="5" y1="51.569" x2="5" y2="64.569"/>
<line fill-rule="evenodd" clip-rule="evenodd" fill="#006837" stroke="#000000" stroke-width="2" stroke-miterlimit="10" x1="759" y1="51.569" x2="759" y2="64.569"/>
<line fill-rule="evenodd" clip-rule="evenodd" fill="#006837" stroke="#000000" stroke-width="2" stroke-miterlimit="10" x1="105" y1="52.569" x2="105" y2="65.569"/>
<line fill-rule="evenodd" clip-rule="evenodd" fill="#006837" stroke="#000000" stroke-width="2" stroke-miterlimit="10" x1="205" y1="52.569" x2="205" y2="65.569"/>
<line fill-rule="evenodd" clip-rule="evenodd" fill="#006837" stroke="#000000" stroke-width="2" stroke-miterlimit="10" x1="305" y1="51.569" x2="305" y2="64.569"/>
<line fill-rule="evenodd" clip-rule="evenodd" fill="#006837" stroke="#000000" stroke-width="2" stroke-miterlimit="10" x1="405" y1="51.569" x2="405" y2="64.569"/>
<line fill-rule="evenodd" clip-rule="evenodd" fill="#006837" stroke="#000000" stroke-width="2" stroke-miterlimit="10" x1="505" y1="52.569" x2="505" y2="65.569"/>
<line fill-rule="evenodd" clip-rule="evenodd" fill="#006837" stroke="#000000" stroke-width="2" stroke-miterlimit="10" x1="606" y1="52.569" x2="606" y2="65.569"/>
<line fill-rule="evenodd" clip-rule="evenodd" fill="#006837" stroke="#000000" stroke-width="2" stroke-miterlimit="10" x1="705" y1="52.569" x2="705" y2="65.569"/>
<text transform="matrix(1 0 0 1 100 84.5688)" font-family="'MyriadPro-Regular'" font-size="18">1</text>
<text transform="matrix(1 0 0 1 200 84.5688)" font-family="'MyriadPro-Regular'" font-size="18">2</text>
<text transform="matrix(1 0 0 1 299 84.5688)" font-family="'MyriadPro-Regular'" font-size="18">3</text>
<text transform="matrix(1 0 0 1 400 84.5688)" font-family="'MyriadPro-Regular'" font-size="18">4</text>
<text transform="matrix(1 0 0 1 500 84.5688)" font-family="'MyriadPro-Regular'" font-size="18">5</text>
<text transform="matrix(1 0 0 1 601 84.5688)" font-family="'MyriadPro-Regular'" font-size="18">6</text>
<text transform="matrix(1 0 0 1 699 84.5688)" font-family="'MyriadPro-Regular'" font-size="18">7</text>
<text transform="matrix(1 0 0 1 316 119.5688)" font-family="'HelveticaNeueLight'" font-size="36">Seconds</text>
<text transform="matrix(1 0 0 1 0 84.5688)" font-family="'MyriadPro-Regular'" font-size="18">0</text>
</svg>
