<?xml version="1.0" encoding="utf-8"?>
<!-- Generator: Adobe Illustrator 16.0.3, SVG Export Plug-In . SVG Version: 6.00 Build 0)  -->
<!DOCTYPE svg PUBLIC "-//W3C//DTD SVG 1.1//EN" "http://www.w3.org/Graphics/SVG/1.1/DTD/svg11.dtd">
<svg version="1.1" id="Layer_1" xmlns="http://www.w3.org/2000/svg" xmlns:xlink="http://www.w3.org/1999/xlink" x="0px" y="0px"
	 width="767.824px" height="138.799px" viewBox="0 0 767.824 138.799" enable-background="new 0 0 767.824 138.799"
	 xml:space="preserve">
<line fill-rule="evenodd" clip-rule="evenodd" fill="#006837" stroke="#000000" stroke-width="2" stroke-miterlimit="10" x1="5" y1="68.203" x2="759" y2="68.203"/>
<line fill-rule="evenodd" clip-rule="evenodd" fill="#006837" stroke="#000000" stroke-width="2" stroke-miterlimit="10" x1="5" y1="60.203" x2="5" y2="73.203"/>
<line fill-rule="evenodd" clip-rule="evenodd" fill="#006837" stroke="#000000" stroke-width="2" stroke-miterlimit="10" x1="759" y1="60.203" x2="759" y2="73.203"/>
<line fill-rule="evenodd" clip-rule="evenodd" fill="#006837" stroke="#000000" stroke-width="2" stroke-miterlimit="10" x1="105" y1="61.203" x2="105" y2="74.203"/>
<line fill-rule="evenodd" clip-rule="evenodd" fill="#006837" stroke="#000000" stroke-width="2" stroke-miterlimit="10" x1="205" y1="61.203" x2="205" y2="74.203"/>
<line fill-rule="evenodd" clip-rule="evenodd" fill="#006837" stroke="#000000" stroke-width="2" stroke-miterlimit="10" x1="305" y1="60.203" x2="305" y2="73.203"/>
<line fill-rule="evenodd" clip-rule="evenodd" fill="#006837" stroke="#000000" stroke-width="2" stroke-miterlimit="10" x1="405" y1="60.203" x2="405" y2="73.203"/>
<line fill-rule="evenodd" clip-rule="evenodd" fill="#006837" stroke="#000000" stroke-width="2" stroke-miterlimit="10" x1="505" y1="61.203" x2="505" y2="74.203"/>
<line fill-rule="evenodd" clip-rule="evenodd" fill="#006837" stroke="#000000" stroke-width="2" stroke-miterlimit="10" x1="606" y1="61.203" x2="606" y2="74.203"/>
<line fill-rule="evenodd" clip-rule="evenodd" fill="#006837" stroke="#000000" stroke-width="2" stroke-miterlimit="10" x1="705" y1="61.203" x2="705" y2="74.203"/>
<text transform="matrix(1 0 0 1 100 93.2031)" font-family="'MyriadPro-Regular'" font-size="18">1</text>
<text transform="matrix(1 0 0 1 200 93.2031)" font-family="'MyriadPro-Regular'" font-size="18">2</text>
<text transform="matrix(1 0 0 1 299 93.2031)" font-family="'MyriadPro-Regular'" font-size="18">3</text>
<text transform="matrix(1 0 0 1 400 93.2031)" font-family="'MyriadPro-Regular'" font-size="18">4</text>
<text transform="matrix(1 0 0 1 500 93.2031)" font-family="'MyriadPro-Regular'" font-size="18">5</text>
<text transform="matrix(1 0 0 1 601 93.2031)" font-family="'MyriadPro-Regular'" font-size="18">6</text>
<text transform="matrix(1 0 0 1 699 93.2031)" font-family="'MyriadPro-Regular'" font-size="18">7</text>
<text transform="matrix(1 0 0 1 320 131.2031)" font-family="'HelveticaNeueLight'" font-size="36">Seconds</text>
<text transform="matrix(1 0 0 1 0 93.2031)" font-family="'MyriadPro-Regular'" font-size="18">0</text>
<g>
	<path fill-rule="evenodd" clip-rule="evenodd" fill="#006837" d="M502.677,0.224c-0.578,0.02-1.155,0.039-1.733,0.059
		c-0.457,5.031-0.913,10.063-1.37,15.096c-0.35-0.026-0.7-0.054-1.051-0.08c-0.569-5.028-1.14-10.059-1.708-15.087
		c-0.566,0.023-1.132,0.047-1.698,0.07c-0.394,5.024-0.788,10.049-1.182,15.074c-0.395-0.003-0.788-0.006-1.183-0.01
		c-0.365-5.033-0.731-10.065-1.097-15.098c-0.579,0.032-1.157,0.064-1.735,0.098c-0.451,4.998-0.902,9.996-1.354,14.995
		c-0.36-0.045-0.721-0.09-1.081-0.135c-0.542-4.999-1.084-9.999-1.626-14.997c-0.596,0.038-1.19,0.076-1.786,0.114
		c-0.369,4.986-0.738,9.974-1.107,14.96c-0.387-0.015-0.772-0.029-1.159-0.043c-0.417-4.975-0.836-9.947-1.255-14.92
		c-0.567,0.044-1.135,0.088-1.703,0.133c-0.403,4.953-0.808,9.908-1.211,14.862c-0.368-0.01-0.736-0.02-1.104-0.03
		c-0.561-5.029-1.122-10.058-1.683-15.086c-0.56-0.001-1.12-0.001-1.682-0.002c-0.415,5.051-0.831,10.102-1.247,15.153
		c-0.373,0.008-0.747,0.015-1.12,0.022c-0.383-5.039-0.767-10.078-1.149-15.116c-0.567,0.011-1.135,0.021-1.703,0.032
		c-0.452,5.026-0.904,10.055-1.357,15.081c-0.358-0.023-0.717-0.047-1.075-0.07c-0.556-5.032-1.111-10.063-1.666-15.094
		c-0.574,0.021-1.148,0.042-1.723,0.063c-0.397,5.034-0.796,10.068-1.194,15.104c-0.396,0-0.791,0-1.187,0.001
		c-0.355-5.048-0.71-10.097-1.065-15.145c-0.581,0.03-1.162,0.06-1.743,0.089c-0.461,5.013-0.921,10.027-1.382,15.04
		c-0.353-0.036-0.706-0.072-1.06-0.109c-0.545-5.015-1.09-10.031-1.635-15.047c-0.588,0.04-1.177,0.08-1.765,0.12
		c-0.358,4.823-0.717,9.646-1.076,14.472c-0.183,0.008-0.366,0.017-0.55,0.024c-0.535-4.875-1.07-9.751-1.605-14.626
		c-0.564,0.015-1.129,0.03-1.693,0.045c-0.42,5.049-0.839,10.097-1.259,15.146c-0.381,0.006-0.762,0.011-1.142,0.017
		c-0.36-5.063-0.721-10.127-1.082-15.189c-0.578,0.021-1.157,0.043-1.736,0.064c-0.462,5.036-0.924,10.073-1.386,15.11
		c-0.345-0.027-0.69-0.054-1.036-0.081c-0.573-5.03-1.146-10.062-1.719-15.092c-0.563,0.018-1.124,0.034-1.687,0.051
		c-0.396,5.027-0.791,10.056-1.188,15.082c-0.389-0.004-0.778-0.009-1.168-0.013c-0.374-5.025-0.748-10.053-1.122-15.078
		c-0.577,0.035-1.153,0.07-1.73,0.105c-0.447,4.989-0.895,9.98-1.341,14.97c-0.362-0.049-0.725-0.099-1.086-0.147
		c-0.544-4.99-1.089-9.98-1.633-14.971c-0.597,0.039-1.192,0.079-1.789,0.118c-0.362,4.981-0.725,9.962-1.088,14.944
		c-0.388-0.017-0.776-0.033-1.165-0.05c-0.423-4.966-0.847-9.933-1.271-14.898c-0.563,0.048-1.127,0.095-1.69,0.142
		c-0.405,4.952-0.81,9.904-1.215,14.857c-0.367-0.012-0.735-0.024-1.103-0.036c-0.562-5.03-1.123-10.06-1.686-15.09
		c-0.562,0.007-1.122,0.014-1.684,0.02c-0.414,5.047-0.827,10.095-1.242,15.142c-0.377,0.008-0.754,0.016-1.132,0.023
		c-0.375-5.047-0.75-10.095-1.125-15.143c-0.571,0.012-1.142,0.023-1.712,0.035c-0.455,5.032-0.91,10.064-1.365,15.098
		c-0.354-0.024-0.709-0.048-1.063-0.072c-0.563-5.031-1.125-10.062-1.688-15.092c-0.571,0.021-1.142,0.044-1.713,0.066
		c-0.395,5.029-0.79,10.059-1.185,15.089c-0.396-0.003-0.792-0.005-1.188-0.007c-0.359-5.035-0.719-10.071-1.077-15.106
		c-0.58,0.026-1.16,0.053-1.74,0.08c-0.456,5.007-0.912,10.015-1.368,15.022c-0.357-0.043-0.715-0.087-1.072-0.131
		c-0.542-5.004-1.083-10.01-1.625-15.014c-0.591,0.036-1.181,0.072-1.771,0.109c-0.379,4.991-0.758,9.982-1.137,14.974
		c-0.383-0.017-0.767-0.033-1.15-0.05c-0.413-4.973-0.826-9.944-1.239-14.916c-0.568,0.032-1.136,0.065-1.704,0.098
		c-0.422,4.945-0.844,9.891-1.266,14.837c-0.379-0.058-0.758-0.115-1.136-0.174c-0.526-4.958-1.053-9.916-1.579-14.874
		c-0.564-0.003-1.129-0.006-1.693-0.008c-0.424,5.042-0.848,10.084-1.271,15.127c-0.368,0.011-0.735,0.021-1.103,0.032
		c-0.389-5.032-0.777-10.063-1.166-15.095c-0.566,0.003-1.132,0.005-1.697,0.008c-0.453,5.028-0.907,10.057-1.36,15.085
		c-0.358-0.021-0.716-0.043-1.075-0.064c-0.555-5.03-1.111-10.062-1.668-15.093c-0.568,0.01-1.139,0.02-1.709,0.029
		c-0.403,5.051-0.807,10.102-1.211,15.152c-0.393,0-0.785,0-1.178,0.001c-0.354-5.054-0.707-10.105-1.06-15.157
		c-0.583,0.025-1.164,0.05-1.747,0.075c-0.463,5.02-0.926,10.04-1.39,15.061c-0.351-0.035-0.7-0.07-1.051-0.104
		c-0.55-5.018-1.099-10.036-1.647-15.054c-0.574,0.027-1.147,0.056-1.721,0.084c-0.399,5.006-0.799,10.013-1.197,15.021
		c-0.379-0.01-0.757-0.02-1.136-0.029c-0.401-4.998-0.802-9.997-1.202-14.996c-0.571,0.037-1.143,0.073-1.713,0.11
		c-0.436,4.96-0.871,9.921-1.306,14.882c-0.36-0.054-0.722-0.107-1.082-0.161c-0.564-4.97-1.128-9.939-1.692-14.909
		c-0.58,0.045-1.159,0.089-1.739,0.134c-0.362,4.987-0.724,9.976-1.085,14.964c-0.38,0.014-0.76,0.026-1.14,0.039
		c-0.397-5.018-0.795-10.033-1.192-15.05c-0.572-0.006-1.144-0.012-1.715-0.018c-0.445,5.026-0.891,10.054-1.336,15.081
		c-0.355-0.022-0.711-0.044-1.066-0.066c-0.564-5.031-1.127-10.062-1.691-15.092c-0.559,0.016-1.117,0.032-1.676,0.049
		c-0.416,5.048-0.831,10.098-1.247,15.146c-0.384,0.004-0.769,0.008-1.153,0.012c-0.355-5.067-0.711-10.137-1.066-15.205
		c-0.581,0.023-1.163,0.048-1.744,0.071c-0.465,5.039-0.93,10.08-1.396,15.119c-0.345-0.031-0.689-0.063-1.034-0.094
		c-0.566-5.029-1.132-10.059-1.698-15.088c-0.563,0.028-1.126,0.057-1.69,0.085c-0.401,5.012-0.801,10.024-1.202,15.037
		c-0.383-0.008-0.766-0.016-1.149-0.024c-0.384-5.012-0.767-10.022-1.15-15.033c-0.576,0.033-1.151,0.066-1.727,0.1
		c-0.443,4.979-0.887,9.959-1.33,14.938c-0.361-0.052-0.723-0.104-1.084-0.155c-0.549-4.982-1.099-9.965-1.648-14.947
		c-0.591,0.042-1.182,0.084-1.772,0.126c-0.363,4.976-0.727,9.952-1.089,14.929c-0.387-0.02-0.774-0.04-1.162-0.06
		c-0.428-4.958-0.856-9.914-1.284-14.87c-0.556,0.049-1.111,0.098-1.667,0.146c-0.215,2.426-0.453,4.85-0.638,7.277
		c-0.191,2.513-0.333,5.03-0.496,7.546c-0.401-0.005-0.802-0.01-1.203-0.015c-0.56-5.03-1.121-10.062-1.681-15.092
		c-0.559,0.009-1.118,0.019-1.676,0.027c-0.419,5.05-0.839,10.101-1.26,15.15c-0.378,0.006-0.756,0.012-1.134,0.017
		c-0.366-5.057-0.732-10.114-1.098-15.171c-0.576,0.02-1.151,0.038-1.727,0.057c-0.459,5.034-0.918,10.067-1.377,15.102
		c-0.349-0.027-0.698-0.055-1.046-0.082c-0.57-5.028-1.142-10.059-1.712-15.087c-0.564,0.016-1.129,0.03-1.693,0.046
		c-0.395,5.032-0.789,10.063-1.184,15.097c-0.393-0.004-0.787-0.008-1.18-0.012c-0.367-5.029-0.735-10.06-1.102-15.089
		c-0.578,0.032-1.156,0.063-1.734,0.096c-0.45,4.996-0.901,9.993-1.351,14.99c-0.361-0.047-0.722-0.093-1.083-0.14
		c-0.542-4.996-1.084-9.994-1.626-14.99c-0.596,0.038-1.192,0.077-1.789,0.115c-0.367,4.985-0.734,9.971-1.101,14.957
		c-0.387-0.016-0.774-0.031-1.161-0.047c-0.419-4.971-0.839-9.942-1.259-14.913c-0.567,0.045-1.134,0.09-1.7,0.135
		c-0.404,4.953-0.808,9.907-1.212,14.861c-0.368-0.011-0.735-0.021-1.103-0.031c-0.562-5.028-1.124-10.059-1.685-15.087
		c-0.561,0-1.122-0.001-1.683-0.001c-0.415,5.052-0.829,10.104-1.244,15.155c-0.375,0.008-0.749,0.015-1.123,0.021
		c-0.382-5.041-0.763-10.081-1.145-15.122c-0.568,0.012-1.136,0.023-1.705,0.035c-0.453,5.027-0.906,10.056-1.359,15.083
		c-0.358-0.024-0.716-0.048-1.074-0.071c-0.556-5.032-1.113-10.063-1.669-15.094c-0.573,0.021-1.147,0.043-1.721,0.064
		c-0.397,5.033-0.795,10.067-1.192,15.101c-0.396-0.001-0.792-0.002-1.188-0.002c-0.355-5.043-0.71-10.085-1.066-15.126
		c-0.581,0.024-1.162,0.05-1.743,0.074c-0.459,5.015-0.919,10.028-1.379,15.044c-0.354-0.04-0.708-0.079-1.063-0.119
		c-0.544-5.012-1.088-10.022-1.632-15.034c-0.583,0.03-1.167,0.061-1.75,0.091c-0.388,5-0.775,10.002-1.163,15.002
		c-0.381-0.012-0.762-0.023-1.144-0.035c-0.409-4.988-0.817-9.977-1.227-14.965c-0.566,0.041-1.133,0.081-1.7,0.122
		c-0.226,2.583-0.457,5.166-0.675,7.75c-0.198,2.351-0.38,4.702-0.57,7.054c-0.39-0.041-0.78-0.081-1.17-0.122
		c-0.526-4.964-1.051-9.93-1.577-14.894c-0.563-0.004-1.125-0.007-1.688-0.011c-0.427,5.04-0.854,10.079-1.281,15.12
		c-0.363,0.016-0.727,0.032-1.09,0.048c-0.394-5.032-0.787-10.066-1.18-15.099c-0.566,0.009-1.133,0.018-1.7,0.027
		c-0.453,5.021-0.905,10.043-1.358,15.064c-0.354-0.021-0.708-0.044-1.062-0.065c-0.564-5.03-1.129-10.061-1.693-15.091
		c-0.562,0.009-1.123,0.017-1.685,0.025c-0.409,5.055-0.817,10.109-1.226,15.164c-0.394,0.001-0.788,0.002-1.182,0.002
		c-0.343-5.061-0.686-10.123-1.028-15.184c-0.588,0.026-1.177,0.054-1.765,0.081c-0.465,5.026-0.929,10.054-1.394,15.08
		c-0.348-0.032-0.695-0.064-1.043-0.098c-0.555-5.022-1.11-10.045-1.666-15.067c-0.568,0.031-1.136,0.063-1.705,0.095
		c-0.403,5.005-0.805,10.011-1.208,15.017c-0.378-0.008-0.757-0.017-1.136-0.024c-0.394-5.007-0.789-10.012-1.183-15.018
		c-0.573,0.037-1.146,0.074-1.718,0.111c-0.439,4.969-0.879,9.937-1.318,14.905c-0.36-0.054-0.721-0.106-1.082-0.16
		c-0.557-4.977-1.114-9.951-1.671-14.926c-0.585,0.045-1.171,0.09-1.757,0.135c-0.36,4.983-0.721,9.967-1.082,14.95
		c-0.378,0.02-0.755,0.039-1.133,0.059c-0.401-5.019-0.802-10.037-1.203-15.056c-0.575,0.003-1.15,0.005-1.725,0.008
		c-0.439,5.013-0.879,10.025-1.319,15.04c-0.357-0.018-0.715-0.035-1.073-0.053C196,10.26,195.439,5.228,194.878,0.196
		c-0.558,0.008-1.116,0.016-1.674,0.022c-0.419,5.058-0.839,10.115-1.258,15.174c-0.382,0.003-0.763,0.006-1.145,0.009
		c-0.359-5.065-0.717-10.131-1.076-15.196c-0.58,0.021-1.159,0.043-1.739,0.064c-0.463,5.039-0.926,10.078-1.39,15.118
		c-0.345-0.027-0.689-0.056-1.034-0.083c-0.572-5.031-1.145-10.062-1.717-15.092c-0.562,0.025-1.124,0.052-1.686,0.077
		c-0.396,5.017-0.793,10.034-1.19,15.051c-0.387-0.005-0.775-0.01-1.162-0.015c-0.376-5.021-0.753-10.043-1.13-15.063
		c-0.577,0.034-1.153,0.067-1.729,0.102c-0.446,4.986-0.892,9.974-1.337,14.96c-0.362-0.05-0.725-0.1-1.086-0.149
		c-0.546-4.987-1.091-9.977-1.637-14.965c-0.595,0.041-1.19,0.081-1.785,0.121c-0.362,4.979-0.725,9.96-1.087,14.938
		c-0.388-0.017-0.776-0.033-1.165-0.05c-0.425-4.962-0.849-9.925-1.274-14.886c-0.563,0.046-1.126,0.092-1.689,0.138
		c-0.405,4.952-0.81,9.903-1.214,14.855c-0.368-0.013-0.735-0.025-1.104-0.038c-0.562-5.031-1.123-10.061-1.685-15.091
		c-0.56,0.002-1.121,0.005-1.68,0.007c-0.416,5.055-0.833,10.109-1.249,15.164c-0.377,0.006-0.755,0.012-1.133,0.017
		c-0.373-5.05-0.745-10.101-1.117-15.15c-0.572,0.016-1.145,0.031-1.717,0.048c-0.456,5.03-0.912,10.063-1.368,15.093
		c-0.353-0.024-0.705-0.05-1.058-0.074C152,10.27,151.434,5.239,150.868,0.209c-0.569,0.023-1.138,0.046-1.707,0.069
		c-0.394,5.027-0.789,10.056-1.183,15.082c-0.396-0.003-0.792-0.006-1.187-0.009c-0.361-5.033-0.723-10.064-1.084-15.097
		c-0.58,0.027-1.159,0.055-1.738,0.082c-0.454,5.003-0.908,10.007-1.362,15.01c-0.359-0.043-0.717-0.086-1.076-0.129
		c-0.542-5.003-1.083-10.007-1.625-15.01c-0.592,0.037-1.184,0.074-1.776,0.112c-0.375,4.989-0.751,9.979-1.126,14.969
		c-0.385-0.018-0.77-0.034-1.154-0.052c-0.415-4.97-0.83-9.938-1.245-14.907c-0.559,0.035-1.117,0.07-1.675,0.105
		c-0.221,2.42-0.469,4.84-0.655,7.264c-0.194,2.525-0.328,5.054-0.488,7.582c-0.404,0.001-0.808,0.002-1.212,0.003
		c-0.556-5.028-1.111-10.059-1.667-15.088c-0.56,0-1.12-0.001-1.68-0.002c-0.422,5.05-0.843,10.099-1.265,15.148
		c-0.369,0.008-0.738,0.017-1.107,0.024c-0.387-5.033-0.774-10.068-1.161-15.103c-0.566,0.009-1.133,0.019-1.7,0.027
		c-0.452,5.024-0.905,10.05-1.358,15.076c-0.359-0.023-0.718-0.046-1.077-0.069c-0.555-5.031-1.109-10.063-1.663-15.094
		c-0.573,0.021-1.146,0.041-1.719,0.061c-0.401,5.037-0.801,10.074-1.202,15.112c-0.395,0.001-0.788,0.002-1.183,0.003
		c-0.354-5.053-0.707-10.104-1.061-15.157c-0.582,0.029-1.164,0.058-1.746,0.087c-0.462,5.018-0.924,10.035-1.387,15.053
		c-0.351-0.036-0.703-0.072-1.054-0.108c-0.547-5.017-1.095-10.032-1.642-15.047c-0.577,0.033-1.154,0.067-1.73,0.102
		c-0.396,5-0.792,9.999-1.187,14.999c-0.379-0.014-0.759-0.027-1.138-0.041c-0.402-4.986-0.805-9.973-1.208-14.958
		c-0.571,0.032-1.142,0.065-1.712,0.098c-0.434,4.958-0.867,9.915-1.299,14.873c-0.361-0.055-0.721-0.11-1.082-0.165
		c-0.567-4.971-1.135-9.942-1.703-14.913c-0.576,0.047-1.152,0.095-1.729,0.143c-0.363,4.989-0.727,9.978-1.09,14.967
		c-0.38,0.017-0.76,0.033-1.141,0.05C91.487,10.334,91.09,5.307,90.694,0.28c-0.571,0.006-1.141,0.013-1.712,0.02
		c-0.447,5.019-0.894,10.036-1.341,15.056c-0.354-0.021-0.709-0.041-1.063-0.062c-0.565-5.03-1.13-10.062-1.695-15.092
		c-0.559,0.008-1.117,0.016-1.675,0.024c-0.415,5.059-0.829,10.117-1.244,15.177c-0.388,0.001-0.775,0.003-1.163,0.004
		c-0.349-5.067-0.698-10.135-1.047-15.202c-0.585,0.025-1.17,0.051-1.756,0.076c-0.465,5.034-0.93,10.068-1.396,15.104
		c-0.346-0.031-0.691-0.063-1.036-0.094c-0.563-5.028-1.125-10.055-1.688-15.082c-0.564,0.029-1.129,0.059-1.693,0.088
		c-0.402,5.011-0.804,10.021-1.206,15.031c-0.381-0.009-0.763-0.018-1.144-0.026c-0.387-5.008-0.773-10.015-1.16-15.021
		c-0.575,0.031-1.149,0.063-1.724,0.096c-0.442,4.975-0.884,9.949-1.327,14.925c-0.361-0.051-0.723-0.101-1.084-0.151
		c-0.551-4.98-1.103-9.96-1.654-14.94c-0.589,0.043-1.178,0.086-1.767,0.129c-0.364,4.975-0.728,9.95-1.092,14.926
		c-0.386-0.021-0.772-0.043-1.159-0.064c-0.43-4.954-0.859-9.908-1.289-14.861c-0.56,0.05-1.12,0.1-1.679,0.149
		c-0.403,4.949-0.806,9.898-1.209,14.85c-0.371-0.017-0.742-0.032-1.113-0.048c-0.56-5.03-1.12-10.062-1.68-15.092
		c-0.558,0.005-1.116,0.011-1.674,0.016c-0.421,5.056-0.842,10.112-1.263,15.169c-0.378,0.005-0.757,0.009-1.136,0.013
		c-0.363-5.06-0.727-10.119-1.09-15.179c-0.578,0.021-1.155,0.04-1.732,0.061c-0.46,5.034-0.92,10.068-1.38,15.104
		c-0.347-0.028-0.694-0.056-1.042-0.084C42.01,10.27,41.438,5.24,40.866,0.212c-0.564,0.024-1.128,0.049-1.692,0.073
		c-0.395,5.021-0.789,10.043-1.183,15.064c-0.392-0.004-0.783-0.007-1.175-0.011c-0.37-5.03-0.741-10.06-1.111-15.088
		c-0.577,0.033-1.154,0.066-1.732,0.1c-0.449,4.994-0.897,9.987-1.346,14.982c-0.362-0.047-0.724-0.094-1.085-0.141
		c-0.543-4.995-1.086-9.989-1.629-14.982c-0.596,0.038-1.193,0.077-1.79,0.116c-0.365,4.983-0.729,9.967-1.094,14.951
		c-0.388-0.015-0.775-0.029-1.163-0.045c-0.421-4.971-0.842-9.94-1.264-14.91c-0.565,0.046-1.131,0.092-1.697,0.139
		c-0.404,4.952-0.809,9.906-1.213,14.859c-0.367-0.012-0.734-0.022-1.102-0.033c-0.562-5.029-1.125-10.059-1.687-15.088
		C18.343,0.2,17.783,0.2,17.222,0.2c-0.414,5.053-0.828,10.104-1.242,15.158c-0.376,0.007-0.752,0.014-1.128,0.021
		c-0.379-5.045-0.758-10.088-1.136-15.131c-0.589,0.013-1.179,0.025-1.768,0.038C11.546,5.144,11.144,10,10.741,14.858
		C10.36,14.844,9.98,14.83,9.6,14.815C9.348,10.078,9.097,5.34,8.846,0.602C8.264,0.64,7.682,0.677,7.1,0.715
		C4.002,14.629,4.711,28.565,6.784,42.51c0.558,0.033,1.115,0.064,1.673,0.098c0.274-5.068,0.548-10.137,0.822-15.204
		c0.464-0.004,0.929-0.007,1.393-0.011c0.279,5.453,0.559,10.907,0.838,16.361c0.669-0.016,1.338-0.031,2.007-0.046
		c0.421-5.411,0.841-10.821,1.262-16.232c0.401,0.013,0.802,0.025,1.203,0.038c0.42,5.162,0.84,10.325,1.26,15.487
		c0.586-0.025,1.171-0.051,1.757-0.077c0.395-5.254,0.79-10.508,1.185-15.762c0.484,0,0.969-0.002,1.453-0.004
		c0.288,5.547,0.577,11.094,0.866,16.641c0.656,0.015,1.313,0.029,1.969,0.044c0.442-5.426,0.884-10.853,1.325-16.278
		c0.402,0.033,0.804,0.065,1.206,0.099c0.397,5.104,0.794,10.208,1.191,15.312c0.578,0.008,1.155,0.016,1.732,0.023
		c0.433-5.258,0.865-10.516,1.297-15.773c0.483,0.021,0.967,0.041,1.45,0.063c0.278,5.488,0.557,10.978,0.834,16.466
		c0.671-0.019,1.342-0.036,2.013-0.055c0.418-5.411,0.836-10.823,1.254-16.234c0.4,0.015,0.801,0.03,1.202,0.046
		c0.397,5.133,0.794,10.264,1.192,15.396c0.577,0.029,1.154,0.06,1.731,0.089c0.437-5.279,0.874-10.559,1.312-15.838
		c0.471,0.002,0.942,0.006,1.413,0.01c0.294,5.547,0.589,11.095,0.883,16.643c0.657,0.013,1.314,0.025,1.972,0.038
		c0.437-5.423,0.875-10.845,1.312-16.268c0.402,0.032,0.805,0.065,1.207,0.099c0.399,5.102,0.798,10.204,1.196,15.307
		c0.603-0.006,1.206-0.011,1.808-0.016c0.19-2.646,0.364-5.293,0.575-7.938c0.208-2.602,0.452-5.202,0.681-7.803
		c0.468,0.021,0.937,0.045,1.405,0.066c0.285,5.48,0.569,10.961,0.854,16.44c0.668-0.016,1.335-0.031,2.003-0.047
		c0.417-5.412,0.834-10.825,1.251-16.237c0.401,0.017,0.802,0.033,1.203,0.05c0.398,5.14,0.796,10.277,1.194,15.416
		c0.569,0.026,1.138,0.053,1.708,0.079c0.449-5.278,0.897-10.557,1.345-15.836c0.464,0.006,0.927,0.01,1.391,0.014
		c0.3,5.543,0.601,11.088,0.901,16.632c0.655,0.009,1.31,0.018,1.964,0.027c0.435-5.413,0.87-10.827,1.305-16.24
		c0.404,0.035,0.808,0.069,1.211,0.104c0.403,5.097,0.806,10.194,1.208,15.291c0.579,0.003,1.158,0.007,1.737,0.011
		c0.423-5.254,0.847-10.508,1.271-15.762c0.479,0.023,0.959,0.047,1.438,0.07c0.295,5.477,0.591,10.954,0.887,16.431
		c0.661-0.021,1.322-0.04,1.982-0.061c0.417-5.412,0.834-10.825,1.251-16.236c0.401,0.019,0.803,0.038,1.204,0.058
		c0.398,5.139,0.795,10.279,1.193,15.418c0.589,0.018,1.179,0.035,1.769,0.054c0.21-2.573,0.424-5.146,0.628-7.719
		c0.213-2.692,0.416-5.385,0.623-8.077c0.472,0.004,0.944,0.006,1.416,0.01c0.308,5.539,0.615,11.077,0.923,16.616
		c0.649,0.005,1.298,0.011,1.948,0.016c0.436-5.401,0.872-10.804,1.309-16.207c0.402,0.035,0.805,0.07,1.208,0.104
		c0.407,5.096,0.814,10.189,1.222,15.284c0.578,0,1.155,0,1.733,0c0.421-5.251,0.842-10.503,1.263-15.755
		c0.476,0.025,0.952,0.049,1.427,0.074c0.307,5.471,0.614,10.942,0.921,16.414c0.653-0.017,1.305-0.032,1.958-0.048
		c0.418-5.414,0.836-10.829,1.253-16.242c0.402,0.021,0.804,0.041,1.206,0.062c0.396,5.141,0.793,10.28,1.189,15.42
		c0.59,0.033,1.18,0.066,1.77,0.1c0.21-2.598,0.423-5.192,0.629-7.79c0.213-2.685,0.419-5.368,0.628-8.052
		c0.467,0.004,0.935,0.01,1.402,0.014c0.316,5.533,0.631,11.066,0.947,16.599c0.644,0.004,1.287,0.009,1.931,0.013
		c0.437-5.395,0.873-10.791,1.309-16.186c0.402,0.035,0.804,0.07,1.207,0.105c0.411,5.1,0.821,10.199,1.232,15.298
		c0.579-0.009,1.157-0.018,1.736-0.026c0.415-5.249,0.831-10.5,1.247-15.748c0.473,0.027,0.946,0.053,1.419,0.08
		c0.318,5.465,0.637,10.928,0.956,16.392c0.646-0.023,1.292-0.047,1.938-0.069c0.417-5.398,0.834-10.797,1.252-16.196
		c0.402,0.021,0.805,0.044,1.207,0.065c0.395,5.137,0.791,10.272,1.186,15.408c0.566,0.023,1.132,0.046,1.699,0.069
		c0.462-5.274,0.924-10.548,1.386-15.821c0.446,0.01,0.893,0.02,1.339,0.029c0.323,5.527,0.646,11.054,0.968,16.581
		c0.629-0.001,1.259-0.002,1.888-0.003c0.457-5.408,0.913-10.818,1.369-16.227c0.382-0.003,0.763-0.005,1.145-0.007
		c0.425,5.165,0.851,10.331,1.276,15.496c0.575-0.01,1.151-0.02,1.726-0.029c0.415-5.262,0.83-10.522,1.244-15.784
		c0.485,0.037,0.97,0.074,1.454,0.113c0.272,5.457,0.544,10.914,0.816,16.371c0.643,0.028,1.286,0.056,1.928,0.084
		c0.481-5.446,0.963-10.893,1.445-16.339c0.376,0.023,0.753,0.048,1.13,0.072c0.396,5.138,0.792,10.275,1.188,15.412
		c0.569,0.015,1.138,0.028,1.707,0.042c0.458-5.268,0.917-10.537,1.376-15.805c0.445,0.01,0.889,0.021,1.334,0.033
		c0.326,5.521,0.651,11.042,0.977,16.563c0.631-0.002,1.262-0.005,1.893-0.008c0.451-5.409,0.903-10.819,1.354-16.229
		c0.381,0,0.762,0,1.142,0c0.434,5.171,0.867,10.341,1.299,15.511c0.57-0.01,1.14-0.019,1.71-0.028
		c0.416-5.266,0.832-10.532,1.249-15.798c0.484,0.043,0.968,0.084,1.453,0.125c0.271,5.457,0.541,10.915,0.812,16.372
		c0.645,0.027,1.29,0.055,1.936,0.081c0.476-5.443,0.951-10.887,1.427-16.331c0.38,0.025,0.761,0.051,1.142,0.076
		c0.398,5.134,0.796,10.268,1.194,15.401c0.57,0.01,1.14,0.021,1.71,0.03c0.455-5.265,0.909-10.53,1.364-15.794
		c0.447,0.012,0.893,0.025,1.339,0.037c0.323,5.516,0.645,11.033,0.968,16.55c0.635,0.003,1.27,0.007,1.905,0.011
		c0.447-5.421,0.895-10.842,1.341-16.265c0.383,0.004,0.765,0.008,1.147,0.012c0.434,5.169,0.868,10.339,1.302,15.509
		c0.568-0.008,1.137-0.015,1.705-0.022c0.419-5.263,0.838-10.526,1.258-15.788c0.484,0.043,0.967,0.088,1.451,0.131
		c0.271,5.457,0.541,10.915,0.811,16.371c0.646,0.026,1.292,0.053,1.938,0.078c0.47-5.44,0.94-10.881,1.411-16.323
		c0.385,0.027,0.771,0.054,1.157,0.08c0.398,5.13,0.796,10.259,1.194,15.388c0.572,0.008,1.144,0.015,1.716,0.022
		c0.45-5.261,0.901-10.522,1.351-15.782c0.452,0.01,0.904,0.02,1.355,0.029c0.314,5.52,0.629,11.04,0.944,16.56
		c0.642-0.013,1.283-0.024,1.925-0.037c0.44-5.407,0.881-10.815,1.321-16.224c0.387,0.001,0.774,0.003,1.161,0.004
		c0.43,5.174,0.859,10.347,1.29,15.521c0.568-0.022,1.136-0.045,1.704-0.068c0.411-5.268,0.822-10.534,1.232-15.802
		c0.491-0.004,0.982-0.008,1.474-0.012c0.265,5.529,0.531,11.06,0.796,16.59c0.658,0.02,1.314,0.04,1.972,0.061
		c0.465-5.438,0.929-10.877,1.394-16.314c0.391,0.028,0.781,0.056,1.172,0.084c0.398,5.123,0.795,10.247,1.192,15.37
		c0.573,0.007,1.147,0.015,1.72,0.021c0.447-5.259,0.894-10.519,1.341-15.776c0.459,0.014,0.918,0.027,1.378,0.041
		c0.304,5.51,0.608,11.02,0.913,16.529c0.648-0.012,1.297-0.023,1.945-0.035c0.435-5.407,0.87-10.816,1.305-16.224
		c0.392,0.003,0.784,0.006,1.176,0.009c0.424,5.174,0.848,10.346,1.272,15.519c0.575-0.024,1.15-0.049,1.726-0.073
		c0.408-5.267,0.815-10.533,1.224-15.801c0.489-0.002,0.979-0.004,1.469-0.006c0.269,5.535,0.538,11.07,0.807,16.604
		c0.658,0.02,1.316,0.038,1.975,0.058c0.458-5.436,0.916-10.871,1.374-16.307c0.395,0.031,0.789,0.062,1.184,0.092
		c0.397,5.115,0.795,10.231,1.193,15.347c0.573,0.009,1.147,0.018,1.721,0.026c0.443-5.258,0.887-10.516,1.331-15.773
		c0.468,0.014,0.937,0.029,1.404,0.045c0.293,5.506,0.587,11.011,0.88,16.517c0.655-0.014,1.31-0.028,1.965-0.043
		c0.43-5.407,0.86-10.815,1.29-16.225c0.396,0.005,0.793,0.011,1.189,0.016c0.421,5.173,0.842,10.345,1.262,15.517
		c0.581-0.026,1.16-0.053,1.74-0.079c0.404-5.267,0.808-10.534,1.211-15.8c0.488-0.008,0.976-0.014,1.464-0.021
		c0.274,5.549,0.549,11.097,0.824,16.646c0.658,0.017,1.316,0.033,1.974,0.05c0.453-5.433,0.905-10.865,1.356-16.298
		c0.397,0.031,0.794,0.063,1.191,0.095c0.398,5.111,0.797,10.225,1.196,15.337c0.573,0.009,1.146,0.019,1.718,0.027
		c0.441-5.259,0.883-10.519,1.324-15.778c0.476,0.018,0.952,0.033,1.428,0.051c0.284,5.5,0.568,11.002,0.852,16.503
		c0.662-0.016,1.324-0.032,1.986-0.048c0.425-5.409,0.851-10.818,1.276-16.229c0.399,0.009,0.798,0.017,1.198,0.025
		c0.419,5.17,0.839,10.339,1.259,15.508c0.583-0.027,1.167-0.055,1.751-0.082c0.399-5.263,0.798-10.527,1.198-15.789
		c0.486-0.002,0.973-0.002,1.459-0.002c0.282,5.545,0.563,11.091,0.844,16.637c0.657,0.017,1.314,0.032,1.971,0.049
		c0.447-5.43,0.894-10.859,1.341-16.289c0.399,0.032,0.798,0.064,1.197,0.097c0.399,5.108,0.798,10.218,1.196,15.327
		c0.599-0.001,1.198-0.002,1.796-0.003c0.194-2.632,0.377-5.263,0.587-7.894c0.208-2.619,0.444-5.237,0.667-7.855
		c0.476,0.018,0.952,0.037,1.427,0.057c0.278,5.494,0.556,10.989,0.833,16.484c0.668-0.011,1.335-0.021,2.003-0.032
		c0.422-5.418,0.844-10.837,1.266-16.254c0.4,0.014,0.801,0.027,1.202,0.041c0.419,5.163,0.839,10.327,1.258,15.49
		c0.586-0.025,1.172-0.052,1.757-0.078c0.396-5.255,0.792-10.511,1.187-15.767c0.484-0.004,0.969-0.01,1.453-0.016
		c0.288,5.553,0.576,11.104,0.864,16.655c0.657,0.014,1.313,0.028,1.969,0.042c0.442-5.427,0.885-10.854,1.328-16.28
		c0.401,0.032,0.803,0.065,1.204,0.099c0.397,5.104,0.794,10.209,1.191,15.313c0.602-0.002,1.203-0.004,1.805-0.006
		c0.192-2.638,0.372-5.276,0.582-7.913c0.208-2.611,0.448-5.221,0.674-7.832c0.474,0.021,0.947,0.043,1.42,0.063
		c0.277,5.482,0.554,10.965,0.832,16.447c0.671-0.011,1.343-0.021,2.014-0.032c0.418-5.411,0.836-10.823,1.255-16.234
		c0.401,0.016,0.802,0.031,1.204,0.047c0.421,5.159,0.842,10.318,1.263,15.477c0.585-0.024,1.171-0.05,1.757-0.075
		c0.394-5.249,0.787-10.498,1.18-15.748c0.482-0.002,0.965-0.004,1.447-0.008c0.293,5.551,0.587,11.1,0.88,16.648
		c0.656,0.012,1.312,0.022,1.968,0.034c0.439-5.421,0.878-10.843,1.317-16.265c0.403,0.033,0.805,0.067,1.208,0.101
		c0.398,5.101,0.796,10.202,1.194,15.303c0.579,0.006,1.158,0.013,1.738,0.019c0.428-5.256,0.857-10.512,1.286-15.768
		c0.483,0.021,0.966,0.041,1.449,0.063c0.283,5.482,0.565,10.963,0.848,16.443c0.669-0.016,1.338-0.03,2.007-0.046
		c0.417-5.412,0.834-10.825,1.252-16.236c0.4,0.017,0.802,0.033,1.203,0.051c0.398,5.136,0.796,10.27,1.194,15.404
		c0.571,0.029,1.142,0.058,1.712,0.087c0.446-5.278,0.893-10.559,1.339-15.836c0.465,0.006,0.93,0.012,1.395,0.016
		c0.299,5.543,0.598,11.084,0.896,16.625c0.655,0.014,1.31,0.027,1.965,0.04c0.436-5.416,0.872-10.833,1.308-16.251
		c0.403,0.033,0.806,0.065,1.209,0.099c0.403,5.104,0.805,10.208,1.208,15.313c0.579-0.001,1.158-0.002,1.737-0.003
		c0.424-5.254,0.848-10.508,1.272-15.762c0.48,0.021,0.961,0.045,1.441,0.068c0.293,5.479,0.586,10.956,0.879,16.435
		c0.663-0.021,1.324-0.04,1.987-0.061c0.417-5.412,0.835-10.823,1.252-16.236c0.401,0.019,0.802,0.038,1.203,0.057
		c0.397,5.14,0.796,10.277,1.193,15.416c0.565,0.026,1.131,0.054,1.696,0.081c0.455-5.276,0.911-10.555,1.367-15.83
		c0.458,0.004,0.916,0.01,1.374,0.016c0.306,5.539,0.612,11.08,0.919,16.619c0.648,0.016,1.298,0.032,1.947,0.048
		c0.438-5.42,0.875-10.841,1.313-16.26c0.402,0.04,0.805,0.081,1.207,0.121c0.406,5.095,0.813,10.19,1.22,15.284
		c0.578,0.002,1.156,0.003,1.733,0.004c0.422-5.252,0.844-10.506,1.266-15.758c0.476,0.025,0.952,0.049,1.428,0.074
		c0.306,5.473,0.61,10.944,0.916,16.417c0.654-0.021,1.309-0.043,1.963-0.065c0.418-5.409,0.835-10.82,1.253-16.229
		c0.401,0.021,0.804,0.041,1.205,0.062c0.396,5.141,0.793,10.282,1.189,15.423c0.59,0.033,1.18,0.066,1.769,0.1
		c0.211-2.595,0.425-5.189,0.63-7.785c0.213-2.685,0.419-5.372,0.627-8.058c0.469,0.004,0.938,0.01,1.405,0.014
		c0.314,5.535,0.629,11.068,0.942,16.603c0.645,0.004,1.289,0.009,1.934,0.013c0.437-5.396,0.873-10.793,1.31-16.189
		c0.402,0.034,0.805,0.069,1.207,0.104c0.41,5.1,0.82,10.201,1.23,15.301c0.578-0.009,1.157-0.017,1.735-0.025
		c0.416-5.249,0.833-10.5,1.249-15.75c0.474,0.027,0.947,0.053,1.421,0.08c0.316,5.465,0.633,10.931,0.949,16.396
		c0.647-0.023,1.295-0.047,1.942-0.069c0.417-5.4,0.835-10.802,1.252-16.202c0.402,0.021,0.805,0.043,1.207,0.064
		c0.396,5.137,0.791,10.274,1.187,15.411c0.565,0.023,1.131,0.047,1.696,0.07c0.463-5.274,0.925-10.548,1.387-15.823
		c0.447,0.01,0.895,0.02,1.342,0.029c0.321,5.527,0.643,11.056,0.964,16.584c0.63,0.007,1.259,0.015,1.887,0.022
		c0.458-5.42,0.916-10.841,1.374-16.262c0.382,0.001,0.764,0.002,1.146,0.003c0.424,5.164,0.847,10.329,1.271,15.493
		c0.576-0.01,1.153-0.02,1.729-0.028c0.415-5.262,0.83-10.523,1.245-15.785c0.484,0.039,0.969,0.076,1.453,0.113
		c0.272,5.457,0.545,10.914,0.817,16.371c0.642,0.032,1.283,0.064,1.925,0.096c0.482-5.45,0.966-10.9,1.449-16.353
		c0.376,0.024,0.752,0.049,1.127,0.072c0.396,5.138,0.792,10.276,1.188,15.414c0.593,0.008,1.187,0.016,1.779,0.023
		c0.207-2.591,0.414-5.181,0.62-7.771c0.213-2.669,0.425-5.339,0.638-8.009c0.46,0.01,0.92,0.018,1.381,0.025
		c0.325,5.521,0.651,11.045,0.977,16.566c0.63-0.001,1.261-0.003,1.891-0.005c0.453-5.408,0.906-10.817,1.358-16.226
		c0.38-0.001,0.761-0.003,1.142-0.004c0.432,5.17,0.864,10.339,1.297,15.509c0.57-0.01,1.141-0.02,1.712-0.029
		c0.415-5.265,0.831-10.53,1.247-15.796c0.484,0.041,0.969,0.082,1.453,0.125c0.271,5.455,0.541,10.913,0.812,16.37
		c0.645,0.031,1.29,0.063,1.935,0.094c0.477-5.448,0.954-10.896,1.432-16.345c0.379,0.025,0.759,0.05,1.139,0.075
		c0.398,5.136,0.796,10.27,1.193,15.404c0.626,0.021,1.252,0.042,1.877,0.063c0.322-5.117,0.644-10.233,0.966-15.352
		c0.325,0.025,0.649,0.052,0.975,0.078c0.411,5.091,0.822,10.182,1.233,15.271c0.578,0.006,1.157,0.011,1.736,0.017
		c0.415-5.268,0.83-10.535,1.245-15.803c0.484,0.041,0.97,0.08,1.453,0.119c0.272,5.457,0.544,10.914,0.816,16.371
		c0.643,0.028,1.285,0.056,1.929,0.084c0.48-5.446,0.963-10.893,1.444-16.339c0.377,0.025,0.753,0.051,1.13,0.076
		c0.396,5.13,0.791,10.262,1.187,15.393c0.569,0.02,1.139,0.039,1.708,0.058c0.458-5.268,0.917-10.537,1.376-15.805
		c0.444,0.01,0.89,0.021,1.335,0.031c0.324,5.523,0.649,11.045,0.976,16.567c0.63,0.005,1.26,0.011,1.891,0.016
		c0.452-5.421,0.905-10.843,1.357-16.264c0.381,0.003,0.762,0.006,1.142,0.01c0.434,5.171,0.867,10.341,1.3,15.511
		c0.57-0.01,1.14-0.019,1.709-0.028c0.416-5.266,0.832-10.532,1.248-15.798c0.484,0.043,0.97,0.084,1.454,0.125
		c0.271,5.457,0.541,10.915,0.812,16.372c0.645,0.027,1.29,0.054,1.936,0.081c0.476-5.443,0.952-10.887,1.427-16.331
		c0.381,0.026,0.762,0.054,1.143,0.08c0.397,5.126,0.795,10.254,1.192,15.381c0.57,0.016,1.142,0.031,1.712,0.047
		c0.454-5.265,0.909-10.53,1.364-15.794c0.446,0.012,0.893,0.021,1.339,0.033c0.322,5.518,0.646,11.036,0.967,16.554
		c0.637-0.005,1.271-0.011,1.907-0.017c0.446-5.406,0.893-10.814,1.338-16.222c0.384-0.001,0.767-0.003,1.149-0.004
		c0.434,5.169,0.867,10.339,1.301,15.509c0.568-0.007,1.137-0.014,1.705-0.021c0.42-5.263,0.838-10.526,1.257-15.788
		c0.484,0.043,0.968,0.086,1.452,0.129c0.271,5.457,0.54,10.914,0.811,16.371c0.646,0.026,1.292,0.052,1.938,0.078
		c0.471-5.44,0.941-10.883,1.411-16.323c0.386,0.028,0.772,0.056,1.158,0.084c0.396,5.124,0.794,10.246,1.191,15.369
		c0.572,0.013,1.145,0.024,1.717,0.037c0.451-5.261,0.901-10.522,1.353-15.784c0.452,0.014,0.903,0.027,1.355,0.041
		c0.314,5.512,0.629,11.024,0.943,16.537c0.642-0.008,1.284-0.016,1.925-0.023c0.44-5.408,0.882-10.816,1.322-16.224
		c0.387,0.001,0.773,0.002,1.16,0.003c0.43,5.174,0.86,10.348,1.29,15.521c0.568-0.022,1.136-0.045,1.704-0.067
		c0.411-5.268,0.821-10.535,1.232-15.803c0.49-0.004,0.981-0.008,1.473-0.01c0.266,5.527,0.531,11.058,0.797,16.587
		c0.656,0.024,1.313,0.049,1.971,0.073c0.465-5.441,0.93-10.885,1.395-16.327c0.391,0.028,0.781,0.057,1.172,0.085
		c0.397,5.123,0.795,10.247,1.191,15.371c0.573,0.007,1.147,0.014,1.721,0.021c0.447-5.259,0.895-10.519,1.341-15.776
		c0.46,0.014,0.919,0.027,1.378,0.041c0.305,5.51,0.609,11.02,0.914,16.529c0.647-0.004,1.295-0.007,1.942-0.01
		c0.437-5.42,0.872-10.842,1.308-16.263c0.392,0.008,0.783,0.015,1.175,0.021c0.425,5.173,0.849,10.348,1.273,15.521
		c0.575-0.024,1.149-0.049,1.725-0.073c0.408-5.268,0.816-10.534,1.224-15.802c0.49-0.01,0.979-0.018,1.469-0.025
		c0.27,5.541,0.537,11.085,0.807,16.627c0.658,0.019,1.316,0.036,1.975,0.055c0.458-5.436,0.917-10.871,1.375-16.307
		c0.395,0.03,0.789,0.061,1.184,0.092c0.397,5.115,0.795,10.231,1.192,15.347c0.596,0.003,1.192,0.007,1.788,0.011
		c0.198-2.617,0.39-5.235,0.598-7.853c0.21-2.636,0.438-5.271,0.657-7.905c0.471,0.014,0.941,0.027,1.413,0.043
		c0.293,5.502,0.587,11.004,0.881,16.507c0.654-0.003,1.309-0.005,1.963-0.007c0.432-5.42,0.863-10.84,1.294-16.26
		c0.396,0.009,0.792,0.018,1.188,0.026c0.421,5.173,0.842,10.345,1.262,15.517c0.58-0.026,1.16-0.053,1.74-0.079
		c0.404-5.266,0.809-10.532,1.212-15.8c0.488-0.006,0.977-0.014,1.465-0.021c0.274,5.547,0.549,11.097,0.823,16.645
		c0.657,0.021,1.314,0.041,1.973,0.062c0.452-5.437,0.905-10.872,1.358-16.31c0.396,0.031,0.794,0.063,1.19,0.095
		c0.399,5.112,0.798,10.226,1.196,15.338c0.573,0.009,1.146,0.018,1.719,0.027c0.441-5.26,0.883-10.519,1.323-15.778
		c0.476,0.018,0.951,0.033,1.427,0.051c0.284,5.5,0.568,11.002,0.853,16.503c0.661-0.009,1.323-0.018,1.984-0.027
		c0.427-5.418,0.854-10.837,1.279-16.257c0.399,0.012,0.798,0.022,1.197,0.033c0.419,5.17,0.838,10.339,1.258,15.509
		c0.583-0.027,1.167-0.055,1.751-0.082c0.399-5.264,0.799-10.528,1.199-15.79c0.486-0.002,0.973-0.002,1.459-0.002
		c0.281,5.545,0.563,11.091,0.843,16.636c0.657,0.02,1.314,0.038,1.971,0.057c0.447-5.432,0.895-10.864,1.342-16.297
		c0.399,0.032,0.799,0.064,1.197,0.097c0.399,5.109,0.798,10.219,1.197,15.328c0.573,0.008,1.146,0.017,1.721,0.025
		c0.438-5.259,0.876-10.52,1.313-15.777c0.48,0.018,0.961,0.037,1.442,0.055c0.278,5.496,0.557,10.991,0.834,16.486
		c0.668-0.011,1.335-0.021,2.003-0.032c0.422-5.417,0.844-10.835,1.266-16.254c0.401,0.014,0.802,0.027,1.203,0.041
		c0.42,5.163,0.839,10.328,1.258,15.492c0.589-0.027,1.178-0.055,1.767-0.082c0.188-2.536,0.379-5.072,0.567-7.609
		c0.202-2.72,0.402-5.44,0.604-8.161c0.487-0.002,0.974-0.006,1.461-0.01c0.288,5.551,0.575,11.104,0.863,16.655
		c0.656,0.014,1.313,0.027,1.969,0.041c0.443-5.427,0.885-10.853,1.328-16.28c0.401,0.032,0.803,0.065,1.204,0.099
		c0.396,5.104,0.794,10.209,1.191,15.313c0.602-0.001,1.203-0.003,1.805-0.005c0.192-2.638,0.372-5.275,0.582-7.911
		c0.208-2.613,0.447-5.223,0.673-7.834c0.475,0.021,0.948,0.041,1.422,0.061c0.277,5.49,0.554,10.981,0.831,16.472
		c0.671-0.019,1.342-0.036,2.013-0.054c0.419-5.411,0.838-10.822,1.256-16.234c0.401,0.016,0.803,0.03,1.204,0.046
		c0.421,5.159,0.842,10.319,1.263,15.479c0.586-0.025,1.172-0.051,1.758-0.076c0.393-5.249,0.786-10.499,1.18-15.749
		c0.483,0,0.966-0.002,1.448-0.002c0.293,5.547,0.586,11.095,0.878,16.642c0.656,0.012,1.313,0.023,1.969,0.035
		c0.439-5.422,0.879-10.845,1.318-16.266c0.402,0.033,0.805,0.066,1.207,0.101c0.397,5.102,0.796,10.202,1.193,15.303
		c0.579,0.007,1.159,0.013,1.738,0.02c0.429-5.256,0.857-10.512,1.287-15.77c0.482,0.021,0.966,0.043,1.448,0.064
		c0.283,5.48,0.565,10.964,0.848,16.445c0.669-0.016,1.337-0.031,2.007-0.047c0.417-5.412,0.834-10.824,1.251-16.236
		c0.401,0.017,0.803,0.033,1.204,0.05c0.397,5.136,0.796,10.27,1.193,15.404c0.571,0.028,1.144,0.058,1.715,0.087
		c0.445-5.279,0.891-10.559,1.335-15.836c0.466,0.004,0.932,0.01,1.397,0.016c0.298,5.541,0.597,11.084,0.895,16.626
		c0.655,0.012,1.312,0.023,1.967,0.034c0.437-5.415,0.872-10.83,1.309-16.247c0.403,0.034,0.807,0.068,1.21,0.103
		c0.401,5.098,0.802,10.196,1.203,15.293c0.602-0.005,1.203-0.011,1.805-0.016c0.189-2.65,0.36-5.303,0.572-7.951
		c0.207-2.598,0.454-5.19,0.684-7.785c0.465,0.023,0.93,0.047,1.394,0.07c0.293,5.477,0.585,10.953,0.877,16.43
		c0.663-0.013,1.325-0.024,1.987-0.036c0.418-5.417,0.835-10.835,1.253-16.252c0.401,0.019,0.803,0.037,1.204,0.056
		c0.397,5.139,0.795,10.276,1.193,15.414c0.565,0.027,1.131,0.055,1.696,0.082c0.456-5.277,0.911-10.555,1.366-15.832
		c0.458,0.006,0.916,0.012,1.375,0.018c0.305,5.539,0.61,11.08,0.916,16.62c0.649,0.016,1.3,0.032,1.949,0.048
		c0.438-5.42,0.876-10.842,1.313-16.262c0.402,0.04,0.805,0.08,1.207,0.12c0.406,5.095,0.813,10.19,1.219,15.285
		c0.599-0.007,1.198-0.015,1.798-0.022c0.187-2.658,0.354-5.316,0.566-7.973c0.206-2.59,0.458-5.175,0.689-7.762
		c0.459,0.025,0.917,0.051,1.376,0.076c0.304,5.473,0.606,10.947,0.91,16.42c0.655-0.021,1.312-0.043,1.967-0.064
		c0.417-5.411,0.834-10.822,1.252-16.233c0.401,0.021,0.804,0.041,1.205,0.062c0.396,5.141,0.793,10.283,1.19,15.424
		c0.589,0.033,1.179,0.067,1.768,0.101c0.211-2.595,0.425-5.188,0.631-7.783c0.213-2.687,0.418-5.373,0.627-8.06
		c0.469,0.004,0.938,0.008,1.406,0.014c0.313,5.533,0.626,11.069,0.939,16.604c0.644,0.014,1.288,0.028,1.933,0.042
		c0.438-5.411,0.875-10.823,1.313-16.236c0.402,0.041,0.805,0.083,1.207,0.124c0.409,5.094,0.819,10.187,1.229,15.279
		c0.578-0.002,1.157-0.005,1.734-0.008c0.418-5.25,0.835-10.5,1.252-15.75c0.474,0.027,0.948,0.053,1.422,0.08
		c0.315,5.463,0.63,10.929,0.945,16.393c0.648-0.021,1.297-0.043,1.945-0.064c0.417-5.401,0.834-10.803,1.252-16.205
		c0.402,0.021,0.805,0.042,1.206,0.063c0.396,5.141,0.791,10.282,1.187,15.422c0.565,0.021,1.13,0.042,1.695,0.063
		c0.463-5.274,0.926-10.55,1.389-15.823c0.447,0.01,0.895,0.02,1.342,0.029c0.321,5.527,0.642,11.055,0.963,16.583
		c0.639,0.003,1.279,0.007,1.92,0.011c0.436-5.39,0.872-10.779,1.309-16.171c0.402,0.037,0.806,0.073,1.208,0.11
		c0.411,5.098,0.823,10.194,1.234,15.291c0.577,0.008,1.155,0.015,1.733,0.021c0.416-5.28,0.832-10.561,1.248-15.842
		c0.47,0.043,0.938,0.086,1.407,0.127c0.326,5.461,0.652,10.923,0.979,16.384c0.643-0.025,1.284-0.051,1.927-0.075
		c0.418-5.393,0.835-10.785,1.253-16.179c0.402,0.021,0.804,0.043,1.206,0.064c0.395,5.138,0.79,10.277,1.187,15.415
		c0.567,0.018,1.136,0.034,1.703,0.052c0.46-5.272,0.921-10.544,1.381-15.817c0.445,0.012,0.89,0.023,1.335,0.033
		c0.325,5.523,0.65,11.048,0.977,16.571c0.629,0.006,1.259,0.013,1.887,0.019c0.454-5.421,0.908-10.842,1.362-16.263
		c0.38,0.001,0.761,0.001,1.141,0.002c0.432,5.167,0.863,10.332,1.294,15.498c0.572-0.005,1.144-0.01,1.715-0.015
		c0.416-5.265,0.831-10.529,1.247-15.793c0.483,0.039,0.968,0.08,1.453,0.121c0.271,5.457,0.541,10.914,0.813,16.371
		c0.644,0.031,1.288,0.063,1.933,0.094c0.479-5.448,0.956-10.896,1.435-16.346c0.379,0.026,0.759,0.053,1.138,0.079
		c0.397,5.128,0.794,10.257,1.191,15.385c0.57,0.017,1.14,0.033,1.709,0.051c0.456-5.266,0.912-10.532,1.368-15.798
		c0.445,0.012,0.892,0.023,1.337,0.035c0.324,5.52,0.648,11.037,0.972,16.555c4.467-6.252,4.34-39.376,0.378-43.777
		c-0.443,5.433-0.848,10.383-1.251,15.334c-0.37-0.015-0.74-0.029-1.109-0.045c-0.561-5.031-1.121-10.062-1.682-15.091
		c-0.559,0.009-1.116,0.018-1.676,0.027c-0.419,5.05-0.839,10.099-1.258,15.149c-0.379,0.005-0.757,0.01-1.135,0.015
		c-0.367-5.054-0.733-10.105-1.1-15.158c-0.576,0.017-1.151,0.032-1.728,0.048c-0.459,5.033-0.917,10.066-1.376,15.1
		c-0.349-0.025-0.696-0.051-1.046-0.077c-0.57-5.03-1.142-10.061-1.712-15.091c-0.564,0.016-1.13,0.03-1.694,0.045
		c-0.395,5.032-0.789,10.066-1.185,15.099c-0.393-0.004-0.787-0.008-1.18-0.011c-0.367-5.031-0.733-10.062-1.101-15.092
		c-0.578,0.032-1.155,0.063-1.734,0.096c-0.45,4.997-0.9,9.994-1.352,14.992c-0.361-0.047-0.722-0.093-1.082-0.139
		c-0.543-4.998-1.085-9.995-1.627-14.992c-0.596,0.033-1.19,0.065-1.786,0.099c-0.368,4.991-0.735,9.983-1.104,14.975
		c-0.387-0.015-0.773-0.029-1.161-0.045c-0.419-4.972-0.838-9.944-1.257-14.916c-0.567,0.045-1.135,0.089-1.702,0.134
		c-0.403,4.953-0.808,9.908-1.211,14.861c-0.368-0.01-0.736-0.021-1.104-0.03c-0.562-5.03-1.122-10.059-1.684-15.087
		c-0.561,0.004-1.122,0.008-1.684,0.012c-0.414,5.045-0.829,10.09-1.243,15.137c-0.374,0.011-0.748,0.021-1.122,0.033
		c-0.383-5.045-0.766-10.089-1.148-15.133c-0.567,0.014-1.135,0.027-1.702,0.041c-0.453,5.026-0.905,10.055-1.358,15.082
		c-0.358-0.024-0.717-0.048-1.074-0.071c-0.557-5.032-1.112-10.063-1.668-15.094c-0.574,0.021-1.148,0.043-1.723,0.064
		c-0.397,5.033-0.795,10.067-1.193,15.102c-0.396,0-0.79,0-1.186,0c-0.355-5.048-0.711-10.095-1.066-15.141
		c-0.581,0.029-1.163,0.059-1.744,0.089c-0.46,5.012-0.92,10.025-1.38,15.037c-0.354-0.039-0.708-0.077-1.062-0.116
		c-0.544-5.011-1.089-10.022-1.633-15.034c-0.582,0.036-1.165,0.071-1.749,0.106c-0.388,4.996-0.776,9.991-1.165,14.988
		c-0.381-0.016-0.762-0.03-1.143-0.046c-0.408-4.98-0.815-9.96-1.224-14.939c-0.567,0.035-1.135,0.07-1.702,0.104
		c-0.226,2.583-0.458,5.166-0.676,7.75c-0.196,2.353-0.38,4.705-0.568,7.059c-0.391-0.041-0.781-0.082-1.172-0.123
		c-0.524-4.966-1.05-9.931-1.575-14.896c-0.563-0.003-1.125-0.007-1.688-0.01c-0.428,5.039-0.854,10.079-1.282,15.118
		c-0.363,0.013-0.727,0.024-1.09,0.037c-0.394-5.025-0.786-10.05-1.179-15.074c-0.567,0.005-1.135,0.011-1.702,0.016
		c-0.452,5.021-0.904,10.043-1.356,15.064c-0.354-0.022-0.708-0.044-1.062-0.066c-0.565-5.029-1.131-10.061-1.695-15.09
		c-0.562,0.018-1.122,0.035-1.683,0.053c-0.409,5.044-0.818,10.088-1.227,15.132c-0.394,0.003-0.787,0.006-1.181,0.009
		c-0.343-5.063-0.687-10.125-1.03-15.187c-0.588,0.026-1.176,0.054-1.765,0.08c-0.464,5.027-0.929,10.056-1.394,15.084
		c-0.348-0.031-0.693-0.062-1.041-0.092c-0.557-5.024-1.113-10.05-1.67-15.074c-0.566,0.024-1.134,0.048-1.7,0.071
		c-0.404,5.014-0.808,10.027-1.211,15.041c-0.379-0.008-0.758-0.017-1.136-0.024c-0.395-5.007-0.788-10.014-1.182-15.021
		c-0.572,0.037-1.145,0.074-1.718,0.111c-0.439,4.969-0.88,9.939-1.319,14.908c-0.36-0.054-0.722-0.106-1.082-0.16
		c-0.557-4.977-1.113-9.952-1.669-14.928c-0.586,0.045-1.173,0.09-1.759,0.134c-0.36,4.983-0.721,9.966-1.081,14.95
		c-0.378,0.015-0.756,0.03-1.135,0.045c-0.4-5.01-0.802-10.021-1.203-15.03c-0.575-0.001-1.15-0.002-1.726-0.003
		c-0.439,5.013-0.879,10.025-1.318,15.039c-0.357-0.018-0.716-0.035-1.073-0.053c-0.561-5.031-1.121-10.063-1.682-15.095
		c-0.559,0.015-1.117,0.029-1.675,0.044c-0.42,5.048-0.839,10.098-1.258,15.146c-0.381,0.005-0.763,0.01-1.144,0.015
		c-0.359-5.064-0.719-10.129-1.078-15.193c-0.58,0.021-1.159,0.044-1.739,0.066c-0.462,5.037-0.924,10.074-1.387,15.112
		c-0.346-0.028-0.69-0.058-1.036-0.087c-0.572-5.029-1.145-10.059-1.717-15.087c-0.563,0.026-1.125,0.052-1.688,0.078
		c-0.396,5.017-0.792,10.034-1.188,15.053c-0.388-0.005-0.775-0.01-1.163-0.015c-0.376-5.023-0.752-10.048-1.128-15.071
		c-0.577,0.034-1.153,0.069-1.729,0.104c-0.446,4.987-0.893,9.974-1.339,14.961c-0.362-0.048-0.725-0.097-1.087-0.146
		c-0.545-4.988-1.09-9.976-1.635-14.963c-0.595,0.039-1.19,0.078-1.786,0.117c-0.362,4.98-0.725,9.961-1.087,14.94
		c-0.389-0.017-0.777-0.033-1.165-0.051c-0.425-4.964-0.849-9.929-1.273-14.893c-0.563,0.048-1.126,0.096-1.689,0.144
		c-0.404,4.951-0.809,9.904-1.213,14.855c-0.368-0.013-0.736-0.025-1.104-0.037c-0.563-5.031-1.124-10.061-1.686-15.091
		c-0.561,0.008-1.121,0.015-1.683,0.022c-0.415,5.047-0.83,10.094-1.245,15.143c-0.378,0.007-0.755,0.015-1.133,0.021
		c-0.373-5.049-0.746-10.099-1.119-15.147c-0.572,0.012-1.144,0.024-1.715,0.037c-0.456,5.033-0.912,10.067-1.368,15.1
		c-0.353-0.025-0.706-0.051-1.06-0.076c-0.564-5.03-1.13-10.06-1.694-15.089c-0.569,0.022-1.139,0.046-1.707,0.068
		c-0.396,5.027-0.79,10.057-1.185,15.085c-0.396-0.003-0.792-0.006-1.188-0.009c-0.36-5.033-0.721-10.067-1.081-15.1
		c-0.58,0.026-1.16,0.054-1.739,0.081c-0.455,5.005-0.91,10.009-1.365,15.015c-0.357-0.044-0.715-0.088-1.074-0.131
		c-0.541-5.004-1.083-10.007-1.624-15.01c-0.592,0.031-1.183,0.063-1.773,0.095c-0.377,4.995-0.755,9.991-1.132,14.987
		c-0.384-0.018-0.769-0.034-1.153-0.052c-0.414-4.97-0.828-9.94-1.242-14.91c-0.571,0.038-1.142,0.076-1.714,0.114
		c-0.402,4.955-0.804,9.91-1.206,14.866c-0.371-0.007-0.742-0.014-1.113-0.021c-0.555-5.031-1.109-10.062-1.664-15.093
		c-0.561-0.001-1.12-0.001-1.681-0.002c-0.422,5.049-0.844,10.097-1.267,15.146c-0.368,0.012-0.736,0.023-1.105,0.035
		c-0.388-5.04-0.775-10.08-1.164-15.119c-0.566,0.012-1.132,0.023-1.698,0.035c-0.453,5.025-0.905,10.05-1.358,15.075
		c-0.358-0.022-0.718-0.046-1.076-0.068c-0.555-5.031-1.108-10.063-1.663-15.094c-0.572,0.021-1.145,0.04-1.717,0.061
		c-0.402,5.037-0.804,10.076-1.205,15.113c-0.395,0.002-0.788,0.003-1.182,0.004c-0.354-5.053-0.707-10.106-1.061-15.16
		c-0.582,0.029-1.164,0.058-1.746,0.086c-0.462,5.019-0.924,10.037-1.387,15.056c-0.352-0.036-0.702-0.071-1.053-0.107
		c-0.549-5.017-1.097-10.033-1.645-15.049c-0.576,0.033-1.152,0.067-1.728,0.102c-0.397,5-0.794,10.001-1.191,15.001
		c-0.379-0.01-0.757-0.021-1.136-0.03c-0.402-4.997-0.805-9.994-1.207-14.99c-0.571,0.038-1.142,0.077-1.712,0.115
		c-0.435,4.959-0.868,9.919-1.303,14.877c-0.36-0.056-0.721-0.111-1.081-0.168c-0.566-4.968-1.133-9.938-1.698-14.905
		c-0.577,0.047-1.155,0.094-1.733,0.14c-0.362,4.986-0.725,9.974-1.087,14.959c-0.381,0.014-0.762,0.026-1.142,0.04
		c-0.396-5.018-0.793-10.037-1.189-15.055c-0.571,0.002-1.144,0.005-1.715,0.007c-0.446,5.019-0.893,10.036-1.338,15.055
		c-0.354-0.021-0.71-0.041-1.064-0.062c-0.564-5.031-1.129-10.062-1.693-15.092c-0.56,0.017-1.118,0.033-1.678,0.05
		c-0.414,5.049-0.828,10.099-1.243,15.147c-0.385,0.002-0.771,0.005-1.155,0.008c-0.354-5.059-0.709-10.117-1.063-15.176
		c-0.582,0.016-1.164,0.03-1.746,0.046c-0.466,5.038-0.931,10.075-1.396,15.114c-0.345-0.032-0.69-0.064-1.036-0.096
		c-0.563-5.029-1.127-10.057-1.69-15.084c-0.564,0.028-1.128,0.058-1.691,0.086c-0.402,5.011-0.804,10.021-1.205,15.033
		c-0.382-0.006-0.764-0.013-1.146-0.02c-0.386-5.014-0.771-10.027-1.157-15.041c-0.575,0.036-1.15,0.072-1.725,0.108
		c-0.443,4.977-0.886,9.954-1.328,14.933c-0.362-0.053-0.723-0.104-1.084-0.157c-0.551-4.981-1.102-9.962-1.652-14.942
		c-0.589,0.042-1.179,0.085-1.769,0.127c-0.363,4.975-0.728,9.949-1.091,14.925c-0.387-0.02-0.773-0.04-1.16-0.06
		c-0.429-4.955-0.858-9.911-1.287-14.866c-0.559,0.05-1.119,0.1-1.68,0.149c-0.403,4.949-0.807,9.9-1.21,14.85
		c-0.37-0.015-0.741-0.03-1.111-0.046c-0.561-5.03-1.12-10.062-1.681-15.092c-0.559,0.011-1.116,0.021-1.675,0.033
		c-0.421,5.048-0.841,10.097-1.261,15.145c-0.379,0.006-0.757,0.013-1.136,0.019C503.406,10.338,503.042,5.28,502.677,0.224z"/>
	<path fill-rule="evenodd" clip-rule="evenodd" fill="#006837" d="M502.677,0.224c0.365,5.057,0.729,10.114,1.094,15.171
		c0.379-0.006,0.757-0.013,1.136-0.019c0.42-5.048,0.84-10.097,1.261-15.145c0.559-0.012,1.116-0.022,1.675-0.033
		c0.561,5.03,1.12,10.062,1.681,15.092c0.37,0.016,0.741,0.031,1.111,0.046c0.403-4.949,0.807-9.9,1.21-14.85
		c0.561-0.05,1.121-0.1,1.68-0.149c0.429,4.955,0.858,9.911,1.287,14.866c0.387,0.02,0.773,0.04,1.16,0.06
		c0.363-4.976,0.728-9.95,1.091-14.925c0.59-0.042,1.18-0.085,1.769-0.127c0.551,4.98,1.102,9.961,1.652,14.942
		c0.361,0.053,0.722,0.104,1.084,0.157c0.442-4.979,0.885-9.956,1.328-14.933c0.574-0.036,1.149-0.072,1.725-0.108
		c0.386,5.014,0.771,10.027,1.157,15.041c0.382,0.007,0.764,0.014,1.146,0.02c0.401-5.012,0.803-10.022,1.205-15.033
		c0.563-0.028,1.127-0.058,1.691-0.086c0.563,5.027,1.127,10.055,1.69,15.084c0.346,0.031,0.691,0.063,1.036,0.096
		c0.466-5.039,0.931-10.076,1.396-15.114c0.582-0.016,1.164-0.03,1.746-0.046c0.354,5.059,0.708,10.117,1.063,15.176
		c0.385-0.003,0.771-0.006,1.155-0.008c0.415-5.049,0.829-10.099,1.243-15.147c0.56-0.017,1.118-0.033,1.678-0.05
		c0.564,5.03,1.129,10.061,1.693,15.092c0.354,0.021,0.71,0.041,1.064,0.062c0.445-5.019,0.892-10.036,1.338-15.055
		c0.571-0.002,1.144-0.005,1.715-0.007c0.396,5.018,0.793,10.037,1.189,15.055c0.38-0.014,0.761-0.026,1.142-0.04
		c0.362-4.985,0.725-9.973,1.087-14.959c0.578-0.046,1.156-0.093,1.733-0.14c0.565,4.968,1.132,9.938,1.698,14.905
		c0.36,0.057,0.721,0.112,1.081,0.168c0.435-4.958,0.868-9.918,1.303-14.877c0.57-0.038,1.141-0.077,1.712-0.115
		c0.402,4.996,0.805,9.993,1.207,14.99c0.379,0.01,0.757,0.021,1.136,0.03c0.397-5,0.794-10.001,1.191-15.001
		c0.575-0.034,1.151-0.068,1.728-0.102c0.548,5.016,1.096,10.032,1.645,15.049c0.351,0.036,0.701,0.071,1.053,0.107
		c0.463-5.019,0.925-10.037,1.387-15.056c0.582-0.028,1.164-0.057,1.746-0.086c0.354,5.054,0.707,10.107,1.061,15.16
		c0.394-0.001,0.787-0.002,1.182-0.004c0.401-5.037,0.803-10.076,1.205-15.113c0.572-0.021,1.145-0.04,1.717-0.061
		c0.555,5.031,1.108,10.063,1.663,15.094c0.358,0.022,0.718,0.046,1.076,0.068c0.453-5.025,0.905-10.05,1.358-15.075
		c0.566-0.012,1.132-0.023,1.698-0.035c0.389,5.039,0.776,10.079,1.164,15.119c0.369-0.012,0.737-0.023,1.105-0.035
		c0.423-5.05,0.845-10.098,1.267-15.146c0.561,0.001,1.12,0.001,1.681,0.002c0.555,5.031,1.109,10.062,1.664,15.093
		c0.371,0.007,0.742,0.014,1.113,0.021c0.402-4.956,0.804-9.911,1.206-14.866c0.572-0.038,1.143-0.076,1.714-0.114
		c0.414,4.97,0.828,9.94,1.242,14.91c0.385,0.018,0.77,0.034,1.153,0.052c0.377-4.996,0.755-9.992,1.132-14.987
		c0.591-0.031,1.182-0.063,1.773-0.095c0.541,5.003,1.083,10.006,1.624,15.01c0.359,0.043,0.717,0.087,1.074,0.131
		c0.455-5.006,0.91-10.01,1.365-15.015c0.579-0.027,1.159-0.055,1.739-0.081c0.36,5.032,0.721,10.066,1.081,15.1
		c0.396,0.003,0.792,0.006,1.188,0.009c0.395-5.028,0.789-10.058,1.185-15.085c0.568-0.022,1.138-0.046,1.707-0.068
		c0.564,5.029,1.13,10.059,1.694,15.089c0.354,0.025,0.707,0.051,1.06,0.076c0.456-5.032,0.912-10.066,1.368-15.1
		c0.571-0.013,1.143-0.025,1.715-0.037c0.373,5.049,0.746,10.099,1.119,15.147c0.378-0.007,0.755-0.015,1.133-0.021
		c0.415-5.049,0.83-10.096,1.245-15.143c0.562-0.008,1.122-0.015,1.683-0.022c0.562,5.03,1.123,10.06,1.686,15.091
		c0.367,0.012,0.735,0.024,1.104,0.037c0.404-4.951,0.809-9.904,1.213-14.855c0.563-0.048,1.126-0.096,1.689-0.144
		c0.425,4.964,0.849,9.929,1.273,14.893c0.388,0.018,0.776,0.034,1.165,0.051c0.362-4.979,0.725-9.96,1.087-14.94
		c0.596-0.039,1.191-0.078,1.786-0.117c0.545,4.987,1.09,9.975,1.635,14.963c0.362,0.049,0.725,0.098,1.087,0.146
		c0.446-4.987,0.893-9.974,1.339-14.961c0.576-0.034,1.152-0.069,1.729-0.104c0.376,5.023,0.752,10.048,1.128,15.071
		c0.388,0.005,0.775,0.01,1.163,0.015c0.396-5.019,0.792-10.036,1.188-15.053c0.563-0.026,1.125-0.052,1.688-0.078
		c0.572,5.028,1.145,10.058,1.717,15.087c0.346,0.029,0.69,0.059,1.036,0.087c0.463-5.038,0.925-10.075,1.387-15.112
		c0.58-0.022,1.159-0.045,1.739-0.066c0.359,5.064,0.719,10.129,1.078,15.193c0.381-0.005,0.763-0.01,1.144-0.015
		c0.419-5.048,0.838-10.098,1.258-15.146c0.558-0.015,1.116-0.029,1.675-0.044c0.561,5.031,1.121,10.063,1.682,15.095
		c0.357,0.018,0.716,0.035,1.073,0.053c0.439-5.014,0.879-10.026,1.318-15.039c0.575,0.001,1.15,0.002,1.726,0.003
		c0.401,5.01,0.803,10.021,1.203,15.03c0.379-0.015,0.757-0.03,1.135-0.045c0.36-4.984,0.721-9.967,1.081-14.95
		c0.586-0.044,1.173-0.089,1.759-0.134c0.556,4.976,1.112,9.951,1.669,14.928c0.36,0.054,0.722,0.106,1.082,0.16
		c0.439-4.969,0.88-9.939,1.319-14.908c0.573-0.037,1.146-0.074,1.718-0.111c0.394,5.007,0.787,10.014,1.182,15.021
		c0.378,0.008,0.757,0.017,1.136,0.024c0.403-5.014,0.807-10.027,1.211-15.041c0.566-0.023,1.134-0.047,1.7-0.071
		c0.557,5.024,1.113,10.05,1.67,15.074c0.348,0.03,0.693,0.061,1.041,0.092c0.465-5.028,0.93-10.057,1.394-15.084
		c0.589-0.026,1.177-0.054,1.765-0.08c0.344,5.062,0.688,10.124,1.03,15.187c0.394-0.003,0.787-0.006,1.181-0.009
		c0.408-5.044,0.817-10.088,1.227-15.132c0.561-0.018,1.121-0.035,1.683-0.053c0.564,5.029,1.13,10.061,1.695,15.09
		c0.354,0.022,0.708,0.044,1.062,0.066c0.452-5.021,0.904-10.043,1.356-15.064c0.567-0.005,1.135-0.011,1.702-0.016
		c0.393,5.024,0.785,10.049,1.179,15.074c0.363-0.013,0.727-0.024,1.09-0.037c0.428-5.039,0.854-10.079,1.282-15.118
		c0.563,0.003,1.125,0.007,1.688,0.01c0.525,4.966,1.051,9.931,1.575,14.896c0.391,0.041,0.781,0.082,1.172,0.123
		c0.188-2.354,0.372-4.706,0.568-7.059c0.218-2.584,0.45-5.167,0.676-7.75c0.567-0.034,1.135-0.069,1.702-0.104
		c0.408,4.979,0.815,9.959,1.224,14.939c0.381,0.016,0.762,0.03,1.143,0.046c0.389-4.997,0.777-9.992,1.165-14.988
		c0.584-0.035,1.167-0.07,1.749-0.106c0.544,5.012,1.089,10.023,1.633,15.034c0.354,0.039,0.708,0.077,1.062,0.116
		c0.46-5.012,0.92-10.025,1.38-15.037c0.581-0.03,1.163-0.06,1.744-0.089c0.355,5.046,0.711,10.093,1.066,15.141
		c0.396,0,0.79,0,1.186,0c0.398-5.034,0.796-10.068,1.193-15.102c0.574-0.021,1.148-0.043,1.723-0.064
		c0.556,5.031,1.111,10.062,1.668,15.094c0.357,0.023,0.716,0.047,1.074,0.071c0.453-5.027,0.905-10.056,1.358-15.082
		c0.567-0.014,1.135-0.027,1.702-0.041c0.383,5.044,0.766,10.088,1.148,15.133c0.374-0.012,0.748-0.022,1.122-0.033
		c0.414-5.047,0.829-10.092,1.243-15.137c0.562-0.004,1.123-0.008,1.684-0.012c0.562,5.028,1.122,10.057,1.684,15.087
		c0.368,0.01,0.736,0.021,1.104,0.03c0.403-4.953,0.808-9.908,1.211-14.861c0.567-0.045,1.135-0.089,1.702-0.134
		c0.419,4.972,0.838,9.944,1.257,14.916c0.388,0.016,0.774,0.03,1.161,0.045c0.368-4.991,0.735-9.983,1.104-14.975
		c0.596-0.033,1.19-0.065,1.786-0.099c0.542,4.997,1.084,9.994,1.627,14.992c0.36,0.046,0.721,0.092,1.082,0.139
		c0.451-4.998,0.901-9.995,1.352-14.992c0.579-0.032,1.156-0.063,1.734-0.096c0.367,5.03,0.733,10.061,1.101,15.092
		c0.393,0.003,0.787,0.007,1.18,0.011c0.396-5.032,0.79-10.066,1.185-15.099c0.564-0.015,1.13-0.029,1.694-0.045
		c0.57,5.03,1.142,10.061,1.712,15.091c0.35,0.026,0.697,0.052,1.046,0.077c0.459-5.033,0.917-10.066,1.376-15.1
		c0.576-0.016,1.151-0.031,1.728-0.048c0.366,5.053,0.732,10.104,1.1,15.158c0.378-0.005,0.756-0.01,1.135-0.015
		c0.419-5.051,0.839-10.1,1.258-15.149c0.56-0.01,1.117-0.019,1.676-0.027c0.561,5.029,1.121,10.06,1.682,15.091
		c0.369,0.016,0.739,0.03,1.109,0.045c0.403-4.951,0.808-9.901,1.251-15.334c3.962,4.401,4.089,37.525-0.378,43.777
		c-0.323-5.518-0.647-11.035-0.972-16.555c-0.445-0.012-0.892-0.023-1.337-0.035c-0.456,5.266-0.912,10.532-1.368,15.798
		c-0.569-0.018-1.139-0.034-1.709-0.051c-0.397-5.128-0.794-10.257-1.191-15.385c-0.379-0.026-0.759-0.053-1.138-0.079
		c-0.479,5.449-0.956,10.897-1.435,16.346c-0.645-0.031-1.289-0.063-1.933-0.094c-0.271-5.457-0.542-10.914-0.813-16.371
		c-0.485-0.041-0.97-0.082-1.453-0.121c-0.416,5.264-0.831,10.528-1.247,15.793c-0.571,0.005-1.143,0.01-1.715,0.015
		c-0.431-5.166-0.862-10.331-1.294-15.498c-0.38-0.001-0.761-0.001-1.141-0.002c-0.454,5.421-0.908,10.842-1.362,16.263
		c-0.628-0.006-1.258-0.013-1.887-0.019c-0.326-5.523-0.651-11.048-0.977-16.571c-0.445-0.01-0.89-0.021-1.335-0.033
		c-0.46,5.273-0.921,10.545-1.381,15.817c-0.567-0.018-1.136-0.034-1.703-0.052c-0.396-5.138-0.792-10.277-1.187-15.415
		c-0.402-0.021-0.804-0.043-1.206-0.064c-0.418,5.394-0.835,10.786-1.253,16.179c-0.643,0.024-1.284,0.05-1.927,0.075
		c-0.326-5.461-0.652-10.923-0.979-16.384c-0.469-0.041-0.938-0.084-1.407-0.127c-0.416,5.281-0.832,10.562-1.248,15.842
		c-0.578-0.007-1.156-0.014-1.733-0.021c-0.411-5.097-0.823-10.193-1.234-15.291c-0.402-0.037-0.806-0.073-1.208-0.11
		c-0.437,5.392-0.873,10.781-1.309,16.171c-0.641-0.004-1.281-0.008-1.92-0.011c-0.321-5.528-0.642-11.056-0.963-16.583
		c-0.447-0.01-0.895-0.02-1.342-0.029c-0.463,5.273-0.926,10.549-1.389,15.823c-0.565-0.021-1.13-0.042-1.695-0.063
		c-0.396-5.14-0.791-10.281-1.187-15.422c-0.401-0.021-0.804-0.042-1.206-0.063c-0.418,5.402-0.835,10.804-1.252,16.205
		c-0.648,0.021-1.297,0.043-1.945,0.064c-0.315-5.464-0.63-10.93-0.945-16.393c-0.474-0.027-0.948-0.053-1.422-0.08
		c-0.417,5.25-0.834,10.5-1.252,15.75c-0.577,0.003-1.156,0.006-1.734,0.008c-0.409-5.093-0.819-10.186-1.229-15.279
		c-0.402-0.041-0.805-0.083-1.207-0.124c-0.438,5.413-0.875,10.825-1.313,16.236c-0.645-0.014-1.289-0.028-1.933-0.042
		c-0.313-5.534-0.626-11.07-0.939-16.604c-0.469-0.006-0.938-0.01-1.406-0.014c-0.209,2.687-0.414,5.373-0.627,8.06
		c-0.206,2.596-0.42,5.188-0.631,7.783c-0.589-0.033-1.179-0.067-1.768-0.101c-0.397-5.141-0.794-10.283-1.19-15.424
		c-0.401-0.021-0.804-0.041-1.205-0.062c-0.418,5.411-0.835,10.822-1.252,16.233c-0.655,0.021-1.312,0.043-1.967,0.064
		c-0.304-5.473-0.606-10.947-0.91-16.42c-0.459-0.025-0.917-0.051-1.376-0.076c-0.231,2.587-0.483,5.172-0.689,7.762
		c-0.212,2.656-0.38,5.314-0.566,7.973c-0.6,0.008-1.199,0.016-1.798,0.022c-0.406-5.095-0.813-10.19-1.219-15.285
		c-0.402-0.04-0.805-0.08-1.207-0.12c-0.438,5.42-0.875,10.842-1.313,16.262c-0.649-0.016-1.3-0.032-1.949-0.048
		c-0.306-5.54-0.611-11.081-0.916-16.62c-0.459-0.006-0.917-0.012-1.375-0.018c-0.455,5.277-0.91,10.555-1.366,15.832
		c-0.565-0.027-1.131-0.055-1.696-0.082c-0.398-5.138-0.796-10.275-1.193-15.414c-0.401-0.019-0.803-0.037-1.204-0.056
		c-0.418,5.417-0.835,10.835-1.253,16.252c-0.662,0.012-1.324,0.023-1.987,0.036c-0.292-5.477-0.584-10.953-0.877-16.43
		c-0.464-0.023-0.929-0.047-1.394-0.07c-0.229,2.595-0.477,5.188-0.684,7.785c-0.212,2.648-0.383,5.301-0.572,7.951
		c-0.602,0.005-1.203,0.011-1.805,0.016c-0.401-5.097-0.802-10.195-1.203-15.293c-0.403-0.034-0.807-0.068-1.21-0.103
		c-0.437,5.417-0.872,10.832-1.309,16.247c-0.655-0.011-1.312-0.022-1.967-0.034c-0.298-5.542-0.597-11.085-0.895-16.626
		c-0.466-0.006-0.932-0.012-1.397-0.016c-0.444,5.277-0.89,10.557-1.335,15.836c-0.571-0.029-1.144-0.059-1.715-0.087
		c-0.397-5.135-0.796-10.269-1.193-15.404c-0.401-0.017-0.803-0.033-1.204-0.05c-0.417,5.412-0.834,10.824-1.251,16.236
		c-0.67,0.016-1.338,0.031-2.007,0.047c-0.282-5.481-0.564-10.965-0.848-16.445c-0.482-0.021-0.966-0.043-1.448-0.064
		c-0.43,5.258-0.858,10.514-1.287,15.77c-0.579-0.007-1.159-0.013-1.738-0.02c-0.397-5.101-0.796-10.201-1.193-15.303
		c-0.402-0.034-0.805-0.067-1.207-0.101c-0.439,5.421-0.879,10.844-1.318,16.266c-0.656-0.012-1.313-0.023-1.969-0.035
		c-0.292-5.547-0.585-11.095-0.878-16.642c-0.482,0-0.965,0.002-1.448,0.002c-0.394,5.25-0.787,10.5-1.18,15.749
		c-0.586,0.025-1.172,0.051-1.758,0.076c-0.421-5.159-0.842-10.319-1.263-15.479c-0.401-0.016-0.803-0.03-1.204-0.046
		c-0.418,5.412-0.837,10.823-1.256,16.234c-0.671,0.018-1.342,0.035-2.013,0.054c-0.277-5.49-0.554-10.981-0.831-16.472
		c-0.474-0.02-0.947-0.039-1.422-0.061c-0.226,2.611-0.465,5.221-0.673,7.834c-0.21,2.636-0.39,5.273-0.582,7.911
		c-0.602,0.002-1.203,0.004-1.805,0.005c-0.397-5.104-0.795-10.209-1.191-15.313c-0.401-0.033-0.803-0.066-1.204-0.099
		c-0.443,5.428-0.885,10.854-1.328,16.28c-0.656-0.014-1.313-0.027-1.969-0.041c-0.288-5.552-0.575-11.104-0.863-16.655
		c-0.487,0.004-0.974,0.008-1.461,0.01c-0.201,2.721-0.401,5.441-0.604,8.161c-0.188,2.537-0.379,5.073-0.567,7.609
		c-0.589,0.027-1.178,0.055-1.767,0.082c-0.419-5.164-0.838-10.329-1.258-15.492c-0.401-0.014-0.802-0.027-1.203-0.041
		c-0.422,5.419-0.844,10.837-1.266,16.254c-0.668,0.011-1.335,0.021-2.003,0.032c-0.277-5.495-0.556-10.99-0.834-16.486
		c-0.481-0.018-0.962-0.037-1.442-0.055c-0.438,5.258-0.876,10.519-1.313,15.777c-0.574-0.009-1.147-0.018-1.721-0.025
		c-0.399-5.109-0.798-10.219-1.197-15.328c-0.398-0.032-0.798-0.064-1.197-0.097c-0.447,5.433-0.895,10.865-1.342,16.297
		c-0.656-0.019-1.313-0.037-1.971-0.057c-0.28-5.545-0.562-11.091-0.843-16.636c-0.486,0-0.973,0-1.459,0.002
		c-0.4,5.262-0.8,10.526-1.199,15.79c-0.584,0.027-1.168,0.055-1.751,0.082c-0.42-5.17-0.839-10.339-1.258-15.509
		c-0.399-0.011-0.798-0.021-1.197-0.033c-0.426,5.42-0.853,10.839-1.279,16.257c-0.661,0.01-1.323,0.019-1.984,0.027
		c-0.284-5.501-0.568-11.003-0.853-16.503c-0.476-0.018-0.951-0.033-1.427-0.051c-0.44,5.26-0.882,10.519-1.323,15.778
		c-0.572-0.01-1.146-0.019-1.719-0.027c-0.398-5.112-0.797-10.226-1.196-15.338c-0.396-0.031-0.794-0.063-1.19-0.095
		c-0.453,5.438-0.906,10.873-1.358,16.31c-0.658-0.021-1.315-0.041-1.973-0.062c-0.274-5.548-0.549-11.098-0.823-16.645
		c-0.488,0.008-0.977,0.016-1.465,0.021c-0.403,5.268-0.808,10.534-1.212,15.8c-0.58,0.026-1.16,0.053-1.74,0.079
		c-0.42-5.172-0.841-10.344-1.262-15.517c-0.396-0.009-0.792-0.018-1.188-0.026c-0.431,5.42-0.862,10.84-1.294,16.26
		c-0.654,0.002-1.309,0.004-1.963,0.007c-0.294-5.503-0.588-11.005-0.881-16.507c-0.472-0.016-0.942-0.029-1.413-0.043
		c-0.22,2.635-0.447,5.27-0.657,7.905c-0.208,2.617-0.399,5.235-0.598,7.853c-0.596-0.004-1.192-0.008-1.788-0.011
		c-0.397-5.115-0.795-10.231-1.192-15.347c-0.395-0.031-0.789-0.062-1.184-0.092c-0.458,5.436-0.917,10.871-1.375,16.307
		c-0.658-0.019-1.316-0.036-1.975-0.055c-0.27-5.542-0.537-11.086-0.807-16.627c-0.489,0.008-0.979,0.016-1.469,0.025
		c-0.407,5.268-0.815,10.534-1.224,15.802c-0.575,0.024-1.149,0.049-1.725,0.073c-0.425-5.173-0.849-10.348-1.273-15.521
		c-0.392-0.007-0.783-0.014-1.175-0.021c-0.436,5.421-0.871,10.843-1.308,16.263c-0.647,0.003-1.295,0.006-1.942,0.01
		c-0.305-5.51-0.609-11.02-0.914-16.529c-0.459-0.014-0.918-0.027-1.378-0.041c-0.446,5.258-0.894,10.518-1.341,15.776
		c-0.573-0.007-1.147-0.014-1.721-0.021c-0.396-5.124-0.794-10.248-1.191-15.371c-0.391-0.028-0.781-0.057-1.172-0.085
		c-0.465,5.442-0.93,10.886-1.395,16.327c-0.657-0.024-1.314-0.049-1.971-0.073c-0.266-5.529-0.531-11.06-0.797-16.587
		c-0.491,0.002-0.982,0.006-1.473,0.01c-0.411,5.268-0.821,10.535-1.232,15.803c-0.568,0.022-1.136,0.045-1.704,0.067
		c-0.43-5.173-0.86-10.347-1.29-15.521c-0.387-0.001-0.773-0.002-1.16-0.003c-0.44,5.407-0.882,10.815-1.322,16.224
		c-0.641,0.008-1.283,0.016-1.925,0.023c-0.314-5.513-0.629-11.025-0.943-16.537c-0.452-0.014-0.903-0.027-1.355-0.041
		c-0.451,5.262-0.901,10.523-1.353,15.784c-0.572-0.013-1.145-0.024-1.717-0.037c-0.397-5.123-0.795-10.245-1.191-15.369
		c-0.386-0.028-0.772-0.056-1.158-0.084c-0.47,5.44-0.94,10.883-1.411,16.323c-0.646-0.026-1.292-0.052-1.938-0.078
		c-0.271-5.457-0.54-10.914-0.811-16.371c-0.484-0.043-0.968-0.086-1.452-0.129c-0.419,5.262-0.837,10.525-1.257,15.788
		c-0.568,0.007-1.137,0.014-1.705,0.021c-0.434-5.17-0.867-10.34-1.301-15.509c-0.383,0.001-0.766,0.003-1.149,0.004
		c-0.445,5.407-0.892,10.815-1.338,16.222c-0.636,0.006-1.271,0.012-1.907,0.017c-0.321-5.518-0.645-11.036-0.967-16.554
		c-0.446-0.012-0.893-0.021-1.339-0.033c-0.455,5.264-0.91,10.529-1.364,15.794c-0.57-0.016-1.142-0.031-1.712-0.047
		c-0.397-5.127-0.795-10.255-1.192-15.381c-0.381-0.026-0.762-0.054-1.143-0.08c-0.475,5.444-0.951,10.888-1.427,16.331
		c-0.646-0.027-1.291-0.054-1.936-0.081c-0.271-5.457-0.541-10.915-0.812-16.372c-0.484-0.041-0.97-0.082-1.454-0.125
		c-0.416,5.266-0.832,10.532-1.248,15.798c-0.569,0.01-1.139,0.019-1.709,0.028c-0.433-5.17-0.866-10.34-1.3-15.511
		c-0.38-0.004-0.761-0.007-1.142-0.01c-0.452,5.421-0.905,10.843-1.357,16.264c-0.631-0.005-1.261-0.011-1.891-0.016
		c-0.326-5.522-0.651-11.044-0.976-16.567c-0.445-0.01-0.891-0.021-1.335-0.031c-0.459,5.268-0.918,10.537-1.376,15.805
		c-0.569-0.019-1.139-0.038-1.708-0.058c-0.396-5.131-0.791-10.263-1.187-15.393c-0.377-0.025-0.753-0.051-1.13-0.076
		c-0.481,5.446-0.964,10.893-1.444,16.339c-0.644-0.028-1.286-0.056-1.929-0.084c-0.272-5.457-0.544-10.914-0.816-16.371
		c-0.483-0.039-0.969-0.078-1.453-0.119c-0.415,5.268-0.83,10.535-1.245,15.803c-0.579-0.006-1.158-0.011-1.736-0.017
		c-0.411-5.09-0.822-10.181-1.233-15.271c-0.325-0.026-0.649-0.053-0.975-0.078c-0.322,5.118-0.644,10.234-0.966,15.352
		c-0.625-0.021-1.251-0.042-1.877-0.063c-0.397-5.135-0.795-10.269-1.193-15.404c-0.38-0.025-0.76-0.05-1.139-0.075
		c-0.478,5.449-0.955,10.896-1.432,16.345c-0.645-0.031-1.29-0.063-1.935-0.094c-0.271-5.457-0.541-10.915-0.812-16.37
		c-0.484-0.043-0.969-0.084-1.453-0.125c-0.416,5.266-0.832,10.531-1.247,15.796c-0.571,0.01-1.142,0.02-1.712,0.029
		c-0.433-5.17-0.865-10.339-1.297-15.509c-0.381,0.001-0.762,0.003-1.142,0.004c-0.452,5.408-0.905,10.817-1.358,16.226
		c-0.63,0.002-1.261,0.004-1.891,0.005c-0.325-5.521-0.651-11.045-0.977-16.566c-0.461-0.008-0.921-0.016-1.381-0.025
		c-0.213,2.67-0.425,5.34-0.638,8.009c-0.206,2.591-0.413,5.181-0.62,7.771c-0.593-0.008-1.187-0.016-1.779-0.023
		c-0.396-5.138-0.791-10.276-1.188-15.414c-0.375-0.023-0.751-0.048-1.127-0.072c-0.483,5.452-0.967,10.902-1.449,16.353
		c-0.642-0.031-1.283-0.063-1.925-0.096c-0.272-5.457-0.545-10.914-0.817-16.371c-0.484-0.037-0.969-0.074-1.453-0.113
		c-0.415,5.262-0.83,10.523-1.245,15.785c-0.576,0.009-1.153,0.019-1.729,0.028c-0.424-5.164-0.847-10.329-1.271-15.493
		c-0.382-0.001-0.764-0.002-1.146-0.003c-0.458,5.421-0.916,10.842-1.374,16.262c-0.628-0.008-1.257-0.016-1.887-0.022
		c-0.321-5.528-0.643-11.057-0.964-16.584c-0.447-0.01-0.895-0.02-1.342-0.029c-0.462,5.275-0.924,10.549-1.387,15.823
		c-0.565-0.023-1.131-0.047-1.696-0.07c-0.396-5.137-0.791-10.274-1.187-15.411c-0.402-0.021-0.805-0.043-1.207-0.064
		c-0.417,5.4-0.835,10.802-1.252,16.202c-0.647,0.022-1.295,0.046-1.942,0.069c-0.316-5.466-0.633-10.932-0.949-16.396
		c-0.474-0.027-0.947-0.053-1.421-0.08c-0.416,5.25-0.833,10.501-1.249,15.75c-0.578,0.009-1.157,0.017-1.735,0.025
		c-0.41-5.1-0.82-10.201-1.23-15.301c-0.402-0.034-0.805-0.069-1.207-0.104c-0.437,5.396-0.873,10.793-1.31,16.189
		c-0.645-0.004-1.289-0.009-1.934-0.013c-0.313-5.534-0.628-11.067-0.942-16.603c-0.468-0.004-0.937-0.01-1.405-0.014
		c-0.208,2.686-0.414,5.373-0.627,8.058c-0.205,2.596-0.419,5.19-0.63,7.785c-0.589-0.033-1.179-0.066-1.769-0.1
		c-0.396-5.141-0.793-10.282-1.189-15.423c-0.401-0.021-0.804-0.041-1.205-0.062c-0.418,5.409-0.835,10.82-1.253,16.229
		c-0.654,0.022-1.309,0.044-1.963,0.065c-0.306-5.473-0.61-10.944-0.916-16.417c-0.476-0.025-0.952-0.049-1.428-0.074
		c-0.422,5.252-0.844,10.506-1.266,15.758c-0.577-0.001-1.155-0.002-1.733-0.004c-0.407-5.094-0.813-10.189-1.22-15.284
		c-0.402-0.04-0.805-0.081-1.207-0.121c-0.438,5.419-0.875,10.84-1.313,16.26c-0.649-0.016-1.299-0.032-1.947-0.048
		c-0.307-5.539-0.613-11.08-0.919-16.619c-0.458-0.006-0.916-0.012-1.374-0.016c-0.456,5.275-0.912,10.554-1.367,15.83
		c-0.565-0.027-1.131-0.055-1.696-0.081c-0.397-5.139-0.796-10.276-1.193-15.416c-0.401-0.019-0.802-0.038-1.203-0.057
		c-0.417,5.413-0.835,10.824-1.252,16.236c-0.663,0.021-1.324,0.04-1.987,0.061c-0.293-5.479-0.586-10.956-0.879-16.435
		c-0.48-0.023-0.961-0.047-1.441-0.068c-0.424,5.254-0.849,10.508-1.272,15.762c-0.579,0.001-1.158,0.002-1.737,0.003
		c-0.402-5.104-0.805-10.208-1.208-15.313c-0.403-0.033-0.806-0.065-1.209-0.099c-0.436,5.418-0.872,10.835-1.308,16.251
		c-0.655-0.013-1.311-0.026-1.965-0.04c-0.298-5.541-0.598-11.082-0.896-16.625c-0.465-0.004-0.93-0.01-1.395-0.016
		c-0.446,5.277-0.893,10.558-1.339,15.836c-0.57-0.029-1.141-0.058-1.712-0.087c-0.398-5.135-0.796-10.269-1.194-15.404
		c-0.401-0.018-0.802-0.034-1.203-0.051c-0.417,5.411-0.834,10.824-1.252,16.236c-0.669,0.016-1.338,0.03-2.007,0.046
		c-0.283-5.48-0.565-10.961-0.848-16.443c-0.483-0.021-0.966-0.041-1.449-0.063c-0.429,5.256-0.857,10.512-1.286,15.768
		c-0.58-0.006-1.159-0.013-1.738-0.019c-0.398-5.101-0.796-10.202-1.194-15.303c-0.403-0.033-0.805-0.067-1.208-0.101
		c-0.439,5.422-0.878,10.844-1.317,16.265c-0.656-0.012-1.312-0.022-1.968-0.034c-0.293-5.549-0.587-11.098-0.88-16.648
		c-0.482,0.004-0.964,0.006-1.447,0.008c-0.394,5.25-0.787,10.499-1.18,15.748c-0.586,0.025-1.172,0.051-1.757,0.075
		c-0.421-5.158-0.842-10.317-1.263-15.477c-0.401-0.016-0.802-0.031-1.204-0.047c-0.418,5.411-0.837,10.823-1.255,16.234
		c-0.671,0.011-1.343,0.021-2.014,0.032c-0.277-5.482-0.554-10.965-0.832-16.447c-0.474-0.02-0.947-0.041-1.42-0.063
		c-0.226,2.611-0.466,5.221-0.674,7.832c-0.21,2.637-0.389,5.275-0.582,7.913c-0.602,0.002-1.204,0.004-1.805,0.006
		c-0.397-5.104-0.794-10.21-1.191-15.313c-0.401-0.033-0.803-0.066-1.204-0.099c-0.442,5.427-0.885,10.854-1.328,16.28
		c-0.656-0.014-1.313-0.028-1.969-0.042c-0.288-5.551-0.576-11.103-0.864-16.655c-0.484,0.006-0.969,0.012-1.453,0.016
		c-0.396,5.256-0.791,10.512-1.187,15.767c-0.585,0.026-1.171,0.053-1.757,0.078c-0.419-5.163-0.839-10.327-1.258-15.49
		c-0.401-0.014-0.802-0.027-1.202-0.041c-0.422,5.417-0.844,10.836-1.266,16.254c-0.668,0.011-1.335,0.021-2.003,0.032
		c-0.278-5.495-0.556-10.99-0.833-16.484c-0.476-0.02-0.951-0.039-1.427-0.057c-0.224,2.618-0.459,5.236-0.667,7.855
		c-0.209,2.631-0.393,5.262-0.587,7.894c-0.599,0.001-1.197,0.002-1.796,0.003c-0.398-5.109-0.797-10.219-1.196-15.327
		c-0.399-0.032-0.798-0.064-1.197-0.097c-0.447,5.43-0.894,10.859-1.341,16.289c-0.657-0.017-1.314-0.032-1.971-0.049
		c-0.281-5.546-0.563-11.092-0.844-16.637c-0.486,0-0.973,0-1.459,0.002c-0.399,5.262-0.799,10.526-1.198,15.789
		c-0.584,0.027-1.168,0.055-1.751,0.082c-0.42-5.169-0.839-10.338-1.259-15.508c-0.399-0.009-0.798-0.017-1.198-0.025
		c-0.425,5.41-0.851,10.819-1.276,16.229c-0.662,0.016-1.324,0.032-1.986,0.048c-0.284-5.501-0.568-11.003-0.852-16.503
		c-0.476-0.018-0.952-0.033-1.428-0.051c-0.441,5.26-0.882,10.52-1.324,15.778c-0.572-0.009-1.145-0.019-1.718-0.027
		c-0.398-5.112-0.797-10.226-1.196-15.337c-0.397-0.032-0.794-0.063-1.191-0.095c-0.452,5.433-0.904,10.865-1.356,16.298
		c-0.658-0.017-1.316-0.033-1.974-0.05c-0.275-5.549-0.55-11.097-0.824-16.646c-0.488,0.008-0.976,0.014-1.464,0.021
		c-0.404,5.266-0.808,10.533-1.211,15.8c-0.58,0.026-1.16,0.053-1.74,0.079c-0.42-5.172-0.841-10.344-1.262-15.517
		c-0.396-0.005-0.793-0.011-1.189-0.016c-0.43,5.409-0.86,10.817-1.29,16.225c-0.655,0.015-1.31,0.029-1.965,0.043
		c-0.293-5.506-0.587-11.011-0.88-16.517c-0.468-0.016-0.936-0.031-1.404-0.045c-0.444,5.258-0.888,10.516-1.331,15.773
		c-0.574-0.009-1.148-0.018-1.721-0.026c-0.397-5.115-0.795-10.231-1.193-15.347c-0.395-0.03-0.789-0.061-1.184-0.092
		c-0.458,5.436-0.917,10.871-1.374,16.307c-0.658-0.02-1.316-0.038-1.975-0.058c-0.269-5.534-0.538-11.069-0.807-16.604
		c-0.49,0.002-0.979,0.004-1.469,0.006c-0.408,5.268-0.816,10.534-1.224,15.801c-0.575,0.024-1.15,0.049-1.726,0.073
		c-0.424-5.173-0.848-10.345-1.272-15.519c-0.392-0.003-0.784-0.006-1.176-0.009c-0.435,5.407-0.87,10.816-1.305,16.224
		c-0.648,0.012-1.297,0.023-1.945,0.035c-0.304-5.51-0.608-11.02-0.913-16.529c-0.46-0.014-0.919-0.027-1.378-0.041
		c-0.447,5.258-0.894,10.518-1.341,15.776c-0.573-0.007-1.147-0.015-1.72-0.021c-0.397-5.123-0.794-10.247-1.192-15.37
		c-0.391-0.028-0.781-0.056-1.172-0.084c-0.464,5.438-0.929,10.877-1.394,16.314c-0.657-0.021-1.314-0.041-1.972-0.061
		c-0.265-5.53-0.531-11.061-0.796-16.59c-0.492,0.004-0.983,0.008-1.474,0.012c-0.41,5.268-0.821,10.534-1.232,15.802
		c-0.568,0.023-1.136,0.046-1.704,0.068c-0.43-5.174-0.86-10.347-1.29-15.521c-0.387-0.001-0.774-0.003-1.161-0.004
		c-0.44,5.408-0.88,10.816-1.321,16.224c-0.642,0.013-1.284,0.024-1.925,0.037c-0.315-5.52-0.63-11.04-0.944-16.56
		c-0.452-0.01-0.904-0.02-1.355-0.029c-0.45,5.26-0.901,10.521-1.351,15.782c-0.572-0.008-1.144-0.015-1.716-0.022
		c-0.398-5.129-0.796-10.258-1.194-15.388c-0.386-0.026-0.772-0.053-1.157-0.08c-0.471,5.442-0.941,10.883-1.411,16.323
		c-0.646-0.025-1.292-0.052-1.938-0.078c-0.27-5.456-0.541-10.914-0.811-16.371c-0.484-0.043-0.967-0.088-1.451-0.131
		c-0.419,5.262-0.838,10.525-1.258,15.788c-0.568,0.008-1.136,0.015-1.705,0.022c-0.434-5.17-0.868-10.34-1.302-15.509
		c-0.382-0.004-0.765-0.008-1.147-0.012c-0.446,5.423-0.894,10.844-1.341,16.265c-0.635-0.004-1.27-0.008-1.905-0.011
		c-0.323-5.517-0.645-11.034-0.968-16.55c-0.446-0.012-0.893-0.025-1.339-0.037c-0.455,5.264-0.909,10.529-1.364,15.794
		c-0.57-0.01-1.14-0.021-1.71-0.03c-0.398-5.134-0.796-10.268-1.194-15.401c-0.381-0.025-0.762-0.051-1.142-0.076
		c-0.476,5.444-0.952,10.888-1.427,16.331c-0.646-0.026-1.291-0.054-1.936-0.081c-0.271-5.457-0.542-10.915-0.812-16.372
		c-0.484-0.041-0.968-0.082-1.453-0.125c-0.417,5.266-0.833,10.532-1.249,15.798c-0.57,0.01-1.14,0.019-1.71,0.028
		c-0.433-5.17-0.866-10.34-1.299-15.511c-0.38,0-0.761,0-1.142,0c-0.452,5.409-0.903,10.819-1.354,16.229
		c-0.631,0.003-1.262,0.006-1.893,0.008c-0.326-5.521-0.651-11.042-0.977-16.563c-0.445-0.012-0.889-0.023-1.334-0.033
		c-0.459,5.268-0.917,10.537-1.376,15.805c-0.569-0.014-1.138-0.027-1.707-0.042c-0.396-5.137-0.792-10.274-1.188-15.412
		c-0.377-0.024-0.753-0.049-1.13-0.072c-0.481,5.446-0.963,10.893-1.445,16.339c-0.643-0.028-1.285-0.056-1.928-0.084
		c-0.272-5.457-0.544-10.914-0.816-16.371c-0.484-0.039-0.969-0.076-1.454-0.113c-0.414,5.262-0.829,10.522-1.244,15.784
		c-0.575,0.01-1.151,0.02-1.726,0.029c-0.426-5.165-0.852-10.331-1.276-15.496c-0.382,0.002-0.763,0.004-1.145,0.007
		c-0.456,5.408-0.912,10.818-1.369,16.227c-0.629,0.001-1.259,0.002-1.888,0.003c-0.323-5.527-0.646-11.054-0.968-16.581
		c-0.446-0.01-0.893-0.02-1.339-0.029c-0.462,5.273-0.924,10.547-1.386,15.821c-0.566-0.023-1.132-0.046-1.699-0.069
		c-0.395-5.136-0.791-10.271-1.186-15.408c-0.402-0.021-0.805-0.044-1.207-0.065c-0.417,5.399-0.834,10.798-1.252,16.196
		c-0.646,0.022-1.292,0.046-1.938,0.069c-0.318-5.464-0.637-10.927-0.956-16.392c-0.473-0.027-0.946-0.053-1.419-0.08
		c-0.416,5.248-0.832,10.499-1.247,15.748c-0.579,0.009-1.157,0.018-1.736,0.026c-0.411-5.099-0.821-10.198-1.232-15.298
		c-0.403-0.035-0.805-0.07-1.207-0.105c-0.437,5.395-0.873,10.791-1.309,16.186c-0.644-0.004-1.287-0.009-1.931-0.013
		c-0.315-5.532-0.631-11.065-0.947-16.599c-0.467-0.004-0.935-0.01-1.402-0.014c-0.209,2.684-0.415,5.367-0.628,8.052
		c-0.206,2.598-0.419,5.192-0.629,7.79c-0.589-0.033-1.18-0.066-1.77-0.1c-0.396-5.14-0.793-10.279-1.189-15.42
		c-0.402-0.021-0.804-0.041-1.206-0.062c-0.417,5.413-0.835,10.828-1.253,16.242c-0.653,0.016-1.305,0.031-1.958,0.048
		c-0.307-5.472-0.614-10.943-0.921-16.414c-0.476-0.025-0.952-0.049-1.427-0.074c-0.421,5.252-0.842,10.504-1.263,15.755
		c-0.578,0-1.155,0-1.733,0c-0.408-5.095-0.815-10.188-1.222-15.284c-0.403-0.034-0.806-0.069-1.208-0.104
		c-0.437,5.403-0.873,10.806-1.309,16.207c-0.649-0.005-1.298-0.011-1.948-0.016c-0.308-5.539-0.615-11.077-0.923-16.616
		c-0.472-0.004-0.943-0.006-1.416-0.01c-0.207,2.692-0.41,5.385-0.623,8.077c-0.204,2.573-0.418,5.146-0.628,7.719
		c-0.59-0.019-1.18-0.036-1.769-0.054c-0.397-5.139-0.795-10.279-1.193-15.418c-0.401-0.02-0.803-0.039-1.204-0.058
		c-0.417,5.411-0.834,10.824-1.251,16.236c-0.661,0.021-1.322,0.04-1.982,0.061c-0.296-5.477-0.591-10.954-0.887-16.431
		c-0.479-0.023-0.959-0.047-1.438-0.07c-0.424,5.254-0.848,10.508-1.271,15.762c-0.579-0.004-1.158-0.008-1.737-0.011
		c-0.403-5.097-0.806-10.194-1.208-15.291c-0.404-0.034-0.808-0.068-1.211-0.104c-0.435,5.413-0.87,10.827-1.305,16.24
		c-0.654-0.01-1.309-0.019-1.964-0.027c-0.3-5.544-0.601-11.089-0.901-16.632c-0.464-0.004-0.927-0.008-1.391-0.014
		c-0.448,5.279-0.896,10.558-1.345,15.836c-0.569-0.026-1.138-0.053-1.708-0.079c-0.398-5.139-0.796-10.276-1.194-15.416
		c-0.401-0.017-0.802-0.033-1.203-0.05c-0.417,5.412-0.834,10.825-1.251,16.237c-0.668,0.016-1.335,0.031-2.003,0.047
		c-0.285-5.479-0.569-10.96-0.854-16.44c-0.469-0.021-0.937-0.045-1.405-0.066c-0.229,2.601-0.473,5.201-0.681,7.803
		c-0.21,2.645-0.384,5.291-0.575,7.938c-0.603,0.005-1.206,0.01-1.808,0.016C49.798,37.882,49.399,32.779,49,27.678
		c-0.402-0.033-0.805-0.066-1.207-0.099c-0.438,5.423-0.875,10.845-1.312,16.268c-0.658-0.013-1.315-0.025-1.972-0.038
		c-0.294-5.548-0.589-11.096-0.883-16.643c-0.471-0.004-0.942-0.008-1.413-0.01c-0.438,5.279-0.875,10.559-1.312,15.838
		c-0.577-0.029-1.154-0.06-1.731-0.089c-0.397-5.132-0.795-10.263-1.192-15.396c-0.401-0.016-0.802-0.031-1.202-0.046
		c-0.418,5.411-0.836,10.823-1.254,16.234c-0.671,0.019-1.342,0.036-2.013,0.055c-0.278-5.488-0.556-10.978-0.834-16.466
		c-0.483-0.021-0.967-0.041-1.45-0.063c-0.433,5.258-0.865,10.516-1.297,15.773c-0.578-0.008-1.155-0.016-1.732-0.023
		c-0.397-5.104-0.794-10.207-1.191-15.312c-0.402-0.033-0.804-0.065-1.206-0.099c-0.441,5.426-0.883,10.853-1.325,16.278
		c-0.656-0.015-1.313-0.029-1.969-0.044c-0.289-5.547-0.578-11.094-0.866-16.641c-0.484,0.002-0.969,0.004-1.453,0.004
		C19.79,32.416,19.395,37.67,19,42.924c-0.586,0.026-1.171,0.052-1.757,0.077c-0.42-5.162-0.84-10.325-1.26-15.487
		c-0.401-0.013-0.802-0.025-1.203-0.038c-0.421,5.411-0.841,10.821-1.262,16.232c-0.669,0.015-1.338,0.03-2.007,0.046
		c-0.279-5.454-0.559-10.908-0.838-16.361c-0.464,0.004-0.929,0.007-1.393,0.011C9.005,32.471,8.73,37.539,8.457,42.607
		c-0.558-0.033-1.115-0.064-1.673-0.098C4.711,28.565,4.002,14.629,7.1,0.715C7.682,0.677,8.264,0.64,8.846,0.602
		C9.097,5.34,9.348,10.078,9.6,14.815c0.381,0.015,0.761,0.028,1.142,0.043C11.144,10,11.546,5.144,11.948,0.286
		c0.589-0.013,1.178-0.025,1.768-0.038c0.378,5.043,0.757,10.086,1.136,15.131c0.376-0.007,0.752-0.014,1.128-0.021
		c0.414-5.054,0.828-10.105,1.242-15.158c0.561,0,1.122,0,1.683-0.001c0.563,5.029,1.125,10.059,1.687,15.088
		c0.368,0.011,0.735,0.021,1.102,0.033c0.404-4.953,0.809-9.907,1.213-14.859c0.566-0.047,1.131-0.093,1.697-0.139
		c0.421,4.97,0.843,9.939,1.264,14.91c0.388,0.016,0.775,0.03,1.163,0.045c0.365-4.984,0.729-9.968,1.094-14.951
		c0.597-0.039,1.193-0.078,1.79-0.116c0.543,4.993,1.086,9.987,1.629,14.982c0.362,0.047,0.724,0.094,1.085,0.141
		c0.449-4.995,0.897-9.988,1.346-14.982c0.578-0.033,1.155-0.066,1.732-0.1c0.371,5.028,0.741,10.058,1.111,15.088
		c0.392,0.004,0.783,0.007,1.175,0.011c0.394-5.021,0.788-10.043,1.183-15.064c0.564-0.024,1.128-0.049,1.692-0.073
		c0.572,5.028,1.144,10.058,1.716,15.086c0.348,0.028,0.695,0.056,1.042,0.084c0.46-5.036,0.92-10.07,1.38-15.104
		c0.577-0.021,1.154-0.04,1.732-0.061c0.363,5.06,0.727,10.119,1.09,15.179c0.379-0.004,0.758-0.008,1.136-0.013
		c0.421-5.057,0.842-10.113,1.263-15.169c0.558-0.005,1.116-0.011,1.674-0.016c0.56,5.03,1.12,10.062,1.68,15.092
		c0.371,0.016,0.742,0.031,1.113,0.048c0.403-4.951,0.806-9.9,1.209-14.85c0.56-0.05,1.119-0.1,1.679-0.149
		c0.43,4.953,0.859,9.907,1.289,14.861c0.386,0.021,0.772,0.043,1.159,0.064c0.364-4.976,0.728-9.951,1.092-14.926
		c0.589-0.043,1.178-0.086,1.767-0.129c0.551,4.98,1.103,9.96,1.654,14.94c0.361,0.051,0.723,0.101,1.084,0.151
		c0.442-4.976,0.884-9.95,1.327-14.925c0.575-0.032,1.149-0.064,1.724-0.096c0.387,5.007,0.773,10.014,1.16,15.021
		c0.381,0.009,0.763,0.018,1.144,0.026c0.402-5.011,0.804-10.021,1.206-15.031c0.564-0.029,1.129-0.059,1.693-0.088
		c0.563,5.027,1.125,10.054,1.688,15.082c0.345,0.031,0.69,0.063,1.036,0.094c0.465-5.036,0.931-10.07,1.396-15.104
		c0.586-0.025,1.171-0.051,1.756-0.076c0.349,5.067,0.698,10.135,1.047,15.202c0.388-0.001,0.775-0.003,1.163-0.004
		c0.415-5.06,0.829-10.118,1.244-15.177c0.558-0.009,1.116-0.017,1.675-0.024c0.565,5.03,1.13,10.062,1.695,15.092
		c0.354,0.021,0.709,0.041,1.063,0.062c0.447-5.02,0.894-10.037,1.341-15.056c0.571-0.007,1.141-0.014,1.712-0.02
		c0.396,5.026,0.793,10.054,1.189,15.081c0.38-0.017,0.76-0.033,1.141-0.05c0.363-4.989,0.727-9.978,1.09-14.967
		c0.576-0.048,1.152-0.096,1.729-0.143c0.567,4.971,1.135,9.942,1.703,14.913c0.361,0.055,0.721,0.11,1.082,0.165
		c0.433-4.958,0.866-9.915,1.299-14.873c0.571-0.032,1.142-0.065,1.712-0.098c0.403,4.985,0.806,9.972,1.208,14.958
		c0.379,0.014,0.759,0.027,1.138,0.041c0.396-5,0.792-9.999,1.187-14.999c0.577-0.034,1.154-0.068,1.73-0.102
		c0.547,5.015,1.095,10.03,1.642,15.047c0.352,0.036,0.703,0.072,1.054,0.108c0.462-5.018,0.924-10.035,1.387-15.053
		c0.582-0.029,1.164-0.058,1.746-0.087c0.354,5.053,0.708,10.104,1.061,15.157c0.395-0.001,0.788-0.002,1.183-0.003
		c0.401-5.038,0.801-10.075,1.202-15.112c0.573-0.02,1.146-0.04,1.719-0.061c0.554,5.031,1.108,10.063,1.663,15.094
		c0.359,0.023,0.718,0.046,1.077,0.069c0.453-5.026,0.906-10.052,1.358-15.076c0.566-0.009,1.133-0.019,1.7-0.027
		c0.387,5.034,0.774,10.069,1.161,15.103c0.369-0.008,0.739-0.017,1.107-0.024c0.422-5.05,0.843-10.099,1.265-15.148
		c0.56,0.001,1.12,0.002,1.68,0.002c0.556,5.029,1.111,10.06,1.667,15.088c0.404-0.001,0.808-0.002,1.212-0.003
		c0.16-2.528,0.294-5.057,0.488-7.582c0.186-2.424,0.434-4.843,0.655-7.264c0.559-0.035,1.117-0.07,1.675-0.105
		c0.415,4.969,0.83,9.938,1.245,14.907c0.384,0.018,0.769,0.034,1.154,0.052c0.375-4.99,0.75-9.979,1.126-14.969
		c0.592-0.038,1.184-0.075,1.776-0.112c0.542,5.003,1.083,10.007,1.625,15.01c0.359,0.043,0.717,0.086,1.076,0.129
		c0.454-5.003,0.908-10.007,1.362-15.01c0.58-0.027,1.159-0.055,1.738-0.082c0.361,5.032,0.723,10.063,1.084,15.097
		c0.396,0.003,0.791,0.006,1.187,0.009c0.395-5.026,0.789-10.055,1.183-15.082c0.569-0.023,1.138-0.046,1.707-0.069
		c0.566,5.03,1.132,10.061,1.697,15.093c0.353,0.024,0.705,0.05,1.058,0.074c0.456-5.03,0.912-10.063,1.368-15.093
		c0.572-0.017,1.145-0.032,1.717-0.048c0.373,5.05,0.745,10.101,1.117,15.15c0.377-0.005,0.755-0.011,1.133-0.017
		c0.416-5.055,0.833-10.109,1.249-15.164c0.56-0.002,1.12-0.005,1.68-0.007c0.562,5.03,1.123,10.06,1.685,15.091
		c0.368,0.013,0.735,0.025,1.104,0.038c0.405-4.952,0.81-9.903,1.214-14.855c0.563-0.046,1.126-0.092,1.689-0.138
		c0.425,4.961,0.849,9.924,1.274,14.886c0.388,0.017,0.776,0.033,1.165,0.05c0.362-4.979,0.725-9.959,1.087-14.938
		c0.595-0.04,1.19-0.08,1.785-0.121c0.545,4.988,1.091,9.978,1.637,14.965c0.362,0.05,0.724,0.1,1.086,0.149
		c0.445-4.986,0.891-9.974,1.337-14.96c0.577-0.034,1.153-0.067,1.729-0.102c0.377,5.021,0.754,10.042,1.13,15.063
		c0.387,0.005,0.775,0.01,1.162,0.015c0.396-5.017,0.793-10.034,1.19-15.051c0.563-0.025,1.125-0.052,1.686-0.077
		c0.573,5.03,1.145,10.061,1.717,15.092c0.345,0.027,0.689,0.056,1.034,0.083c0.463-5.04,0.926-10.079,1.39-15.118
		c0.58-0.021,1.159-0.043,1.739-0.064c0.359,5.065,0.717,10.131,1.076,15.196c0.382-0.003,0.763-0.006,1.145-0.009
		c0.419-5.059,0.839-10.116,1.258-15.174c0.558-0.007,1.116-0.015,1.674-0.022c0.561,5.031,1.122,10.063,1.683,15.096
		c0.358,0.018,0.716,0.035,1.073,0.053c0.44-5.015,0.88-10.027,1.319-15.04c0.575-0.003,1.15-0.005,1.725-0.008
		c0.401,5.019,0.802,10.037,1.203,15.056c0.378-0.02,0.755-0.039,1.133-0.059c0.361-4.983,0.722-9.967,1.082-14.95
		c0.586-0.045,1.171-0.09,1.757-0.135c0.557,4.975,1.114,9.949,1.671,14.926c0.36,0.054,0.721,0.106,1.082,0.16
		c0.439-4.969,0.879-9.937,1.318-14.905c0.572-0.037,1.145-0.074,1.718-0.111c0.395,5.006,0.789,10.011,1.183,15.018
		c0.379,0.008,0.758,0.017,1.136,0.024c0.402-5.006,0.805-10.012,1.208-15.017c0.568-0.031,1.136-0.063,1.705-0.095
		c0.556,5.022,1.111,10.045,1.666,15.067c0.348,0.033,0.695,0.065,1.043,0.098c0.465-5.026,0.929-10.054,1.394-15.08
		c0.588-0.027,1.177-0.055,1.765-0.081c0.343,5.061,0.686,10.123,1.028,15.184c0.394,0,0.788-0.001,1.182-0.002
		c0.409-5.055,0.817-10.109,1.226-15.164c0.562-0.009,1.123-0.017,1.685-0.025c0.564,5.03,1.129,10.061,1.693,15.091
		c0.354,0.021,0.708,0.044,1.062,0.065c0.453-5.021,0.905-10.043,1.358-15.064c0.567-0.01,1.134-0.019,1.7-0.027
		c0.393,5.032,0.786,10.066,1.18,15.099c0.363-0.016,0.727-0.032,1.09-0.048c0.427-5.041,0.854-10.08,1.281-15.12
		c0.562,0.004,1.125,0.007,1.688,0.011c0.525,4.964,1.051,9.93,1.577,14.894c0.39,0.041,0.78,0.081,1.17,0.122
		c0.189-2.352,0.372-4.703,0.57-7.054c0.218-2.584,0.449-5.167,0.675-7.75c0.567-0.041,1.134-0.081,1.7-0.122
		c0.409,4.988,0.818,9.977,1.227,14.965c0.381,0.012,0.762,0.023,1.144,0.035c0.388-5,0.775-10.002,1.163-15.002
		c0.584-0.03,1.167-0.061,1.75-0.091c0.544,5.012,1.088,10.022,1.632,15.034c0.354,0.04,0.708,0.079,1.063,0.119
		c0.459-5.016,0.919-10.029,1.379-15.044c0.581-0.024,1.162-0.05,1.743-0.074c0.356,5.041,0.711,10.083,1.066,15.126
		c0.396,0,0.792,0.001,1.188,0.002c0.397-5.033,0.795-10.067,1.192-15.101c0.574-0.021,1.147-0.043,1.721-0.064
		c0.557,5.031,1.113,10.062,1.669,15.094c0.358,0.023,0.716,0.047,1.074,0.071c0.453-5.027,0.906-10.056,1.359-15.083
		c0.568-0.012,1.136-0.023,1.705-0.035c0.381,5.041,0.763,10.081,1.145,15.122c0.375-0.007,0.749-0.014,1.123-0.021
		c0.415-5.051,0.829-10.104,1.244-15.155c0.561,0,1.122,0.001,1.683,0.001c0.562,5.028,1.123,10.059,1.685,15.087
		c0.368,0.011,0.735,0.021,1.103,0.031c0.404-4.954,0.808-9.908,1.212-14.861c0.566-0.045,1.133-0.09,1.7-0.135
		c0.419,4.971,0.839,9.942,1.259,14.913c0.387,0.016,0.774,0.031,1.161,0.047c0.367-4.986,0.734-9.972,1.101-14.957
		c0.596-0.038,1.192-0.077,1.789-0.115c0.542,4.996,1.084,9.994,1.626,14.99c0.361,0.047,0.722,0.093,1.083,0.14
		c0.45-4.997,0.901-9.994,1.351-14.99c0.578-0.032,1.156-0.063,1.734-0.096c0.367,5.029,0.735,10.06,1.102,15.089
		c0.393,0.004,0.787,0.008,1.18,0.012c0.395-5.033,0.789-10.064,1.184-15.097c0.564-0.016,1.129-0.03,1.693-0.046
		c0.571,5.028,1.142,10.059,1.712,15.087c0.349,0.027,0.698,0.055,1.046,0.082c0.459-5.034,0.918-10.067,1.377-15.102
		c0.576-0.019,1.151-0.037,1.727-0.057c0.366,5.057,0.732,10.114,1.098,15.171c0.378-0.005,0.756-0.011,1.134-0.017
		c0.42-5.05,0.84-10.101,1.26-15.15c0.559-0.009,1.117-0.019,1.676-0.027c0.56,5.03,1.121,10.062,1.681,15.092
		c0.4,0.005,0.802,0.01,1.203,0.015c0.163-2.516,0.304-5.033,0.496-7.546c0.186-2.428,0.423-4.851,0.638-7.277
		c0.555-0.048,1.111-0.097,1.667-0.146c0.428,4.956,0.855,9.912,1.284,14.87c0.387,0.02,0.774,0.04,1.162,0.06
		c0.363-4.977,0.726-9.953,1.089-14.929c0.59-0.042,1.182-0.084,1.772-0.126c0.55,4.982,1.099,9.965,1.648,14.947
		c0.362,0.052,0.724,0.104,1.084,0.155c0.443-4.979,0.887-9.959,1.33-14.938c0.576-0.033,1.151-0.066,1.727-0.1
		c0.384,5.011,0.767,10.021,1.15,15.033c0.383,0.009,0.766,0.017,1.149,0.024c0.401-5.013,0.801-10.025,1.202-15.037
		c0.563-0.028,1.126-0.057,1.69-0.085c0.566,5.029,1.132,10.059,1.698,15.088c0.345,0.031,0.689,0.063,1.034,0.094
		c0.465-5.039,0.93-10.08,1.396-15.119c0.581-0.023,1.163-0.048,1.744-0.071c0.355,5.068,0.711,10.138,1.066,15.205
		c0.384-0.004,0.769-0.008,1.153-0.012c0.416-5.048,0.832-10.098,1.247-15.146c0.559-0.017,1.118-0.033,1.676-0.049
		c0.563,5.03,1.127,10.061,1.691,15.092c0.355,0.022,0.711,0.044,1.066,0.066c0.445-5.027,0.891-10.055,1.336-15.081
		c0.572,0.006,1.144,0.012,1.715,0.018c0.397,5.017,0.795,10.032,1.192,15.05c0.38-0.013,0.76-0.025,1.14-0.039
		c0.362-4.988,0.724-9.977,1.085-14.964c0.58-0.045,1.16-0.089,1.739-0.134c0.563,4.97,1.128,9.939,1.692,14.909
		c0.36,0.054,0.722,0.107,1.082,0.161c0.435-4.961,0.87-9.922,1.306-14.882c0.57-0.037,1.142-0.073,1.713-0.11
		c0.4,4.999,0.801,9.998,1.202,14.996c0.379,0.01,0.757,0.02,1.136,0.029c0.398-5.008,0.798-10.015,1.197-15.021
		c0.573-0.028,1.146-0.057,1.721-0.084c0.549,5.018,1.098,10.036,1.647,15.054c0.351,0.034,0.7,0.069,1.051,0.104
		c0.464-5.021,0.927-10.041,1.39-15.061c0.583-0.025,1.164-0.05,1.747-0.075c0.353,5.052,0.706,10.104,1.06,15.157
		c0.393-0.001,0.785-0.001,1.178-0.001c0.404-5.051,0.808-10.102,1.211-15.152c0.57-0.01,1.141-0.02,1.709-0.029
		c0.557,5.031,1.113,10.063,1.668,15.093c0.359,0.021,0.717,0.043,1.075,0.064c0.453-5.028,0.907-10.057,1.36-15.085
		c0.565-0.003,1.131-0.005,1.697-0.008c0.389,5.031,0.777,10.063,1.166,15.095c0.367-0.011,0.734-0.021,1.103-0.032
		c0.423-5.043,0.847-10.085,1.271-15.127c0.564,0.002,1.129,0.005,1.693,0.008c0.526,4.958,1.053,9.916,1.579,14.874
		c0.378,0.059,0.757,0.116,1.136,0.174c0.422-4.946,0.844-9.892,1.266-14.837c0.568-0.032,1.136-0.065,1.704-0.098
		c0.413,4.972,0.826,9.943,1.239,14.916c0.384,0.017,0.768,0.033,1.15,0.05c0.379-4.991,0.758-9.982,1.137-14.974
		c0.59-0.037,1.18-0.073,1.771-0.109c0.542,5.004,1.083,10.01,1.625,15.014c0.357,0.044,0.715,0.088,1.072,0.131
		c0.456-5.008,0.912-10.016,1.368-15.022c0.58-0.027,1.16-0.054,1.74-0.08c0.358,5.035,0.718,10.071,1.077,15.106
		c0.396,0.002,0.792,0.004,1.188,0.007c0.395-5.03,0.79-10.06,1.185-15.089c0.571-0.022,1.142-0.045,1.713-0.066
		c0.563,5.03,1.125,10.061,1.688,15.092c0.354,0.024,0.709,0.048,1.063,0.072c0.455-5.033,0.91-10.065,1.365-15.098
		c0.57-0.012,1.141-0.023,1.712-0.035c0.375,5.048,0.75,10.096,1.125,15.143c0.378-0.008,0.755-0.016,1.132-0.023
		c0.415-5.047,0.828-10.095,1.242-15.142c0.562-0.006,1.122-0.013,1.684-0.02c0.563,5.03,1.124,10.06,1.686,15.09
		c0.367,0.012,0.735,0.024,1.103,0.036c0.405-4.953,0.81-9.905,1.215-14.857c0.563-0.047,1.128-0.094,1.69-0.142
		c0.424,4.966,0.848,9.933,1.271,14.898c0.389,0.017,0.777,0.033,1.165,0.05c0.363-4.982,0.726-9.963,1.088-14.944
		c0.597-0.039,1.192-0.079,1.789-0.118c0.544,4.99,1.089,9.98,1.633,14.971c0.361,0.049,0.724,0.099,1.086,0.147
		c0.446-4.989,0.894-9.98,1.341-14.97c0.577-0.035,1.153-0.07,1.73-0.105c0.374,5.025,0.748,10.053,1.122,15.078
		c0.39,0.004,0.779,0.009,1.168,0.013c0.396-5.026,0.792-10.055,1.188-15.082c0.563-0.017,1.124-0.033,1.687-0.051
		c0.573,5.03,1.146,10.062,1.719,15.092c0.346,0.027,0.691,0.054,1.036,0.081c0.462-5.037,0.924-10.074,1.386-15.11
		c0.579-0.021,1.158-0.043,1.736-0.064c0.361,5.063,0.722,10.126,1.082,15.189c0.38-0.006,0.761-0.011,1.142-0.017
		c0.42-5.049,0.839-10.097,1.259-15.146c0.564-0.015,1.129-0.03,1.693-0.045c0.535,4.875,1.07,9.751,1.605,14.626
		c0.184-0.008,0.367-0.017,0.55-0.024c0.359-4.825,0.718-9.648,1.076-14.472c0.588-0.04,1.177-0.08,1.765-0.12
		c0.545,5.016,1.09,10.032,1.635,15.047c0.354,0.037,0.707,0.073,1.06,0.109c0.461-5.013,0.921-10.027,1.382-15.04
		c0.581-0.029,1.162-0.059,1.743-0.089c0.355,5.048,0.71,10.097,1.065,15.145c0.396-0.001,0.791-0.001,1.187-0.001
		c0.398-5.035,0.797-10.069,1.194-15.104c0.574-0.021,1.148-0.042,1.723-0.063c0.555,5.031,1.11,10.062,1.666,15.094
		c0.358,0.023,0.717,0.047,1.075,0.07c0.453-5.026,0.905-10.055,1.357-15.081c0.568-0.011,1.136-0.021,1.703-0.032
		c0.383,5.038,0.767,10.077,1.149,15.116c0.373-0.008,0.747-0.015,1.12-0.022c0.416-5.052,0.832-10.103,1.247-15.153
		c0.562,0.001,1.122,0.001,1.682,0.002c0.561,5.028,1.122,10.057,1.683,15.086c0.368,0.011,0.736,0.021,1.104,0.03
		c0.403-4.954,0.808-9.909,1.211-14.862c0.568-0.045,1.136-0.089,1.703-0.133c0.419,4.973,0.838,9.945,1.255,14.92
		c0.387,0.014,0.772,0.028,1.159,0.043c0.369-4.986,0.738-9.974,1.107-14.96c0.596-0.038,1.19-0.076,1.786-0.114
		c0.542,4.998,1.084,9.998,1.626,14.997c0.36,0.045,0.721,0.09,1.081,0.135c0.451-4.999,0.902-9.997,1.354-14.995
		c0.578-0.033,1.156-0.065,1.735-0.098c0.365,5.032,0.731,10.064,1.097,15.098c0.395,0.004,0.788,0.007,1.183,0.01
		c0.394-5.025,0.788-10.05,1.182-15.074c0.566-0.023,1.132-0.047,1.698-0.07c0.568,5.028,1.139,10.059,1.708,15.087
		c0.351,0.026,0.701,0.054,1.051,0.08c0.457-5.032,0.913-10.064,1.37-15.096C501.521,0.263,502.099,0.243,502.677,0.224z"/>
</g>
</svg>
