<?xml version="1.0" encoding="utf-8"?>
<!-- Generator: Adobe Illustrator 16.0.3, SVG Export Plug-In . SVG Version: 6.00 Build 0)  -->
<!DOCTYPE svg PUBLIC "-//W3C//DTD SVG 1.1//EN" "http://www.w3.org/Graphics/SVG/1.1/DTD/svg11.dtd">
<svg version="1.1" id="Layer_1" xmlns="http://www.w3.org/2000/svg" xmlns:xlink="http://www.w3.org/1999/xlink" x="0px" y="0px"
	 width="760px" height="146.13px" viewBox="0 0 760 146.13" enable-background="new 0 0 760 146.13" xml:space="preserve">
<line fill-rule="evenodd" clip-rule="evenodd" fill="#006837" stroke="#000000" stroke-width="2" stroke-miterlimit="10" x1="5" y1="71.535" x2="759" y2="71.535"/>
<line fill-rule="evenodd" clip-rule="evenodd" fill="#006837" stroke="#000000" stroke-width="2" stroke-miterlimit="10" x1="5" y1="63.535" x2="5" y2="76.535"/>
<line fill-rule="evenodd" clip-rule="evenodd" fill="#006837" stroke="#000000" stroke-width="2" stroke-miterlimit="10" x1="759" y1="63.535" x2="759" y2="76.535"/>
<line fill-rule="evenodd" clip-rule="evenodd" fill="#006837" stroke="#000000" stroke-width="2" stroke-miterlimit="10" x1="105" y1="64.535" x2="105" y2="77.535"/>
<line fill-rule="evenodd" clip-rule="evenodd" fill="#006837" stroke="#000000" stroke-width="2" stroke-miterlimit="10" x1="205" y1="64.535" x2="205" y2="77.535"/>
<line fill-rule="evenodd" clip-rule="evenodd" fill="#006837" stroke="#000000" stroke-width="2" stroke-miterlimit="10" x1="305" y1="63.535" x2="305" y2="76.535"/>
<line fill-rule="evenodd" clip-rule="evenodd" fill="#006837" stroke="#000000" stroke-width="2" stroke-miterlimit="10" x1="405" y1="63.535" x2="405" y2="76.535"/>
<line fill-rule="evenodd" clip-rule="evenodd" fill="#006837" stroke="#000000" stroke-width="2" stroke-miterlimit="10" x1="505" y1="64.535" x2="505" y2="77.535"/>
<line fill-rule="evenodd" clip-rule="evenodd" fill="#006837" stroke="#000000" stroke-width="2" stroke-miterlimit="10" x1="606" y1="64.535" x2="606" y2="77.535"/>
<line fill-rule="evenodd" clip-rule="evenodd" fill="#006837" stroke="#000000" stroke-width="2" stroke-miterlimit="10" x1="705" y1="64.535" x2="705" y2="77.535"/>
<text transform="matrix(1 0 0 1 100 96.5347)" font-family="'MyriadPro-Regular'" font-size="18">1</text>
<text transform="matrix(1 0 0 1 200 96.5347)" font-family="'MyriadPro-Regular'" font-size="18">2</text>
<text transform="matrix(1 0 0 1 299 96.5347)" font-family="'MyriadPro-Regular'" font-size="18">3</text>
<text transform="matrix(1 0 0 1 400 96.5347)" font-family="'MyriadPro-Regular'" font-size="18">4</text>
<text transform="matrix(1 0 0 1 500 96.5347)" font-family="'MyriadPro-Regular'" font-size="18">5</text>
<text transform="matrix(1 0 0 1 601 96.5347)" font-family="'MyriadPro-Regular'" font-size="18">6</text>
<text transform="matrix(1 0 0 1 699 96.5347)" font-family="'MyriadPro-Regular'" font-size="18">7</text>
<text transform="matrix(1 0 0 1 323 138.5347)" font-family="'HelveticaNeueLight'" font-size="36">Seconds</text>
<text transform="matrix(1 0 0 1 0 96.5347)" font-family="'MyriadPro-Regular'" font-size="18">0</text>
<g>
	<path fill-rule="evenodd" clip-rule="evenodd" fill="#006837" d="M187.442,22.443c-1.438-5.767-2.739-11.588-4.424-17.296
		c-0.395-1.339-2.089-2.294-3.186-3.424c-1.125,1.118-2.69,2.044-3.281,3.397c-1.119,2.56-1.576,5.401-2.519,8.052
		c-0.416,1.167-1.346,2.153-2.042,3.221c-0.63-1.056-1.495-2.04-1.845-3.182c-0.923-3.013-1.438-6.161-2.506-9.114
		c-0.419-1.161-1.874-1.949-2.857-2.906c-0.96,1.013-2.308,1.868-2.802,3.073c-1.256,3.061-2.088,6.294-3.19,9.423
		c-0.243,0.69-0.897,1.236-1.363,1.847c-0.487-0.611-1.195-1.149-1.425-1.845c-1.091-3.315-1.883-6.738-3.138-9.984
		c-0.543-1.405-1.947-2.477-2.959-3.701c-1.094,1.168-2.641,2.155-3.195,3.539c-1.48,3.697-2.475,7.584-3.796,11.348
		c-0.356,1.019-1.188,1.87-1.801,2.797c-0.763-0.979-1.833-1.849-2.233-2.96c-1.292-3.589-2.252-7.298-3.537-10.891
		c-0.343-0.961-1.56-2.453-2.07-2.338c-1.108,0.248-2.468,1.172-2.926,2.182c-1.298,2.861-2.086,5.948-3.297,8.854
		c-0.524,1.255-1.595,2.283-2.417,3.414c-0.583-1.118-1.378-2.179-1.706-3.368c-0.703-2.552-0.803-5.332-1.863-7.697
		c-0.626-1.398-2.504-2.512-4.063-3.054c-0.491-0.171-2.059,1.789-2.634,3.009c-1.487,3.153-2.611,6.476-4.065,9.647
		c-0.424,0.924-1.467,1.563-2.226,2.334c-0.546-0.972-1.252-1.889-1.608-2.925c-1.019-2.967-1.689-6.071-2.921-8.939
		c-0.56-1.304-2.123-2.177-3.231-3.245c-0.833,1.178-1.958,2.249-2.442,3.556c-1.096,2.957-1.764,6.071-2.843,9.036
		c-0.414,1.136-1.473,2.037-2.238,3.044c-0.828-0.936-1.913-1.75-2.43-2.834c-0.926-1.941-1.261-4.187-2.314-6.036
		c-0.893-1.566-2.453-2.751-3.717-4.105c-1.236,1.42-2.763,2.681-3.64,4.295c-1.337,2.461-2.117,5.218-3.336,7.752
		c-1.141,2.372-2.488,1.889-3.457-0.172c-1.06-2.258-1.765-4.703-3-6.85c-0.557-0.967-1.987-1.842-3.092-1.937
		c-0.725-0.062-1.838,1.211-2.315,2.127c-0.995,1.906-1.573,4.025-2.522,5.959c-1.289,2.629-2.729,2.842-4.825,0.459
		c-5.411-6.154-5.496-6.081-10.133,0.727c-0.187,0.273-0.306,0.592-0.488,0.87c-1.504,2.288-2.885,2.234-4.653,0.093
		c-3.983-4.824-4.133-4.832-8.32,0.129c-2.144,2.54-4.01,2.999-6.675,0.669c-1.693-1.48-4.101-3.286-6.243-1.223
		c-3.171,3.053-5.992,3.911-10.198,1.748c-1.229-0.632-4.167,1.695-6.101,2.996c-0.655,0.441-1.12,2.089-0.824,2.857
		c1.218,3.153,4.84,4.668,7.788,2.962c2.669-1.543,4.451-1.23,6.601,0.812c2.275,2.161,5.628,3.828,8.102,1.512
		c3.945-3.691,5.768-1.672,8.14,1.48c2.359,3.135,4.398,2.943,6.583-0.205c3.703-5.337,3.702-5.337,7.175,0.352
		c0.347,0.567,0.688,1.139,1.064,1.687c3.06,4.45,4.725,4.378,7.385-0.315c0.328-0.579,0.585-1.2,0.935-1.764
		c1.831-2.954,2.61-2.938,4.306,0.168c1.193,2.186,2.067,4.579,3.476,6.606c2.047,2.946,4.552,2.534,5.812-0.765
		c0.77-2.015,1.379-4.093,2.206-6.082c0.296-0.713,1.021-1.248,1.549-1.864c0.573,0.706,1.294,1.337,1.692,2.13
		c1.629,3.25,2.789,6.804,4.825,9.761c2.208,3.206,3.591,2.868,5.191-0.644c1.034-2.268,1.797-4.658,2.805-6.94
		c0.443-1.003,1.192-1.87,1.803-2.798c0.743,0.997,1.722,1.896,2.181,3.009c1.073,2.604,1.705,5.401,2.897,7.939
		c0.652,1.39,2.082,2.414,3.16,3.602c1.255-1.192,2.945-2.167,3.673-3.624c1.329-2.659,2.031-5.624,3.12-8.413
		c0.337-0.864,1.079-1.569,1.636-2.346c0.539,0.755,1.236,1.442,1.587,2.275c1.421,3.365,2.632,6.822,4.149,10.141
		c0.485,1.062,1.676,1.801,2.544,2.689c0.762-1.031,1.792-1.959,2.233-3.113c1.244-3.258,2.161-6.641,3.392-9.905
		c0.385-1.021,1.354-1.822,2.056-2.723c0.665,0.884,1.5,1.688,1.963,2.667c1.488,3.149,2.722,6.423,4.304,9.521
		c0.612,1.2,1.896,2.058,2.874,3.072c1.052-1.176,2.51-2.184,3.075-3.559c1.319-3.216,2.143-6.633,3.321-9.913
		c0.297-0.827,1.174-1.446,1.784-2.161c0.458,0.798,1.068,1.546,1.347,2.402c1.129,3.456,1.955,7.027,3.319,10.382
		c0.553,1.362,2.196,2.282,3.343,3.403c0.887-1.277,2.104-2.44,2.598-3.855c1.313-3.76,2.263-7.646,3.491-11.439
		c0.198-0.612,1.078-1.004,1.643-1.498c0.356,0.515,0.84,0.982,1.048,1.551c1.479,4.035,2.81,8.126,4.399,12.116
		c0.49,1.229,1.638,2.195,2.484,3.281c0.812-0.979,2.012-1.839,2.363-2.961c1.135-3.639,1.896-7.394,2.952-11.059
		c0.226-0.786,1.091-1.388,1.663-2.074c0.417,0.67,0.997,1.29,1.225,2.019c1.137,3.646,2.034,7.375,3.343,10.956
		c0.432,1.181,1.843,2.002,2.807,2.989c0.959-1.045,2.478-1.947,2.785-3.157C184.418,36.424,185.84,29.601,187.442,22.443z
		 M708.379,22.382c-1.452-5.79-2.759-11.612-4.458-17.315c-0.392-1.32-2.124-2.242-3.24-3.346c-1.111,1.144-2.669,2.101-3.241,3.471
		c-1.207,2.889-1.822,6.021-2.848,8.996c-0.288,0.838-1.153,1.477-1.754,2.207c-0.536-0.76-1.32-1.447-1.565-2.292
		c-0.972-3.346-1.598-6.804-2.736-10.086c-0.394-1.14-1.793-2.358-2.951-2.635c-0.635-0.153-2.085,1.426-2.536,2.492
		c-1.226,2.899-2.065,5.959-3.166,8.915c-0.362,0.97-1.06,1.816-1.604,2.719c-0.559-0.951-1.294-1.841-1.642-2.864
		c-1.016-2.988-1.692-6.103-2.877-9.016c-0.564-1.388-1.979-2.429-3.008-3.627c-1.076,1.196-2.58,2.219-3.145,3.622
		c-1.361,3.384-2.192,6.978-3.428,10.417c-0.472,1.313-1.465,2.438-2.22,3.647c-0.8-1.164-1.885-2.226-2.345-3.512
		c-1.174-3.28-1.951-6.703-3.142-9.976c-0.399-1.098-1.571-1.914-2.39-2.858c-1.04,0.947-2.492,1.704-3.035,2.879
		c-1.247,2.698-1.929,5.651-3.088,8.397c-0.521,1.233-1.633,2.217-2.477,3.315c-0.563-1.142-1.31-2.231-1.649-3.436
		c-0.764-2.703-1.009-5.598-2.102-8.141c-0.528-1.227-2.413-2.175-3.863-2.543c-0.551-0.14-1.867,1.576-2.379,2.661
		c-1.348,2.851-2.317,5.882-3.695,8.716c-0.654,1.347-1.895,2.411-2.869,3.602c-0.584-1.318-1.252-2.607-1.733-3.961
		c-0.94-2.646-1.607-5.401-2.729-7.962c-0.542-1.238-1.854-2.141-2.817-3.194c-0.973,1.219-2.3,2.298-2.847,3.685
		c-1.34,3.393-2.188,6.978-3.489,10.387c-0.903,2.366-2.427,2.175-3.423,0.049c-1.125-2.402-1.682-5.086-2.94-7.4
		c-0.849-1.56-2.485-2.69-3.77-4.012c-1.155,1.289-2.606,2.42-3.395,3.904c-1.159,2.182-1.705,4.683-2.792,6.911
		c-0.52,1.063-1.683,1.813-2.554,2.704c-0.7-0.874-1.566-1.665-2.063-2.642c-0.827-1.626-1.224-3.494-2.172-5.031
		c-0.711-1.153-1.958-2.623-3.052-2.696c-0.943-0.064-2.209,1.504-2.958,2.605c-0.728,1.068-0.921,2.485-1.448,3.706
		c-2.081,4.818-3.243,4.964-6.604,0.884c-3.63-4.406-4.879-4.345-8.146,0.409c-0.471,0.686-0.924,1.387-1.339,2.106
		c-1.457,2.527-2.889,2.864-4.9,0.379c-3.833-4.733-4.274-4.741-8.022-0.127c-2.156,2.656-4.065,3.571-6.998,0.948
		c-1.823-1.629-4.33-3.253-6.66-0.846c-2.846,2.941-5.521,3.675-9.243,1.389c-2.163-1.327-7.479,2.143-7.791,4.596
		c-0.352,2.762,5.017,6.099,7.817,4.423c3.057-1.827,4.998-1.265,7.43,1.012c2.12,1.986,5.42,3.341,7.737,1.109
		c3.599-3.468,5.448-1.984,7.806,1.183c2.722,3.657,4.63,3.431,7.12-0.39c3.125-4.798,3.469-4.793,6.42,0.083
		c4.615,7.627,5.24,7.646,9.89,0.31c1.785-2.819,2.635-2.772,4.309,0.325c1.185,2.19,2.06,4.586,3.48,6.603
		c2.049,2.909,4.531,2.428,5.78-0.928c0.637-1.71,1.042-3.518,1.785-5.177c0.447-0.998,1.343-1.795,2.038-2.683
		c0.612,0.891,1.308,1.736,1.821,2.68c1.809,3.318,3.389,6.771,5.378,9.972c1.427,2.296,3.096,1.57,4.056-0.573
		c1.223-2.73,2.168-5.583,3.355-8.33c0.361-0.836,1.128-1.499,1.708-2.241c0.617,0.71,1.473,1.324,1.808,2.148
		c1.06,2.613,1.718,5.403,2.936,7.93c0.806,1.672,2.305,3.009,3.493,4.496c1.357-1.538,3.077-2.89,3.983-4.659
		c1.278-2.494,1.897-5.318,2.925-7.953c0.267-0.683,1.001-1.184,1.521-1.77c0.461,0.621,1.077,1.179,1.354,1.872
		c1.236,3.086,2.203,6.292,3.622,9.286c0.705,1.487,2.178,2.611,3.304,3.899c0.848-1.366,1.907-2.648,2.501-4.117
		c1.304-3.227,2.253-6.598,3.581-9.814c0.871-2.109,2.094-2.588,3.135,0.042c1.102,2.78,2.049,5.651,3.469,8.262
		c1.038,1.905,2.735,3.451,4.139,5.157c1.243-1.83,2.774-3.533,3.658-5.522c1.207-2.716,1.857-5.673,2.892-8.473
		c0.239-0.646,1.07-1.075,1.629-1.604c0.4,0.658,0.935,1.271,1.179,1.982c1.338,3.898,2.475,7.872,3.983,11.701
		c0.41,1.039,1.87,1.665,2.849,2.48c0.762-0.989,1.854-1.868,2.224-2.986c1.152-3.468,1.946-7.054,3.062-10.536
		c0.377-1.179,1.297-2.184,1.968-3.269c0.642,1.022,1.472,1.974,1.889,3.081c1.455,3.862,2.71,7.8,4.182,11.656
		c0.319,0.836,1.406,2.139,1.819,2.029c0.928-0.248,1.887-1.108,2.405-1.975c0.757-1.266,1.283-2.72,1.649-4.159
		c0.655-2.576,1.057-5.216,1.699-7.796c0.18-0.722,0.833-1.324,1.269-1.982c0.553,0.699,1.356,1.316,1.613,2.11
		c1.12,3.476,1.95,7.05,3.172,10.487c0.457,1.287,1.689,2.299,2.567,3.437c1.104-1.095,2.865-2.017,3.203-3.311
		C705.4,36.349,706.789,29.517,708.379,22.382z"/>
	<path fill-rule="evenodd" clip-rule="evenodd" fill="#006837" d="M187.442,22.443c-1.603,7.157-3.024,13.981-4.739,20.73
		c-0.308,1.21-1.826,2.112-2.785,3.157c-0.963-0.986-2.375-1.808-2.807-2.989c-1.309-3.581-2.207-7.31-3.343-10.956
		c-0.228-0.729-0.808-1.349-1.225-2.019c-0.571,0.687-1.437,1.288-1.663,2.074c-1.056,3.666-1.816,7.42-2.952,11.059
		c-0.351,1.123-1.551,1.982-2.363,2.961c-0.846-1.086-1.994-2.052-2.484-3.281c-1.589-3.99-2.92-8.081-4.399-12.116
		c-0.208-0.568-0.691-1.036-1.048-1.551c-0.565,0.494-1.445,0.886-1.643,1.498c-1.228,3.792-2.178,7.679-3.491,11.439
		c-0.494,1.415-1.711,2.578-2.598,3.855c-1.147-1.121-2.79-2.041-3.343-3.403c-1.364-3.355-2.19-6.927-3.319-10.382
		c-0.279-0.856-0.889-1.604-1.347-2.402c-0.61,0.715-1.486,1.334-1.784,2.161c-1.178,3.28-2.001,6.696-3.321,9.913
		c-0.564,1.375-2.022,2.383-3.075,3.559c-0.978-1.014-2.261-1.872-2.874-3.072c-1.583-3.097-2.816-6.371-4.304-9.521
		c-0.463-0.979-1.298-1.783-1.963-2.667c-0.702,0.901-1.671,1.702-2.056,2.723c-1.23,3.265-2.148,6.647-3.392,9.905
		c-0.44,1.153-1.471,2.082-2.233,3.113c-0.868-0.888-2.059-1.627-2.544-2.689c-1.517-3.319-2.728-6.775-4.149-10.141
		c-0.352-0.833-1.049-1.52-1.587-2.275c-0.557,0.777-1.299,1.482-1.636,2.346c-1.089,2.789-1.792,5.754-3.12,8.413
		c-0.728,1.456-2.417,2.432-3.673,3.624c-1.079-1.188-2.508-2.212-3.16-3.602c-1.192-2.539-1.824-5.335-2.897-7.939
		c-0.458-1.113-1.438-2.012-2.181-3.009c-0.61,0.929-1.36,1.795-1.803,2.798c-1.008,2.282-1.771,4.672-2.805,6.94
		c-1.6,3.512-2.983,3.849-5.191,0.644c-2.036-2.958-3.196-6.512-4.825-9.761c-0.397-0.793-1.119-1.424-1.692-2.13
		c-0.528,0.616-1.252,1.151-1.549,1.864c-0.827,1.989-1.436,4.067-2.206,6.082c-1.26,3.298-3.765,3.71-5.812,0.765
		c-1.409-2.028-2.283-4.42-3.476-6.606c-1.695-3.106-2.475-3.122-4.306-0.168c-0.349,0.564-0.606,1.186-0.935,1.764
		c-2.66,4.694-4.326,4.765-7.385,0.315c-0.376-0.548-0.717-1.12-1.064-1.687c-3.473-5.689-3.472-5.689-7.175-0.352
		c-2.184,3.148-4.223,3.34-6.583,0.205c-2.372-3.153-4.195-5.171-8.14-1.48c-2.474,2.315-5.826,0.648-8.102-1.512
		c-2.15-2.042-3.932-2.354-6.601-0.812c-2.948,1.706-6.569,0.19-7.788-2.962c-0.296-0.769,0.168-2.416,0.824-2.857
		c1.933-1.3,4.871-3.627,6.101-2.996c4.206,2.163,7.027,1.306,10.198-1.748c2.142-2.063,4.549-0.257,6.243,1.223
		c2.665,2.33,4.531,1.871,6.675-0.669c4.187-4.961,4.337-4.953,8.32-0.129c1.768,2.142,3.148,2.195,4.653-0.093
		c0.182-0.277,0.302-0.596,0.488-0.87c4.637-6.807,4.722-6.88,10.133-0.727c2.095,2.383,3.536,2.17,4.825-0.459
		c0.949-1.934,1.527-4.053,2.522-5.959c0.477-0.916,1.59-2.188,2.315-2.127c1.104,0.095,2.535,0.97,3.092,1.937
		c1.235,2.147,1.94,4.592,3,6.85c0.969,2.061,2.316,2.543,3.457,0.172c1.219-2.534,1.999-5.291,3.336-7.752
		c0.877-1.614,2.404-2.875,3.64-4.295c1.264,1.354,2.824,2.539,3.717,4.105c1.054,1.849,1.388,4.095,2.314,6.036
		c0.517,1.085,1.602,1.898,2.43,2.834c0.765-1.007,1.824-1.909,2.238-3.044c1.079-2.964,1.747-6.079,2.843-9.036
		c0.485-1.308,1.609-2.378,2.442-3.556c1.108,1.068,2.671,1.941,3.231,3.245c1.232,2.868,1.902,5.972,2.921,8.939
		c0.356,1.036,1.062,1.953,1.608,2.925c0.759-0.771,1.802-1.41,2.226-2.334c1.454-3.171,2.578-6.494,4.065-9.647
		c0.576-1.221,2.144-3.18,2.634-3.009c1.559,0.542,3.436,1.656,4.063,3.054c1.061,2.366,1.16,5.146,1.863,7.697
		c0.328,1.189,1.123,2.25,1.706,3.368c0.822-1.131,1.893-2.158,2.417-3.414c1.211-2.906,2-5.994,3.297-8.854
		c0.458-1.01,1.818-1.934,2.926-2.182c0.51-0.114,1.727,1.377,2.07,2.338c1.284,3.593,2.244,7.302,3.537,10.891
		c0.399,1.111,1.47,1.981,2.233,2.96c0.614-0.927,1.445-1.779,1.801-2.797c1.321-3.764,2.316-7.651,3.796-11.348
		c0.554-1.384,2.101-2.371,3.195-3.539c1.012,1.224,2.416,2.295,2.959,3.701c1.255,3.247,2.047,6.669,3.138,9.984
		c0.229,0.696,0.938,1.234,1.425,1.845c0.465-0.611,1.12-1.157,1.363-1.847c1.102-3.129,1.934-6.362,3.19-9.423
		c0.494-1.205,1.842-2.06,2.802-3.073c0.983,0.957,2.438,1.745,2.857,2.906c1.067,2.954,1.583,6.102,2.506,9.114
		c0.35,1.142,1.215,2.126,1.845,3.182c0.697-1.068,1.626-2.054,2.042-3.221c0.942-2.65,1.399-5.492,2.519-8.052
		c0.591-1.353,2.156-2.279,3.281-3.397c1.097,1.13,2.791,2.085,3.186,3.424C184.704,10.855,186.004,16.677,187.442,22.443z"/>
	<path fill-rule="evenodd" clip-rule="evenodd" fill="#006837" d="M708.379,22.382c-1.59,7.135-2.979,13.967-4.729,20.706
		c-0.338,1.294-2.099,2.216-3.203,3.311c-0.878-1.138-2.11-2.15-2.567-3.437c-1.222-3.437-2.052-7.011-3.172-10.487
		c-0.257-0.794-1.061-1.411-1.613-2.11c-0.436,0.658-1.089,1.261-1.269,1.982c-0.643,2.58-1.044,5.22-1.699,7.796
		c-0.366,1.439-0.893,2.893-1.649,4.159c-0.519,0.867-1.478,1.727-2.405,1.975c-0.413,0.11-1.5-1.192-1.819-2.029
		c-1.472-3.856-2.727-7.794-4.182-11.656c-0.417-1.107-1.247-2.059-1.888-3.081c-0.672,1.085-1.592,2.09-1.969,3.269
		c-1.115,3.482-1.909,7.068-3.062,10.536c-0.37,1.118-1.462,1.997-2.224,2.986c-0.979-0.815-2.438-1.441-2.849-2.48
		c-1.509-3.829-2.646-7.803-3.983-11.701c-0.244-0.712-0.778-1.324-1.179-1.982c-0.559,0.528-1.39,0.957-1.629,1.604
		c-1.034,2.799-1.685,5.757-2.892,8.473c-0.884,1.99-2.415,3.693-3.658,5.522c-1.403-1.706-3.101-3.251-4.139-5.157
		c-1.42-2.611-2.367-5.482-3.469-8.262c-1.041-2.63-2.264-2.151-3.135-0.042c-1.328,3.216-2.277,6.587-3.581,9.814
		c-0.594,1.469-1.653,2.75-2.501,4.117c-1.126-1.288-2.599-2.412-3.304-3.899c-1.419-2.994-2.386-6.2-3.622-9.286
		c-0.277-0.693-0.894-1.25-1.354-1.872c-0.52,0.586-1.254,1.087-1.521,1.77c-1.027,2.635-1.646,5.459-2.925,7.953
		c-0.906,1.769-2.626,3.121-3.983,4.659c-1.188-1.487-2.688-2.824-3.493-4.496c-1.218-2.527-1.876-5.316-2.936-7.93
		c-0.335-0.824-1.19-1.438-1.808-2.148c-0.58,0.742-1.347,1.404-1.708,2.241c-1.188,2.747-2.133,5.6-3.355,8.33
		c-0.96,2.144-2.629,2.869-4.056,0.573c-1.989-3.201-3.569-6.654-5.378-9.972c-0.514-0.943-1.209-1.789-1.821-2.68
		c-0.695,0.888-1.591,1.685-2.038,2.683c-0.743,1.659-1.148,3.466-1.785,5.177c-1.249,3.356-3.731,3.836-5.78,0.928
		c-1.421-2.016-2.296-4.413-3.48-6.603c-1.674-3.097-2.523-3.144-4.309-0.325c-4.649,7.337-5.274,7.317-9.89-0.31
		c-2.951-4.876-3.295-4.881-6.42-0.083c-2.49,3.821-4.398,4.046-7.12,0.39c-2.357-3.167-4.207-4.651-7.806-1.183
		c-2.317,2.232-5.617,0.877-7.737-1.109c-2.432-2.276-4.373-2.839-7.43-1.012c-2.801,1.675-8.169-1.661-7.817-4.423
		c0.313-2.454,5.628-5.923,7.791-4.596c3.723,2.286,6.397,1.553,9.243-1.389c2.33-2.408,4.837-0.784,6.66,0.846
		c2.933,2.623,4.842,1.708,6.998-0.948c3.748-4.614,4.189-4.606,8.022,0.127c2.012,2.484,3.443,2.147,4.9-0.379
		c0.415-0.72,0.868-1.421,1.339-2.106c3.268-4.754,4.517-4.815,8.146-0.409c3.361,4.081,4.523,3.934,6.604-0.884
		c0.527-1.22,0.721-2.637,1.448-3.706c0.749-1.101,2.015-2.669,2.958-2.605c1.094,0.073,2.341,1.543,3.052,2.696
		c0.948,1.537,1.345,3.404,2.172,5.031c0.497,0.978,1.363,1.769,2.063,2.642c0.871-0.89,2.034-1.64,2.554-2.704
		c1.087-2.228,1.633-4.729,2.792-6.911c0.788-1.483,2.239-2.615,3.395-3.904c1.284,1.322,2.921,2.453,3.77,4.012
		c1.259,2.314,1.815,4.999,2.94,7.4c0.996,2.126,2.52,2.317,3.423-0.049c1.301-3.41,2.149-6.994,3.489-10.387
		c0.547-1.387,1.874-2.466,2.847-3.685c0.963,1.053,2.275,1.956,2.817,3.194c1.122,2.561,1.789,5.316,2.729,7.962
		c0.481,1.354,1.149,2.643,1.733,3.961c0.975-1.191,2.215-2.255,2.869-3.602c1.378-2.834,2.348-5.865,3.695-8.716
		c0.512-1.085,1.828-2.8,2.379-2.661c1.45,0.369,3.335,1.317,3.863,2.543c1.093,2.542,1.338,5.438,2.102,8.141
		c0.34,1.205,1.087,2.294,1.649,3.436c0.844-1.098,1.956-2.082,2.477-3.315c1.159-2.746,1.841-5.7,3.088-8.397
		c0.543-1.176,1.995-1.933,3.035-2.879c0.818,0.944,1.99,1.76,2.39,2.858c1.19,3.273,1.968,6.696,3.142,9.976
		c0.46,1.286,1.545,2.349,2.345,3.512c0.755-1.209,1.748-2.334,2.22-3.647c1.235-3.44,2.066-7.033,3.428-10.417
		c0.564-1.402,2.068-2.425,3.145-3.622c1.029,1.198,2.443,2.24,3.008,3.627c1.185,2.913,1.861,6.027,2.877,9.016
		c0.348,1.022,1.083,1.913,1.642,2.864c0.544-0.903,1.241-1.749,1.604-2.719c1.101-2.956,1.94-6.016,3.166-8.915
		c0.451-1.065,1.901-2.645,2.536-2.492c1.158,0.277,2.558,1.496,2.951,2.635c1.139,3.283,1.765,6.74,2.736,10.086
		c0.245,0.845,1.029,1.532,1.565,2.292c0.601-0.73,1.466-1.369,1.754-2.207c1.025-2.975,1.641-6.106,2.848-8.996
		c0.572-1.37,2.13-2.327,3.241-3.471c1.116,1.104,2.849,2.026,3.24,3.346C705.62,10.77,706.927,16.592,708.379,22.382z"/>
</g>
</svg>
