<?xml version="1.0" encoding="utf-8"?>
<!-- Generator: Adobe Illustrator 16.0.3, SVG Export Plug-In . SVG Version: 6.00 Build 0)  -->
<!DOCTYPE svg PUBLIC "-//W3C//DTD SVG 1.1//EN" "http://www.w3.org/Graphics/SVG/1.1/DTD/svg11.dtd">
<svg version="1.1" id="Layer_1" xmlns="http://www.w3.org/2000/svg" xmlns:xlink="http://www.w3.org/1999/xlink" x="0px" y="0px"
	 width="760px" height="125.926px" viewBox="0 0 760 125.926" enable-background="new 0 0 760 125.926" xml:space="preserve">
<line fill-rule="evenodd" clip-rule="evenodd" fill="#006837" stroke="#000000" stroke-width="2" stroke-miterlimit="10" x1="5" y1="52.331" x2="759" y2="52.331"/>
<line fill-rule="evenodd" clip-rule="evenodd" fill="#006837" stroke="#000000" stroke-width="2" stroke-miterlimit="10" x1="5" y1="44.331" x2="5" y2="57.331"/>
<line fill-rule="evenodd" clip-rule="evenodd" fill="#006837" stroke="#000000" stroke-width="2" stroke-miterlimit="10" x1="759" y1="44.331" x2="759" y2="57.331"/>
<line fill-rule="evenodd" clip-rule="evenodd" fill="#006837" stroke="#000000" stroke-width="2" stroke-miterlimit="10" x1="105" y1="45.331" x2="105" y2="58.331"/>
<line fill-rule="evenodd" clip-rule="evenodd" fill="#006837" stroke="#000000" stroke-width="2" stroke-miterlimit="10" x1="205" y1="45.331" x2="205" y2="58.331"/>
<line fill-rule="evenodd" clip-rule="evenodd" fill="#006837" stroke="#000000" stroke-width="2" stroke-miterlimit="10" x1="305" y1="44.331" x2="305" y2="57.331"/>
<line fill-rule="evenodd" clip-rule="evenodd" fill="#006837" stroke="#000000" stroke-width="2" stroke-miterlimit="10" x1="405" y1="44.331" x2="405" y2="57.331"/>
<line fill-rule="evenodd" clip-rule="evenodd" fill="#006837" stroke="#000000" stroke-width="2" stroke-miterlimit="10" x1="505" y1="45.331" x2="505" y2="58.331"/>
<line fill-rule="evenodd" clip-rule="evenodd" fill="#006837" stroke="#000000" stroke-width="2" stroke-miterlimit="10" x1="606" y1="45.331" x2="606" y2="58.331"/>
<line fill-rule="evenodd" clip-rule="evenodd" fill="#006837" stroke="#000000" stroke-width="2" stroke-miterlimit="10" x1="705" y1="45.331" x2="705" y2="58.331"/>
<text transform="matrix(1 0 0 1 100 77.3306)" font-family="'MyriadPro-Regular'" font-size="18">1</text>
<text transform="matrix(1 0 0 1 200 77.3306)" font-family="'MyriadPro-Regular'" font-size="18">2</text>
<text transform="matrix(1 0 0 1 299 77.3306)" font-family="'MyriadPro-Regular'" font-size="18">3</text>
<text transform="matrix(1 0 0 1 400 77.3306)" font-family="'MyriadPro-Regular'" font-size="18">4</text>
<text transform="matrix(1 0 0 1 500 77.3306)" font-family="'MyriadPro-Regular'" font-size="18">5</text>
<text transform="matrix(1 0 0 1 601 77.3306)" font-family="'MyriadPro-Regular'" font-size="18">6</text>
<text transform="matrix(1 0 0 1 699 77.3306)" font-family="'MyriadPro-Regular'" font-size="18">7</text>
<text transform="matrix(1 0 0 1 317 118.3306)" font-family="'HelveticaNeueLight'" font-size="36">Seconds</text>
<text transform="matrix(1 0 0 1 0 77.3306)" font-family="'MyriadPro-Regular'" font-size="18">0</text>
<g>
	<g>
		<path fill-rule="evenodd" clip-rule="evenodd" fill="#006837" d="M200.331,21.83c-4.081-7.341-4.001-14.437-0.777-21.661
			C204.235,4.623,203.28,14.429,200.331,21.83z"/>
	</g>
	<g>
		<path fill-rule="evenodd" clip-rule="evenodd" fill="#006837" d="M193.831,21.83c-4.081-7.341-4.001-14.437-0.777-21.661
			C197.735,4.623,196.78,14.429,193.831,21.83z"/>
	</g>
	<g>
		<path fill-rule="evenodd" clip-rule="evenodd" fill="#006837" d="M187.331,21.83c-4.081-7.341-4.001-14.437-0.777-21.661
			C191.235,4.623,190.28,14.429,187.331,21.83z"/>
	</g>
	<g>
		<path fill-rule="evenodd" clip-rule="evenodd" fill="#006837" d="M180.831,21.83c-4.081-7.341-4.001-14.437-0.777-21.661
			C184.735,4.623,183.78,14.429,180.831,21.83z"/>
	</g>
	<g>
		<path fill-rule="evenodd" clip-rule="evenodd" fill="#006837" d="M174.331,21.83c-4.081-7.341-4.001-14.437-0.777-21.661
			C178.235,4.623,177.28,14.429,174.331,21.83z"/>
	</g>
	<g>
		<path fill-rule="evenodd" clip-rule="evenodd" fill="#006837" d="M167.831,21.83c-4.081-7.341-4.001-14.437-0.777-21.661
			C171.735,4.623,170.78,14.429,167.831,21.83z"/>
	</g>
	<g>
		<path fill-rule="evenodd" clip-rule="evenodd" fill="#006837" d="M161.331,21.83c-4.081-7.341-4.001-14.437-0.777-21.661
			C165.235,4.623,164.28,14.429,161.331,21.83z"/>
	</g>
	<g>
		<path fill-rule="evenodd" clip-rule="evenodd" fill="#006837" d="M154.831,21.83c-4.081-7.341-4.001-14.437-0.777-21.661
			C158.735,4.623,157.78,14.429,154.831,21.83z"/>
	</g>
	<g>
		<path fill-rule="evenodd" clip-rule="evenodd" fill="#006837" d="M148.331,21.83c-4.081-7.341-4.001-14.437-0.777-21.661
			C152.235,4.623,151.28,14.429,148.331,21.83z"/>
	</g>
	<g>
		<path fill-rule="evenodd" clip-rule="evenodd" fill="#006837" d="M141.831,21.83c-4.081-7.341-4.001-14.437-0.777-21.661
			C145.735,4.623,144.78,14.429,141.831,21.83z"/>
	</g>
	<g>
		<path fill-rule="evenodd" clip-rule="evenodd" fill="#006837" d="M135.331,21.83c-4.081-7.341-4.001-14.437-0.777-21.661
			C139.235,4.623,138.28,14.429,135.331,21.83z"/>
	</g>
	<g>
		<path fill-rule="evenodd" clip-rule="evenodd" fill="#006837" d="M128.831,21.83c-4.081-7.341-4.001-14.437-0.777-21.661
			C132.735,4.623,131.78,14.429,128.831,21.83z"/>
	</g>
	<g>
		<path fill-rule="evenodd" clip-rule="evenodd" fill="#006837" d="M122.331,21.83c-4.081-7.341-4.001-14.437-0.777-21.661
			C126.235,4.623,125.28,14.429,122.331,21.83z"/>
	</g>
	<g>
		<path fill-rule="evenodd" clip-rule="evenodd" fill="#006837" d="M115.831,21.83c-4.081-7.341-4.001-14.437-0.777-21.661
			C119.735,4.623,118.78,14.429,115.831,21.83z"/>
	</g>
	<g>
		<path fill-rule="evenodd" clip-rule="evenodd" fill="#006837" d="M109.331,21.83c-4.081-7.341-4.001-14.437-0.777-21.661
			C113.235,4.623,112.28,14.429,109.331,21.83z"/>
	</g>
	<g>
		<path fill-rule="evenodd" clip-rule="evenodd" fill="#006837" d="M102.831,21.83c-4.081-7.341-4.001-14.437-0.777-21.661
			C106.735,4.623,105.78,14.429,102.831,21.83z"/>
	</g>
	<g>
		<path fill-rule="evenodd" clip-rule="evenodd" fill="#006837" d="M96.331,21.83C92.25,14.489,92.33,7.394,95.553,0.169
			C100.235,4.623,99.28,14.429,96.331,21.83z"/>
	</g>
	<g>
		<path fill-rule="evenodd" clip-rule="evenodd" fill="#006837" d="M89.831,21.83C85.75,14.489,85.83,7.394,89.053,0.169
			C93.735,4.623,92.78,14.429,89.831,21.83z"/>
	</g>
	<g>
		<path fill-rule="evenodd" clip-rule="evenodd" fill="#006837" d="M83.331,21.83C79.25,14.489,79.33,7.394,82.553,0.169
			C87.235,4.623,86.28,14.429,83.331,21.83z"/>
	</g>
	<g>
		<path fill-rule="evenodd" clip-rule="evenodd" fill="#006837" d="M76.831,21.83C72.75,14.489,72.83,7.394,76.053,0.169
			C80.735,4.623,79.78,14.429,76.831,21.83z"/>
	</g>
	<g>
		<path fill-rule="evenodd" clip-rule="evenodd" fill="#006837" d="M70.331,21.83C66.25,14.489,66.33,7.394,69.553,0.169
			C74.235,4.623,73.28,14.429,70.331,21.83z"/>
	</g>
	<g>
		<path fill-rule="evenodd" clip-rule="evenodd" fill="#006837" d="M63.831,21.83C59.75,14.489,59.83,7.394,63.053,0.169
			C67.735,4.623,66.78,14.429,63.831,21.83z"/>
	</g>
	<g>
		<path fill-rule="evenodd" clip-rule="evenodd" fill="#006837" d="M57.331,21.83C53.25,14.489,53.33,7.394,56.553,0.169
			C61.235,4.623,60.28,14.429,57.331,21.83z"/>
	</g>
	<g>
		<path fill-rule="evenodd" clip-rule="evenodd" fill="#006837" d="M50.831,21.83C46.75,14.489,46.83,7.394,50.053,0.169
			C54.735,4.623,53.78,14.429,50.831,21.83z"/>
	</g>
	<g>
		<path fill-rule="evenodd" clip-rule="evenodd" fill="#006837" d="M44.331,21.83C40.25,14.489,40.33,7.394,43.553,0.169
			C48.235,4.623,47.28,14.429,44.331,21.83z"/>
	</g>
	<g>
		<path fill-rule="evenodd" clip-rule="evenodd" fill="#006837" d="M37.831,21.83C33.75,14.489,33.83,7.394,37.053,0.169
			C41.735,4.623,40.78,14.429,37.831,21.83z"/>
	</g>
	<g>
		<path fill-rule="evenodd" clip-rule="evenodd" fill="#006837" d="M31.331,21.83C27.25,14.489,27.33,7.394,30.553,0.169
			C35.235,4.623,34.28,14.429,31.331,21.83z"/>
	</g>
	<g>
		<path fill-rule="evenodd" clip-rule="evenodd" fill="#006837" d="M24.831,21.83C20.75,14.489,20.83,7.394,24.053,0.169
			C28.735,4.623,27.78,14.429,24.831,21.83z"/>
	</g>
	<g>
		<path fill-rule="evenodd" clip-rule="evenodd" fill="#006837" d="M18.331,21.83C14.25,14.489,14.33,7.394,17.553,0.169
			C22.235,4.623,21.28,14.429,18.331,21.83z"/>
	</g>
	<g>
		<path fill-rule="evenodd" clip-rule="evenodd" fill="#006837" d="M11.831,21.83C7.75,14.489,7.83,7.394,11.053,0.169
			C15.735,4.623,14.78,14.429,11.831,21.83z"/>
	</g>
	<g>
		<path fill-rule="evenodd" clip-rule="evenodd" fill="#006837" d="M5.331,21.83C1.25,14.489,1.33,7.394,4.553,0.169
			C9.235,4.623,8.28,14.429,5.331,21.83z"/>
	</g>
</g>
<g>
	<g>
		<path fill-rule="evenodd" clip-rule="evenodd" fill="#006837" d="M606.232,21.661C602.151,14.32,602.231,7.225,605.455,0
			C610.137,4.454,609.182,14.26,606.232,21.661z"/>
	</g>
	<g>
		<path fill-rule="evenodd" clip-rule="evenodd" fill="#006837" d="M599.732,21.661C595.651,14.32,595.731,7.225,598.955,0
			C603.637,4.454,602.682,14.26,599.732,21.661z"/>
	</g>
	<g>
		<path fill-rule="evenodd" clip-rule="evenodd" fill="#006837" d="M593.232,21.661C589.151,14.32,589.231,7.225,592.455,0
			C597.137,4.454,596.182,14.26,593.232,21.661z"/>
	</g>
	<g>
		<path fill-rule="evenodd" clip-rule="evenodd" fill="#006837" d="M586.732,21.661C582.651,14.32,582.731,7.225,585.955,0
			C590.637,4.454,589.682,14.26,586.732,21.661z"/>
	</g>
	<g>
		<path fill-rule="evenodd" clip-rule="evenodd" fill="#006837" d="M580.232,21.661C576.151,14.32,576.231,7.225,579.455,0
			C584.137,4.454,583.182,14.26,580.232,21.661z"/>
	</g>
	<g>
		<path fill-rule="evenodd" clip-rule="evenodd" fill="#006837" d="M573.732,21.661C569.651,14.32,569.731,7.225,572.955,0
			C577.637,4.454,576.682,14.26,573.732,21.661z"/>
	</g>
	<g>
		<path fill-rule="evenodd" clip-rule="evenodd" fill="#006837" d="M567.232,21.661C563.151,14.32,563.231,7.225,566.455,0
			C571.137,4.454,570.182,14.26,567.232,21.661z"/>
	</g>
	<g>
		<path fill-rule="evenodd" clip-rule="evenodd" fill="#006837" d="M560.732,21.661C556.651,14.32,556.731,7.225,559.955,0
			C564.637,4.454,563.682,14.26,560.732,21.661z"/>
	</g>
	<g>
		<path fill-rule="evenodd" clip-rule="evenodd" fill="#006837" d="M554.232,21.661C550.151,14.32,550.231,7.225,553.455,0
			C558.137,4.454,557.182,14.26,554.232,21.661z"/>
	</g>
	<g>
		<path fill-rule="evenodd" clip-rule="evenodd" fill="#006837" d="M547.732,21.661C543.651,14.32,543.731,7.225,546.955,0
			C551.637,4.454,550.682,14.26,547.732,21.661z"/>
	</g>
	<g>
		<path fill-rule="evenodd" clip-rule="evenodd" fill="#006837" d="M541.232,21.661C537.151,14.32,537.231,7.225,540.455,0
			C545.137,4.454,544.182,14.26,541.232,21.661z"/>
	</g>
	<g>
		<path fill-rule="evenodd" clip-rule="evenodd" fill="#006837" d="M534.732,21.661C530.651,14.32,530.731,7.225,533.955,0
			C538.637,4.454,537.682,14.26,534.732,21.661z"/>
	</g>
	<g>
		<path fill-rule="evenodd" clip-rule="evenodd" fill="#006837" d="M528.232,21.661C524.151,14.32,524.231,7.225,527.455,0
			C532.137,4.454,531.182,14.26,528.232,21.661z"/>
	</g>
	<g>
		<path fill-rule="evenodd" clip-rule="evenodd" fill="#006837" d="M521.732,21.661C517.651,14.32,517.731,7.225,520.955,0
			C525.637,4.454,524.682,14.26,521.732,21.661z"/>
	</g>
	<g>
		<path fill-rule="evenodd" clip-rule="evenodd" fill="#006837" d="M515.232,21.661C511.151,14.32,511.231,7.225,514.455,0
			C519.137,4.454,518.182,14.26,515.232,21.661z"/>
	</g>
	<g>
		<path fill-rule="evenodd" clip-rule="evenodd" fill="#006837" d="M508.732,21.661C504.651,14.32,504.731,7.225,507.955,0
			C512.637,4.454,511.682,14.26,508.732,21.661z"/>
	</g>
	<g>
		<path fill-rule="evenodd" clip-rule="evenodd" fill="#006837" d="M502.232,21.661C498.151,14.32,498.231,7.225,501.455,0
			C506.137,4.454,505.182,14.26,502.232,21.661z"/>
	</g>
	<g>
		<path fill-rule="evenodd" clip-rule="evenodd" fill="#006837" d="M495.732,21.661C491.651,14.32,491.731,7.225,494.955,0
			C499.637,4.454,498.682,14.26,495.732,21.661z"/>
	</g>
	<g>
		<path fill-rule="evenodd" clip-rule="evenodd" fill="#006837" d="M489.232,21.661C485.151,14.32,485.231,7.225,488.455,0
			C493.137,4.454,492.182,14.26,489.232,21.661z"/>
	</g>
	<g>
		<path fill-rule="evenodd" clip-rule="evenodd" fill="#006837" d="M482.732,21.661C478.651,14.32,478.731,7.225,481.955,0
			C486.637,4.454,485.682,14.26,482.732,21.661z"/>
	</g>
	<g>
		<path fill-rule="evenodd" clip-rule="evenodd" fill="#006837" d="M476.232,21.661C472.151,14.32,472.231,7.225,475.455,0
			C480.137,4.454,479.182,14.26,476.232,21.661z"/>
	</g>
	<g>
		<path fill-rule="evenodd" clip-rule="evenodd" fill="#006837" d="M469.732,21.661C465.651,14.32,465.731,7.225,468.955,0
			C473.637,4.454,472.682,14.26,469.732,21.661z"/>
	</g>
	<g>
		<path fill-rule="evenodd" clip-rule="evenodd" fill="#006837" d="M463.232,21.661C459.151,14.32,459.231,7.225,462.455,0
			C467.137,4.454,466.182,14.26,463.232,21.661z"/>
	</g>
	<g>
		<path fill-rule="evenodd" clip-rule="evenodd" fill="#006837" d="M456.732,21.661C452.651,14.32,452.731,7.225,455.955,0
			C460.637,4.454,459.682,14.26,456.732,21.661z"/>
	</g>
	<g>
		<path fill-rule="evenodd" clip-rule="evenodd" fill="#006837" d="M450.232,21.661C446.151,14.32,446.231,7.225,449.455,0
			C454.137,4.454,453.182,14.26,450.232,21.661z"/>
	</g>
	<g>
		<path fill-rule="evenodd" clip-rule="evenodd" fill="#006837" d="M443.732,21.661C439.651,14.32,439.731,7.225,442.955,0
			C447.637,4.454,446.682,14.26,443.732,21.661z"/>
	</g>
	<g>
		<path fill-rule="evenodd" clip-rule="evenodd" fill="#006837" d="M437.232,21.661C433.151,14.32,433.231,7.225,436.455,0
			C441.137,4.454,440.182,14.26,437.232,21.661z"/>
	</g>
	<g>
		<path fill-rule="evenodd" clip-rule="evenodd" fill="#006837" d="M430.732,21.661C426.651,14.32,426.731,7.225,429.955,0
			C434.637,4.454,433.682,14.26,430.732,21.661z"/>
	</g>
	<g>
		<path fill-rule="evenodd" clip-rule="evenodd" fill="#006837" d="M424.232,21.661C420.151,14.32,420.231,7.225,423.455,0
			C428.137,4.454,427.182,14.26,424.232,21.661z"/>
	</g>
	<g>
		<path fill-rule="evenodd" clip-rule="evenodd" fill="#006837" d="M417.732,21.661C413.651,14.32,413.731,7.225,416.955,0
			C421.637,4.454,420.682,14.26,417.732,21.661z"/>
	</g>
	<g>
		<path fill-rule="evenodd" clip-rule="evenodd" fill="#006837" d="M411.232,21.661C407.151,14.32,407.231,7.225,410.455,0
			C415.137,4.454,414.182,14.26,411.232,21.661z"/>
	</g>
</g>
<g>
	<g>
		<path fill-rule="evenodd" clip-rule="evenodd" fill="#006837" d="M404,0.331v21V0.331z"/>
		<path fill="none" stroke="#006837" stroke-width="3" stroke-miterlimit="10" d="M404.5,0.331v21V0.331z"/>
	</g>
	<g>
		<path fill-rule="evenodd" clip-rule="evenodd" fill="#006837" d="M398,0.331v21V0.331z"/>
		<path fill="none" stroke="#006837" stroke-width="3" stroke-miterlimit="10" d="M398.5,0.331v21V0.331z"/>
	</g>
	<g>
		<path fill-rule="evenodd" clip-rule="evenodd" fill="#006837" d="M392,0.331v21V0.331z"/>
		<path fill="none" stroke="#006837" stroke-width="3" stroke-miterlimit="10" d="M392.5,0.331v21V0.331z"/>
	</g>
	<g>
		<path fill-rule="evenodd" clip-rule="evenodd" fill="#006837" d="M386,0.331v21V0.331z"/>
		<path fill="none" stroke="#006837" stroke-width="3" stroke-miterlimit="10" d="M386.5,0.331v21V0.331z"/>
	</g>
	<g>
		<path fill-rule="evenodd" clip-rule="evenodd" fill="#006837" d="M380,0.331v21V0.331z"/>
		<path fill="none" stroke="#006837" stroke-width="3" stroke-miterlimit="10" d="M380.5,0.331v21V0.331z"/>
	</g>
	<g>
		<path fill-rule="evenodd" clip-rule="evenodd" fill="#006837" d="M374,0.331v21V0.331z"/>
		<path fill="none" stroke="#006837" stroke-width="3" stroke-miterlimit="10" d="M374.5,0.331v21V0.331z"/>
	</g>
	<g>
		<path fill-rule="evenodd" clip-rule="evenodd" fill="#006837" d="M368,0.331v21V0.331z"/>
		<path fill="none" stroke="#006837" stroke-width="3" stroke-miterlimit="10" d="M368.5,0.331v21V0.331z"/>
	</g>
	<g>
		<path fill-rule="evenodd" clip-rule="evenodd" fill="#006837" d="M362,0.331v21V0.331z"/>
		<path fill="none" stroke="#006837" stroke-width="3" stroke-miterlimit="10" d="M362.5,0.331v21V0.331z"/>
	</g>
	<g>
		<path fill-rule="evenodd" clip-rule="evenodd" fill="#006837" d="M356,0.331v21V0.331z"/>
		<path fill="none" stroke="#006837" stroke-width="3" stroke-miterlimit="10" d="M356.5,0.331v21V0.331z"/>
	</g>
	<g>
		<path fill-rule="evenodd" clip-rule="evenodd" fill="#006837" d="M350,0.331v21V0.331z"/>
		<path fill="none" stroke="#006837" stroke-width="3" stroke-miterlimit="10" d="M350.5,0.331v21V0.331z"/>
	</g>
	<g>
		<path fill-rule="evenodd" clip-rule="evenodd" fill="#006837" d="M344,0.331v21V0.331z"/>
		<path fill="none" stroke="#006837" stroke-width="3" stroke-miterlimit="10" d="M344.5,0.331v21V0.331z"/>
	</g>
	<g>
		<path fill-rule="evenodd" clip-rule="evenodd" fill="#006837" d="M338,0.331v21V0.331z"/>
		<path fill="none" stroke="#006837" stroke-width="3" stroke-miterlimit="10" d="M338.5,0.331v21V0.331z"/>
	</g>
	<g>
		<path fill-rule="evenodd" clip-rule="evenodd" fill="#006837" d="M332,0.331v21V0.331z"/>
		<path fill="none" stroke="#006837" stroke-width="3" stroke-miterlimit="10" d="M332.5,0.331v21V0.331z"/>
	</g>
	<g>
		<path fill-rule="evenodd" clip-rule="evenodd" fill="#006837" d="M326,0.331v21V0.331z"/>
		<path fill="none" stroke="#006837" stroke-width="3" stroke-miterlimit="10" d="M326.5,0.331v21V0.331z"/>
	</g>
	<g>
		<path fill-rule="evenodd" clip-rule="evenodd" fill="#006837" d="M320,0.331v21V0.331z"/>
		<path fill="none" stroke="#006837" stroke-width="3" stroke-miterlimit="10" d="M320.5,0.331v21V0.331z"/>
	</g>
	<g>
		<path fill-rule="evenodd" clip-rule="evenodd" fill="#006837" d="M314,0.331v21V0.331z"/>
		<path fill="none" stroke="#006837" stroke-width="3" stroke-miterlimit="10" d="M314.5,0.331v21V0.331z"/>
	</g>
	<g>
		<path fill-rule="evenodd" clip-rule="evenodd" fill="#006837" d="M308,0.331v21V0.331z"/>
		<path fill="none" stroke="#006837" stroke-width="3" stroke-miterlimit="10" d="M308.5,0.331v21V0.331z"/>
	</g>
	<g>
		<path fill-rule="evenodd" clip-rule="evenodd" fill="#006837" d="M302,0.331v21V0.331z"/>
		<path fill="none" stroke="#006837" stroke-width="3" stroke-miterlimit="10" d="M302.5,0.331v21V0.331z"/>
	</g>
	<g>
		<path fill-rule="evenodd" clip-rule="evenodd" fill="#006837" d="M296,0.331v21V0.331z"/>
		<path fill="none" stroke="#006837" stroke-width="3" stroke-miterlimit="10" d="M296.5,0.331v21V0.331z"/>
	</g>
	<g>
		<path fill-rule="evenodd" clip-rule="evenodd" fill="#006837" d="M290,0.331v21V0.331z"/>
		<path fill="none" stroke="#006837" stroke-width="3" stroke-miterlimit="10" d="M290.5,0.331v21V0.331z"/>
	</g>
	<g>
		<path fill-rule="evenodd" clip-rule="evenodd" fill="#006837" d="M284,0.331v21V0.331z"/>
		<path fill="none" stroke="#006837" stroke-width="3" stroke-miterlimit="10" d="M284.5,0.331v21V0.331z"/>
	</g>
	<g>
		<path fill-rule="evenodd" clip-rule="evenodd" fill="#006837" d="M278,0.331v21V0.331z"/>
		<path fill="none" stroke="#006837" stroke-width="3" stroke-miterlimit="10" d="M278.5,0.331v21V0.331z"/>
	</g>
	<g>
		<path fill-rule="evenodd" clip-rule="evenodd" fill="#006837" d="M272,0.331v21V0.331z"/>
		<path fill="none" stroke="#006837" stroke-width="3" stroke-miterlimit="10" d="M272.5,0.331v21V0.331z"/>
	</g>
	<g>
		<path fill-rule="evenodd" clip-rule="evenodd" fill="#006837" d="M266,0.331v21V0.331z"/>
		<path fill="none" stroke="#006837" stroke-width="3" stroke-miterlimit="10" d="M266.5,0.331v21V0.331z"/>
	</g>
	<g>
		<path fill-rule="evenodd" clip-rule="evenodd" fill="#006837" d="M260,0.331v21V0.331z"/>
		<path fill="none" stroke="#006837" stroke-width="3" stroke-miterlimit="10" d="M260.5,0.331v21V0.331z"/>
	</g>
	<g>
		<path fill-rule="evenodd" clip-rule="evenodd" fill="#006837" d="M254,0.331v21V0.331z"/>
		<path fill="none" stroke="#006837" stroke-width="3" stroke-miterlimit="10" d="M254.5,0.331v21V0.331z"/>
	</g>
	<g>
		<path fill-rule="evenodd" clip-rule="evenodd" fill="#006837" d="M248,0.331v21V0.331z"/>
		<path fill="none" stroke="#006837" stroke-width="3" stroke-miterlimit="10" d="M248.5,0.331v21V0.331z"/>
	</g>
	<g>
		<path fill-rule="evenodd" clip-rule="evenodd" fill="#006837" d="M242,0.331v21V0.331z"/>
		<path fill="none" stroke="#006837" stroke-width="3" stroke-miterlimit="10" d="M242.5,0.331v21V0.331z"/>
	</g>
	<g>
		<path fill-rule="evenodd" clip-rule="evenodd" fill="#006837" d="M236,0.331v21V0.331z"/>
		<path fill="none" stroke="#006837" stroke-width="3" stroke-miterlimit="10" d="M236.5,0.331v21V0.331z"/>
	</g>
	<g>
		<path fill-rule="evenodd" clip-rule="evenodd" fill="#006837" d="M230,0.331v21V0.331z"/>
		<path fill="none" stroke="#006837" stroke-width="3" stroke-miterlimit="10" d="M230.5,0.331v21V0.331z"/>
	</g>
	<g>
		<path fill-rule="evenodd" clip-rule="evenodd" fill="#006837" d="M224,0.331v21V0.331z"/>
		<path fill="none" stroke="#006837" stroke-width="3" stroke-miterlimit="10" d="M224.5,0.331v21V0.331z"/>
	</g>
	<g>
		<path fill-rule="evenodd" clip-rule="evenodd" fill="#006837" d="M218,0.331v21V0.331z"/>
		<path fill="none" stroke="#006837" stroke-width="3" stroke-miterlimit="10" d="M218.5,0.331v21V0.331z"/>
	</g>
	<g>
		<path fill-rule="evenodd" clip-rule="evenodd" fill="#006837" d="M212,0.331v21V0.331z"/>
		<path fill="none" stroke="#006837" stroke-width="3" stroke-miterlimit="10" d="M212.5,0.331v21V0.331z"/>
	</g>
	<g>
		<path fill-rule="evenodd" clip-rule="evenodd" fill="#006837" d="M206,0.331v21V0.331z"/>
		<path fill="none" stroke="#006837" stroke-width="3" stroke-miterlimit="10" d="M206.5,0.331v21V0.331z"/>
	</g>
</g>
<g>
	<g>
		<path fill-rule="evenodd" clip-rule="evenodd" fill="#006837" d="M755,0.331v21V0.331z"/>
		<path fill="none" stroke="#006837" stroke-width="3" stroke-miterlimit="10" d="M755.5,0.331v21V0.331z"/>
	</g>
	<g>
		<path fill-rule="evenodd" clip-rule="evenodd" fill="#006837" d="M749,0.331v21V0.331z"/>
		<path fill="none" stroke="#006837" stroke-width="3" stroke-miterlimit="10" d="M749.5,0.331v21V0.331z"/>
	</g>
	<g>
		<path fill-rule="evenodd" clip-rule="evenodd" fill="#006837" d="M743,0.331v21V0.331z"/>
		<path fill="none" stroke="#006837" stroke-width="3" stroke-miterlimit="10" d="M743.5,0.331v21V0.331z"/>
	</g>
	<g>
		<path fill-rule="evenodd" clip-rule="evenodd" fill="#006837" d="M737,0.331v21V0.331z"/>
		<path fill="none" stroke="#006837" stroke-width="3" stroke-miterlimit="10" d="M737.5,0.331v21V0.331z"/>
	</g>
	<g>
		<path fill-rule="evenodd" clip-rule="evenodd" fill="#006837" d="M731,0.331v21V0.331z"/>
		<path fill="none" stroke="#006837" stroke-width="3" stroke-miterlimit="10" d="M731.5,0.331v21V0.331z"/>
	</g>
	<g>
		<path fill-rule="evenodd" clip-rule="evenodd" fill="#006837" d="M725,0.331v21V0.331z"/>
		<path fill="none" stroke="#006837" stroke-width="3" stroke-miterlimit="10" d="M725.5,0.331v21V0.331z"/>
	</g>
	<g>
		<path fill-rule="evenodd" clip-rule="evenodd" fill="#006837" d="M719,0.331v21V0.331z"/>
		<path fill="none" stroke="#006837" stroke-width="3" stroke-miterlimit="10" d="M719.5,0.331v21V0.331z"/>
	</g>
	<g>
		<path fill-rule="evenodd" clip-rule="evenodd" fill="#006837" d="M713,0.331v21V0.331z"/>
		<path fill="none" stroke="#006837" stroke-width="3" stroke-miterlimit="10" d="M713.5,0.331v21V0.331z"/>
	</g>
	<g>
		<path fill-rule="evenodd" clip-rule="evenodd" fill="#006837" d="M707,0.331v21V0.331z"/>
		<path fill="none" stroke="#006837" stroke-width="3" stroke-miterlimit="10" d="M707.5,0.331v21V0.331z"/>
	</g>
	<g>
		<path fill-rule="evenodd" clip-rule="evenodd" fill="#006837" d="M701,0.331v21V0.331z"/>
		<path fill="none" stroke="#006837" stroke-width="3" stroke-miterlimit="10" d="M701.5,0.331v21V0.331z"/>
	</g>
	<g>
		<path fill-rule="evenodd" clip-rule="evenodd" fill="#006837" d="M695,0.331v21V0.331z"/>
		<path fill="none" stroke="#006837" stroke-width="3" stroke-miterlimit="10" d="M695.5,0.331v21V0.331z"/>
	</g>
	<g>
		<path fill-rule="evenodd" clip-rule="evenodd" fill="#006837" d="M689,0.331v21V0.331z"/>
		<path fill="none" stroke="#006837" stroke-width="3" stroke-miterlimit="10" d="M689.5,0.331v21V0.331z"/>
	</g>
	<g>
		<path fill-rule="evenodd" clip-rule="evenodd" fill="#006837" d="M683,0.331v21V0.331z"/>
		<path fill="none" stroke="#006837" stroke-width="3" stroke-miterlimit="10" d="M683.5,0.331v21V0.331z"/>
	</g>
	<g>
		<path fill-rule="evenodd" clip-rule="evenodd" fill="#006837" d="M677,0.331v21V0.331z"/>
		<path fill="none" stroke="#006837" stroke-width="3" stroke-miterlimit="10" d="M677.5,0.331v21V0.331z"/>
	</g>
	<g>
		<path fill-rule="evenodd" clip-rule="evenodd" fill="#006837" d="M671,0.331v21V0.331z"/>
		<path fill="none" stroke="#006837" stroke-width="3" stroke-miterlimit="10" d="M671.5,0.331v21V0.331z"/>
	</g>
	<g>
		<path fill-rule="evenodd" clip-rule="evenodd" fill="#006837" d="M665,0.331v21V0.331z"/>
		<path fill="none" stroke="#006837" stroke-width="3" stroke-miterlimit="10" d="M665.5,0.331v21V0.331z"/>
	</g>
	<g>
		<path fill-rule="evenodd" clip-rule="evenodd" fill="#006837" d="M659,0.331v21V0.331z"/>
		<path fill="none" stroke="#006837" stroke-width="3" stroke-miterlimit="10" d="M659.5,0.331v21V0.331z"/>
	</g>
	<g>
		<path fill-rule="evenodd" clip-rule="evenodd" fill="#006837" d="M653,0.331v21V0.331z"/>
		<path fill="none" stroke="#006837" stroke-width="3" stroke-miterlimit="10" d="M653.5,0.331v21V0.331z"/>
	</g>
	<g>
		<path fill-rule="evenodd" clip-rule="evenodd" fill="#006837" d="M647,0.331v21V0.331z"/>
		<path fill="none" stroke="#006837" stroke-width="3" stroke-miterlimit="10" d="M647.5,0.331v21V0.331z"/>
	</g>
	<g>
		<path fill-rule="evenodd" clip-rule="evenodd" fill="#006837" d="M641,0.331v21V0.331z"/>
		<path fill="none" stroke="#006837" stroke-width="3" stroke-miterlimit="10" d="M641.5,0.331v21V0.331z"/>
	</g>
	<g>
		<path fill-rule="evenodd" clip-rule="evenodd" fill="#006837" d="M635,0.331v21V0.331z"/>
		<path fill="none" stroke="#006837" stroke-width="3" stroke-miterlimit="10" d="M635.5,0.331v21V0.331z"/>
	</g>
	<g>
		<path fill-rule="evenodd" clip-rule="evenodd" fill="#006837" d="M629,0.331v21V0.331z"/>
		<path fill="none" stroke="#006837" stroke-width="3" stroke-miterlimit="10" d="M629.5,0.331v21V0.331z"/>
	</g>
	<g>
		<path fill-rule="evenodd" clip-rule="evenodd" fill="#006837" d="M623,0.331v21V0.331z"/>
		<path fill="none" stroke="#006837" stroke-width="3" stroke-miterlimit="10" d="M623.5,0.331v21V0.331z"/>
	</g>
	<g>
		<path fill-rule="evenodd" clip-rule="evenodd" fill="#006837" d="M617,0.331v21V0.331z"/>
		<path fill="none" stroke="#006837" stroke-width="3" stroke-miterlimit="10" d="M617.5,0.331v21V0.331z"/>
	</g>
	<g>
		<path fill-rule="evenodd" clip-rule="evenodd" fill="#006837" d="M611,0.331v21V0.331z"/>
		<path fill="none" stroke="#006837" stroke-width="3" stroke-miterlimit="10" d="M611.5,0.331v21V0.331z"/>
	</g>
</g>
</svg>
