<?xml version="1.0" encoding="utf-8"?>
<!-- Generator: Adobe Illustrator 16.0.3, SVG Export Plug-In . SVG Version: 6.00 Build 0)  -->
<!DOCTYPE svg PUBLIC "-//W3C//DTD SVG 1.1//EN" "http://www.w3.org/Graphics/SVG/1.1/DTD/svg11.dtd">
<svg version="1.1" id="Layer_1" xmlns="http://www.w3.org/2000/svg" xmlns:xlink="http://www.w3.org/1999/xlink" x="0px" y="0px"
	 width="760px" height="135.365px" viewBox="0 0 760 135.365" enable-background="new 0 0 760 135.365" xml:space="preserve">
<line fill-rule="evenodd" clip-rule="evenodd" fill="#006837" stroke="#000000" stroke-width="2" stroke-miterlimit="10" x1="5" y1="62.769" x2="759" y2="62.769"/>
<line fill-rule="evenodd" clip-rule="evenodd" fill="#006837" stroke="#000000" stroke-width="2" stroke-miterlimit="10" x1="5" y1="54.769" x2="5" y2="67.769"/>
<line fill-rule="evenodd" clip-rule="evenodd" fill="#006837" stroke="#000000" stroke-width="2" stroke-miterlimit="10" x1="759" y1="54.769" x2="759" y2="67.769"/>
<line fill-rule="evenodd" clip-rule="evenodd" fill="#006837" stroke="#000000" stroke-width="2" stroke-miterlimit="10" x1="105" y1="55.769" x2="105" y2="68.769"/>
<line fill-rule="evenodd" clip-rule="evenodd" fill="#006837" stroke="#000000" stroke-width="2" stroke-miterlimit="10" x1="205" y1="55.769" x2="205" y2="68.769"/>
<line fill-rule="evenodd" clip-rule="evenodd" fill="#006837" stroke="#000000" stroke-width="2" stroke-miterlimit="10" x1="305" y1="54.769" x2="305" y2="67.769"/>
<line fill-rule="evenodd" clip-rule="evenodd" fill="#006837" stroke="#000000" stroke-width="2" stroke-miterlimit="10" x1="405" y1="54.769" x2="405" y2="67.769"/>
<line fill-rule="evenodd" clip-rule="evenodd" fill="#006837" stroke="#000000" stroke-width="2" stroke-miterlimit="10" x1="505" y1="55.769" x2="505" y2="68.769"/>
<line fill-rule="evenodd" clip-rule="evenodd" fill="#006837" stroke="#000000" stroke-width="2" stroke-miterlimit="10" x1="606" y1="55.769" x2="606" y2="68.769"/>
<line fill-rule="evenodd" clip-rule="evenodd" fill="#006837" stroke="#000000" stroke-width="2" stroke-miterlimit="10" x1="705" y1="55.769" x2="705" y2="68.769"/>
<text transform="matrix(1 0 0 1 100 87.769)" font-family="'MyriadPro-Regular'" font-size="18">1</text>
<text transform="matrix(1 0 0 1 200 87.769)" font-family="'MyriadPro-Regular'" font-size="18">2</text>
<text transform="matrix(1 0 0 1 299 87.769)" font-family="'MyriadPro-Regular'" font-size="18">3</text>
<text transform="matrix(1 0 0 1 400 87.769)" font-family="'MyriadPro-Regular'" font-size="18">4</text>
<text transform="matrix(1 0 0 1 500 87.769)" font-family="'MyriadPro-Regular'" font-size="18">5</text>
<text transform="matrix(1 0 0 1 601 87.769)" font-family="'MyriadPro-Regular'" font-size="18">6</text>
<text transform="matrix(1 0 0 1 699 87.769)" font-family="'MyriadPro-Regular'" font-size="18">7</text>
<text transform="matrix(1 0 0 1 320.6152 127.769)" font-family="'HelveticaNeueLight'" font-size="36">Seconds</text>
<text transform="matrix(1 0 0 1 0 87.769)" font-family="'MyriadPro-Regular'" font-size="18">0</text>
<g>
	<g>
		<g>
			<path fill-rule="evenodd" clip-rule="evenodd" fill="#006837" d="M733,39.44c0.244,0.077,0.488,0.155,0.732,0.232
				c0.35-1.022,0.697-2.044,1.219-3.573c0.688,1.367,1.215,2.412,1.906,3.785c0.359-1.564,0.609-2.654,1.078-4.694
				c0.93,2.062,1.465,3.249,2.357,5.231c0-13.894,0-26.891,0-39.888c-0.216-0.006-0.432-0.012-0.648-0.018
				c-0.415,1.509-0.831,3.019-1.64,5.955c-0.565-2.679-0.821-3.895-1.08-5.121c-0.571,1.06-1.081,2.003-1.77,3.281
				c-0.653-1.863-1.138-3.248-1.624-4.631c-0.177,0.063-0.354,0.126-0.531,0.188C733,13.273,733,26.356,733,39.44z"/>
			<path fill-rule="evenodd" clip-rule="evenodd" fill="#006837" d="M733,39.44c0-13.084,0-26.167,0-39.251
				c0.242-0.063,0.486-0.126,0.729-0.188c0.666,1.383,1.33,2.768,2.227,4.631c0.945-1.278,1.643-2.222,2.426-3.281
				c0.354,1.226,0.706,2.441,1.48,5.121c1.109-2.936,1.68-4.446,2.249-5.955c0.296,0.006,0.593,0.012,0.89,0.018
				c0,12.998,0,25.995,0,39.888c-1.225-1.982-1.959-3.17-3.232-5.231c-0.643,2.04-0.986,3.13-1.479,4.694
				c-0.949-1.373-1.67-2.418-2.613-3.785c-0.715,1.529-1.193,2.551-1.672,3.573C733.67,39.595,733.334,39.517,733,39.44z"/>
		</g>
	</g>
	<g>
		<g>
			<path fill-rule="evenodd" clip-rule="evenodd" fill="#006837" d="M629,39.44c0.244,0.077,0.488,0.155,0.732,0.232
				c0.35-1.022,0.697-2.044,1.219-3.573c0.688,1.367,1.215,2.412,1.906,3.785c0.359-1.564,0.609-2.654,1.078-4.694
				c0.93,2.062,1.465,3.249,2.357,5.231c0-13.894,0-26.891,0-39.888c-0.216-0.006-0.432-0.012-0.648-0.018
				c-0.415,1.509-0.831,3.019-1.64,5.955c-0.565-2.679-0.821-3.895-1.08-5.121c-0.571,1.06-1.081,2.003-1.77,3.281
				c-0.653-1.863-1.138-3.248-1.624-4.631c-0.177,0.063-0.354,0.126-0.531,0.188C629,13.273,629,26.356,629,39.44z"/>
			<path fill-rule="evenodd" clip-rule="evenodd" fill="#006837" d="M629,39.44c0-13.084,0-26.167,0-39.251
				c0.242-0.063,0.486-0.126,0.729-0.188c0.666,1.383,1.33,2.768,2.227,4.631c0.945-1.278,1.643-2.222,2.426-3.281
				c0.354,1.226,0.706,2.441,1.48,5.121c1.109-2.936,1.68-4.446,2.249-5.955c0.296,0.006,0.593,0.012,0.89,0.018
				c0,12.998,0,25.995,0,39.888c-1.225-1.982-1.959-3.17-3.232-5.231c-0.643,2.04-0.986,3.13-1.479,4.694
				c-0.949-1.373-1.67-2.418-2.613-3.785c-0.715,1.529-1.193,2.551-1.672,3.573C629.67,39.595,629.334,39.517,629,39.44z"/>
		</g>
	</g>
	<g>
		<g>
			<path fill-rule="evenodd" clip-rule="evenodd" fill="#006837" d="M525,39.44c0.244,0.077,0.488,0.155,0.732,0.232
				c0.35-1.022,0.697-2.044,1.219-3.573c0.688,1.367,1.215,2.412,1.906,3.785c0.359-1.564,0.609-2.654,1.078-4.694
				c0.93,2.062,1.465,3.249,2.357,5.231c0-13.894,0-26.891,0-39.888c-0.216-0.006-0.432-0.012-0.648-0.018
				c-0.415,1.509-0.831,3.019-1.64,5.955c-0.565-2.679-0.821-3.895-1.08-5.121c-0.571,1.06-1.081,2.003-1.77,3.281
				c-0.653-1.863-1.138-3.248-1.624-4.631c-0.177,0.063-0.354,0.126-0.531,0.188C525,13.273,525,26.356,525,39.44z"/>
			<path fill-rule="evenodd" clip-rule="evenodd" fill="#006837" d="M525,39.44c0-13.084,0-26.167,0-39.251
				c0.242-0.063,0.486-0.126,0.729-0.188c0.666,1.383,1.33,2.768,2.227,4.631c0.945-1.278,1.643-2.222,2.426-3.281
				c0.354,1.226,0.706,2.441,1.48,5.121c1.109-2.936,1.68-4.446,2.249-5.955c0.296,0.006,0.593,0.012,0.89,0.018
				c0,12.998,0,25.995,0,39.888c-1.225-1.982-1.959-3.17-3.232-5.231c-0.643,2.04-0.986,3.13-1.479,4.694
				c-0.949-1.373-1.67-2.418-2.613-3.785c-0.715,1.529-1.193,2.551-1.672,3.573C525.67,39.595,525.334,39.517,525,39.44z"/>
		</g>
	</g>
	<g>
		<g>
			<path fill-rule="evenodd" clip-rule="evenodd" fill="#006837" d="M421,39.44c0.244,0.077,0.488,0.155,0.732,0.232
				c0.35-1.022,0.697-2.044,1.219-3.573c0.688,1.367,1.215,2.412,1.906,3.785c0.359-1.564,0.609-2.654,1.078-4.694
				c0.93,2.062,1.465,3.249,2.357,5.231c0-13.894,0-26.891,0-39.888c-0.216-0.006-0.432-0.012-0.648-0.018
				c-0.415,1.509-0.831,3.019-1.64,5.955c-0.565-2.679-0.821-3.895-1.08-5.121c-0.571,1.06-1.081,2.003-1.77,3.281
				c-0.653-1.863-1.138-3.248-1.624-4.631c-0.177,0.063-0.354,0.126-0.531,0.188C421,13.273,421,26.356,421,39.44z"/>
			<path fill-rule="evenodd" clip-rule="evenodd" fill="#006837" d="M421,39.44c0-13.084,0-26.167,0-39.251
				c0.242-0.063,0.486-0.126,0.729-0.188c0.666,1.383,1.33,2.768,2.227,4.631c0.945-1.278,1.643-2.222,2.426-3.281
				c0.354,1.226,0.706,2.441,1.48,5.121c1.109-2.936,1.68-4.446,2.249-5.955c0.296,0.006,0.593,0.012,0.89,0.018
				c0,12.998,0,25.995,0,39.888c-1.225-1.982-1.959-3.17-3.232-5.231c-0.643,2.04-0.986,3.13-1.479,4.694
				c-0.949-1.373-1.67-2.418-2.613-3.785c-0.715,1.529-1.193,2.551-1.672,3.573C421.67,39.595,421.334,39.517,421,39.44z"/>
		</g>
	</g>
	<g>
		<g>
			<path fill-rule="evenodd" clip-rule="evenodd" fill="#006837" d="M317,39.44c0.244,0.077,0.488,0.155,0.732,0.232
				c0.349-1.022,0.698-2.044,1.219-3.573c0.688,1.367,1.214,2.412,1.906,3.785c0.359-1.564,0.61-2.654,1.078-4.694
				c0.93,2.062,1.465,3.249,2.358,5.231c0-13.894,0-26.891,0-39.888c-0.216-0.006-0.433-0.012-0.649-0.018
				c-0.415,1.509-0.831,3.019-1.64,5.955c-0.565-2.679-0.822-3.895-1.08-5.121c-0.572,1.06-1.081,2.003-1.77,3.281
				c-0.653-1.863-1.138-3.248-1.624-4.631c-0.177,0.063-0.354,0.126-0.532,0.188C317,13.273,317,26.356,317,39.44z"/>
			<path fill-rule="evenodd" clip-rule="evenodd" fill="#006837" d="M317,39.44c0-13.084,0-26.167,0-39.251
				c0.243-0.063,0.486-0.126,0.729-0.188c0.666,1.383,1.33,2.768,2.226,4.631c0.945-1.278,1.642-2.222,2.426-3.281
				c0.354,1.226,0.706,2.441,1.48,5.121c1.109-2.936,1.68-4.446,2.249-5.955c0.296,0.006,0.593,0.012,0.89,0.018
				c0,12.998,0,25.995,0,39.888c-1.224-1.982-1.958-3.17-3.233-5.231c-0.642,2.04-0.986,3.13-1.478,4.694
				c-0.949-1.373-1.67-2.418-2.613-3.785c-0.715,1.529-1.193,2.551-1.672,3.573C317.669,39.595,317.334,39.517,317,39.44z"/>
		</g>
	</g>
	<g>
		<g>
			<path fill-rule="evenodd" clip-rule="evenodd" fill="#006837" d="M213,39.44c0.244,0.077,0.488,0.155,0.732,0.232
				c0.349-1.022,0.698-2.044,1.219-3.573c0.688,1.367,1.214,2.412,1.906,3.785c0.359-1.564,0.61-2.654,1.078-4.694
				c0.93,2.062,1.465,3.249,2.358,5.231c0-13.894,0-26.891,0-39.888c-0.216-0.006-0.433-0.012-0.649-0.018
				c-0.415,1.509-0.831,3.019-1.64,5.955c-0.565-2.679-0.822-3.895-1.08-5.121c-0.572,1.06-1.081,2.003-1.77,3.281
				c-0.653-1.863-1.138-3.248-1.624-4.631c-0.177,0.063-0.354,0.126-0.532,0.188C213,13.273,213,26.356,213,39.44z"/>
			<path fill-rule="evenodd" clip-rule="evenodd" fill="#006837" d="M213,39.44c0-13.084,0-26.167,0-39.251
				c0.243-0.063,0.486-0.126,0.729-0.188c0.666,1.383,1.33,2.768,2.226,4.631c0.945-1.278,1.642-2.222,2.426-3.281
				c0.354,1.226,0.706,2.441,1.48,5.121c1.109-2.936,1.68-4.446,2.249-5.955c0.296,0.006,0.593,0.012,0.89,0.018
				c0,12.998,0,25.995,0,39.888c-1.224-1.982-1.958-3.17-3.233-5.231c-0.642,2.04-0.986,3.13-1.478,4.694
				c-0.949-1.373-1.67-2.418-2.613-3.785c-0.715,1.529-1.193,2.551-1.672,3.573C213.669,39.595,213.334,39.517,213,39.44z"/>
		</g>
	</g>
	<g>
		<g>
			<path fill-rule="evenodd" clip-rule="evenodd" fill="#006837" d="M109,39.44c0.244,0.077,0.488,0.155,0.732,0.232
				c0.349-1.022,0.698-2.044,1.219-3.573c0.688,1.367,1.214,2.412,1.906,3.785c0.359-1.564,0.61-2.654,1.078-4.694
				c0.93,2.062,1.465,3.249,2.358,5.231c0-13.894,0-26.891,0-39.888c-0.216-0.006-0.433-0.012-0.649-0.018
				c-0.415,1.509-0.831,3.019-1.64,5.955c-0.565-2.679-0.822-3.895-1.08-5.121c-0.572,1.06-1.081,2.003-1.77,3.281
				c-0.653-1.863-1.138-3.248-1.624-4.631c-0.177,0.063-0.354,0.126-0.532,0.188C109,13.273,109,26.356,109,39.44z"/>
			<path fill-rule="evenodd" clip-rule="evenodd" fill="#006837" d="M109,39.44c0-13.084,0-26.167,0-39.251
				c0.243-0.063,0.486-0.126,0.729-0.188c0.666,1.383,1.33,2.768,2.226,4.631c0.945-1.278,1.642-2.222,2.426-3.281
				c0.354,1.226,0.706,2.441,1.48,5.121c1.109-2.936,1.68-4.446,2.249-5.955c0.296,0.006,0.593,0.012,0.89,0.018
				c0,12.998,0,25.995,0,39.888c-1.224-1.982-1.958-3.17-3.233-5.231c-0.642,2.04-0.986,3.13-1.478,4.694
				c-0.949-1.373-1.67-2.418-2.613-3.785c-0.715,1.529-1.193,2.551-1.672,3.573C109.669,39.595,109.334,39.517,109,39.44z"/>
		</g>
	</g>
	<g>
		<g>
			<path fill-rule="evenodd" clip-rule="evenodd" fill="#006837" d="M5,39.44c0.244,0.077,0.488,0.155,0.732,0.232
				c0.349-1.022,0.698-2.044,1.219-3.573c0.688,1.367,1.214,2.412,1.906,3.785c0.359-1.564,0.61-2.654,1.078-4.694
				c0.93,2.062,1.465,3.249,2.358,5.231c0-13.894,0-26.891,0-39.888c-0.216-0.006-0.433-0.012-0.649-0.018
				c-0.415,1.509-0.831,3.019-1.64,5.955C9.439,3.792,9.183,2.576,8.925,1.35c-0.572,1.06-1.081,2.003-1.77,3.281
				C6.502,2.768,6.017,1.383,5.532,0C5.354,0.063,5.177,0.126,5,0.188C5,13.273,5,26.356,5,39.44z"/>
			<path fill-rule="evenodd" clip-rule="evenodd" fill="#006837" d="M5,39.44C5,26.356,5,13.273,5,0.188
				C5.243,0.126,5.486,0.063,5.729,0c0.666,1.383,1.33,2.768,2.226,4.631C8.9,3.353,9.597,2.41,10.381,1.35
				c0.354,1.226,0.706,2.441,1.48,5.121c1.109-2.936,1.68-4.446,2.249-5.955c0.296,0.006,0.593,0.012,0.89,0.018
				c0,12.998,0,25.995,0,39.888c-1.224-1.982-1.958-3.17-3.233-5.231c-0.642,2.04-0.986,3.13-1.478,4.694
				c-0.949-1.373-1.67-2.418-2.613-3.785c-0.715,1.529-1.193,2.551-1.672,3.573C5.669,39.595,5.334,39.517,5,39.44z"/>
		</g>
	</g>
</g>
</svg>
