<?xml version="1.0" encoding="utf-8"?>
<!-- Generator: Adobe Illustrator 16.0.3, SVG Export Plug-In . SVG Version: 6.00 Build 0)  -->
<!DOCTYPE svg PUBLIC "-//W3C//DTD SVG 1.1//EN" "http://www.w3.org/Graphics/SVG/1.1/DTD/svg11.dtd">
<svg version="1.1" id="Layer_1" xmlns="http://www.w3.org/2000/svg" xmlns:xlink="http://www.w3.org/1999/xlink" x="0px" y="0px"
	 width="760px" height="143.484px" viewBox="0 0 760 143.484" enable-background="new 0 0 760 143.484" xml:space="preserve">
<line fill-rule="evenodd" clip-rule="evenodd" fill="#006837" stroke="#000000" stroke-width="2" stroke-miterlimit="10" x1="5" y1="65.889" x2="759" y2="65.889"/>
<line fill-rule="evenodd" clip-rule="evenodd" fill="#006837" stroke="#000000" stroke-width="2" stroke-miterlimit="10" x1="5" y1="57.889" x2="5" y2="70.889"/>
<line fill-rule="evenodd" clip-rule="evenodd" fill="#006837" stroke="#000000" stroke-width="2" stroke-miterlimit="10" x1="759" y1="57.889" x2="759" y2="70.889"/>
<line fill-rule="evenodd" clip-rule="evenodd" fill="#006837" stroke="#000000" stroke-width="2" stroke-miterlimit="10" x1="105" y1="58.889" x2="105" y2="71.889"/>
<line fill-rule="evenodd" clip-rule="evenodd" fill="#006837" stroke="#000000" stroke-width="2" stroke-miterlimit="10" x1="205" y1="58.889" x2="205" y2="71.889"/>
<line fill-rule="evenodd" clip-rule="evenodd" fill="#006837" stroke="#000000" stroke-width="2" stroke-miterlimit="10" x1="305" y1="57.889" x2="305" y2="70.889"/>
<line fill-rule="evenodd" clip-rule="evenodd" fill="#006837" stroke="#000000" stroke-width="2" stroke-miterlimit="10" x1="405" y1="57.889" x2="405" y2="70.889"/>
<line fill-rule="evenodd" clip-rule="evenodd" fill="#006837" stroke="#000000" stroke-width="2" stroke-miterlimit="10" x1="505" y1="58.889" x2="505" y2="71.889"/>
<line fill-rule="evenodd" clip-rule="evenodd" fill="#006837" stroke="#000000" stroke-width="2" stroke-miterlimit="10" x1="606" y1="58.889" x2="606" y2="71.889"/>
<line fill-rule="evenodd" clip-rule="evenodd" fill="#006837" stroke="#000000" stroke-width="2" stroke-miterlimit="10" x1="705" y1="58.889" x2="705" y2="71.889"/>
<text transform="matrix(1 0 0 1 100 90.8887)" font-family="'MyriadPro-Regular'" font-size="18">1</text>
<text transform="matrix(1 0 0 1 200 90.8887)" font-family="'MyriadPro-Regular'" font-size="18">2</text>
<text transform="matrix(1 0 0 1 299 90.8887)" font-family="'MyriadPro-Regular'" font-size="18">3</text>
<text transform="matrix(1 0 0 1 400 90.8887)" font-family="'MyriadPro-Regular'" font-size="18">4</text>
<text transform="matrix(1 0 0 1 500 90.8887)" font-family="'MyriadPro-Regular'" font-size="18">5</text>
<text transform="matrix(1 0 0 1 601 90.8887)" font-family="'MyriadPro-Regular'" font-size="18">6</text>
<text transform="matrix(1 0 0 1 699 90.8887)" font-family="'MyriadPro-Regular'" font-size="18">7</text>
<text transform="matrix(1 0 0 1 321.5586 135.8887)" font-family="'HelveticaNeueLight'" font-size="36">Seconds</text>
<text transform="matrix(1 0 0 1 0 90.8887)" font-family="'MyriadPro-Regular'" font-size="18">0</text>
<g>
	<path fill-rule="evenodd" clip-rule="evenodd" fill="#006837" d="M747.194,18.557c0,5.477,0.203,10.964-0.075,16.425
		c-0.169,3.327-1.002,4.913-5.577,3.417c-10.617-3.472-21.685-5.547-32.475-8.526c-3.067-0.848-6.147-2.449-8.612-4.454
		c-2.679-2.182-4.704-5.099-3.295-9.176c1.522-4.403,5.348-5.977,9.04-6.942c12.599-3.292,25.331-6.063,37.988-9.129
		c2.358-0.571,3.012,0.303,2.996,2.443c-0.038,5.313-0.013,10.627-0.013,15.942C747.18,18.557,747.188,18.557,747.194,18.557z"/>
	<path fill-rule="evenodd" clip-rule="evenodd" fill="#006837" d="M685.318,18.938c0,5.63,0.023,11.259-0.013,16.888
		c-0.013,2.041-0.4,2.652-2.982,2.014c-12.357-3.064-24.859-5.542-37.233-8.543c-3.134-0.76-6.401-2.162-8.883-4.168
		c-4.706-3.805-2.434-12.014,4.158-14.271c5.12-1.755,10.647-2.289,15.955-3.533c5.764-1.351,11.454-3.015,17.229-4.307
		c3.119-0.697,6.347-1.143,9.528-1.162c0.828-0.005,2.323,1.975,2.39,3.11c0.274,4.643,0.114,9.312,0.114,13.971
		C685.494,18.937,685.406,18.937,685.318,18.938z"/>
	<path fill-rule="evenodd" clip-rule="evenodd" fill="#006837" d="M562.461,19.714c0,4.157,0.072,8.316-0.024,12.471
		c-0.07,2.988-1.508,3.842-4.572,3.223c-9.568-1.931-19.215-3.478-28.799-5.344c-4.367-0.852-8.669-2.061-12.979-3.184
		c-4.066-1.06-6.939-3.526-7.145-7.863c-0.218-4.627,3.153-6.93,7.009-7.911c4.641-1.181,9.458-1.69,14.211-2.407
		c8.001-1.207,16.013-2.345,24.019-3.519c0.655-0.096,1.329-0.17,1.95-0.384c5.696-1.959,6.383-1.54,6.563,4.44
		c0.104,3.49,0.019,6.985,0.019,10.479C562.628,19.714,562.545,19.714,562.461,19.714z"/>
	<path fill-rule="evenodd" clip-rule="evenodd" fill="#006837" d="M621.604,18.072c0,5.133-0.063,10.267,0.027,15.397
		c0.043,2.525-0.776,2.91-3.256,2.418c-12.012-2.384-24.065-4.555-36.123-6.695c-3.885-0.691-9.771-6.049-9.974-9.4
		c-0.244-4.03,2.536-7.689,7.933-8.855c9.854-2.131,19.827-3.706,29.745-5.542c2.588-0.479,5.369-0.614,7.689-1.703
		c4.218-1.977,4.518,0.245,4.482,3.425c-0.041,3.65-0.01,7.303-0.01,10.953C621.948,18.07,621.776,18.071,621.604,18.072z"/>
	<path fill-rule="evenodd" clip-rule="evenodd" fill="#006837" d="M499.306,20.349c-0.183,3.988-0.553,7.979-0.485,11.962
		c0.05,2.894-0.994,2.655-3.297,2.216c-12.59-2.394-25.206-4.666-37.86-6.684c-3.228-0.514-8.473-3.599-9.012-6.656
		c-0.773-4.381,1.599-7.299,5.527-8.191c8.235-1.873,16.601-3.171,24.901-4.761c5.356-1.025,10.774-1.863,16.009-3.344
		c2.838-0.803,3.849,0.063,3.94,2.486c0.162,4.316,0.046,8.645,0.046,12.967C499.152,20.345,499.229,20.347,499.306,20.349z"/>
	<path fill-rule="evenodd" clip-rule="evenodd" fill="#006837" d="M436.629,19.47c0,3.826,0.149,7.664-0.108,11.473
		c-0.062,0.91-1.615,2.568-2.25,2.464c-9.281-1.527-18.505-3.415-27.784-4.954c-4.378-0.727-8.924-0.533-13.251-1.441
		c-2.925-0.612-6.102-1.859-8.274-3.814c-3.518-3.166-2.671-6.954,1.912-8.263c6.315-1.804,12.86-2.851,19.345-4.005
		c9.223-1.644,18.507-2.953,27.705-4.713c2.505-0.479,2.834,0.03,2.721,2.296c-0.182,3.644-0.049,7.304-0.049,10.958
		C436.606,19.47,436.618,19.47,436.629,19.47z"/>
	<path fill-rule="evenodd" clip-rule="evenodd" fill="#006837" d="M372.476,18.711c-0.346,3.963-0.503,7.96-1.185,11.865
		c-0.149,0.856-2.288,2.122-3.306,1.954c-10.55-1.742-21.055-3.752-31.579-5.658c-3.898-0.705-8.02-0.803-11.625-2.228
		c-1.64-0.648-2.958-3.776-3.188-5.911c-0.296-2.761,1.257-4.994,4.567-5.443c11.988-1.627,23.962-3.352,35.939-5.05
		c1.315-0.187,2.628-0.407,3.929-0.677c6.204-1.287,6.207-1.294,6.254,5.143c0.015,1.994,0.002,3.986,0.002,5.98
		C372.349,18.694,372.412,18.703,372.476,18.711z"/>
	<path fill-rule="evenodd" clip-rule="evenodd" fill="#006837" d="M309.027,19.608c0,3.488,0,6.978,0,10.467
		c-3.288-0.135-6.603-0.047-9.859-0.441c-11.276-1.363-22.532-2.885-33.792-4.375c-0.983-0.13-2.243-0.168-2.849-0.774
		c-1.846-1.843-4.494-3.763-4.873-5.985c-0.561-3.292,2.499-4.639,5.575-5.045c12.319-1.627,24.638-3.259,36.956-4.894
		c1.482-0.197,3.017-0.242,4.431-0.675c4.039-1.234,4.959-0.648,4.967,3.734c0.004,2.662-0.229,5.323-0.354,7.984
		C309.161,19.606,309.094,19.606,309.027,19.608z"/>
	<path fill-rule="evenodd" clip-rule="evenodd" fill="#006837" d="M246.275,17.628c-0.196,14.411,0.047,12.27-11.736,10.836
		c-10.359-1.262-20.707-2.619-31.055-3.968c-1.638-0.214-3.516-0.195-4.811-1.023c-1.641-1.052-4.215-3.466-3.891-4.22
		c0.852-1.986,2.81-4.322,4.771-4.84c4.455-1.178,9.175-1.344,13.788-1.928c10.122-1.279,20.239-2.599,30.375-3.751
		c0.6-0.068,1.834,1.13,1.946,1.864C246.087,13.382,246.17,16.217,246.275,17.628z"/>
	<path fill-rule="evenodd" clip-rule="evenodd" fill="#006837" d="M182.762,20.351c0,2.938,0,5.876,0,8.814
		c-2.668-0.484-5.322-1.092-8.009-1.428c-11.653-1.462-23.324-2.778-34.969-4.297c-3.331-0.435-7.984-0.386-8.164-4.721
		c-0.184-4.418,4.702-4.141,7.637-4.545c7.014-0.967,14.137-1.113,21.195-1.803c6.574-0.643,13.159-1.344,19.664-2.457
		c2.603-0.445,2.921,0.612,2.964,2.484c0.06,2.648,0.015,5.3,0.015,7.949C182.984,20.349,182.873,20.351,182.762,20.351z"/>
	<path fill-rule="evenodd" clip-rule="evenodd" fill="#006837" d="M120.766,18.991c0,0.996-0.079,2.002,0.014,2.99
		c0.384,4.109-0.658,5.221-5.309,4.44c-10.233-1.717-20.65-2.323-30.981-3.472c-3.573-0.396-7.166-0.855-10.646-1.709
		c-1.158-0.283-1.993-1.885-2.976-2.884c0.879-0.842,1.639-2.186,2.662-2.431c2.869-0.687,5.834-1.047,8.782-1.309
		c11.378-1.014,22.812-1.584,34.124-3.08c4.185-0.553,4.385,0.984,4.31,3.963c-0.029,1.163-0.004,2.327-0.004,3.49
		C120.75,18.991,120.758,18.991,120.766,18.991z"/>
	<path fill-rule="evenodd" clip-rule="evenodd" fill="#006837" d="M14.627,15.982c9.72-0.914,19.449-1.759,29.158-2.774
		c3.881-0.406,7.712-1.285,11.592-1.721c0.724-0.082,2.208,0.865,2.256,1.43c0.34,3.952,0.485,7.928,0.434,11.894
		c-0.007,0.522-1.535,1.539-2.268,1.462c-11.833-1.236-23.654-2.598-35.473-3.967c-3.765-0.436-7.554-0.805-11.254-1.574
		C7.919,20.491,7.017,19.038,6,18.14c1.082-0.664,2.09-1.641,3.264-1.919c1.721-0.408,3.56-0.316,5.349-0.437
		C14.617,15.85,14.622,15.916,14.627,15.982z"/>
</g>
</svg>
