<?xml version="1.0" encoding="utf-8"?>
<!-- Generator: Adobe Illustrator 16.0.3, SVG Export Plug-In . SVG Version: 6.00 Build 0)  -->
<!DOCTYPE svg PUBLIC "-//W3C//DTD SVG 1.1//EN" "http://www.w3.org/Graphics/SVG/1.1/DTD/svg11.dtd">
<svg version="1.1" id="Layer_1" xmlns="http://www.w3.org/2000/svg" xmlns:xlink="http://www.w3.org/1999/xlink" x="0px" y="0px"
	 width="760px" height="146.018px" viewBox="0 0 760 146.018" enable-background="new 0 0 760 146.018" xml:space="preserve">
<line fill-rule="evenodd" clip-rule="evenodd" fill="#006837" stroke="#000000" stroke-width="2" stroke-miterlimit="10" x1="5" y1="73.422" x2="759" y2="73.422"/>
<line fill-rule="evenodd" clip-rule="evenodd" fill="#006837" stroke="#000000" stroke-width="2" stroke-miterlimit="10" x1="5" y1="65.422" x2="5" y2="78.422"/>
<line fill-rule="evenodd" clip-rule="evenodd" fill="#006837" stroke="#000000" stroke-width="2" stroke-miterlimit="10" x1="759" y1="65.422" x2="759" y2="78.422"/>
<line fill-rule="evenodd" clip-rule="evenodd" fill="#006837" stroke="#000000" stroke-width="2" stroke-miterlimit="10" x1="105" y1="66.422" x2="105" y2="79.422"/>
<line fill-rule="evenodd" clip-rule="evenodd" fill="#006837" stroke="#000000" stroke-width="2" stroke-miterlimit="10" x1="205" y1="66.422" x2="205" y2="79.422"/>
<line fill-rule="evenodd" clip-rule="evenodd" fill="#006837" stroke="#000000" stroke-width="2" stroke-miterlimit="10" x1="305" y1="65.422" x2="305" y2="78.422"/>
<line fill-rule="evenodd" clip-rule="evenodd" fill="#006837" stroke="#000000" stroke-width="2" stroke-miterlimit="10" x1="405" y1="65.422" x2="405" y2="78.422"/>
<line fill-rule="evenodd" clip-rule="evenodd" fill="#006837" stroke="#000000" stroke-width="2" stroke-miterlimit="10" x1="505" y1="66.422" x2="505" y2="79.422"/>
<line fill-rule="evenodd" clip-rule="evenodd" fill="#006837" stroke="#000000" stroke-width="2" stroke-miterlimit="10" x1="606" y1="66.422" x2="606" y2="79.422"/>
<line fill-rule="evenodd" clip-rule="evenodd" fill="#006837" stroke="#000000" stroke-width="2" stroke-miterlimit="10" x1="705" y1="66.422" x2="705" y2="79.422"/>
<text transform="matrix(1 0 0 1 100 98.4219)" font-family="'MyriadPro-Regular'" font-size="18">1</text>
<text transform="matrix(1 0 0 1 200 98.4219)" font-family="'MyriadPro-Regular'" font-size="18">2</text>
<text transform="matrix(1 0 0 1 299 98.4219)" font-family="'MyriadPro-Regular'" font-size="18">3</text>
<text transform="matrix(1 0 0 1 400 98.4219)" font-family="'MyriadPro-Regular'" font-size="18">4</text>
<text transform="matrix(1 0 0 1 500 98.4219)" font-family="'MyriadPro-Regular'" font-size="18">5</text>
<text transform="matrix(1 0 0 1 601 98.4219)" font-family="'MyriadPro-Regular'" font-size="18">6</text>
<text transform="matrix(1 0 0 1 699 98.4219)" font-family="'MyriadPro-Regular'" font-size="18">7</text>
<text transform="matrix(1 0 0 1 323 138.4219)" font-family="'HelveticaNeueLight'" font-size="36">Seconds</text>
<text transform="matrix(1 0 0 1 0 98.4219)" font-family="'MyriadPro-Regular'" font-size="18">0</text>
<g>
	<path fill-rule="evenodd" clip-rule="evenodd" fill="#006837" d="M450.541,0.887c-0.6,0.041-1.199,0.081-1.799,0.122
		c-1.527,2.459-3.138,4.871-4.555,7.394c-1.053,1.875-1.656,4.021-2.831,5.802c-0.912,1.383-2.396,2.389-3.625,3.562
		c-0.94-1.439-2.037-2.804-2.787-4.337c-1.522-3.112-2.604-6.463-4.343-9.437c-1.623-2.776-3.795-3.088-5.429,0.233
		c-1.905,3.874-3.672,7.818-5.649,11.654c-0.527,1.023-1.606,1.764-2.433,2.633c-0.851-0.932-1.99-1.729-2.492-2.822
		c-1.104-2.406-1.631-5.096-2.871-7.414c-1.187-2.218-2.979-4.111-4.505-6.147c-1.685,1.867-3.706,3.532-4.975,5.648
		c-1.979,3.3-3.445,6.907-5.13,10.384c-0.524,0.014-1.048,0.029-1.572,0.045c-1.377-2.712-2.802-5.4-4.116-8.143
		c-0.921-1.921-1.515-4.015-2.567-5.854c-1.915-3.345-4.202-3.456-6.385-0.207c-1.074,1.597-1.56,3.606-2.221,5.46
		c-0.777,2.179-1.334,4.444-2.242,6.563c-0.33,0.771-1.548,1.827-2.09,1.688c-0.91-0.23-1.931-1.169-2.331-2.065
		c-1.621-3.64-2.809-7.487-4.613-11.025c-0.698-1.37-2.547-2.797-3.988-2.928c-1.023-0.093-2.7,1.743-3.277,3.069
		c-1.454,3.34-2.361,6.913-3.687,10.316c-0.366,0.939-1.388,2.184-2.182,2.237c-0.774,0.055-1.959-1.07-2.413-1.96
		c-1.887-3.694-3.455-7.552-5.354-11.239c-1.806-3.505-4.65-3.582-6.629-0.266c-1.011,1.694-1.806,3.519-2.671,5.298
		c-1.466,3.014-2.911,6.037-4.364,9.057c-0.559,0.018-1.117,0.037-1.676,0.055c-1.516-4.253-2.84-8.589-4.641-12.718
		c-0.709-1.623-2.426-3.788-3.787-3.865c-1.346-0.076-3.264,1.916-4.154,3.451c-1.994,3.433-3.428,7.185-5.259,10.719
		c-0.555,1.071-1.665,1.853-2.521,2.767c-0.923-1.059-2.206-1.973-2.696-3.204c-1.168-2.927-1.673-6.14-3.006-8.975
		c-0.907-1.932-2.76-3.421-4.19-5.108c-1.517,1.564-3.461,2.898-4.457,4.742c-1.726,3.197-2.763,6.758-4.32,10.057
		c-0.399,0.845-1.612,1.588-2.563,1.764c-0.445,0.082-1.381-1.214-1.712-2.038c-1.362-3.39-2.366-6.941-3.946-10.22
		c-0.701-1.455-2.458-2.402-3.736-3.581c-1.031,1.328-2.234,2.559-3.064,4.003c-2.402,4.179-4.653,8.446-6.964,12.679
		c-0.541-0.152-1.082-0.303-1.623-0.455c-0.59-1.105-1.281-2.171-1.75-3.326c-1.497-3.691-2.589-7.587-4.449-11.078
		c-1.897-3.561-4.106-3.351-5.801,0.256c-1.834,3.906-3.368,7.953-5.228,11.844c-0.476,0.994-1.687,1.636-2.561,2.44
		c-0.736-0.951-1.695-1.803-2.167-2.87c-1.613-3.644-2.777-7.509-4.633-11.014c-2.227-4.204-4.743-4.079-7.165,0.151
		c-1.813,3.166-3.241,6.555-5.091,9.696c-0.853,1.448-2.308,2.542-3.489,3.797c-0.846-1.438-1.906-2.794-2.491-4.33
		c-1.119-2.937-1.782-6.056-3.011-8.938c-0.579-1.36-1.937-3.138-3.11-3.273c-1.063-0.123-2.763,1.497-3.468,2.75
		c-2.018,3.59-3.598,7.423-5.521,11.072c-0.487,0.924-1.915,2.281-2.379,2.098c-1.023-0.403-2.021-1.531-2.473-2.6
		c-1.554-3.67-2.744-7.498-4.355-11.14c-0.454-1.025-1.889-2.253-2.853-2.235c-0.938,0.018-2.227,1.341-2.699,2.39
		c-1.425,3.17-2.318,6.588-3.842,9.702c-0.776,1.585-2.46,2.725-3.734,4.064c-1.033-1.375-2.337-2.624-3.042-4.151
		c-1.522-3.299-2.422-6.914-4.17-10.072c-1.618-2.921-3.671-3.152-5.234,0.464c-1.642,3.8-3.406,7.564-5.4,11.187
		c-0.623,1.132-2.425,2.645-3.23,2.41c-1.29-0.373-2.552-1.889-3.201-3.226c-1.593-3.282-2.591-6.861-4.275-10.088
		c-1.911-3.662-4.011-3.688-6.016-0.19c-2.055,3.586-3.659,7.43-5.709,11.019c-0.74,1.295-2.202,2.178-3.334,3.247
		c-0.978-1.243-2.254-2.355-2.873-3.759c-1.404-3.185-2.276-6.61-3.754-9.755c-1.553-3.308-4.02-3.583-5.95-0.419
		c-1.877,3.076-3.084,6.552-4.769,9.755c-0.703,1.337-1.88,2.424-2.842,3.625c-0.993-1.17-2.279-2.199-2.918-3.537
		c-1.499-3.137-2.404-6.579-4.073-9.61c-2.278-4.137-4.578-4.036-6.655,0.139c-1.402,2.819-2.289,5.893-3.658,8.731
		c-0.66,1.369-1.901,2.458-2.879,3.674c-0.861-1.254-1.959-2.408-2.539-3.781c-1.755-4.156-1.718-9.29-7.642-12.347
		c-2.24,4.175-4.35,8.331-6.688,12.354c-0.836,1.438-2.22,2.557-3.354,3.822c-1.275-1.161-2.914-2.107-3.753-3.526
		c-1.983-3.347-3.586-6.92-5.342-10.402c-0.582-0.128-1.163-0.255-1.744-0.383C70.45,6.731,68.2,10.603,65.73,14.327
		c-0.733,1.105-2.085,1.8-3.154,2.683c-0.753-1.009-1.586-1.97-2.245-3.037c-1.821-2.951-3.569-5.945-5.79-9.667
		c-2.308,2.833-3.84,4.366-4.967,6.153c-6.802,10.802-6.833,10.864-13.785,0.32c-1.88-2.851-3.813-2.864-6.108-0.894
		c-1.116,0.958-2.001,2.188-2.969,3.314c-2.005,2.337-3.994,4.687-5.99,7.03c-2.109-2.287-4.051-4.773-6.408-6.77
		c-1.002-0.848-3.838-1.359-4.197-0.854c-3.056,4.3-6.744,8.741-4.352,14.512c1.218,2.938,3.469,5.45,5.253,8.154
		c2.234-1.732,4.801-3.177,6.623-5.269c2.636-3.024,4.525-2.915,6.535,0.4c0.688,1.138,1.503,2.198,2.257,3.296
		c4.225,6.146,7.283,6.141,11.044-0.023c0.607-0.995,1.191-2.005,1.824-2.982c2.581-3.986,5.418-3.805,7.579,0.531
		c0.813,1.635,1.175,3.557,2.229,4.992c1.188,1.615,2.903,3.893,4.426,3.921c1.565,0.029,3.458-2.089,4.686-3.671
		c1.298-1.674,1.864-3.896,2.981-5.738c0.627-1.034,1.723-1.784,2.608-2.662c0.943,1.009,2.213,1.866,2.766,3.057
		c1.323,2.848,1.987,6.043,3.56,8.722c0.869,1.479,3.001,2.942,4.624,3.013c1.158,0.049,2.809-2.039,3.541-3.519
		c1.242-2.51,1.819-5.339,2.91-7.937c0.466-1.11,1.518-1.976,2.304-2.953c1.014,0.963,2.445,1.745,2.954,2.925
		c1.113,2.579,1.375,5.575,2.719,7.992c1.03,1.853,3.188,3.079,4.844,4.583c1.36-1.74,3.049-3.316,4.007-5.254
		c1.645-3.326,2.833-6.877,4.212-10.334c0.56-0.057,1.12-0.113,1.68-0.168c1.673,3.455,3.017,7.131,5.132,10.29
		c1.471,2.198,4.002,3.687,6.06,5.491c1.295-1.83,2.666-3.61,3.853-5.508c0.604-0.964,0.783-2.186,1.32-3.203
		c1.203-2.283,2.511-4.51,3.776-6.76c1.46,2.009,2.939,4.005,4.371,6.035c0.379,0.537,0.56,1.213,0.925,1.764
		c1.768,2.67,3.567,5.318,5.355,7.974c2.113-2.802,4.301-5.552,6.316-8.423c1.709-2.436,3.219-5.013,4.818-7.527
		c1.604,2.723,3.413,5.35,4.759,8.193c1.533,3.24,2.344,6.941,7.286,8.032c2.02-4.379,3.944-8.745,6.064-13.013
		c0.533-1.074,1.692-1.838,2.564-2.744c0.898,0.875,2.021,1.612,2.652,2.649c1.979,3.247,3.423,6.88,5.726,9.86
		c3.179,4.114,5.428,3.538,7.189-1.341c1.072-2.972,1.975-6.013,3.223-8.907c0.459-1.064,1.65-2.438,2.582-2.496
		c0.895-0.055,2.22,1.225,2.769,2.236c1.644,3.033,2.812,6.333,4.55,9.303c0.852,1.455,2.556,2.412,3.875,3.596
		c1.097-1.281,2.563-2.4,3.212-3.878c1.264-2.878,1.922-6.021,3.144-8.92c0.443-1.052,1.677-2.141,2.753-2.413
		c0.629-0.16,2.01,1.086,2.446,1.992c1.583,3.293,2.697,6.822,4.426,10.025c0.837,1.551,2.841,3.746,3.972,3.56
		c1.678-0.276,3.491-2.153,4.451-3.81c1.567-2.707,2.354-5.854,3.755-8.674c0.583-1.173,1.896-1.981,2.878-2.956
		c0.853,1.124,1.903,2.15,2.52,3.392c1.544,3.109,2.589,6.502,4.393,9.438c2.411,3.923,4.737,3.807,6.862-0.346
		c1.729-3.381,2.682-7.15,4.276-10.611c0.519-1.127,1.975-1.821,3.002-2.713c0.782,0.948,1.821,1.784,2.301,2.867
		c2.036,4.6,3.904,9.274,5.834,13.921c0.718,0.095,1.436,0.189,2.154,0.284c2.26-4.811,4.436-9.664,6.842-14.399
		c0.581-1.144,1.927-1.897,2.921-2.831c0.758,0.973,1.714,1.851,2.238,2.938c2.242,4.648,4.356,9.358,6.646,14.321
		c2.051-1.099,3.323-1.339,3.686-2.048c1.953-3.82,3.628-7.781,5.523-11.635c0.467-0.949,1.394-1.673,2.109-2.5
		c0.773,0.746,1.815,1.356,2.271,2.263c1.55,3.089,2.595,6.465,4.389,9.391c2.563,4.179,5.215,4.167,7.73,0.083
		c1.64-2.663,2.589-5.746,4.162-8.459c0.841-1.449,2.349-2.512,3.556-3.748c1.033,1.19,2.363,2.236,3.038,3.604
		c1.528,3.106,2.396,6.572,4.151,9.524c2.643,4.445,5.794,4.158,7.902-0.566c1.351-3.03,2.209-6.277,3.434-9.369
		c0.445-1.121,1.313-2.074,1.986-3.104c0.918,0.994,2.064,1.861,2.711,3.01c1.943,3.443,3.36,7.228,5.604,10.445
		c2.563,3.672,5.026,3.332,7.023-0.729c1.461-2.973,2.289-6.252,3.693-9.257c0.552-1.179,1.904-1.983,2.891-2.958
		c0.934,1.021,2.115,1.909,2.75,3.091c1.57,2.923,2.692,6.097,4.395,8.931c0.852,1.42,2.602,3.228,3.9,3.192
		c1.281-0.035,2.992-1.956,3.654-3.437c1.48-3.313,2.341-6.9,3.648-10.301c0.359-0.937,1.404-1.611,2.135-2.406
		c0.709,0.817,1.672,1.525,2.085,2.474c1.586,3.642,2.851,7.428,4.554,11.009c0.564,1.188,2.196,2.773,3.146,2.653
		c1.328-0.169,2.981-1.522,3.597-2.802c1.436-2.979,2.185-6.283,3.518-9.321c0.588-1.337,1.924-2.346,2.92-3.503
		c0.905,1.064,2.051,2.007,2.671,3.218c1.738,3.394,2.993,7.058,4.938,10.317c2.119,3.55,4.641,3.298,6.414-0.453
		c1.629-3.448,2.884-7.072,4.497-10.527c0.578-1.24,1.719-2.217,2.604-3.314c0.881,1.077,1.95,2.051,2.609,3.25
		c2.558,4.65,4.985,9.374,7.461,14.069c0.74-0.016,1.48-0.032,2.222-0.048c2.232-4.496,4.412-9.02,6.733-13.47
		c0.621-1.191,1.675-2.157,2.53-3.228c1.119,1.074,2.59,1.961,3.283,3.263c1.316,2.47,1.892,5.357,3.337,7.73
		c1.215,1.997,3.227,3.511,4.886,5.236c1.219-1.646,2.629-3.187,3.604-4.966c0.942-1.724,1.376-3.719,2.146-5.547
		c0.84-1.997,1.809-3.94,3.33-7.217c3.416,6.98,6.159,12.587,8.903,18.193c0.587,0.029,1.174,0.058,1.761,0.087
		c1.31-1.923,2.849-3.731,3.872-5.796c1.399-2.819,2.265-5.902,3.656-8.725c0.492-0.998,1.855-1.567,2.821-2.332
		c0.655,0.89,1.537,1.692,1.925,2.688c1.264,3.246,2.131,6.664,3.595,9.809c0.677,1.455,2.515,3.499,3.59,3.366
		c1.532-0.188,3.332-1.872,4.155-3.386c1.571-2.891,2.416-6.166,3.811-9.167c0.5-1.074,1.714-1.816,2.602-2.71
		c0.802,0.921,1.899,1.716,2.351,2.785c1.356,3.213,2.313,6.598,3.705,9.795c1.438,3.302,3.982,3.557,5.829,0.477
		c1.781-2.969,2.925-6.314,4.574-9.372c0.79-1.466,2.101-2.651,3.174-3.964c0.857,1.286,1.849,2.506,2.542,3.875
		c1.274,2.514,2.135,5.268,3.626,7.633c1.078,1.711,2.897,2.953,4.387,4.405c1.507-1.659,3.367-3.122,4.434-5.028
		c1.451-2.587,2.122-5.602,3.474-8.258c0.663-1.303,2.105-2.21,3.195-3.295c0.869,1.032,1.941,1.954,2.572,3.117
		c2.481,4.578,4.824,9.232,7.296,14.008c5.952-3.328,6.281-8.816,8.122-13.505c0.523-1.334,2.013-2.289,3.06-3.417
		c0.7,1.21,1.5,2.375,2.081,3.641c2.147,4.676,4.224,9.387,6.326,14.083c0.629-0.067,1.257-0.134,1.885-0.201
		c1.271-1.851,2.769-3.589,3.765-5.577c1.638-3.267,2.819-6.764,4.471-10.021c0.586-1.16,1.981-1.91,3.008-2.848
		c0.847,1.096,1.972,2.075,2.487,3.309c1.593,3.814,2.704,7.841,4.467,11.566c2.091,4.418,3.943,4.477,6.372,0.113
		c2.085-3.744,3.438-7.889,5.366-11.73c0.486-0.968,1.866-1.799,2.965-2.006c0.501-0.094,1.539,1.383,1.95,2.316
		c1.527,3.471,2.746,7.082,4.398,10.486c0.627,1.291,2.235,3.11,3.187,2.992c1.282-0.158,2.766-1.744,3.464-3.084
		c6.088-11.672,6.675-23.494,0.206-35.225c-0.876-1.587-3.047-3.882-4.094-3.634c-1.719,0.406-3.426,2.398-4.38,4.138
		c-1.419,2.587-2.04,5.6-3.283,8.301c-0.475,1.032-1.796,2.43-2.609,2.354c-0.934-0.088-1.947-1.501-2.55-2.555
		c-1.731-3.027-3.068-6.293-4.937-9.225c-2.899-4.554-5.862-4.231-8.293,0.692c-0.366,0.743-0.528,1.593-0.927,2.314
		c-1.601,2.897-3.257,5.763-4.893,8.642c-1.79-2.813-3.581-5.625-5.372-8.438c-1.571-2.469-3.144-4.936-4.714-7.403
		c-0.56,0.166-1.119,0.332-1.679,0.498c-1.947,4.505-3.767,9.073-5.921,13.476c-0.637,1.303-2.566,3.202-3.301,2.966
		c-1.418-0.459-2.775-2.063-3.49-3.521c-1.237-2.522-1.661-5.46-3.003-7.909c-1.132-2.064-3.081-3.68-5.563-6.52
		c-2.288,5.935-3.778,10.314-5.696,14.496c-0.677,1.477-2.398,2.475-3.644,3.689c-1.075-1.321-2.466-2.499-3.161-3.998
		c-1.46-3.146-2.199-6.664-3.896-9.652c-1.717-3.021-4.143-3.277-5.932,0.271c-1.198,2.378-2.06,4.961-3.5,7.174
		c-1.345,2.064-3.255,3.762-4.915,5.619c-1.282-2.005-2.688-3.946-3.8-6.043c-0.606-1.143-0.481-2.68-1.104-3.809
		c-1.225-2.219-2.739-4.276-4.134-6.399c-0.569-0.009-1.138-0.017-1.706-0.025c-2.656,5.644-5.312,11.286-8.571,18.212
		c-1.34-2.479-2.119-3.63-2.613-4.891c-1.271-3.249-2.16-6.677-3.729-9.765c-0.732-1.442-2.661-3.059-4.092-3.101
		c-1.028-0.03-2.429,2.277-3.129,3.789c-1.109,2.398-1.576,5.094-2.688,7.491c-0.766,1.648-2.16,3.006-3.273,4.492
		c-1.015-1.388-2.214-2.679-3.006-4.185c-1.776-3.374-3.191-6.943-5.053-10.265c-1.662-2.963-3.727-2.595-5.139,0.253
		c-1.62,3.27-2.8,6.759-4.42,10.03c-0.808,1.63-2.168,2.984-3.278,4.464c-1.035-1.579-2.223-3.081-3.072-4.754
		C454.374,9.068,452.489,4.961,450.541,0.887z"/>
	<path fill-rule="evenodd" clip-rule="evenodd" fill="#006837" d="M450.541,0.887c1.948,4.075,3.833,8.182,5.877,12.207
		c0.85,1.673,2.037,3.175,3.072,4.754c1.11-1.479,2.471-2.834,3.278-4.464c1.62-3.271,2.8-6.76,4.42-10.03
		c1.412-2.848,3.477-3.216,5.139-0.253c1.861,3.322,3.276,6.892,5.053,10.265c0.792,1.506,1.991,2.797,3.006,4.185
		c1.113-1.486,2.508-2.844,3.273-4.492c1.111-2.397,1.578-5.093,2.688-7.491c0.7-1.512,2.101-3.819,3.129-3.789
		c1.431,0.042,3.359,1.659,4.092,3.101c1.569,3.088,2.458,6.517,3.729,9.765c0.494,1.261,1.273,2.411,2.613,4.891
		c3.26-6.926,5.915-12.568,8.571-18.212c0.568,0.009,1.137,0.017,1.706,0.025c1.395,2.124,2.909,4.181,4.134,6.399
		c0.623,1.129,0.498,2.666,1.104,3.809c1.112,2.097,2.518,4.038,3.8,6.043c1.66-1.857,3.57-3.555,4.915-5.619
		c1.44-2.213,2.302-4.796,3.5-7.174c1.789-3.547,4.215-3.292,5.932-0.271c1.697,2.988,2.437,6.506,3.896,9.652
		c0.695,1.499,2.086,2.677,3.161,3.998c1.245-1.215,2.967-2.213,3.644-3.689c1.918-4.182,3.408-8.562,5.696-14.496
		c2.482,2.839,4.432,4.456,5.563,6.52c1.342,2.449,1.766,5.387,3.003,7.909c0.715,1.457,2.072,3.062,3.49,3.521
		c0.734,0.236,2.664-1.663,3.301-2.966c2.154-4.403,3.974-8.971,5.921-13.476c0.56-0.166,1.119-0.332,1.679-0.498
		c1.57,2.467,3.143,4.935,4.714,7.403c1.791,2.812,3.582,5.624,5.372,8.438c1.636-2.879,3.292-5.745,4.893-8.642
		c0.398-0.722,0.561-1.571,0.927-2.314c2.431-4.923,5.394-5.246,8.293-0.692c1.868,2.932,3.205,6.198,4.937,9.225
		c0.603,1.054,1.616,2.467,2.55,2.555c0.813,0.076,2.135-1.321,2.609-2.354c1.243-2.701,1.864-5.714,3.283-8.301
		c0.954-1.74,2.661-3.732,4.38-4.138c1.047-0.248,3.218,2.047,4.094,3.634c6.469,11.73,5.882,23.553-0.206,35.225
		c-0.698,1.34-2.182,2.926-3.464,3.084c-0.951,0.118-2.56-1.701-3.187-2.992c-1.652-3.404-2.871-7.016-4.398-10.486
		c-0.411-0.934-1.449-2.41-1.95-2.316c-1.099,0.207-2.479,1.038-2.965,2.006c-1.928,3.842-3.281,7.986-5.366,11.73
		c-2.429,4.363-4.281,4.305-6.372-0.113c-1.763-3.726-2.874-7.752-4.467-11.566c-0.516-1.233-1.641-2.213-2.487-3.309
		c-1.026,0.938-2.422,1.688-3.008,2.848c-1.651,3.258-2.833,6.755-4.471,10.021c-0.996,1.988-2.493,3.727-3.765,5.577
		c-0.628,0.067-1.256,0.134-1.885,0.201c-2.103-4.696-4.179-9.407-6.326-14.083c-0.581-1.266-1.381-2.431-2.081-3.641
		c-1.047,1.128-2.536,2.083-3.06,3.417c-1.841,4.688-2.17,10.177-8.122,13.505c-2.472-4.775-4.814-9.43-7.296-14.008
		c-0.631-1.163-1.703-2.085-2.572-3.117c-1.09,1.085-2.532,1.992-3.195,3.295c-1.352,2.656-2.022,5.671-3.474,8.258
		c-1.066,1.906-2.927,3.369-4.434,5.028c-1.489-1.452-3.309-2.694-4.387-4.405c-1.491-2.365-2.352-5.119-3.626-7.633
		c-0.693-1.369-1.685-2.589-2.542-3.875c-1.073,1.313-2.384,2.498-3.174,3.964c-1.649,3.058-2.793,6.403-4.574,9.372
		c-1.847,3.08-4.392,2.825-5.829-0.477c-1.392-3.197-2.349-6.582-3.705-9.795c-0.451-1.069-1.549-1.864-2.351-2.785
		c-0.888,0.894-2.102,1.636-2.602,2.71c-1.395,3.001-2.239,6.276-3.811,9.167c-0.823,1.514-2.623,3.197-4.155,3.386
		c-1.075,0.133-2.913-1.911-3.59-3.366c-1.464-3.145-2.331-6.563-3.595-9.809c-0.388-0.995-1.27-1.798-1.925-2.688
		c-0.966,0.765-2.329,1.334-2.821,2.332c-1.392,2.822-2.257,5.905-3.656,8.725c-1.023,2.064-2.563,3.873-3.872,5.796
		c-0.587-0.029-1.174-0.058-1.761-0.087c-2.744-5.606-5.487-11.213-8.903-18.193c-1.521,3.276-2.49,5.22-3.33,7.217
		c-0.77,1.828-1.203,3.823-2.146,5.547c-0.975,1.779-2.385,3.32-3.604,4.966c-1.659-1.726-3.671-3.239-4.886-5.236
		c-1.445-2.373-2.021-5.261-3.337-7.73c-0.693-1.302-2.164-2.188-3.283-3.263c-0.855,1.07-1.909,2.036-2.53,3.228
		c-2.321,4.45-4.501,8.974-6.733,13.47c-0.741,0.016-1.481,0.032-2.222,0.048c-2.476-4.695-4.903-9.419-7.461-14.069
		c-0.659-1.199-1.729-2.173-2.609-3.25c-0.885,1.098-2.025,2.074-2.604,3.314c-1.613,3.455-2.868,7.079-4.497,10.527
		c-1.773,3.751-4.295,4.003-6.414,0.453c-1.944-3.26-3.199-6.924-4.938-10.317c-0.62-1.211-1.766-2.153-2.671-3.218
		c-0.996,1.157-2.332,2.166-2.92,3.503c-1.333,3.038-2.082,6.342-3.518,9.321c-0.615,1.279-2.269,2.633-3.597,2.802
		c-0.95,0.12-2.582-1.466-3.146-2.653c-1.703-3.581-2.968-7.367-4.554-11.009c-0.413-0.948-1.376-1.656-2.085-2.474
		c-0.73,0.795-1.775,1.47-2.135,2.406c-1.308,3.4-2.168,6.987-3.648,10.301c-0.662,1.48-2.373,3.401-3.654,3.437
		c-1.299,0.035-3.049-1.772-3.9-3.192c-1.702-2.834-2.824-6.008-4.395-8.931c-0.635-1.182-1.816-2.069-2.75-3.091
		c-0.986,0.975-2.339,1.779-2.891,2.958c-1.404,3.005-2.232,6.284-3.693,9.257c-1.997,4.061-4.461,4.4-7.023,0.729
		c-2.243-3.218-3.66-7.002-5.604-10.445c-0.646-1.148-1.793-2.016-2.711-3.01c-0.674,1.029-1.541,1.982-1.986,3.104
		c-1.225,3.092-2.083,6.339-3.434,9.369c-2.108,4.725-5.26,5.012-7.902,0.566c-1.755-2.952-2.623-6.418-4.151-9.524
		c-0.675-1.368-2.005-2.414-3.038-3.604c-1.207,1.236-2.715,2.299-3.556,3.748c-1.573,2.713-2.522,5.796-4.162,8.459
		c-2.516,4.084-5.167,4.096-7.73-0.083c-1.794-2.926-2.839-6.302-4.389-9.391c-0.455-0.906-1.497-1.517-2.271-2.263
		c-0.716,0.827-1.643,1.551-2.109,2.5c-1.896,3.854-3.57,7.814-5.523,11.635c-0.362,0.709-1.635,0.949-3.686,2.048
		c-2.289-4.963-4.403-9.673-6.646-14.321c-0.524-1.087-1.48-1.965-2.238-2.938c-0.994,0.934-2.34,1.688-2.921,2.831
		c-2.406,4.735-4.582,9.589-6.842,14.399c-0.718-0.095-1.437-0.189-2.154-0.284c-1.93-4.646-3.799-9.321-5.834-13.921
		c-0.479-1.083-1.519-1.919-2.301-2.867c-1.027,0.892-2.483,1.586-3.002,2.713c-1.594,3.461-2.546,7.23-4.276,10.611
		c-2.125,4.152-4.451,4.269-6.862,0.346c-1.804-2.936-2.849-6.328-4.393-9.438c-0.616-1.241-1.667-2.268-2.52-3.392
		c-0.982,0.975-2.295,1.783-2.878,2.956c-1.401,2.82-2.188,5.967-3.755,8.674c-0.959,1.656-2.773,3.533-4.451,3.81
		c-1.131,0.187-3.135-2.009-3.972-3.56c-1.729-3.203-2.842-6.732-4.426-10.025c-0.436-0.906-1.816-2.152-2.446-1.992
		c-1.076,0.272-2.31,1.361-2.753,2.413c-1.222,2.899-1.88,6.042-3.144,8.92c-0.649,1.478-2.115,2.597-3.212,3.878
		c-1.318-1.184-3.022-2.141-3.875-3.596c-1.738-2.97-2.906-6.27-4.55-9.303c-0.549-1.012-1.875-2.291-2.769-2.236
		c-0.931,0.059-2.122,1.432-2.582,2.496c-1.248,2.895-2.151,5.936-3.223,8.907c-1.761,4.879-4.01,5.455-7.189,1.341
		c-2.302-2.98-3.746-6.613-5.726-9.86c-0.632-1.037-1.754-1.774-2.652-2.649c-0.872,0.906-2.031,1.67-2.564,2.744
		c-2.12,4.268-4.044,8.634-6.064,13.013c-4.942-1.091-5.753-4.792-7.286-8.032c-1.346-2.844-3.155-5.471-4.759-8.193
		c-1.599,2.515-3.108,5.092-4.818,7.527c-2.015,2.871-4.203,5.621-6.316,8.423c-1.788-2.655-3.587-5.304-5.355-7.974
		c-0.365-0.551-0.546-1.227-0.925-1.764c-1.432-2.03-2.911-4.026-4.371-6.035c-1.265,2.25-2.573,4.477-3.776,6.76
		c-0.537,1.018-0.716,2.239-1.32,3.203c-1.188,1.897-2.558,3.678-3.853,5.508c-2.058-1.805-4.589-3.293-6.06-5.491
		c-2.115-3.159-3.459-6.835-5.132-10.29c-0.56,0.055-1.12,0.111-1.68,0.168c-1.379,3.457-2.568,7.008-4.212,10.334
		c-0.958,1.938-2.647,3.514-4.007,5.254c-1.656-1.504-3.813-2.73-4.844-4.583c-1.345-2.417-1.606-5.413-2.719-7.992
		c-0.509-1.18-1.94-1.962-2.954-2.925c-0.786,0.978-1.838,1.843-2.304,2.953c-1.09,2.598-1.667,5.427-2.91,7.937
		c-0.732,1.479-2.383,3.567-3.541,3.519c-1.623-0.07-3.755-1.533-4.624-3.013c-1.573-2.679-2.237-5.874-3.56-8.722
		c-0.553-1.19-1.822-2.048-2.766-3.057c-0.885,0.878-1.981,1.628-2.608,2.662c-1.118,1.842-1.683,4.064-2.981,5.738
		c-1.229,1.582-3.121,3.7-4.686,3.671c-1.522-0.028-3.238-2.306-4.426-3.921c-1.054-1.436-1.415-3.357-2.229-4.992
		c-2.16-4.336-4.998-4.518-7.579-0.531c-0.633,0.978-1.217,1.987-1.824,2.982c-3.761,6.164-6.819,6.17-11.044,0.023
		c-0.754-1.098-1.569-2.158-2.257-3.296c-2.01-3.315-3.899-3.425-6.535-0.4c-1.822,2.092-4.389,3.536-6.623,5.269
		c-1.785-2.704-4.035-5.216-5.253-8.154c-2.392-5.771,1.296-10.212,4.352-14.512c0.358-0.506,3.194,0.006,4.197,0.854
		c2.357,1.996,4.298,4.482,6.408,6.77c1.996-2.344,3.985-4.693,5.99-7.03c0.967-1.126,1.853-2.356,2.969-3.314
		c2.295-1.97,4.228-1.958,6.108,0.894c6.951,10.543,6.982,10.482,13.785-0.32c1.126-1.788,2.659-3.321,4.967-6.153
		c2.22,3.721,3.969,6.716,5.79,9.667c0.659,1.067,1.491,2.028,2.245,3.037c1.068-0.883,2.421-1.577,3.154-2.683
		c2.47-3.724,4.719-7.596,7.053-11.411c0.582,0.128,1.163,0.255,1.744,0.383c1.756,3.482,3.359,7.055,5.342,10.402
		c0.84,1.419,2.478,2.365,3.753,3.526c1.134-1.266,2.518-2.385,3.354-3.822c2.338-4.022,4.448-8.178,6.688-12.354
		c5.924,3.057,5.887,8.19,7.642,12.347c0.579,1.373,1.678,2.527,2.539,3.781c0.979-1.216,2.219-2.305,2.879-3.674
		c1.369-2.838,2.255-5.912,3.658-8.731c2.077-4.174,4.377-4.276,6.655-0.139c1.669,3.031,2.574,6.473,4.073,9.61
		c0.64,1.338,1.926,2.367,2.918,3.537c0.961-1.201,2.139-2.288,2.842-3.625c1.684-3.204,2.892-6.68,4.769-9.755
		c1.931-3.165,4.397-2.889,5.95,0.419c1.478,3.145,2.35,6.57,3.754,9.755c0.619,1.403,1.896,2.516,2.873,3.759
		c1.132-1.069,2.594-1.952,3.334-3.247c2.05-3.589,3.654-7.433,5.709-11.019c2.005-3.498,4.105-3.471,6.016,0.19
		c1.684,3.227,2.682,6.807,4.275,10.088c0.649,1.337,1.911,2.853,3.201,3.226c0.806,0.234,2.607-1.278,3.23-2.41
		c1.994-3.623,3.758-7.387,5.4-11.187c1.563-3.616,3.617-3.385,5.234-0.464c1.748,3.158,2.648,6.772,4.17,10.072
		c0.705,1.527,2.009,2.776,3.042,4.151c1.274-1.34,2.958-2.479,3.734-4.064c1.524-3.114,2.417-6.531,3.842-9.702
		c0.472-1.049,1.761-2.373,2.699-2.39c0.964-0.019,2.399,1.209,2.853,2.235c1.611,3.642,2.801,7.47,4.355,11.14
		c0.452,1.068,1.45,2.196,2.473,2.6c0.465,0.184,1.892-1.174,2.379-2.098c1.923-3.648,3.503-7.481,5.521-11.072
		c0.705-1.254,2.404-2.874,3.468-2.75c1.173,0.135,2.531,1.913,3.11,3.273c1.229,2.882,1.892,6.001,3.011,8.938
		c0.585,1.536,1.646,2.893,2.491,4.33c1.181-1.255,2.636-2.349,3.489-3.797c1.85-3.141,3.278-6.53,5.091-9.696
		c2.422-4.23,4.938-4.355,7.165-0.151c1.856,3.505,3.021,7.371,4.633,11.014c0.473,1.067,1.431,1.919,2.167,2.87
		c0.874-0.805,2.085-1.446,2.561-2.44c1.86-3.892,3.394-7.938,5.228-11.844c1.694-3.607,3.904-3.817,5.801-0.256
		c1.86,3.491,2.952,7.387,4.449,11.078c0.469,1.155,1.16,2.221,1.75,3.326c0.541,0.152,1.082,0.303,1.623,0.455
		c2.311-4.232,4.562-8.5,6.964-12.679c0.83-1.445,2.033-2.675,3.064-4.003c1.278,1.179,3.035,2.126,3.736,3.581
		c1.58,3.278,2.584,6.83,3.946,10.22c0.331,0.824,1.267,2.12,1.712,2.038c0.951-0.176,2.164-0.919,2.563-1.764
		c1.558-3.299,2.595-6.859,4.32-10.057c0.996-1.844,2.94-3.178,4.457-4.742c1.431,1.687,3.283,3.176,4.19,5.108
		c1.333,2.835,1.838,6.048,3.006,8.975c0.49,1.231,1.773,2.146,2.696,3.204c0.856-0.914,1.967-1.695,2.521-2.767
		c1.831-3.534,3.265-7.286,5.259-10.719c0.891-1.535,2.809-3.527,4.154-3.451c1.361,0.077,3.078,2.243,3.787,3.865
		c1.801,4.128,3.125,8.465,4.641,12.718c0.559-0.018,1.117-0.037,1.676-0.055c1.453-3.02,2.898-6.043,4.364-9.057
		c0.865-1.779,1.66-3.604,2.671-5.298c1.979-3.316,4.823-3.24,6.629,0.266c1.898,3.687,3.467,7.544,5.354,11.239
		c0.454,0.89,1.639,2.015,2.413,1.96c0.794-0.054,1.815-1.298,2.182-2.237c1.325-3.403,2.232-6.976,3.687-10.316
		c0.577-1.326,2.254-3.162,3.277-3.069c1.441,0.131,3.29,1.558,3.988,2.928c1.805,3.538,2.992,7.385,4.613,11.025
		c0.4,0.896,1.421,1.835,2.331,2.065c0.542,0.139,1.76-0.918,2.09-1.688c0.908-2.118,1.465-4.384,2.242-6.563
		c0.661-1.854,1.146-3.863,2.221-5.46c2.183-3.249,4.47-3.138,6.385,0.207c1.053,1.838,1.646,3.932,2.567,5.854
		c1.314,2.743,2.739,5.431,4.116,8.143c0.524-0.016,1.048-0.031,1.572-0.045c1.685-3.477,3.151-7.083,5.13-10.384
		c1.269-2.116,3.29-3.781,4.975-5.648c1.526,2.036,3.318,3.929,4.505,6.147c1.24,2.318,1.768,5.008,2.871,7.414
		c0.502,1.093,1.642,1.891,2.492,2.822c0.826-0.869,1.905-1.609,2.433-2.633c1.978-3.836,3.744-7.78,5.649-11.654
		c1.634-3.322,3.806-3.009,5.429-0.233c1.739,2.974,2.82,6.325,4.343,9.437c0.75,1.533,1.847,2.897,2.787,4.337
		c1.229-1.173,2.713-2.179,3.625-3.562c1.175-1.78,1.778-3.927,2.831-5.802c1.417-2.522,3.027-4.934,4.555-7.394
		C449.342,0.968,449.941,0.928,450.541,0.887z"/>
</g>
</svg>
