<?xml version="1.0" encoding="utf-8"?>
<!-- Generator: Adobe Illustrator 16.0.3, SVG Export Plug-In . SVG Version: 6.00 Build 0)  -->
<!DOCTYPE svg PUBLIC "-//W3C//DTD SVG 1.1//EN" "http://www.w3.org/Graphics/SVG/1.1/DTD/svg11.dtd">
<svg version="1.1" id="Layer_1" xmlns="http://www.w3.org/2000/svg" xmlns:xlink="http://www.w3.org/1999/xlink" x="0px" y="0px"
	 width="760px" height="145.654px" viewBox="0 0 760 145.654" enable-background="new 0 0 760 145.654" xml:space="preserve">
<line fill-rule="evenodd" clip-rule="evenodd" fill="#006837" stroke="#000000" stroke-width="2" stroke-miterlimit="10" x1="5" y1="67.058" x2="759" y2="67.058"/>
<line fill-rule="evenodd" clip-rule="evenodd" fill="#006837" stroke="#000000" stroke-width="2" stroke-miterlimit="10" x1="5" y1="59.058" x2="5" y2="72.058"/>
<line fill-rule="evenodd" clip-rule="evenodd" fill="#006837" stroke="#000000" stroke-width="2" stroke-miterlimit="10" x1="759" y1="59.058" x2="759" y2="72.058"/>
<line fill-rule="evenodd" clip-rule="evenodd" fill="#006837" stroke="#000000" stroke-width="2" stroke-miterlimit="10" x1="105" y1="60.058" x2="105" y2="73.058"/>
<line fill-rule="evenodd" clip-rule="evenodd" fill="#006837" stroke="#000000" stroke-width="2" stroke-miterlimit="10" x1="205" y1="60.058" x2="205" y2="73.058"/>
<line fill-rule="evenodd" clip-rule="evenodd" fill="#006837" stroke="#000000" stroke-width="2" stroke-miterlimit="10" x1="305" y1="59.058" x2="305" y2="72.058"/>
<line fill-rule="evenodd" clip-rule="evenodd" fill="#006837" stroke="#000000" stroke-width="2" stroke-miterlimit="10" x1="405" y1="59.058" x2="405" y2="72.058"/>
<line fill-rule="evenodd" clip-rule="evenodd" fill="#006837" stroke="#000000" stroke-width="2" stroke-miterlimit="10" x1="505" y1="60.058" x2="505" y2="73.058"/>
<line fill-rule="evenodd" clip-rule="evenodd" fill="#006837" stroke="#000000" stroke-width="2" stroke-miterlimit="10" x1="606" y1="60.058" x2="606" y2="73.058"/>
<line fill-rule="evenodd" clip-rule="evenodd" fill="#006837" stroke="#000000" stroke-width="2" stroke-miterlimit="10" x1="705" y1="60.058" x2="705" y2="73.058"/>
<text transform="matrix(1 0 0 1 100 92.0581)" font-family="'MyriadPro-Regular'" font-size="18">1</text>
<text transform="matrix(1 0 0 1 200 92.0581)" font-family="'MyriadPro-Regular'" font-size="18">2</text>
<text transform="matrix(1 0 0 1 299 92.0581)" font-family="'MyriadPro-Regular'" font-size="18">3</text>
<text transform="matrix(1 0 0 1 400 92.0581)" font-family="'MyriadPro-Regular'" font-size="18">4</text>
<text transform="matrix(1 0 0 1 500 92.0581)" font-family="'MyriadPro-Regular'" font-size="18">5</text>
<text transform="matrix(1 0 0 1 601 92.0581)" font-family="'MyriadPro-Regular'" font-size="18">6</text>
<text transform="matrix(1 0 0 1 699 92.0581)" font-family="'MyriadPro-Regular'" font-size="18">7</text>
<text transform="matrix(1 0 0 1 323 138.0581)" font-family="'HelveticaNeueLight'" font-size="36">Seconds</text>
<text transform="matrix(1 0 0 1 0 92.0581)" font-family="'MyriadPro-Regular'" font-size="18">0</text>
<g>
	<path fill-rule="evenodd" clip-rule="evenodd" fill="#006837" d="M475.466,39.683c4.424-3.495,9.133-4.643,14.239-1.567
		c1.599,0.962,3.133,0.714,4.679-0.057c4.596-2.295,9.254-2.298,13.932-0.317c2.137,0.903,3.997,0.738,6.134-0.352
		c1.661-0.848,3.833-1.258,5.684-1.043c2.906,0.338,5.733,1.364,8.589,2.099c6.51-6.322,7.452-32.766-1.365-38.446
		c-4.589,2.73-9.562,3.896-14.965,2.013c-2.418-0.843-4.738-0.573-7.124,0.68c-2.017,1.06-4.221,1.326-6.704,0.562
		c-4.3-1.325-8.651-1.639-13.114,0.276c-1.72,0.738-4.416,0.35-6.212-0.495c-3.303-1.554-6.319-1.604-9.517-0.124
		c-1.723,0.798-3.428,0.878-5.279,0.232c-4.721-1.647-9.406-1.134-14.164,0.174c-1.976,0.544-4.573,0.889-6.246,0.048
		c-3.704-1.862-7.032-1.285-10.587-0.046c-2.897,1.009-5.704,1.315-8.56-0.611c-1.052-0.709-2.876-0.563-4.289-0.374
		c-1.79,0.239-3.495,1.109-5.285,1.356c-1.603,0.222-3.636,0.556-4.842-0.188c-3.571-2.206-6.923-1.436-10.522-0.392
		c-1.657,0.48-3.543,0.465-5.287,0.292c-4.221-0.418-8.331-2.263-12.681-0.416c-3.849,1.634-7.768,0.943-11.574-0.33
		c-1.979-0.662-3.834-0.881-5.802,0.032c-4.609,2.135-9.043,1.648-13.346-1.348c-4.809,3.223-9.905,3.265-15.318,1.802
		c-1.952-0.528-4.337-0.328-6.304,0.268c-3.227,0.977-6.266,0.877-9.23-0.452c-1.997-0.896-3.627-0.694-5.656,0.101
		c-3.866,1.515-7.968,2.401-11.988,0.359c-2.932-1.489-5.862-1.004-8.605,0.12c-4.479,1.835-8.319,1.061-11.309-1.784
		c-4.063,1.028-7.293,3.012-11.43,1.724c-3.553-1.108-7.194-1.361-11.053,0.063c-2.985,1.102-6.475,1.202-9.575-0.906
		c-2.156-1.467-4.528-1.795-6.938-0.066c-2.505,1.795-5.234,1.745-8.073,0.579c-3.331-1.368-6.712-1.625-10.182-0.208
		c-3.423,1.397-6.821,0.789-10.071-0.73c-1.575-0.735-3.023-1.104-4.711-0.182c-3.754,2.05-7.688,1.241-11.646,0.637
		c-2.061-0.314-4.238-0.308-6.305-0.023c-3.905,0.538-7.771,1.614-11.703,0.31c-3.468-1.151-6.703-0.607-10.186,0.416
		c-2.545,0.748-5.513,0.078-8.291-0.005c-1.77-0.053-3.82-0.816-5.25-0.168c-4.217,1.915-8.375,1.68-12.601,0.592
		c-1.392-0.359-2.44-0.462-3.683,0.457c-2.893,2.139-6.092,2.181-9.499,1.242c-3.89-1.071-7.814-0.886-11.763,0.087
		c-1.899,0.468-4.057,0.836-5.896,0.398c-3.767-0.896-7.119,0.265-10.651,1.036c-2.871,0.627-5.998,1.263-8.792,0.735
		c-2.84-0.537-5.274-0.268-7.631,0.942c-2.395,1.228-4.601,1.271-7.184,0.58c-3.189-0.853-6.52-1.113-9.519,1.006
		c-3.301,2.333-6.742,2.238-10.415,0.779c-1.421-0.564-3.411-0.967-4.685-0.405c-4.695,2.069-9.387,1.596-14.195,0.905
		c-1.213-0.175-2.804-0.141-3.728,0.503c-3.802,2.657-7.747,2.376-11.908,1.287c-2.643-0.691-5.534-0.834-7.689,0.932
		c-2.882,2.359-6.277,2.891-9.637,3.702c-1.354,0.327-2.618,0.582-2.887,2.873c4.972,3.24,11.303,3.995,16.367,7.273
		c5.07-2.087,9.9-3.008,15.072-0.506c1.765,0.855,4.423,0.871,6.326,0.235c4.324-1.446,8.196-0.631,12.053,1.185
		c1.886,0.888,3.649,1.314,5.719,0.414c3.879-1.688,7.714-1.249,11.551,0.473c1.451,0.65,3.403,1.337,4.742,0.881
		c6.003-2.046,10.992,0.016,15.84,3.447c5.257-3.184,10.547-4.275,16.032-0.795c0.636,0.403,1.696,0.696,2.332,0.451
		c5.441-2.101,10.438-0.649,14.542,1.417c3.412-0.839,6.257-2.364,8.769-1.935c2.697,0.462,5.082,2.757,7.865,4.408
		c2.031-0.563,4.504-1.025,6.797-1.938c3.668-1.458,6.838-0.312,9.967,1.406c0.797,0.438,1.467,1.109,2.098,1.597
		c0.589-0.349,0.896-0.49,1.156-0.693c3.462-2.708,6.95-4.106,11.283-1.517c2.056,1.228,4.424,1.554,7.152,0.838
		c3.906-1.024,7.982-1.774,12.111,0.241c1.719,0.84,4.385,0.871,6.188,0.165c3.807-1.489,7.332-1.738,10.987,0.092
		c2.191,1.098,4.265,0.971,6.639,0.131c2.277-0.806,5.051-1.457,7.281-0.893c5.076,1.284,9.758,0.883,14.663-0.732
		c2.53-0.833,5.476-1.31,7.665,1.688c1.256,1.715,3.465,1.357,4.895-0.02c3.768-3.625,7.783-3.096,11.893-0.982
		c1.766,0.908,3.293,0.977,5.211,0.377c3.455-1.08,7.033-2.175,10.66-0.518c2.589,1.183,5.135,0.591,7.68-0.11
		c0.958-0.264,1.93-0.531,2.828-0.943c2.906-1.335,5.494-0.474,7.971,1.088c0.822,0.518,1.532,1.212,2.084,1.657
		c0.504,0,0.693,0.051,0.832-0.011c0.302-0.132,0.594-0.3,0.862-0.493c4.575-3.265,9.429-4.171,14.447-1.232
		c1.901,1.114,3.43,0.574,5.162-0.037c4.815-1.699,9.36-1.425,13.37,2.125c0.488-0.377,0.855-0.696,1.258-0.966
		c3.583-2.409,7.191-4.016,11.559-1.634c2.313,1.263,4.779,0.792,7.154-0.464c2.816-1.488,5.641-1.292,8.564,0.126
		c2.157,1.047,4.457,2.264,7.053,1.073c6.135-2.813,12.048-2.582,17.605,1.476c1.1-0.652,2.135-1.189,3.086-1.846
		c3.515-2.424,7.472-2.101,10.816-0.471c3.833,1.869,7.32,2.026,11,0.419c2.24-0.979,4.187-0.594,6.188,0.478
		c1.159,0.621,2.358,1.165,3.387,1.667c0.735-0.286,1.223-0.416,1.651-0.652c3.959-2.182,7.797-3.324,12.202-0.652
		c1.439,0.873,4.192,0.799,5.746-0.002c2.938-1.516,5.633-1.538,8.613-0.666c1.576,0.461,3.248,0.591,4.834,1.023
		c1.641,0.448,3.136,0.725,4.788-0.175C465.276,34.757,470.496,35.9,475.466,39.683z"/>
	<path fill-rule="evenodd" clip-rule="evenodd" fill="#006837" d="M475.466,39.683c-4.97-3.783-10.189-4.926-15.797-1.871
		c-1.652,0.9-3.147,0.623-4.788,0.175c-1.586-0.433-3.258-0.563-4.834-1.023c-2.98-0.872-5.676-0.85-8.613,0.666
		c-1.554,0.801-4.307,0.875-5.746,0.002c-4.405-2.671-8.243-1.529-12.202,0.652c-0.429,0.236-0.916,0.366-1.651,0.652
		c-1.028-0.502-2.228-1.046-3.387-1.667c-2.001-1.071-3.947-1.456-6.188-0.478c-3.68,1.607-7.167,1.45-11-0.419
		c-3.345-1.63-7.302-1.954-10.816,0.471c-0.951,0.657-1.986,1.194-3.086,1.846c-5.558-4.058-11.471-4.289-17.605-1.476
		c-2.596,1.19-4.896-0.026-7.053-1.073c-2.924-1.418-5.748-1.614-8.564-0.126c-2.375,1.256-4.841,1.727-7.154,0.464
		c-4.367-2.382-7.976-0.775-11.559,1.634c-0.402,0.271-0.77,0.589-1.258,0.966c-4.01-3.55-8.555-3.825-13.37-2.125
		c-1.732,0.611-3.261,1.151-5.162,0.037c-5.019-2.939-9.872-2.033-14.447,1.232c-0.269,0.192-0.561,0.36-0.862,0.493
		c-0.139,0.062-0.328,0.011-0.832,0.011c-0.552-0.445-1.262-1.139-2.084-1.657c-2.477-1.562-5.064-2.423-7.971-1.088
		c-0.898,0.412-1.87,0.68-2.828,0.943c-2.545,0.701-5.091,1.293-7.68,0.11c-3.627-1.657-7.205-0.563-10.66,0.518
		c-1.918,0.6-3.445,0.531-5.211-0.377c-4.109-2.113-8.125-2.643-11.893,0.982c-1.43,1.376-3.639,1.735-4.895,0.02
		c-2.189-2.997-5.135-2.521-7.665-1.688c-4.905,1.615-9.587,2.017-14.663,0.732c-2.23-0.564-5.004,0.087-7.281,0.893
		c-2.374,0.84-4.447,0.967-6.639-0.131c-3.655-1.83-7.181-1.581-10.987-0.092c-1.804,0.706-4.47,0.675-6.188-0.165
		c-4.129-2.016-8.205-1.266-12.111-0.241c-2.729,0.716-5.097,0.39-7.152-0.838c-4.333-2.589-7.821-1.191-11.283,1.517
		c-0.26,0.203-0.567,0.344-1.156,0.693c-0.631-0.488-1.301-1.159-2.098-1.597c-3.129-1.718-6.299-2.865-9.967-1.406
		c-2.293,0.913-4.766,1.375-6.797,1.938c-2.783-1.65-5.168-3.946-7.865-4.408c-2.512-0.429-5.357,1.096-8.769,1.935
		c-4.104-2.066-9.102-3.517-14.542-1.417c-0.636,0.245-1.696-0.048-2.332-0.451c-5.485-3.48-10.775-2.389-16.032,0.795
		c-4.848-3.431-9.836-5.493-15.84-3.447c-1.339,0.457-3.291-0.23-4.742-0.881c-3.837-1.722-7.672-2.161-11.551-0.473
		c-2.07,0.9-3.833,0.474-5.719-0.414c-3.857-1.816-7.729-2.63-12.053-1.185c-1.903,0.636-4.561,0.62-6.326-0.235
		c-5.171-2.502-10.001-1.582-15.072,0.506c-5.064-3.279-11.395-4.034-16.367-7.273c0.269-2.291,1.533-2.545,2.887-2.873
		c3.36-0.811,6.755-1.343,9.637-3.702c2.156-1.766,5.047-1.623,7.689-0.932c4.161,1.089,8.105,1.37,11.908-1.287
		c0.924-0.644,2.515-0.678,3.728-0.503c4.808,0.691,9.5,1.164,14.195-0.905c1.273-0.562,3.263-0.159,4.685,0.405
		c3.673,1.458,7.114,1.553,10.415-0.779c2.999-2.119,6.33-1.858,9.519-1.006c2.583,0.69,4.79,0.647,7.184-0.58
		c2.357-1.209,4.791-1.479,7.631-0.942c2.794,0.528,5.921-0.108,8.792-0.735c3.532-0.771,6.885-1.932,10.651-1.036
		c1.838,0.438,3.996,0.069,5.896-0.398c3.948-0.973,7.873-1.158,11.763-0.087c3.407,0.938,6.606,0.896,9.499-1.242
		c1.242-0.918,2.291-0.816,3.683-0.457c4.226,1.088,8.384,1.323,12.601-0.592c1.43-0.648,3.48,0.115,5.25,0.168
		c2.778,0.083,5.746,0.753,8.291,0.005c3.482-1.023,6.718-1.567,10.186-0.416c3.932,1.304,7.798,0.229,11.703-0.31
		c2.066-0.284,4.244-0.291,6.305,0.023c3.959,0.604,7.893,1.413,11.646-0.637c1.688-0.922,3.136-0.554,4.711,0.182
		c3.25,1.52,6.648,2.127,10.071,0.73c3.47-1.417,6.851-1.16,10.182,0.208c2.839,1.166,5.568,1.216,8.073-0.579
		c2.41-1.729,4.782-1.4,6.938,0.066c3.101,2.108,6.59,2.008,9.575,0.906c3.858-1.425,7.5-1.172,11.053-0.063
		c4.137,1.289,7.366-0.695,11.43-1.724c2.989,2.845,6.829,3.62,11.309,1.784c2.743-1.124,5.674-1.609,8.605-0.12
		c4.021,2.042,8.122,1.156,11.988-0.359c2.029-0.795,3.659-0.997,5.656-0.101c2.965,1.33,6.004,1.429,9.23,0.452
		c1.967-0.596,4.352-0.796,6.304-0.268c5.413,1.463,10.51,1.421,15.318-1.802c4.303,2.996,8.736,3.483,13.346,1.348
		c1.968-0.913,3.823-0.694,5.802-0.032c3.807,1.273,7.726,1.964,11.574,0.33c4.35-1.847,8.46-0.002,12.681,0.416
		c1.744,0.173,3.63,0.188,5.287-0.292c3.6-1.044,6.951-1.814,10.522,0.392c1.206,0.745,3.239,0.41,4.842,0.188
		c1.79-0.247,3.495-1.117,5.285-1.356c1.413-0.189,3.237-0.335,4.289,0.374c2.855,1.926,5.662,1.621,8.56,0.611
		c3.555-1.239,6.883-1.816,10.587,0.046c1.673,0.841,4.271,0.496,6.246-0.048c4.758-1.308,9.443-1.821,14.164-0.174
		c1.852,0.646,3.557,0.565,5.279-0.232c3.197-1.48,6.214-1.43,9.517,0.124c1.796,0.845,4.492,1.233,6.212,0.495
		c4.463-1.915,8.814-1.602,13.114-0.276c2.483,0.765,4.688,0.498,6.704-0.562c2.386-1.253,4.706-1.522,7.124-0.68
		C517.795,3.896,522.768,2.73,527.356,0c8.817,5.681,7.875,32.125,1.365,38.446c-2.855-0.734-5.683-1.761-8.589-2.099
		c-1.851-0.215-4.022,0.195-5.684,1.043c-2.137,1.09-3.997,1.254-6.134,0.352c-4.678-1.98-9.336-1.978-13.932,0.317
		c-1.546,0.771-3.08,1.019-4.679,0.057C484.599,35.041,479.89,36.188,475.466,39.683z"/>
</g>
</svg>
