<?xml version="1.0" encoding="utf-8"?>
<!-- Generator: Adobe Illustrator 16.0.3, SVG Export Plug-In . SVG Version: 6.00 Build 0)  -->
<!DOCTYPE svg PUBLIC "-//W3C//DTD SVG 1.1//EN" "http://www.w3.org/Graphics/SVG/1.1/DTD/svg11.dtd">
<svg version="1.1" id="Layer_1" xmlns="http://www.w3.org/2000/svg" xmlns:xlink="http://www.w3.org/1999/xlink" x="0px" y="0px"
	 width="760px" height="134.685px" viewBox="0 0 760 134.685" enable-background="new 0 0 760 134.685" xml:space="preserve">
<line fill-rule="evenodd" clip-rule="evenodd" fill="#006837" stroke="#000000" stroke-width="2" stroke-miterlimit="10" x1="5" y1="64.089" x2="759" y2="64.089"/>
<line fill-rule="evenodd" clip-rule="evenodd" fill="#006837" stroke="#000000" stroke-width="2" stroke-miterlimit="10" x1="5" y1="56.089" x2="5" y2="69.089"/>
<line fill-rule="evenodd" clip-rule="evenodd" fill="#006837" stroke="#000000" stroke-width="2" stroke-miterlimit="10" x1="759" y1="56.089" x2="759" y2="69.089"/>
<line fill-rule="evenodd" clip-rule="evenodd" fill="#006837" stroke="#000000" stroke-width="2" stroke-miterlimit="10" x1="105" y1="57.089" x2="105" y2="70.089"/>
<line fill-rule="evenodd" clip-rule="evenodd" fill="#006837" stroke="#000000" stroke-width="2" stroke-miterlimit="10" x1="205" y1="57.089" x2="205" y2="70.089"/>
<line fill-rule="evenodd" clip-rule="evenodd" fill="#006837" stroke="#000000" stroke-width="2" stroke-miterlimit="10" x1="305" y1="56.089" x2="305" y2="69.089"/>
<line fill-rule="evenodd" clip-rule="evenodd" fill="#006837" stroke="#000000" stroke-width="2" stroke-miterlimit="10" x1="405" y1="56.089" x2="405" y2="69.089"/>
<line fill-rule="evenodd" clip-rule="evenodd" fill="#006837" stroke="#000000" stroke-width="2" stroke-miterlimit="10" x1="505" y1="57.089" x2="505" y2="70.089"/>
<line fill-rule="evenodd" clip-rule="evenodd" fill="#006837" stroke="#000000" stroke-width="2" stroke-miterlimit="10" x1="606" y1="57.089" x2="606" y2="70.089"/>
<line fill-rule="evenodd" clip-rule="evenodd" fill="#006837" stroke="#000000" stroke-width="2" stroke-miterlimit="10" x1="705" y1="57.089" x2="705" y2="70.089"/>
<text transform="matrix(1 0 0 1 100 89.0894)" font-family="'MyriadPro-Regular'" font-size="18">1</text>
<text transform="matrix(1 0 0 1 200 89.0894)" font-family="'MyriadPro-Regular'" font-size="18">2</text>
<text transform="matrix(1 0 0 1 299 89.0894)" font-family="'MyriadPro-Regular'" font-size="18">3</text>
<text transform="matrix(1 0 0 1 400 89.0894)" font-family="'MyriadPro-Regular'" font-size="18">4</text>
<text transform="matrix(1 0 0 1 500 89.0894)" font-family="'MyriadPro-Regular'" font-size="18">5</text>
<text transform="matrix(1 0 0 1 601 89.0894)" font-family="'MyriadPro-Regular'" font-size="18">6</text>
<text transform="matrix(1 0 0 1 699 89.0894)" font-family="'MyriadPro-Regular'" font-size="18">7</text>
<text transform="matrix(1 0 0 1 320 127.0894)" font-family="'HelveticaNeueLight'" font-size="36">Seconds</text>
<text transform="matrix(1 0 0 1 0 89.0894)" font-family="'MyriadPro-Regular'" font-size="18">0</text>
<g>
	<g>
		<path fill-rule="evenodd" clip-rule="evenodd" fill="#006837" d="M728.451,0.496c0.409,4.284,0.818,8.566,1.227,12.85
			c0.379,0.029,0.758,0.06,1.137,0.09c0.492-4.319,0.985-8.638,1.478-12.957c0.483-0.019,0.968-0.037,1.452-0.055
			c0.515,4.625,1.029,9.252,1.544,13.877c0.47,0.008,0.939,0.014,1.41,0.021c0.551-4.559,1.103-9.117,1.654-13.676
			c0.506-0.007,1.012-0.014,1.518-0.021c0.459,4.211,0.919,8.423,1.378,12.634c0.321,0.013,0.643,0.024,0.963,0.037
			c0.55-4.434,1.099-8.865,1.647-13.298c0.538,0.041,1.076,0.082,1.615,0.123c1.798,13.874,2.429,27.745-0.369,41.61
			c-0.493,0.038-0.985,0.076-1.478,0.115c-0.425-5.384-0.85-10.769-1.274-16.152c-0.553-0.013-1.106-0.026-1.66-0.039
			c-0.373,5.458-0.746,10.916-1.119,16.373c-0.614-0.016-1.229-0.031-1.844-0.047c-0.356-5.238-0.713-10.476-1.069-15.715
			c-0.501-0.009-1.003-0.017-1.504-0.025c-0.497,5.13-0.994,10.259-1.491,15.387c-0.596-0.006-1.19-0.012-1.785-0.018
			c-0.33-5.132-0.66-10.265-1.063-16.522c-4.019,5.766-0.803,12.012-3.783,16.88c-2.24-13.797-3.018-27.546-0.32-41.29
			C727.293,0.619,727.872,0.558,728.451,0.496z"/>
	</g>
	<g>
		<path fill-rule="evenodd" clip-rule="evenodd" fill="#006837" d="M668.451,0.496c0.409,4.284,0.818,8.566,1.227,12.85
			c0.379,0.029,0.758,0.06,1.137,0.09c0.492-4.319,0.985-8.638,1.478-12.957c0.483-0.019,0.968-0.037,1.452-0.055
			c0.515,4.625,1.029,9.252,1.544,13.877c0.47,0.008,0.939,0.014,1.41,0.021c0.551-4.559,1.103-9.117,1.654-13.676
			c0.506-0.007,1.012-0.014,1.518-0.021c0.459,4.211,0.919,8.423,1.378,12.634c0.321,0.013,0.643,0.024,0.963,0.037
			c0.55-4.434,1.099-8.865,1.647-13.298c0.538,0.041,1.076,0.082,1.615,0.123c1.798,13.874,2.429,27.745-0.369,41.61
			c-0.493,0.038-0.985,0.076-1.478,0.115c-0.425-5.384-0.85-10.769-1.274-16.152c-0.553-0.013-1.106-0.026-1.66-0.039
			c-0.373,5.458-0.746,10.916-1.119,16.373c-0.614-0.016-1.229-0.031-1.844-0.047c-0.356-5.238-0.713-10.476-1.069-15.715
			c-0.501-0.009-1.003-0.017-1.504-0.025c-0.497,5.13-0.994,10.259-1.491,15.387c-0.596-0.006-1.19-0.012-1.785-0.018
			c-0.33-5.132-0.66-10.265-1.063-16.522c-4.019,5.766-0.803,12.012-3.783,16.88c-2.24-13.797-3.018-27.546-0.32-41.29
			C667.293,0.619,667.872,0.558,668.451,0.496z"/>
	</g>
	<g>
		<path fill-rule="evenodd" clip-rule="evenodd" fill="#006837" d="M608.451,0.496c0.409,4.284,0.818,8.566,1.227,12.85
			c0.379,0.029,0.758,0.06,1.137,0.09c0.492-4.319,0.985-8.638,1.478-12.957c0.483-0.019,0.968-0.037,1.452-0.055
			c0.515,4.625,1.029,9.252,1.544,13.877c0.47,0.008,0.939,0.014,1.41,0.021c0.551-4.559,1.103-9.117,1.654-13.676
			c0.506-0.007,1.012-0.014,1.518-0.021c0.459,4.211,0.919,8.423,1.378,12.634c0.321,0.013,0.643,0.024,0.963,0.037
			c0.55-4.434,1.099-8.865,1.647-13.298c0.538,0.041,1.076,0.082,1.615,0.123c1.798,13.874,2.429,27.745-0.369,41.61
			c-0.493,0.038-0.985,0.076-1.478,0.115c-0.425-5.384-0.85-10.769-1.274-16.152c-0.553-0.013-1.106-0.026-1.66-0.039
			c-0.373,5.458-0.746,10.916-1.119,16.373c-0.614-0.016-1.229-0.031-1.844-0.047c-0.356-5.238-0.713-10.476-1.069-15.715
			c-0.501-0.009-1.003-0.017-1.504-0.025c-0.497,5.13-0.994,10.259-1.491,15.387c-0.596-0.006-1.19-0.012-1.785-0.018
			c-0.33-5.132-0.66-10.265-1.063-16.522c-4.019,5.766-0.803,12.012-3.783,16.88c-2.24-13.797-3.018-27.546-0.32-41.29
			C607.293,0.619,607.872,0.558,608.451,0.496z"/>
	</g>
	<g>
		<path fill-rule="evenodd" clip-rule="evenodd" fill="#006837" d="M548.451,0.496c0.409,4.284,0.818,8.566,1.227,12.85
			c0.379,0.029,0.758,0.06,1.137,0.09c0.492-4.319,0.985-8.638,1.478-12.957c0.483-0.019,0.968-0.037,1.452-0.055
			c0.515,4.625,1.029,9.252,1.544,13.877c0.47,0.008,0.939,0.014,1.41,0.021c0.551-4.559,1.103-9.117,1.654-13.676
			c0.506-0.007,1.012-0.014,1.518-0.021c0.459,4.211,0.919,8.423,1.378,12.634c0.321,0.013,0.643,0.024,0.963,0.037
			c0.55-4.434,1.099-8.865,1.647-13.298c0.538,0.041,1.076,0.082,1.615,0.123c1.798,13.874,2.429,27.745-0.369,41.61
			c-0.493,0.038-0.985,0.076-1.478,0.115c-0.425-5.384-0.85-10.769-1.274-16.152c-0.553-0.013-1.106-0.026-1.66-0.039
			c-0.373,5.458-0.746,10.916-1.119,16.373c-0.614-0.016-1.229-0.031-1.844-0.047c-0.356-5.238-0.713-10.476-1.069-15.715
			c-0.501-0.009-1.003-0.017-1.504-0.025c-0.497,5.13-0.994,10.259-1.491,15.387c-0.596-0.006-1.19-0.012-1.785-0.018
			c-0.33-5.132-0.66-10.265-1.063-16.522c-4.019,5.766-0.803,12.012-3.783,16.88c-2.24-13.797-3.018-27.546-0.32-41.29
			C547.293,0.619,547.872,0.558,548.451,0.496z"/>
	</g>
	<g>
		<path fill-rule="evenodd" clip-rule="evenodd" fill="#006837" d="M488.451,0.496c0.409,4.284,0.818,8.566,1.227,12.85
			c0.379,0.029,0.758,0.06,1.137,0.09c0.492-4.319,0.985-8.638,1.478-12.957c0.483-0.019,0.968-0.037,1.452-0.055
			c0.515,4.625,1.029,9.252,1.544,13.877c0.47,0.008,0.939,0.014,1.41,0.021c0.551-4.559,1.103-9.117,1.654-13.676
			c0.506-0.007,1.012-0.014,1.518-0.021c0.459,4.211,0.919,8.423,1.378,12.634c0.321,0.013,0.643,0.024,0.963,0.037
			c0.55-4.434,1.099-8.865,1.647-13.298c0.538,0.041,1.076,0.082,1.615,0.123c1.798,13.874,2.429,27.745-0.369,41.61
			c-0.493,0.038-0.985,0.076-1.478,0.115c-0.425-5.384-0.85-10.769-1.274-16.152c-0.553-0.013-1.106-0.026-1.66-0.039
			c-0.373,5.458-0.746,10.916-1.119,16.373c-0.614-0.016-1.229-0.031-1.844-0.047c-0.356-5.238-0.713-10.476-1.069-15.715
			c-0.501-0.009-1.003-0.017-1.504-0.025c-0.497,5.13-0.994,10.259-1.491,15.387c-0.596-0.006-1.19-0.012-1.785-0.018
			c-0.33-5.132-0.66-10.265-1.063-16.522c-4.019,5.766-0.803,12.012-3.783,16.88c-2.24-13.797-3.018-27.546-0.32-41.29
			C487.293,0.619,487.872,0.558,488.451,0.496z"/>
	</g>
	<g>
		<path fill-rule="evenodd" clip-rule="evenodd" fill="#006837" d="M428.451,0.496c0.409,4.284,0.818,8.566,1.227,12.85
			c0.379,0.029,0.758,0.06,1.137,0.09c0.492-4.319,0.985-8.638,1.478-12.957c0.483-0.019,0.968-0.037,1.452-0.055
			c0.515,4.625,1.029,9.252,1.544,13.877c0.47,0.008,0.939,0.014,1.41,0.021c0.551-4.559,1.103-9.117,1.654-13.676
			c0.506-0.007,1.012-0.014,1.518-0.021c0.459,4.211,0.919,8.423,1.378,12.634c0.321,0.013,0.643,0.024,0.963,0.037
			c0.55-4.434,1.099-8.865,1.647-13.298c0.538,0.041,1.076,0.082,1.615,0.123c1.798,13.874,2.429,27.745-0.369,41.61
			c-0.493,0.038-0.985,0.076-1.478,0.115c-0.425-5.384-0.85-10.769-1.274-16.152c-0.553-0.013-1.106-0.026-1.66-0.039
			c-0.373,5.458-0.746,10.916-1.119,16.373c-0.614-0.016-1.229-0.031-1.844-0.047c-0.356-5.238-0.713-10.476-1.069-15.715
			c-0.501-0.009-1.003-0.017-1.504-0.025c-0.497,5.13-0.994,10.259-1.491,15.387c-0.596-0.006-1.19-0.012-1.785-0.018
			c-0.33-5.132-0.66-10.265-1.063-16.522c-4.019,5.766-0.803,12.012-3.783,16.88c-2.24-13.797-3.018-27.546-0.32-41.29
			C427.293,0.619,427.872,0.558,428.451,0.496z"/>
	</g>
	<g>
		<path fill-rule="evenodd" clip-rule="evenodd" fill="#006837" d="M368.451,0.496c0.409,4.284,0.818,8.566,1.227,12.85
			c0.379,0.029,0.758,0.06,1.137,0.09c0.492-4.319,0.985-8.638,1.478-12.957c0.483-0.019,0.968-0.037,1.452-0.055
			c0.515,4.625,1.029,9.252,1.544,13.877c0.47,0.008,0.939,0.014,1.41,0.021c0.551-4.559,1.103-9.117,1.654-13.676
			c0.506-0.007,1.012-0.014,1.518-0.021c0.459,4.211,0.919,8.423,1.378,12.634c0.321,0.013,0.643,0.024,0.963,0.037
			c0.55-4.434,1.099-8.865,1.647-13.298c0.538,0.041,1.076,0.082,1.615,0.123c1.798,13.874,2.429,27.745-0.369,41.61
			c-0.493,0.038-0.985,0.076-1.478,0.115c-0.425-5.384-0.85-10.769-1.274-16.152c-0.553-0.013-1.106-0.026-1.66-0.039
			c-0.373,5.458-0.746,10.916-1.119,16.373c-0.614-0.016-1.229-0.031-1.844-0.047c-0.356-5.238-0.713-10.476-1.069-15.715
			c-0.501-0.009-1.003-0.017-1.504-0.025c-0.497,5.13-0.994,10.259-1.491,15.387c-0.596-0.006-1.19-0.012-1.785-0.018
			c-0.33-5.132-0.66-10.265-1.063-16.522c-4.019,5.766-0.803,12.012-3.783,16.88c-2.24-13.797-3.018-27.546-0.32-41.29
			C367.293,0.619,367.872,0.558,368.451,0.496z"/>
	</g>
	<g>
		<path fill-rule="evenodd" clip-rule="evenodd" fill="#006837" d="M308.451,0.496c0.409,4.284,0.818,8.566,1.227,12.85
			c0.379,0.029,0.758,0.06,1.137,0.09c0.492-4.319,0.985-8.638,1.478-12.957c0.483-0.019,0.968-0.037,1.452-0.055
			c0.515,4.625,1.029,9.252,1.544,13.877c0.47,0.008,0.939,0.014,1.41,0.021c0.551-4.559,1.103-9.117,1.654-13.676
			c0.506-0.007,1.012-0.014,1.518-0.021c0.459,4.211,0.919,8.423,1.378,12.634c0.321,0.013,0.643,0.024,0.963,0.037
			c0.55-4.434,1.099-8.865,1.647-13.298c0.538,0.041,1.076,0.082,1.615,0.123c1.798,13.874,2.429,27.745-0.369,41.61
			c-0.493,0.038-0.985,0.076-1.478,0.115c-0.425-5.384-0.85-10.769-1.274-16.152c-0.553-0.013-1.106-0.026-1.66-0.039
			c-0.373,5.458-0.746,10.916-1.119,16.373c-0.614-0.016-1.229-0.031-1.844-0.047c-0.356-5.238-0.713-10.476-1.069-15.715
			c-0.501-0.009-1.003-0.017-1.504-0.025c-0.497,5.13-0.994,10.259-1.491,15.387c-0.596-0.006-1.19-0.012-1.785-0.018
			c-0.33-5.132-0.66-10.265-1.063-16.522c-4.019,5.766-0.803,12.012-3.783,16.88c-2.24-13.797-3.018-27.546-0.32-41.29
			C307.293,0.619,307.872,0.558,308.451,0.496z"/>
	</g>
	<g>
		<path fill-rule="evenodd" clip-rule="evenodd" fill="#006837" d="M248.451,0.496c0.409,4.284,0.818,8.566,1.227,12.85
			c0.379,0.029,0.758,0.06,1.137,0.09c0.492-4.319,0.985-8.638,1.478-12.957c0.483-0.019,0.968-0.037,1.452-0.055
			c0.515,4.625,1.029,9.252,1.544,13.877c0.47,0.008,0.939,0.014,1.41,0.021c0.551-4.559,1.103-9.117,1.654-13.676
			c0.506-0.007,1.012-0.014,1.518-0.021c0.459,4.211,0.919,8.423,1.378,12.634c0.321,0.013,0.643,0.024,0.963,0.037
			c0.55-4.434,1.099-8.865,1.647-13.298c0.538,0.041,1.076,0.082,1.615,0.123c1.798,13.874,2.429,27.745-0.369,41.61
			c-0.493,0.038-0.985,0.076-1.478,0.115c-0.425-5.384-0.85-10.769-1.274-16.152c-0.553-0.013-1.106-0.026-1.66-0.039
			c-0.373,5.458-0.746,10.916-1.119,16.373c-0.614-0.016-1.229-0.031-1.844-0.047c-0.356-5.238-0.713-10.476-1.069-15.715
			c-0.501-0.009-1.003-0.017-1.504-0.025c-0.497,5.13-0.994,10.259-1.491,15.387c-0.596-0.006-1.19-0.012-1.785-0.018
			c-0.33-5.132-0.66-10.265-1.063-16.522c-4.019,5.766-0.803,12.012-3.783,16.88c-2.24-13.797-3.018-27.546-0.32-41.29
			C247.293,0.619,247.872,0.558,248.451,0.496z"/>
	</g>
	<g>
		<path fill-rule="evenodd" clip-rule="evenodd" fill="#006837" d="M188.451,0.496c0.409,4.284,0.818,8.566,1.227,12.85
			c0.379,0.029,0.758,0.06,1.137,0.09c0.492-4.319,0.985-8.638,1.478-12.957c0.483-0.019,0.968-0.037,1.452-0.055
			c0.515,4.625,1.029,9.252,1.544,13.877c0.47,0.008,0.939,0.014,1.41,0.021c0.551-4.559,1.103-9.117,1.654-13.676
			c0.506-0.007,1.012-0.014,1.518-0.021c0.459,4.211,0.919,8.423,1.378,12.634c0.321,0.013,0.643,0.024,0.963,0.037
			c0.55-4.434,1.099-8.865,1.647-13.298c0.538,0.041,1.076,0.082,1.615,0.123c1.798,13.874,2.429,27.745-0.369,41.61
			c-0.493,0.038-0.985,0.076-1.478,0.115c-0.425-5.384-0.85-10.769-1.274-16.152c-0.553-0.013-1.106-0.026-1.66-0.039
			c-0.373,5.458-0.746,10.916-1.119,16.373c-0.614-0.016-1.229-0.031-1.844-0.047c-0.356-5.238-0.713-10.476-1.069-15.715
			c-0.501-0.009-1.003-0.017-1.504-0.025c-0.497,5.13-0.994,10.259-1.491,15.387c-0.596-0.006-1.19-0.012-1.785-0.018
			c-0.33-5.132-0.66-10.265-1.063-16.522c-4.019,5.766-0.803,12.012-3.783,16.88c-2.24-13.797-3.018-27.546-0.32-41.29
			C187.293,0.619,187.872,0.558,188.451,0.496z"/>
	</g>
	<g>
		<path fill-rule="evenodd" clip-rule="evenodd" fill="#006837" d="M128.451,0.496c0.409,4.284,0.818,8.566,1.227,12.85
			c0.379,0.029,0.758,0.06,1.137,0.09c0.492-4.319,0.985-8.638,1.478-12.957c0.483-0.019,0.968-0.037,1.452-0.055
			c0.515,4.625,1.029,9.252,1.544,13.877c0.47,0.008,0.939,0.014,1.41,0.021c0.551-4.559,1.103-9.117,1.654-13.676
			c0.506-0.007,1.012-0.014,1.518-0.021c0.459,4.211,0.919,8.423,1.378,12.634c0.321,0.013,0.643,0.024,0.963,0.037
			c0.55-4.434,1.099-8.865,1.647-13.298c0.538,0.041,1.076,0.082,1.615,0.123c1.798,13.874,2.429,27.745-0.369,41.61
			c-0.493,0.038-0.985,0.076-1.478,0.115c-0.425-5.384-0.85-10.769-1.274-16.152c-0.553-0.013-1.106-0.026-1.66-0.039
			c-0.373,5.458-0.746,10.916-1.119,16.373c-0.614-0.016-1.229-0.031-1.844-0.047c-0.356-5.238-0.713-10.476-1.069-15.715
			c-0.501-0.009-1.003-0.017-1.504-0.025c-0.497,5.13-0.994,10.259-1.491,15.387c-0.596-0.006-1.19-0.012-1.785-0.018
			c-0.33-5.132-0.66-10.265-1.063-16.522c-4.019,5.766-0.803,12.012-3.783,16.88c-2.24-13.797-3.018-27.546-0.32-41.29
			C127.293,0.619,127.872,0.558,128.451,0.496z"/>
	</g>
	<g>
		<path fill-rule="evenodd" clip-rule="evenodd" fill="#006837" d="M68.451,0.496c0.409,4.284,0.818,8.566,1.227,12.85
			c0.379,0.029,0.758,0.06,1.137,0.09c0.492-4.319,0.985-8.638,1.478-12.957c0.483-0.019,0.968-0.037,1.452-0.055
			c0.515,4.625,1.029,9.252,1.544,13.877c0.47,0.008,0.939,0.014,1.41,0.021c0.551-4.559,1.103-9.117,1.654-13.676
			c0.506-0.007,1.012-0.014,1.518-0.021c0.459,4.211,0.919,8.423,1.378,12.634c0.321,0.013,0.643,0.024,0.963,0.037
			C82.761,8.865,83.31,4.433,83.858,0c0.538,0.041,1.076,0.082,1.615,0.123c1.798,13.874,2.429,27.745-0.369,41.61
			c-0.493,0.038-0.985,0.076-1.478,0.115c-0.425-5.384-0.85-10.769-1.274-16.152c-0.553-0.013-1.106-0.026-1.66-0.039
			c-0.373,5.458-0.746,10.916-1.119,16.373c-0.614-0.016-1.229-0.031-1.844-0.047c-0.356-5.238-0.713-10.476-1.069-15.715
			c-0.501-0.009-1.003-0.017-1.504-0.025c-0.497,5.13-0.994,10.259-1.491,15.387c-0.596-0.006-1.19-0.012-1.785-0.018
			c-0.33-5.132-0.66-10.265-1.063-16.522c-4.019,5.766-0.803,12.012-3.783,16.88c-2.24-13.797-3.018-27.546-0.32-41.29
			C67.293,0.619,67.872,0.558,68.451,0.496z"/>
	</g>
	<g>
		<path fill-rule="evenodd" clip-rule="evenodd" fill="#006837" d="M8.451,0.496C8.86,4.78,9.27,9.062,9.678,13.346
			c0.379,0.029,0.758,0.06,1.137,0.09c0.492-4.319,0.985-8.638,1.478-12.957c0.483-0.019,0.968-0.037,1.452-0.055
			c0.515,4.625,1.029,9.252,1.544,13.877c0.47,0.008,0.939,0.014,1.41,0.021c0.551-4.559,1.103-9.117,1.654-13.676
			c0.506-0.007,1.012-0.014,1.518-0.021c0.459,4.211,0.919,8.423,1.378,12.634c0.321,0.013,0.643,0.024,0.963,0.037
			C22.761,8.865,23.31,4.433,23.858,0c0.538,0.041,1.076,0.082,1.615,0.123c1.798,13.874,2.429,27.745-0.369,41.61
			c-0.493,0.038-0.985,0.076-1.478,0.115c-0.425-5.384-0.85-10.769-1.274-16.152c-0.553-0.013-1.106-0.026-1.66-0.039
			c-0.373,5.458-0.746,10.916-1.119,16.373c-0.614-0.016-1.229-0.031-1.844-0.047c-0.356-5.238-0.713-10.476-1.069-15.715
			c-0.501-0.009-1.003-0.017-1.504-0.025c-0.497,5.13-0.994,10.259-1.491,15.387c-0.596-0.006-1.19-0.012-1.785-0.018
			c-0.33-5.132-0.66-10.265-1.063-16.522c-4.019,5.766-0.803,12.012-3.783,16.88c-2.24-13.797-3.018-27.546-0.32-41.29
			C7.293,0.619,7.872,0.558,8.451,0.496z"/>
	</g>
</g>
</svg>
