<?xml version="1.0" encoding="utf-8"?>
<!-- Generator: Adobe Illustrator 16.0.3, SVG Export Plug-In . SVG Version: 6.00 Build 0)  -->
<!DOCTYPE svg PUBLIC "-//W3C//DTD SVG 1.1//EN" "http://www.w3.org/Graphics/SVG/1.1/DTD/svg11.dtd">
<svg version="1.1" id="Layer_1" xmlns="http://www.w3.org/2000/svg" xmlns:xlink="http://www.w3.org/1999/xlink" x="0px" y="0px"
	 width="760px" height="145.609px" viewBox="0 0 760 145.609" enable-background="new 0 0 760 145.609" xml:space="preserve">
<line fill-rule="evenodd" clip-rule="evenodd" fill="#006837" stroke="#000000" stroke-width="2" stroke-miterlimit="10" x1="5" y1="67.013" x2="759" y2="67.013"/>
<line fill-rule="evenodd" clip-rule="evenodd" fill="#006837" stroke="#000000" stroke-width="2" stroke-miterlimit="10" x1="5" y1="59.013" x2="5" y2="72.013"/>
<line fill-rule="evenodd" clip-rule="evenodd" fill="#006837" stroke="#000000" stroke-width="2" stroke-miterlimit="10" x1="759" y1="59.013" x2="759" y2="72.013"/>
<line fill-rule="evenodd" clip-rule="evenodd" fill="#006837" stroke="#000000" stroke-width="2" stroke-miterlimit="10" x1="105" y1="60.013" x2="105" y2="73.013"/>
<line fill-rule="evenodd" clip-rule="evenodd" fill="#006837" stroke="#000000" stroke-width="2" stroke-miterlimit="10" x1="205" y1="60.013" x2="205" y2="73.013"/>
<line fill-rule="evenodd" clip-rule="evenodd" fill="#006837" stroke="#000000" stroke-width="2" stroke-miterlimit="10" x1="305" y1="59.013" x2="305" y2="72.013"/>
<line fill-rule="evenodd" clip-rule="evenodd" fill="#006837" stroke="#000000" stroke-width="2" stroke-miterlimit="10" x1="405" y1="59.013" x2="405" y2="72.013"/>
<line fill-rule="evenodd" clip-rule="evenodd" fill="#006837" stroke="#000000" stroke-width="2" stroke-miterlimit="10" x1="505" y1="60.013" x2="505" y2="73.013"/>
<line fill-rule="evenodd" clip-rule="evenodd" fill="#006837" stroke="#000000" stroke-width="2" stroke-miterlimit="10" x1="606" y1="60.013" x2="606" y2="73.013"/>
<line fill-rule="evenodd" clip-rule="evenodd" fill="#006837" stroke="#000000" stroke-width="2" stroke-miterlimit="10" x1="705" y1="60.013" x2="705" y2="73.013"/>
<text transform="matrix(1 0 0 1 100 92.0132)" font-family="'MyriadPro-Regular'" font-size="18">1</text>
<text transform="matrix(1 0 0 1 200 92.0132)" font-family="'MyriadPro-Regular'" font-size="18">2</text>
<text transform="matrix(1 0 0 1 299 92.0132)" font-family="'MyriadPro-Regular'" font-size="18">3</text>
<text transform="matrix(1 0 0 1 400 92.0132)" font-family="'MyriadPro-Regular'" font-size="18">4</text>
<text transform="matrix(1 0 0 1 500 92.0132)" font-family="'MyriadPro-Regular'" font-size="18">5</text>
<text transform="matrix(1 0 0 1 601 92.0132)" font-family="'MyriadPro-Regular'" font-size="18">6</text>
<text transform="matrix(1 0 0 1 699 92.0132)" font-family="'MyriadPro-Regular'" font-size="18">7</text>
<text transform="matrix(1 0 0 1 321.2495 138.0132)" font-family="'HelveticaNeueLight'" font-size="36">Seconds</text>
<text transform="matrix(1 0 0 1 0 92.0132)" font-family="'MyriadPro-Regular'" font-size="18">0</text>
<g>
	<path fill-rule="evenodd" clip-rule="evenodd" fill="#006837" d="M392.746,3.458"/>
	<path fill-rule="evenodd" clip-rule="evenodd" fill="#006837" d="M334.766,0.165"/>
	<path fill-rule="evenodd" clip-rule="evenodd" fill="#006837" d="M392.746,3.458"/>
	<path fill-rule="evenodd" clip-rule="evenodd" fill="#006837" d="M334.766,0.165"/>
</g>
<path fill-rule="evenodd" clip-rule="evenodd" fill="#006837" d="M335,0.013c3.125,0.125,50.125-0.063,54,0s3.938,3.563,3.938,3.563
	L393,29.482c0,0-0.125,3.531-4.063,3.531c-0.25,0-50.438,0-53.938,0s-13.75-5.875-13.75-17C321.188,6.951,331.875-0.112,335,0.013z"
	/>
<path fill-rule="evenodd" clip-rule="evenodd" fill="#006837" d="M648,0.013c3.125,0.125,50.125-0.063,54,0s3.938,3.563,3.938,3.563
	L706,29.482c0,0-0.125,3.531-4.063,3.531c-0.25,0-50.438,0-53.938,0s-13.75-5.875-13.75-17C634.188,6.951,644.875-0.112,648,0.013z"
	/>
<path fill-rule="evenodd" clip-rule="evenodd" fill="#006837" d="M18,0.013c3.125,0.125,50.125-0.063,54,0s3.938,3.563,3.938,3.563
	L76,29.482c0,0-0.125,3.531-4.063,3.531c-0.25,0-50.438,0-53.938,0s-13.75-5.875-13.75-17C4.188,6.951,14.875-0.112,18,0.013z"/>
</svg>
