<?xml version="1.0" encoding="utf-8"?>
<!-- Generator: Adobe Illustrator 16.0.3, SVG Export Plug-In . SVG Version: 6.00 Build 0)  -->
<!DOCTYPE svg PUBLIC "-//W3C//DTD SVG 1.1//EN" "http://www.w3.org/Graphics/SVG/1.1/DTD/svg11.dtd">
<svg version="1.1" id="Layer_1" xmlns="http://www.w3.org/2000/svg" xmlns:xlink="http://www.w3.org/1999/xlink" x="0px" y="0px"
	 width="760px" height="123.596px" viewBox="0 0 760 123.596" enable-background="new 0 0 760 123.596" xml:space="preserve">
<line fill-rule="evenodd" clip-rule="evenodd" fill="#006837" stroke="#000000" stroke-width="2" stroke-miterlimit="10" x1="5" y1="51" x2="759" y2="51"/>
<line fill-rule="evenodd" clip-rule="evenodd" fill="#006837" stroke="#000000" stroke-width="2" stroke-miterlimit="10" x1="5" y1="43" x2="5" y2="56"/>
<line fill-rule="evenodd" clip-rule="evenodd" fill="#006837" stroke="#000000" stroke-width="2" stroke-miterlimit="10" x1="759" y1="43" x2="759" y2="56"/>
<line fill-rule="evenodd" clip-rule="evenodd" fill="#006837" stroke="#000000" stroke-width="2" stroke-miterlimit="10" x1="105" y1="44" x2="105" y2="57"/>
<line fill-rule="evenodd" clip-rule="evenodd" fill="#006837" stroke="#000000" stroke-width="2" stroke-miterlimit="10" x1="205" y1="44" x2="205" y2="57"/>
<line fill-rule="evenodd" clip-rule="evenodd" fill="#006837" stroke="#000000" stroke-width="2" stroke-miterlimit="10" x1="305" y1="43" x2="305" y2="56"/>
<line fill-rule="evenodd" clip-rule="evenodd" fill="#006837" stroke="#000000" stroke-width="2" stroke-miterlimit="10" x1="405" y1="43" x2="405" y2="56"/>
<line fill-rule="evenodd" clip-rule="evenodd" fill="#006837" stroke="#000000" stroke-width="2" stroke-miterlimit="10" x1="505" y1="44" x2="505" y2="57"/>
<line fill-rule="evenodd" clip-rule="evenodd" fill="#006837" stroke="#000000" stroke-width="2" stroke-miterlimit="10" x1="606" y1="44" x2="606" y2="57"/>
<line fill-rule="evenodd" clip-rule="evenodd" fill="#006837" stroke="#000000" stroke-width="2" stroke-miterlimit="10" x1="705" y1="44" x2="705" y2="57"/>
<text transform="matrix(1 0 0 1 100 76)" font-family="'MyriadPro-Regular'" font-size="18">1</text>
<text transform="matrix(1 0 0 1 200 76)" font-family="'MyriadPro-Regular'" font-size="18">2</text>
<text transform="matrix(1 0 0 1 299 76)" font-family="'MyriadPro-Regular'" font-size="18">3</text>
<text transform="matrix(1 0 0 1 400 76)" font-family="'MyriadPro-Regular'" font-size="18">4</text>
<text transform="matrix(1 0 0 1 500 76)" font-family="'MyriadPro-Regular'" font-size="18">5</text>
<text transform="matrix(1 0 0 1 601 76)" font-family="'MyriadPro-Regular'" font-size="18">6</text>
<text transform="matrix(1 0 0 1 699 76)" font-family="'MyriadPro-Regular'" font-size="18">7</text>
<text transform="matrix(1 0 0 1 323 116)" font-family="'HelveticaNeueLight'" font-size="36">Seconds</text>
<text transform="matrix(1 0 0 1 0 76)" font-family="'MyriadPro-Regular'" font-size="18">0</text>
<g>
	<g>
		<path fill-rule="evenodd" clip-rule="evenodd" fill="#006837" d="M757.155,0c3.617,6.743,3.172,18.908-0.757,23.41
			C753.654,15.555,753.511,8.073,757.155,0z"/>
	</g>
	<g>
		<path fill-rule="evenodd" clip-rule="evenodd" fill="#006837" d="M749.155,0c3.617,6.743,3.172,18.908-0.757,23.41
			C745.654,15.555,745.511,8.073,749.155,0z"/>
	</g>
	<g>
		<path fill-rule="evenodd" clip-rule="evenodd" fill="#006837" d="M741.155,0c3.617,6.743,3.172,18.908-0.757,23.41
			C737.654,15.555,737.511,8.073,741.155,0z"/>
	</g>
	<g>
		<path fill-rule="evenodd" clip-rule="evenodd" fill="#006837" d="M733.155,0c3.617,6.743,3.172,18.908-0.757,23.41
			C729.654,15.555,729.511,8.073,733.155,0z"/>
	</g>
	<g>
		<path fill-rule="evenodd" clip-rule="evenodd" fill="#006837" d="M725.155,0c3.617,6.743,3.172,18.908-0.757,23.41
			C721.654,15.555,721.511,8.073,725.155,0z"/>
	</g>
	<g>
		<path fill-rule="evenodd" clip-rule="evenodd" fill="#006837" d="M717.155,0c3.617,6.743,3.172,18.908-0.757,23.41
			C713.654,15.555,713.511,8.073,717.155,0z"/>
	</g>
	<g>
		<path fill-rule="evenodd" clip-rule="evenodd" fill="#006837" d="M709.155,0c3.617,6.743,3.172,18.908-0.757,23.41
			C705.654,15.555,705.511,8.073,709.155,0z"/>
	</g>
	<g>
		<path fill-rule="evenodd" clip-rule="evenodd" fill="#006837" d="M701.155,0c3.617,6.743,3.172,18.908-0.757,23.41
			C697.654,15.555,697.511,8.073,701.155,0z"/>
	</g>
	<g>
		<path fill-rule="evenodd" clip-rule="evenodd" fill="#006837" d="M693.155,0c3.617,6.743,3.172,18.908-0.757,23.41
			C689.654,15.555,689.511,8.073,693.155,0z"/>
	</g>
	<g>
		<path fill-rule="evenodd" clip-rule="evenodd" fill="#006837" d="M685.155,0c3.617,6.743,3.172,18.908-0.757,23.41
			C681.654,15.555,681.511,8.073,685.155,0z"/>
	</g>
	<g>
		<path fill-rule="evenodd" clip-rule="evenodd" fill="#006837" d="M677.155,0c3.617,6.743,3.172,18.908-0.757,23.41
			C673.654,15.555,673.511,8.073,677.155,0z"/>
	</g>
	<g>
		<path fill-rule="evenodd" clip-rule="evenodd" fill="#006837" d="M669.155,0c3.617,6.743,3.172,18.908-0.757,23.41
			C665.654,15.555,665.511,8.073,669.155,0z"/>
	</g>
	<g>
		<path fill-rule="evenodd" clip-rule="evenodd" fill="#006837" d="M661.155,0c3.617,6.743,3.172,18.908-0.757,23.41
			C657.654,15.555,657.511,8.073,661.155,0z"/>
	</g>
	<g>
		<path fill-rule="evenodd" clip-rule="evenodd" fill="#006837" d="M653.155,0c3.617,6.743,3.172,18.908-0.757,23.41
			C649.654,15.555,649.511,8.073,653.155,0z"/>
	</g>
	<g>
		<path fill-rule="evenodd" clip-rule="evenodd" fill="#006837" d="M645.155,0c3.617,6.743,3.172,18.908-0.757,23.41
			C641.654,15.555,641.511,8.073,645.155,0z"/>
	</g>
	<g>
		<path fill-rule="evenodd" clip-rule="evenodd" fill="#006837" d="M637.155,0c3.617,6.743,3.172,18.908-0.757,23.41
			C633.654,15.555,633.511,8.073,637.155,0z"/>
	</g>
	<g>
		<path fill-rule="evenodd" clip-rule="evenodd" fill="#006837" d="M629.155,0c3.617,6.743,3.172,18.908-0.757,23.41
			C625.654,15.555,625.511,8.073,629.155,0z"/>
	</g>
	<g>
		<path fill-rule="evenodd" clip-rule="evenodd" fill="#006837" d="M621.155,0c3.617,6.743,3.172,18.908-0.757,23.41
			C617.654,15.555,617.511,8.073,621.155,0z"/>
	</g>
	<g>
		<path fill-rule="evenodd" clip-rule="evenodd" fill="#006837" d="M613.155,0c3.617,6.743,3.172,18.908-0.757,23.41
			C609.654,15.555,609.511,8.073,613.155,0z"/>
	</g>
	<g>
		<path fill-rule="evenodd" clip-rule="evenodd" fill="#006837" d="M605.155,0c3.617,6.743,3.172,18.908-0.757,23.41
			C601.654,15.555,601.511,8.073,605.155,0z"/>
	</g>
	<g>
		<path fill-rule="evenodd" clip-rule="evenodd" fill="#006837" d="M597.155,0c3.617,6.743,3.172,18.908-0.757,23.41
			C593.654,15.555,593.511,8.073,597.155,0z"/>
	</g>
	<g>
		<path fill-rule="evenodd" clip-rule="evenodd" fill="#006837" d="M589.155,0c3.617,6.743,3.172,18.908-0.757,23.41
			C585.654,15.555,585.511,8.073,589.155,0z"/>
	</g>
	<g>
		<path fill-rule="evenodd" clip-rule="evenodd" fill="#006837" d="M581.155,0c3.617,6.743,3.172,18.908-0.757,23.41
			C577.654,15.555,577.511,8.073,581.155,0z"/>
	</g>
	<g>
		<path fill-rule="evenodd" clip-rule="evenodd" fill="#006837" d="M573.155,0c3.617,6.743,3.172,18.908-0.757,23.41
			C569.654,15.555,569.511,8.073,573.155,0z"/>
	</g>
	<g>
		<path fill-rule="evenodd" clip-rule="evenodd" fill="#006837" d="M565.155,0c3.617,6.743,3.172,18.908-0.757,23.41
			C561.654,15.555,561.511,8.073,565.155,0z"/>
	</g>
	<g>
		<path fill-rule="evenodd" clip-rule="evenodd" fill="#006837" d="M557.155,0c3.617,6.743,3.172,18.908-0.757,23.41
			C553.654,15.555,553.511,8.073,557.155,0z"/>
	</g>
	<g>
		<path fill-rule="evenodd" clip-rule="evenodd" fill="#006837" d="M549.155,0c3.617,6.743,3.172,18.908-0.757,23.41
			C545.654,15.555,545.511,8.073,549.155,0z"/>
	</g>
	<g>
		<path fill-rule="evenodd" clip-rule="evenodd" fill="#006837" d="M541.155,0c3.617,6.743,3.172,18.908-0.757,23.41
			C537.654,15.555,537.511,8.073,541.155,0z"/>
	</g>
	<g>
		<path fill-rule="evenodd" clip-rule="evenodd" fill="#006837" d="M533.155,0c3.617,6.743,3.172,18.908-0.757,23.41
			C529.654,15.555,529.511,8.073,533.155,0z"/>
	</g>
	<g>
		<path fill-rule="evenodd" clip-rule="evenodd" fill="#006837" d="M525.155,0c3.617,6.743,3.172,18.908-0.757,23.41
			C521.654,15.555,521.511,8.073,525.155,0z"/>
	</g>
	<g>
		<path fill-rule="evenodd" clip-rule="evenodd" fill="#006837" d="M517.155,0c3.617,6.743,3.172,18.908-0.757,23.41
			C513.654,15.555,513.511,8.073,517.155,0z"/>
	</g>
	<g>
		<path fill-rule="evenodd" clip-rule="evenodd" fill="#006837" d="M509.155,0c3.617,6.743,3.172,18.908-0.757,23.41
			C505.654,15.555,505.511,8.073,509.155,0z"/>
	</g>
	<g>
		<path fill-rule="evenodd" clip-rule="evenodd" fill="#006837" d="M501.155,0c3.617,6.743,3.172,18.908-0.757,23.41
			C497.654,15.555,497.511,8.073,501.155,0z"/>
	</g>
	<g>
		<path fill-rule="evenodd" clip-rule="evenodd" fill="#006837" d="M493.155,0c3.617,6.743,3.172,18.908-0.757,23.41
			C489.654,15.555,489.511,8.073,493.155,0z"/>
	</g>
	<g>
		<path fill-rule="evenodd" clip-rule="evenodd" fill="#006837" d="M485.155,0c3.617,6.743,3.172,18.908-0.757,23.41
			C481.654,15.555,481.511,8.073,485.155,0z"/>
	</g>
	<g>
		<path fill-rule="evenodd" clip-rule="evenodd" fill="#006837" d="M477.155,0c3.617,6.743,3.172,18.908-0.757,23.41
			C473.654,15.555,473.511,8.073,477.155,0z"/>
	</g>
	<g>
		<path fill-rule="evenodd" clip-rule="evenodd" fill="#006837" d="M469.155,0c3.617,6.743,3.172,18.908-0.757,23.41
			C465.654,15.555,465.511,8.073,469.155,0z"/>
	</g>
	<g>
		<path fill-rule="evenodd" clip-rule="evenodd" fill="#006837" d="M461.155,0c3.617,6.743,3.172,18.908-0.757,23.41
			C457.654,15.555,457.511,8.073,461.155,0z"/>
	</g>
	<g>
		<path fill-rule="evenodd" clip-rule="evenodd" fill="#006837" d="M453.155,0c3.617,6.743,3.172,18.908-0.757,23.41
			C449.654,15.555,449.511,8.073,453.155,0z"/>
	</g>
	<g>
		<path fill-rule="evenodd" clip-rule="evenodd" fill="#006837" d="M445.155,0c3.617,6.743,3.172,18.908-0.757,23.41
			C441.654,15.555,441.511,8.073,445.155,0z"/>
	</g>
	<g>
		<path fill-rule="evenodd" clip-rule="evenodd" fill="#006837" d="M437.155,0c3.617,6.743,3.172,18.908-0.757,23.41
			C433.654,15.555,433.511,8.073,437.155,0z"/>
	</g>
	<g>
		<path fill-rule="evenodd" clip-rule="evenodd" fill="#006837" d="M429.155,0c3.617,6.743,3.172,18.908-0.757,23.41
			C425.654,15.555,425.511,8.073,429.155,0z"/>
	</g>
	<g>
		<path fill-rule="evenodd" clip-rule="evenodd" fill="#006837" d="M421.155,0c3.617,6.743,3.172,18.908-0.757,23.41
			C417.654,15.555,417.511,8.073,421.155,0z"/>
	</g>
	<g>
		<path fill-rule="evenodd" clip-rule="evenodd" fill="#006837" d="M413.155,0c3.617,6.743,3.172,18.908-0.757,23.41
			C409.654,15.555,409.511,8.073,413.155,0z"/>
	</g>
	<g>
		<path fill-rule="evenodd" clip-rule="evenodd" fill="#006837" d="M405.155,0c3.617,6.743,3.172,18.908-0.757,23.41
			C401.654,15.555,401.511,8.073,405.155,0z"/>
	</g>
	<g>
		<path fill-rule="evenodd" clip-rule="evenodd" fill="#006837" d="M397.155,0c3.617,6.743,3.172,18.908-0.757,23.41
			C393.654,15.555,393.511,8.073,397.155,0z"/>
	</g>
	<g>
		<path fill-rule="evenodd" clip-rule="evenodd" fill="#006837" d="M389.155,0c3.617,6.743,3.172,18.908-0.757,23.41
			C385.654,15.555,385.511,8.073,389.155,0z"/>
	</g>
	<g>
		<path fill-rule="evenodd" clip-rule="evenodd" fill="#006837" d="M381.155,0c3.617,6.743,3.172,18.908-0.757,23.41
			C377.654,15.555,377.511,8.073,381.155,0z"/>
	</g>
	<g>
		<path fill-rule="evenodd" clip-rule="evenodd" fill="#006837" d="M373.155,0c3.617,6.743,3.172,18.908-0.757,23.41
			C369.654,15.555,369.511,8.073,373.155,0z"/>
	</g>
	<g>
		<path fill-rule="evenodd" clip-rule="evenodd" fill="#006837" d="M365.155,0c3.617,6.743,3.172,18.908-0.757,23.41
			C361.654,15.555,361.511,8.073,365.155,0z"/>
	</g>
	<g>
		<path fill-rule="evenodd" clip-rule="evenodd" fill="#006837" d="M357.155,0c3.617,6.743,3.172,18.908-0.757,23.41
			C353.654,15.555,353.511,8.073,357.155,0z"/>
	</g>
	<g>
		<path fill-rule="evenodd" clip-rule="evenodd" fill="#006837" d="M349.155,0c3.617,6.743,3.172,18.908-0.757,23.41
			C345.654,15.555,345.511,8.073,349.155,0z"/>
	</g>
	<g>
		<path fill-rule="evenodd" clip-rule="evenodd" fill="#006837" d="M341.155,0c3.617,6.743,3.172,18.908-0.757,23.41
			C337.654,15.555,337.511,8.073,341.155,0z"/>
	</g>
	<g>
		<path fill-rule="evenodd" clip-rule="evenodd" fill="#006837" d="M333.155,0c3.617,6.743,3.172,18.908-0.757,23.41
			C329.654,15.555,329.511,8.073,333.155,0z"/>
	</g>
	<g>
		<path fill-rule="evenodd" clip-rule="evenodd" fill="#006837" d="M325.155,0c3.617,6.743,3.172,18.908-0.757,23.41
			C321.654,15.555,321.511,8.073,325.155,0z"/>
	</g>
	<g>
		<path fill-rule="evenodd" clip-rule="evenodd" fill="#006837" d="M317.155,0c3.617,6.743,3.172,18.908-0.757,23.41
			C313.654,15.555,313.511,8.073,317.155,0z"/>
	</g>
	<g>
		<path fill-rule="evenodd" clip-rule="evenodd" fill="#006837" d="M309.155,0c3.617,6.743,3.172,18.908-0.757,23.41
			C305.654,15.555,305.511,8.073,309.155,0z"/>
	</g>
	<g>
		<path fill-rule="evenodd" clip-rule="evenodd" fill="#006837" d="M301.155,0c3.617,6.743,3.172,18.908-0.757,23.41
			C297.654,15.555,297.511,8.073,301.155,0z"/>
	</g>
	<g>
		<path fill-rule="evenodd" clip-rule="evenodd" fill="#006837" d="M293.155,0c3.617,6.743,3.172,18.908-0.757,23.41
			C289.654,15.555,289.511,8.073,293.155,0z"/>
	</g>
	<g>
		<path fill-rule="evenodd" clip-rule="evenodd" fill="#006837" d="M285.155,0c3.617,6.743,3.172,18.908-0.757,23.41
			C281.654,15.555,281.511,8.073,285.155,0z"/>
	</g>
	<g>
		<path fill-rule="evenodd" clip-rule="evenodd" fill="#006837" d="M277.155,0c3.617,6.743,3.172,18.908-0.757,23.41
			C273.654,15.555,273.511,8.073,277.155,0z"/>
	</g>
	<g>
		<path fill-rule="evenodd" clip-rule="evenodd" fill="#006837" d="M269.155,0c3.617,6.743,3.172,18.908-0.757,23.41
			C265.654,15.555,265.511,8.073,269.155,0z"/>
	</g>
	<g>
		<path fill-rule="evenodd" clip-rule="evenodd" fill="#006837" d="M261.155,0c3.617,6.743,3.172,18.908-0.757,23.41
			C257.654,15.555,257.511,8.073,261.155,0z"/>
	</g>
	<g>
		<path fill-rule="evenodd" clip-rule="evenodd" fill="#006837" d="M253.155,0c3.617,6.743,3.172,18.908-0.757,23.41
			C249.654,15.555,249.511,8.073,253.155,0z"/>
	</g>
	<g>
		<path fill-rule="evenodd" clip-rule="evenodd" fill="#006837" d="M245.155,0c3.617,6.743,3.172,18.908-0.757,23.41
			C241.654,15.555,241.511,8.073,245.155,0z"/>
	</g>
	<g>
		<path fill-rule="evenodd" clip-rule="evenodd" fill="#006837" d="M237.155,0c3.617,6.743,3.172,18.908-0.757,23.41
			C233.654,15.555,233.511,8.073,237.155,0z"/>
	</g>
	<g>
		<path fill-rule="evenodd" clip-rule="evenodd" fill="#006837" d="M229.155,0c3.617,6.743,3.172,18.908-0.757,23.41
			C225.654,15.555,225.511,8.073,229.155,0z"/>
	</g>
	<g>
		<path fill-rule="evenodd" clip-rule="evenodd" fill="#006837" d="M221.155,0c3.617,6.743,3.172,18.908-0.757,23.41
			C217.654,15.555,217.511,8.073,221.155,0z"/>
	</g>
	<g>
		<path fill-rule="evenodd" clip-rule="evenodd" fill="#006837" d="M213.155,0c3.617,6.743,3.172,18.908-0.757,23.41
			C209.654,15.555,209.511,8.073,213.155,0z"/>
	</g>
	<g>
		<path fill-rule="evenodd" clip-rule="evenodd" fill="#006837" d="M205.155,0c3.617,6.743,3.172,18.908-0.757,23.41
			C201.654,15.555,201.511,8.073,205.155,0z"/>
	</g>
	<g>
		<path fill-rule="evenodd" clip-rule="evenodd" fill="#006837" d="M197.155,0c3.617,6.743,3.172,18.908-0.757,23.41
			C193.654,15.555,193.511,8.073,197.155,0z"/>
	</g>
	<g>
		<path fill-rule="evenodd" clip-rule="evenodd" fill="#006837" d="M189.155,0c3.617,6.743,3.172,18.908-0.757,23.41
			C185.654,15.555,185.511,8.073,189.155,0z"/>
	</g>
	<g>
		<path fill-rule="evenodd" clip-rule="evenodd" fill="#006837" d="M181.155,0c3.617,6.743,3.172,18.908-0.757,23.41
			C177.654,15.555,177.511,8.073,181.155,0z"/>
	</g>
	<g>
		<path fill-rule="evenodd" clip-rule="evenodd" fill="#006837" d="M173.155,0c3.617,6.743,3.172,18.908-0.757,23.41
			C169.654,15.555,169.511,8.073,173.155,0z"/>
	</g>
	<g>
		<path fill-rule="evenodd" clip-rule="evenodd" fill="#006837" d="M165.155,0c3.617,6.743,3.172,18.908-0.757,23.41
			C161.654,15.555,161.511,8.073,165.155,0z"/>
	</g>
	<g>
		<path fill-rule="evenodd" clip-rule="evenodd" fill="#006837" d="M157.155,0c3.617,6.743,3.172,18.908-0.757,23.41
			C153.654,15.555,153.511,8.073,157.155,0z"/>
	</g>
	<g>
		<path fill-rule="evenodd" clip-rule="evenodd" fill="#006837" d="M149.155,0c3.617,6.743,3.172,18.908-0.757,23.41
			C145.654,15.555,145.511,8.073,149.155,0z"/>
	</g>
	<g>
		<path fill-rule="evenodd" clip-rule="evenodd" fill="#006837" d="M141.155,0c3.617,6.743,3.172,18.908-0.757,23.41
			C137.654,15.555,137.511,8.073,141.155,0z"/>
	</g>
	<g>
		<path fill-rule="evenodd" clip-rule="evenodd" fill="#006837" d="M133.155,0c3.617,6.743,3.172,18.908-0.757,23.41
			C129.654,15.555,129.511,8.073,133.155,0z"/>
	</g>
	<g>
		<path fill-rule="evenodd" clip-rule="evenodd" fill="#006837" d="M125.155,0c3.617,6.743,3.172,18.908-0.757,23.41
			C121.654,15.555,121.511,8.073,125.155,0z"/>
	</g>
	<g>
		<path fill-rule="evenodd" clip-rule="evenodd" fill="#006837" d="M117.155,0c3.617,6.743,3.172,18.908-0.757,23.41
			C113.654,15.555,113.511,8.073,117.155,0z"/>
	</g>
	<g>
		<path fill-rule="evenodd" clip-rule="evenodd" fill="#006837" d="M109.155,0c3.617,6.743,3.172,18.908-0.757,23.41
			C105.654,15.555,105.511,8.073,109.155,0z"/>
	</g>
	<g>
		<path fill-rule="evenodd" clip-rule="evenodd" fill="#006837" d="M101.155,0c3.617,6.743,3.172,18.908-0.757,23.41
			C97.654,15.555,97.511,8.073,101.155,0z"/>
	</g>
	<g>
		<path fill-rule="evenodd" clip-rule="evenodd" fill="#006837" d="M93.155,0c3.617,6.743,3.172,18.908-0.757,23.41
			C89.654,15.555,89.511,8.073,93.155,0z"/>
	</g>
	<g>
		<path fill-rule="evenodd" clip-rule="evenodd" fill="#006837" d="M85.155,0c3.617,6.743,3.172,18.908-0.757,23.41
			C81.654,15.555,81.511,8.073,85.155,0z"/>
	</g>
	<g>
		<path fill-rule="evenodd" clip-rule="evenodd" fill="#006837" d="M77.155,0c3.617,6.743,3.172,18.908-0.757,23.41
			C73.654,15.555,73.511,8.073,77.155,0z"/>
	</g>
	<g>
		<path fill-rule="evenodd" clip-rule="evenodd" fill="#006837" d="M69.155,0c3.617,6.743,3.172,18.908-0.757,23.41
			C65.654,15.555,65.511,8.073,69.155,0z"/>
	</g>
	<g>
		<path fill-rule="evenodd" clip-rule="evenodd" fill="#006837" d="M61.155,0c3.617,6.743,3.172,18.908-0.757,23.41
			C57.654,15.555,57.511,8.073,61.155,0z"/>
	</g>
	<g>
		<path fill-rule="evenodd" clip-rule="evenodd" fill="#006837" d="M53.155,0c3.617,6.743,3.172,18.908-0.757,23.41
			C49.654,15.555,49.511,8.073,53.155,0z"/>
	</g>
	<g>
		<path fill-rule="evenodd" clip-rule="evenodd" fill="#006837" d="M45.155,0c3.617,6.743,3.172,18.908-0.757,23.41
			C41.654,15.555,41.511,8.073,45.155,0z"/>
	</g>
	<g>
		<path fill-rule="evenodd" clip-rule="evenodd" fill="#006837" d="M37.155,0c3.617,6.743,3.172,18.908-0.757,23.41
			C33.654,15.555,33.511,8.073,37.155,0z"/>
	</g>
	<g>
		<path fill-rule="evenodd" clip-rule="evenodd" fill="#006837" d="M29.155,0c3.617,6.743,3.172,18.908-0.757,23.41
			C25.654,15.555,25.511,8.073,29.155,0z"/>
	</g>
	<g>
		<path fill-rule="evenodd" clip-rule="evenodd" fill="#006837" d="M21.155,0c3.617,6.743,3.172,18.908-0.757,23.41
			C17.654,15.555,17.511,8.073,21.155,0z"/>
	</g>
	<g>
		<path fill-rule="evenodd" clip-rule="evenodd" fill="#006837" d="M13.155,0c3.617,6.743,3.172,18.908-0.757,23.41
			C9.654,15.555,9.511,8.073,13.155,0z"/>
	</g>
	<g>
		<path fill-rule="evenodd" clip-rule="evenodd" fill="#006837" d="M5.155,0c3.617,6.743,3.172,18.908-0.757,23.41
			C1.654,15.555,1.511,8.073,5.155,0z"/>
	</g>
</g>
</svg>
