<?xml version="1.0" encoding="utf-8"?>
<!-- Generator: Adobe Illustrator 16.0.3, SVG Export Plug-In . SVG Version: 6.00 Build 0)  -->
<!DOCTYPE svg PUBLIC "-//W3C//DTD SVG 1.1//EN" "http://www.w3.org/Graphics/SVG/1.1/DTD/svg11.dtd">
<svg version="1.1" id="Layer_1" xmlns="http://www.w3.org/2000/svg" xmlns:xlink="http://www.w3.org/1999/xlink" x="0px" y="0px"
	 width="760px" height="127.064px" viewBox="0 0 760 127.064" enable-background="new 0 0 760 127.064" xml:space="preserve">
<line fill-rule="evenodd" clip-rule="evenodd" fill="#006837" stroke="#000000" stroke-width="2" stroke-miterlimit="10" x1="5" y1="62.469" x2="759" y2="62.469"/>
<line fill-rule="evenodd" clip-rule="evenodd" fill="#006837" stroke="#000000" stroke-width="2" stroke-miterlimit="10" x1="5" y1="54.469" x2="5" y2="67.469"/>
<line fill-rule="evenodd" clip-rule="evenodd" fill="#006837" stroke="#000000" stroke-width="2" stroke-miterlimit="10" x1="759" y1="54.469" x2="759" y2="67.469"/>
<line fill-rule="evenodd" clip-rule="evenodd" fill="#006837" stroke="#000000" stroke-width="2" stroke-miterlimit="10" x1="105" y1="55.469" x2="105" y2="68.469"/>
<line fill-rule="evenodd" clip-rule="evenodd" fill="#006837" stroke="#000000" stroke-width="2" stroke-miterlimit="10" x1="205" y1="55.469" x2="205" y2="68.469"/>
<line fill-rule="evenodd" clip-rule="evenodd" fill="#006837" stroke="#000000" stroke-width="2" stroke-miterlimit="10" x1="305" y1="54.469" x2="305" y2="67.469"/>
<line fill-rule="evenodd" clip-rule="evenodd" fill="#006837" stroke="#000000" stroke-width="2" stroke-miterlimit="10" x1="405" y1="54.469" x2="405" y2="67.469"/>
<line fill-rule="evenodd" clip-rule="evenodd" fill="#006837" stroke="#000000" stroke-width="2" stroke-miterlimit="10" x1="505" y1="55.469" x2="505" y2="68.469"/>
<line fill-rule="evenodd" clip-rule="evenodd" fill="#006837" stroke="#000000" stroke-width="2" stroke-miterlimit="10" x1="606" y1="55.469" x2="606" y2="68.469"/>
<line fill-rule="evenodd" clip-rule="evenodd" fill="#006837" stroke="#000000" stroke-width="2" stroke-miterlimit="10" x1="705" y1="55.469" x2="705" y2="68.469"/>
<text transform="matrix(1 0 0 1 100 87.4688)" font-family="'MyriadPro-Regular'" font-size="18">1</text>
<text transform="matrix(1 0 0 1 200 87.4688)" font-family="'MyriadPro-Regular'" font-size="18">2</text>
<text transform="matrix(1 0 0 1 299 87.4688)" font-family="'MyriadPro-Regular'" font-size="18">3</text>
<text transform="matrix(1 0 0 1 400 87.4688)" font-family="'MyriadPro-Regular'" font-size="18">4</text>
<text transform="matrix(1 0 0 1 500 87.4688)" font-family="'MyriadPro-Regular'" font-size="18">5</text>
<text transform="matrix(1 0 0 1 601 87.4688)" font-family="'MyriadPro-Regular'" font-size="18">6</text>
<text transform="matrix(1 0 0 1 699 87.4688)" font-family="'MyriadPro-Regular'" font-size="18">7</text>
<text transform="matrix(1 0 0 1 319.8828 119.4688)" font-family="'HelveticaNeueLight'" font-size="36">Seconds</text>
<text transform="matrix(1 0 0 1 0 87.4688)" font-family="'MyriadPro-Regular'" font-size="18">0</text>
<g>
	<path fill-rule="evenodd" clip-rule="evenodd" fill="#006837" d="M20.664,32.737"/>
	<path fill-rule="evenodd" clip-rule="evenodd" fill="#006837" d="M21.713,32.785c-0.128-0.007-0.255-0.015-0.383-0.021"/>
	<path fill-rule="evenodd" clip-rule="evenodd" fill="#006837" d="M128.664,38.914c-0.268-5.211-0.535-10.417-0.803-15.629
		c-0.351-0.022-0.701-0.037-1.049-0.049c-0.48,4.642-0.966,9.291-1.446,13.942c-0.31,0.007-0.614,0.013-0.924,0.021
		c-0.201-4.023-0.406-8.046-0.652-12.959c-3.428,3.888-0.368,10.409-3.21,14.425c-0.389-5.048-0.728-9.448-1.07-13.857
		c-0.393,0.008-0.787,0.015-1.183,0.021c-0.481,4.465-0.965,8.937-1.451,13.401c-0.25-0.064-0.498-0.128-0.745-0.192
		c-1.028-12.611-1.668-25.214,0.318-37.811c0.276-0.079,0.544-0.157,0.82-0.228c0.267,4.985,0.535,9.976,0.802,14.961
		c0.335,0.085,0.677,0.164,1.017,0.249c0.635-4.493,1.274-8.986,1.91-13.48c0.226-0.006,0.451-0.013,0.677-0.021
		c0.268,4.044,0.539,8.083,0.811,12.126c0.368-0.006,0.745-0.014,1.116-0.021c0.477-4.229,0.958-8.452,1.434-12.682
		c0.238-0.007,0.473-0.021,0.711-0.028c0.417,4.629,0.832,9.264,1.25,13.891c0.322,0.008,0.644,0.015,0.966,0.023
		c0.342-4.466,0.686-8.923,1.028-13.387c0.251-0.015,0.502-0.029,0.753-0.036c0.456,4.621,0.916,9.235,1.375,13.857
		c0.376,0.028,0.752,0.058,1.128,0.079c0.218-2.18,0.464-4.351,0.648-6.544c0.18-2.129,0.289-4.266,0.426-6.402
		c0.297-0.021,0.589-0.035,0.882-0.049c0.36,4.065,0.719,8.125,1.12,12.654c3.333-3.425,1.188-9.264,3.111-13.109
		c0.422,4.158,0.849,8.323,1.275,12.482c0.36-0.021,0.723-0.05,1.087-0.071c0.263-4.216,0.53-8.424,0.798-12.632
		c0.264-0.014,0.531-0.028,0.794-0.042c0.364,3.952,0.723,7.911,1.087,11.863c0.33-0.021,0.664-0.042,0.994-0.063
		c0.238-2.03,0.502-4.045,0.708-6.088c0.188-1.901,0.309-3.824,0.463-5.733c0.331-0.021,0.665-0.042,0.999-0.064
		c0.134,2.222,0.28,4.43,0.393,6.643c0.063,1.312-0.062,2.685,0.146,3.91c0.147,0.883,0.703,1.566,1.079,2.336
		c0.393-0.927,1.079-1.809,1.124-2.777c0.147-3.162,0.055-6.359,0.468-9.563c2.517,3.625-0.029,9.421,2.116,12.988
		c0.352,0.021,0.698,0.043,1.049,0.064c0.447-4.557,0.891-9.121,1.334-13.677c0.238-0.05,0.476-0.093,0.714-0.143
		c0.322,4.401,0.644,8.794,0.961,13.187c0.389,0.079,0.774,0.157,1.162,0.236c0.594-4.329,1.188-8.666,1.781-13.002
		c0.146,0.007,0.293,0.007,0.436,0.014c0.509,4.215,1.02,8.43,1.529,12.646c0.306,0.064,0.611,0.136,0.912,0.206
		c0.594-4.244,1.188-8.494,1.777-12.738c0.188-0.008,0.376-0.021,0.564-0.029c0.418,4.693,0.832,9.392,1.329,15.003
		c2.889-5.049,1.35-10.923,2.341-15.666c0.293-0.036,0.582-0.064,0.874-0.107c0.259,4.529,0.518,9.051,0.778,13.58
		c0.28,0.036,0.564,0.079,0.844,0.114c2.186-3.589,1.058-9.107,2.128-13.351c0.246-0.029,0.493-0.064,0.744-0.1
		c0.242,4.87,0.489,9.733,0.736,14.604c0.25,0.056,0.505,0.114,0.761,0.171c1.771-4.359,0.806-9.999,1.763-14.74
		c0.26-0.05,0.515-0.101,0.774-0.149c0.309,4.977,0.618,9.954,0.923,14.932c0.318,0.021,0.632,0.034,0.949,0.049
		c0.473-5.042,0.941-10.09,1.472-15.736c2.257,5.425,2.153,32.299-0.351,38.487c-0.322-6.203-0.585-11.245-0.845-16.286
		c-0.406-0.036-0.811-0.071-1.217-0.107c-0.342,5.361-0.689,10.723-1.031,16.085c-0.293,0-0.582,0-0.871,0
		c-0.468-5.548-0.932-11.093-1.4-16.64c-0.234-0.064-0.468-0.128-0.706-0.186c-1.451,4.864-0.515,10.524-0.991,15.751
		c-0.965-0.605-0.857-0.626-1.279-7.391c-0.179-2.813-0.923-5.526-1.413-8.288c-0.389,0.071-0.773,0.134-1.163,0.206
		c-0.284,4.991-0.568,9.983-0.853,14.975c-0.301,0.056-0.602,0.12-0.903,0.177c-0.142-2.457-0.217-4.921-0.447-7.347
		c-0.234-2.493-0.627-4.943-0.953-7.406c-0.33-0.015-0.66-0.021-0.992-0.036c-0.418,5.091-0.835,10.182-1.253,15.273
		c-0.243,0-0.485,0-0.728,0c-0.376-5.333-0.752-10.674-1.129-16.007c-0.292-0.006-0.584-0.013-0.877-0.021
		c-1.689,4.92-0.958,10.958-1.906,16.221c-0.297,0.021-0.589,0.042-0.886,0.056c-0.368-4.898-0.736-9.797-1.162-15.493
		c-2.835,5.027-2.02,11.171-2.441,16.668c-0.293,0.021-0.589,0.036-0.882,0.058c-0.352-4.493-0.707-8.98-1.146-14.577
		c-3.504,4.444-0.765,10.276-3.082,14.249c-0.285-5.76-0.572-11.514-0.898-17.98c-3.19,5.199-1.874,11.75-2.295,17.511
		c-0.334,0.027-0.669,0.056-1.004,0.085c-0.238-5.006-0.476-10.011-0.71-15.025c-0.468-0.042-0.933-0.093-1.396-0.134
		c-0.385,5.148-0.769,10.303-1.154,15.45c-0.322-0.092-0.64-0.191-0.961-0.284c-0.167-5.355-0.334-10.702-0.506-16.057
		c-0.43-0.007-0.856-0.021-1.288-0.029c-0.426,5.241-0.857,10.481-1.283,15.723c-0.242,0.078-0.489,0.164-0.731,0.242
		c-0.359-4.843-0.714-9.691-1.071-14.532c-0.279-0.022-0.56-0.036-0.836-0.058c-2.018,4.043-1.044,9.669-2.182,15.188
		c-1.986-4.877,0.406-10.943-2.722-15.658c-0.397,5.838-0.714,10.56-1.036,15.288C129.304,38.829,128.985,38.871,128.664,38.914z"/>
	<path fill-rule="evenodd" clip-rule="evenodd" fill="#006837" d="M20.664,32.737"/>
	<path fill-rule="evenodd" clip-rule="evenodd" fill="#006837" d="M15.799,17.469l0.016,8h-0.839c-0.48,5-0.898,9.285-1.378,13.936
		c-0.31,0.007-0.389,0.076-0.698,0.083c-0.652-12.959-0.824-14.019-0.823-14.019H10.97L9.758,37.985L8.911,37.84
		c-0.4-4.937-0.52-8.083-0.863-12.492c-0.393,0.008-0.646-0.017-1.043-0.01c-0.481,4.465-1.176,9.57-1.662,14.034
		c-0.25-0.064-0.497-0.062-0.743-0.125c-0.291-3.571-0.618-8.778-0.787-13.778H3v-8h0.605c0.093-5,0.466-11.23,1.273-16.346
		c0.276-0.079,0.561,0.064,0.837-0.007c0.267,4.985,1.024,11.353,1.291,16.353h1.148c0,0,0.675-10.122,1.311-14.616
		c0.226-0.006,0.453-0.005,0.679-0.013c0.268,4.044,0.785,14.654,0.785,14.654s0.775,0.008,1.147,0.001
		c0.477-4.229,0.931-12.153,1.408-16.382c0.238-0.007,0.544-0.006,0.782-0.013c0.418,4.628,0.873,16.369,0.751,16.369H15.799z"/>
	<path fill-rule="evenodd" clip-rule="evenodd" fill="#006837" d="M28.525,17.496l0.016,7.835h-0.839
		c-0.48,4.642-0.898,9.354-1.378,14.004c-0.31,0.007-0.389,0.042-0.698,0.049c-0.652-12.96-0.824-14.054-0.824-14.054h-1.105
		l-1.211,12.586l-0.847-0.111c-0.4-4.937-0.521-8.066-0.863-12.475c-0.393,0.008-0.646-0.008-1.042-0.002
		c-0.481,4.465-1.176,9.574-1.662,14.038c-0.25-0.064-0.497-0.128-0.743-0.191c-0.291-3.571-0.618-9.383-0.787-13.845h-0.814v-7.835
		h0.605c0.094-5.117,0.466-11.244,1.273-16.359c0.276-0.079,0.561,0.071,0.837,0c0.267,4.985,1.024,11.375,1.291,16.359h1.147
		c0,0,0.675-10.135,1.311-14.629c0.226-0.006,0.453-0.013,0.679-0.021c0.267,4.044,0.785,14.65,0.785,14.65s0.775,0.007,1.147,0
		c0.477-4.229,0.931-12.153,1.408-16.383c0.238-0.007,0.544,0.007,0.782,0c0.418,4.629,0.873,16.385,0.751,16.383H28.525z"/>
	<path fill-rule="evenodd" clip-rule="evenodd" fill="#006837" d="M41.34,17.496l0.016,7.835h-0.839
		c-0.48,4.642-0.898,9.354-1.378,14.004c-0.31,0.007-0.389,0.042-0.698,0.049c-0.652-12.96-0.824-14.054-0.824-14.054H36.51
		l-1.211,12.586l-0.847-0.111c-0.401-4.937-0.521-8.066-0.863-12.475c-0.393,0.008-0.647-0.008-1.043-0.002
		c-0.481,4.465-1.176,9.574-1.662,14.038c-0.25-0.064-0.497-0.128-0.744-0.191c-0.291-3.571-0.618-9.383-0.787-13.845h-0.814v-7.835
		h0.605c0.093-5.117,0.466-11.244,1.272-16.359c0.276-0.079,0.561,0.071,0.837,0c0.267,4.985,1.024,11.375,1.291,16.359h1.147
		c0,0,0.675-10.135,1.311-14.629c0.226-0.006,0.453-0.013,0.679-0.021c0.267,4.044,0.785,14.65,0.785,14.65s0.776,0.007,1.147,0
		c0.477-4.229,0.931-12.153,1.408-16.383c0.238-0.007,0.544,0.007,0.782,0c0.418,4.629,0.873,16.385,0.751,16.383H41.34z"/>
	<path fill-rule="evenodd" clip-rule="evenodd" fill="#006837" d="M53.852,17.469l0.016,8h-0.84c-0.48,5-0.898,9.285-1.378,13.936
		c-0.31,0.007-0.388,0.076-0.698,0.083c-0.652-12.959-0.824-14.019-0.824-14.019h-1.105l-1.211,12.517l-0.847-0.145
		c-0.401-4.937-0.521-8.083-0.863-12.492c-0.394,0.008-0.647-0.017-1.043-0.01c-0.481,4.465-1.176,9.57-1.661,14.034
		c-0.25-0.064-0.498-0.062-0.744-0.125c-0.291-3.571-0.618-8.778-0.787-13.778H41v-8h0.658c0.093-5,0.466-11.23,1.272-16.346
		c0.276-0.079,0.561,0.064,0.837-0.007c0.267,4.985,1.024,11.353,1.291,16.353h1.147c0,0,0.676-10.122,1.311-14.616
		c0.226-0.006,0.453-0.005,0.679-0.013c0.268,4.044,0.785,14.654,0.785,14.654s0.776,0.008,1.147,0.001
		c0.477-4.229,0.932-12.153,1.409-16.382c0.238-0.007,0.544-0.006,0.782-0.013c0.418,4.628,0.873,16.369,0.751,16.369H53.852z"/>
	<path fill-rule="evenodd" clip-rule="evenodd" fill="#006837" d="M66.333,17.496l0.016,7.835h-0.839
		c-0.48,4.642-0.898,9.354-1.378,14.004c-0.31,0.007-0.389,0.042-0.698,0.049c-0.652-12.96-0.824-14.054-0.824-14.054h-1.105
		l-1.211,12.586l-0.847-0.111c-0.4-4.937-0.52-8.066-0.863-12.475c-0.393,0.008-0.647-0.008-1.043-0.002
		c-0.481,4.465-1.176,9.574-1.662,14.038c-0.25-0.064-0.498-0.128-0.744-0.191c-0.291-3.571-0.618-9.383-0.787-13.845h-0.813v-7.835
		h0.604c0.093-5.117,0.467-11.244,1.272-16.359c0.276-0.079,0.562,0.071,0.838,0c0.266,4.985,1.023,11.375,1.291,16.359h1.147
		c0,0,0.675-10.135,1.311-14.629c0.226-0.006,0.453-0.013,0.679-0.021c0.268,4.044,0.785,14.65,0.785,14.65s0.776,0.007,1.147,0
		c0.477-4.229,0.932-12.153,1.409-16.383c0.238-0.007,0.544,0.007,0.782,0c0.418,4.629,0.873,16.385,0.751,16.383H66.333z"/>
	<path fill-rule="evenodd" clip-rule="evenodd" fill="#006837" d="M78.896,17.545l0.016,7.835h-0.839
		c-0.48,4.642-0.898,9.354-1.378,14.004c-0.31,0.006-0.389,0.041-0.698,0.048c-0.652-12.959-0.824-14.053-0.824-14.053h-1.105
		l-1.211,12.586l-0.848-0.111c-0.4-4.938-0.52-8.066-0.863-12.475c-0.393,0.008-0.646-0.009-1.042-0.002
		c-0.481,4.465-1.176,9.574-1.662,14.038c-0.25-0.064-0.497-0.128-0.744-0.192c-0.291-3.57-0.618-9.383-0.787-13.844h-0.813v-7.835
		h0.605c0.093-5.117,0.466-11.245,1.273-16.359c0.276-0.079,0.561,0.071,0.837,0c0.267,4.984,1.024,11.374,1.291,16.359h1.147
		c0,0,0.675-10.135,1.311-14.629c0.226-0.006,0.453-0.013,0.679-0.021c0.268,4.044,0.785,14.65,0.785,14.65s0.776,0.007,1.147,0
		c0.477-4.229,0.931-12.154,1.408-16.383c0.238-0.007,0.544,0.007,0.782,0c0.418,4.629,0.873,16.386,0.751,16.383H78.896z"/>
	<path fill-rule="evenodd" clip-rule="evenodd" fill="#006837" d="M91.445,17.545l0.016,7.835h-0.839
		c-0.48,4.642-0.898,9.354-1.378,14.004c-0.31,0.006-0.389,0.041-0.698,0.048c-0.652-12.959-0.824-14.053-0.824-14.053h-1.105
		l-1.211,12.586l-0.847-0.111c-0.401-4.938-0.521-8.066-0.863-12.475c-0.393,0.008-0.647-0.009-1.043-0.002
		c-0.481,4.465-1.176,9.574-1.662,14.038c-0.25-0.064-0.497-0.128-0.744-0.192c-0.291-3.57-0.618-9.383-0.787-13.844h-0.814v-7.835
		h0.605c0.093-5.117,0.466-11.245,1.272-16.359c0.276-0.079,0.561,0.071,0.837,0c0.267,4.984,1.024,11.374,1.291,16.359h1.147
		c0,0,0.676-10.135,1.311-14.629c0.226-0.006,0.453-0.013,0.679-0.021c0.268,4.044,0.785,14.65,0.785,14.65s0.776,0.007,1.147,0
		c0.477-4.229,0.932-12.154,1.408-16.383c0.238-0.007,0.544,0.007,0.783,0c0.418,4.629,0.872,16.386,0.751,16.383H91.445z"/>
	<path fill-rule="evenodd" clip-rule="evenodd" fill="#006837" d="M104.125,17.545l0.016,7.835h-0.84
		c-0.48,4.642-0.898,9.354-1.378,14.004c-0.31,0.006-0.389,0.041-0.698,0.048C100.572,26.474,100.4,25.38,100.4,25.38h-1.105
		l-1.211,12.586l-0.847-0.111c-0.401-4.938-0.521-8.066-0.863-12.475c-0.394,0.008-0.647-0.009-1.043-0.002
		c-0.481,4.465-1.176,9.574-1.661,14.038c-0.25-0.064-0.498-0.128-0.744-0.192c-0.291-3.57-0.618-9.383-0.787-13.844h-0.814v-7.835
		h0.605c0.093-5.117,0.466-11.245,1.272-16.359c0.276-0.079,0.561,0.071,0.837,0c0.267,4.984,1.024,11.374,1.291,16.359h1.147
		c0,0,0.675-10.135,1.311-14.629c0.226-0.006,0.453-0.013,0.679-0.021c0.268,4.044,0.785,14.65,0.785,14.65s0.776,0.007,1.147,0
		c0.477-4.229,0.932-12.154,1.408-16.383c0.238-0.007,0.544,0.007,0.783,0c0.418,4.629,0.872,16.386,0.751,16.383H104.125z"/>
	<path fill-rule="evenodd" clip-rule="evenodd" fill="#006837" d="M226.95,32.737"/>
	<path fill-rule="evenodd" clip-rule="evenodd" fill="#006837" d="M228,32.785c-0.128-0.007-0.255-0.015-0.383-0.021"/>
	<path fill-rule="evenodd" clip-rule="evenodd" fill="#006837" d="M226.95,32.737"/>
	<path fill-rule="evenodd" clip-rule="evenodd" fill="#006837" d="M222.085,17.469l0.016,8h-0.839c-0.48,5-0.898,9.285-1.378,13.936
		c-0.31,0.007-0.389,0.076-0.698,0.083c-0.652-12.959-0.824-14.019-0.823-14.019h-1.105l-1.211,12.517l-0.847-0.145
		c-0.4-4.937-0.52-8.083-0.863-12.492c-0.393,0.008-0.647-0.017-1.043-0.01c-0.481,4.465-1.176,9.57-1.662,14.034
		c-0.25-0.064-0.497-0.062-0.743-0.125c-0.291-3.571-0.619-8.778-0.787-13.778H209v-8h0.891c0.093-5,0.467-11.23,1.273-16.346
		c0.276-0.079,0.561,0.064,0.837-0.007c0.267,4.985,1.023,11.353,1.291,16.353h1.147c0,0,0.675-10.122,1.311-14.616
		c0.226-0.006,0.453-0.005,0.679-0.013c0.268,4.044,0.785,14.654,0.785,14.654s0.775,0.008,1.147,0.001
		c0.477-4.229,0.931-12.153,1.408-16.382c0.238-0.007,0.544-0.006,0.782-0.013c0.418,4.628,0.872,16.369,0.751,16.369H222.085z"/>
	<path fill-rule="evenodd" clip-rule="evenodd" fill="#006837" d="M234.811,17.496l0.016,7.835h-0.839
		c-0.48,4.642-0.898,9.354-1.378,14.004c-0.31,0.007-0.389,0.042-0.698,0.049c-0.652-12.96-0.824-14.054-0.824-14.054h-1.105
		l-1.211,12.586l-0.847-0.111c-0.4-4.937-0.521-8.066-0.863-12.475c-0.393,0.008-0.646-0.008-1.043-0.002
		c-0.481,4.465-1.176,9.574-1.662,14.038c-0.25-0.064-0.497-0.128-0.743-0.191c-0.291-3.571-0.619-9.383-0.787-13.845h-0.813v-7.835
		h0.605c0.093-5.117,0.466-11.244,1.273-16.359c0.276-0.079,0.561,0.071,0.837,0c0.267,4.985,1.023,11.375,1.291,16.359h1.147
		c0,0,0.676-10.135,1.311-14.629c0.226-0.006,0.453-0.013,0.679-0.021c0.267,4.044,0.784,14.65,0.784,14.65s0.776,0.007,1.148,0
		c0.477-4.229,0.931-12.153,1.408-16.383c0.238-0.007,0.544,0.007,0.782,0c0.418,4.629,0.873,16.385,0.751,16.383H234.811z"/>
	<path fill-rule="evenodd" clip-rule="evenodd" fill="#006837" d="M247.625,17.496l0.016,7.835h-0.839
		c-0.48,4.642-0.899,9.354-1.378,14.004c-0.31,0.007-0.389,0.042-0.699,0.049c-0.652-12.96-0.824-14.054-0.824-14.054h-1.105
		l-1.211,12.586l-0.847-0.111c-0.4-4.937-0.52-8.066-0.863-12.475c-0.393,0.008-0.646-0.008-1.042-0.002
		c-0.481,4.465-1.176,9.574-1.662,14.038c-0.25-0.064-0.497-0.128-0.744-0.191c-0.291-3.571-0.618-9.383-0.787-13.845h-0.814v-7.835
		h0.605c0.094-5.117,0.466-11.244,1.273-16.359c0.276-0.079,0.561,0.071,0.837,0c0.267,4.985,1.024,11.375,1.291,16.359h1.147
		c0,0,0.675-10.135,1.311-14.629c0.226-0.006,0.453-0.013,0.679-0.021c0.267,4.044,0.785,14.65,0.785,14.65s0.776,0.007,1.147,0
		c0.477-4.229,0.931-12.153,1.408-16.383c0.238-0.007,0.544,0.007,0.782,0c0.418,4.629,0.873,16.385,0.751,16.383H247.625z"/>
	<path fill-rule="evenodd" clip-rule="evenodd" fill="#006837" d="M260.138,17.469l0.016,8h-0.839c-0.48,5-0.898,9.285-1.378,13.936
		c-0.31,0.007-0.389,0.076-0.698,0.083c-0.652-12.959-0.824-14.019-0.824-14.019h-1.105l-1.211,12.517l-0.847-0.145
		c-0.401-4.937-0.521-8.083-0.863-12.492c-0.394,0.008-0.647-0.017-1.043-0.01c-0.481,4.465-1.176,9.57-1.661,14.034
		c-0.25-0.064-0.498-0.062-0.744-0.125c-0.291-3.571-0.618-8.778-0.787-13.778H247v-8h0.944c0.093-5,0.466-11.23,1.272-16.346
		c0.276-0.079,0.561,0.064,0.837-0.007c0.267,4.985,1.024,11.353,1.291,16.353h1.147c0,0,0.675-10.122,1.311-14.616
		c0.226-0.006,0.453-0.005,0.679-0.013c0.268,4.044,0.785,14.654,0.785,14.654s0.776,0.008,1.147,0.001
		c0.477-4.229,0.932-12.153,1.408-16.382c0.238-0.007,0.544-0.006,0.783-0.013c0.418,4.628,0.872,16.369,0.751,16.369H260.138z"/>
	<path fill-rule="evenodd" clip-rule="evenodd" fill="#006837" d="M272.619,17.496l0.016,7.835h-0.84
		c-0.48,4.642-0.898,9.354-1.378,14.004c-0.309,0.007-0.389,0.042-0.698,0.049c-0.652-12.96-0.824-14.054-0.824-14.054h-1.105
		l-1.211,12.586l-0.847-0.111c-0.401-4.937-0.52-8.066-0.863-12.475c-0.394,0.008-0.647-0.008-1.043-0.002
		c-0.481,4.465-1.176,9.574-1.662,14.038c-0.25-0.064-0.498-0.128-0.744-0.191c-0.291-3.571-0.618-9.383-0.787-13.845h-0.813v-7.835
		h0.604c0.093-5.117,0.466-11.244,1.272-16.359c0.276-0.079,0.561,0.071,0.837,0c0.267,4.985,1.024,11.375,1.291,16.359h1.147
		c0,0,0.675-10.135,1.311-14.629c0.226-0.006,0.453-0.013,0.678-0.021c0.268,4.044,0.785,14.65,0.785,14.65s0.776,0.007,1.147,0
		c0.477-4.229,0.932-12.153,1.408-16.383c0.238-0.007,0.544,0.007,0.782,0c0.418,4.629,0.872,16.385,0.751,16.383H272.619z"/>
	<path fill-rule="evenodd" clip-rule="evenodd" fill="#006837" d="M285.183,17.545l0.016,7.835h-0.839
		c-0.48,4.642-0.898,9.354-1.378,14.004c-0.31,0.006-0.389,0.041-0.698,0.048c-0.652-12.959-0.824-14.053-0.824-14.053h-1.105
		l-1.211,12.586l-0.847-0.111c-0.4-4.938-0.52-8.066-0.863-12.475c-0.393,0.008-0.647-0.009-1.043-0.002
		c-0.481,4.465-1.176,9.574-1.662,14.038c-0.25-0.064-0.497-0.128-0.743-0.192c-0.291-3.57-0.618-9.383-0.787-13.844h-0.813v-7.835
		h0.604c0.094-5.117,0.467-11.245,1.273-16.359c0.276-0.079,0.561,0.071,0.837,0c0.267,4.984,1.023,11.374,1.291,16.359h1.148
		c0,0,0.675-10.135,1.311-14.629c0.226-0.006,0.453-0.013,0.679-0.021c0.268,4.044,0.785,14.65,0.785,14.65s0.775,0.007,1.147,0
		c0.477-4.229,0.931-12.154,1.408-16.383c0.238-0.007,0.544,0.007,0.782,0c0.418,4.629,0.872,16.386,0.751,16.383H285.183z"/>
	<path fill-rule="evenodd" clip-rule="evenodd" fill="#006837" d="M297.731,17.545l0.016,7.835h-0.839
		c-0.48,4.642-0.898,9.354-1.378,14.004c-0.31,0.006-0.389,0.041-0.698,0.048c-0.652-12.959-0.824-14.053-0.824-14.053h-1.105
		l-1.211,12.586l-0.847-0.111c-0.401-4.938-0.521-8.066-0.863-12.475c-0.393,0.008-0.647-0.009-1.043-0.002
		c-0.481,4.465-1.176,9.574-1.662,14.038c-0.25-0.064-0.497-0.128-0.744-0.192c-0.291-3.57-0.618-9.383-0.787-13.844h-0.814v-7.835
		h0.605c0.093-5.117,0.466-11.245,1.272-16.359c0.276-0.079,0.561,0.071,0.837,0c0.267,4.984,1.024,11.374,1.291,16.359h1.147
		c0,0,0.675-10.135,1.311-14.629c0.226-0.006,0.453-0.013,0.679-0.021c0.268,4.044,0.785,14.65,0.785,14.65s0.776,0.007,1.147,0
		c0.477-4.229,0.932-12.154,1.408-16.383c0.238-0.007,0.544,0.007,0.783,0c0.418,4.629,0.872,16.386,0.751,16.383H297.731z"/>
	<path fill-rule="evenodd" clip-rule="evenodd" fill="#006837" d="M310.41,17.545l0.016,7.835h-0.839
		c-0.48,4.642-0.898,9.354-1.378,14.004c-0.31,0.006-0.389,0.041-0.698,0.048c-0.652-12.959-0.824-14.053-0.824-14.053h-1.105
		l-1.211,12.586l-0.847-0.111c-0.401-4.938-0.521-8.066-0.863-12.475c-0.393,0.008-0.647-0.009-1.043-0.002
		c-0.481,4.465-1.176,9.574-1.661,14.038c-0.25-0.064-0.498-0.128-0.744-0.192c-0.291-3.57-0.618-9.383-0.787-13.844h-0.814v-7.835
		h0.605c0.094-5.117,0.466-11.245,1.273-16.359c0.276-0.079,0.561,0.071,0.837,0c0.267,4.984,1.024,11.374,1.291,16.359h1.147
		c0,0,0.675-10.135,1.311-14.629c0.226-0.006,0.453-0.013,0.679-0.021c0.268,4.044,0.785,14.65,0.785,14.65s0.776,0.007,1.147,0
		c0.477-4.229,0.932-12.154,1.408-16.383c0.238-0.007,0.544,0.007,0.783,0c0.417,4.629,0.872,16.386,0.751,16.383H310.41z"/>
	<path fill-rule="evenodd" clip-rule="evenodd" fill="#006837" d="M310.426,17.521c0.477-4.229,0.932-12.153,1.408-16.383
		c0.238-0.007,0.544,0.007,0.782,0c0.418,4.629,0.873,16.385,0.751,16.383h0.783l0.016,7.834h-0.84
		c-0.48,4.642-0.898,9.354-1.378,14.004c-0.309,0.007-0.388,0.042-0.698,0.049c-0.652-12.959-0.824-14.053-0.824-14.053"/>
	<path fill-rule="evenodd" clip-rule="evenodd" fill="#006837" d="M326.714,17.57l0.016,7.834h-0.84
		c-0.479,4.642-0.898,9.354-1.378,14.004c-0.309,0.007-0.388,0.042-0.698,0.049c-0.652-12.959-0.824-14.054-0.824-14.054h-1.105
		l-1.211,12.586l-0.847-0.111c-0.4-4.937-0.521-8.066-0.863-12.475c-0.393,0.009-0.647-0.008-1.042-0.001
		c-0.481,4.465-1.176,9.573-1.662,14.038c-0.25-0.064-0.498-0.128-0.744-0.192c-0.291-3.571-0.618-9.383-0.787-13.845h-0.813V17.57
		h0.604c0.094-5.117,0.467-11.245,1.273-16.36c0.276-0.079,0.561,0.072,0.837,0c0.267,4.985,1.024,11.374,1.291,16.36h1.147
		c0,0,0.675-10.136,1.311-14.63c0.226-0.006,0.452-0.013,0.678-0.021c0.268,4.044,0.785,14.65,0.785,14.65s0.776,0.006,1.147,0
		c0.477-4.23,0.931-12.154,1.408-16.384c0.238-0.006,0.544,0.007,0.782,0c0.418,4.629,0.872,16.386,0.751,16.384H326.714z"/>
	<path fill-rule="evenodd" clip-rule="evenodd" fill="#006837" d="M339.263,17.57l0.016,7.834h-0.839
		c-0.48,4.642-0.898,9.354-1.378,14.004c-0.31,0.007-0.389,0.042-0.699,0.049c-0.652-12.959-0.824-14.054-0.824-14.054h-1.105
		l-1.211,12.586l-0.847-0.111c-0.4-4.937-0.52-8.066-0.863-12.475c-0.394,0.009-0.647-0.008-1.043-0.001
		c-0.481,4.465-1.176,9.573-1.662,14.038c-0.25-0.064-0.498-0.128-0.744-0.192c-0.291-3.571-0.618-9.383-0.787-13.845h-0.813V17.57
		h0.605c0.093-5.117,0.466-11.245,1.272-16.36c0.276-0.079,0.561,0.072,0.837,0c0.267,4.985,1.024,11.374,1.291,16.36h1.147
		c0,0,0.676-10.136,1.311-14.63c0.226-0.006,0.453-0.013,0.678-0.021c0.268,4.044,0.785,14.65,0.785,14.65s0.776,0.006,1.147,0
		c0.477-4.23,0.932-12.154,1.408-16.384c0.238-0.006,0.544,0.007,0.782,0c0.418,4.629,0.872,16.386,0.751,16.384H339.263z"/>
	<path fill-rule="evenodd" clip-rule="evenodd" fill="#006837" d="M350.848,16.193C350.969,16.195,350.848,16.193,350.848,16.193
		c-0.418-4.628-0.832-9.263-1.25-13.892c-0.238,0.007-0.473,0.022-0.71,0.028c-0.477,4.229-0.958,10.02-1.435,14.249
		c-0.372,0.006-1.116,0.021-1.116,0.021s-0.544-9.649-0.812-13.693c-0.226,0.008-0.451,0.015-0.677,0.021
		c-0.636,4.494-1.275,8.987-1.911,13.48c-0.338-0.085-0.681-0.164-1.017-0.249c-0.267-4.985-0.535-9.976-0.801-14.961
		c-0.276,0.072-0.544,0.149-0.82,0.228c-1.986,12.597-1.346,25.2-0.318,37.811c0.247,0.064,0.494,0.128,0.745,0.192
		c0.486-4.464,0.97-8.937,1.451-13.402c0.397-0.007,0.79-0.013,1.183-0.021c0.343,4.409,0.536,6.924,0.936,11.862l0.85,0.11
		l1.215-11.9l1.095-0.196c0,0,0.224,0.604,0.876,13.563c0.31-0.008,0.441-0.042,0.75-0.049c0.48-4.65,1.1-10.321,1.58-14.963"/>
	<path fill-rule="evenodd" clip-rule="evenodd" fill="#006837" d="M402.043,17.496l0.016,7.835h-0.84
		c-0.479,4.642-0.898,9.354-1.378,14.004c-0.31,0.007-0.389,0.042-0.698,0.049c-0.652-12.96-0.823-14.054-0.822-14.054h-1.106
		l-1.212,12.586l-0.847-0.111c-0.4-4.937-0.521-8.066-0.863-12.475c-0.393,0.008-0.647-0.008-1.042-0.002
		c-0.48,4.465-1.177,9.574-1.663,14.038c-0.25-0.064-0.496-0.128-0.743-0.191c-0.29-3.571-0.617-9.383-0.785-13.845h-0.814v-7.835
		h0.604c0.095-5.117,0.467-11.244,1.273-16.359c0.275-0.079,0.561,0.071,0.837,0c0.267,4.985,1.023,11.375,1.291,16.359h1.147
		c0,0,0.676-10.135,1.312-14.629c0.225-0.006,0.451-0.013,0.678-0.021c0.268,4.044,0.785,14.65,0.785,14.65s0.776,0.007,1.148,0
		c0.475-4.229,0.93-12.153,1.407-16.383c0.238-0.007,0.544,0.007,0.783,0c0.417,4.629,0.871,16.385,0.75,16.383H402.043z"/>
	<path fill-rule="evenodd" clip-rule="evenodd" fill="#006837" d="M414.858,17.496l0.016,7.835h-0.841
		c-0.479,4.642-0.898,9.354-1.377,14.004c-0.311,0.007-0.39,0.042-0.699,0.049c-0.652-12.96-0.823-14.054-0.822-14.054h-1.106
		l-1.211,12.586l-0.848-0.111c-0.4-4.937-0.521-8.066-0.862-12.475c-0.394,0.008-0.648-0.008-1.042-0.002
		c-0.481,4.465-1.177,9.574-1.663,14.038c-0.251-0.064-0.497-0.128-0.743-0.191c-0.291-3.571-0.618-9.383-0.786-13.845h-0.814
		v-7.835h0.604c0.095-5.117,0.467-11.244,1.273-16.359c0.275-0.079,0.561,0.071,0.837,0c0.267,4.985,1.023,11.375,1.292,16.359
		h1.146c0,0,0.676-10.135,1.312-14.629c0.226-0.006,0.451-0.013,0.678-0.021c0.268,4.044,0.785,14.65,0.785,14.65
		s0.776,0.007,1.148,0c0.476-4.229,0.931-12.153,1.407-16.383c0.238-0.007,0.544,0.007,0.783,0
		c0.418,4.629,0.871,16.385,0.751,16.383H414.858z"/>
	<path fill-rule="evenodd" clip-rule="evenodd" fill="#006837" d="M427.369,17.469l0.016,8h-0.838c-0.481,5-0.899,9.285-1.38,13.936
		c-0.309,0.007-0.39,0.076-0.698,0.083c-0.651-12.959-0.823-14.019-0.823-14.019h-1.105l-1.211,12.517l-0.847-0.145
		c-0.4-4.937-0.521-8.083-0.864-12.492c-0.394,0.008-0.646-0.017-1.042-0.01c-0.481,4.465-1.176,9.57-1.662,14.034
		c-0.25-0.064-0.497-0.062-0.743-0.125c-0.291-3.571-0.618-8.778-0.786-13.778H415v-8h0.175c0.094-5,0.468-11.23,1.273-16.346
		c0.275-0.079,0.561,0.064,0.837-0.007c0.267,4.985,1.024,11.353,1.291,16.353h1.147c0,0,0.676-10.122,1.312-14.616
		c0.226-0.006,0.453-0.005,0.678-0.013c0.268,4.044,0.784,14.654,0.784,14.654s0.777,0.008,1.148,0.001
		c0.478-4.229,0.931-12.153,1.408-16.382c0.238-0.007,0.544-0.006,0.782-0.013c0.419,4.628,0.873,16.369,0.752,16.369H427.369z"/>
	<path fill-rule="evenodd" clip-rule="evenodd" fill="#006837" d="M439.85,17.496l0.016,7.835h-0.839
		c-0.48,4.642-0.897,9.354-1.379,14.004c-0.31,0.007-0.388,0.042-0.698,0.049c-0.651-12.96-0.823-14.054-0.823-14.054h-1.105
		l-1.21,12.586l-0.848-0.111c-0.4-4.937-0.521-8.066-0.863-12.475c-0.393,0.008-0.646-0.008-1.043-0.002
		c-0.481,4.465-1.176,9.574-1.66,14.038c-0.251-0.064-0.498-0.128-0.745-0.191c-0.29-3.571-0.618-9.383-0.787-13.845h-0.813v-7.835
		h0.605c0.093-5.117,0.467-11.244,1.272-16.359c0.277-0.079,0.562,0.071,0.837,0c0.268,4.985,1.024,11.375,1.291,16.359h1.147
		c0,0,0.675-10.135,1.311-14.629c0.228-0.006,0.454-0.013,0.68-0.021c0.268,4.044,0.784,14.65,0.784,14.65s0.775,0.007,1.147,0
		c0.478-4.229,0.933-12.153,1.408-16.383c0.238-0.007,0.545,0.007,0.782,0c0.419,4.629,0.873,16.385,0.751,16.383H439.85z"/>
	<path fill-rule="evenodd" clip-rule="evenodd" fill="#006837" d="M452.414,17.545l0.016,7.835h-0.839
		c-0.48,4.642-0.898,9.354-1.38,14.004c-0.308,0.006-0.387,0.041-0.697,0.048c-0.651-12.959-0.823-14.053-0.823-14.053h-1.104
		l-1.211,12.586l-0.848-0.111c-0.401-4.938-0.52-8.066-0.863-12.475c-0.393,0.008-0.646-0.009-1.043-0.002
		c-0.481,4.465-1.176,9.574-1.66,14.038c-0.251-0.064-0.498-0.128-0.745-0.192c-0.29-3.57-0.618-9.383-0.787-13.844h-0.813v-7.835
		h0.604c0.094-5.117,0.467-11.245,1.273-16.359c0.276-0.079,0.562,0.071,0.837,0c0.268,4.984,1.024,11.374,1.291,16.359h1.148
		c0,0,0.674-10.135,1.31-14.629c0.227-0.006,0.454-0.013,0.679-0.021c0.269,4.044,0.785,14.65,0.785,14.65s0.775,0.007,1.147,0
		c0.478-4.229,0.932-12.154,1.407-16.383c0.239-0.007,0.545,0.007,0.783,0c0.418,4.629,0.872,16.386,0.751,16.383H452.414z"/>
	<path fill-rule="evenodd" clip-rule="evenodd" fill="#006837" d="M464.963,17.545l0.016,7.835h-0.839
		c-0.48,4.642-0.898,9.354-1.379,14.004c-0.309,0.006-0.388,0.041-0.698,0.048c-0.651-12.959-0.824-14.053-0.824-14.053h-1.104
		l-1.211,12.586l-0.847-0.111c-0.4-4.938-0.52-8.066-0.863-12.475c-0.394,0.008-0.646-0.009-1.044-0.002
		c-0.481,4.465-1.175,9.574-1.66,14.038c-0.25-0.064-0.498-0.128-0.744-0.192c-0.291-3.57-0.618-9.383-0.787-13.844h-0.813v-7.835
		h0.604c0.093-5.117,0.467-11.245,1.272-16.359c0.277-0.079,0.562,0.071,0.838,0c0.268,4.984,1.024,11.374,1.29,16.359h1.148
		c0,0,0.675-10.135,1.311-14.629c0.227-0.006,0.453-0.013,0.679-0.021c0.268,4.044,0.785,14.65,0.785,14.65s0.775,0.007,1.146,0
		c0.478-4.229,0.933-12.154,1.409-16.383c0.238-0.007,0.544,0.007,0.781,0c0.419,4.629,0.873,16.386,0.752,16.383H464.963z"/>
	<path fill-rule="evenodd" clip-rule="evenodd" fill="#006837" d="M511.195,17.496l0.016,7.835h-0.841
		c-0.48,4.642-0.898,9.354-1.377,14.004c-0.311,0.007-0.39,0.042-0.698,0.049c-0.654-12.96-0.825-14.054-0.824-14.054h-1.105
		l-1.212,12.586l-0.848-0.111c-0.398-4.937-0.52-8.066-0.861-12.475c-0.394,0.008-0.647-0.008-1.043-0.002
		c-0.481,4.465-1.176,9.574-1.662,14.038c-0.251-0.064-0.497-0.128-0.744-0.191c-0.291-3.571-0.618-9.383-0.786-13.845h-0.813
		v-7.835H499c0.094-5.117,0.467-11.244,1.273-16.359c0.276-0.079,0.561,0.071,0.837,0c0.267,4.985,1.022,11.375,1.291,16.359h1.147
		c0,0,0.676-10.135,1.311-14.629c0.226-0.006,0.452-0.013,0.679-0.021c0.268,4.044,0.785,14.65,0.785,14.65s0.775,0.007,1.147,0
		c0.477-4.229,0.932-12.153,1.409-16.383c0.237-0.007,0.544,0.007,0.781,0c0.418,4.629,0.873,16.385,0.751,16.383H511.195z"/>
	<path fill-rule="evenodd" clip-rule="evenodd" fill="#006837" d="M524.01,17.496l0.016,7.835h-0.841
		c-0.479,4.642-0.897,9.354-1.377,14.004c-0.311,0.007-0.39,0.042-0.698,0.049c-0.653-12.96-0.825-14.054-0.824-14.054h-1.105
		l-1.212,12.586l-0.847-0.111c-0.399-4.937-0.521-8.066-0.862-12.475c-0.394,0.008-0.647-0.008-1.043-0.002
		c-0.481,4.465-1.176,9.574-1.662,14.038c-0.25-0.064-0.497-0.128-0.743-0.191c-0.292-3.571-0.618-9.383-0.787-13.845h-0.813v-7.835
		h0.604c0.093-5.117,0.466-11.244,1.272-16.359c0.276-0.079,0.561,0.071,0.838,0c0.266,4.985,1.022,11.375,1.29,16.359h1.147
		c0,0,0.676-10.135,1.311-14.629c0.226-0.006,0.452-0.013,0.68-0.021c0.267,4.044,0.784,14.65,0.784,14.65s0.775,0.007,1.147,0
		c0.477-4.229,0.932-12.153,1.409-16.383c0.237-0.007,0.544,0.007,0.781,0c0.418,4.629,0.873,16.385,0.751,16.383H524.01z"/>
	<path fill-rule="evenodd" clip-rule="evenodd" fill="#006837" d="M536.521,17.469l0.017,8h-0.84c-0.48,5-0.898,9.285-1.378,13.936
		c-0.31,0.007-0.39,0.076-0.699,0.083c-0.652-12.959-0.823-14.019-0.823-14.019h-1.104l-1.212,12.517l-0.847-0.145
		c-0.4-4.937-0.521-8.083-0.864-12.492c-0.393,0.008-0.646-0.017-1.042-0.01c-0.48,4.465-1.176,9.57-1.661,14.034
		c-0.251-0.064-0.498-0.062-0.745-0.125c-0.29-3.571-0.617-8.778-0.785-13.778H524v-8h0.326c0.095-5,0.467-11.23,1.273-16.346
		c0.275-0.079,0.562,0.064,0.837-0.007c0.268,4.985,1.024,11.353,1.291,16.353h1.148c0,0,0.675-10.122,1.31-14.616
		c0.226-0.006,0.453-0.005,0.679-0.013c0.269,4.044,0.785,14.654,0.785,14.654s0.776,0.008,1.147,0.001
		c0.478-4.229,0.932-12.153,1.408-16.382c0.239-0.007,0.544-0.006,0.783-0.013c0.417,4.628,0.871,16.369,0.75,16.369H536.521z"/>
	<path fill-rule="evenodd" clip-rule="evenodd" fill="#006837" d="M549.001,17.496l0.016,7.835h-0.839
		c-0.479,4.642-0.897,9.354-1.379,14.004c-0.309,0.007-0.389,0.042-0.698,0.049c-0.651-12.96-0.823-14.054-0.823-14.054h-1.105
		l-1.211,12.586l-0.846-0.111c-0.401-4.937-0.521-8.066-0.864-12.475c-0.394,0.008-0.646-0.008-1.043-0.002
		c-0.481,4.465-1.176,9.574-1.661,14.038c-0.25-0.064-0.498-0.128-0.744-0.191c-0.29-3.571-0.617-9.383-0.787-13.845h-0.813v-7.835
		h0.605c0.093-5.117,0.467-11.244,1.271-16.359c0.277-0.079,0.562,0.071,0.838,0c0.268,4.985,1.025,11.375,1.291,16.359h1.147
		c0,0,0.675-10.135,1.312-14.629c0.226-0.006,0.452-0.013,0.678-0.021c0.268,4.044,0.785,14.65,0.785,14.65s0.776,0.007,1.147,0
		c0.477-4.229,0.932-12.153,1.408-16.383c0.238-0.007,0.545,0.007,0.782,0c0.419,4.629,0.872,16.385,0.751,16.383H549.001z"/>
	<path fill-rule="evenodd" clip-rule="evenodd" fill="#006837" d="M561.565,17.545l0.016,7.835h-0.839
		c-0.48,4.642-0.897,9.354-1.379,14.004c-0.31,0.006-0.389,0.041-0.698,0.048c-0.651-12.959-0.823-14.053-0.823-14.053h-1.105
		l-1.21,12.586l-0.848-0.111c-0.4-4.938-0.521-8.066-0.863-12.475c-0.394,0.008-0.646-0.009-1.043-0.002
		c-0.481,4.465-1.176,9.574-1.661,14.038c-0.251-0.064-0.498-0.128-0.743-0.192c-0.291-3.57-0.619-9.383-0.788-13.844h-0.813v-7.835
		h0.605c0.093-5.117,0.467-11.245,1.272-16.359c0.276-0.079,0.561,0.071,0.837,0c0.268,4.984,1.024,11.374,1.291,16.359h1.147
		c0,0,0.675-10.135,1.311-14.629c0.228-0.006,0.453-0.013,0.679-0.021c0.268,4.044,0.785,14.65,0.785,14.65s0.775,0.007,1.147,0
		c0.477-4.229,0.932-12.154,1.408-16.383c0.238-0.007,0.545,0.007,0.782,0c0.419,4.629,0.872,16.386,0.751,16.383H561.565z"/>
	<path fill-rule="evenodd" clip-rule="evenodd" fill="#006837" d="M574.113,17.545l0.016,7.835h-0.838
		c-0.48,4.642-0.898,9.354-1.38,14.004c-0.309,0.006-0.388,0.041-0.698,0.048c-0.65-12.959-0.822-14.053-0.822-14.053h-1.105
		l-1.21,12.586l-0.848-0.111c-0.401-4.938-0.521-8.066-0.863-12.475c-0.393,0.008-0.646-0.009-1.043-0.002
		c-0.481,4.465-1.177,9.574-1.661,14.038c-0.25-0.064-0.497-0.128-0.744-0.192c-0.29-3.57-0.618-9.383-0.787-13.844h-0.814v-7.835
		h0.605c0.094-5.117,0.467-11.245,1.273-16.359c0.275-0.079,0.561,0.071,0.836,0c0.269,4.984,1.025,11.374,1.292,16.359h1.147
		c0,0,0.675-10.135,1.311-14.629c0.227-0.006,0.454-0.013,0.679-0.021c0.269,4.044,0.785,14.65,0.785,14.65s0.775,0.007,1.147,0
		c0.478-4.229,0.931-12.154,1.407-16.383c0.239-0.007,0.545,0.007,0.783,0c0.418,4.629,0.872,16.386,0.751,16.383H574.113z"/>
	<path fill-rule="evenodd" clip-rule="evenodd" fill="#006837" d="M616.49,32.737"/>
	<path fill-rule="evenodd" clip-rule="evenodd" fill="#006837" d="M617.539,32.785c-0.127-0.007-0.254-0.015-0.383-0.021"/>
	<path fill-rule="evenodd" clip-rule="evenodd" fill="#006837" d="M616.49,32.737"/>
	<path fill-rule="evenodd" clip-rule="evenodd" fill="#006837" d="M611.625,17.469l0.016,8h-0.839
		c-0.481,5-0.899,9.285-1.379,13.936c-0.309,0.007-0.389,0.076-0.698,0.083c-0.652-12.959-0.823-14.019-0.823-14.019h-1.104
		l-1.213,12.517l-0.846-0.145c-0.4-4.937-0.521-8.083-0.864-12.492c-0.393,0.008-0.646-0.017-1.043-0.01
		c-0.48,4.465-1.175,9.57-1.661,14.034c-0.25-0.064-0.498-0.062-0.744-0.125c-0.291-3.571-0.618-8.778-0.785-13.778H599v-8h0.431
		c0.093-5,0.467-11.23,1.273-16.346c0.275-0.079,0.562,0.064,0.837-0.007c0.268,4.985,1.023,11.353,1.29,16.353h1.148
		c0,0,0.675-10.122,1.311-14.616c0.226-0.006,0.453-0.005,0.679-0.013c0.269,4.044,0.785,14.654,0.785,14.654
		s0.775,0.008,1.147,0.001c0.477-4.229,0.931-12.153,1.408-16.382c0.239-0.007,0.544-0.006,0.782-0.013
		c0.418,4.628,0.872,16.369,0.751,16.369H611.625z"/>
	<path fill-rule="evenodd" clip-rule="evenodd" fill="#006837" d="M624.352,17.496l0.016,7.835h-0.84
		c-0.48,4.642-0.898,9.354-1.378,14.004c-0.31,0.007-0.389,0.042-0.698,0.049c-0.653-12.96-0.824-14.054-0.824-14.054h-1.104
		l-1.213,12.586l-0.846-0.111c-0.4-4.937-0.521-8.066-0.863-12.475c-0.393,0.008-0.647-0.008-1.043-0.002
		c-0.479,4.465-1.176,9.574-1.662,14.038c-0.25-0.064-0.496-0.128-0.743-0.191c-0.292-3.571-0.617-9.383-0.785-13.845h-0.814v-7.835
		h0.604c0.094-5.117,0.466-11.244,1.273-16.359c0.275-0.079,0.561,0.071,0.837,0c0.267,4.985,1.022,11.375,1.29,16.359h1.147
		c0,0,0.677-10.135,1.312-14.629c0.225-0.006,0.452-0.013,0.679-0.021c0.268,4.044,0.784,14.65,0.784,14.65s0.776,0.007,1.148,0
		c0.476-4.229,0.931-12.153,1.408-16.383c0.238-0.007,0.544,0.007,0.782,0c0.417,4.629,0.872,16.385,0.751,16.383H624.352z"/>
	<path fill-rule="evenodd" clip-rule="evenodd" fill="#006837" d="M637.166,17.496l0.016,7.835h-0.84
		c-0.48,4.642-0.898,9.354-1.378,14.004c-0.31,0.007-0.389,0.042-0.698,0.049c-0.653-12.96-0.824-14.054-0.824-14.054h-1.104
		l-1.212,12.586l-0.847-0.111c-0.4-4.937-0.521-8.066-0.863-12.475c-0.393,0.008-0.647-0.008-1.042-0.002
		c-0.48,4.465-1.177,9.574-1.662,14.038c-0.251-0.064-0.497-0.128-0.744-0.191c-0.291-3.571-0.617-9.383-0.785-13.845h-0.814v-7.835
		h0.604c0.095-5.117,0.466-11.244,1.273-16.359c0.275-0.079,0.561,0.071,0.837,0c0.267,4.985,1.022,11.375,1.291,16.359h1.147
		c0,0,0.676-10.135,1.311-14.629c0.225-0.006,0.452-0.013,0.679-0.021c0.268,4.044,0.785,14.65,0.785,14.65s0.775,0.007,1.147,0
		c0.477-4.229,0.931-12.153,1.408-16.383c0.238-0.007,0.544,0.007,0.782,0c0.417,4.629,0.872,16.385,0.751,16.383H637.166z"/>
	<path fill-rule="evenodd" clip-rule="evenodd" fill="#006837" d="M649.678,17.469l0.016,8h-0.839c-0.48,5-0.898,9.285-1.379,13.936
		c-0.309,0.007-0.39,0.076-0.698,0.083c-0.652-12.959-0.824-14.019-0.824-14.019h-1.104l-1.212,12.517l-0.846-0.145
		c-0.4-4.937-0.521-8.083-0.864-12.492c-0.394,0.008-0.646-0.017-1.042-0.01c-0.481,4.465-1.176,9.57-1.662,14.034
		c-0.25-0.064-0.498-0.062-0.744-0.125c-0.291-3.571-0.617-8.778-0.786-13.778H637v-8h0.483c0.094-5,0.468-11.23,1.272-16.346
		c0.276-0.079,0.562,0.064,0.838-0.007c0.267,4.985,1.024,11.353,1.291,16.353h1.147c0,0,0.675-10.122,1.312-14.616
		c0.225-0.006,0.451-0.005,0.678-0.013c0.268,4.044,0.784,14.654,0.784,14.654s0.777,0.008,1.147,0.001
		c0.478-4.229,0.932-12.153,1.409-16.382c0.238-0.007,0.544-0.006,0.782-0.013c0.418,4.628,0.872,16.369,0.751,16.369H649.678z"/>
	<path fill-rule="evenodd" clip-rule="evenodd" fill="#006837" d="M662.158,17.496l0.016,7.835h-0.839
		c-0.48,4.642-0.897,9.354-1.379,14.004c-0.31,0.007-0.389,0.042-0.699,0.049c-0.65-12.96-0.822-14.054-0.822-14.054h-1.105
		l-1.21,12.586l-0.848-0.111c-0.401-4.937-0.521-8.066-0.863-12.475c-0.394,0.008-0.646-0.008-1.043-0.002
		c-0.481,4.465-1.176,9.574-1.661,14.038c-0.251-0.064-0.498-0.128-0.744-0.191c-0.29-3.571-0.618-9.383-0.787-13.845h-0.814v-7.835
		h0.606c0.093-5.117,0.466-11.244,1.271-16.359c0.276-0.079,0.562,0.071,0.837,0c0.269,4.985,1.025,11.375,1.292,16.359h1.147
		c0,0,0.675-10.135,1.311-14.629c0.228-0.006,0.454-0.013,0.678-0.021c0.269,4.044,0.786,14.65,0.786,14.65s0.775,0.007,1.147,0
		c0.478-4.229,0.932-12.153,1.407-16.383c0.239-0.007,0.545,0.007,0.783,0c0.419,4.629,0.871,16.385,0.75,16.383H662.158z"/>
	<path fill-rule="evenodd" clip-rule="evenodd" fill="#006837" d="M674.722,17.545l0.016,7.835h-0.838
		c-0.48,4.642-0.898,9.354-1.38,14.004c-0.309,0.006-0.388,0.041-0.698,0.048c-0.65-12.959-0.822-14.053-0.822-14.053h-1.105
		l-1.211,12.586l-0.847-0.111c-0.401-4.938-0.521-8.066-0.864-12.475c-0.392,0.008-0.646-0.009-1.043-0.002
		c-0.48,4.465-1.176,9.574-1.661,14.038c-0.25-0.064-0.496-0.128-0.743-0.192c-0.29-3.57-0.618-9.383-0.787-13.844h-0.814v-7.835
		h0.605c0.093-5.117,0.467-11.245,1.273-16.359c0.276-0.079,0.561,0.071,0.836,0c0.269,4.984,1.025,11.374,1.291,16.359h1.148
		c0,0,0.675-10.135,1.311-14.629c0.227-0.006,0.454-0.013,0.679-0.021c0.268,4.044,0.785,14.65,0.785,14.65s0.775,0.007,1.147,0
		c0.477-4.229,0.931-12.154,1.407-16.383c0.239-0.007,0.545,0.007,0.783,0c0.418,4.629,0.872,16.386,0.751,16.383H674.722z"/>
	<path fill-rule="evenodd" clip-rule="evenodd" fill="#006837" d="M687.271,17.545l0.015,7.835h-0.838
		c-0.48,4.642-0.898,9.354-1.38,14.004c-0.31,0.006-0.389,0.041-0.697,0.048c-0.651-12.959-0.824-14.053-0.824-14.053h-1.105
		l-1.21,12.586l-0.847-0.111c-0.401-4.938-0.521-8.066-0.863-12.475c-0.394,0.008-0.646-0.009-1.044-0.002
		c-0.481,4.465-1.176,9.574-1.661,14.038c-0.249-0.064-0.497-0.128-0.743-0.192c-0.291-3.57-0.618-9.383-0.788-13.844h-0.813v-7.835
		h0.605c0.093-5.117,0.467-11.245,1.272-16.359c0.277-0.079,0.561,0.071,0.837,0c0.268,4.984,1.025,11.374,1.291,16.359h1.147
		c0,0,0.675-10.135,1.312-14.629c0.227-0.006,0.453-0.013,0.679-0.021c0.268,4.044,0.784,14.65,0.784,14.65s0.776,0.007,1.147,0
		c0.478-4.229,0.933-12.154,1.408-16.383c0.238-0.007,0.545,0.007,0.782,0c0.419,4.629,0.873,16.386,0.752,16.383H687.271z"/>
	<path fill-rule="evenodd" clip-rule="evenodd" fill="#006837" d="M699.951,17.545l0.016,7.835h-0.84
		c-0.48,4.642-0.898,9.354-1.379,14.004c-0.309,0.006-0.389,0.041-0.697,0.048c-0.652-12.959-0.824-14.053-0.824-14.053h-1.105
		l-1.211,12.586l-0.848-0.111c-0.399-4.938-0.52-8.066-0.862-12.475c-0.394,0.008-0.646-0.009-1.043-0.002
		c-0.481,4.465-1.176,9.574-1.661,14.038c-0.25-0.064-0.498-0.128-0.744-0.192c-0.291-3.57-0.618-9.383-0.787-13.844h-0.813v-7.835
		h0.604c0.094-5.117,0.468-11.245,1.273-16.359c0.276-0.079,0.562,0.071,0.837,0c0.267,4.984,1.024,11.374,1.291,16.359h1.147
		c0,0,0.675-10.135,1.311-14.629c0.227-0.006,0.453-0.013,0.68-0.021c0.268,4.044,0.783,14.65,0.783,14.65s0.777,0.007,1.148,0
		c0.478-4.229,0.932-12.154,1.408-16.383c0.238-0.007,0.544,0.007,0.782,0c0.419,4.629,0.873,16.386,0.752,16.383H699.951z"/>
	<path fill-rule="evenodd" clip-rule="evenodd" fill="#006837" d="M699.967,17.521c0.477-4.229,0.931-12.153,1.408-16.383
		c0.238-0.007,0.544,0.007,0.782,0c0.419,4.629,0.872,16.385,0.75,16.383h0.783l0.016,7.834h-0.84
		c-0.48,4.642-0.897,9.354-1.378,14.004c-0.31,0.007-0.39,0.042-0.698,0.049c-0.653-12.959-0.823-14.053-0.823-14.053"/>
	<path fill-rule="evenodd" clip-rule="evenodd" fill="#006837" d="M716.254,17.57l0.016,7.834h-0.838
		c-0.481,4.642-0.899,9.354-1.38,14.004c-0.309,0.007-0.389,0.042-0.698,0.049c-0.651-12.959-0.822-14.054-0.822-14.054h-1.105
		l-1.211,12.586l-0.848-0.111c-0.4-4.937-0.521-8.066-0.864-12.475c-0.393,0.009-0.646-0.008-1.041-0.001
		c-0.481,4.465-1.177,9.573-1.662,14.038c-0.251-0.064-0.497-0.128-0.744-0.192c-0.29-3.571-0.618-9.383-0.786-13.845h-0.814V17.57
		h0.604c0.095-5.117,0.468-11.245,1.273-16.36c0.275-0.079,0.562,0.072,0.837,0c0.268,4.985,1.024,11.374,1.292,16.36h1.147
		c0,0,0.675-10.136,1.311-14.63c0.226-0.006,0.453-0.013,0.678-0.021c0.269,4.044,0.785,14.65,0.785,14.65s0.776,0.006,1.148,0
		c0.477-4.23,0.93-12.154,1.407-16.384c0.239-0.006,0.544,0.007,0.783,0c0.418,4.629,0.872,16.386,0.751,16.384H716.254z"/>
	<path fill-rule="evenodd" clip-rule="evenodd" fill="#006837" d="M728.803,17.57l0.016,7.834h-0.838
		c-0.481,4.642-0.899,9.354-1.38,14.004c-0.309,0.007-0.39,0.042-0.698,0.049c-0.651-12.959-0.823-14.054-0.823-14.054h-1.105
		l-1.211,12.586l-0.847-0.111c-0.4-4.937-0.521-8.066-0.864-12.475c-0.394,0.009-0.646-0.008-1.042-0.001
		c-0.481,4.465-1.176,9.573-1.662,14.038c-0.25-0.064-0.497-0.128-0.743-0.192c-0.291-3.571-0.618-9.383-0.787-13.845h-0.813V17.57
		h0.604c0.094-5.117,0.468-11.245,1.273-16.36c0.276-0.079,0.561,0.072,0.837,0c0.267,4.985,1.024,11.374,1.291,16.36h1.147
		c0,0,0.676-10.136,1.312-14.63c0.226-0.006,0.452-0.013,0.679-0.021c0.267,4.044,0.783,14.65,0.783,14.65s0.777,0.006,1.148,0
		c0.478-4.23,0.931-12.154,1.408-16.384c0.238-0.006,0.544,0.007,0.782,0c0.419,4.629,0.873,16.386,0.752,16.384H728.803z"/>
	<path fill-rule="evenodd" clip-rule="evenodd" fill="#006837" d="M740.388,16.193C740.509,16.195,740.388,16.193,740.388,16.193
		c-0.419-4.628-0.832-9.263-1.25-13.892c-0.239,0.007-0.474,0.022-0.711,0.028c-0.476,4.229-0.957,10.02-1.435,14.249
		c-0.372,0.006-1.114,0.021-1.114,0.021s-0.544-9.649-0.813-13.693c-0.226,0.008-0.451,0.015-0.677,0.021
		c-0.636,4.494-1.274,8.987-1.91,13.48c-0.339-0.085-0.681-0.164-1.018-0.249c-0.267-4.985-0.533-9.976-0.801-14.961
		c-0.276,0.072-0.545,0.149-0.82,0.228c-1.985,12.597-1.346,25.2-0.318,37.811c0.247,0.064,0.494,0.128,0.745,0.192
		c0.485-4.464,0.969-8.937,1.45-13.402c0.397-0.007,0.791-0.013,1.185-0.021c0.342,4.409,0.535,6.924,0.935,11.862l0.851,0.11
		l1.215-11.9l1.095-0.196c0,0,0.225,0.604,0.876,13.563c0.311-0.008,0.442-0.042,0.752-0.049c0.48-4.65,1.099-10.321,1.58-14.963"/>
</g>
</svg>
