<?xml version="1.0" encoding="utf-8"?>
<!-- Generator: Adobe Illustrator 16.0.3, SVG Export Plug-In . SVG Version: 6.00 Build 0)  -->
<!DOCTYPE svg PUBLIC "-//W3C//DTD SVG 1.1//EN" "http://www.w3.org/Graphics/SVG/1.1/DTD/svg11.dtd">
<svg version="1.1" id="Layer_1" xmlns="http://www.w3.org/2000/svg" xmlns:xlink="http://www.w3.org/1999/xlink" x="0px" y="0px"
	 width="760px" height="137.21px" viewBox="0 0 760 137.21" enable-background="new 0 0 760 137.21" xml:space="preserve">
<line fill-rule="evenodd" clip-rule="evenodd" fill="#006837" stroke="#000000" stroke-width="2" stroke-miterlimit="10" x1="5" y1="64.615" x2="759" y2="64.615"/>
<line fill-rule="evenodd" clip-rule="evenodd" fill="#006837" stroke="#000000" stroke-width="2" stroke-miterlimit="10" x1="5" y1="56.615" x2="5" y2="69.615"/>
<line fill-rule="evenodd" clip-rule="evenodd" fill="#006837" stroke="#000000" stroke-width="2" stroke-miterlimit="10" x1="759" y1="56.615" x2="759" y2="69.615"/>
<line fill-rule="evenodd" clip-rule="evenodd" fill="#006837" stroke="#000000" stroke-width="2" stroke-miterlimit="10" x1="105" y1="57.615" x2="105" y2="70.615"/>
<line fill-rule="evenodd" clip-rule="evenodd" fill="#006837" stroke="#000000" stroke-width="2" stroke-miterlimit="10" x1="205" y1="57.615" x2="205" y2="70.615"/>
<line fill-rule="evenodd" clip-rule="evenodd" fill="#006837" stroke="#000000" stroke-width="2" stroke-miterlimit="10" x1="305" y1="56.615" x2="305" y2="69.615"/>
<line fill-rule="evenodd" clip-rule="evenodd" fill="#006837" stroke="#000000" stroke-width="2" stroke-miterlimit="10" x1="405" y1="56.615" x2="405" y2="69.615"/>
<line fill-rule="evenodd" clip-rule="evenodd" fill="#006837" stroke="#000000" stroke-width="2" stroke-miterlimit="10" x1="505" y1="57.615" x2="505" y2="70.615"/>
<line fill-rule="evenodd" clip-rule="evenodd" fill="#006837" stroke="#000000" stroke-width="2" stroke-miterlimit="10" x1="606" y1="57.615" x2="606" y2="70.615"/>
<line fill-rule="evenodd" clip-rule="evenodd" fill="#006837" stroke="#000000" stroke-width="2" stroke-miterlimit="10" x1="705" y1="57.615" x2="705" y2="70.615"/>
<text transform="matrix(1 0 0 1 100 89.6147)" font-family="'MyriadPro-Regular'" font-size="18">1</text>
<text transform="matrix(1 0 0 1 200 89.6147)" font-family="'MyriadPro-Regular'" font-size="18">2</text>
<text transform="matrix(1 0 0 1 299 89.6147)" font-family="'MyriadPro-Regular'" font-size="18">3</text>
<text transform="matrix(1 0 0 1 400 89.6147)" font-family="'MyriadPro-Regular'" font-size="18">4</text>
<text transform="matrix(1 0 0 1 500 89.6147)" font-family="'MyriadPro-Regular'" font-size="18">5</text>
<text transform="matrix(1 0 0 1 601 89.6147)" font-family="'MyriadPro-Regular'" font-size="18">6</text>
<text transform="matrix(1 0 0 1 699 89.6147)" font-family="'MyriadPro-Regular'" font-size="18">7</text>
<text transform="matrix(1 0 0 1 321.0908 129.6147)" font-family="'HelveticaNeueLight'" font-size="36">Seconds</text>
<text transform="matrix(1 0 0 1 0 89.6147)" font-family="'MyriadPro-Regular'" font-size="18">0</text>
<g>
	<g>
		<path fill-rule="evenodd" clip-rule="evenodd" fill="#006837" d="M525.043,0c3.672,4.574,3.65,39.408,0.256,44.353
			C521.355,40.719,521.02,8.283,525.043,0z"/>
	</g>
	<g>
		<path fill-rule="evenodd" clip-rule="evenodd" fill="#006837" d="M517.043,0c3.672,4.574,3.65,39.408,0.256,44.353
			C513.355,40.719,513.02,8.283,517.043,0z"/>
	</g>
	<g>
		<path fill-rule="evenodd" clip-rule="evenodd" fill="#006837" d="M509.043,0c3.672,4.574,3.65,39.408,0.256,44.353
			C505.355,40.719,505.02,8.283,509.043,0z"/>
	</g>
	<g>
		<path fill-rule="evenodd" clip-rule="evenodd" fill="#006837" d="M501.043,0c3.672,4.574,3.65,39.408,0.256,44.353
			C497.355,40.719,497.02,8.283,501.043,0z"/>
	</g>
	<g>
		<path fill-rule="evenodd" clip-rule="evenodd" fill="#006837" d="M493.043,0c3.672,4.574,3.65,39.408,0.256,44.353
			C489.355,40.719,489.02,8.283,493.043,0z"/>
	</g>
	<g>
		<path fill-rule="evenodd" clip-rule="evenodd" fill="#006837" d="M485.043,0c3.672,4.574,3.65,39.408,0.256,44.353
			C481.355,40.719,481.02,8.283,485.043,0z"/>
	</g>
	<g>
		<path fill-rule="evenodd" clip-rule="evenodd" fill="#006837" d="M477.043,0c3.672,4.574,3.65,39.408,0.256,44.353
			C473.355,40.719,473.02,8.283,477.043,0z"/>
	</g>
	<g>
		<path fill-rule="evenodd" clip-rule="evenodd" fill="#006837" d="M469.043,0c3.672,4.574,3.65,39.408,0.256,44.353
			C465.355,40.719,465.02,8.283,469.043,0z"/>
	</g>
	<g>
		<path fill-rule="evenodd" clip-rule="evenodd" fill="#006837" d="M461.043,0c3.672,4.574,3.65,39.408,0.256,44.353
			C457.355,40.719,457.02,8.283,461.043,0z"/>
	</g>
	<g>
		<path fill-rule="evenodd" clip-rule="evenodd" fill="#006837" d="M453.043,0c3.672,4.574,3.65,39.408,0.256,44.353
			C449.355,40.719,449.02,8.283,453.043,0z"/>
	</g>
	<g>
		<path fill-rule="evenodd" clip-rule="evenodd" fill="#006837" d="M445.043,0c3.672,4.574,3.65,39.408,0.256,44.353
			C441.355,40.719,441.02,8.283,445.043,0z"/>
	</g>
	<g>
		<path fill-rule="evenodd" clip-rule="evenodd" fill="#006837" d="M437.043,0c3.672,4.574,3.65,39.408,0.256,44.353
			C433.355,40.719,433.02,8.283,437.043,0z"/>
	</g>
	<g>
		<path fill-rule="evenodd" clip-rule="evenodd" fill="#006837" d="M429.043,0c3.672,4.574,3.65,39.408,0.256,44.353
			C425.355,40.719,425.02,8.283,429.043,0z"/>
	</g>
	<g>
		<path fill-rule="evenodd" clip-rule="evenodd" fill="#006837" d="M421.043,0c3.672,4.574,3.65,39.408,0.256,44.353
			C417.355,40.719,417.02,8.283,421.043,0z"/>
	</g>
	<g>
		<path fill-rule="evenodd" clip-rule="evenodd" fill="#006837" d="M413.043,0c3.672,4.574,3.65,39.408,0.256,44.353
			C409.355,40.719,409.02,8.283,413.043,0z"/>
	</g>
	<g>
		<path fill-rule="evenodd" clip-rule="evenodd" fill="#006837" d="M405.043,0c3.672,4.574,3.65,39.408,0.256,44.353
			C401.355,40.719,401.02,8.283,405.043,0z"/>
	</g>
	<g>
		<path fill-rule="evenodd" clip-rule="evenodd" fill="#006837" d="M397.043,0c3.672,4.574,3.65,39.408,0.256,44.353
			C393.355,40.719,393.02,8.283,397.043,0z"/>
	</g>
	<g>
		<path fill-rule="evenodd" clip-rule="evenodd" fill="#006837" d="M389.043,0c3.672,4.574,3.65,39.408,0.256,44.353
			C385.355,40.719,385.02,8.283,389.043,0z"/>
	</g>
	<g>
		<path fill-rule="evenodd" clip-rule="evenodd" fill="#006837" d="M381.043,0c3.672,4.574,3.65,39.408,0.256,44.353
			C377.355,40.719,377.02,8.283,381.043,0z"/>
	</g>
	<g>
		<path fill-rule="evenodd" clip-rule="evenodd" fill="#006837" d="M373.043,0c3.672,4.574,3.65,39.408,0.256,44.353
			C369.355,40.719,369.02,8.283,373.043,0z"/>
	</g>
	<g>
		<path fill-rule="evenodd" clip-rule="evenodd" fill="#006837" d="M365.043,0c3.672,4.574,3.65,39.408,0.256,44.353
			C361.355,40.719,361.02,8.283,365.043,0z"/>
	</g>
	<g>
		<path fill-rule="evenodd" clip-rule="evenodd" fill="#006837" d="M357.043,0c3.672,4.574,3.65,39.408,0.256,44.353
			C353.355,40.719,353.02,8.283,357.043,0z"/>
	</g>
	<g>
		<path fill-rule="evenodd" clip-rule="evenodd" fill="#006837" d="M349.043,0c3.672,4.574,3.65,39.408,0.256,44.353
			C345.355,40.719,345.02,8.283,349.043,0z"/>
	</g>
	<g>
		<path fill-rule="evenodd" clip-rule="evenodd" fill="#006837" d="M341.043,0c3.672,4.574,3.65,39.408,0.256,44.353
			C337.355,40.719,337.02,8.283,341.043,0z"/>
	</g>
	<g>
		<path fill-rule="evenodd" clip-rule="evenodd" fill="#006837" d="M333.043,0c3.672,4.574,3.65,39.408,0.256,44.353
			C329.355,40.719,329.02,8.283,333.043,0z"/>
	</g>
	<g>
		<path fill-rule="evenodd" clip-rule="evenodd" fill="#006837" d="M325.043,0c3.672,4.574,3.65,39.408,0.256,44.353
			C321.355,40.719,321.02,8.283,325.043,0z"/>
	</g>
	<g>
		<path fill-rule="evenodd" clip-rule="evenodd" fill="#006837" d="M317.043,0c3.672,4.574,3.65,39.408,0.256,44.353
			C313.355,40.719,313.02,8.283,317.043,0z"/>
	</g>
	<g>
		<path fill-rule="evenodd" clip-rule="evenodd" fill="#006837" d="M309.043,0c3.672,4.574,3.65,39.408,0.256,44.353
			C305.355,40.719,305.02,8.283,309.043,0z"/>
	</g>
	<g>
		<path fill-rule="evenodd" clip-rule="evenodd" fill="#006837" d="M301.043,0c3.672,4.574,3.65,39.408,0.256,44.353
			C297.355,40.719,297.02,8.283,301.043,0z"/>
	</g>
	<g>
		<path fill-rule="evenodd" clip-rule="evenodd" fill="#006837" d="M293.043,0c3.672,4.574,3.65,39.408,0.256,44.353
			C289.355,40.719,289.02,8.283,293.043,0z"/>
	</g>
	<g>
		<path fill-rule="evenodd" clip-rule="evenodd" fill="#006837" d="M285.043,0c3.672,4.574,3.65,39.408,0.256,44.353
			C281.355,40.719,281.02,8.283,285.043,0z"/>
	</g>
	<g>
		<path fill-rule="evenodd" clip-rule="evenodd" fill="#006837" d="M277.043,0c3.672,4.574,3.65,39.408,0.256,44.353
			C273.355,40.719,273.02,8.283,277.043,0z"/>
	</g>
	<g>
		<path fill-rule="evenodd" clip-rule="evenodd" fill="#006837" d="M269.043,0c3.672,4.574,3.65,39.408,0.256,44.353
			C265.355,40.719,265.02,8.283,269.043,0z"/>
	</g>
	<g>
		<path fill-rule="evenodd" clip-rule="evenodd" fill="#006837" d="M261.043,0c3.672,4.574,3.65,39.408,0.256,44.353
			C257.355,40.719,257.02,8.283,261.043,0z"/>
	</g>
	<g>
		<path fill-rule="evenodd" clip-rule="evenodd" fill="#006837" d="M253.043,0c3.672,4.574,3.65,39.408,0.256,44.353
			C249.355,40.719,249.02,8.283,253.043,0z"/>
	</g>
	<g>
		<path fill-rule="evenodd" clip-rule="evenodd" fill="#006837" d="M245.043,0c3.672,4.574,3.65,39.408,0.256,44.353
			C241.355,40.719,241.02,8.283,245.043,0z"/>
	</g>
	<g>
		<path fill-rule="evenodd" clip-rule="evenodd" fill="#006837" d="M237.043,0c3.672,4.574,3.65,39.408,0.256,44.353
			C233.355,40.719,233.02,8.283,237.043,0z"/>
	</g>
	<g>
		<path fill-rule="evenodd" clip-rule="evenodd" fill="#006837" d="M229.043,0c3.672,4.574,3.65,39.408,0.256,44.353
			C225.355,40.719,225.02,8.283,229.043,0z"/>
	</g>
	<g>
		<path fill-rule="evenodd" clip-rule="evenodd" fill="#006837" d="M221.043,0c3.672,4.574,3.65,39.408,0.256,44.353
			C217.355,40.719,217.02,8.283,221.043,0z"/>
	</g>
	<g>
		<path fill-rule="evenodd" clip-rule="evenodd" fill="#006837" d="M213.043,0c3.672,4.574,3.65,39.408,0.256,44.353
			C209.355,40.719,209.02,8.283,213.043,0z"/>
	</g>
	<g>
		<path fill-rule="evenodd" clip-rule="evenodd" fill="#006837" d="M205.043,0c3.672,4.574,3.65,39.408,0.256,44.353
			C201.355,40.719,201.02,8.283,205.043,0z"/>
	</g>
	<g>
		<path fill-rule="evenodd" clip-rule="evenodd" fill="#006837" d="M197.043,0c3.672,4.574,3.65,39.408,0.256,44.353
			C193.355,40.719,193.02,8.283,197.043,0z"/>
	</g>
	<g>
		<path fill-rule="evenodd" clip-rule="evenodd" fill="#006837" d="M189.043,0c3.672,4.574,3.65,39.408,0.256,44.353
			C185.355,40.719,185.02,8.283,189.043,0z"/>
	</g>
	<g>
		<path fill-rule="evenodd" clip-rule="evenodd" fill="#006837" d="M181.043,0c3.672,4.574,3.65,39.408,0.256,44.353
			C177.355,40.719,177.02,8.283,181.043,0z"/>
	</g>
	<g>
		<path fill-rule="evenodd" clip-rule="evenodd" fill="#006837" d="M173.043,0c3.672,4.574,3.65,39.408,0.256,44.353
			C169.355,40.719,169.02,8.283,173.043,0z"/>
	</g>
	<g>
		<path fill-rule="evenodd" clip-rule="evenodd" fill="#006837" d="M165.043,0c3.672,4.574,3.65,39.408,0.256,44.353
			C161.355,40.719,161.02,8.283,165.043,0z"/>
	</g>
	<g>
		<path fill-rule="evenodd" clip-rule="evenodd" fill="#006837" d="M157.043,0c3.672,4.574,3.65,39.408,0.256,44.353
			C153.355,40.719,153.02,8.283,157.043,0z"/>
	</g>
	<g>
		<path fill-rule="evenodd" clip-rule="evenodd" fill="#006837" d="M149.043,0c3.672,4.574,3.65,39.408,0.256,44.353
			C145.355,40.719,145.02,8.283,149.043,0z"/>
	</g>
	<g>
		<path fill-rule="evenodd" clip-rule="evenodd" fill="#006837" d="M141.043,0c3.672,4.574,3.65,39.408,0.256,44.353
			C137.355,40.719,137.02,8.283,141.043,0z"/>
	</g>
	<g>
		<path fill-rule="evenodd" clip-rule="evenodd" fill="#006837" d="M133.043,0c3.672,4.574,3.65,39.408,0.256,44.353
			C129.355,40.719,129.02,8.283,133.043,0z"/>
	</g>
	<g>
		<path fill-rule="evenodd" clip-rule="evenodd" fill="#006837" d="M125.043,0c3.672,4.574,3.65,39.408,0.256,44.353
			C121.355,40.719,121.02,8.283,125.043,0z"/>
	</g>
	<g>
		<path fill-rule="evenodd" clip-rule="evenodd" fill="#006837" d="M117.043,0c3.672,4.574,3.65,39.408,0.256,44.353
			C113.355,40.719,113.02,8.283,117.043,0z"/>
	</g>
	<g>
		<path fill-rule="evenodd" clip-rule="evenodd" fill="#006837" d="M109.043,0c3.672,4.574,3.65,39.408,0.256,44.353
			C105.355,40.719,105.02,8.283,109.043,0z"/>
	</g>
	<g>
		<path fill-rule="evenodd" clip-rule="evenodd" fill="#006837" d="M101.043,0c3.672,4.574,3.65,39.408,0.256,44.353
			C97.355,40.719,97.02,8.283,101.043,0z"/>
	</g>
	<g>
		<path fill-rule="evenodd" clip-rule="evenodd" fill="#006837" d="M93.043,0c3.672,4.574,3.65,39.408,0.256,44.353
			C89.355,40.719,89.02,8.283,93.043,0z"/>
	</g>
	<g>
		<path fill-rule="evenodd" clip-rule="evenodd" fill="#006837" d="M85.043,0c3.672,4.574,3.65,39.408,0.256,44.353
			C81.355,40.719,81.02,8.283,85.043,0z"/>
	</g>
	<g>
		<path fill-rule="evenodd" clip-rule="evenodd" fill="#006837" d="M77.043,0c3.672,4.574,3.65,39.408,0.256,44.353
			C73.355,40.719,73.02,8.283,77.043,0z"/>
	</g>
	<g>
		<path fill-rule="evenodd" clip-rule="evenodd" fill="#006837" d="M69.043,0c3.672,4.574,3.65,39.408,0.256,44.353
			C65.355,40.719,65.02,8.283,69.043,0z"/>
	</g>
	<g>
		<path fill-rule="evenodd" clip-rule="evenodd" fill="#006837" d="M61.043,0c3.672,4.574,3.65,39.408,0.256,44.353
			C57.355,40.719,57.02,8.283,61.043,0z"/>
	</g>
	<g>
		<path fill-rule="evenodd" clip-rule="evenodd" fill="#006837" d="M53.043,0c3.672,4.574,3.65,39.408,0.256,44.353
			C49.355,40.719,49.02,8.283,53.043,0z"/>
	</g>
	<g>
		<path fill-rule="evenodd" clip-rule="evenodd" fill="#006837" d="M45.043,0c3.672,4.574,3.65,39.408,0.256,44.353
			C41.355,40.719,41.02,8.283,45.043,0z"/>
	</g>
	<g>
		<path fill-rule="evenodd" clip-rule="evenodd" fill="#006837" d="M37.043,0c3.672,4.574,3.65,39.408,0.256,44.353
			C33.355,40.719,33.02,8.283,37.043,0z"/>
	</g>
	<g>
		<path fill-rule="evenodd" clip-rule="evenodd" fill="#006837" d="M29.043,0c3.672,4.574,3.65,39.408,0.256,44.353
			C25.355,40.719,25.02,8.283,29.043,0z"/>
	</g>
	<g>
		<path fill-rule="evenodd" clip-rule="evenodd" fill="#006837" d="M21.043,0c3.672,4.574,3.65,39.408,0.256,44.353
			C17.355,40.719,17.02,8.283,21.043,0z"/>
	</g>
	<g>
		<path fill-rule="evenodd" clip-rule="evenodd" fill="#006837" d="M13.043,0c3.672,4.574,3.65,39.408,0.256,44.353
			C9.355,40.719,9.02,8.283,13.043,0z"/>
	</g>
	<g>
		<path fill-rule="evenodd" clip-rule="evenodd" fill="#006837" d="M5.043,0c3.672,4.574,3.65,39.408,0.256,44.353
			C1.355,40.719,1.02,8.283,5.043,0z"/>
	</g>
</g>
<g>
	<g>
		<path fill-rule="evenodd" clip-rule="evenodd" fill="#006837" d="M754.25,0c3.672,4.574,3.65,39.408,0.256,44.353
			C750.563,40.719,750.227,8.283,754.25,0z"/>
	</g>
	<g>
		<path fill-rule="evenodd" clip-rule="evenodd" fill="#006837" d="M746.25,0c3.672,4.574,3.65,39.408,0.256,44.353
			C742.563,40.719,742.227,8.283,746.25,0z"/>
	</g>
	<g>
		<path fill-rule="evenodd" clip-rule="evenodd" fill="#006837" d="M738.25,0c3.672,4.574,3.65,39.408,0.256,44.353
			C734.563,40.719,734.227,8.283,738.25,0z"/>
	</g>
	<g>
		<path fill-rule="evenodd" clip-rule="evenodd" fill="#006837" d="M730.25,0c3.672,4.574,3.65,39.408,0.256,44.353
			C726.563,40.719,726.227,8.283,730.25,0z"/>
	</g>
	<g>
		<path fill-rule="evenodd" clip-rule="evenodd" fill="#006837" d="M722.25,0c3.672,4.574,3.65,39.408,0.256,44.353
			C718.563,40.719,718.227,8.283,722.25,0z"/>
	</g>
	<g>
		<path fill-rule="evenodd" clip-rule="evenodd" fill="#006837" d="M714.25,0c3.672,4.574,3.65,39.408,0.256,44.353
			C710.563,40.719,710.227,8.283,714.25,0z"/>
	</g>
	<g>
		<path fill-rule="evenodd" clip-rule="evenodd" fill="#006837" d="M706.25,0c3.672,4.574,3.65,39.408,0.256,44.353
			C702.563,40.719,702.227,8.283,706.25,0z"/>
	</g>
	<g>
		<path fill-rule="evenodd" clip-rule="evenodd" fill="#006837" d="M698.25,0c3.672,4.574,3.65,39.408,0.256,44.353
			C694.563,40.719,694.227,8.283,698.25,0z"/>
	</g>
	<g>
		<path fill-rule="evenodd" clip-rule="evenodd" fill="#006837" d="M690.25,0c3.672,4.574,3.65,39.408,0.256,44.353
			C686.563,40.719,686.227,8.283,690.25,0z"/>
	</g>
	<g>
		<path fill-rule="evenodd" clip-rule="evenodd" fill="#006837" d="M682.25,0c3.672,4.574,3.65,39.408,0.256,44.353
			C678.563,40.719,678.227,8.283,682.25,0z"/>
	</g>
	<g>
		<path fill-rule="evenodd" clip-rule="evenodd" fill="#006837" d="M674.25,0c3.672,4.574,3.65,39.408,0.256,44.353
			C670.563,40.719,670.227,8.283,674.25,0z"/>
	</g>
	<g>
		<path fill-rule="evenodd" clip-rule="evenodd" fill="#006837" d="M666.25,0c3.672,4.574,3.65,39.408,0.256,44.353
			C662.563,40.719,662.227,8.283,666.25,0z"/>
	</g>
	<g>
		<path fill-rule="evenodd" clip-rule="evenodd" fill="#006837" d="M658.25,0c3.672,4.574,3.65,39.408,0.256,44.353
			C654.563,40.719,654.227,8.283,658.25,0z"/>
	</g>
	<g>
		<path fill-rule="evenodd" clip-rule="evenodd" fill="#006837" d="M650.25,0c3.672,4.574,3.65,39.408,0.256,44.353
			C646.563,40.719,646.227,8.283,650.25,0z"/>
	</g>
	<g>
		<path fill-rule="evenodd" clip-rule="evenodd" fill="#006837" d="M642.25,0c3.672,4.574,3.65,39.408,0.256,44.353
			C638.563,40.719,638.227,8.283,642.25,0z"/>
	</g>
	<g>
		<path fill-rule="evenodd" clip-rule="evenodd" fill="#006837" d="M634.25,0c3.672,4.574,3.65,39.408,0.256,44.353
			C630.563,40.719,630.227,8.283,634.25,0z"/>
	</g>
	<g>
		<path fill-rule="evenodd" clip-rule="evenodd" fill="#006837" d="M626.25,0c3.672,4.574,3.65,39.408,0.256,44.353
			C622.563,40.719,622.227,8.283,626.25,0z"/>
	</g>
	<g>
		<path fill-rule="evenodd" clip-rule="evenodd" fill="#006837" d="M618.25,0c3.672,4.574,3.65,39.408,0.256,44.353
			C614.563,40.719,614.227,8.283,618.25,0z"/>
	</g>
	<g>
		<path fill-rule="evenodd" clip-rule="evenodd" fill="#006837" d="M610.25,0c3.672,4.574,3.65,39.408,0.256,44.353
			C606.563,40.719,606.227,8.283,610.25,0z"/>
	</g>
	<g>
		<path fill-rule="evenodd" clip-rule="evenodd" fill="#006837" d="M602.25,0c3.672,4.574,3.65,39.408,0.256,44.353
			C598.563,40.719,598.227,8.283,602.25,0z"/>
	</g>
	<g>
		<path fill-rule="evenodd" clip-rule="evenodd" fill="#006837" d="M594.25,0c3.672,4.574,3.65,39.408,0.256,44.353
			C590.563,40.719,590.227,8.283,594.25,0z"/>
	</g>
	<g>
		<path fill-rule="evenodd" clip-rule="evenodd" fill="#006837" d="M586.25,0c3.672,4.574,3.65,39.408,0.256,44.353
			C582.563,40.719,582.227,8.283,586.25,0z"/>
	</g>
	<g>
		<path fill-rule="evenodd" clip-rule="evenodd" fill="#006837" d="M578.25,0c3.672,4.574,3.65,39.408,0.256,44.353
			C574.563,40.719,574.227,8.283,578.25,0z"/>
	</g>
	<g>
		<path fill-rule="evenodd" clip-rule="evenodd" fill="#006837" d="M570.25,0c3.672,4.574,3.65,39.408,0.256,44.353
			C566.563,40.719,566.227,8.283,570.25,0z"/>
	</g>
	<g>
		<path fill-rule="evenodd" clip-rule="evenodd" fill="#006837" d="M562.25,0c3.672,4.574,3.65,39.408,0.256,44.353
			C558.563,40.719,558.227,8.283,562.25,0z"/>
	</g>
</g>
</svg>
