<?xml version="1.0" encoding="utf-8"?>
<!-- Generator: Adobe Illustrator 16.0.3, SVG Export Plug-In . SVG Version: 6.00 Build 0)  -->
<!DOCTYPE svg PUBLIC "-//W3C//DTD SVG 1.1//EN" "http://www.w3.org/Graphics/SVG/1.1/DTD/svg11.dtd">
<svg version="1.1" id="Layer_1" xmlns="http://www.w3.org/2000/svg" xmlns:xlink="http://www.w3.org/1999/xlink" x="0px" y="0px"
	 width="760px" height="136.367px" viewBox="0 0 760 136.367" enable-background="new 0 0 760 136.367" xml:space="preserve">
<line fill-rule="evenodd" clip-rule="evenodd" fill="#006837" stroke="#000000" stroke-width="2" stroke-miterlimit="10" x1="5" y1="65.771" x2="759" y2="65.771"/>
<line fill-rule="evenodd" clip-rule="evenodd" fill="#006837" stroke="#000000" stroke-width="2" stroke-miterlimit="10" x1="5" y1="57.771" x2="5" y2="70.771"/>
<line fill-rule="evenodd" clip-rule="evenodd" fill="#006837" stroke="#000000" stroke-width="2" stroke-miterlimit="10" x1="759" y1="57.771" x2="759" y2="70.771"/>
<line fill-rule="evenodd" clip-rule="evenodd" fill="#006837" stroke="#000000" stroke-width="2" stroke-miterlimit="10" x1="105" y1="58.771" x2="105" y2="71.771"/>
<line fill-rule="evenodd" clip-rule="evenodd" fill="#006837" stroke="#000000" stroke-width="2" stroke-miterlimit="10" x1="205" y1="58.771" x2="205" y2="71.771"/>
<line fill-rule="evenodd" clip-rule="evenodd" fill="#006837" stroke="#000000" stroke-width="2" stroke-miterlimit="10" x1="305" y1="57.771" x2="305" y2="70.771"/>
<line fill-rule="evenodd" clip-rule="evenodd" fill="#006837" stroke="#000000" stroke-width="2" stroke-miterlimit="10" x1="405" y1="57.771" x2="405" y2="70.771"/>
<line fill-rule="evenodd" clip-rule="evenodd" fill="#006837" stroke="#000000" stroke-width="2" stroke-miterlimit="10" x1="505" y1="58.771" x2="505" y2="71.771"/>
<line fill-rule="evenodd" clip-rule="evenodd" fill="#006837" stroke="#000000" stroke-width="2" stroke-miterlimit="10" x1="606" y1="58.771" x2="606" y2="71.771"/>
<line fill-rule="evenodd" clip-rule="evenodd" fill="#006837" stroke="#000000" stroke-width="2" stroke-miterlimit="10" x1="705" y1="58.771" x2="705" y2="71.771"/>
<text transform="matrix(1 0 0 1 100 90.7715)" font-family="'MyriadPro-Regular'" font-size="18">1</text>
<text transform="matrix(1 0 0 1 200 90.7715)" font-family="'MyriadPro-Regular'" font-size="18">2</text>
<text transform="matrix(1 0 0 1 299 90.7715)" font-family="'MyriadPro-Regular'" font-size="18">3</text>
<text transform="matrix(1 0 0 1 400 90.7715)" font-family="'MyriadPro-Regular'" font-size="18">4</text>
<text transform="matrix(1 0 0 1 500 90.7715)" font-family="'MyriadPro-Regular'" font-size="18">5</text>
<text transform="matrix(1 0 0 1 601 90.7715)" font-family="'MyriadPro-Regular'" font-size="18">6</text>
<text transform="matrix(1 0 0 1 699 90.7715)" font-family="'MyriadPro-Regular'" font-size="18">7</text>
<text transform="matrix(1 0 0 1 320 128.7715)" font-family="'HelveticaNeueLight'" font-size="36">Seconds</text>
<text transform="matrix(1 0 0 1 0 90.7715)" font-family="'MyriadPro-Regular'" font-size="18">0</text>
<g>
	<g>
		<path fill-rule="evenodd" clip-rule="evenodd" fill="#006837" d="M725.766,0.955c0.449,4.948,0.897,9.895,1.347,14.842
			c0.429,0.012,0.858,0.025,1.287,0.037c0.411-4.906,0.821-9.814,1.231-14.722c0.48-0.034,0.962-0.067,1.443-0.102
			c2,4.768,0.199,10.224,1.308,15.154c0.446,0.012,0.894,0.025,1.34,0.037c0.247-2.481,0.537-4.959,0.729-7.446
			c0.201-2.587,0.308-5.182,0.512-8.755c3.178,3.104,1.846,6.014,2.182,8.548c0.363,2.749,0.523,5.522,0.771,8.286
			c0.457,0.023,0.913,0.049,1.369,0.074c0.506-5.352,1.012-10.703,1.517-16.055c4.193,7.483,3.888,36.971-0.204,43.275
			c-0.566-6.452-1.039-11.845-1.511-17.237c-0.45-0.004-0.901-0.008-1.351-0.012c-0.228,5.477-0.455,10.955-0.682,16.433
			c-0.608,0.033-1.217,0.065-1.824,0.099c-0.276-2.574-0.557-5.15-0.826-7.727c-0.281-2.676-0.551-5.353-0.824-8.029
			c-0.406,0.012-0.813,0.023-1.218,0.035c-0.306,5.176-0.61,10.354-0.915,15.529c-0.616,0.004-1.231,0.008-1.846,0.012
			c-0.439-5.241-0.878-10.482-1.316-15.725c-0.408,0.014-0.816,0.027-1.225,0.041c-0.396,5.311-0.791,10.62-1.186,15.929
			c-0.385-0.059-0.769-0.117-1.152-0.177c-3.653-14.067-2.227-28.146-0.29-42.228C724.877,1.032,725.321,0.994,725.766,0.955z"/>
	</g>
	<g>
		<path fill-rule="evenodd" clip-rule="evenodd" fill="#006837" d="M689.766,0.955c0.449,4.948,0.897,9.895,1.347,14.842
			c0.429,0.012,0.858,0.025,1.287,0.037c0.411-4.906,0.821-9.814,1.231-14.722c0.48-0.034,0.962-0.067,1.443-0.102
			c2,4.768,0.199,10.224,1.308,15.154c0.446,0.012,0.894,0.025,1.34,0.037c0.247-2.481,0.537-4.959,0.729-7.446
			c0.201-2.587,0.308-5.182,0.512-8.755c3.178,3.104,1.846,6.014,2.182,8.548c0.363,2.749,0.523,5.522,0.771,8.286
			c0.457,0.023,0.913,0.049,1.369,0.074c0.506-5.352,1.012-10.703,1.517-16.055c4.193,7.483,3.888,36.971-0.204,43.275
			c-0.566-6.452-1.039-11.845-1.511-17.237c-0.45-0.004-0.901-0.008-1.351-0.012c-0.228,5.477-0.455,10.955-0.682,16.433
			c-0.608,0.033-1.217,0.065-1.824,0.099c-0.276-2.574-0.557-5.15-0.826-7.727c-0.281-2.676-0.551-5.353-0.824-8.029
			c-0.406,0.012-0.813,0.023-1.218,0.035c-0.306,5.176-0.61,10.354-0.915,15.529c-0.616,0.004-1.231,0.008-1.846,0.012
			c-0.439-5.241-0.878-10.482-1.316-15.725c-0.408,0.014-0.816,0.027-1.225,0.041c-0.396,5.311-0.791,10.62-1.186,15.929
			c-0.385-0.059-0.769-0.117-1.152-0.177c-3.653-14.067-2.227-28.146-0.29-42.228C688.877,1.032,689.321,0.994,689.766,0.955z"/>
	</g>
	<g>
		<path fill-rule="evenodd" clip-rule="evenodd" fill="#006837" d="M653.766,0.955c0.449,4.948,0.897,9.895,1.347,14.842
			c0.429,0.012,0.858,0.025,1.287,0.037c0.411-4.906,0.821-9.814,1.231-14.722c0.48-0.034,0.962-0.067,1.443-0.102
			c2,4.768,0.199,10.224,1.308,15.154c0.446,0.012,0.894,0.025,1.34,0.037c0.247-2.481,0.537-4.959,0.729-7.446
			c0.201-2.587,0.308-5.182,0.512-8.755c3.178,3.104,1.846,6.014,2.182,8.548c0.363,2.749,0.523,5.522,0.771,8.286
			c0.457,0.023,0.913,0.049,1.369,0.074c0.506-5.352,1.012-10.703,1.517-16.055c4.193,7.483,3.888,36.971-0.204,43.275
			c-0.566-6.452-1.039-11.845-1.511-17.237c-0.45-0.004-0.901-0.008-1.351-0.012c-0.228,5.477-0.455,10.955-0.682,16.433
			c-0.608,0.033-1.217,0.065-1.824,0.099c-0.276-2.574-0.557-5.15-0.826-7.727c-0.281-2.676-0.551-5.353-0.824-8.029
			c-0.406,0.012-0.813,0.023-1.218,0.035c-0.306,5.176-0.61,10.354-0.915,15.529c-0.616,0.004-1.231,0.008-1.846,0.012
			c-0.439-5.241-0.878-10.482-1.316-15.725c-0.408,0.014-0.816,0.027-1.225,0.041c-0.396,5.311-0.791,10.62-1.186,15.929
			c-0.385-0.059-0.769-0.117-1.152-0.177c-3.653-14.067-2.227-28.146-0.29-42.228C652.877,1.032,653.321,0.994,653.766,0.955z"/>
	</g>
	<g>
		<path fill-rule="evenodd" clip-rule="evenodd" fill="#006837" d="M617.766,0.955c0.449,4.948,0.897,9.895,1.347,14.842
			c0.429,0.012,0.858,0.025,1.287,0.037c0.411-4.906,0.821-9.814,1.231-14.722c0.48-0.034,0.962-0.067,1.443-0.102
			c2,4.768,0.199,10.224,1.308,15.154c0.446,0.012,0.894,0.025,1.34,0.037c0.247-2.481,0.537-4.959,0.729-7.446
			c0.201-2.587,0.308-5.182,0.512-8.755c3.178,3.104,1.846,6.014,2.182,8.548c0.363,2.749,0.523,5.522,0.771,8.286
			c0.457,0.023,0.913,0.049,1.369,0.074c0.506-5.352,1.012-10.703,1.517-16.055c4.193,7.483,3.888,36.971-0.204,43.275
			c-0.566-6.452-1.039-11.845-1.511-17.237c-0.45-0.004-0.901-0.008-1.351-0.012c-0.228,5.477-0.455,10.955-0.682,16.433
			c-0.608,0.033-1.217,0.065-1.824,0.099c-0.276-2.574-0.557-5.15-0.826-7.727c-0.281-2.676-0.551-5.353-0.824-8.029
			c-0.406,0.012-0.813,0.023-1.218,0.035c-0.306,5.176-0.61,10.354-0.915,15.529c-0.616,0.004-1.231,0.008-1.846,0.012
			c-0.439-5.241-0.878-10.482-1.316-15.725c-0.408,0.014-0.816,0.027-1.225,0.041c-0.396,5.311-0.791,10.62-1.186,15.929
			c-0.385-0.059-0.769-0.117-1.152-0.177c-3.653-14.067-2.227-28.146-0.29-42.228C616.877,1.032,617.321,0.994,617.766,0.955z"/>
	</g>
	<g>
		<path fill-rule="evenodd" clip-rule="evenodd" fill="#006837" d="M581.766,0.955c0.449,4.948,0.897,9.895,1.347,14.842
			c0.429,0.012,0.858,0.025,1.287,0.037c0.411-4.906,0.821-9.814,1.231-14.722c0.48-0.034,0.962-0.067,1.443-0.102
			c2,4.768,0.199,10.224,1.308,15.154c0.446,0.012,0.894,0.025,1.34,0.037c0.247-2.481,0.537-4.959,0.729-7.446
			c0.201-2.587,0.308-5.182,0.512-8.755c3.178,3.104,1.846,6.014,2.182,8.548c0.363,2.749,0.523,5.522,0.771,8.286
			c0.457,0.023,0.913,0.049,1.369,0.074c0.506-5.352,1.012-10.703,1.517-16.055c4.193,7.483,3.888,36.971-0.204,43.275
			c-0.566-6.452-1.039-11.845-1.511-17.237c-0.45-0.004-0.901-0.008-1.351-0.012c-0.228,5.477-0.455,10.955-0.682,16.433
			c-0.608,0.033-1.217,0.065-1.824,0.099c-0.276-2.574-0.557-5.15-0.826-7.727c-0.281-2.676-0.551-5.353-0.824-8.029
			c-0.406,0.012-0.813,0.023-1.218,0.035c-0.306,5.176-0.61,10.354-0.915,15.529c-0.616,0.004-1.231,0.008-1.846,0.012
			c-0.439-5.241-0.878-10.482-1.316-15.725c-0.408,0.014-0.816,0.027-1.225,0.041c-0.396,5.311-0.791,10.62-1.186,15.929
			c-0.385-0.059-0.769-0.117-1.152-0.177c-3.653-14.067-2.227-28.146-0.29-42.228C580.877,1.032,581.321,0.994,581.766,0.955z"/>
	</g>
	<g>
		<path fill-rule="evenodd" clip-rule="evenodd" fill="#006837" d="M545.766,0.955c0.449,4.948,0.897,9.895,1.347,14.842
			c0.429,0.012,0.858,0.025,1.287,0.037c0.411-4.906,0.821-9.814,1.231-14.722c0.48-0.034,0.962-0.067,1.443-0.102
			c2,4.768,0.199,10.224,1.308,15.154c0.446,0.012,0.894,0.025,1.34,0.037c0.247-2.481,0.537-4.959,0.729-7.446
			c0.201-2.587,0.308-5.182,0.512-8.755c3.178,3.104,1.846,6.014,2.182,8.548c0.363,2.749,0.523,5.522,0.771,8.286
			c0.457,0.023,0.913,0.049,1.369,0.074c0.506-5.352,1.012-10.703,1.517-16.055c4.193,7.483,3.888,36.971-0.204,43.275
			c-0.566-6.452-1.039-11.845-1.511-17.237c-0.45-0.004-0.901-0.008-1.351-0.012c-0.228,5.477-0.455,10.955-0.682,16.433
			c-0.608,0.033-1.217,0.065-1.824,0.099c-0.276-2.574-0.557-5.15-0.826-7.727c-0.281-2.676-0.551-5.353-0.824-8.029
			c-0.406,0.012-0.813,0.023-1.218,0.035c-0.306,5.176-0.61,10.354-0.915,15.529c-0.616,0.004-1.231,0.008-1.846,0.012
			c-0.439-5.241-0.878-10.482-1.316-15.725c-0.408,0.014-0.816,0.027-1.225,0.041c-0.396,5.311-0.791,10.62-1.186,15.929
			c-0.385-0.059-0.769-0.117-1.152-0.177c-3.653-14.067-2.227-28.146-0.29-42.228C544.877,1.032,545.321,0.994,545.766,0.955z"/>
	</g>
	<g>
		<path fill-rule="evenodd" clip-rule="evenodd" fill="#006837" d="M509.766,0.955c0.449,4.948,0.897,9.895,1.347,14.842
			c0.429,0.012,0.858,0.025,1.287,0.037c0.411-4.906,0.821-9.814,1.231-14.722c0.48-0.034,0.962-0.067,1.443-0.102
			c2,4.768,0.199,10.224,1.308,15.154c0.446,0.012,0.894,0.025,1.34,0.037c0.247-2.481,0.537-4.959,0.729-7.446
			c0.201-2.587,0.308-5.182,0.512-8.755c3.178,3.104,1.846,6.014,2.182,8.548c0.363,2.749,0.523,5.522,0.771,8.286
			c0.457,0.023,0.913,0.049,1.369,0.074c0.506-5.352,1.012-10.703,1.517-16.055c4.193,7.483,3.888,36.971-0.204,43.275
			c-0.566-6.452-1.039-11.845-1.511-17.237c-0.45-0.004-0.901-0.008-1.351-0.012c-0.228,5.477-0.455,10.955-0.682,16.433
			c-0.608,0.033-1.217,0.065-1.824,0.099c-0.276-2.574-0.557-5.15-0.826-7.727c-0.281-2.676-0.551-5.353-0.824-8.029
			c-0.406,0.012-0.813,0.023-1.218,0.035c-0.306,5.176-0.61,10.354-0.915,15.529c-0.616,0.004-1.231,0.008-1.846,0.012
			c-0.439-5.241-0.878-10.482-1.316-15.725c-0.408,0.014-0.816,0.027-1.225,0.041c-0.396,5.311-0.791,10.62-1.186,15.929
			c-0.385-0.059-0.769-0.117-1.152-0.177c-3.653-14.067-2.227-28.146-0.29-42.228C508.877,1.032,509.321,0.994,509.766,0.955z"/>
	</g>
	<g>
		<path fill-rule="evenodd" clip-rule="evenodd" fill="#006837" d="M473.766,0.955c0.449,4.948,0.897,9.895,1.347,14.842
			c0.429,0.012,0.858,0.025,1.287,0.037c0.411-4.906,0.821-9.814,1.231-14.722c0.48-0.034,0.962-0.067,1.443-0.102
			c2,4.768,0.199,10.224,1.308,15.154c0.446,0.012,0.894,0.025,1.34,0.037c0.247-2.481,0.537-4.959,0.729-7.446
			c0.201-2.587,0.308-5.182,0.512-8.755c3.178,3.104,1.846,6.014,2.182,8.548c0.363,2.749,0.523,5.522,0.771,8.286
			c0.457,0.023,0.913,0.049,1.369,0.074c0.506-5.352,1.012-10.703,1.517-16.055c4.193,7.483,3.888,36.971-0.204,43.275
			c-0.566-6.452-1.039-11.845-1.511-17.237c-0.45-0.004-0.901-0.008-1.351-0.012c-0.228,5.477-0.455,10.955-0.682,16.433
			c-0.608,0.033-1.217,0.065-1.824,0.099c-0.276-2.574-0.557-5.15-0.826-7.727c-0.281-2.676-0.551-5.353-0.824-8.029
			c-0.406,0.012-0.813,0.023-1.218,0.035c-0.306,5.176-0.61,10.354-0.915,15.529c-0.616,0.004-1.231,0.008-1.846,0.012
			c-0.439-5.241-0.878-10.482-1.316-15.725c-0.408,0.014-0.816,0.027-1.225,0.041c-0.396,5.311-0.791,10.62-1.186,15.929
			c-0.385-0.059-0.769-0.117-1.152-0.177c-3.653-14.067-2.227-28.146-0.29-42.228C472.877,1.032,473.321,0.994,473.766,0.955z"/>
	</g>
	<g>
		<path fill-rule="evenodd" clip-rule="evenodd" fill="#006837" d="M437.766,0.955c0.449,4.948,0.897,9.895,1.347,14.842
			c0.429,0.012,0.858,0.025,1.287,0.037c0.411-4.906,0.821-9.814,1.231-14.722c0.48-0.034,0.962-0.067,1.443-0.102
			c2,4.768,0.199,10.224,1.308,15.154c0.446,0.012,0.894,0.025,1.34,0.037c0.247-2.481,0.537-4.959,0.729-7.446
			c0.201-2.587,0.308-5.182,0.512-8.755c3.178,3.104,1.846,6.014,2.182,8.548c0.363,2.749,0.523,5.522,0.771,8.286
			c0.457,0.023,0.913,0.049,1.369,0.074c0.506-5.352,1.012-10.703,1.517-16.055c4.193,7.483,3.888,36.971-0.204,43.275
			c-0.566-6.452-1.039-11.845-1.511-17.237c-0.45-0.004-0.901-0.008-1.351-0.012c-0.228,5.477-0.455,10.955-0.682,16.433
			c-0.608,0.033-1.217,0.065-1.824,0.099c-0.276-2.574-0.557-5.15-0.826-7.727c-0.281-2.676-0.551-5.353-0.824-8.029
			c-0.406,0.012-0.813,0.023-1.218,0.035c-0.306,5.176-0.61,10.354-0.915,15.529c-0.616,0.004-1.231,0.008-1.846,0.012
			c-0.439-5.241-0.878-10.482-1.316-15.725c-0.408,0.014-0.816,0.027-1.225,0.041c-0.396,5.311-0.791,10.62-1.186,15.929
			c-0.385-0.059-0.769-0.117-1.152-0.177c-3.653-14.067-2.227-28.146-0.29-42.228C436.877,1.032,437.321,0.994,437.766,0.955z"/>
	</g>
	<g>
		<path fill-rule="evenodd" clip-rule="evenodd" fill="#006837" d="M401.766,0.955c0.449,4.948,0.897,9.895,1.347,14.842
			c0.429,0.012,0.858,0.025,1.287,0.037c0.411-4.906,0.821-9.814,1.231-14.722c0.48-0.034,0.962-0.067,1.443-0.102
			c2,4.768,0.199,10.224,1.308,15.154c0.446,0.012,0.894,0.025,1.34,0.037c0.247-2.481,0.537-4.959,0.729-7.446
			c0.201-2.587,0.308-5.182,0.512-8.755c3.178,3.104,1.846,6.014,2.182,8.548c0.363,2.749,0.523,5.522,0.771,8.286
			c0.457,0.023,0.913,0.049,1.369,0.074c0.506-5.352,1.012-10.703,1.517-16.055c4.193,7.483,3.888,36.971-0.204,43.275
			c-0.566-6.452-1.039-11.845-1.511-17.237c-0.45-0.004-0.901-0.008-1.351-0.012c-0.228,5.477-0.455,10.955-0.682,16.433
			c-0.608,0.033-1.217,0.065-1.824,0.099c-0.276-2.574-0.557-5.15-0.826-7.727c-0.281-2.676-0.551-5.353-0.824-8.029
			c-0.406,0.012-0.813,0.023-1.218,0.035c-0.306,5.176-0.61,10.354-0.915,15.529c-0.616,0.004-1.231,0.008-1.846,0.012
			c-0.439-5.241-0.878-10.482-1.316-15.725c-0.408,0.014-0.816,0.027-1.225,0.041c-0.396,5.311-0.791,10.62-1.186,15.929
			c-0.385-0.059-0.769-0.117-1.152-0.177c-3.653-14.067-2.227-28.146-0.29-42.228C400.877,1.032,401.321,0.994,401.766,0.955z"/>
	</g>
	<g>
		<path fill-rule="evenodd" clip-rule="evenodd" fill="#006837" d="M365.766,0.955c0.449,4.948,0.897,9.895,1.347,14.842
			c0.429,0.012,0.858,0.025,1.287,0.037c0.411-4.906,0.821-9.814,1.231-14.722c0.48-0.034,0.962-0.067,1.443-0.102
			c2,4.768,0.199,10.224,1.308,15.154c0.446,0.012,0.894,0.025,1.34,0.037c0.247-2.481,0.537-4.959,0.729-7.446
			c0.201-2.587,0.308-5.182,0.512-8.755c3.178,3.104,1.846,6.014,2.182,8.548c0.363,2.749,0.523,5.522,0.771,8.286
			c0.457,0.023,0.913,0.049,1.369,0.074c0.506-5.352,1.012-10.703,1.517-16.055c4.193,7.483,3.888,36.971-0.204,43.275
			c-0.566-6.452-1.039-11.845-1.511-17.237c-0.45-0.004-0.901-0.008-1.351-0.012c-0.228,5.477-0.455,10.955-0.682,16.433
			c-0.608,0.033-1.217,0.065-1.824,0.099c-0.276-2.574-0.557-5.15-0.826-7.727c-0.281-2.676-0.551-5.353-0.824-8.029
			c-0.406,0.012-0.813,0.023-1.218,0.035c-0.306,5.176-0.61,10.354-0.915,15.529c-0.616,0.004-1.231,0.008-1.846,0.012
			c-0.439-5.241-0.878-10.482-1.316-15.725c-0.408,0.014-0.816,0.027-1.225,0.041c-0.396,5.311-0.791,10.62-1.186,15.929
			c-0.385-0.059-0.769-0.117-1.152-0.177c-3.653-14.067-2.227-28.146-0.29-42.228C364.877,1.032,365.321,0.994,365.766,0.955z"/>
	</g>
	<g>
		<path fill-rule="evenodd" clip-rule="evenodd" fill="#006837" d="M329.766,0.955c0.449,4.948,0.897,9.895,1.347,14.842
			c0.429,0.012,0.858,0.025,1.287,0.037c0.411-4.906,0.821-9.814,1.231-14.722c0.48-0.034,0.962-0.067,1.443-0.102
			c2,4.768,0.199,10.224,1.308,15.154c0.446,0.012,0.894,0.025,1.34,0.037c0.247-2.481,0.537-4.959,0.729-7.446
			c0.201-2.587,0.308-5.182,0.512-8.755c3.178,3.104,1.846,6.014,2.182,8.548c0.363,2.749,0.523,5.522,0.771,8.286
			c0.457,0.023,0.913,0.049,1.369,0.074c0.506-5.352,1.012-10.703,1.517-16.055c4.193,7.483,3.888,36.971-0.204,43.275
			c-0.566-6.452-1.039-11.845-1.511-17.237c-0.45-0.004-0.901-0.008-1.351-0.012c-0.228,5.477-0.455,10.955-0.682,16.433
			c-0.608,0.033-1.217,0.065-1.824,0.099c-0.276-2.574-0.557-5.15-0.826-7.727c-0.281-2.676-0.551-5.353-0.824-8.029
			c-0.406,0.012-0.813,0.023-1.218,0.035c-0.306,5.176-0.61,10.354-0.915,15.529c-0.616,0.004-1.231,0.008-1.846,0.012
			c-0.439-5.241-0.878-10.482-1.316-15.725c-0.408,0.014-0.816,0.027-1.225,0.041c-0.396,5.311-0.791,10.62-1.186,15.929
			c-0.385-0.059-0.769-0.117-1.152-0.177c-3.653-14.067-2.227-28.146-0.29-42.228C328.877,1.032,329.321,0.994,329.766,0.955z"/>
	</g>
	<g>
		<path fill-rule="evenodd" clip-rule="evenodd" fill="#006837" d="M293.766,0.955c0.449,4.948,0.897,9.895,1.347,14.842
			c0.429,0.012,0.858,0.025,1.287,0.037c0.411-4.906,0.821-9.814,1.231-14.722c0.48-0.034,0.962-0.067,1.443-0.102
			c2,4.768,0.199,10.224,1.308,15.154c0.446,0.012,0.894,0.025,1.34,0.037c0.247-2.481,0.537-4.959,0.729-7.446
			c0.201-2.587,0.308-5.182,0.512-8.755c3.178,3.104,1.846,6.014,2.182,8.548c0.363,2.749,0.523,5.522,0.771,8.286
			c0.457,0.023,0.913,0.049,1.369,0.074c0.506-5.352,1.012-10.703,1.517-16.055c4.193,7.483,3.888,36.971-0.204,43.275
			c-0.566-6.452-1.039-11.845-1.511-17.237c-0.45-0.004-0.901-0.008-1.351-0.012c-0.228,5.477-0.455,10.955-0.682,16.433
			c-0.608,0.033-1.217,0.065-1.824,0.099c-0.276-2.574-0.557-5.15-0.826-7.727c-0.281-2.676-0.551-5.353-0.824-8.029
			c-0.406,0.012-0.813,0.023-1.218,0.035c-0.306,5.176-0.61,10.354-0.915,15.529c-0.616,0.004-1.231,0.008-1.846,0.012
			c-0.439-5.241-0.878-10.482-1.316-15.725c-0.408,0.014-0.816,0.027-1.225,0.041c-0.396,5.311-0.791,10.62-1.186,15.929
			c-0.385-0.059-0.769-0.117-1.152-0.177c-3.653-14.067-2.227-28.146-0.29-42.228C292.877,1.032,293.321,0.994,293.766,0.955z"/>
	</g>
	<g>
		<path fill-rule="evenodd" clip-rule="evenodd" fill="#006837" d="M257.766,0.955c0.449,4.948,0.897,9.895,1.347,14.842
			c0.429,0.012,0.858,0.025,1.287,0.037c0.411-4.906,0.821-9.814,1.231-14.722c0.48-0.034,0.962-0.067,1.443-0.102
			c2,4.768,0.199,10.224,1.308,15.154c0.446,0.012,0.894,0.025,1.34,0.037c0.247-2.481,0.537-4.959,0.729-7.446
			c0.201-2.587,0.308-5.182,0.512-8.755c3.178,3.104,1.846,6.014,2.182,8.548c0.363,2.749,0.523,5.522,0.771,8.286
			c0.457,0.023,0.913,0.049,1.369,0.074c0.506-5.352,1.012-10.703,1.517-16.055c4.193,7.483,3.888,36.971-0.204,43.275
			c-0.566-6.452-1.039-11.845-1.511-17.237c-0.45-0.004-0.901-0.008-1.351-0.012c-0.228,5.477-0.455,10.955-0.682,16.433
			c-0.608,0.033-1.217,0.065-1.824,0.099c-0.276-2.574-0.557-5.15-0.826-7.727c-0.281-2.676-0.551-5.353-0.824-8.029
			c-0.406,0.012-0.813,0.023-1.218,0.035c-0.306,5.176-0.61,10.354-0.915,15.529c-0.616,0.004-1.231,0.008-1.846,0.012
			c-0.439-5.241-0.878-10.482-1.316-15.725c-0.408,0.014-0.816,0.027-1.225,0.041c-0.396,5.311-0.791,10.62-1.186,15.929
			c-0.385-0.059-0.769-0.117-1.152-0.177c-3.653-14.067-2.227-28.146-0.29-42.228C256.877,1.032,257.321,0.994,257.766,0.955z"/>
	</g>
	<g>
		<path fill-rule="evenodd" clip-rule="evenodd" fill="#006837" d="M221.766,0.955c0.449,4.948,0.897,9.895,1.347,14.842
			c0.429,0.012,0.858,0.025,1.287,0.037c0.411-4.906,0.821-9.814,1.231-14.722c0.48-0.034,0.962-0.067,1.443-0.102
			c2,4.768,0.199,10.224,1.308,15.154c0.446,0.012,0.894,0.025,1.34,0.037c0.247-2.481,0.537-4.959,0.729-7.446
			c0.201-2.587,0.308-5.182,0.512-8.755c3.178,3.104,1.846,6.014,2.182,8.548c0.363,2.749,0.523,5.522,0.771,8.286
			c0.457,0.023,0.913,0.049,1.369,0.074c0.506-5.352,1.012-10.703,1.517-16.055c4.193,7.483,3.888,36.971-0.204,43.275
			c-0.566-6.452-1.039-11.845-1.511-17.237c-0.45-0.004-0.901-0.008-1.351-0.012c-0.228,5.477-0.455,10.955-0.682,16.433
			c-0.608,0.033-1.217,0.065-1.824,0.099c-0.276-2.574-0.557-5.15-0.826-7.727c-0.281-2.676-0.551-5.353-0.824-8.029
			c-0.406,0.012-0.813,0.023-1.218,0.035c-0.306,5.176-0.61,10.354-0.915,15.529c-0.616,0.004-1.231,0.008-1.846,0.012
			c-0.439-5.241-0.878-10.482-1.316-15.725c-0.408,0.014-0.816,0.027-1.225,0.041c-0.396,5.311-0.791,10.62-1.186,15.929
			c-0.385-0.059-0.769-0.117-1.152-0.177c-3.653-14.067-2.227-28.146-0.29-42.228C220.877,1.032,221.321,0.994,221.766,0.955z"/>
	</g>
	<g>
		<path fill-rule="evenodd" clip-rule="evenodd" fill="#006837" d="M185.766,0.955c0.449,4.948,0.897,9.895,1.347,14.842
			c0.429,0.012,0.858,0.025,1.287,0.037c0.411-4.906,0.821-9.814,1.231-14.722c0.48-0.034,0.962-0.067,1.443-0.102
			c2,4.768,0.199,10.224,1.308,15.154c0.446,0.012,0.894,0.025,1.34,0.037c0.247-2.481,0.537-4.959,0.729-7.446
			c0.201-2.587,0.308-5.182,0.512-8.755c3.178,3.104,1.846,6.014,2.182,8.548c0.363,2.749,0.523,5.522,0.771,8.286
			c0.457,0.023,0.913,0.049,1.369,0.074c0.506-5.352,1.012-10.703,1.517-16.055c4.193,7.483,3.888,36.971-0.204,43.275
			c-0.566-6.452-1.039-11.845-1.511-17.237c-0.45-0.004-0.901-0.008-1.351-0.012c-0.228,5.477-0.455,10.955-0.682,16.433
			c-0.608,0.033-1.217,0.065-1.824,0.099c-0.276-2.574-0.557-5.15-0.826-7.727c-0.281-2.676-0.551-5.353-0.824-8.029
			c-0.406,0.012-0.813,0.023-1.218,0.035c-0.306,5.176-0.61,10.354-0.915,15.529c-0.616,0.004-1.231,0.008-1.846,0.012
			c-0.439-5.241-0.878-10.482-1.316-15.725c-0.408,0.014-0.816,0.027-1.225,0.041c-0.396,5.311-0.791,10.62-1.186,15.929
			c-0.385-0.059-0.769-0.117-1.152-0.177c-3.653-14.067-2.227-28.146-0.29-42.228C184.877,1.032,185.321,0.994,185.766,0.955z"/>
	</g>
	<g>
		<path fill-rule="evenodd" clip-rule="evenodd" fill="#006837" d="M149.766,0.955c0.449,4.948,0.897,9.895,1.347,14.842
			c0.429,0.012,0.858,0.025,1.287,0.037c0.411-4.906,0.821-9.814,1.231-14.722c0.48-0.034,0.962-0.067,1.443-0.102
			c2,4.768,0.199,10.224,1.308,15.154c0.446,0.012,0.894,0.025,1.34,0.037c0.247-2.481,0.537-4.959,0.729-7.446
			c0.201-2.587,0.308-5.182,0.512-8.755c3.178,3.104,1.846,6.014,2.182,8.548c0.363,2.749,0.523,5.522,0.771,8.286
			c0.457,0.023,0.913,0.049,1.369,0.074c0.506-5.352,1.012-10.703,1.517-16.055c4.193,7.483,3.888,36.971-0.204,43.275
			c-0.566-6.452-1.039-11.845-1.511-17.237c-0.45-0.004-0.901-0.008-1.351-0.012c-0.228,5.477-0.455,10.955-0.682,16.433
			c-0.608,0.033-1.217,0.065-1.824,0.099c-0.276-2.574-0.557-5.15-0.826-7.727c-0.281-2.676-0.551-5.353-0.824-8.029
			c-0.406,0.012-0.813,0.023-1.218,0.035c-0.306,5.176-0.61,10.354-0.915,15.529c-0.616,0.004-1.231,0.008-1.846,0.012
			c-0.439-5.241-0.878-10.482-1.316-15.725c-0.408,0.014-0.816,0.027-1.225,0.041c-0.396,5.311-0.791,10.62-1.186,15.929
			c-0.385-0.059-0.769-0.117-1.152-0.177c-3.653-14.067-2.227-28.146-0.29-42.228C148.877,1.032,149.321,0.994,149.766,0.955z"/>
	</g>
	<g>
		<path fill-rule="evenodd" clip-rule="evenodd" fill="#006837" d="M113.766,0.955c0.449,4.948,0.897,9.895,1.347,14.842
			c0.429,0.012,0.858,0.025,1.287,0.037c0.411-4.906,0.821-9.814,1.231-14.722c0.48-0.034,0.962-0.067,1.443-0.102
			c2,4.768,0.199,10.224,1.308,15.154c0.446,0.012,0.894,0.025,1.34,0.037c0.247-2.481,0.537-4.959,0.729-7.446
			c0.201-2.587,0.308-5.182,0.512-8.755c3.178,3.104,1.846,6.014,2.182,8.548c0.363,2.749,0.523,5.522,0.771,8.286
			c0.457,0.023,0.913,0.049,1.369,0.074c0.506-5.352,1.012-10.703,1.517-16.055c4.193,7.483,3.888,36.971-0.204,43.275
			c-0.566-6.452-1.039-11.845-1.511-17.237c-0.45-0.004-0.901-0.008-1.351-0.012c-0.228,5.477-0.455,10.955-0.682,16.433
			c-0.608,0.033-1.217,0.065-1.824,0.099c-0.276-2.574-0.557-5.15-0.826-7.727c-0.281-2.676-0.551-5.353-0.824-8.029
			c-0.406,0.012-0.813,0.023-1.218,0.035c-0.306,5.176-0.61,10.354-0.915,15.529c-0.616,0.004-1.231,0.008-1.846,0.012
			c-0.439-5.241-0.878-10.482-1.316-15.725c-0.408,0.014-0.816,0.027-1.225,0.041c-0.396,5.311-0.791,10.62-1.186,15.929
			c-0.385-0.059-0.769-0.117-1.152-0.177c-3.653-14.067-2.227-28.146-0.29-42.228C112.877,1.032,113.321,0.994,113.766,0.955z"/>
	</g>
	<g>
		<path fill-rule="evenodd" clip-rule="evenodd" fill="#006837" d="M77.766,0.955c0.449,4.948,0.897,9.895,1.347,14.842
			c0.429,0.012,0.858,0.025,1.287,0.037c0.411-4.906,0.821-9.814,1.231-14.722c0.48-0.034,0.962-0.067,1.443-0.102
			c2,4.768,0.199,10.224,1.308,15.154c0.446,0.012,0.894,0.025,1.34,0.037c0.247-2.481,0.537-4.959,0.729-7.446
			C86.652,6.168,86.759,3.574,86.963,0c3.178,3.104,1.846,6.014,2.182,8.548c0.363,2.749,0.523,5.522,0.771,8.286
			c0.457,0.023,0.913,0.049,1.369,0.074c0.506-5.352,1.012-10.703,1.517-16.055c4.193,7.483,3.888,36.971-0.204,43.275
			c-0.566-6.452-1.039-11.845-1.511-17.237c-0.45-0.004-0.901-0.008-1.351-0.012c-0.228,5.477-0.455,10.955-0.682,16.433
			c-0.608,0.033-1.217,0.065-1.824,0.099c-0.276-2.574-0.557-5.15-0.826-7.727c-0.281-2.676-0.551-5.353-0.824-8.029
			c-0.406,0.012-0.813,0.023-1.218,0.035c-0.306,5.176-0.61,10.354-0.915,15.529c-0.616,0.004-1.231,0.008-1.846,0.012
			c-0.439-5.241-0.878-10.482-1.316-15.725c-0.408,0.014-0.816,0.027-1.225,0.041c-0.396,5.311-0.791,10.62-1.186,15.929
			c-0.385-0.059-0.769-0.117-1.152-0.177c-3.653-14.067-2.227-28.146-0.29-42.228C76.877,1.032,77.321,0.994,77.766,0.955z"/>
	</g>
	<g>
		<path fill-rule="evenodd" clip-rule="evenodd" fill="#006837" d="M41.766,0.955c0.449,4.948,0.897,9.895,1.347,14.842
			c0.429,0.012,0.858,0.025,1.287,0.037c0.411-4.906,0.821-9.814,1.231-14.722c0.48-0.034,0.962-0.067,1.443-0.102
			c2,4.768,0.199,10.224,1.308,15.154c0.446,0.012,0.894,0.025,1.34,0.037c0.247-2.481,0.537-4.959,0.729-7.446
			C50.652,6.168,50.759,3.574,50.963,0c3.178,3.104,1.846,6.014,2.182,8.548c0.363,2.749,0.523,5.522,0.771,8.286
			c0.457,0.023,0.913,0.049,1.369,0.074c0.506-5.352,1.012-10.703,1.517-16.055c4.193,7.483,3.888,36.971-0.204,43.275
			c-0.566-6.452-1.039-11.845-1.511-17.237c-0.45-0.004-0.901-0.008-1.351-0.012c-0.228,5.477-0.455,10.955-0.682,16.433
			c-0.608,0.033-1.217,0.065-1.824,0.099c-0.276-2.574-0.557-5.15-0.826-7.727c-0.281-2.676-0.551-5.353-0.824-8.029
			c-0.406,0.012-0.813,0.023-1.218,0.035c-0.306,5.176-0.61,10.354-0.915,15.529c-0.616,0.004-1.231,0.008-1.846,0.012
			c-0.439-5.241-0.878-10.482-1.316-15.725c-0.408,0.014-0.816,0.027-1.225,0.041c-0.396,5.311-0.791,10.62-1.186,15.929
			c-0.385-0.059-0.769-0.117-1.152-0.177c-3.653-14.067-2.227-28.146-0.29-42.228C40.877,1.032,41.321,0.994,41.766,0.955z"/>
	</g>
	<g>
		<path fill-rule="evenodd" clip-rule="evenodd" fill="#006837" d="M5.766,0.955c0.449,4.948,0.897,9.895,1.347,14.842
			c0.429,0.012,0.858,0.025,1.287,0.037C8.811,10.928,9.221,6.02,9.631,1.112c0.48-0.034,0.962-0.067,1.443-0.102
			c2,4.768,0.199,10.224,1.308,15.154c0.446,0.012,0.894,0.025,1.34,0.037c0.247-2.481,0.537-4.959,0.729-7.446
			C14.652,6.168,14.759,3.574,14.963,0c3.178,3.104,1.846,6.014,2.182,8.548c0.363,2.749,0.523,5.522,0.771,8.286
			c0.457,0.023,0.913,0.049,1.369,0.074c0.506-5.352,1.012-10.703,1.517-16.055c4.193,7.483,3.888,36.971-0.204,43.275
			c-0.566-6.452-1.039-11.845-1.511-17.237c-0.45-0.004-0.901-0.008-1.351-0.012c-0.228,5.477-0.455,10.955-0.682,16.433
			c-0.608,0.033-1.217,0.065-1.824,0.099c-0.276-2.574-0.557-5.15-0.826-7.727c-0.281-2.676-0.551-5.353-0.824-8.029
			c-0.406,0.012-0.813,0.023-1.218,0.035c-0.306,5.176-0.61,10.354-0.915,15.529c-0.616,0.004-1.231,0.008-1.846,0.012
			c-0.439-5.241-0.878-10.482-1.316-15.725c-0.408,0.014-0.816,0.027-1.225,0.041c-0.396,5.311-0.791,10.62-1.186,15.929
			c-0.385-0.059-0.769-0.117-1.152-0.177C1.069,29.231,2.496,15.152,4.433,1.071C4.877,1.032,5.321,0.994,5.766,0.955z"/>
	</g>
</g>
</svg>
