<?xml version="1.0" encoding="utf-8"?>
<!-- Generator: Adobe Illustrator 16.0.3, SVG Export Plug-In . SVG Version: 6.00 Build 0)  -->
<!DOCTYPE svg PUBLIC "-//W3C//DTD SVG 1.1//EN" "http://www.w3.org/Graphics/SVG/1.1/DTD/svg11.dtd">
<svg version="1.1" id="Layer_1" xmlns="http://www.w3.org/2000/svg" xmlns:xlink="http://www.w3.org/1999/xlink" x="0px" y="0px"
	 width="770.316px" height="138.639px" viewBox="0 0 770.316 138.639" enable-background="new 0 0 770.316 138.639"
	 xml:space="preserve">
<line fill-rule="evenodd" clip-rule="evenodd" fill="#006837" stroke="#000000" stroke-width="2" stroke-miterlimit="10" x1="5" y1="68.043" x2="759" y2="68.043"/>
<line fill-rule="evenodd" clip-rule="evenodd" fill="#006837" stroke="#000000" stroke-width="2" stroke-miterlimit="10" x1="5" y1="60.043" x2="5" y2="73.043"/>
<line fill-rule="evenodd" clip-rule="evenodd" fill="#006837" stroke="#000000" stroke-width="2" stroke-miterlimit="10" x1="759" y1="60.043" x2="759" y2="73.043"/>
<line fill-rule="evenodd" clip-rule="evenodd" fill="#006837" stroke="#000000" stroke-width="2" stroke-miterlimit="10" x1="105" y1="61.043" x2="105" y2="74.043"/>
<line fill-rule="evenodd" clip-rule="evenodd" fill="#006837" stroke="#000000" stroke-width="2" stroke-miterlimit="10" x1="205" y1="61.043" x2="205" y2="74.043"/>
<line fill-rule="evenodd" clip-rule="evenodd" fill="#006837" stroke="#000000" stroke-width="2" stroke-miterlimit="10" x1="305" y1="60.043" x2="305" y2="73.043"/>
<line fill-rule="evenodd" clip-rule="evenodd" fill="#006837" stroke="#000000" stroke-width="2" stroke-miterlimit="10" x1="405" y1="60.043" x2="405" y2="73.043"/>
<line fill-rule="evenodd" clip-rule="evenodd" fill="#006837" stroke="#000000" stroke-width="2" stroke-miterlimit="10" x1="505" y1="61.043" x2="505" y2="74.043"/>
<line fill-rule="evenodd" clip-rule="evenodd" fill="#006837" stroke="#000000" stroke-width="2" stroke-miterlimit="10" x1="606" y1="61.043" x2="606" y2="74.043"/>
<line fill-rule="evenodd" clip-rule="evenodd" fill="#006837" stroke="#000000" stroke-width="2" stroke-miterlimit="10" x1="705" y1="61.043" x2="705" y2="74.043"/>
<text transform="matrix(1 0 0 1 100 93.0435)" font-family="'MyriadPro-Regular'" font-size="18">1</text>
<text transform="matrix(1 0 0 1 200 93.0435)" font-family="'MyriadPro-Regular'" font-size="18">2</text>
<text transform="matrix(1 0 0 1 299 93.0435)" font-family="'MyriadPro-Regular'" font-size="18">3</text>
<text transform="matrix(1 0 0 1 400 93.0435)" font-family="'MyriadPro-Regular'" font-size="18">4</text>
<text transform="matrix(1 0 0 1 500 93.0435)" font-family="'MyriadPro-Regular'" font-size="18">5</text>
<text transform="matrix(1 0 0 1 601 93.0435)" font-family="'MyriadPro-Regular'" font-size="18">6</text>
<text transform="matrix(1 0 0 1 699 93.0435)" font-family="'MyriadPro-Regular'" font-size="18">7</text>
<text transform="matrix(1 0 0 1 320 131.0435)" font-family="'HelveticaNeueLight'" font-size="36">Seconds</text>
<text transform="matrix(1 0 0 1 0 93.0435)" font-family="'MyriadPro-Regular'" font-size="18">0</text>
<g>
	<g>
		<path fill-rule="evenodd" clip-rule="evenodd" fill="#006837" d="M764.576,24.155c-0.385,5.921-0.77,11.843-1.152,17.764
			c-0.654,0.005-1.309,0.009-1.965,0.014c-0.15-6.313-0.303-12.626-0.455-18.939c-0.529,0.018-1.057,0.035-1.584,0.051
			c-0.383,6.119-0.766,12.237-1.174,18.78c-4.221-4.081-4.498-32.187,0.186-41.824c0.311,5.349,0.621,10.7,0.932,16.049
			c0.369,0.068,0.74,0.139,1.111,0.207c0.588-5.402,1.178-10.807,1.766-16.21c0.494-0.002,0.988-0.004,1.48-0.005
			c0,5.361,0,10.723,0,16.084c0.609,0.043,1.217,0.086,1.824,0.131c0.281-2.666,0.516-5.336,0.857-7.994
			c0.318-2.467,0.754-4.919,1.516-7.29c3.332,9.252,3.063,33.826-0.006,40.381c-0.391,0.035-0.781,0.07-1.174,0.104
			c0-5.838,0-11.676,0-17.516C766.018,24.014,765.297,24.084,764.576,24.155z"/>
	</g>
	<g>
		<path fill-rule="evenodd" clip-rule="evenodd" fill="#006837" d="M714.576,24.155c-0.385,5.921-0.77,11.843-1.152,17.764
			c-0.654,0.005-1.309,0.009-1.965,0.014c-0.15-6.313-0.303-12.626-0.455-18.939c-0.529,0.018-1.057,0.035-1.584,0.051
			c-0.383,6.119-0.766,12.237-1.174,18.78c-4.221-4.081-4.498-32.187,0.186-41.824c0.311,5.349,0.621,10.7,0.932,16.049
			c0.369,0.068,0.74,0.139,1.111,0.207c0.588-5.402,1.178-10.807,1.766-16.21c0.494-0.002,0.988-0.004,1.48-0.005
			c0,5.361,0,10.723,0,16.084c0.609,0.043,1.217,0.086,1.824,0.131c0.281-2.666,0.516-5.336,0.857-7.994
			c0.318-2.467,0.754-4.919,1.516-7.29c3.332,9.252,3.063,33.826-0.006,40.381c-0.391,0.035-0.781,0.07-1.174,0.104
			c0-5.838,0-11.676,0-17.516C716.018,24.014,715.297,24.084,714.576,24.155z"/>
	</g>
	<g>
		<path fill-rule="evenodd" clip-rule="evenodd" fill="#006837" d="M664.576,24.155c-0.385,5.921-0.77,11.843-1.152,17.764
			c-0.654,0.005-1.309,0.009-1.965,0.014c-0.15-6.313-0.303-12.626-0.455-18.939c-0.529,0.018-1.057,0.035-1.584,0.051
			c-0.383,6.119-0.766,12.237-1.174,18.78c-4.221-4.081-4.498-32.187,0.186-41.824c0.311,5.349,0.621,10.7,0.932,16.049
			c0.369,0.068,0.74,0.139,1.111,0.207c0.588-5.402,1.178-10.807,1.766-16.21c0.494-0.002,0.988-0.004,1.48-0.005
			c0,5.361,0,10.723,0,16.084c0.609,0.043,1.217,0.086,1.824,0.131c0.281-2.666,0.516-5.336,0.857-7.994
			c0.318-2.467,0.754-4.919,1.516-7.29c3.332,9.252,3.063,33.826-0.006,40.381c-0.391,0.035-0.781,0.07-1.174,0.104
			c0-5.838,0-11.676,0-17.516C666.018,24.014,665.297,24.084,664.576,24.155z"/>
	</g>
	<g>
		<path fill-rule="evenodd" clip-rule="evenodd" fill="#006837" d="M614.576,24.155c-0.385,5.921-0.77,11.843-1.152,17.764
			c-0.654,0.005-1.309,0.009-1.965,0.014c-0.15-6.313-0.303-12.626-0.455-18.939c-0.529,0.018-1.057,0.035-1.584,0.051
			c-0.383,6.119-0.766,12.237-1.174,18.78c-4.221-4.081-4.498-32.187,0.186-41.824c0.311,5.349,0.621,10.7,0.932,16.049
			c0.369,0.068,0.74,0.139,1.111,0.207c0.588-5.402,1.178-10.807,1.766-16.21c0.494-0.002,0.988-0.004,1.48-0.005
			c0,5.361,0,10.723,0,16.084c0.609,0.043,1.217,0.086,1.824,0.131c0.281-2.666,0.516-5.336,0.857-7.994
			c0.318-2.467,0.754-4.919,1.516-7.29c3.332,9.252,3.063,33.826-0.006,40.381c-0.391,0.035-0.781,0.07-1.174,0.104
			c0-5.838,0-11.676,0-17.516C616.018,24.014,615.297,24.084,614.576,24.155z"/>
	</g>
	<g>
		<path fill-rule="evenodd" clip-rule="evenodd" fill="#006837" d="M564.576,24.155c-0.385,5.921-0.77,11.843-1.152,17.764
			c-0.654,0.005-1.309,0.009-1.965,0.014c-0.15-6.313-0.303-12.626-0.455-18.939c-0.529,0.018-1.057,0.035-1.584,0.051
			c-0.383,6.119-0.766,12.237-1.174,18.78c-4.221-4.081-4.498-32.187,0.186-41.824c0.311,5.349,0.621,10.7,0.932,16.049
			c0.369,0.068,0.74,0.139,1.111,0.207c0.588-5.402,1.178-10.807,1.766-16.21c0.494-0.002,0.988-0.004,1.48-0.005
			c0,5.361,0,10.723,0,16.084c0.609,0.043,1.217,0.086,1.824,0.131c0.281-2.666,0.516-5.336,0.857-7.994
			c0.318-2.467,0.754-4.919,1.516-7.29c3.332,9.252,3.063,33.826-0.006,40.381c-0.391,0.035-0.781,0.07-1.174,0.104
			c0-5.838,0-11.676,0-17.516C566.018,24.014,565.297,24.084,564.576,24.155z"/>
	</g>
	<g>
		<path fill-rule="evenodd" clip-rule="evenodd" fill="#006837" d="M514.576,24.155c-0.385,5.921-0.77,11.843-1.152,17.764
			c-0.654,0.005-1.309,0.009-1.965,0.014c-0.15-6.313-0.303-12.626-0.455-18.939c-0.529,0.018-1.057,0.035-1.584,0.051
			c-0.383,6.119-0.766,12.237-1.174,18.78c-4.221-4.081-4.498-32.187,0.186-41.824c0.311,5.349,0.621,10.7,0.932,16.049
			c0.369,0.068,0.74,0.139,1.111,0.207c0.588-5.402,1.178-10.807,1.766-16.21c0.494-0.002,0.988-0.004,1.48-0.005
			c0,5.361,0,10.723,0,16.084c0.609,0.043,1.217,0.086,1.824,0.131c0.281-2.666,0.516-5.336,0.857-7.994
			c0.318-2.467,0.754-4.919,1.516-7.29c3.332,9.252,3.063,33.826-0.006,40.381c-0.391,0.035-0.781,0.07-1.174,0.104
			c0-5.838,0-11.676,0-17.516C516.018,24.014,515.297,24.084,514.576,24.155z"/>
	</g>
	<g>
		<path fill-rule="evenodd" clip-rule="evenodd" fill="#006837" d="M464.576,24.155c-0.385,5.921-0.77,11.843-1.152,17.764
			c-0.654,0.005-1.309,0.009-1.965,0.014c-0.15-6.313-0.303-12.626-0.455-18.939c-0.529,0.018-1.057,0.035-1.584,0.051
			c-0.383,6.119-0.766,12.237-1.174,18.78c-4.221-4.081-4.498-32.187,0.186-41.824c0.311,5.349,0.621,10.7,0.932,16.049
			c0.369,0.068,0.74,0.139,1.111,0.207c0.588-5.402,1.178-10.807,1.766-16.21c0.494-0.002,0.988-0.004,1.48-0.005
			c0,5.361,0,10.723,0,16.084c0.609,0.043,1.217,0.086,1.824,0.131c0.281-2.666,0.516-5.336,0.857-7.994
			c0.318-2.467,0.754-4.919,1.516-7.29c3.332,9.252,3.063,33.826-0.006,40.381c-0.391,0.035-0.781,0.07-1.174,0.104
			c0-5.838,0-11.676,0-17.516C466.018,24.014,465.297,24.084,464.576,24.155z"/>
	</g>
	<g>
		<path fill-rule="evenodd" clip-rule="evenodd" fill="#006837" d="M414.576,24.155c-0.385,5.921-0.77,11.843-1.152,17.764
			c-0.654,0.005-1.309,0.009-1.965,0.014c-0.15-6.313-0.303-12.626-0.455-18.939c-0.529,0.018-1.057,0.035-1.584,0.051
			c-0.383,6.119-0.766,12.237-1.174,18.78c-4.221-4.081-4.498-32.187,0.186-41.824c0.311,5.349,0.621,10.7,0.932,16.049
			c0.369,0.068,0.74,0.139,1.111,0.207c0.588-5.402,1.178-10.807,1.766-16.21c0.494-0.002,0.988-0.004,1.48-0.005
			c0,5.361,0,10.723,0,16.084c0.609,0.043,1.217,0.086,1.824,0.131c0.281-2.666,0.516-5.336,0.857-7.994
			c0.318-2.467,0.754-4.919,1.516-7.29c3.332,9.252,3.063,33.826-0.006,40.381c-0.391,0.035-0.781,0.07-1.174,0.104
			c0-5.838,0-11.676,0-17.516C416.018,24.014,415.297,24.084,414.576,24.155z"/>
	</g>
	<g>
		<path fill-rule="evenodd" clip-rule="evenodd" fill="#006837" d="M364.577,24.155c-0.385,5.921-0.77,11.843-1.153,17.764
			c-0.654,0.005-1.309,0.009-1.964,0.014c-0.151-6.313-0.304-12.626-0.456-18.939c-0.528,0.018-1.056,0.035-1.584,0.051
			c-0.383,6.119-0.765,12.237-1.173,18.78c-4.221-4.081-4.498-32.187,0.186-41.824c0.31,5.349,0.62,10.7,0.931,16.049
			c0.37,0.068,0.741,0.139,1.112,0.207c0.588-5.402,1.177-10.807,1.766-16.21c0.493-0.002,0.987-0.004,1.48-0.005
			c0,5.361,0,10.723,0,16.084c0.608,0.043,1.216,0.086,1.824,0.131c0.281-2.666,0.515-5.336,0.857-7.994
			c0.318-2.467,0.754-4.919,1.516-7.29c3.332,9.252,3.062,33.826-0.006,40.381c-0.392,0.035-0.782,0.07-1.174,0.104
			c0-5.838,0-11.676,0-17.516C366.018,24.014,365.297,24.084,364.577,24.155z"/>
	</g>
	<g>
		<path fill-rule="evenodd" clip-rule="evenodd" fill="#006837" d="M314.577,24.155c-0.385,5.921-0.77,11.843-1.153,17.764
			c-0.654,0.005-1.309,0.009-1.964,0.014c-0.151-6.313-0.304-12.626-0.456-18.939c-0.528,0.018-1.056,0.035-1.584,0.051
			c-0.383,6.119-0.765,12.237-1.173,18.78c-4.221-4.081-4.498-32.187,0.186-41.824c0.31,5.349,0.62,10.7,0.931,16.049
			c0.37,0.068,0.741,0.139,1.112,0.207c0.588-5.402,1.177-10.807,1.766-16.21c0.493-0.002,0.987-0.004,1.48-0.005
			c0,5.361,0,10.723,0,16.084c0.608,0.043,1.216,0.086,1.824,0.131c0.281-2.666,0.515-5.336,0.857-7.994
			c0.318-2.467,0.754-4.919,1.516-7.29c3.332,9.252,3.062,33.826-0.006,40.381c-0.392,0.035-0.782,0.07-1.174,0.104
			c0-5.838,0-11.676,0-17.516C316.018,24.014,315.297,24.084,314.577,24.155z"/>
	</g>
	<g>
		<path fill-rule="evenodd" clip-rule="evenodd" fill="#006837" d="M264.577,24.155c-0.385,5.921-0.77,11.843-1.153,17.764
			c-0.654,0.005-1.309,0.009-1.964,0.014c-0.151-6.313-0.304-12.626-0.456-18.939c-0.528,0.018-1.056,0.035-1.584,0.051
			c-0.383,6.119-0.765,12.237-1.173,18.78c-4.221-4.081-4.498-32.187,0.186-41.824c0.31,5.349,0.62,10.7,0.931,16.049
			c0.37,0.068,0.741,0.139,1.112,0.207c0.588-5.402,1.177-10.807,1.766-16.21c0.493-0.002,0.987-0.004,1.48-0.005
			c0,5.361,0,10.723,0,16.084c0.608,0.043,1.216,0.086,1.824,0.131c0.281-2.666,0.515-5.336,0.857-7.994
			c0.318-2.467,0.754-4.919,1.516-7.29c3.332,9.252,3.062,33.826-0.006,40.381c-0.392,0.035-0.782,0.07-1.174,0.104
			c0-5.838,0-11.676,0-17.516C266.018,24.014,265.297,24.084,264.577,24.155z"/>
	</g>
	<g>
		<path fill-rule="evenodd" clip-rule="evenodd" fill="#006837" d="M214.577,24.155c-0.385,5.921-0.77,11.843-1.153,17.764
			c-0.654,0.005-1.309,0.009-1.964,0.014c-0.151-6.313-0.304-12.626-0.456-18.939c-0.528,0.018-1.056,0.035-1.584,0.051
			c-0.383,6.119-0.765,12.237-1.173,18.78c-4.221-4.081-4.498-32.187,0.186-41.824c0.31,5.349,0.62,10.7,0.931,16.049
			c0.37,0.068,0.741,0.139,1.112,0.207c0.588-5.402,1.177-10.807,1.766-16.21c0.493-0.002,0.987-0.004,1.48-0.005
			c0,5.361,0,10.723,0,16.084c0.608,0.043,1.216,0.086,1.824,0.131c0.281-2.666,0.515-5.336,0.857-7.994
			c0.318-2.467,0.754-4.919,1.516-7.29c3.332,9.252,3.062,33.826-0.006,40.381c-0.392,0.035-0.782,0.07-1.174,0.104
			c0-5.838,0-11.676,0-17.516C216.018,24.014,215.297,24.084,214.577,24.155z"/>
	</g>
	<g>
		<path fill-rule="evenodd" clip-rule="evenodd" fill="#006837" d="M164.577,24.155c-0.385,5.921-0.77,11.843-1.153,17.764
			c-0.654,0.005-1.309,0.009-1.964,0.014c-0.151-6.313-0.304-12.626-0.456-18.939c-0.528,0.018-1.056,0.035-1.584,0.051
			c-0.383,6.119-0.765,12.237-1.173,18.78c-4.221-4.081-4.498-32.187,0.186-41.824c0.31,5.349,0.62,10.7,0.931,16.049
			c0.37,0.068,0.741,0.139,1.112,0.207c0.588-5.402,1.177-10.807,1.766-16.21c0.493-0.002,0.987-0.004,1.48-0.005
			c0,5.361,0,10.723,0,16.084c0.608,0.043,1.216,0.086,1.824,0.131c0.281-2.666,0.515-5.336,0.857-7.994
			c0.318-2.467,0.754-4.919,1.516-7.29c3.332,9.252,3.062,33.826-0.006,40.381c-0.392,0.035-0.782,0.07-1.174,0.104
			c0-5.838,0-11.676,0-17.516C166.018,24.014,165.297,24.084,164.577,24.155z"/>
	</g>
	<g>
		<path fill-rule="evenodd" clip-rule="evenodd" fill="#006837" d="M114.577,24.155c-0.385,5.921-0.77,11.843-1.153,17.764
			c-0.654,0.005-1.309,0.009-1.964,0.014c-0.151-6.313-0.304-12.626-0.456-18.939c-0.528,0.018-1.056,0.035-1.584,0.051
			c-0.383,6.119-0.765,12.237-1.173,18.78c-4.221-4.081-4.498-32.187,0.186-41.824c0.31,5.349,0.62,10.7,0.931,16.049
			c0.37,0.068,0.741,0.139,1.112,0.207c0.588-5.402,1.177-10.807,1.766-16.21c0.493-0.002,0.987-0.004,1.48-0.005
			c0,5.361,0,10.723,0,16.084c0.608,0.043,1.216,0.086,1.824,0.131c0.281-2.666,0.515-5.336,0.857-7.994
			c0.318-2.467,0.754-4.919,1.516-7.29c3.332,9.252,3.062,33.826-0.006,40.381c-0.392,0.035-0.782,0.07-1.174,0.104
			c0-5.838,0-11.676,0-17.516C116.018,24.014,115.297,24.084,114.577,24.155z"/>
	</g>
	<g>
		<path fill-rule="evenodd" clip-rule="evenodd" fill="#006837" d="M64.577,24.155c-0.385,5.921-0.77,11.843-1.153,17.764
			c-0.654,0.005-1.309,0.009-1.964,0.014c-0.151-6.313-0.304-12.626-0.456-18.939c-0.528,0.018-1.056,0.035-1.584,0.051
			c-0.383,6.119-0.765,12.237-1.173,18.78C54.026,37.743,53.749,9.637,58.432,0c0.31,5.349,0.62,10.7,0.931,16.049
			c0.37,0.068,0.741,0.139,1.112,0.207c0.588-5.402,1.177-10.807,1.766-16.21c0.493-0.002,0.987-0.004,1.48-0.005
			c0,5.361,0,10.723,0,16.084c0.608,0.043,1.216,0.086,1.824,0.131c0.281-2.666,0.515-5.336,0.857-7.994
			c0.318-2.467,0.754-4.919,1.516-7.29c3.332,9.252,3.062,33.826-0.006,40.381c-0.392,0.035-0.782,0.07-1.174,0.104
			c0-5.838,0-11.676,0-17.516C66.018,24.014,65.297,24.084,64.577,24.155z"/>
	</g>
	<g>
		<path fill-rule="evenodd" clip-rule="evenodd" fill="#006837" d="M14.577,24.155c-0.385,5.921-0.77,11.843-1.153,17.764
			c-0.654,0.005-1.309,0.009-1.964,0.014c-0.151-6.313-0.304-12.626-0.456-18.939c-0.528,0.018-1.056,0.035-1.584,0.051
			c-0.383,6.119-0.765,12.237-1.173,18.78C4.026,37.743,3.749,9.637,8.432,0c0.31,5.349,0.62,10.7,0.931,16.049
			c0.37,0.068,0.741,0.139,1.112,0.207c0.588-5.402,1.177-10.807,1.766-16.21c0.493-0.002,0.987-0.004,1.48-0.005
			c0,5.361,0,10.723,0,16.084c0.608,0.043,1.216,0.086,1.824,0.131c0.281-2.666,0.515-5.336,0.857-7.994
			c0.318-2.467,0.754-4.919,1.516-7.29c3.332,9.252,3.062,33.826-0.006,40.381c-0.392,0.035-0.782,0.07-1.174,0.104
			c0-5.838,0-11.676,0-17.516C16.018,24.014,15.297,24.084,14.577,24.155z"/>
	</g>
</g>
</svg>
